<?xml version="1.0" encoding="UTF-8"?>
<svg width="494px" height="455px" viewBox="0 0 494 455" version="1.1" xmlns="http://www.w3.org/2000/svg" xmlns:xlink="http://www.w3.org/1999/xlink">
    <title>Untitled</title>
    <g id="Page-1" stroke="none" stroke-width="1" fill="none" fill-rule="evenodd">
        <g id="bookings" fill-rule="nonzero">
            <rect id="Rectangle" fill="#FAE6E2" x="155" y="0" width="297" height="432" rx="16"></rect>
            <path d="M318.921,100.852 C313.68,93.5718 306.088,94.3752 304.304,98.8654 C303.669,99.7733 303.211,100.793 302.955,101.871 C302.934,101.947 302.934,102.027 302.954,102.103 C302.975,102.179 303.015,102.249 303.07,102.304 C303.126,102.36 303.195,102.4 303.271,102.42 C303.347,102.44 303.427,102.44 303.503,102.42 C309.502,101 314.184,101.12 316.675,106.782 C319.327,112.822 318.973,115.602 319.967,117.055 C320.466,117.783 321.558,118.282 321.664,119.223 C321.716,119.668 322.39,119.847 322.502,119.327 C323.223,116.168 323.277,112.893 322.66,109.712 C322.044,106.531 320.77,103.513 318.921,100.852 Z" id="Path" fill="#38A1FF"></path>
            <path d="M403.148,213.748 C403.078,211.86 400.574,212.669 400.288,213.722 C399.725,215.255 399.716,216.938 400.262,218.477 C400.73,219.343 401.872,219.023 402.327,218.217 C403.106,216.866 403.396,215.288 403.148,213.748 Z" id="Path" fill="#191919"></path>
            <path d="M316.727,297.428 C315.851,293.972 311.137,288.572 308.625,286.139 C306.972,284.553 305.216,283.076 303.371,281.719 C301.751,280.517 299.731,278.599 297.622,279.68 C297.511,279.746 297.419,279.84 297.355,279.953 C297.292,280.065 297.258,280.192 297.258,280.321 C297.258,280.45 297.292,280.577 297.355,280.69 C297.419,280.802 297.511,280.896 297.622,280.962 C301.027,283.307 304.266,285.882 307.317,288.671 C312.723,293.98 313.227,296.073 315.549,298.104 C315.66,298.208 315.801,298.274 315.952,298.291 C316.104,298.309 316.256,298.278 316.388,298.202 C316.52,298.126 316.624,298.01 316.685,297.871 C316.746,297.731 316.761,297.576 316.727,297.428 Z" id="Path" fill="#191919"></path>
            <path d="M320.333,292.173 C320.026,289.412 316.243,284.745 314.478,282.813 C313.182,281.397 311.776,280.087 310.271,278.895 C308.976,277.572 307.323,276.655 305.516,276.256 C305.364,276.258 305.216,276.299 305.085,276.375 C304.954,276.452 304.845,276.561 304.769,276.691 C304.692,276.822 304.651,276.971 304.648923,277.122 C304.647,277.273 304.684,277.423 304.756,277.556 C305.825,278.884 307.116,280.017 308.573,280.902 C315.593,286.552 317.057,291.042 319.155,292.688 C319.574,292.982 320.406,292.826 320.333,292.173 Z" id="Path" fill="#191919"></path>
            <path d="M324.74,290.422 C323.093,285.398 320.763,280.624 317.816,276.234 C317.099,275.142 316.116,272.797 314.574,272.94 C314.43,272.939 314.288,272.978 314.164,273.052 C314.04,273.126 313.938,273.232 313.869,273.358 C313.303,274.809 314.605,275.958 315.385,277.121 C317.985,280.953 321.285,286.871 323.487,290.945 C323.572,291.086 323.705,291.191 323.861,291.242 C324.017,291.294 324.187,291.287 324.339,291.224 C324.491,291.16 324.615,291.045 324.688,290.898 C324.762,290.75 324.78,290.582 324.74,290.422 Z" id="Path" fill="#191919"></path>
            <path d="M321.193,298.421 C322.899,299.437 324.313,300.878 325.296,302.602 C325.707,303.382 326.841,306.552 328.12,304.771 C329.116,303.387 327.366,301.006 326.526,299.963 C325.349,298.44 323.658,297.399 321.768,297.036 C321.593,296.997 321.41,297.021 321.252,297.104 C321.093,297.186 320.968,297.322 320.9,297.488 C320.831,297.653 320.823,297.837 320.877,298.008 C320.931,298.179 321.043,298.325 321.193,298.421 Z" id="Path" fill="#191919"></path>
            <path d="M374.455,315.042 C373.717,313.608 372.571,312.426 371.16,311.644 C364.346,306.597 356.814,302.598 348.816,299.78 C345.603,298.289 342.016,297.797 338.52,298.368 C338.369,298.421 338.238,298.518 338.145,298.647 C338.051,298.777 337.999,298.932 337.995937,299.091 C337.994,299.251 338.04,299.407 338.129,299.54 C338.218,299.672 338.345,299.774 338.494,299.832 C341.749,300.375 344.938,301.26 348.007,302.471 C365.724,309.301 370.193,315.913 373.409,316.373 C373.571,316.369 373.73,316.33 373.875,316.257 C374.019,316.185 374.146,316.081 374.246,315.954 C374.346,315.827 374.416,315.679 374.452,315.521 C374.488,315.364 374.489,315.2 374.455,315.042 Z" id="Path" fill="#191919"></path>
            <path d="M423.925,380.033 C429.433,388.201 434.258,396.81 438.35,405.773 C453.747,436.432 453.497,443.837 456.173,450.173 C456.646,451.296 458.495,450.724 458.419,449.572 C457.985,442.849 451.449,426.817 448.539,420.304 C444.34,410.892 439.645,401.688 434.819,392.578 C432.502,387.51 429.237,382.932 425.199,379.092 C424.526,378.514 423.35,379.248 423.925,380.033 Z" id="Path" fill="#191919"></path>
            <path d="M493.308,338.248 C492.056,318.046 486.382,298.366 476.687,280.599 C472.563,273.043 467.173,264.219 458.942,260.555 C459.038,260.358 459.084,260.14 459.075,259.921 C459.066,259.701 459.002,259.488 458.89,259.299 C456.416,255.708 453.501,252.442 450.213,249.578 C447.078,246.864 443.713,244.482 439.473,245.085 C438.382,244.227 437.474,243.16 436.8,241.947 C436.344,240.975 436.019,239.947 435.833,238.889 C437.286,238.268 437.346,236.75 438.656,231.076 C440.802,226.781 442.4,222.234 443.412,217.541 C444.738,210.899 444.746,204.062 443.438,197.417 C442.99,194.206 441.915,191.114 440.276,188.317 C435.365,180.995 425.326,181.021 416.757,180.66 C408.34,180.306 399.95,179.981 391.537,179.641 C391.285,179.645 391.038,179.715 390.821,179.844 C390.604,179.972 390.423,180.154 390.297,180.372 C390.171,180.591 390.104,180.838 390.101,181.09 C390.099,181.342 390.162,181.591 390.283,181.812 C391.13,183.373 392.11,184.859 393.211,186.252 C392.792,186.252 392.4,186.273 391.981,186.278 C391.014,186.278 390.104,187.48 390.78,188.358 C393.513,192.175 397.353,195.059 401.781,196.619 C399.234,202.919 397.478,209.511 396.555,216.243 C394.694,218.616 393.246,221.284 392.27,224.137 C392.114,226.277 395.694,229.152 395.954,229.152 C396.214,237.472 397.592,253.161 409.074,250.452 C411.414,249.879 413.629,248.878 415.605,247.498 C415.815,248.047 416.094,248.574 416.26,249.04 C416.716,250.516 417.385,251.917 418.246,253.2 C418.61,253.699 419.546,253.592 419.526,252.862 C419.387,251.26 419.027,249.685 418.454,248.182 C418.272,247.333 417.991,246.508 417.617,245.725 C418.202,245.122 418.656,244.404 418.948,243.617 C419.241,242.83 419.367,241.99 419.318,241.151 C419.263,240.551 418.402,240.158 418.062,240.811 C417.142,242.542 415.869,244.062 414.325,245.271 C412.781,246.48 411.001,247.352 409.1,247.831 C403.79,249.362 400.894,244.877 399.875,240.304 C397.023,225.921 398.403,211.019 403.845,197.404 C406.767,198.379 408.343,199.484 409.36,204.304 C409.966,207.661 410.313,211.06 410.4,214.47 C410.288,215.819 410.605,217.169 411.305,218.328 C412.006,219.486 413.053,220.395 414.3,220.923 C414.828,221.071 415.381,221.111 415.925,221.041 C416.469,220.972 416.994,220.794 417.469,220.519 C417.944,220.244 418.359,219.877 418.69,219.439 C419.021,219.001 419.261,218.502 419.396,217.97 C419.676,217.263 419.819,216.017 420.415,215.489 C421.34,214.663 422.367,216.589 422.687,217.239 C423.558,218.999 424.624,221.997 423.288,223.799 C422.378,225.029 420.688,225.211 419.908,226.646 C418.759,228.817 418.569,235.333 421.894,241.255 C422.085,241.577 422.394,241.812 422.756,241.909 C423.117,242.006 423.502,241.958 423.829,241.775 C426.857,239.903 430.384,238.997 433.94,239.178 C433.837,240.408 433.988,241.646 434.384,242.814 C434.78,243.983 435.412,245.058 436.241,245.972 C430.375,248.002 419.151,253.044 414.027,257.576 C413.935,257.673 413.878,257.797 413.863,257.929 C413.849,258.062 413.877,258.196 413.945,258.31 C414.013,258.425 414.116,258.515 414.239,258.566 C414.362,258.618 414.498,258.628 414.627,258.595 C420.794,256.27 427.071,251.97 437.705,248.403 C439.593,247.6 441.72,247.563 443.635,248.299 C447.377,249.924 452.774,255.665 455.421,259.117 C441.529,261.471 427.961,265.444 414.994,270.955 C414.762,267.457 414.911,263.943 415.438,260.477 C415.618,259.143 413.408,258.883 413.098,260.163 C412.223,264.322 412.065,268.599 412.63,272.812 C412.63,273.264 413.317,272.5 408.918,274.632 C404.103,276.932 399.613,279.858 395.564,283.334 C380.947,296.521 367.76,332.318 362.297,350.934 C357.945,340.33 352.599,330.162 346.33,320.566 C344.573,317.864 343.541,314.908 340.267,314.791 C340.241,314.765 340.241,314.739 340.215,314.713 C337.909,312.279 336.333,309.246 335.668,305.959 C335.299,302.665 335.169,299.373 334.571,296.079 C333.544,290.434 331.006,281.698 327.618,277.239 C327.145,276.613 325.946,276.925 326.232,277.814 C327.272,281.054 328.871,284.137 329.971,287.377 C335.543,303.83 330.252,305.837 337.548,315.054 C332.974,316 326.537,316.9 325.588,317.118 C325.701,315.888 325.377,314.657 324.672,313.642 C321.721,309.381 317.057,308.65 313.513,306.245 C308.807,303.052 305.841,295.247 299.819,293.859 C299.526,293.784 299.217,293.805 298.937,293.917 C298.656,294.03 298.419,294.229 298.259,294.485 C298.159,294.709 298.097,294.948 298.077,295.192 C297.877,297.012 300.659,296.001 305.237,301.542 C306.947,303.902 308.901,306.074 311.067,308.023 C314.389,310.657 319.069,311.544 321.833,314.191 C322.83,315.137 323.626,316.274 324.173,317.534 C324.173,317.563 324.173,317.563 324.199,317.589 C323.747,317.765 323.334,318.028 322.985,318.364 C322.635,318.7 322.355,319.102 322.161,319.547 C321.471,321.931 321.06,324.387 320.934,326.866 C319.069,340.971 317.985,359.462 321.274,373.304 C330.093,410.435 374.834,426.945 407.251,397.372 C414.164,390.521 419.974,382.64 424.473,374.009 C431.26,362.848 436.857,351.006 441.171,338.677 C441.462,337.921 440.203,337.396 439.871,338.129 C437.791,342.596 435.451,346.93 433.259,351.389 C427.874,362.353 418.844,379.989 411.07,389.307 C400.426,402.078 384.496,410.653 367.611,409.717 C358.974,409.188 350.643,406.322 343.508,401.425 C336.374,396.527 330.704,389.783 327.106,381.913 C323.534,373.223 321.782,363.892 321.958,354.498 C321.814,344.447 322.444,334.4 323.84,324.445 C324.381,320.529 324.08,319.989 326.765,319.505 C329.274,319.055 336.645,317.901 337.821,317.703 C338.996,317.506 340.514,316.97 341.427,317.911 C349.29,329.39 355.946,341.651 361.288,354.498 C360.508,357.504 359.817,360.512 359.276,363.567 C359.242,363.816 359.3,364.069 359.439,364.279 C359.578,364.489 359.787,364.641 360.03,364.708 C360.272,364.775 360.53,364.752 360.757,364.643 C360.984,364.534 361.163,364.347 361.262,364.116 C364.973,350.071 369.582,336.279 375.06,322.825 C379.623,311.973 387.002,295.842 395.182,287.335 C408.616,273.365 437.744,264.562 457.015,261.569 C458.975,263.532 465.124,265.321 473.582,280.385 C493.384,315.652 493.371,351.989 489.367,392.521 C488.962,395.502 488.736,398.504 488.688,401.512 C488.689,401.762 488.78,402.003 488.944,402.192 C489.108,402.381 489.335,402.504 489.582,402.539 C489.83,402.574 490.082,402.518 490.292,402.383 C490.502,402.247 490.657,402.04 490.727,401.8 C493.722,380.757 494.587,359.465 493.308,338.248 Z M395.936,226.295 C395.177,225.666 394.339,225.091 394.472,224.124 C394.829,222.864 395.394,221.672 396.144,220.598 C395.98,222.504 395.936,224.413 395.936,226.295 Z M433.072,191.715 C432.552,190.563 434.018,189.115 434.951,190.251 C437.395,193.359 439.037,197.02 439.735,200.911 C440.424,204.255 441.137,208.797 439.265,211.86 C439.161,212.022 439.014,212.152 438.84,212.233 C438.665,212.315 438.471,212.345 438.281,212.32 C438.09,212.296 437.91,212.217 437.762,212.094 C437.614,211.971 437.504,211.809 437.445,211.626 C436.561,208.488 437.26,204.988 436.665,201.746 C435.878,198.271 434.671,194.904 433.072,191.72 L433.072,191.715 Z" id="Shape" fill="#191919"></path>
            <path d="M330.236,240.717 C331.765,243.07 333.567,243.447 339.932,250.077 C346.741,257.164 347.191,259.322 348.948,260.139 C349.108,260.223 349.287,260.259 349.467,260.244 C349.646,260.229 349.817,260.163 349.96,260.053 C350.103,259.944 350.211,259.796 350.273,259.627 C350.334,259.457 350.345,259.274 350.306,259.099 C350.041,258.002 349.481,256.998 348.686,256.197 C345.131,251.607 341.131,247.379 336.744,243.577 C335.131,241.93 333.237,240.585 331.151,239.604 C331.004,239.559 330.846,239.559 330.699,239.604 C330.551,239.648 330.42,239.736 330.322,239.855 C330.224,239.974 330.164,240.119 330.149,240.273 C330.133,240.426 330.164,240.581 330.236,240.717 Z" id="Path" fill="#191919"></path>
            <path d="M333.294,234.182 C334.851,236.026 336.565,237.731 338.416,239.278 C348.35,248.987 349.973,254.145 352.763,256.082 C353.394,256.521 354.011,255.796 353.912,255.193 C353.213,252.856 351.989,250.711 350.332,248.922 C347.38,244.858 344.037,241.094 340.35,237.684 C338.636,235.842 336.643,234.281 334.443,233.059 C333.738,232.796 332.771,233.452 333.294,234.182 Z" id="Path" fill="#191919"></path>
            <path d="M343.252,234.234 C347.603,238.373 351.334,243.117 354.331,248.321 C355.111,249.785 355.761,251.961 357.232,252.894 C357.318,252.942 357.413,252.969 357.511,252.975 C357.609,252.98 357.707,252.964 357.798,252.926 C357.888,252.888 357.969,252.83 358.034,252.757 C358.099,252.683 358.147,252.596 358.173,252.502 C358.185,250.562 357.56,248.671 356.395,247.12 C353.5,241.519 349.251,236.73 344.035,233.189 C343.411,232.82 342.758,233.709 343.252,234.234 Z" id="Path" fill="#191919"></path>
            <path d="M390.629,282.507 C386.362,277.409 381.38,272.955 375.838,269.283 C375.58,269.128 375.276,269.064 374.977,269.101 C367.679,261.637 367.055,241.021 354.305,232.044 C353.6,231.547 352.841,232.621 353.416,233.193 C365.495,245.213 365.792,262.729 372.991,270.303 C369.696,272.637 366.594,275.233 363.714,278.064 C361.021,271.948 353.135,270.448 347.459,268.498 C344.165,267.336 341.129,265.544 338.52,263.22 C336.484,261.494 333.208,258.467 330.341,259.458 C330.163,259.513 330.005,259.617 329.885,259.759 C329.765,259.901 329.689,260.074 329.664,260.258 C329.639,260.442 329.668,260.629 329.746,260.798 C329.825,260.966 329.95,261.108 330.107,261.208 C331.282,262.019 332.707,262.326 333.921,263.116 C335.164,263.98 336.351,264.923 337.475,265.937 C346.7,273.709 355.064,270.986 362.458,279.319 C359.338,282.439 361.239,283.053 364.681,287.314 C369.634,293.453 372.481,298.851 374.481,300.642 C374.58,300.731 374.705,300.786 374.837,300.8 C374.97,300.814 375.103,300.785 375.218,300.719 C375.334,300.652 375.425,300.551 375.479,300.429 C375.534,300.307 375.548,300.172 375.521,300.041 C374.577,295.621 368.142,287.45 365.381,283.945 C364.905,283.218 364.344,282.551 363.709,281.958 C364.351,281.636 363.004,282.247 367.89,277.83 C370.189,275.755 372.615,273.826 375.154,272.052 C383.165,277.538 385.19,280.822 388.934,283.812 C389.805,284.512 391.363,283.578 390.629,282.507 Z" id="Path" fill="#191919"></path>
            <path d="M331.804,151.993 C335.858,150.413 339.547,148.025 342.649,144.973 C343.51,144.162 345.023,143.169 344.898,141.838 C344.895,141.714 344.844,141.596 344.756,141.509 C344.669,141.421 344.551,141.37 344.427,141.367 C342.831,141.385 343.216,142.436 338.572,146.099 C334.732,149.126 333.029,149.536 331.308,150.881 C331.196,150.966 331.117,151.087 331.082,151.224 C331.048,151.36 331.06,151.504 331.117,151.633 C331.175,151.761 331.274,151.867 331.398,151.932 C331.523,151.998 331.666,152.019 331.804,151.993 Z" id="Path" fill="#191919"></path>
            <path d="M333.58,155.261 C337.196,153.709 340.617,151.736 343.772,149.382 C344.656,148.699 345.87,147.869 346.07,146.717 C346.094,146.62 346.092,146.518 346.065,146.422 C346.038,146.325 345.987,146.237 345.916,146.166 C345.845,146.095 345.758,146.044 345.661,146.016 C345.565,145.989 345.463,145.987 345.366,146.01 C343.891,146.205 343.738,147.31 339.432,150.17 C337.316,151.579 335.124,152.903 333.005,154.299 C332.896,154.383 332.821,154.505 332.795,154.641 C332.77,154.776 332.794,154.917 332.865,155.035 C332.936,155.154 333.048,155.242 333.18,155.284 C333.311,155.326 333.454,155.317 333.58,155.261 Z" id="Path" fill="#191919"></path>
            <path d="M301.829,112.82 C300.948,114.586 303.529,115.855 304,114.414 C304.139,113.966 304.157,113.489 304.051,113.032 C303.945,112.575 303.719,112.155 303.397,111.814 C302.866,111.258 301.829,111.588 301.829,112.82 Z" id="Path" fill="#191919"></path>
            <path d="M310.349,112.3 C309.192,111.382 307.642,113.165 308.859,114.993 C309.938,116.61 312.047,113.649 310.349,112.3 Z" id="Path" fill="#191919"></path>
            <path d="M311.48,166.031 C311.416,165.924 311.329,165.834 311.225,165.766 C311.121,165.698 311.002,165.654 310.879,165.639 C310.756,165.624 310.63,165.637 310.513,165.677 C310.395,165.718 310.288,165.785 310.201,165.873 C309.936,166.127 309.755,166.455 309.68,166.814 C309.605,167.173 309.641,167.546 309.782,167.885 C310.177,168.665 311.389,169.091 311.716,168.2 C311.833,167.842 311.872,167.464 311.832,167.09 C311.791,166.716 311.671,166.355 311.48,166.031 Z" id="Path" fill="#191919"></path>
            <path d="M312.884,185.025 C312.988,184.398 312.021,183.902 311.605,184.424 C310.013,186.411 311.709,187.854 312.962,187.43 C313.214,187.34 313.431,187.172 313.581,186.951 C313.732,186.73 313.808,186.466 313.8,186.199 C313.791,185.932 313.698,185.674 313.533,185.463 C313.368,185.252 313.141,185.098 312.884,185.025 Z" id="Path" fill="#191919"></path>
            <path d="M314.34,204.024 C314.209,203.923 314.045,203.875 313.88,203.889 C313.715,203.904 313.562,203.98 313.451,204.102 C312.364,205.288 312.931,206.931 313.947,206.663 C315.258,206.32 315.463,204.443 314.34,204.024 Z" id="Path" fill="#191919"></path>
            <path d="M309.434,107.254 C311.433,108.115 310.859,108.497 311.55,109.293 C311.634,109.373 311.737,109.431 311.849,109.461 C311.962,109.491 312.08,109.491 312.193,109.463 C312.305,109.434 312.409,109.377 312.493,109.297 C312.578,109.218 312.641,109.118 312.676,109.007 C313.147,107.772 311.225,105.676 309.434,106.407 C309.366,106.455 309.311,106.518 309.273,106.592 C309.235,106.666 309.215,106.748 309.215,106.83 C309.215,106.913 309.235,106.995 309.273,107.069 C309.311,107.143 309.366,107.206 309.434,107.254 Z" id="Path" fill="#191919"></path>
            <path d="M304.444,106.522 C303.959,106.493 303.476,106.61 303.057,106.857 C302.638,107.104 302.302,107.469 302.091,107.908 C302.007,108.079 301.992,108.275 302.047,108.458 C302.102,108.64 302.224,108.795 302.389,108.891 C302.554,108.987 302.749,109.017 302.935,108.975 C303.121,108.933 303.284,108.822 303.391,108.664 C303.719,108.262 304.141,107.947 304.621,107.749 C304.765,107.706 304.889,107.613 304.97,107.486 C305.051,107.359 305.084,107.208 305.063,107.059 C305.041,106.91 304.967,106.774 304.853,106.675 C304.74,106.577 304.595,106.522 304.444,106.522 Z" id="Path" fill="#191919"></path>
            <path d="M306.28,113.92 C305.763,114.779 305.384,115.714 305.157,116.691 C304.849,117.522 304.715,118.407 304.764,119.291 C305.084,121.015 307.273,120.786 308.529,120.467 C308.716,120.414 308.874,120.29 308.97,120.121 C309.065,119.952 309.089,119.753 309.037,119.566 C308.985,119.379 308.861,119.22 308.692,119.125 C308.523,119.03 308.323,119.005 308.136,119.057 C305.05,119.809 306.316,118.813 307.143,114.273 C307.167,114.164 307.152,114.05 307.101,113.951 C307.049,113.852 306.964,113.775 306.86,113.733 C306.757,113.69 306.642,113.686 306.536,113.72 C306.43,113.754 306.339,113.825 306.28,113.92 Z" id="Path" fill="#191919"></path>
            <path d="M308.807,123.56 C308.67,123.239 308.465,122.952 308.207,122.718 C307.948,122.484 307.642,122.308 307.309,122.204 C306.976,122.1 306.624,122.069 306.278,122.114 C305.932,122.158 305.6,122.278 305.305,122.463 C305.116,122.341 304.904,122.26 304.682,122.225 C304.459,122.191 304.233,122.204 304.016,122.263 C303.799,122.322 303.597,122.426 303.423,122.569 C303.249,122.711 303.107,122.889 303.006,123.09 C301.212,124.187 302.884,128.607 306.168,128.056 C306.662,127.981 307.134,127.798 307.548,127.518 C307.962,127.238 308.308,126.869 308.561,126.438 C308.814,126.007 308.967,125.525 309.01,125.027 C309.052,124.529 308.983,124.028 308.807,123.56 Z" id="Path" fill="#191919"></path>
            <path d="M304.98,173.296 C304.936,173.125 304.835,172.974 304.693,172.87 C304.551,172.765 304.376,172.713 304.2,172.722 C302.162,172.722 300.123,172.745 298.111,172.774 C296.205,172.651 294.292,172.764 292.414,173.112 C292.335,173.138 292.266,173.189 292.217,173.258 C292.168,173.326 292.141,173.407 292.141,173.491 C292.141,173.575 292.168,173.657 292.217,173.725 C292.266,173.793 292.335,173.844 292.414,173.871 C294.292,174.218 296.205,174.332 298.111,174.212 C299.915,174.235 301.751,174.264 303.547,174.264 C303.686,175.297 303.747,176.34 303.729,177.384 C300.175,177.358 296.621,177.332 293.093,177.332 C292.911,176.312 292.713,175.317 292.518,174.3 C292.297,173.146 290.553,173.647 290.768,174.797 C290.997,176.027 291.232,177.255 291.473,178.481 C291.522,178.671 291.634,178.839 291.791,178.957 C291.948,179.076 292.14,179.138 292.336,179.133 C303.857,178.613 305.256,179.653 305.336,178.166 C305.387,176.535 305.268,174.903 304.98,173.296 Z" id="Path" fill="#191919"></path>
            <path d="M326.919,260.185 C252.65,260.588 284.047,261.165 211.619,259.507 C197.74,259.187 183.864,259.455 169.988,259.166 C169.64,260.229 169.23,261.271 168.761,262.286 C274.297,264.33 258.926,263.898 330.158,263.326 C328.97,262.601 327.34,261.561 326.919,260.185 Z" id="Path" fill="#191919"></path>
            <path d="M94.281,257.519 C92.201,257.716 92.201,260.964 94.281,260.758 C110.564,259.592 126.913,259.715 143.177,261.125 C143.802,260.13 144.336,259.081 144.771,257.989 C127.816,256.983 111.111,255.901 94.281,257.519 Z" id="Path" fill="#191919"></path>
            <path d="M387.023,181.76 C385.89,94.4416 383.596,87.4684 385.692,69.8586 C385.796,68.9694 384.881,68.3168 384.098,68.2648 C365.1,67.0038 346.047,66.3044 326.997,65.9664 C271.651,64.981 100.482,67.763 89.497,67.4016 C89.103,67.4057 88.727,67.5639 88.448,67.8424 C88.17,68.1209 88.012,68.4975 88.008,68.8914 C86.8635,108.518 87.285,172.501 89.734,219.691 C89.809,221.155 92.053,221.155 92.006,219.691 C90.595,174.55 89.744,118.975 90.966,70.3916 C187.426,72.5626 305.617,65.6596 382.403,71.3068 C381.62,81.2798 381.507,91.2941 382.065,101.282 C382.447,113.172 384.912,246.084 385.383,260.849 C381.046,260.693 376.732,260.563 372.383,260.459 C372.62,261.598 373.091,262.674 373.766,263.621 C375.726,263.673 384.558,263.949 387.026,264.04 C387.437,264.033 387.83,263.866 388.121,263.575 C388.413,263.284 388.579,262.891 388.586,262.48 C387.689,235.593 387.374,208.678 387.023,181.76 Z" id="Path" fill="#191919"></path>
            <path d="M174.824,115.49 C174.719,115.313 174.57,115.167 174.391,115.065 C174.212,114.964 174.01,114.91 173.805,114.91 C173.599,114.91 173.397,114.964 173.219,115.065 C173.04,115.167 172.891,115.313 172.786,115.49 C172.473,116.035 172.328,116.661 172.369,117.288 C172.411,117.916 172.637,118.517 173.02,119.016 C173.719,119.796 174.468,119.104 174.84,118.652 C175.161,118.187 175.332,117.634 175.330017,117.068 C175.327,116.503 175.15,115.952 174.824,115.49 Z" id="Path" fill="#191919"></path>
            <path d="M182.741,116.065 C182.603,114.227 180.523,113.886 180.206,115.176 C179.986,116.018 180.004,116.904 180.258,117.737 C180.315,117.927 180.42,118.098 180.563,118.236 C180.705,118.373 180.881,118.471 181.073,118.521 C181.264,118.571 181.466,118.571 181.657,118.52 C181.849,118.47 182.024,118.371 182.166,118.233 C182.575,117.586 182.775,116.83 182.741,116.065 Z" id="Path" fill="#191919"></path>
            <path d="M176.992,115.854 C176.774,116.894 177.453,117.414 177.619,119.593 C177.671,120.271 177.7,121.847 178.82,121.498 C179.894,121.166 179.52,119.463 179.369,118.651 C179.176,117.611 178.872,116.012 177.827,115.49 C177.749,115.45 177.664,115.429 177.577,115.426 C177.49,115.423 177.404,115.44 177.324,115.475 C177.244,115.51 177.173,115.562 177.116,115.627 C177.059,115.693 177.016,115.77 176.992,115.854 Z" id="Path" fill="#191919"></path>
            <path d="M177.304,124.283 C177.144,124.525 177.045,124.803 177.015,125.092 C176.986,125.381 177.027,125.673 177.135,125.942 C177.243,126.212 177.415,126.451 177.636,126.64 C177.857,126.829 178.121,126.961 178.404,127.026 C178.714,127.1 179.036,127.105 179.349,127.042 C179.661,126.978 179.955,126.847 180.212,126.658 C180.468,126.469 180.68,126.226 180.832,125.946 C180.985,125.667 181.075,125.357 181.095,125.039 C181.155,124.571 180.625,124.153 180.206,124.153 C179.973,124.16 179.751,124.255 179.586,124.42 C179.421,124.585 179.325,124.806 179.317,125.039 C179.286,125.143 179.219,125.232 179.127,125.289 C179.036,125.347 178.927,125.37 178.82,125.354 C178.534,125.276 178.381,124.803 178.272,124.543 C178.121,124.163 177.58,123.932 177.304,124.283 Z" id="Path" fill="#191919"></path>
            <path d="M132.199,193 C129.277,196.4 128.619,203.613 129.012,207.583 C128.987,209.21 129.54,210.794 130.572,212.052 C130.656,212.117 130.753,212.163 130.856,212.185 C130.96,212.207 131.067,212.205 131.17,212.18 C131.273,212.155 131.369,212.108 131.451,212.04 C131.533,211.973 131.598,211.888 131.643,211.792 C132.314,209.741 131.123,207.632 131.539,202.752 C131.924,199.649 132.588,196.588 133.525,193.605 C133.549,193.443 133.52,193.277 133.441,193.133 C133.362,192.988 133.239,192.873 133.09,192.805 C132.94,192.737 132.773,192.719 132.612,192.754 C132.452,192.789 132.307,192.875 132.199,193 Z" id="Path" fill="#191919"></path>
            <path d="M209.763,247.358 C208.377,246.499 206.946,245.713 205.478,245.005 C202.824,243.312 199.738,242.423 196.591,242.444 C195.964,242.543 196.016,243.541 196.591,243.674 C200.816,245.059 204.868,246.927 208.665,249.24 C209.63,249.82 210.881,250.894 212.09,250.571 C212.2,250.543 212.298,250.479 212.369,250.389 C212.439,250.299 212.478,250.189 212.48,250.075 C212.331,248.744 210.803,247.992 209.763,247.358 Z" id="Path" fill="#191919"></path>
            <path d="M201.817,248.14 C199.961,247.25 197.962,246.693 195.913,246.494 C195.179,246.414 195.078,247.56 195.728,247.75 C198.374,248.546 200.885,249.735 203.177,251.278 C203.847,251.905 204.652,252.37 205.53,252.635 C205.649,252.664 205.773,252.662 205.891,252.629 C206.009,252.596 206.116,252.533 206.202,252.447 C206.289,252.361 206.351,252.253 206.384,252.136 C206.417,252.018 206.42,251.894 206.391,251.775 C205.863,249.991 203.362,248.897 201.817,248.14 Z" id="Path" fill="#191919"></path>
            <path d="M170.511,184.324 C169.447,184.441 169.335,185.174 169.335,186.05 C169.528,188.177 172.494,187.301 172.078,185.424 C171.982,185.089 171.774,184.797 171.489,184.597 C171.204,184.396 170.858,184.3 170.511,184.324 Z" id="Path" fill="#191919"></path>
            <path d="M170.614,207.484 C170.314,207.494 170.024,207.594 169.782,207.771 C169.54,207.948 169.357,208.195 169.257,208.478 C169.192,208.661 169.163,208.855 169.174,209.049 C169.185,209.244 169.234,209.434 169.32,209.609 C169.405,209.784 169.524,209.94 169.671,210.068 C169.817,210.196 169.988,210.293 170.173,210.354 C170.357,210.415 170.553,210.439 170.746,210.423 C170.94,210.408 171.129,210.353 171.302,210.264 C171.475,210.174 171.628,210.051 171.752,209.902 C171.876,209.752 171.97,209.579 172.026,209.393 C172.092,209.172 172.106,208.939 172.067,208.712 C172.027,208.485 171.935,208.27 171.798,208.085 C171.661,207.9 171.483,207.749 171.277,207.645 C171.072,207.54 170.845,207.486 170.614,207.484 Z" id="Path" fill="#191919"></path>
            <path d="M170.589,168.828 C172.393,168.88 172.703,165.854 170.537,165.118 C170.221,165.032 169.885,165.074 169.6,165.236 C169.316,165.398 169.108,165.666 169.021,165.981 C168.74,167.356 169.164,168.786 170.589,168.828 Z" id="Path" fill="#191919"></path>
            <path d="M240.835,197.469 C242.291,198.163 243.667,198.127 249.434,198.28 C250.299,198.434 251.191,198.267 251.943,197.81 C252.125,197.654 252.281,197.313 252.021,197.128 C250.721,196.088 248.44,196.502 246.873,196.502 C244.886,196.252 242.871,196.34 240.913,196.762 C240.651,196.863 240.518,197.318 240.835,197.469 Z" id="Path" fill="#191919"></path>
            <path d="M99.767,81.6181 C99.352,82.6172 99.254,83.7198 99.486,84.7765 C99.719,85.8332 100.271,86.7928 101.067,87.5253 C103.472,89.5585 109.907,88.7499 110.476,84.1453 C111.139,78.9739 102.7,74.8815 99.767,81.6181 Z" id="Path" fill="#38A1FF"></path>
            <path d="M378.399,196.367 C376.319,181.857 372.478,162.047 363.399,150.555 C363.03,150.087 362.336,150.68 362.619,151.156 C366.13,157.193 368.894,163.635 370.851,170.339 C373.735,180.861 375.745,191.603 376.859,202.457 C377.268,205.946 377.029,209.48 376.155,212.883 C374.272,218.863 367.835,220.833 362.201,219.312 C355.976,217.635 355.03,213.852 351.408,209.773 C350.274,208.499 351.377,213.213 349.656,197.046 C349.189,191.576 348.254,186.156 346.861,180.845 C346.725,180.375 345.919,180.453 345.971,180.975 C346.504,186.409 347.225,191.846 347.773,197.309 C348.4,203.502 348.707,209.721 349.315,215.914 C349.424,217.011 351.093,217.066 351.067,215.914 C351.041,214.817 351.015,213.72 350.963,212.597 C352.784,216.289 355.811,219.248 359.543,220.984 C364.905,223.254 372.081,222.677 376.009,217.979 C380.38,212.724 379.397,203.32 378.399,196.367 Z" id="Path" fill="#191919"></path>
            <path d="M350.124,154.349 C349.968,154.556 349.845,154.784 349.757,155.028 C348.855,157.438 347.805,177.718 353.917,194.436 C354.13,195.43 354.709,196.307 355.54,196.893 C355.61,196.932 355.688,196.955 355.769,196.96 C355.849,196.965 355.93,196.952 356.005,196.922 C356.079,196.892 356.146,196.845 356.201,196.786 C356.255,196.726 356.296,196.655 356.32,196.578 C357.282,194.238 352.63,188.477 351.486,170.734 C351.211,165.812 351.316,160.875 351.798,155.969 C352.134,154.978 352.49,155.449 356.608,154.112 C358.609,153.622 360.493,152.738 362.149,151.512 C362.236,151.422 362.295,151.309 362.319,151.186 C362.343,151.063 362.331,150.935 362.283,150.819 C362.236,150.703 362.157,150.603 362.054,150.531 C361.951,150.46 361.829,150.419 361.704,150.415 C361.086,150.484 360.479,150.634 359.9,150.86 C360.172,146.503 359.667,142.132 358.41,137.951 C357.94,136.207 356.879,134.681 355.409,133.632 C353.94,132.584 352.151,132.077 350.35,132.2 C344.37,132.842 338.432,139.025 334.201,143.255 C332.6,144.767 330.916,146.189 329.157,147.514 C328.432,148.096 329.235,149.209 330.021,149.003 C333.541,148.091 336.037,144.726 338.538,142.262 C341.357,139.194 344.784,136.747 348.6,135.075 C359.135,131.284 357.256,149.791 358.74,151.278 C358.48,151.362 355.696,152.186 354.611,152.48 C353.748,152.714 352.729,152.82 351.814,153.132 C351.788,152.997 351.034,150.137 350.613,148.712 C350.568,148.549 350.48,148.4 350.359,148.281 C350.238,148.162 350.088,148.076 349.924,148.034 C349.759,147.992 349.587,147.993 349.423,148.039 C349.26,148.084 349.111,148.172 348.993,148.294 C343.322,154.419 341.825,153.665 336.474,157.256 C335.975,157.591 336.268,158.556 336.918,158.296 C341.539,156.862 345.735,154.314 349.138,150.875 C349.419,151.681 349.869,153.813 350.124,154.349 Z" id="Path" fill="#191919"></path>
            <path d="M338.234,90.4494 C341.094,83.7076 335.483,78.427 330.314,80.494 C330.085,79.6065 329.587,78.8114 328.889,78.2172 C328.191,77.623 327.327,77.2586 326.414,77.1738 C325.069,77.1819 323.745,77.5199 322.561,78.1581 C321.376,78.7963 320.365,79.7153 319.618,80.8346 C319.015,80.1622 318.231,79.6784 317.359,79.4418 C316.488,79.2051 315.567,79.2256 314.707,79.5008 C313.591,79.9822 312.609,80.7292 311.849,81.6768 C311.088,82.6245 310.57,83.7439 310.341,84.9374 C309.597,84.5647 308.743,84.4724 307.936,84.6774 C304.119,85.6004 302.653,92.402 305.638,95.47 C305.615,95.5909 305.607,95.7138 305.612,95.8366 C304.395,96.555 303.413,97.6121 302.786,98.879 C302.16,100.146 301.916,101.568 302.084,102.971 C302.09,103.01 302.108,103.046 302.136,103.075 C297.814,107.68 297.409,117.237 298.347,123.485 C298.888,127.094 300.019,132.13 304.619,131.979 C305.196,131.967 305.768,131.87 306.316,131.691 C306.613,133.058 306.779,134.451 306.813,135.851 C306.784,136.662 306.553,137.551 306.446,138.412 C306.16,138.074 305.88,137.702 305.612,137.372 C305.565,137.307 305.504,137.254 305.433,137.215 C305.363,137.177 305.285,137.155 305.205,137.15 C305.126,137.145 305.046,137.157 304.971,137.187 C304.897,137.216 304.83,137.261 304.775,137.32 C298.516,138.734 297.755,138.744 297.04,139.725 C296.858,140.009 296.739,140.328 296.689,140.661 C296.64,140.994 296.661,141.334 296.751,141.659 C291.605,142.805 286.755,145.011 282.511,148.138 C277.693,152.038 264.108,169.497 255.541,191.129 C250.845,202.98 247.606,212.782 255.382,222.958 C261.791,231.343 272.113,235.462 282.092,237.672 C287.412,238.85 291.569,239.474 322.132,243.576 C322.733,243.66 323.567,243.446 323.674,242.716 C323.752,242.196 323.833,241.645 323.911,241.122 C324.329,241.356 324.795,241.52 325.242,241.723 C325.947,242.086 326.707,242.333 327.491,242.453 C327.677,242.457 327.859,242.397 328.006,242.283 C328.153,242.169 328.257,242.008 328.299,241.827 C328.575,240.787 326.869,240.358 325.79,240.007 C325.253,239.787 324.692,239.63 324.119,239.539 C324.329,238.049 325.478,230.077 325.556,229.347 C327.811,229.704 330.096,229.834 332.376,229.737 C333.168,229.993 333.982,230.177 334.807,230.285 C334.934,230.283 335.058,230.247 335.166,230.181 C335.274,230.115 335.363,230.022 335.423,229.911 C335.483,229.799 335.513,229.674 335.509,229.548 C335.505,229.421 335.467,229.298 335.4,229.191 C334.326,227.269 330.403,227.867 325.549,227.937 C325.549,226.071 322.884,224.513 321.649,223.598 C310.557,215.359 297.776,209.683 284.227,206.979 C284.268,203.196 284.921,199.445 286.161,195.872 C286.65,194.832 287.547,193.859 287.547,192.658 C287.547,192.543 287.521,192.429 287.471,192.325 C287.421,192.222 287.347,192.131 287.256,192.06 C287.166,191.99 287.06,191.941 286.947,191.917 C286.834,191.894 286.717,191.896 286.606,191.925 C285.327,192.273 284.721,193.597 284.201,194.722 C282.603,198.487 282.009,202.602 282.477,206.664 C280.725,206.352 278.975,206.087 277.222,205.884 C275.662,205.697 275.681,208.141 277.222,208.339 C293.521,210.43 308.976,216.799 322.015,226.799 C322.561,227.22 323.141,227.579 323.242,228.314 C323.289,228.639 321.893,237.37 321.363,241.041 C289.697,236.772 272.223,235.727 260.603,225.124 C256.893,221.952 254.334,217.643 253.323,212.868 C252.307,207.015 254.423,201.108 256.381,195.674 C263.032,177.214 274.347,159.75 281.835,151.796 C286.018,147.353 291.637,145.629 297.229,143.669 C299.239,150.104 302.761,155.964 307.499,160.759 C307.628,160.878 307.784,160.962 307.954,161.005 C308.123,161.048 308.301,161.047 308.47,161.002 C308.64,160.958 308.795,160.872 308.922,160.751 C309.049,160.631 309.144,160.481 309.197,160.314 C310.021,157.025 311.064,153.795 312.317,150.645 C312.458,153.135 316.173,183.441 318.354,212.241 C318.326,213.349 318.522,214.451 318.929,215.481 C319.01,215.602 319.123,215.697 319.255,215.757 C319.388,215.817 319.534,215.839 319.678,215.82 C319.822,215.801 319.958,215.742 320.071,215.65 C320.183,215.558 320.268,215.436 320.315,215.299 C320.536,214.383 320.571,213.433 320.419,212.504 C319.543,200.544 315.796,159.544 313.677,150.07 C315.681,152.899 317.504,155.852 319.137,158.91 C319.221,159.05 319.34,159.166 319.482,159.246 C319.624,159.327 319.785,159.369 319.948,159.369 C320.112,159.369 320.272,159.327 320.414,159.246 C320.556,159.166 320.675,159.05 320.759,158.91 C323.482,153.581 325.62,147.973 327.135,142.184 C328.71,142.658 330.352,142.879 331.997,142.837 C332.777,142.21 333.512,141.558 334.217,140.876 C333.325,140.756 332.426,140.686 331.526,140.668 C330.073,140.496 328.603,140.531 327.161,140.772 C327.109,140.454 326.994,140.15 326.824,139.876 C326.653,139.602 326.43,139.365 326.167,139.179 C324.07,137.775 321.77,136.7 319.348,135.991 C319.246,135.953 319.137,135.937 319.028,135.946 C318.92,135.955 318.815,135.988 318.721,136.043 C318.349,134.152 318.078,132.243 317.91,130.323 C317.838,128.855 317.917,127.384 318.144,125.932 C318.872,126.075 319.628,125.96 320.281,125.607 C320.935,125.254 321.445,124.685 321.724,123.997 C321.937,124.544 322.302,125.019 322.776,125.365 C323.25,125.71 323.813,125.913 324.398,125.949 C324.984,125.985 325.568,125.852 326.08,125.567 C326.593,125.281 327.013,124.855 327.291,124.338 C329.397,125.742 332.922,124.756 333.302,120.391 C336.827,121.374 341.289,118.1 339.076,111.533 C340,111.158 340.816,110.56 341.45,109.791 C342.085,109.022 342.518,108.107 342.71,107.129 C342.902,106.151 342.847,105.141 342.55,104.189 C342.254,103.237 341.725,102.375 341.011,101.679 C342.009,100.945 342.766,99.9312 343.187,98.7664 C343.609,97.6016 343.675,96.338 343.377,95.1356 C343.08,93.9332 342.433,92.846 341.517,92.0118 C340.601,91.1776 339.459,90.6339 338.234,90.4494 Z M307.814,157.979 C303.581,153.346 300.525,147.761 298.904,141.698 C298.719,140.554 298.795,140.775 301.543,140.138 C302.796,139.844 304.026,139.563 305.279,139.301 C307.044,142.179 309.289,144.734 311.917,146.854 C310.231,150.437 308.858,154.159 307.814,157.979 Z M319.652,137.959 C321.428,138.511 323.117,139.311 324.67,140.336 C325.793,141.149 325.268,142.085 324.93,143.237 C323.624,147.738 321.954,152.126 319.938,156.357 C318.082,153.036 316.022,149.832 313.771,146.765 C316.252,144.214 318.245,141.23 319.652,137.962 L319.652,137.959 Z M317.572,123.399 C317.312,122.793 315.775,123.056 316.815,124.837 C316.455,125.443 316.291,126.146 316.345,126.849 C315.914,130.343 316.453,133.887 317.905,137.093 C317.924,137.133 317.951,137.168 317.983,137.197 C316.721,140.14 314.952,142.838 312.757,145.169 C310.996,143.601 309.362,141.897 307.869,140.073 C309.273,138.43 308.662,133.108 307.713,131.134 C310.359,129.394 312.59,127.092 314.246,124.392 C314.688,123.659 313.726,123.059 313.123,123.529 C310.505,125.588 308.547,129.72 304.889,130.063 C300.729,130.453 300.269,124.392 299.978,121.483 C299.476,116.512 299.978,109.045 302.825,105.15 C303.959,103.931 305.262,102.88 306.693,102.03 C307.172,102.75 309.491,101.681 311.763,102.526 C313.444,103.201 314.813,104.477 315.604,106.107 C317.26,109.329 318.423,112.783 319.054,116.351 C318.687,116.459 318.361,116.673 318.114,116.966 C317.868,117.258 317.713,117.617 317.668,117.996 C317.669,118.211 317.755,118.417 317.907,118.569 C318.059,118.72 318.265,118.806 318.479,118.808 C318.82,118.808 318.924,118.548 319.184,118.415 C319.342,118.051 319.602,117.996 320.021,118.259 C320.442,118.833 320.654,119.534 320.622,120.245 C321.123,124.478 318.323,125.094 317.561,123.404 L317.572,123.399 Z M322.171,118.719 C322.003,117.929 321.558,117.225 320.918,116.733 C320.55,112.1 318.983,107.642 316.371,103.798 C314.441,101.198 309.681,99.0398 306.779,101.393 C306.731,101.319 306.665,101.259 306.587,101.219 C306.509,101.178 306.422,101.157 306.335,101.159 C305.243,101.084 304.16,101.398 303.277,102.045 C303.459,101.051 303.794,100.09 304.27,99.1984 C306.595,95.509 311.132,95.9718 314.751,98.3352 C316.875,100.159 318.609,102.393 319.848,104.904 C321.088,107.414 321.807,110.149 321.963,112.945 C322.3,114.853 322.367,116.8 322.161,118.727 L322.171,118.719 Z" id="Shape" fill="#191919"></path>
            <path d="M149.552,309.447 C169.351,302.866 192.244,291.044 259.025,291.387 C281.793,291.504 285.004,292.388 291.951,291.806 C293.231,291.699 293.771,289.606 292.292,289.349 C284.258,287.968 250.71,287.643 233.127,288.514 C210.431,289.637 184.262,293.21 162.958,301.134 C158.039,302.812 153.28,304.929 148.741,307.46 C147.696,308.084 148.377,309.837 149.552,309.447 Z" id="Path" fill="#191919"></path>
            <path d="M102.931,410.559 C101.251,411.047 99.689,411.873 98.34,412.987 C96.991,414.102 95.885,415.48 95.09,417.038 C94.064,418.819 93.207,420.691 92.529,422.631 C91.892,424.326 90.612,426.729 91.197,428.564 C91.217,428.644 91.256,428.717 91.31,428.779 C91.364,428.841 91.431,428.889 91.507,428.92 C91.583,428.951 91.666,428.963 91.747,428.956 C91.829,428.949 91.908,428.922 91.977,428.879 C95.027,427.158 94.447,417.405 103.451,411.786 C103.59,411.702 103.693,411.572 103.743,411.418 C103.793,411.264 103.785,411.097 103.722,410.948 C103.659,410.799 103.544,410.677 103.399,410.606 C103.254,410.535 103.088,410.518 102.931,410.559 Z" id="Path" fill="#191919"></path>
            <path d="M66.3701,226.318 C65.0129,226.689 63.8819,228.437 64.7243,229.713 C64.9843,230.108 65.7825,230.134 65.8735,229.557 C65.9645,228.98 66.0841,228.174 66.7367,227.997 C67.4673,227.789 67.8885,228.572 68.1459,229.12 C68.5151,229.9 69.5889,229.435 69.6357,228.728 C69.6203,228.338 69.5176,227.958 69.3351,227.613 C69.1527,227.269 68.8952,226.97 68.5817,226.739 C68.2681,226.507 67.9066,226.349 67.5238,226.276 C67.141,226.203 66.7467,226.218 66.3701,226.318 Z" id="Path" fill="#191919"></path>
            <path d="M69.8723,247.982 C69.8723,249.022 69.6565,250.55 68.3825,249.367 C67.9921,248.924 67.7145,248.393 67.5732,247.82 C67.432,247.246 67.4314,246.647 67.5713,246.073 C67.6051,245.928 67.5918,245.776 67.5333,245.639 C67.4748,245.502 67.374,245.388 67.2458,245.312 C67.1176,245.236 66.9686,245.203 66.8204,245.218 C66.6723,245.233 66.5327,245.295 66.4221,245.395 C66.037,245.864 65.7588,246.411 65.6069,246.999 C65.4549,247.586 65.4329,248.2 65.5423,248.797 C65.6517,249.394 65.8899,249.96 66.2403,250.455 C66.5907,250.951 67.0449,251.364 67.5713,251.666 C68.1241,252.043 68.7903,252.218 69.4573,252.161 C70.1242,252.105 70.7511,251.819 71.2321,251.354 C71.9836,250.395 72.3473,249.188 72.2513,247.974 C72.236,247.668 72.1035,247.38 71.8813,247.169 C71.6591,246.958 71.3643,246.841 71.0581,246.842 C70.7519,246.843 70.4578,246.962 70.237,247.174 C70.0162,247.387 69.8856,247.676 69.8723,247.982 Z" id="Path" fill="#191919"></path>
            <path d="M80.1687732,236.401 C80.1687732,233.424 77.1809,231.391 75.8835,228.955 C73.3823,224.259 73.8711,217.536 69.3835,214.008 C69.7241,213.667 70.0621,213.326 70.4027,213.014 C71.3673,212.125 70.3767,210.791 69.3315,210.898 C64.2303,201.587 50.1955,196.598 37.9703,203.004 C31.9045,206.187 28.0409,211.844 24.8013,217.692 C17.3015,230.604 13.8506,245.47 14.8953,260.366 C14.9043,260.643 14.9999,260.911 15.1687,261.131 C15.3374,261.352 15.571,261.514 15.8365,261.595 C25.7144,264.962 36.0564,266.769 46.4905,266.951 C47.028,269.694 46.8489,272.53 45.9705,275.183 C45.5254,276.015 45.3604,276.969 45.4999,277.903 C45.5587,278.102 45.6924,278.27 45.8728,278.372 C46.0532,278.475 46.2662,278.503 46.4671,278.451 C48.5627,277.601 48.9475,274.322 49.1061,272.336 C49.3257,270.526 49.1564,268.691 48.6095,266.951 C51.5371,266.925 54.4621,266.743 57.3637,266.455 C57.5563,266.449 57.7453,266.401 57.917,266.314 C58.0887,266.227 58.2388,266.102 58.3565,265.95 C58.4742,265.797 58.5565,265.62 58.5975,265.432 C58.6385,265.244 58.6371,265.049 58.5935,264.861 C55.3669,247.8 56.1105,228.066 68.5229,214.842 C72.9949,221.269 70.6939,226.329 76.1539,233.042 C77.0468,233.911 77.6728,235.017 77.9583,236.23 C78.0389,237.197 77.3031,238.661 76.1799,238.242 C76.0163,238.199 75.8451,238.194 75.6793,238.228 C75.5136,238.262 75.3578,238.333 75.2241,238.437 C75.0904,238.54 74.9823,238.673 74.9082,238.825 C74.834,238.977 74.7959,239.144 74.7967,239.313 C75.1165,242.394 75.2933,245.507 75.4233,248.616 C75.5351,251.323 76.2449,257.363 73.9855,259.175 C72.3475,260.475 67.7221,259.175 65.8319,258.395 C64.5319,257.844 63.3827,256.97 62.0957,256.356 C61.8653,256.228 61.5967,256.187 61.3385,256.24 C61.0804,256.293 60.8497,256.437 60.6885,256.646 C60.5272,256.854 60.4459,257.113 60.4594,257.376 C60.4729,257.64 60.5802,257.889 60.7619,258.08 C61.2892,258.667 61.9029,259.169 62.5819,259.57 C62.201,260.583 61.9885,261.651 61.9527,262.732 C61.6173,266.127 61.0531,273.511 63.9131,275.407 C64.024,275.47 64.1477,275.507 64.275,275.516 C64.4023,275.524 64.53,275.504 64.6483,275.456 C64.7666,275.408 64.8726,275.335 64.9583,275.24 C65.0439,275.145 65.1071,275.033 65.1429,274.91 C65.2377,273.669 65.0685,272.422 64.6463,271.252 C64.1885,267.722 64.1798,264.148 64.6203,260.615 C66.2131,261.257 67.8809,261.694 69.5837,261.915 C72.4307,262.292 75.3895,261.998 76.8247,259.172 C77.8285,256.521 78.1599,253.663 77.7893,250.852 C77.6879,247.376 77.4513,243.926 77.1107,240.476 C77.9998,240.231 78.7826,239.699 79.336,238.961 C79.8895,238.224 80.1822,237.323 80.1687732,236.401 Z M55.9181,264.104 C42.9004,265.2 29.7964,263.608 17.4199,259.427 C16.6452,246.709 19.308,234.018 25.1289,222.684 C27.9031,217.065 31.1687,210.953 36.2881,207.133 C38.6832,205.358 41.4048,204.073 44.2971,203.351 C47.1894,202.63 50.1957,202.485 53.1439,202.926 C58.998,204.058 64.2853,207.167 68.1199,211.733 C54.1761,225.273 52.6863,244.935 55.9181,264.104 Z" id="Shape" fill="#191919"></path>
            <path d="M124.361,295.203 C129.581,289.618 123.648,279.432 131.362,266.429 C132.222,265.309 132.893,264.055 133.349,262.719 C133.385,262.557 133.374,262.387 133.318,262.231 C133.262,262.075 133.162,261.938 133.03,261.836 C132.899,261.735 132.741,261.673 132.575,261.658 C132.41,261.643 132.243,261.675 132.096,261.752 C130.239,262.633 128.162,266.832 127.338,268.704 C125.081,274.038 124.102,279.825 124.478,285.604 C124.485,288.621 124.054,291.622 123.196,294.514 C123.066,295.149 123.867,295.728 124.361,295.203 Z" id="Path" fill="#191919"></path>
            <path d="M168.602,269.727 C164.284,276.096 158.993,281.749 152.924,286.479 C144.51,292.823 140.486,292.932 138.445,295.363 C137.878,295.987 137.514,296.768 137.399,297.603 C137.284,298.438 137.424,299.289 137.8,300.043 C138.507,301.343 140.647,300.41 139.942,299.076 C138.868,297.04 141.697,295.818 143.104,295.158 C155.987,289.107 166.181,278.455 169.866,270.434 C170.219,269.646 169.106,269.08 168.602,269.727 Z" id="Path" fill="#191919"></path>
            <path d="M103.191,420.096 C101.571,422.191 98.446,431.759 90.711,438.155 C90.053,438.699 86.8632,440.409 88.018,441.553 C89.172,442.697 92.1,439.884 92.932,439.174 C96.498,435.941 99.416,432.059 101.53,427.734 C102.706,425.528 103.703,423.23 104.509,420.863 C104.577,420.202 103.716,419.42 103.191,420.096 Z" id="Path" fill="#191919"></path>
            <path d="M106.876,427.075 C105.487,433.382 97.04,441.611 91.38,445.735 C90.427,446.282 89.549,446.95 88.767,447.721 C88.615,447.884 88.519,448.091 88.493,448.313 C88.468,448.534 88.514,448.758 88.625,448.951 C88.736,449.144 88.907,449.296 89.111,449.385 C89.315,449.474 89.543,449.495 89.76,449.445 C93.156,448.647 106.92,436.988 108.184,427.231 C108.277,426.497 107.037,426.344 106.876,427.075 Z" id="Path" fill="#191919"></path>
            <path d="M113.017,430.418 C112.273,435.985 107.767,440.467 103.87,445.313 C102.905,446.515 100.968,448.111 101.389,449.809 C101.423,449.914 101.489,450.007 101.578,450.072 C101.667,450.138 101.775,450.173 101.886,450.173 C103.399,450.194 104.112,448.782 106.223,446.229 C107.609,444.552 108.937,442.849 110.248,441.107 C112.89,438.16 114.408,434.374 114.533,430.418 C114.521,430.225 114.436,430.043 114.296,429.91 C114.155,429.777 113.968,429.703 113.775,429.703 C113.581,429.703 113.395,429.777 113.254,429.91 C113.113,430.043 113.028,430.225 113.017,430.418 Z" id="Path" fill="#191919"></path>
            <path d="M124.987,412.597 C118.555,418.14 124.483,426.7 117.068,440.716 C116.241,441.969 115.557,443.31 115.029,444.715 C114.873,445.316 115.583,445.947 116.129,445.576 C118.243,443.599 119.785,441.089 120.596,438.311 C125.398,426.611 121.636,420.046 126.136,413.512 C126.659,412.753 125.58,412.077 124.987,412.597 Z" id="Path" fill="#191919"></path>
            <path d="M145.371,337.824 C144.858,337.126 144.3,336.463 143.699,335.838 C140.721,352.268 135.916,368.314 129.376,383.678 C127.296,388.6 120.016,404.535 117.936,406.623 C117.988,406.649 118.014,406.675 118.066,406.701 C126.828,412.247 126.706,412.496 127.135,411.981 C139.503,391.808 146.585,378.129 148.33,356.448 C148.819,350.299 148.816,342.975 145.371,337.824 Z" id="Path" fill="#38A1FF"></path>
            <path d="M134.631,278.503 C141.643,272.242 147.139,264.467 150.701,255.766 C151.323,254.689 151.614,253.453 151.538,252.212 C151.434,251.482 150.519,251.458 150.075,251.822 C148.153,253.382 147.09,261.728 133.715,277.562 C133.654,277.622 133.604,277.694 133.57,277.773 C133.536,277.852 133.518,277.937 133.516833,278.024 C133.515,278.11 133.531,278.195 133.563,278.275 C133.595,278.356 133.642,278.429 133.702,278.49 C133.762,278.552 133.834,278.602 133.913,278.636 C133.993,278.67 134.078,278.688 134.164,278.689047 C134.25,278.69 134.336,278.675 134.416,278.643 C134.496,278.611 134.569,278.563 134.631,278.503 Z" id="Path" fill="#191919"></path>
            <path d="M144.926,277.068 C151.83,270.997 156.892,263.112 159.536,254.307 C160.037,253.156 160.216,251.891 160.056,250.647 C160.012,250.498 159.93,250.363 159.819,250.256 C159.708,250.148 159.571,250.071 159.421,250.031 C159.271,249.992 159.114,249.992 158.964,250.032 C158.814,250.071 158.677,250.149 158.566,250.257 C156.837,252.142 155.846,262.997 144.087,276.285 C143.624,276.81 144.378,277.541 144.926,277.068 Z" id="Path" fill="#191919"></path>
            <path d="M152.62,277.488 C154.493,276.879 156.105,275.654 157.193,274.012 C160.224,270.345 162.942,266.432 165.321,262.312 C166.755,260.468 167.731,258.31 168.168,256.015 C168.16,255.838 168.101,255.667 168,255.522 C167.898,255.377 167.758,255.264 167.594,255.196 C167.431,255.127 167.252,255.107 167.077,255.136 C166.902,255.166 166.74,255.244 166.608,255.362 C165.855,256.076 165.259,256.94 164.858,257.897 C162.423,262.512 159.691,266.964 156.679,271.225 C155.519,272.892 154.235,275.341 152.235,276.084 C152.069,276.152 151.934,276.278 151.855,276.439 C151.776,276.6 151.758,276.784 151.805,276.957 C151.853,277.13 151.962,277.279 152.112,277.377 C152.262,277.475 152.443,277.515 152.62,277.488 Z" id="Path" fill="#191919"></path>
            <path d="M105.126,318.76 C108.537,311.174 110.88,303.829 112.312,300.1 C108.776,294.699 104.584,289.757 99.832,285.387 C90.948,276.851 79.6345,271.282 67.4518,269.445059 C67.3871,269.441 67.3224,269.456 67.2665,269.489 C67.2107,269.522 67.1664,269.572 67.1398,269.631 C66.9552,269.922 66.5938,270.382 66.7732,270.622 C68.6166,273.528 66.339,278.291 60.762,278.359 C56.4252,278.411 52.637,275.949 48.4796,275.065 C40.9396,273.461 33.3398,277.329 27.521,281.825 C9.5264,295.745 0.52,325.848 0.0182,346.528 C0.0896,353.662 0.8155,360.774 2.1866,367.776 C3.0647,374.375 4.714,380.848 7.1006,387.062 C15.4622,411.323 24.622,428.805 43.0586,445.705 C43.0586,445.965 43.2874,446.056 43.5786,446.173 C43.9452,446.358 44.4158,445.887 44.0492,445.573 C52.0208,436.166 56.4122,424.276 63.9886,414.607 C58.7851,411.833 54.0357,408.282 49.9044,404.074 C43.8367,398.196 38.5808,391.534 34.2758,384.265 C23.4962,368.634 22.0402,364.695 19.1724,348.593 C17.199,337.533 15.3296,320.396 20.9222,310.57 C21.0228,310.418 21.1735,310.306 21.3482,310.254 C21.5228,310.201 21.7103,310.212 21.8782,310.283 C22.046,310.354 22.1835,310.482 22.2668,310.645 C22.3501,310.807 22.3738,310.993 22.334,311.171 C20.6778,319.79 18.8812,324.868 20.5556,339.028 C21.5362,347.032 23.1357,354.948 25.3396,362.706 C26.9287,366.747 28.8416,370.654 31.0596,374.387 C33.4348,378.251 36.0168,381.983 38.7946,385.567 C46.3996,395.91 54.4076,406.573 65.8684,412.301 C65.8684,412.275 65.8944,412.275 65.8944,412.249 C65.8944,412.275 65.9204,412.301 65.9204,412.327 C67.1493,412.954 68.3774,413.556 69.6046,414.131 C75.9633,416.557 82.5864,418.223 89.336,419.094 C98.316,419.815 109.125,412.997 115.131,406.263 C120.624,400.104 133.851,363.743 136.56,355.436 C140.19,344.242 142.747,332.727 144.196,321.049 C144.555,314.11 144.345,307.153 143.567,300.249 C139.815,298.545 135.901,297.223 131.885,296.302 C127.86,295.363 123.695,294.903 119.629,294.159 C119.566,294.146 119.5,294.151 119.44,294.174 C119.38,294.197 119.328,294.237 119.291,294.289 C117.698,296.496 116.29,298.83 115.081,301.268 C110.157,315.837 103.581,329.794 95.482,342.868 C90.176,353.481 86.3824,361.723 86.2576,372.058 C86.2576,372.456 86.0993,372.839 85.8174,373.121 C85.5356,373.402 85.1534,373.561 84.7548,373.561 C84.3562,373.561 83.974,373.402 83.6922,373.121 C83.4103,372.839 83.252,372.456 83.252,372.058 C83.3394,367.62 84.034,363.216 85.3164,358.967 C84.6014,358.39 81.9052,355.067 81.3696,354.393 C79.7691,352.617 78.3429,350.691 77.1108,348.642 C73.2586,343.141 70.9161,336.726 70.317,330.037 C70.2702,329.355 71.2894,329.277 71.4662,329.881 C71.7106,330.713 71.9628,331.526 72.2254,332.335 C72.6466,332.478 72.54,332.423 74.1312,337.197 C77.2866,343.92 81.4165,350.14 86.3876,355.657 C89.528,346.235 98.446,332.377 103.402,322.468 C101.299,318.294 99.71,313.88 98.67,309.322 C98.556,308.803 97.89,305.49 97.859,305.077 C97.778,304.216 99.814,303.865 100.074,304.614 C102.047,310.253 103.353,314.494 105.126,318.76 Z" id="Path" fill="#38A1FF"></path>
            <path d="M64.1756,414.633 C62.7118,414.394 61.4014,416.591 60.5693,417.587 C59.4043,418.986 58.3218,420.451 57.3272,421.976 C54.1681,426.786 43.3859,444.767 41.4385,448.134 C40.5311,449.694 38.9581,451.61 39.1921,453.519 C39.1961,453.661 39.2364,453.799 39.3093,453.921 C39.3821,454.043 39.4851,454.144 39.6083,454.215 C39.7314,454.286 39.8707,454.324 40.0127,454.325081 C40.1547,454.327 40.2948,454.292 40.4193,454.224 C42.1223,453.475 42.9284,451.322 43.8176,449.804 C44.1582,449.221 59.0821,424.001 62.4491,419.539 C63.2603,418.468 64.9322,416.641 64.6722,415.177 C64.6202,415.052 64.3316,414.659 64.1756,414.633 Z" id="Path" fill="#191919"></path>
            <path d="M233.74,178.103 C226.017,165.682 215.286,155.409 202.54,148.234 C197.858,145.254 192.894,142.742 187.72,140.733 C187.593,140.692 187.46,140.675 187.327,140.681 C187.38,140.493 187.381,140.295 187.331,140.106 C187.28,139.918 187.179,139.746 187.039,139.61 C185.211,137.971 182.971,136.86 180.56,136.397 C180.381,136.361 180.197,136.366 180.021,136.411 C179.844,136.456 179.68,136.54 179.54,136.657 C179.382,135.954 179.303,135.235 179.304,134.514 C181.155,134.721 183.013,134.193 184.479,133.045 C185.945,131.897 186.902,130.219 187.145,128.373 C187.6,124.928 187.591,121.439 187.119,117.996 C187.035,114.887 186.314,111.828 185,109.008 C189.19,107.584 192.81,104.849 195.325,101.208 C200.221,93.832 196.833,86.1022 189.522,86.4948 C185.815,87.0908 182.278,88.4719 179.148,90.5456 C174.052,93.13 171.262,91.4192 166.943,92.0874 C157.667,93.52 157.43,106.33 159.575,113.384 C159.121,113.817 158.758,114.336 158.507,114.91 C158.256,115.485 158.121,116.103 158.111,116.73 C157.505,122.45 161.32,126.792 166.343,125.536 C167.484,129.053 167.628,132.816 166.761,136.41 C166.378,135.86 165.95,135.345 165.48,134.868 C165.494,134.715 165.466,134.561 165.399,134.422 C165.332,134.284 165.228,134.166 165.099,134.083 C164.969,133.999 164.82,133.953 164.666,133.948 C164.512,133.943 164.36,133.981 164.226,134.057 C163.179,134.73 162.168,135.46 161.2,136.243 C160.744,136.507 160.352,136.868 160.053,137.302 C159.754,137.737 159.556,138.232 159.474,138.752 C138.141,145.042 112.185,164.115 102.328,183.823 C96.71,195.063 95.144,208.783 100.997,220.254 C103.819,225.49 107.647,230.117 112.26,233.871 C116.994,238.276 122.825,241.329 129.142,242.711 C141.736,245.599 162.867,246.871 176.94,246.871 C177.236,246.876 177.524,246.773 177.749,246.582 C182.104,250.134 192.85,252.39 196.565,254.135 C199.927,255.713 199.927,256.665 201.739,256.855 C201.864,256.855 201.983,256.804 202.071,256.716 C202.159,256.628 202.209,256.509 202.21,256.384 C201.835,252.169 191.35,250.165 185.406,248.098 C180.942,246.538 179.92,245.688 178.298,245.173 C179.483,234.5 179.527,235.394 179.527,234.222 C184.678,234.789 189.763,235.848 194.711,237.383 C198.477,238.661 202.081,240.371 205.452,242.479 C206.427,243.324 207.584,243.932 208.832,244.258 C209.612,244.343 209.901,243.423 209.643,242.846 C209.141,241.725 207.709,241.026 206.69,240.363 C205.592,239.658 204.469,239.006 203.31,238.376 C221.091,231.791 235.147,223.38 239.322,204.953 C241.457,195.508 238.493,186.33 233.74,178.103 Z M189.615,100.829 C190.275,100.286 190.862,99.6622 191.365,98.9722 C191.885,98.2104 192.468,97.485 192.925,96.6998 C193.639,95.0921 193.839,93.3036 193.5,91.5778 C193.502,91.405 193.555,91.2365 193.651,91.0931 C193.748,90.9498 193.884,90.8378 194.043,90.7709 C194.203,90.7041 194.378,90.6853 194.548,90.7168 C194.718,90.7484 194.875,90.829 195,90.9486 C195.764,91.9222 196.207,93.1088 196.268,94.3447 C196.329,95.5806 196.005,96.8049 195.341,97.849 C194.625,99.0731 193.821,100.244 192.936,101.351 C192.664,101.834 192.249,102.221 191.749,102.459 C191.249,102.697 190.687,102.775 190.141,102.682 C189.949,102.637 189.774,102.542 189.632,102.406 C189.49,102.27 189.387,102.099 189.333,101.91 C189.279,101.721 189.277,101.521 189.327,101.331 C189.377,101.141 189.476,100.967 189.615,100.829 Z M180.024,140.289 C180.19,140.063 180.833,139.166 180.939,138.932 C182.38,139.283 183.737,139.913 184.935,140.785 C183.42,145.465 181.815,150.145 180.154,154.768 C175.133,147.972 174.434,145.798 173.805,145.408 C175.344,143.872 178.217,142.725 180.024,140.289 Z M167.245,122.021 C166.465,122.388 165.685,123.685 163.532,123.061 C159.84,122.006 160.035,115.058 161.548,114.962 C163.402,115.482 162.432,115.092 166.538,118.698 C167.5,119.541 169.211,120.373 169.754,118.594 C169.98,117.843 169.718,114.174 169.78,112.427 C169.798,111.907 169.78,111.413 170.329,111.145 C171.369,110.641 176.68,111.603 183.5,109.5 C184.559,114.719 185.066,120.035 185.013,125.36 C184.99,127.895 184.389,131.012 181.633,131.893 C178.76,132.814 176.376,130.921 173.74,130.245 C172.851,130.019 171.961,131.243 172.775,131.919 C174.221,133.081 175.922,133.883 177.739,134.259 C177.324,135.888 177.5,137.611 178.235,139.121 C175.705,142.111 174.239,142.192 172.487,143.825 C170.802,142.229 169.335,140.42 168.121,138.443 C169.549,136.862 170.282,129.158 167.573,124.983 C169.754,123.555 168.805,121.296 167.245,122.021 Z M161.72,138.565 C162.001,138.251 162.316,137.97 162.661,137.728 C163.285,137.177 163.94,136.631 164.567,136.056 C165.439,137.932 166.508,139.71 167.757,141.36 C168.833,143.249 170.336,144.859 172.146,146.063 C172.172,146.063 172.198,146.092 172.224,146.092 C171.426,149.135 170.147,152.032 168.436,154.672 C165.295,150.284 163.024,145.334 161.746,140.091 C161.631,139.854 161.57,139.594 161.565,139.331 C161.561,139.067 161.614,138.806 161.72,138.565 Z M237.411,200.84 C236.383,209.377 232.365,217.274 226.07,223.13 C219.146,229.51 210.033,233.072 201.427,236.486 C201.115,236.602 200.86,236.836 200.72,237.139 C194.989,234.385 188.754,232.837 182.4,232.591 C183.42,231.312 184.202,229.898 185.146,228.567 C191.329,219.828 201.149,213.169 208.546,206.222 C210.023,205.115 211.288,203.752 212.282,202.197 C212.391,202.004 212.433,201.78 212.403,201.561 C212.372,201.341 212.271,201.137 212.114,200.98 C211.957,200.823 211.753,200.722 211.533,200.692 C211.313,200.662 211.09,200.705 210.896,200.814 C209.952,201.376 209.097,202.078 208.361,202.894 C208.361,198.446 207.808,190.193 204.025,187.814 C203.9,187.745 203.758,187.713 203.616,187.722 C203.474,187.732 203.337,187.783 203.224,187.869 C203.11,187.955 203.024,188.073 202.976,188.207 C202.928,188.341 202.92,188.487 202.953,188.625 C203.562,191.402 205.553,192.206 205.774,201.3 C205.847,204.301 205.548,204.68 205.592,205.585 C200.889,209.917 183.719,222.844 181.288,232.105 C181.266,232.186 181.264,232.271 181.282,232.353 C181.3,232.435 181.338,232.512 181.392,232.576 C178.331,232.693 179.967,233.296 178.911,231.687 C176.186,228.738 173.101,226.145 169.728,223.967 C158.937,216.671 146.219,212.75 133.193,212.704 C132.877,212.719 132.579,212.854 132.36,213.083 C132.142,213.312 132.02,213.616 132.02,213.933 C132.02,214.249 132.142,214.553 132.36,214.782 C132.579,215.011 132.877,215.146 133.193,215.161 C148.652,215.439 163.502,221.242 175.053,231.52 C175.911,232.285 176.857,232.958 176.829,234.211 C176.829,234.768 175.765,243.904 175.731,244.169036 C162.304,244.176 148.895,243.171 135.619,241.164 C129.403,240.497 123.427,238.394 118.162,235.022 C113.326,231.744 109.106,227.639 105.695,222.896 C98.504,212.551 98.449,199.296 103.29,187.929 C110.191,171.736 126.95,157.808 142.204,149.147 C147.881,146.016 153.746,143.237 159.765,140.827 C161.234,146.693 163.884,152.197 167.552,157.004 C167.648,157.157 167.781,157.282 167.939,157.37 C168.097,157.457 168.274,157.502 168.454,157.502 C168.634,157.502 168.812,157.457 168.969,157.37 C169.127,157.282 169.26,157.157 169.356,157.004 C170.749,154.996 171.915,152.84 172.832,150.574 C173.992,158.832 174.536,167.165 174.46,175.503 C174.546,190.989 173.16,213.203 174.093,219.721 C174.273,220.975 176.056,220.53 176.158,219.433 C176.467,216.071 175.898,217.74 176.602,191.236 C176.862,181.735 177.382,163.265 174.668,150.65 C176.184,153.029 177.814,155.369 179.556,157.602 C179.673,157.783 179.838,157.927 180.033,158.018 C180.227,158.108 180.444,158.142 180.657,158.115 C180.87,158.088 181.072,158.001 181.237,157.864 C181.403,157.727 181.527,157.546 181.594,157.342 C183.482,152.322 185.175,147.231 186.82,142.135 C187.751,143.531 198.375,147.574 210.74,156.768 C224.177,166.759 238.963,184.489 237.411,200.84 Z" id="Shape" fill="#191919"></path>
        </g>
    </g>
</svg>