<svg viewBox="0 0 400 400" xmlns="http://www.w3.org/2000/svg"><g transform="matrix(2,0,0,2,0,0)"><path d="M114.222,46.679a.925.925,0,0,0-1.135-.167c-.253.133-.265.434.066.4a1.315,1.315,0,0,1,.826.163C114.276,47.228,114.353,46.819,114.222,46.679Zm.161-2.723c-.71-.476-2.5.856-1.947,1.284.373.289.56-.4,1.573-.549C114.728,44.6,114.539,44.06,114.383,43.956Zm4.891.874a2.426,2.426,0,0,0-1.712-1.11c-.761-.084-.856.754-.194.911a3.976,3.976,0,0,1,1.352.663C119.268,45.686,119.424,45.066,119.274,44.83Zm.4,3.509c-.241-.554-.567-.6-.742-.349a4.052,4.052,0,0,1-3.365,2.508c-.343.042-.391.314-.259.6,1.454,2.8,6.392,1.99,4.366-2.731Zm-.6.748c1.495,2.412-1.206,4-3.111,1.942A4.459,4.459,0,0,0,119.069,49.087Zm-3.106.163c.091.175,0,.525-.7.289-1.031-.343-1.363-.277-.289-2.291.476-.886.663-.368.651-.283a7.9,7.9,0,0,1-.664,1.809c.284.12.856.181,1,.464Zm1.321-2.695c-.211.265-.085.6.235.446a2.7,2.7,0,0,1,1.206-.229c.531.005.336-.313.021-.489A1.3,1.3,0,0,0,117.284,46.555Z" fill="#191919"></path><path d="M155.7,33.4c-1.043,0-4.131.235-4.613,1.254-.6,1.254,1.465,4.517,2.146,3.745.38-.434-.868-1.514-1.206-2.78-.289-1.146,2.159-.965,3.112-1.206,1.206-.272,1.073-1.025.543-1.037Zm1.272,3.787c.151.757-.8,1.037-.953.12a1.623,1.623,0,0,0-.964-1.206c-.905-.349-.477-.965.217-.784A2.493,2.493,0,0,1,156.968,37.19Zm-3.889-6.2c.138-.217.217-.434,0-.6-.694-.8-1.93,1.326-1.1,2.587a.387.387,0,0,0,.688-.26A1.888,1.888,0,0,1,153.079,31Zm.669,1.549c-1.061-1.3,1.423-3.407,1.809-2.243.115.332-.121.5-.362.6-1.049.567-.657.911-.856,1.538a.4.4,0,0,1-.6.078Zm4.293-2.375c-.928-.6-2.683,1.073-2.369,2.231a.422.422,0,0,0,.8-.024c.6-1.49.723-.8,1.592-1.454a.464.464,0,0,0,0-.729Zm2.949,2.635c.424,2.17-.814,4.89-1.688,6.874-.2.47-.869.121-.778-.332.41-2.086,2.551-5.324,1.1-7.411-.6-.892-1.073.543-1.133,1.062s-.784.47-.748,0C157.975,29.869,160.449,30.02,160.99,32.794Z" fill="#191919"></path><path d="M108.649,71.664c-.128-.44-.875-.265-.784.187.47,2.376,1.019,4.734,1.592,7.091-3.8,3.992-9.522,12.253-11.687,17.325-.193.44.538.772.754.356a80.291,80.291,0,0,1,11.253-16.36c1.471,6.03,2.743,11.144,3.129,17.487.048.712,1.109.6,1.1-.12C113.859,90.213,110.764,78.942,108.649,71.664Zm50.49-30.1a28.34,28.34,0,0,0-6.723-1.116c-.441,2.569-4.752,15.546-6.556,16.281-1.471.6-10.527,1.5-20.7,3.9a11.2,11.2,0,0,1-6.47,4.661c-2.328.458-4.981-.44-5.994-2.641-7.767,3.172-16.776,13.531-22.046,30.814-.139.452-.869.126-.754-.314,3.045-11.354,11.211-26.134,22.052-31.278.833-.4,1.206-.374,1.333-.036a4.7,4.7,0,0,0,5.657,2.3c2.622-.729,3.726-2.14,5.046-3.551a2.547,2.547,0,0,1,1.049-.857c2.775-.7,14.437-3.31,20.5-3.75a63.133,63.133,0,0,0,5.615-15.015c.294-1.086.343-1.4,1.712-1.418a27.445,27.445,0,0,1,6.38.983c1.115.35.868.965.681,2.093a111.259,111.259,0,0,1-3.938,16.341c-1.333,3.95-1.96,5.156-4.721,6.76a74.051,74.051,0,0,1-13.924,6.091c1.206,6.97,3.257,22.763,2.195,29.035a.521.521,0,0,1-1.031-.151c1.261-8.442-1.58-19.791-2.069-28.619-.88.247-1.76.47-2.646.663-.452.1-.688-.639-.247-.778a82.607,82.607,0,0,0,17.21-7.163c2.412-1.381,2.954-2.509,4.19-6.127A107.6,107.6,0,0,0,159.139,41.562Z" fill="#191919"></path><path d="M67.192,155.41c-2.871-2.129-12.79-7.037-15.932-8.442a.6.6,0,0,0-.83.2c-.319.515.313.952,1.059,6.74A124.141,124.141,0,0,0,37.94,145.84c-.477-.241-.911.428-.441.712,4.825,2.931,9.872,6.031,14.551,9.2a.6.6,0,0,0,.893-.477,61.373,61.373,0,0,0-1.013-6.591c5.2,2.317,9.835,5.277,14.773,7.55a.47.47,0,0,0,.489-.8ZM176.427,99.4c-.512-.259-.934.32-.8.784a53.811,53.811,0,0,1,1.616,6.2c-6.18-3.66-12.3-7.453-18.578-10.926-.434-.242-.857.47-.447.741,6.374,4.221,13.2,8.171,19.767,12.061.4.235.881-.217.82-.6a56.392,56.392,0,0,0-1.507-6.392c2.37,1.133,15.19,7.513,17.119,8.177.4.138.82-.423.41-.694C194.831,108.472,177.39,99.879,176.427,99.4ZM87.748,51.113c-2.762-1.974-9.407-5.777-12.609-7.453a.6.6,0,0,0-.856.693c.26,1.273.477,2.72.676,4a133.619,133.619,0,0,0-11.717-6.9.524.524,0,0,0-.494.922,133.515,133.515,0,0,1,12.711,7.888.6.6,0,0,0,.874-.531c-.18-1.375-.41-2.912-.663-4.269,3.914,2.032,7.664,4.468,11.524,6.428C87.658,52.12,88.221,51.451,87.748,51.113Z" fill="#191919"></path><path d="M93.393,142.318a.49.49,0,0,0-.893.3c.085.439,1.243,4.365.826,4.684-1.109.851-12.988,1.37-14.749,1.34.392-.863,7.266-4.824,8.544-5.777.368-.266.091-.935-.361-.743a54.011,54.011,0,0,0-8.358,5.156c-1.435,1.141-1.086,2.412-.332,2.449a67.063,67.063,0,0,0,14.653-1.206c2.256-.428,1.948-1.152,1.49-3.48A10.805,10.805,0,0,0,93.393,142.318Zm34.124,10.789a10.62,10.62,0,0,0-1.471-1.556.434.434,0,0,0-.669.537c.735,1.3,2.014,2.037,1.809,2.568-.134.326-10.855,12.989-11.229,12.06.356-3.19,2.1-6.91,3.088-10.039a.4.4,0,0,0-.748-.3,48.182,48.182,0,0,0-3.383,10.252c-.193.934.772,1.278,1.537,1.012,1.762-.6,9.607-9.937,11.078-11.716C128.572,154.621,128.566,154.319,127.517,153.107Z" fill="#191919"></path><path d="M90.251,96c-7.134-1.808-8.219-9.473-9.473-15.473-2.153-10.365-9.438-19.212-18.826-24-10.511-5.355-24.495-6.181-35.4-1.55C5.522,63.9-1.624,92.558,11.884,111.608c9.648,13.664,27.3,19.814,43.169,14.58,6.911-2.279,14.575-7.784,22.631-1.368.6.458,1-.29.428-.743-8.251-6.576-15.358-1.646-23.481,1.062a36.9,36.9,0,0,1-41.566-13.9C1,94.379,5.087,68.8,23.256,57.951c9.884-5.9,23.65-6.126,34.264-2.116C67.62,59.646,76.128,67.9,79.047,78.4c1.719,6.211,2.635,18.38,11.156,18.367C90.667,96.767,90.655,96.1,90.251,96Z" fill="#38A1FF"></path><path d="M87.393,97.418A16.539,16.539,0,0,0,80.5,103c-7.62-5.248-21.242-15.133-25.925-22.9,7.869-8.08-2-13.151-2.985-8.442a12.141,12.141,0,0,0,1.676,8.25,14.452,14.452,0,0,1-7.1,4.178c-1.267-2.334-4.493-5.017-6.76-4.541-3.618.772-.1,6.308,6.1,5.729,2.165,4.769.229,12.15-5.837,12.579-.343-2.376-2.707-3.884-4.4-3.069s-.6,3.817,3.347,4.07a11.4,11.4,0,0,1-2.533,5.728c-2.538-.132-8.062-.422-9.3,2.57-1.321,3.183,5.216,3.852,9.72-1.358a121.73,121.73,0,0,1,38.878,8.483,15.7,15.7,0,0,0-.062,5.99c.241,1.187.911.976.845.175a22.107,22.107,0,0,1,.273-5.758q2.148.834,4.382,1.754c.428.175.717-.531.307-.742q-2.162-1.1-4.466-2.092a24.2,24.2,0,0,1,4.192-8.913c1.574,1.092,3.045,2.094,4.357,2.978.6.417,1.206-.6.6-1.012-.022-.085-1.674-1.165-4.228-2.91a25.985,25.985,0,0,1,6.356-5.659C88.484,97.756,88.043,97.175,87.393,97.418ZM40.05,82.633c-3.319-2.86,2.111-2.9,4.9,1.592A6.837,6.837,0,0,1,40.05,82.633ZM35.54,95.826c.441-.656,2.61-.1,3.015,2.027C36.746,97.7,35.052,96.551,35.54,95.826Zm-7.2,11.144c1.533-1.392,4.709-1.339,6.723-1.254C32.422,108.882,25.745,109.326,28.34,106.97ZM52.55,72.164c.536-3.449,7.617.405,1.484,6.959A11.339,11.339,0,0,1,52.55,72.164Zm23.075,41a123.643,123.643,0,0,0-38.234-8.5,12.109,12.109,0,0,0,2.316-5.806c6.91-.446,9.032-8.6,6.91-13.755A15.846,15.846,0,0,0,53.8,80.878c4.533,7.331,16.75,16.6,26,23.076A27.729,27.729,0,0,0,75.625,113.162Z" fill="#38A1FF"></path><path d="M192.058,162.869c-6.748-4.076-7.351-6.687-11.874-12.313-5.2-6.471-12.663-12.844-21.527-12.446a.343.343,0,1,0-.037.681c8.81.3,15.335,5.874,20.581,12.392,3.8,4.722,6.6,9.4,12.663,12.271.531.253.736-.265.218-.6Zm-17.915-7.4c-4.783-6.694-8.443-9.045-16.108-11.766a.355.355,0,0,1,.224-.668c6.108,1.109,13.959,7.042,17.047,12.386.512.891.078,1.072-.646,1.085-6.988.1-14.194-2.37-18.826-7.538-.3-.331.091-.766.417-.465A24.683,24.683,0,0,0,174.143,155.471Zm16.546,11.053c.64.341.379.911-.26.6-7.748-3.7-12.265-1.93-18.964-2.985a32.266,32.266,0,0,1-19.478-10.981c-.374-.441.055-.977.453-.543a33.313,33.313,0,0,0,20.846,10.6C179.883,163.9,184.3,163.121,190.689,166.524Z" fill="#38A1FF"></path><path d="M78.613,125.6c4.77-1.905,13.76-21.172,13.073-29.4,8.78,1.14,19.243,5.657,23.686,8.376-5.789,4.5-14.382,14.509-14.623,16.281-.6,4.384,7.086,18.4,10.119,23.133-6.235-1.882-23.675-9.794-32.255-18.363Zm65.42,42.579a23.893,23.893,0,0,1-3.147-4.577c-5.71-9.425-10.855-18.645-16.282-28.2,1.013-.783,15.323,5.53,16.156,6.181C140.862,141.583,142.961,157.577,144.033,168.182Zm-12.825-18.669c2.762,4.859,5.619,9.654,8.508,14.448,1.284,2.122,2.5,4.824,4.782,6.03a.6.6,0,0,0,.857-.561c-.839-7.839-1.744-15.648-2.786-23.451,2.954-3.618,6.741-11.228,6.741-16.239-.374-.567-.868-1.242-1.471-1.99q6.192-8.594,11.813-17.566c.633-1.025,2.243-2.846,1.037-4-1.019-.989-2.756-.078-3.818.326a153.756,153.756,0,0,0-21.243,9.931c-.863-.566-1.737-1.09-2.6-1.549-1.429.856-12.512,8.683-16.166,9.823.97,4.963,6.94,19.212,8.563,23.433A36.859,36.859,0,0,0,131.208,149.513Zm5.318-32.467c5.9-3,16.285-8.151,22.625-10.13,1.887-.308,0,1.942-.6,2.931-3.654,5.8-7.435,11.427-11.457,16.992A59.791,59.791,0,0,0,136.526,117.046Z" fill="#38A1FF"></path><path d="M86.5,141.185c1.514,0,6.712.229,7.236.229a31.845,31.845,0,0,0,0-4.028,60.181,60.181,0,0,1-8.116-4.655c.543,4.058.862,7.942.862,8.443Zm52.679-38.737a43.049,43.049,0,0,0-30.09-2.111,39.816,39.816,0,0,1,7.055,3.823c1.176-.766,2.34-1.555,3.534-2.291.289-.181.651.325.35.5-4.77,2.768-17.047,14.213-18.091,18.965-.729,3.395,12.061,27.135,16.113,33.165,2.171-.566,5.252-2.912,7.025-4.112-.356-1.158-9.214-24.066-9.522-26.388C129.947,116.468,140.892,109.443,139.179,102.448Z" fill="#191919"></path><path d="M121.994,46.488a6.281,6.281,0,0,1-1.327-3.817c-8.8.489-13.459-1.863-13.031-7.2.126-1.592.693-2.677,1.942-.742a7.625,7.625,0,0,0,4.046,3.172c-2.328-2.948-1.206-6.175.44-3.684.923,1.4,6.169,5,9.769,4.541,3.383-.429,2.3,4.872,1.676,6.578,1.242,1.478.1,4.125-1.447,5.241.108.916-.2,8.381-.676,9.4-.138.3-.675.3-.633-.043.772-6.669.278-9.889.694-10.2,2.412-1.766,2.02-5.9-.941-3.159-.175.168-.392.06-.531-.091Zm-2.666,8.792c-2.828.923-7.133,1.888-7.459-1.706a53.441,53.441,0,0,1,.3-10.4c.035-.38-.6-.561-.682-.163a35.486,35.486,0,0,0-.482,11.759c.4,2.309,2.52,2.448,4.679,2.357a33.788,33.788,0,0,1-1.044,4.758c-.132.464.538.754.712.284a29.9,29.9,0,0,0,1.357-5.132,7.6,7.6,0,0,0,2.967-1,.418.418,0,1,0-.35-.76Z" fill="#191919"></path><path d="M156.564,137.615c-.126-1.248-3.883-4.4-6.169-6.512a24.888,24.888,0,0,1-6.771,15.28c.156,1.158.289,2.689.488,5.066.838.047,3.938.181,5.2.181,3.063,0,7.713-9.5,7.236-14.015Zm-6.772,12.223a38.55,38.55,0,0,1-4.667-1.109.38.38,0,0,1,.2-.73,36.82,36.82,0,0,1,4.667,1.1A.4.4,0,0,1,149.792,149.838Zm2.159-3.485c-.512.248-3.829-1.49-4.149-1.683a.375.375,0,0,1,.3-.687c.6.235,3.877,1.459,4.052,1.924A.355.355,0,0,1,151.951,146.353Zm-1.929-6.724c-.29-.264.174-.8.482-.6.6.428,3.733,2.552,3.7,3.22a.336.336,0,0,1-.217.266C153.989,142.63,153.206,142.581,150.022,139.629Zm4.884-.53c-1.324-1.054-2.412-2.34-3.648-3.522a.374.374,0,0,1,.524-.525c.314.26,3.462,3.076,3.552,3.618C155.37,138.93,155.155,139.3,154.906,139.1Z" fill="#191919"></path></g></svg>