<svg width="178" height="184" viewBox="0 0 178 184" fill="none" xmlns="http://www.w3.org/2000/svg">
<rect x="18" y="67" width="160" height="80" rx="16" fill="#FAE6E2"/>
<path d="M108.642 118.47C111.791 119.612 114.608 121.516 116.842 124.012C118.136 125.473 118.341 126.134 118.896 126.599C118.947 126.648 119.014 126.679 119.085 126.687C119.156 126.695 119.227 126.68 119.289 126.644C119.35 126.607 119.398 126.552 119.426 126.486C119.453 126.421 119.459 126.348 119.441 126.278C119.044 125.241 118.421 124.304 117.617 123.538C115.303 120.832 112.212 118.905 108.765 118.019C108.706 118.006 108.645 118.017 108.595 118.048C108.544 118.079 108.507 118.129 108.491 118.186C108.475 118.244 108.482 118.305 108.51 118.358C108.538 118.411 108.585 118.451 108.642 118.47Z" fill="#191919"/>
<path d="M108.547 124.012C110.427 124.934 112.205 126.052 113.852 127.347C116.435 129.474 116.968 130.803 118.1 131.809C118.314 132.001 118.742 131.82 118.622 131.499C117.746 129.148 112.372 124.287 108.734 123.537C108.676 123.53 108.617 123.542 108.567 123.572C108.517 123.602 108.478 123.647 108.456 123.702C108.435 123.756 108.432 123.816 108.448 123.872C108.465 123.928 108.499 123.977 108.547 124.012Z" fill="#191919"/>
<path d="M126.811 180.927C124.467 172.396 121.642 164.004 118.349 155.792C117.649 154.11 116.616 152.08 115.085 151.01C115.933 149.392 115.51 147.013 113.365 145.372C113.413 145.368 113.458 145.35 113.496 145.321C113.534 145.291 113.562 145.252 113.578 145.206C114.894 142.22 115.132 138.809 115.335 135.594C115.335 135.557 115.321 135.522 115.296 135.495C115.272 135.468 115.239 135.451 115.202 135.446C115.166 135.442 115.129 135.451 115.099 135.472C115.069 135.492 115.048 135.523 115.038 135.558C114.725 137.216 114.453 138.881 114.125 140.531C113.741 142.476 112.887 144.871 112.949 145.124C111.215 144.25 109.302 143.79 107.36 143.78C87.3395 142.27 66.8167 144.046 50.0771 148.158C48.5411 148.535 46.9274 149.064 46.0067 150.33C44.1271 145.995 42.7146 141.472 41.7933 136.837C41.7357 136.576 41.2711 136.624 41.3066 136.908C41.9065 141.266 43.0839 145.524 44.8077 149.571C44.9766 150.11 45.251 150.61 45.6151 151.042C45.3203 151.593 45.2262 152.23 45.3488 152.843C45.4714 153.456 45.803 154.007 46.2871 154.402C44.8605 154.846 44.6205 156.04 44.1511 157.405C41.4775 165.181 37.5127 176.847 35.9277 182.92C35.9136 182.973 35.9213 183.03 35.9491 183.078C35.9769 183.126 36.0226 183.161 36.076 183.175C36.1295 183.189 36.1864 183.181 36.2342 183.153C36.282 183.126 36.3168 183.08 36.3309 183.027C38.1079 178.198 40.0528 171.315 44.6973 158.117C44.8954 157.213 45.2572 156.352 45.7648 155.577C46.4368 154.825 47.9728 154.85 48.8867 154.7C72.8263 150.774 91.7987 149.804 107.19 150.284C109.16 150.346 111.318 150.244 113.195 150.925C116.531 152.137 117.757 156.493 119.271 160.538C122.211 168.396 123.626 173.149 126.024 181.151C126.053 181.255 126.123 181.343 126.218 181.396C126.313 181.449 126.425 181.462 126.529 181.432C126.634 181.403 126.722 181.333 126.775 181.238C126.828 181.143 126.841 181.031 126.811 180.927ZM81.1696 150.06C81.1566 150.152 81.111 150.235 81.0411 150.296C80.9713 150.357 80.8819 150.39 80.7895 150.39C80.697 150.39 80.6077 150.357 80.5378 150.296C80.468 150.235 80.4223 150.152 80.4093 150.06C80.3066 149.051 80.2979 148.019 80.1837 147.01C80.0349 146.098 79.9388 145.178 79.8957 144.255C79.8957 144.041 80.2394 143.91 80.3344 144.136C80.661 144.973 80.8612 145.853 80.9287 146.749C81.1086 147.843 81.1892 148.951 81.1696 150.06ZM88.4791 149.431C88.4455 149.918 87.6832 149.918 87.7197 149.431C87.8439 147.597 87.6839 145.754 87.2455 143.968C87.2099 143.731 87.5277 143.554 87.6496 143.79C88.4429 145.558 88.7301 147.51 88.4791 149.431Z" fill="#191919"/>
<path d="M68.8038 107.754C68.0127 106.275 67.1218 104.844 66.2521 103.41C65.5063 101.979 64.6156 100.628 63.5938 99.3785C63.4383 99.2134 63.1196 99.3785 63.2022 99.6041C63.8603 101.078 64.6718 102.478 65.6233 103.781C66.5247 105.205 67.4098 106.628 68.3766 108.005C68.4099 108.062 68.4644 108.103 68.528 108.119C68.5917 108.136 68.6593 108.126 68.7159 108.093C68.7726 108.06 68.8136 108.005 68.8301 107.941C68.8466 107.878 68.8371 107.81 68.8038 107.754Z" fill="#191919"/>
<path d="M76.4339 105.736C76.5693 104.205 76.5462 102.664 76.553 101.128C76.6608 99.6569 76.6328 98.1786 76.4694 96.7123C76.4532 96.6556 76.4189 96.6058 76.3718 96.5703C76.3247 96.5348 76.2673 96.5156 76.2083 96.5156C76.1494 96.5156 76.092 96.5348 76.0449 96.5703C75.9978 96.6058 75.9635 96.6556 75.9472 96.7123C75.7813 98.1784 75.7536 99.657 75.8647 101.128C75.8771 102.659 75.8483 104.213 75.9827 105.736C75.9827 105.796 76.0065 105.854 76.0488 105.896C76.0911 105.938 76.1485 105.962 76.2083 105.962C76.2682 105.962 76.3255 105.938 76.3679 105.896C76.4102 105.854 76.4339 105.796 76.4339 105.736Z" fill="#191919"/>
<path d="M84.8598 107.398C85.8688 106.389 86.8508 105.342 87.8502 104.313C88.8496 103.284 89.9622 102.341 90.8761 101.251C91.0681 101.025 90.8166 100.609 90.544 100.812C88.3629 102.713 86.3609 104.811 84.5632 107.078C84.3865 107.304 84.6582 107.6 84.8598 107.398Z" fill="#191919"/>
<path d="M63.6054 72.6857C63.4512 72.4643 63.237 72.2915 62.9881 72.1874C61.7631 71.8322 60.8598 75.7932 61.0182 77.4809C61.1602 78.9958 62.1644 81.343 63.3087 80.3762C63.6131 80.0937 63.8661 79.7604 64.0566 79.3913C64.6472 78.3525 64.9193 77.1629 64.8391 75.9707C64.7589 74.7784 64.3298 73.636 63.6054 72.6857Z" fill="#38A1FF"/>
<path d="M68.5187 70.6688C68.4525 69.5533 68.2931 68.2246 67.3197 67.5123C66.5492 67.0797 65.6751 66.8662 64.792 66.895C60.0169 66.511 45.6141 66.511 41.8643 67.0016C38.7769 67.4019 39.1657 70.5008 39.04 73.6832C38.9689 75.4986 38.9363 77.3312 39.0285 79.1552C38.9822 80.6923 39.2195 82.2247 39.7283 83.6758C40.84 86.0701 43.72 85.856 45.9347 85.8234C46.9072 85.807 58.9609 85.7418 59.0608 85.7754C59.7126 85.9971 58.9437 86.0835 63.3328 89.7987C63.3823 89.8457 63.4444 89.8773 63.5116 89.8896C63.5788 89.9019 63.6481 89.8943 63.711 89.8678C63.7739 89.8413 63.8278 89.7971 63.866 89.7405C63.9042 89.6839 63.925 89.6174 63.9261 89.5491C64.0806 88.3011 64.2582 87.0579 64.4243 85.8118C67.6787 85.5987 68.5398 84.0637 68.8153 81.1712C68.9857 77.668 68.8865 74.1568 68.5187 70.6688ZM49.1517 81.8125C49.0754 81.882 48.976 81.9206 48.8728 81.9206C48.7696 81.9206 48.6701 81.882 48.5939 81.8125C46.1997 79.855 42.2233 77.2554 43.0259 73.5997C43.672 70.6611 46.9245 70.209 48.0573 72.1165C50.0541 70.016 53.1193 70.9866 53.4928 73.5642C53.967 76.8262 51.496 79.8915 49.1517 81.8125ZM58.9657 80.9101C58.9559 80.9787 58.9217 81.0415 58.8694 81.087C58.817 81.1324 58.75 81.1575 58.6806 81.1575C58.6113 81.1575 58.5443 81.1324 58.4919 81.087C58.4395 81.0415 58.4053 80.9787 58.3955 80.9101C58.1929 78.1318 58.1699 75.321 58.1075 72.5322C57.2531 73.6352 56.3795 74.7027 55.4848 75.7712C55.3763 75.9008 55.1641 75.7366 55.2592 75.5936C56.1741 74.2179 57.1504 72.8912 58.1305 71.5702C58.1628 71.5167 58.2115 71.4751 58.2694 71.4517C58.3274 71.4283 58.3914 71.4244 58.4517 71.4405C58.5121 71.4567 58.5656 71.492 58.6041 71.5412C58.6426 71.5904 58.6641 71.6508 58.6653 71.7133C58.7833 74.7747 58.9888 77.8602 58.9657 80.9101ZM65.3382 77.5875C65.127 78.7981 64.2582 81.3315 62.6685 81.2547C61.1133 81.1779 60.5085 78.6906 60.4009 77.4925C60.2214 75.4765 61.3005 70.9069 63.2022 71.5942C64.2381 71.9686 65.8729 74.5136 65.3382 77.5875Z" fill="#38A1FF"/>
<path d="M112.154 80.4226C111.924 76.2552 110.505 76.4328 106.292 76.2456C99.6274 75.9499 90.2233 76.1131 87.0082 76.3291C86.1292 76.316 85.2544 76.4523 84.421 76.7323C83.102 77.3227 82.8716 78.8674 82.7948 80.1499C82.5865 83.6501 82.1487 87.1637 82.5068 90.6648C82.8054 93.5534 83.5906 95.0578 86.8978 95.3045C87.0639 96.5525 87.2415 97.7947 87.3961 99.0427C87.3979 99.1107 87.4194 99.1767 87.4578 99.2329C87.4963 99.289 87.5501 99.3328 87.6129 99.359C87.6756 99.3853 87.7446 99.3929 87.8116 99.3809C87.8785 99.3689 87.9406 99.3378 87.9903 99.2914C89.3253 98.188 90.5896 97.0016 91.7756 95.7394C92.0982 95.3976 92.1788 95.2709 92.63 95.2651C92.9622 95.2603 101.151 95.2498 103.869 95.2766C105.945 95.2978 108.59 95.7566 110.407 94.5413C110.903 94.1419 111.307 93.6405 111.591 93.0711C111.876 92.5018 112.035 91.8779 112.057 91.2418C112.423 87.6461 112.455 84.0243 112.154 80.4226ZM92.7625 90.7234C91.7467 91.3984 90.6554 91.9522 89.511 92.3736C89.4518 92.3899 89.3893 92.3902 89.33 92.3745C89.2706 92.3588 89.2165 92.3277 89.1731 92.2843C89.1297 92.2408 89.0986 92.1867 89.0829 92.1274C89.0672 92.068 89.0675 92.0056 89.0838 91.9464C89.3641 91.1179 89.6175 90.2606 89.9382 89.4418C88.8853 88.5555 88.2044 87.3056 88.0307 85.9404C87.8569 84.5752 88.203 83.1946 89.0002 82.0728C89.576 81.0424 90.4635 80.221 91.5352 79.7265C92.607 79.232 93.8079 79.0899 94.9655 79.3206C96.1231 79.5512 97.1778 80.1429 97.9782 81.0104C98.7785 81.878 99.2833 82.9769 99.4201 84.1493C99.5101 85.042 99.399 85.9436 99.0951 86.7878C98.7911 87.632 98.302 88.3974 97.6636 89.0279C97.0252 89.6584 96.2537 90.1379 95.4058 90.4313C94.5578 90.7247 93.655 90.8245 92.7634 90.7234H92.7625ZM104.535 91.2101C103.658 91.5586 102.247 91.4578 101.746 90.5381C101.604 90.276 101.902 89.9419 102.173 90.1099C102.493 90.3925 102.891 90.5721 103.314 90.6252C103.737 90.6783 104.167 90.6024 104.546 90.4075C106.082 89.5435 106.8 86.6779 105.294 85.7909C104.474 85.3109 103.444 85.7246 102.636 86.028C102.583 86.0417 102.528 86.0431 102.474 86.0324C102.421 86.0216 102.371 85.9988 102.327 85.9657C102.284 85.9326 102.248 85.8901 102.224 85.8413C102.199 85.7926 102.186 85.7389 102.185 85.6843C102.105 84.1061 102.06 82.5163 102.054 80.9371C102.057 80.8434 102.095 80.7542 102.161 80.688C102.228 80.6217 102.317 80.5834 102.41 80.581C105.069 80.556 105.466 80.436 106.065 80.6405C106.114 80.6562 106.157 80.687 106.187 80.7286C106.218 80.7702 106.234 80.8204 106.234 80.8718C106.234 80.9233 106.218 80.9735 106.187 81.0151C106.157 81.0567 106.114 81.0875 106.065 81.1032C105.576 81.2952 105.367 81.2338 102.778 81.2952C102.791 82.5883 102.826 83.8939 102.886 85.187C103.375 84.9379 103.923 84.8272 104.471 84.8669C105.019 84.9067 105.546 85.0954 105.994 85.4126C107.704 86.9342 106.631 90.3787 104.536 91.2101H104.535Z" fill="#38A1FF"/>
<path d="M94.5433 13.4563C95.7433 20.3923 96.6179 24.7843 96.9049 31.8883C97.103 33.9777 96.9911 36.085 96.5728 38.1417C95.6915 41.5238 93.856 44.8838 90.6035 46.4371C85.2275 49.007 77.9814 46.9948 73.7517 38.878C73.5117 38.4163 72.8493 38.8195 73.0633 39.2812C76.455 46.5772 84.4192 50.0524 90.3433 47.446C90.2381 48.3145 90.2905 49.1949 90.4979 50.0448C90.6957 50.8771 91.0067 52.1116 91.791 52.5724C91.8247 52.5918 91.8629 52.6019 91.9017 52.6019C91.9406 52.6018 91.9788 52.5915 92.0124 52.5721C92.046 52.5527 92.074 52.5247 92.0934 52.4911C92.1129 52.4574 92.1231 52.4193 92.1232 52.3804C91.9318 51.5429 91.6535 50.7276 91.2928 49.9478C91.0547 49.0517 90.9116 48.133 90.8656 47.207C91.8553 46.7557 92.7651 46.1465 93.5593 45.4032C96.2047 42.5178 97.7065 38.7665 97.7833 34.8528C97.7209 27.5952 96.7439 20.3744 94.8755 13.3612C94.8141 13.1481 94.504 13.2432 94.5433 13.4563Z" fill="#191919"/>
<path d="M66.2042 29.3818C65.5515 30.2319 65.1564 31.2513 65.0655 32.3192C64.9747 33.387 65.192 34.4586 65.6917 35.4067C66.1913 36.3548 66.9524 37.1397 67.8847 37.6684C68.8169 38.1971 69.8812 38.4473 70.9514 38.3895C72.0139 42.8477 71.7808 47.5166 70.2794 51.8468C69.9501 52.7943 70.7008 53.1456 71.0272 52.2384C72.5413 47.7746 72.8068 42.9818 71.7952 38.378C71.6723 37.777 71.4659 37.6983 70.8813 37.6656C70.0272 37.6232 69.1944 37.3847 68.4474 36.9685C67.7004 36.5523 67.0593 35.9696 66.5738 35.2656C66.1032 34.5523 65.8435 33.7206 65.8244 32.8663C65.8054 32.0119 66.0279 31.1695 66.4663 30.4359C66.9346 29.7216 67.6272 29.1835 68.4351 28.9062C69.243 28.629 70.1201 28.6285 70.9283 28.9047C71.4007 29.0852 71.6867 29.1024 71.7357 28.5485C71.9392 26.2215 71.056 23.9405 70.7623 21.6298C70.3783 18.6336 71.1904 14.0132 73.48 12.2429C76.648 9.79493 80.6032 12.5588 86.8787 9.97637C88.1267 9.46373 89.4659 8.82437 90.7351 9.24101C92.9786 9.97541 93.2522 11.929 94.7104 12.6586C95.1991 12.9015 95.4199 12.5933 95.3517 12.0884C94.7152 7.39781 91.8746 4.55237 88.4925 2.65445C80.4861 -1.83739 67.7258 2.51333 64.7219 9.21701C64.192 10.3997 64.0279 9.86981 63.4999 13.3824C62.6342 18.8678 63.5837 24.4857 66.2042 29.3818Z" fill="#191919"/>
<path d="M80.7539 17.5038C78.5228 17.1198 75.5602 19.6561 75.686 21.5272C75.6994 21.7192 75.9625 21.8862 76.1132 21.7048C76.6249 20.8808 77.226 20.1159 77.9055 19.4238C78.766 18.8477 79.7421 18.467 80.7654 18.3083C81.1215 18.2161 81.1686 17.5748 80.7539 17.5038Z" fill="#191919"/>
<path d="M91.7786 16.6009C90.8473 16.1457 89.7926 16.0082 88.7757 16.2092C88.503 16.2553 88.5981 16.6374 88.8352 16.6604C89.7741 16.7559 90.6853 17.0341 91.5174 17.4793C91.9196 17.7128 92.2939 17.9914 92.633 18.3097C92.8912 18.5382 93.0362 18.7129 93.3923 18.7129C93.449 18.7117 93.5037 18.6924 93.5486 18.6578C93.5935 18.6233 93.6262 18.5753 93.6419 18.5209C93.8157 17.6483 92.4429 16.9215 91.7786 16.6009Z" fill="#191919"/>
<path d="M85.9283 21.36C87.1427 23.7255 88.3696 26.064 89.3843 28.5159C89.8336 29.6084 90.6563 31.0685 90.1436 32.2541C89.5062 33.7268 87.782 32.7965 86.6195 32.8474C86.2873 32.8618 86.1683 33.3927 86.536 33.4647C87.6755 33.6874 89.2432 34.1424 90.2272 33.3101C91.2486 32.4461 91.0758 30.986 90.6774 29.8685C89.6643 26.7579 88.1969 23.814 86.3228 21.1325C86.2927 21.0802 86.2429 21.042 86.1846 21.0263C86.1263 21.0107 86.0641 21.0188 86.0118 21.049C85.9595 21.0792 85.9213 21.1289 85.9056 21.1872C85.89 21.2456 85.8981 21.3077 85.9283 21.36Z" fill="#191919"/>
<path d="M80.5043 24.1957C79.1997 24.4712 77.896 25.9717 78.3213 27.3637C78.3349 27.4098 78.363 27.4502 78.4015 27.479C78.44 27.5078 78.4868 27.5233 78.5349 27.5233C78.5829 27.5233 78.6297 27.5078 78.6682 27.479C78.7067 27.4502 78.7349 27.4098 78.7485 27.3637C78.9808 26.2827 79.3667 25.1989 80.5878 24.907C82.1584 24.5317 82.9475 25.963 83.3056 26.2837C83.3441 26.32 83.3923 26.3444 83.4444 26.3539C83.4965 26.3634 83.5502 26.3577 83.5991 26.3374C83.648 26.3171 83.69 26.2831 83.72 26.2395C83.75 26.1959 83.7668 26.1446 83.7683 26.0917C83.7146 24.6594 81.6793 23.949 80.5043 24.1957Z" fill="#191919"/>
<path d="M92.1346 22.1793C91.5402 22.1575 90.9589 22.3583 90.5046 22.7423C90.0503 23.1263 89.7555 23.666 89.678 24.2558C89.6425 24.4699 89.966 24.659 90.0697 24.4219C90.4489 23.579 91.1487 22.6785 92.1942 22.9032C93.0831 23.0952 93.3145 23.9592 93.8194 24.5765C93.9634 24.7531 94.2486 24.6005 94.2467 24.3979C94.2019 23.8422 93.9677 23.3187 93.5833 22.9148C93.1989 22.511 92.6875 22.2514 92.1346 22.1793Z" fill="#191919"/>
<path d="M82.12 35.0782C81.9374 36.9981 81.9654 38.9321 82.2035 40.8459C82.9542 44.8088 86.6138 44.7445 88.3389 41.7003C89.0692 40.4054 89.5639 38.9911 89.8 37.5233C89.8326 37.2968 89.5859 37.2027 89.4083 37.2622C86.9635 37.2043 84.6053 36.3453 82.696 34.8171C82.6442 34.7787 82.583 34.7549 82.5189 34.7481C82.4548 34.7413 82.39 34.7518 82.3313 34.7784C82.2725 34.805 82.222 34.8468 82.1848 34.8996C82.1477 34.9523 82.1253 35.014 82.12 35.0782Z" fill="#191919"/>
<path d="M129.813 99.5297C131.111 98.7864 132.346 97.9368 133.504 96.9895C133.542 96.9508 133.565 96.901 133.572 96.8475C133.579 96.794 133.568 96.7398 133.541 96.693C133.515 96.6462 133.473 96.6094 133.424 96.5881C133.374 96.5668 133.319 96.5621 133.267 96.5748C131.877 97.1396 130.575 97.8985 129.398 98.8289C126.832 100.553 124.364 102.419 122.006 104.419C121.022 105.174 120.186 106.103 119.538 107.16C120.114 101.451 120.676 91.459 119.336 86.0839C119.265 85.7959 118.779 85.8468 118.814 86.155C120.446 100.482 117.532 113.654 117.449 115.645C117.437 115.933 117.889 116.072 118.007 115.8C118.612 114.121 118.987 112.369 119.122 110.59C119.243 109.7 119.36 108.81 119.455 107.908C119.983 108.287 119.627 106.387 129.813 99.5297Z" fill="#191919"/>
<path d="M156.693 61.1632C157.863 56.2497 158.351 51.1983 158.14 46.1517C158.136 46.0635 158.097 45.9805 158.033 45.9198C157.969 45.8591 157.884 45.8252 157.796 45.8252C157.708 45.8252 157.623 45.8591 157.559 45.9198C157.495 45.9805 157.457 46.0635 157.452 46.1517C157.276 48.1782 157.54 48.7734 157.12 53.7462C156.919 56.1203 156.491 58.4694 156.218 60.831C154.888 59.9171 153.734 59.1587 152.313 59.9296C149.676 61.359 150.227 65.175 149.75 67.6547C148.118 76.168 141.172 83.9872 136.483 92.4688C132.938 98.7989 131.051 105.923 130.999 113.178C130.999 113.379 131.334 113.439 131.368 113.225C132.077 108.696 132.406 102.776 135.545 96.0054C140.066 86.2547 149.438 76.8323 150.77 66.5632C151.033 64.5404 150.817 61.8093 152.645 60.7005C152.973 60.5105 153.35 60.4247 153.727 60.4544C154.104 60.484 154.464 60.6278 154.757 60.8665C156.497 61.9657 158.228 63.1129 159.955 64.2371C162.103 65.6349 162.378 65.7683 162.684 66.183C163.548 67.3581 161.936 68.7961 160.764 68.6877C159.453 68.5657 157.816 67.1804 155.459 65.3766C155.09 65.0886 154.607 65.7184 154.961 66.0169C156.474 67.2908 158.187 68.8009 160.1 69.399C161.914 69.975 164.478 68.151 163.652 66.1235C163.144 65.055 162.239 64.8611 156.693 61.1632Z" fill="#191919"/>
<path d="M164.845 46.8623C163.951 51.7687 162.539 56.5664 160.633 61.1749C160.609 61.2685 160.62 61.3674 160.663 61.4537C160.706 61.54 160.779 61.608 160.868 61.6452C160.957 61.6825 161.056 61.6867 161.148 61.6569C161.24 61.6272 161.318 61.5655 161.368 61.4831C163.329 57.5365 164.752 51.454 165.38 46.9333C165.421 46.6357 164.905 46.5657 164.845 46.8623Z" fill="#191919"/>
<path d="M164.537 59.418C164.416 59.6542 164.74 59.9537 164.929 59.7262C165.541 58.9851 165.899 60.308 165.914 60.7352C165.92 61.9653 165.643 63.1805 165.106 64.2872C164.824 64.7419 164.571 65.2135 164.347 65.6993C164.264 65.9374 164.586 66.2005 164.798 66.044C166.277 64.9515 167.524 59.9691 165.878 59.0782C165.769 59.009 165.646 58.9629 165.518 58.9425C165.391 58.9222 165.26 58.9281 165.134 58.9599C165.009 58.9917 164.891 59.0487 164.789 59.1275C164.686 59.2062 164.6 59.3051 164.537 59.418Z" fill="#191919"/>
<path d="M169.768 62.4681C169.586 61.4803 168.52 61.5686 168.451 62.302C168.425 62.5747 168.866 62.6342 168.938 62.3731C169.12 62.542 169.187 62.5459 168.985 63.8332C168.599 66.0609 167.543 68.1181 165.959 69.7305C165.303 70.248 164.684 70.8114 164.108 71.4163C163.951 71.6284 164.204 71.8828 164.428 71.831C165.548 71.5766 166.598 70.2518 167.276 69.3868C168.064 68.3837 168.689 67.2623 169.128 66.0643C169.625 64.9339 169.845 63.7008 169.768 62.4681Z" fill="#191919"/>
<path d="M162.899 73.4335C155.53 87.0434 156.755 103.718 149.133 117.188C146.318 122.161 143.107 125.54 137.384 126.196C134.479 126.494 131.547 126.014 128.887 124.807C126.305 123.547 123.932 121.898 121.851 119.918C121.776 119.847 121.677 119.809 121.574 119.81C121.471 119.811 121.373 119.853 121.301 119.926C121.228 119.998 121.187 120.096 121.185 120.199C121.184 120.302 121.222 120.401 121.293 120.475C123.049 122.408 125.154 123.99 127.499 125.139C132.725 127.78 138.037 127.74 142.203 125.732C148.649 122.627 152.364 113.502 154.343 106.628C157.456 95.8082 158.05 85.0783 163.315 73.661C163.432 73.3989 163.048 73.1627 162.899 73.4335Z" fill="#191919"/>
<path d="M120.984 121.817C109.665 110.25 103.294 113.039 96.2647 114.316C98.005 113.254 99.9357 112.54 101.949 112.216C103.963 111.994 106 112.107 107.978 112.549C108.036 112.563 108.098 112.555 108.151 112.527C108.205 112.5 108.247 112.454 108.27 112.398C108.293 112.343 108.296 112.281 108.277 112.224C108.259 112.166 108.221 112.117 108.17 112.085C106.684 111.173 103.582 111.256 101.856 111.481C99.3284 111.935 96.9497 112.998 94.9255 114.577C91.9495 115.135 89.2442 115.558 86.272 115.909C86.4103 114.778 86.6762 113.632 86.1434 112.715C85.8897 112.338 85.5623 112.016 85.1808 111.768C84.7994 111.521 84.3718 111.353 83.9239 111.275C80.3848 110.84 76.821 110.638 73.2554 110.669C67.2631 110.709 66.8867 111.988 65.4506 116.302C48.1139 114.722 40.6979 108.622 29.1808 109.006C29.1189 109.01 29.0608 109.037 29.0184 109.082C28.9759 109.127 28.9523 109.187 28.9523 109.249C28.9523 109.311 28.9759 109.371 29.0184 109.416C29.0608 109.461 29.1189 109.488 29.1808 109.492C41.5898 110.005 49.4301 115.644 65.1885 117.097C64.0461 120.594 63.1529 124.168 62.5159 127.791C62.5223 128.163 62.6172 128.528 62.7926 128.856C62.968 129.185 63.219 129.466 63.5248 129.678C65.6013 131.103 72.2829 130.754 74.7866 130.58C77.0176 130.426 79.6874 130.509 81.5863 129.18C84.1456 127.387 84.7543 123.546 85.9773 118.262C86.0471 117.736 86.1139 117.21 86.1779 116.685C95.6675 115.569 99.5959 114.026 103.779 113.811C110.567 113.468 115.779 118.035 120.487 122.308C120.818 122.624 121.304 122.137 120.984 121.817ZM82.2957 117.248C82.1536 118.221 81.9875 119.183 81.7975 120.144C80.9747 124.418 80.4967 127.743 76.433 127.857C74.1396 127.907 71.8453 127.82 69.5623 127.596C68.0781 127.465 66.5479 127.264 66.5239 125.425C66.5882 124.545 66.7598 123.676 67.0346 122.837C68.3853 117.728 68.585 115.892 69.2426 114.74C69.5401 114.153 70.0493 113.701 70.6672 113.474C73.9426 113.117 77.2509 113.197 80.5053 113.712C80.8441 113.74 81.174 113.835 81.4756 113.992C81.7772 114.149 82.0446 114.364 82.2621 114.625C82.7354 115.385 82.4157 116.429 82.2967 117.248H82.2957Z" fill="#191919"/>
<path d="M139.604 85.8826C135.65 66.6557 119.047 51.5347 100.052 50.7466C98.5293 50.5572 96.9839 50.6947 95.5187 51.1498C93.3328 52.0397 92.2873 53.5075 87.686 54.7018C81.3073 56.3039 74.5549 55.3474 68.872 52.0368C68.863 51.9853 68.8391 51.9376 68.8033 51.8995C68.7675 51.8615 68.7212 51.8348 68.6704 51.8227C54.2396 48.3821 39.4057 53.7571 28.3216 63.0499C15.8128 73.5552 6.52477 89.3597 1.71805 104.55C-0.940187 112.998 -0.565787 118.61 6.15613 124.605C14.4121 131.949 23.8528 134.444 34.7641 135.512C45.1476 136.462 55.596 136.462 65.9795 135.512C66.0923 135.891 66.2502 136.254 66.4499 136.596C66.806 137.189 67.4099 137.141 68.0281 137.141C72.6584 137.122 77.2635 136.459 81.711 135.171C81.8095 135.143 81.8933 135.078 81.9444 134.99C81.9956 134.901 82.01 134.796 81.9846 134.697C81.8503 134.373 81.7365 134.041 81.6438 133.703C97.1728 131.48 103.563 129.09 110.406 131.386C112.139 131.943 113.739 132.847 115.11 134.044C115.431 134.332 115.894 133.865 115.59 133.564C109.715 128.223 101.478 129.613 94.3744 130.87C90.0928 131.629 85.7987 132.332 81.4902 132.948C81.4499 132.708 81.4201 132.468 81.4028 132.223C83.7414 131.234 84.2233 128.437 84.7264 125.921C84.7024 125.992 84.6668 126.076 84.6304 126.171C84.3044 127.136 83.7761 128.021 83.0808 128.766C82.3855 129.511 81.5391 130.099 80.5984 130.491C79.4641 130.854 78.2869 131.065 77.0972 131.12C73.8803 131.4 67.5405 131.826 64.4473 130.846C63.6344 130.63 62.9162 130.15 62.4054 129.482C62.3574 131.582 63.6534 132.806 65.7049 133.113C65.682 133.657 65.7139 134.202 65.8 134.74C52.766 135.818 33.8848 136.071 21.5804 132.307C13.8352 129.926 7.69117 125.683 4.25437 121.615C2.96693 120.175 2.01075 118.47 1.45313 116.621C0.895512 114.771 0.750004 112.822 1.02685 110.911C1.62205 105.239 5.67325 95.6304 8.20573 90.5463C12.2879 90.9023 16.319 91.7022 20.2278 92.9319C30.6707 96.2554 36.1811 101.407 38.1798 102.603C36.1264 105.107 34.8544 106.155 33.8128 107.659C33.5872 107.991 34.0739 108.324 34.3465 108.074C34.9799 107.448 35.5774 106.786 36.136 106.093C39.8491 101.957 43.1666 97.4834 46.0451 92.7293C46.1516 92.5517 45.879 92.3146 45.736 92.4922C43.4704 95.4144 40.7574 99.5616 38.5216 102.211C37.0133 100.677 35.3094 99.3485 33.4537 98.2599C27.8375 94.6086 21.5797 92.0556 15.0121 90.7363C12.8901 90.2568 10.7296 89.9676 8.55613 89.8723C20.584 66.2218 42.7072 46.8691 68.488 52.3805C68.8605 52.9411 75.5372 57.072 84.3424 56.1187C87.0408 55.83 89.6719 55.0921 92.127 53.9357C93.3979 53.1442 94.718 52.4346 96.0793 51.8112C97.6099 51.4674 99.1907 51.4072 100.743 51.6336C112.647 52.417 123.671 58.92 130.731 68.4259C134.565 73.73 137.366 79.7084 138.987 86.0487C139.093 86.4519 139.686 86.2743 139.604 85.8826Z" fill="#191919"/>
</svg>
