<svg viewBox="0 0 400 400" xmlns="http://www.w3.org/2000/svg"><g transform="matrix(2,0,0,2,0,0)"><path d="M62.436,139.628c-.347-1.681-2.452-2.77-4.039-2.569-.264.034-.392.448-.074.518,1.308.29,3.528.877,3.425,2.633-.1,1.67-2.135,2.476-3.552,2.579-5.195.377-6.085-4.528-1.332-5.423a.2.2,0,0,0-.053-.392c-1.552.122-3.333.911-3.689,2.58-.669,3.134,3.793,5.017,7.178,3.447C61.57,142.412,62.745,141.129,62.436,139.628Z" fill="#191919"></path><path d="M82.988,102a.27.27,0,0,0-.539,0c-.194,2.281.25,5.744-.37,15.912-.1.017-4.376.746-4.736.888-1.414-5.835-7.23-18.414-1.5-23.439,1.775-1.556,4.408-1.437,6.618-1.639.244-.022.328-.392.064-.454a11.128,11.128,0,0,0-6.227.814,7.187,7.187,0,0,0-3.2,4.345c-1.2,3.963.024,9.038,1.206,13.141a54.95,54.95,0,0,0,2.579,7.538c.209.461,1.731.007,5.646-.6a.343.343,0,0,0,.243-.328C82.994,114.91,83.374,105.1,82.988,102Z" fill="#191919"></path><path d="M83.844,105.67a6.427,6.427,0,0,0,2.263.085,18.712,18.712,0,0,0,3.341-.381,3.788,3.788,0,0,0,1.924-.613.279.279,0,0,0-.074-.444,4.055,4.055,0,0,0-1.861.254c-3.479.7-4.575.289-5.6.687A.238.238,0,0,0,83.844,105.67Z" fill="#191919"></path><path d="M94.131,80.751c2.439-.637,4.086-.4,17.466-.6a2.579,2.579,0,0,1,1.86.38.262.262,0,0,0,.434-.253c-.361-1.213-1.983-.923-3.553-.9-13.949.21-14.489.116-16.365.951C93.718,80.442,93.9,80.812,94.131,80.751Z" fill="#37a1ff"></path><path d="M95.41,81.491c.789.154,1.323.043,4.219-.063,6.327-.232,3.677-.262,8.563-.317,3.084-.035,3.565.049,4.388-.064a.227.227,0,0,0,0-.454c-1.023-.141-6.223.112-8.68.084-1.491-.016-3.86.111-6.365.243a8.734,8.734,0,0,0-2.125.254C95.273,81.227,95.252,81.46,95.41,81.491Z" fill="#37a1ff"></path><path d="M193.32,48.464c-1.709-2.164-3.8-2.572-6.322-1.364-2.78,1.333-4.875,3.813-7.718,5-.328.138-.2.669.148.55,3.2-1.089,6.285-4.725,9.367-5.339,3.327-.662,6,3.861,5.191,6.735-.682,2.419-3.193,3.518-5.54,3.362-1.448-.1-2.706-.825-4.123-1.026a4.153,4.153,0,0,0-3.478.92c-.222.222,0,.668.317.55,1.413-.529,2.173-.929,4.007-.36a12.655,12.655,0,0,0,3.816.814,5.961,5.961,0,0,0,5.7-3.584C195.494,52.659,194.631,50.123,193.32,48.464Z" fill="#191919"></path><path d="M180.951,56.245a9.22,9.22,0,0,1,3.975-1.29c1.989-.092,2.792.641,3.985.423.655-.12,2.364-1.128,1.7-1.988a1.334,1.334,0,0,0-.8-.391c.571-.979.32-1.438-.4-1.649.372-.8-.451-1.717-1.617-1.554-1.55.216-3.566,1.734-5.424,2.738a17.035,17.035,0,0,1-3.034,1.258c-.19.085-.074.34.095.36,2.336.265,6.073-3.246,8.352-3.669.569-.106,1.287.206.931.74-.739-.074-2.243.154-2.21.941.04.952,1.544.56,2.4-.19l.275.063c.243.053.222.011.19.2a1.773,1.773,0,0,1-.4.729,3.129,3.129,0,0,0-1.554.518.33.33,0,0,0-.169.3c.114.936,1.322.582,2.03-.126.148.01.666.063.708.158.053.117-.475.508-.539.55-1.419.936-2.733-.785-6.132.074a5.55,5.55,0,0,0-2.706,1.385C180.383,56.058,180.664,56.369,180.951,56.245Z" fill="#191919"></path><path d="M178.117,52.893c-.3-1.573-1.9-1.709-2.389-.56a1.121,1.121,0,0,0-1.967.624c-.785-.432-1.673-.007-1.8,1.152a5.748,5.748,0,0,0,.656,2.781c.34.813.728,1.607,1.131,2.389a4.756,4.756,0,0,0,1.311,1.977,1.145,1.145,0,0,0,1.765-.729,1.447,1.447,0,0,0,1.787-1.4c-.039-.814-.813-1.449-1.173-2.136-.715-1.362-.416-1.927-.92-2.209a.2.2,0,0,0-.233.032c-.352.335-.143.9-.021,1.3.605,2,1.525,2.268,1.6,3.055a.68.68,0,0,1-1.014.656,10.533,10.533,0,0,0-1.089-2.294,13.358,13.358,0,0,0-.614-1.269.343.343,0,0,0-.634.169c-.073,1.24,1.3,2.539,1.491,3.552.061.329-.084.759-.5.529s-.7-1.077-.92-1.491c-.563-1.057-2-3.781-1.765-4.948.064-.316.263-.506.592-.37.232.1.392.444.518.656a.418.418,0,0,0,.761-.317c-.085-.307-.348-1.1.106-1.248.371-.124.718.592.835.825a.417.417,0,0,0,.772-.212c-.026-.3-.043-1.015.433-1,.4.01.483.624.518.909a7.3,7.3,0,0,0,2.389,5.064c.213.168.594-.043.413-.317C178.368,55.361,178.6,55.436,178.117,52.893Z" fill="#191919"></path><path d="M172.789,60.04a12.12,12.12,0,0,1-5.878,5.762,10.5,10.5,0,0,0,1.015-1.7.37.37,0,0,0-.582-.444,13.528,13.528,0,0,1-6.037,2.8c.709-.666,1.42-1.319,2.125-1.988.255-.242-.011-.763-.359-.624a16.677,16.677,0,0,1-5.551,1.184,40.091,40.091,0,0,1,4.969-3.446.355.355,0,0,0-.179-.656c-.8-.081-1.618-.137-2.432-.169a20.774,20.774,0,0,1,5.106-2.188.387.387,0,0,0,.1-.7c-.435-.22-.878-.444-1.311-.666a16.278,16.278,0,0,1,7.559-1.078.215.215,0,0,0,.053-.423,13.108,13.108,0,0,0-8.722,1.141.4.4,0,0,0,0,.677c.392.2.792.391,1.184.592a21.187,21.187,0,0,0-5.392,2.654.377.377,0,0,0,.19.7c.846,0,1.7.032,2.548.085a45.094,45.094,0,0,0-4.969,3.6c-.253.211-.032.615.254.623a16.694,16.694,0,0,0,5.17-.666c-.571.54-1.147,1.085-1.724,1.618a.376.376,0,0,0,.265.634,14.543,14.543,0,0,0,6.248-2.167,10.5,10.5,0,0,1-.952,1.173.377.377,0,0,0,.36.624,12.18,12.18,0,0,0,7.6-6.565C173.633,59.987,173.012,59.6,172.789,60.04Z" fill="#37a1ff"></path><path d="M167.143,62.324c1.923-.6,3.123-2.2,4.24-3.774.2-.285-.128-.617-.423-.55-.223.05-.444.106-.656.169a10.476,10.476,0,0,0-3.911.835c-.264.107-.37.587,0,.645.243.039.486.074.729.116a13.483,13.483,0,0,0-1.914,1.206c-.252.192-.2.657.18.644,1.912-.06,2.025-.5,1.417.106A.36.36,0,0,0,167.143,62.324Z" fill="#37a1ff"></path><path d="M57.583,53.824a16.084,16.084,0,0,0-1.353-4.377,1.86,1.86,0,0,0,1.385-1.575c.1-.9-.528-1.748-1.375-1.586-.114-.9-.7-1.736-1.586-1.565-.449-1.026-1.973-1.39-3.055-.011a1.406,1.406,0,0,0-1.258-.126,1.789,1.789,0,0,0-1.036,1.385,1.7,1.7,0,0,0-1.554,2.6,1.707,1.707,0,0,0,.486,2.834,1.3,1.3,0,0,0,1.015,1.945c.011,0,.011,0,.021.011a1.392,1.392,0,1,0,1.766,2.146c-.273.363.677,2.463,2.738,3.277a1.97,1.97,0,0,0,.328,1.375.289.289,0,0,0,.5-.3,2.143,2.143,0,0,1-.275-.91,2.566,2.566,0,0,0,2.907-1.036C58.017,56.756,57.792,55.146,57.583,53.824Zm-.6,3.034a2.051,2.051,0,0,1-2.844,1.322,6.129,6.129,0,0,1-2.727-2.644.207.207,0,0,0-.233-.095c.428-.327.347-.68.169-.729-.351-.1-.527.171-.782.349a.7.7,0,0,1-.93-.032c-.7-.624.043-1.605.845-1.48.128.02.233-.159.1-.233-.011-.01-.032-.01-.043-.021.385-.308.438-.837-.137-1.343a1.807,1.807,0,0,0,.021-1.533,1.716,1.716,0,0,0,.74-1.152,2.308,2.308,0,0,0,1.152-.592,1.677,1.677,0,0,0,1.385.169,1.377,1.377,0,0,0,1.893.529c.021.01.032.021.053.021a26.763,26.763,0,0,1,1.194,3.563A8.882,8.882,0,0,1,56.98,56.858Z" fill="#191919"></path><path d="M52.424,51.921a.476.476,0,0,0-.18.7.464.464,0,0,0,.856.031C53.328,52.085,52.759,51.585,52.424,51.921Z" fill="#191919"></path><path d="M55.151,51.3a.475.475,0,0,0-.179.7c.274.492,1,.4.888-.391C55.794,51.273,55.406,51.043,55.151,51.3Z" fill="#191919"></path><path d="M52.677,50.145a1.507,1.507,0,0,0-1.533.993c-.023.127.151.267.254.148a2.064,2.064,0,0,1,.5-.507,1.524,1.524,0,0,1,.719-.116C52.878,50.641,52.984,50.2,52.677,50.145Z" fill="#191919"></path><path d="M54.38,50.367c.512.034.49-.017.919.285.274.192.53-.212.339-.444a1.036,1.036,0,0,0-1.385-.137A.176.176,0,0,0,54.38,50.367Z" fill="#191919"></path><path d="M54.855,54.818a.65.65,0,0,0,.624-.677,2.992,2.992,0,0,0-.454-1.522,4.224,4.224,0,0,0-.941-1.385c-.127-.1-.252.063-.233.179.11.685.713,1.3.941,1.967a1.433,1.433,0,0,1,.127.549c-.081.665-.813-.043-1.385.212C53.286,54.252,53.665,54.908,54.855,54.818Z" fill="#191919"></path><path d="M55.247,55.663c-.306.15-.2.915-.645.793-.222-.06-.333-.323-.751-1.057-.073-.128-.3-.074-.285.074.047.582.38,1.538,1.1,1.544a.887.887,0,0,0,.74-.466C55.778,55.9,55.464,55.556,55.247,55.663Z" fill="#191919"></path><path d="M50.4,56.16a.169.169,0,0,0-.264.2A4.172,4.172,0,0,1,50.3,57.8a2.928,2.928,0,0,1-.243,1.385c-.206.42.392.676.56.328a3.584,3.584,0,0,0,.3-1.8A1.988,1.988,0,0,0,50.4,56.16Z" fill="#191919"></path><path d="M69.572,135.748c-.355-.868-3.353-12.921-5.307-19.95C57.791,92.513,54.676,90.7,53.893,84.3a.428.428,0,0,0-.623-.36c-.085.033-.17.074-.244.106-3.3-2.426-7.474-2.734-11.523-2.548a21.785,21.785,0,0,0-3.912.486.424.424,0,0,0-.624.243c-2.563,13.9-2.106,21.347-.825,28.662a8.8,8.8,0,0,1,.244,1.49c0,.318-.4.318-.508.064a7.6,7.6,0,0,1-.338-1.6,65.315,65.315,0,0,1-.92-8c-.012-.507-3.349-6.647-4.017-7.834a.452.452,0,0,0-.709-.254,57.1,57.1,0,0,0-5.423,2,.383.383,0,0,0-.222.433c1.476,7.219,3.008,17.947,8.542,23.481,3.713,3.713,8.075,3.822,11.376-1.406,2.551-4.04,3.921-10.311,4.271-14.812q.048-3.711.042-7.421a.376.376,0,0,1,.751,0c0,2.759-.095,5.487-.307,8.225.984,2.622,2.113,5.181,3.193,7.76,2.163,5.166,2.548,7.3,6.988,16.461,1.456,3,2.948,6,4.324,9.039a.418.418,0,0,0,.55.148c1.829-.78,3.664-1.562,5.434-2.484A.4.4,0,0,0,69.572,135.748Z" fill="#191919"></path><path d="M80.007,37.606a3.544,3.544,0,0,0-1.6-.106c-.224.078-.083-.023-.8,1.248a64.457,64.457,0,0,1-6.46,9.568c-5,6.056-15.208,14.761-22.17,11.122a3.4,3.4,0,0,0-1.3-.286c-2.686-.3-5.466.572-7.94,1.544-11.266,4.423-19.011,12.55-26.505,21.979-.5.625-.965,1.275-1.469,1.893-.052.064.042.158.1.095a34.709,34.709,0,0,1,3.415,3.277.071.071,0,0,0,.106,0c8.746-9.078,21.843-13.716,24.411-15.35.507-.286,1.172-.829,1.776-.73a.211.211,0,0,1,.127.307c-.288.485-1.109.689-1.6.951-.337.181-.666.36-1,.539a31.916,31.916,0,0,0-3.954,11.936.106.106,0,0,0,.138.106c6.1-1.669,9.316-1.475,14.6-.761a31.643,31.643,0,0,1,5.17,1.068c.377.147-.372-.7,3.393-8.1,4.248-8.345,4.6-6.135,13.311-16.862A54.9,54.9,0,0,0,82.808,38.156C82.773,37.942,82.913,38.032,80.007,37.606Z" fill="#37a1ff"></path><path d="M79.108,36.718c.721-1.478-.047-2.787.782-5.138a7.544,7.544,0,0,0,.614-1.554.262.262,0,0,0-.392-.222c-.66.464-1.146,2.273-1.258,3.076-.175,1.259.064,2.516-.021,3.764A.147.147,0,0,0,79.108,36.718Z" fill="#191919"></path><path d="M81.265,33.409a11.617,11.617,0,0,0,1.6-4.219,1.835,1.835,0,0,0,0-1.226.2.2,0,0,0-.317-.042c-.425.483-.029,1.224-1.617,5.339C80.845,33.473,81.152,33.58,81.265,33.409Z" fill="#191919"></path><path d="M83.147,32.859a16.492,16.492,0,0,0,1.808-4.652,1.976,1.976,0,0,0,.074-1.364.2.2,0,0,0-.318-.042c-.492.476-.1.869-1.807,5.952A.134.134,0,0,0,83.147,32.859Z" fill="#191919"></path><path d="M86.255,28.313c-.531,1.223-.9,2.4-1.639,3.869a1.649,1.649,0,0,0-.328,1.089.22.22,0,0,0,.318.127c.4-.181.541-.654.719-1.025a18.546,18.546,0,0,0,1.416-3.859C86.8,28.238,86.383,28.017,86.255,28.313Z" fill="#191919"></path><path d="M87.111,30.882c-1.217,3.883-2.766,4.073-4.292,6.259-.17.243.183.459.381.3a15.037,15.037,0,0,0,1.469-1.607c1.2-1.332,2.476-2.591,2.738-4.906C87.428,30.744,87.161,30.722,87.111,30.882Z" fill="#191919"></path><path d="M14.205,87.909c-.481.5-.547,1.023-1.586,1.765a4.974,4.974,0,0,1-2.262.9c-.433.054-.433.735,0,.687,2.231-.247,4.041-1.947,4.218-3.129C14.607,87.919,14.375,87.73,14.205,87.909Z" fill="#191919"></path><path d="M10.674,89.188a6.2,6.2,0,0,1-3.5-.93c-1.534-.884-1.2-1.883-1.872-2.411-.222-.173-.661.315.212,1.755a3.6,3.6,0,0,0,1.406,1.279c1.151.637,2.59,1.237,3.869.635C10.928,89.442,10.843,89.178,10.674,89.188Z" fill="#191919"></path><path d="M9.3,87.105c-.888.065-1.544-.793-2.062-1.406-.785-.929-.72-1.629-1.1-2.04a.185.185,0,0,0-.306.084A3.6,3.6,0,0,0,7.016,86.3c.625.675,1.349,1.484,2.347,1.226C9.587,87.47,9.543,87.087,9.3,87.105Z" fill="#191919"></path><path d="M9.162,85.509a4.737,4.737,0,0,1-1.057-1.523c-.215-.484-.187-1.144-.476-1.564a.192.192,0,0,0-.328,0c-.278.526.073,1.322.307,1.818a4.119,4.119,0,0,0,1.343,1.554C9.108,85.912,9.309,85.647,9.162,85.509Z" fill="#191919"></path><path d="M8.644,82.041a3.943,3.943,0,0,0,.708,1.649c1.132,1.523,1.663,1.01,1.481.719-.422-.671-1.058-.7-1.8-2.463A.2.2,0,0,0,8.644,82.041Z" fill="#191919"></path><path d="M79.235,140.146c-1.1-1.573-4.157-1.6-6.069-1.385a19.7,19.7,0,0,0-4,.719c-1.078.361-2.03,1.359-3.2,1.353a.386.386,0,0,0,0,.772c1.439.011,2.33-1.171,4.038-1.565,2.168-.5,5.922-1.113,7.887-.042.233.127.9.5.761.835-.116.286-.773.5-1.036.624-3.509,1.6-6.344,3.009-10.339,3.817a7.856,7.856,0,0,1-1.607-3.711.222.222,0,0,0-.434.063,6.183,6.183,0,0,0,1.544,4.155c.348.392.855.155,1.321.053a49.6,49.6,0,0,0,10.033-3.8C78.9,141.677,79.88,141.066,79.235,140.146Z" fill="#191919"></path><path d="M28.076,90.319c-.829-1.9-1.01-1.586-2.125-1.438a34.141,34.141,0,0,0-6.967,1.861c-1.112.4-2.243.791-3.331,1.248-.751.315-1.7.864-1.11,1.786a3.974,3.974,0,0,0,2.3,1.449,19.32,19.32,0,0,0,7.527-.053c1.174-.263,2.242-1.263,3.468-1.163.5.04.5-.737,0-.772-1.5-.1-2.337,1.042-4.377,1.311-2.162.285-5.586.625-7.5-.486-.233-.136-1-.613-.793-.973.16-.274.878-.465,1.153-.571a44.687,44.687,0,0,1,10.5-3.034,8.061,8.061,0,0,1,1.342,3.838.221.221,0,0,0,.423,0A5.255,5.255,0,0,0,28.076,90.319Z" fill="#191919"></path><path d="M70.735,33.3c-10.118-10.751-9.661-9.932-9.97-9.843a.508.508,0,0,0-.285.222.332.332,0,0,0-.254.191c-1.11,2.774-3.153,11.292-3.859,14.41a.375.375,0,0,0,.338.454c.339,0,4.23-1.871,13.85-4.8A.387.387,0,0,0,70.735,33.3Zm-13.511,4.5c1.723-7.773,3.186-12.059,3.5-13.469,2.389,2.4,9.007,9.071,9.007,9.071C65.6,34.677,61.389,36.158,57.224,37.807Z" fill="#191919"></path><path d="M93.032,18.629a.326.326,0,0,0-.391-.317.255.255,0,0,0-.233,0,80.782,80.782,0,0,0-7.274,4.313.3.3,0,0,0,.032.529c5.6,2.406,7.278,3.52,7.58,3.52a.3.3,0,0,0,.312-.317C93.058,21.883,93.032,22.211,93.032,18.629Zm-7.1,4.186c3.543-2.314,5.615-3.371,6.428-3.869.021,1.861.053,6.882.053,6.882C90.336,24.771,88.158,23.756,85.927,22.815Z" fill="#37a1ff"></path><path d="M87.82,62.789c-6.814-4.917-6.45-4.526-6.682-4.43a.328.328,0,0,0-.169.169.284.284,0,0,0-.138.191c-.158.7-.355,3.5-.4,4.218-.284,4.354-.241,4.394-.043,4.5a.255.255,0,0,0,.286-.011c6.471-4.112,7.284-3.9,7.284-4.366A.347.347,0,0,0,87.82,62.789Zm-6.978,3.827c.171-5.015.449-6.442.507-7.485,1.533,1.047,5.678,3.891,5.678,3.891C84.955,64.111,82.882,65.326,80.842,66.616Z" fill="#37a1ff"></path><path d="M126.239,46.592a.41.41,0,0,0-.349.011.255.255,0,0,0-.285-.021c-2.762,1.575-9.241,6.4-12.137,8.658a.34.34,0,0,0-.116.328c.08.484,1.549.238,13.818,5.265a.34.34,0,0,0,.465-.338C126.336,45.719,126.477,46.706,126.239,46.592ZM114.3,55.367c7.606-5.9,9.62-6.895,11.429-8.288.327,3.414,1.194,12.908,1.194,12.908C122.867,58.317,118.617,56.763,114.3,55.367Z" fill="#191919"></path><path d="M146.57,50.1c-.107-1.11-1.2-2.9-2.548-2.336a.26.26,0,0,0,0,.5,2.3,2.3,0,0,1,1.427.867,2.514,2.514,0,0,1-1.808,3.806,2.265,2.265,0,0,1-2.368-1.628,2.359,2.359,0,0,1,1.448-2.58.22.22,0,0,0-.116-.423,2.67,2.67,0,0,0-.7,4.958A3.144,3.144,0,0,0,146.57,50.1Z" fill="#191919"></path><path d="M133.862,68.794c5.933-1.468,6.178-1.407,7.7-1.924.222-.075.212-.467-.063-.444-4.672.4-30.568,7.847-34.931,9.473a.187.187,0,0,0,.106.359C112.749,74.75,120.967,71.984,133.862,68.794Z" fill="#191919"></path><path d="M142,67.124c-.085-.243-.5-.233-.486.063a7.766,7.766,0,0,0,.36,1.84c.135.455.19,1.066.676,1.247a.206.206,0,0,0,.233-.095c.236-.421-.108-.909-.243-1.332C142.359,68.277,142.2,67.695,142,67.124Z" fill="#191919"></path><path d="M142.394,70.856a45.418,45.418,0,0,1-5.265,2.294c-5.048,2.127-12.4,5.863-18.956,8.532a26.186,26.186,0,0,0-3.056,1.279.307.307,0,0,0,.233.56c2.721-.544,16.729-7.338,21.387-9.409a28.975,28.975,0,0,0,5.815-2.95C142.753,71.035,142.594,70.739,142.394,70.856Z" fill="#191919"></path><path d="M149.847,68.149c-.738-.016-.865.74-3.1.867-1.068.061-2.342-.267-3.3.307-.179.107-.117.432.116.412,1.733-.152,3.559.313,5.4-.433.414-.168.994-.4,1.089-.889A.228.228,0,0,0,149.847,68.149Z" fill="#191919"></path><path d="M147.426,64.988c3.123-1.026,3.66-.667,4.514-1.184a.267.267,0,0,0-.063-.486,5.421,5.421,0,0,0-2.241.306c-1.9.449-5.223,1.459-6.851,2.77-.158.128.011.382.19.328C143.9,66.445,145.332,65.676,147.426,64.988Z" fill="#191919"></path><path d="M147.669,65.908c-.212.114-.063.476.169.391,4.539-1.653,4.6-1.225,5.128-1.744a.174.174,0,0,0-.074-.286,2.1,2.1,0,0,0-1.29.116A17.156,17.156,0,0,0,147.669,65.908Z" fill="#191919"></path><path d="M153.283,65.411a1.406,1.406,0,0,0-.962-.011,15.766,15.766,0,0,0-4.007,1.3c-.212.1-.063.425.159.37,1.311-.326,2.155-.631,3.827-.994a1.84,1.84,0,0,0,1.015-.37A.19.19,0,0,0,153.283,65.411Z" fill="#191919"></path><path d="M145.555,64.65c.837-.146.872-.4,3.4-1.406a2.407,2.407,0,0,0,.951-.518.183.183,0,0,0-.126-.307,4.946,4.946,0,0,0-2.21.8,7.469,7.469,0,0,0-2.146,1.216A.13.13,0,0,0,145.555,64.65Z" fill="#191919"></path><path d="M114.99,95.6c-.693.885-3.106,1.237-4.239,1.237-.983,0-2.073-.414-3.024-.053-1.343.509-.327.448-5.624,1.385-1.638.289-3.751.634-7.475,1.142.095,2.452.222,4.907.434,7.347a.448.448,0,0,0,.433.434c6.069-.27,12.141-.7,18.174-1.364.455-.05,1.107.009,1.311-.508C115.2,104.666,115.01,96.348,114.99,95.6Z" fill="#37a1ff"></path><path d="M104.291,88.987c6.128.566,7.16-1.321,8.31-1.173a.985.985,0,0,1,.782.613,1.167,1.167,0,0,1,1.311-.1q-.158-3.346-.317-6.693a.432.432,0,0,0-.423-.423c-5.028.441-14.728.649-18.427,1.121a.378.378,0,0,0-.7.18c-.175,1.524-.243,3.066-.275,4.6A54.33,54.33,0,0,0,104.291,88.987Z" fill="#37a1ff"></path><path d="M92.81,99.517c-.233.011-.465.011-.687,0,0,.116.079,4.335.095,4.821a6.79,6.79,0,0,0,.116,1.533c.072.265.508.3.56,0C93.1,104.723,92.81,105.04,92.81,99.517Z" fill="#37a1ff"></path><path d="M93.233,86.756c.052-.666.1-1.342.158-2.008a12.409,12.409,0,0,0,.18-2.971c-.041-.254-.381-.191-.455,0a6.09,6.09,0,0,0-.243,1.512c-.053.486-.243,2.664-.285,3.266C92.8,86.629,93.011,86.693,93.233,86.756Z" fill="#37a1ff"></path><path d="M103.636,72.061c-.148.053-.434-.127-.55-.19-.349-.191-.655.347-.307.528.71.368,1.762.37,1.745-.676a3.455,3.455,0,0,0-.444-1.354,6.223,6.223,0,0,0-.973-1.575c-.128-.136-.4,0-.328.19C103.24,70.178,104.382,71.793,103.636,72.061Z" fill="#191919"></path><path d="M101.341,69.323a.887.887,0,0,0,.244,1.078.334.334,0,0,0,.486-.2c.01-.01.01-.021.021-.032C102.4,69.473,101.569,68.869,101.341,69.323Z" fill="#191919"></path><path d="M103.974,69.28a.427.427,0,0,0,.264.392.657.657,0,0,0,.265.179c.334.105.545-.419.338-.761A.459.459,0,0,0,103.974,69.28Z" fill="#191919"></path><path d="M100.612,68.53a.139.139,0,0,0,.254.105c.361-.584,1.107-.4,1.047-.856C101.785,67.268,100.8,67.6,100.612,68.53Z" fill="#191919"></path><path d="M104.386,67.589a1.317,1.317,0,0,0-1.163-.275.211.211,0,0,0,0,.4c.149.061.308.072.466.127s.3.126.444.19C104.365,68.117,104.579,67.745,104.386,67.589Z" fill="#191919"></path><path d="M102.2,72.981c.179.4.38.828.846.951.327.087.832-.011.919-.391a.237.237,0,0,0-.338-.264c-.191.115-.326.25-.56.148a1.632,1.632,0,0,1-.592-.614A.162.162,0,0,0,102.2,72.981Z" fill="#191919"></path><path d="M97.842,69.682c.181.136.423-.126.307-.307a2.584,2.584,0,0,1-.666-1.459,1,1,0,0,1,.3-.655c.16-.146.316-.17.433-.349a.207.207,0,0,0-.074-.285c-.6-.337-1.156.572-1.237,1.067A2.181,2.181,0,0,0,97.842,69.682Z" fill="#191919"></path><path d="M98.17,65.739c.158.127.455-.043.317-.243a.935.935,0,0,1-.095-1.058c.257-.368.615-.251.941-.465a1.825,1.825,0,0,0,.518-.75,2.129,2.129,0,0,0,.328-.973.275.275,0,0,0-.466-.191c-.324.384-.347,1.027-.729,1.343-.3.244-.687.222-.973.561A1.248,1.248,0,0,0,98.17,65.739Z" fill="#191919"></path><path d="M102.832,62.451a.3.3,0,0,0-.179-.434c-.305-.042-.374.188-.783.878-.125.212-.253.421-.529.4a.191.191,0,0,0-.137.317C101.935,64.235,102.587,62.947,102.832,62.451Z" fill="#191919"></path><path d="M99.565,66.743c-.215.345.064.959-.465,2.146a.2.2,0,0,0,.349.2c.759-1.26.408-1.4.592-1.977a1.335,1.335,0,0,0,1.29-1.247c.708-.1,1.511-.741,1.469-1.459a.2.2,0,0,0-.285-.17c-.6.292-.654,1.1-1.491,1.005-.221-.025-.326.222-.3.391a.786.786,0,0,1-.539.856C99.923,66.58,99.732,66.477,99.565,66.743Z" fill="#191919"></path><path d="M102.716,66.267a2.389,2.389,0,0,0,1.5-1.522,1.889,1.889,0,0,0,1.946-1.1.226.226,0,0,0-.275-.274c-.547.079-.94.9-1.808.687a.328.328,0,0,0-.4.232,2.706,2.706,0,0,1-1.11,1.618C102.4,66.027,102.484,66.344,102.716,66.267Z" fill="#191919"></path><path d="M105.814,65.157a2.639,2.639,0,0,1-1.407.634.223.223,0,0,0,0,.445,2.721,2.721,0,0,0,1.766-.508c1.154-.862.862-1.525.508-1.448C106.279,64.367,106.1,64.913,105.814,65.157Z" fill="#191919"></path><path d="M106.215,66.732a2.089,2.089,0,0,0,1.459-.644c1.028-1.057.826-1.88.5-1.671-.628.4-.808,1.631-2.03,1.8C105.845,66.255,105.93,66.74,106.215,66.732Z" fill="#191919"></path><path d="M101.891,75.677c1.269.824,2.939,1.025,3.923-.159.834-1,.73-2.5.623-3.721a13.387,13.387,0,0,0-1.057-4.747c-.084-.17-.315-.043-.285.126.313,1.785,1.353,6.436.179,7.824-.052-.138-.116-.264-.158-.4a.316.316,0,0,0-.391-.19.286.286,0,0,0-.328.032.263.263,0,0,0-.349.053.33.33,0,0,0-.317.095.238.238,0,0,0-.412.211,2.172,2.172,0,0,0,.306.761,3.442,3.442,0,0,1-2.083-1.237,12.486,12.486,0,0,1-.835-1.374.269.269,0,0,0-.053-.063c.182-.365-.056-.63-.3-.55-.276.091-.486.32-.793.338a1.007,1.007,0,0,1-.7-1.67c.274-.318.635-.229,1-.286a.2.2,0,0,0,.116-.3c-.337-.561-1.162-.369-1.575,0a1.7,1.7,0,0,0,1.713,2.876,3.5,3.5,0,0,0,1.289,2.03,4.157,4.157,0,0,1-.877,1.907c-.163-.126-.263-.253-.211-.353.071-.139-.084-.359-.233-.243-.958.745,1.269,1.743,1.787,1.839a4.493,4.493,0,0,0,2.009-.106,4.593,4.593,0,0,0,2.125-.972.258.258,0,0,0-.18-.434,4.265,4.265,0,0,0-1.406.508,3.946,3.946,0,0,1-3.374.079A2.29,2.29,0,0,0,101.891,75.677Z" fill="#191919"></path><path d="M107.865,95.183c-2.23.425-3.471,1.37-8.7,1.818a30.16,30.16,0,0,1-10.023-.613,10.2,10.2,0,0,1-3.214-1.755c-4.609-3.339-3.382-9.3.9-12.814,3.4-2.793,7.783-3.568,11.872-4.863a.188.188,0,0,0-.1-.36c-3.954.8-8.117,1.759-11.45,4.145-2.884,2.064-5.058,5.265-4.8,8.944.188,2.672,1.4,4.943,5.55,6.967,2.307,1.125,7.132,1.274,9.695,1.152a37.887,37.887,0,0,0,5.826-.719,11.146,11.146,0,0,0,4.62-1.607C108.182,95.341,108.013,95.154,107.865,95.183Z" fill="#191919"></path><path d="M108.108,90.383a.262.262,0,0,0-.254-.254c-.624-.045-1.269-.1-1.9-.148-7.23-.533-12.59-2.633-13.765-2.675a.274.274,0,0,0-.137.507c1.145.7,11.371,3.18,15.551,2.834A20.064,20.064,0,0,0,107.907,95a.19.19,0,0,0,.37-.053A45.176,45.176,0,0,1,108.108,90.383Z" fill="#191919"></path><path d="M94.184,87.052c.032-1.448.085-2.9.085-4.334a.143.143,0,0,0-.286,0c-.109,1.387-.232,2.78-.306,4.186C93.846,86.947,94.015,87,94.184,87.052Z" fill="#37a1ff"></path><path d="M94.311,103.334c-.037-.983-.106-3.606-.106-3.933-.211.021-.433.053-.645.063.234,6.789.218,6.329.339,6.65a.238.238,0,0,0,.454,0C94.476,105.649,94.4,105.554,94.311,103.334Z" fill="#37a1ff"></path><path d="M109.091,90.4a3.268,3.268,0,0,0,1.945-.37c.507-.2,1.226-.42,1.406-.984a.158.158,0,0,0-.148-.2c-.57-.058-1.153.463-1.67.655a5.938,5.938,0,0,0-1.607.571A.19.19,0,0,0,109.091,90.4Z" fill="#191919"></path><path d="M110.021,91.768c2.3.268,4.14-1.233,4.229-2.421.023-.307-.393-.362-.539-.149a8.25,8.25,0,0,1-.539.878c-.856.986-2.171,1.1-3.182,1.343A.176.176,0,0,0,110.021,91.768Z" fill="#191919"></path><path d="M111.11,93.1a4.359,4.359,0,0,0,2.59-.73c.457-.272,1.449-.9,1.153-1.533a.178.178,0,0,0-.169-.095c-.275.021-.348.149-.518.349a5.919,5.919,0,0,1-3.109,1.607C110.8,92.753,110.888,93.077,111.11,93.1Z" fill="#191919"></path><path d="M111.406,94.442a3.36,3.36,0,0,0,2.03-.275c.507-.214,1.319-.5,1.544-1.046.052-.127-.074-.234-.18-.243-.5-.046-.993.435-1.427.655a4.891,4.891,0,0,1-1.914.529C111.248,94.074,111.174,94.4,111.406,94.442Z" fill="#191919"></path><path d="M109.429,95.669a5.907,5.907,0,0,0,2.39.222c.6-.063,1.549-.144,1.9-.687a.217.217,0,0,0-.127-.318c-.671-.156-1.337.65-4.1.328C109.218,95.182,109.186,95.594,109.429,95.669Z" fill="#191919"></path><path d="M119.505,86.894a5.763,5.763,0,0,0-3.6,1.638c-.129.158-.011.436.211.37a10.571,10.571,0,0,0,1.364-.623,4.628,4.628,0,0,1,4.884.2c3.522,2.643,2,9.032.814,13.373-1.683,6.166-4.028,10.715-5.582,14.537-.485-.484-3.679-.306-4.366-.253-.021-1.185-.013-2.369.042-3.542.138-2.927.31-3.126.127-3.859a.27.27,0,0,0-.486-.063c-.593,1.154-.581,6.623-.529,7.918a.428.428,0,0,0,.423.423c.8-.079,1.6-.127,2.4-.127a8.046,8.046,0,0,0,2.273-.01.192.192,0,0,0,.084-.043.338.338,0,0,0,.529-.031,71.059,71.059,0,0,0,3.351-7.422c1.782-4.347,4-10.9,3.976-15.615C125.393,88.908,122.369,86.559,119.505,86.894Z" fill="#191919"></path><path d="M117.961,125.609c-7.659,5.9-32.667,25.519-36.411,27.488-3.719,1.956-7.294.735-11.915-.254-43.319-9.266-41.8-8.684-42.838-9.356a1.817,1.817,0,0,1-.825-2.284.275.275,0,0,0-.476-.275c-.792,1.4.31,2.859,1.586,3.426.815.362-1.961-.214,44.287,9.695a27.679,27.679,0,0,0,6.153.919c4.131-.065,6.978-2.8,11.63-6.227,4.6-3.39,9.124-6.871,13.627-10.392,5.541-4.333,11.249-8.469,16.7-12.909C118.8,125.538,118.526,125.547,117.961,125.609Z" fill="#191919"></path><path d="M193.722,98.206c-.7,2.794-2.913,13.2-3.468,15.584a130.067,130.067,0,0,1-3.626,12.887c-.254.848-.385.9-1.332.8-.117-.012-8.91-.534-13.406-.518a.24.24,0,0,0-.01.475c5.139.469,13.832.783,13.934.783a1.286,1.286,0,0,0,1.205-.561,5.5,5.5,0,0,0,.592-1.564c.218-.839.627-2.04.909-2.971,2.627-8.669,3.616-15.053,5.942-24.834C194.6,97.871,193.838,97.74,193.722,98.206Z" fill="#191919"></path><path d="M185.38,116.168a.268.268,0,0,0,.508.148c.847-2.57,1.054-4.182,3.5-15.361a.413.413,0,0,0-.338-.465c-19.984-2.146-18.961-2.035-20.362-2.041a.294.294,0,0,0-.074.582c1.455.263-.053.061,19.918,2.209C186.205,111.681,185.74,113.242,185.38,116.168Z" fill="#191919"></path><path d="M132.043,110.142h0a.335.335,0,0,0,.043-.465c-1.731-2.078-4.379-4.3-5.117-6.565-.725-2.226.944-4.371,2.992-5.361a5.484,5.484,0,0,1,3.055-.644c2.443.361,3.88,2.674,4.017,4.99a33.453,33.453,0,0,1-.486,4.1,4.241,4.241,0,0,0,1.311,3.52.329.329,0,0,0,.518-.391,9.216,9.216,0,0,1-.814-1.776c-.507-1.9.671-3.482.275-6.164a5.9,5.9,0,0,0-4.419-5.1,6.884,6.884,0,0,0-6.048,2.379c-1.9,2.113-1.784,4.239-.222,6.492a45.993,45.993,0,0,0,4.409,4.947A.348.348,0,0,0,132.043,110.142Z" fill="#37a1ff"></path><path d="M136.219,113.1a6.415,6.415,0,0,0,2.908-2.421.263.263,0,0,0-.413-.317,16.084,16.084,0,0,1-2.167,1.66A3.709,3.709,0,0,0,136.219,113.1Z" fill="#37a1ff"></path><path d="M141.78,113.367a.761.761,0,0,0-.2-.032,1.358,1.358,0,0,0-1.829-1.512c-.729.264-1.217,1.034-1.86,1.459a7.975,7.975,0,0,1-1.671.793,3.29,3.29,0,0,0,.17.677,5.736,5.736,0,0,0,2.262-1.089,10.807,10.807,0,0,1,1.226-1.068.686.686,0,0,1,1.015.835,12.131,12.131,0,0,0-2.23,1.438,11.01,11.01,0,0,0-1.111.729.342.342,0,0,0,.244.582c.994-.073,1.818-.962,2.611-1.5.233-.159,1.488-.931,1.4-.117-.055.476-1.015.931-1.364,1.174-.75.52-1.5,1.025-2.294,1.48-.024.419-.5.7-.328,1.152a31.724,31.724,0,0,0,2.96-1.839c.613-.423,1.49-.846,1.787-1.576A1.139,1.139,0,0,0,141.78,113.367Z" fill="#37a1ff"></path><path d="M133.259,101.135a1.651,1.651,0,0,1,.656.5c.742.9.228,2.157.243,3.214.025,1.83.72,4.238,2.294,5.329.243.169.521-.16.391-.391a9.384,9.384,0,0,1-1.776-3.7c-.388-2.019.264-3.026-.106-4.144-.21-.635-1.514-2.254-2.23-1.353a1.333,1.333,0,0,0-.233.782,1.834,1.834,0,0,0-.941-.2c-.412.037-.592.4-.655.825-.872-.249-1.733.725-1.269,2.009.549,1.52,2.076,3.136,3.383,4.916.063.085.739-.127.243-.793a24.858,24.858,0,0,1-2.96-4.293c-.148-.391-.212-1.215.423-1.152.215.043.139-.016.19.4.063.519.456,1.886,1.216,1.681.879-.238.307-1.66-.56-2.379a.873.873,0,0,1,.074-.391c.091-.171.012-.153.243-.053a5.468,5.468,0,0,1,.666.307,3.323,3.323,0,0,0,.729,1.49.335.335,0,0,0,.339.085c.76-.2.381-1.09.052-1.5a4.066,4.066,0,0,0-.475-.487A1.943,1.943,0,0,1,133.259,101.135Z" fill="#37a1ff"></path><path d="M131.673,110.924c-2.448,4.593-1.726,6.44.233,8.744,2.108,2.479,1.956,3.022,2.971,6.11.881,2.684,2.689,6.568,5.191,7.93,2.1,1.143,4.429.341,4.958-.931.1-.232-.126-.57-.359-.391a4.347,4.347,0,0,1-1.956,1.068c-2.834.46-4.767-2.5-6.026-5.054-1.45-2.932-1.686-5.957-3.458-8.225a27.861,27.861,0,0,1-1.755-2.188c-1.374-2.178-.409-4.725.5-6.872C132.06,110.9,131.791,110.7,131.673,110.924Z" fill="#191919"></path><path d="M152.5,104.243c.232-.025.464-.079.7-.127a2.37,2.37,0,0,0,.688-.159.279.279,0,0,0-.064-.507,2.617,2.617,0,0,0-1.448.285C152.151,103.871,152.236,104.271,152.5,104.243Z" fill="#191919"></path><path d="M151.708,106.03a2.739,2.739,0,0,0-.508-.371,2.646,2.646,0,0,0,.444-1.839c-.009-.212-.338-.212-.327,0a2.648,2.648,0,0,1-.656,1.776.194.194,0,0,0,0,.211,1.633,1.633,0,0,0,.825.614A.233.233,0,0,0,151.708,106.03Z" fill="#191919"></path><path d="M153.6,106.622a.293.293,0,0,0-.539-.148c-.7,1.036-1.423.7-2.019.782a.169.169,0,0,0-.117.285,1.645,1.645,0,0,0,2.147-.222,2.736,2.736,0,0,1-.5,1.618c-.5.549-.689-.105-.825-.465a.984.984,0,0,0-.412-.571c-.28-.177-.455.652.116,1.491C152.118,110.367,154,109.8,153.6,106.622Z" fill="#191919"></path><path d="M151.412,113.113c-2.312-.3-4.619,1.481-6.026,3.161a22.378,22.378,0,0,0-3.542,7.094.244.244,0,0,0,.444.19c.793-1.322,1.9-6.507,5.91-8.954a11.683,11.683,0,0,1,3.235-1.195A.15.15,0,0,0,151.412,113.113Z" fill="#191919"></path><path d="M148.166,119.086c-4.036,3.806-1.749,6.335-1.152,8.712.548,2.185.022,2.757.19,3.721a.284.284,0,0,0,.518.064,3.185,3.185,0,0,0,.285-1.491c.086-2.086-.555-3.249-1.131-4.9-.936-2.676.114-3.706,1.639-5.846C148.665,119.14,148.346,118.917,148.166,119.086Z" fill="#191919"></path><path d="M147.976,178.587c-.055-1.089-.168-2.178-.286-3.267a6.18,6.18,0,0,0-.571-2.675c-.761-1.173-3.15-1.564-3.816-.148-1.4,2.1,1.171,6.844,2.844,8.733.412.465,1.166.773,1.543.084A5.621,5.621,0,0,0,147.976,178.587Z" fill="#191919"></path><path d="M129.865,172.064c-.835-.854-2.146-.529-3.531-.909a39.53,39.53,0,0,0-4.821-1.1,11.073,11.073,0,0,0-2.611-.032c-.434.051-.989.056-1.269.444-.291.405.011.783.307,1.068a10.637,10.637,0,0,0,2.96,1.935c4.3,2.012,5.673,2.753,7.084,2.992,1.141.193,1.76-.53,2.093-1.533C130.379,174.018,130.624,172.838,129.865,172.064Z" fill="#191919"></path><path d="M143.334,127.745c-.364-2.916-2.764-5.369-5.053-7.2-.5-.4-1.412-1.06-1.565-1.913a1.766,1.766,0,0,0-.158-.677.206.206,0,0,0-.318-.042c-.69.62.2,1.871.677,2.347,1.192,1.192,4.646,3.159,6.164,7.559C143.123,128,143.357,127.924,143.334,127.745Z" fill="#191919"></path><path d="M132.223,115.027a8.023,8.023,0,0,1,.846-3.849c.149-.274.37-.476.264-.8a.187.187,0,0,0-.148-.117c-.391.043-.485.371-.645.709a6.317,6.317,0,0,0-.6,4.091A.144.144,0,0,0,132.223,115.027Z" fill="#191919"></path><path d="M133.777,115.069c.941-2.606,2-2.988,2.157-3.711a.19.19,0,0,0-.233-.233c-.666.159-1.146,1.034-1.469,1.586a6.765,6.765,0,0,0-.825,2.263A.191.191,0,0,0,133.777,115.069Z" fill="#191919"></path><path d="M168.148,129.331c-2.015-.94-4.451-.36-6.534.2a11.589,11.589,0,0,0-.856-4.705c-.074-.191-.423-.19-.392.053a33.319,33.319,0,0,1,.582,3.8c-.565-.08-1.414,2.552-1.544,3.193a12.783,12.783,0,0,0-.158,1.269,13.468,13.468,0,0,0-.18,1.966.319.319,0,0,0,.624.085,28.394,28.394,0,0,0,.38-3.14,9.9,9.9,0,0,1,.846-2.326c-.01.095-.011.18-.021.275a.354.354,0,0,0,.444.338c2.563-.673,4.146-1.053,6.534-.349C168.254,130.1,168.529,129.509,168.148,129.331Z" fill="#191919"></path><path d="M167.238,130.335c-1.049,4.353,2.857,8.458,4.124,12.93.946,3.341,1.039,5.853,3.277,8.542a7.761,7.761,0,0,1,1.639,2.527,13.8,13.8,0,0,1,.264,5.138.181.181,0,0,0,.307.127c.787-.751.623-3.078.465-4.155-.421-2.851-1.65-3.338-2.77-5.022-1.717-2.579-1.781-6-3.013-9.049-1.661-4.112-3.964-6.274-3.891-11A.207.207,0,0,0,167.238,130.335Z" fill="#191919"></path><path d="M161.582,130.388c-.855,2.986,1.588,7.988,3,10.625,3.241,6.042,4.547,7.093,5.191,8.764.809,2.1-.314,6.193.549,8.257a.307.307,0,0,0,.592-.158c-.466-2.459.122-5.462-.179-7.358a7.116,7.116,0,0,0-1.174-2.675c-3.213-4.993-7.771-11.8-7.527-17.413C162.048,130.177,161.655,130.134,161.582,130.388Z" fill="#191919"></path><path d="M172.345,154.947a10.067,10.067,0,0,1-.085,4.377,3.782,3.782,0,0,0-.243,1.353.165.165,0,0,0,.275.117c.706-.594.769-1.925.835-2.791a9,9,0,0,0-.338-3.172A.23.23,0,0,0,172.345,154.947Z" fill="#191919"></path><path d="M174.121,155.687a8.474,8.474,0,0,1-.042,4.028,3.758,3.758,0,0,0-.244,1.121.2.2,0,0,0,.328.137,3.944,3.944,0,0,0,.793-2.526,6.52,6.52,0,0,0-.412-2.865A.218.218,0,0,0,174.121,155.687Z" fill="#191919"></path><path d="M175.368,155.423a13.883,13.883,0,0,1,.064,3.129c-.118.73-.558,1.649-.2,2.358a.159.159,0,0,0,.275,0,5.644,5.644,0,0,0,.306-1.29,7.724,7.724,0,0,0-.074-4.25A.19.19,0,0,0,175.368,155.423Z" fill="#191919"></path><path d="M142.51,124.7c.31.4,1.068.444,1.522.613.508.19,1.111.648,1.671.614a.2.2,0,0,0,.169-.307c-.264-.529-1.056-.753-1.575-.941-.475-.172-1.28-.518-1.766-.233A.172.172,0,0,0,142.51,124.7Z" fill="#191919"></path><path d="M143.535,141.447a6.14,6.14,0,0,0-2.685-3.236,4.035,4.035,0,0,0-4.588.37c-1.4,1.333-1.572,3.32-1.6,5.139a51.278,51.278,0,0,0,.36,5.92c0,.146.571,2.911.814,3.9a96.874,96.874,0,0,0,5.444,16.842,11.273,11.273,0,0,1,5.234-1.227C146.5,162.311,145.486,147.217,143.535,141.447Z" fill="#37a1ff"></path><path d="M160.906,132.27a18.379,18.379,0,0,0-14.22-4.335l-.349.106c-.55,1.163-1.1,2.336-1.649,3.5a20.246,20.246,0,0,1,8.785,3.14c.336.216.747.42.909.793.056.126-.01.308-.169.3-.79-.057-1.294-1.069-4.8-2.421-3.47-1.338-5.422-1.183-5.487-1.575-4.443-.184-5.79-.318-7.295-.127-4.408.561-8.067,3.965-9.981,7.972s-2.334,8.553-2.452,13a106.773,106.773,0,0,0,.835,16.419l.254.222a21.219,21.219,0,0,1,5.487-.306c.063-6.83,1.913-12.5,3.795-19.982a16.737,16.737,0,0,1-.38-3.151c-.16-3.067-.313-6.788,2.378-8.362a4.972,4.972,0,0,1,4.885.254c2.4,1.543,3.169,3.95,3.446,6.808a17.628,17.628,0,0,0,9.706.159C160.08,142.671,160.99,136.086,160.906,132.27Z" fill="#37a1ff"></path><path d="M168.856,126.275c-.405-5.066-1.951-9.81-6.428-12.221a43.121,43.121,0,0,0-1.036-8.965c-.525-2.348-1.1-5.149-2.812-6.968A2.173,2.173,0,0,0,159.394,96a3.048,3.048,0,0,0-5.138-1.48,2.044,2.044,0,0,0-.666,2.115,5.423,5.423,0,0,0-4.43,4.186c-.165.877-.032.767.412,1.4-1.009,1.5-2.18,8.871-2.061,10.34a.222.222,0,0,0,.433.063c.336-1.264.213-1.953.92-5.688.146-.772.306-1.543.486-2.3a14.144,14.144,0,0,0-.042,1.607c.08,2.324,1.03,5.324,3.341,5.17a6.377,6.377,0,0,1,.042,2.125,4.561,4.561,0,0,1-.412-.328.2.2,0,0,0-.307.244,3,3,0,0,0,3.912,1.12c.01-.01.021-.01.031-.021,0,1.057-.029,2.125-.052,3.172a.372.372,0,0,0,.729.095c.428-1.472.233-1.1.233-4.377a15.986,15.986,0,0,1,2.928.55,6.993,6.993,0,0,1,2.041.676.344.344,0,0,0,.349.022,12.648,12.648,0,0,1,1.9,1.522c4.4,4.329,3.738,10.9,4.165,12.359a.266.266,0,0,0,.507,0A5.062,5.062,0,0,0,168.856,126.275Zm-14.9-27.139a5.005,5.005,0,0,1,1.163,1.671,2.652,2.652,0,0,1,.359,1.776c-.041.117-.212.2-.307.085a6.849,6.849,0,0,1-.655-1.6,11.052,11.052,0,0,0-.962-1.607C153.376,99.191,153.748,98.946,153.96,99.136ZM151.866,110.5a2.9,2.9,0,0,1-1.131-1.29,9.7,9.7,0,0,1-.6-5.4.31.31,0,0,1,.085.043c.116.063.243.116.359.179.328.18.613-.326.286-.5a2,2,0,0,0-.656-.253,5.959,5.959,0,0,0,.117-1.131,6.5,6.5,0,0,1,2.114-1.9,20.031,20.031,0,0,1,3.034,7.485c-.232.338-.34.76-.56,1.11C154.231,109.924,152.983,111.08,151.866,110.5Zm3.954,3.235a2.567,2.567,0,0,1-2.569.095c.317-.243.285-.8.275-1.174a3.763,3.763,0,0,0-.306-1.353,4.89,4.89,0,0,0,2.463-2.2,38.251,38.251,0,0,1,.285,4.546A.671.671,0,0,0,155.82,113.737Zm1.068-6.841c-.478-.086-.282.667-.391-.644a3.816,3.816,0,0,1-.063-.8.933.933,0,0,1,.021-.148.856.856,0,0,1,.465-.222.95.95,0,0,1,.92.359A.932.932,0,0,1,156.888,106.9Z" fill="#191919"></path><path d="M139.676,101.388c.544-2.219,1.322-4.789,1.893-7.178.728.03,10.615.423,11.333.423a.515.515,0,0,0-.4-.8c-.835-.038-8.3-.325-11.2-.454a.419.419,0,0,0-.455.338c-.428,1.777-1.935,7.929-2.262,9.24C138.915,103.556,139.257,103.1,139.676,101.388Z" fill="#191919"></path><path d="M194.028,97.075c-8.369-1.423-24.121-2.537-33.725-2.929a.392.392,0,0,0-.36.571v.011a.4.4,0,0,0,.318.2c.626.041,10.5.382,21.43,1.406,2.061.193,10.236,1.086,12.253,1.3A.283.283,0,0,0,194.028,97.075Z" fill="#191919"></path><path d="M172.556,137.524c1.081.245,2.53.387,4.219.751a1.484,1.484,0,0,0,1.088.021.209.209,0,0,0,.074-.285c-.251-.354-.645-.391-1.057-.476a17.308,17.308,0,0,0-4.25-.455A.227.227,0,0,0,172.556,137.524Z" fill="#191919"></path><path d="M180.654,132.746c-.286-.263-.461-.288-2.315-.6q-.936-.159-1.872-.285c.519-.805,1.011-1.576,1.28-2.009.138-.222-.223-.52-.4-.3-.576.721-1.125,1.457-1.655,2.205a28.978,28.978,0,0,0-5.016-.239c-.274.015-.38.455-.074.5,1.513.211,3.044.317,4.567.491-1.9,2.774-2.006,2.906-2.135,3.357a.338.338,0,0,0,.56.328,6.968,6.968,0,0,0,1.036-1.49c.168-.259.736-1.133,1.356-2.095,3.844.5,3.958.815,4.544.625A.3.3,0,0,0,180.654,132.746Z" fill="#191919"></path><path d="M133.238,129.088a5.12,5.12,0,0,0-1.322.7c-.464.276-1.643.992-1.772,1.071a12.053,12.053,0,0,0-4.211-.173.23.23,0,0,0,.042.455c1.115.131,1.992.155,3.156.358-1.426.916-2.748,1.786-4.1,2.777-1.3-.095-3.212-.572-4.576-.207a.23.23,0,0,0,.042.455c1.7.2,1.451.07,3.62.44q-.558.43-1.1.881c-.157.13.053.392.232.286.571-.341,1.134-.695,1.691-1.057a3.713,3.713,0,0,0,.963-.032.342.342,0,0,0,.053-.637c1.68-1.118,2.365-1.595,4.218-2.739a4.117,4.117,0,0,0,1.205-.007.342.342,0,0,0,0-.656l-.09-.02c1.711-1.039,1.9-1.033,2.236-1.407A.293.293,0,0,0,133.238,129.088Z" fill="#191919"></path><path d="M176.362,143.582a4.042,4.042,0,0,0-2.04-.624c-.444-.023-.55.711-.106.783.338.054.665.087.994.158a3.474,3.474,0,0,0,.941.18A.3.3,0,0,0,176.362,143.582Z" fill="#191919"></path><path d="M168.835,150.866c-.757-1.44-1.337-3.005-2.189-4.387-.241-.392-.549-.381-.972-.412-4.825-.354-6.925-1.424-8.543-1.163-1.244.2-1.728.975-4.472,1.237a40.878,40.878,0,0,1-6.227-.117c-.285-.02-.528,2.009-.169,2.062,3.468.509,7.243,1.213,10.7,1.8,3.733.631,7.509,1,11.186,1.893A.625.625,0,0,0,168.835,150.866Z" fill="#191919"></path><path d="M132.847,124.9c-1.775.784-8.489,3.956-10.1,4.694a104.487,104.487,0,0,0-10.54,5.286c-.651.393-1.4.712-1.671,1.47a18.738,18.738,0,0,0-.483,2.211,2.966,2.966,0,0,0,1,2.589,6.787,6.787,0,0,0,3.3,1.2c.18.032,6.386,1.205,9.314,1.744.053-.275.106-.539.169-.8h-.01a22.222,22.222,0,0,0,.761-2.22.084.084,0,0,1,.042.01c.095-.3.19-.581.3-.867-.513-.083-12.542-2.227-12.993-2.389a.93.93,0,0,1-.5-1.258c.158-.33.537-.488.856-.677,7.814-4.631,15.493-7.167,20.838-10.509C133.405,125.217,133.141,124.771,132.847,124.9Z" fill="#191919"></path><path d="M177.43,152.315a5.592,5.592,0,0,0,2.992-2.453,76.954,76.954,0,0,0,7.876-18.11c.744-1.674-.075-3.261-.909-3.182a2.108,2.108,0,0,0-.867.655c-9.313,19.061-6.184,12.4-7.94,15.848-.863,1.7-1.575,2.622-3.414,2.622C175.382,148.433,177.205,151.714,177.43,152.315Z" fill="#191919"></path><path d="M82.967,123.019c-.062-.9-.179-2.573-1.491-2.389-.549.077-1.046.655-1.607.571a3.552,3.552,0,0,0-2.082-.254,13.557,13.557,0,0,0-2.189.645,2.1,2.1,0,0,1,.455.433c.721.95.3,1.407.105,1.29-.274-.2-.289-.638-.475-.92a2.065,2.065,0,0,0-.688-.6c-.169.053-.338.116-.507.169l-.761.19a1.42,1.42,0,0,1,.6,1.184c-.043.233-.367.231-.475.064a1.729,1.729,0,0,0-.8-1.058,24.887,24.887,0,0,0-3.626,1.354c-.805.462-1.489,1.7-.571,2.421a3.284,3.284,0,0,0,1.744.349,66.062,66.062,0,0,0,9.505.116,4.928,4.928,0,0,0,2.114-.3C83.184,125.717,83.032,123.96,82.967,123.019Z" fill="#191919"></path><path d="M125.637,121.93a3.778,3.778,0,0,0-1.766-.983,32.335,32.335,0,0,0-3.172-.962c-.772.772-.428,1.2-.74,1.67a.147.147,0,0,1-.222.032c-.394-.447.056-1.388.476-1.808-.074-.021-.159-.031-.233-.053-.339-.1-.676-.211-1.015-.317a2.856,2.856,0,0,0-.317.307,1.7,1.7,0,0,0-.317.835.27.27,0,0,1-.338.254.281.281,0,0,1-.2-.254,1.928,1.928,0,0,1,.581-1.311c-.444-.127-.887-.256-1.342-.359-2.031-.464-2.219.222-2.8.222-.542,0-1.177-.816-2.019-.466a1.461,1.461,0,0,0-.772,1.237,9.994,9.994,0,0,0-.095,2.125c.083,1.479.241,2.372,1.713,2.464a68.566,68.566,0,0,0,11.671-.487,1.289,1.289,0,0,0,1.142-.75A1.435,1.435,0,0,0,125.637,121.93Z" fill="#191919"></path><path d="M67.056,121.856c.719-.3,6.121-2.516,8.109-3.33-.053-.212-.117-.434-.17-.645-1.321.55-6.7,2.749-8.066,3.309Q66.977,121.523,67.056,121.856Z" fill="#191919"></path><path d="M59.687,133.739c-1.163-.19-11.692-2.022-12.75-2.209-.243-.043-.57-.033-.7-.254s.031-.382.211-.571c.581-.607,1.165-.813,9.885-4.408-.095-.222-.19-.434-.285-.656-9.737,4.029-9.317,3.9-9.832,4.314-.5.4-1.043,1.076-.666,1.733.281.491.8.477,2.431.772,1.08.2,9.135,1.6,12.084,2.072Q59.862,134.136,59.687,133.739Z" fill="#191919"></path><path d="M66.115,119.435c2.8-1.142,5.624-2.262,8.447-3.351-.053-.2-.116-.4-.169-.6-2.178.825-7.781,3.045-8.416,3.3C66.02,119,66.062,119.224,66.115,119.435Z" fill="#191919"></path><path d="M110.529,123.389c-6.2,4.347-12.226,8.331-18.671,12.19-3.093,1.852-2.832,1.934-5.222,1.7-16.646-1.617-16.486-2.27-16.292-1.787.053.2.084.413.148.614,1.924.264,14.336,1.764,15.425,1.881a9.15,9.15,0,0,0,3,.1,8.938,8.938,0,0,0,2.337-1.248c6.771-4.016,13.542-8.473,19.474-12.613A3.715,3.715,0,0,1,110.529,123.389Z" fill="#191919"></path><path d="M118.733,118.452c.613-.476,1.212-.967,1.818-1.459.263-.213-.084-.666-.359-.476-.813.562-1.628,1.121-2.432,1.692C117.9,118.239,118.654,118.412,118.733,118.452Z" fill="#191919"></path><path d="M112.876,125.525c-1.956,1.48-26.436,19.418-30.364,22.244A16.183,16.183,0,0,1,80,149.217c-2.634,1.25-3.583.729-7.7-.01-21.275-3.825-44.726-8.968-45.218-9.272a1,1,0,0,1-.159-1.491,7.667,7.667,0,0,1,2.844-2.21c4.947-2.633,16.528-8.3,25.733-12.306-.095-.211-.179-.412-.275-.623-6.521,2.853-12.63,5.685-19.4,9.049-1.055.525-6.567,3.277-7.591,3.954a5.159,5.159,0,0,0-2.241,2.39,1.658,1.658,0,0,0,1.184,2.051c2.031.607,42.438,9.074,49.087,9.9a6.313,6.313,0,0,0,3.341-.433,25.776,25.776,0,0,0,5.36-3.341c9.778-7.195,19.548-13.9,29.1-21.208C113.69,125.62,113.278,125.588,112.876,125.525Z" fill="#191919"></path><path d="M19.65,112.457c-.431-2.621-.88-5.246-1.237-7.886a.238.238,0,0,0-.286-.222c-.4.064-.8.148-1.2.222A16.168,16.168,0,0,0,10.8,105.7a.247.247,0,0,0-.169.232,49.9,49.9,0,0,0,.6,7.76.244.244,0,0,0,.3.17C18.957,112.407,19.751,113.074,19.65,112.457Z" fill="#37a1ff"></path><path d="M42.518,33.229c-.245-.079-.5-.169-.741-.254a10.676,10.676,0,0,0-3.816-1.268.246.246,0,0,0-.264.105,29.412,29.412,0,0,0-2.073,4.6c-.166.48.907.238,4.969,2.115.457.211.244-.279,2.1-5.022A.267.267,0,0,0,42.518,33.229Z" fill="#191919"></path><path d="M25.211,48.485c-1.916.976-7.592,4.02-9.473,5.36l-.011-.011c-.222-.19-.551.139-.327.328a45.557,45.557,0,0,0,9.642,6.121.226.226,0,0,0,.338-.19c.026-3.806.132-7.612.159-11.407A.223.223,0,0,0,25.211,48.485Z" fill="#37a1ff"></path><path d="M70.724,71.807a2.425,2.425,0,0,0-.708,3.87,2.135,2.135,0,0,0,3.933-1.29C73.912,72.706,72.489,71.076,70.724,71.807Z" fill="#37a1ff"></path></g></svg>