<svg viewBox="0 0 400 400" xmlns="http://www.w3.org/2000/svg"><g transform="matrix(2,0,0,2,0,0)"><path d="M138.858,58.014c-2.594.273-3.811,4.559-2.344,6.908-.172-.272-.84-.565-1.11-.74a41.1,41.1,0,0,1-3.676-2.542,20.685,20.685,0,0,0-3.454-2.417c-.371-.2-.817.3-.468.617.591.538,2.068,1.92,2.1,1.949a11.945,11.945,0,0,1-3.676,1.825l5.23,2.813c-2.71.722-3.7,5.394-1.875,7.672-1.974-.271-5.6-.839-8.191-1.209.765-2.343,2.171-7.031,1.209-7.45-1.924-.839-2.363-4.925-4.416-3.849s-3.306-1.628-5.452,0-5.656-.019-6.563,6.637a3.845,3.845,0,0,0,.074,1.406c-1.579-.37-3.083-.716-4.268-.987-.962-3.405-1.35-6.885.864-9.918.25-.342-.3-.74-.568-.444-2.538,2.765-2.319,6.661-1.48,10.091-.641-.148-1.134-.275-1.381-.346-3.174-.908-3.84-7.309-2.369-10.386a8.191,8.191,0,0,1,11.3-3.627l6.316,3.4a15.389,15.389,0,0,1,2.837-2.048c.716.395,1.579.518,2.245.962.444.3.868-.349.543-.715a5.779,5.779,0,0,0-1.826-1.135c-.6-.317-2.192-1.349-2.294-1.431a14.431,14.431,0,0,1,3.725-6.094.41.41,0,0,0-.493-.641,8.336,8.336,0,0,0-2.788,3.084,13.949,13.949,0,0,0-1.431,2.96c-.321-.222-.641-.419-.962-.616a2.371,2.371,0,0,1-.321-1.678c.544-3.216,4.448-8.486,8.586-7.845a41.539,41.539,0,0,1,4.835,4.366,5.557,5.557,0,0,0-1.061,2.936c.056,1.629,1.6,1.9,1.826,2.985.22,1.062,2.826,1.657,3.182,2.566s2.47,2.887,2.961,1.258a1.69,1.69,0,0,1,1.678-1.258C137.156,56.312,138.217,57.372,138.858,58.014Z" fill="#37a1ff"></path><path d="M20.957,54.264c2.441.19,5.847.556,19,1.678,3.158.269,7.7,1.6,9.375-2.122A9.1,9.1,0,0,0,49.772,50c0-24.4.1-22.954-.247-24.005a4.479,4.479,0,0,0-2.886-2.886c-.494-.146-.989-.162-1.505-.272-8.409-1.779-16.43-4.428-24.276-6.389a.09.09,0,0,1-.074-.025c-.084,0-.089-.025-.247-.025a4.349,4.349,0,0,0-3.429,1.974,6.707,6.707,0,0,0-.765,3.923c.013,2.96-.049,16.011-.049,19.588a70.735,70.735,0,0,0,.1,8.24A4.683,4.683,0,0,0,20.957,54.264Zm-3.6-32.985c0-1.949,1.135-3.7,3.207-3.824,7.031,1.851,23.39,6.234,24.572,6.489a4.453,4.453,0,0,1,2.418.888,3.927,3.927,0,0,1,1.184,2.96c.025,3.4,0,18.5,0,22.648,0,1.678.005,3.487-1.628,4.515-1.275.8-.261.561-26.2-1.7A3.625,3.625,0,0,1,18,51.649c-.788-1.21-.629-2.739-.641-4.12C17.268,37.292,17.311,42.225,17.355,21.279Z" fill="#191919"></path><path d="M45.924,101.114c-8.143.95-24.917,2.917-25.165,2.935a4.636,4.636,0,0,0-3.651,2,6.819,6.819,0,0,0-.789,4.021c0,26.515-.38,26.72.641,28.47a4.1,4.1,0,0,0,4.515,2.048c1.5-.419,22.429-6.3,24.152-6.785,1.558-.434,3.057-.5,4.2-1.85,1.058-1.26,1.085-2.739,1.085-4.293,0-23.33.14-22.617-.419-23.881A4.412,4.412,0,0,0,45.924,101.114Zm3.947,27.754a4.093,4.093,0,0,1-.888,2.443,3.884,3.884,0,0,1-2.615,1.184c-.766.145-1.528.426-2.27.641-7.629,2.215-15.293,4.3-22.944,6.439a1.781,1.781,0,0,1-1.135.05c-2-.5-2.652-2.27-2.689-4.145-.117-5.94.005-16.707.025-26.521a3.613,3.613,0,0,1,3.4-3.849c7.254-.839,24.2-2.894,25.436-2.985,2.2-.162,3.621,1.653,3.676,3.725C49.879,106.159,49.872,128.854,49.871,128.868Z" fill="#191919"></path><path d="M45.455,61.221c-8.043-.564-24.622-1.875-24.868-1.875a4.3,4.3,0,0,0-3.429,1.85,6.486,6.486,0,0,0-.839,4c.123,9.685-.053,26.249.246,27.8a4.366,4.366,0,0,0,4.491,3.627c.109-.008,23.874-2.429,24-2.443,1.629-.168,3.108-.395,4.169-1.8.987-1.307.963-2.812.963-4.342,0-24.09.081-22.606-.2-23.536C49.339,62.32,47.576,61.37,45.455,61.221Zm3.651,27.286c0,2.048-.595,4.194-3.01,4.515-.1.013-24.7,2.517-25.189,2.541a3.141,3.141,0,0,1-2.467-.987c-1.112-1.158-1.011-2.763-1.036-4.244-.048-2.861-.123-20.3-.123-26.15,0-1.949,1.159-3.75,3.256-3.849,7.2.543,23.931,1.829,25.091,1.924a3.643,3.643,0,0,1,3.429,3.9C49.118,69.259,49.106,69.807,49.106,88.507Z" fill="#191919"></path><path d="M70.372,59.543c4.047.366,8.067.717,12.114,1.086,2.442.223,5.985,1.277,7.647-1.209a5.89,5.89,0,0,0,.667-3.478c0-20.071.053-18.8-.124-19.515-.463-1.876-1.9-2.545-3.6-2.911-3.131-.673-6.242-1.649-9.35-2.467-2.7-.71-10.588-2.813-10.781-2.813-1.967,0-3.634,1.574-3.6,4.712.026,2.468-.049,13.1-.049,15.962a56.224,56.224,0,0,0,.1,6.933C63.851,59.467,67.609,59.294,70.372,59.543Zm-3.5-30.295c5.7,1.5,19.02,5.063,19.983,5.279A4.4,4.4,0,0,1,88.48,35a3.034,3.034,0,0,1,1.259,2.615c.007.269,0,18.305,0,18.405,0,1.356.046,2.783-1.283,3.626a4.3,4.3,0,0,1-2.837.247c-6.146-.508-12.311-1.041-18.454-1.628-2.862-.274-2.815-2.788-2.837-5.033-.027-2.739.009-14.013.025-16.9C64.365,33.985,63.588,29.47,66.869,29.248Z" fill="#191919"></path><path d="M91.392,99.51a3.7,3.7,0,0,0-3.75-2.245c-7.648.692-17.029,2.021-20.6,2.418-2.739.148-3.737,2.343-3.726,4.786.1,20.9-.383,21.868.543,23.462,1.739,2.992,4.809,1.424,7.3.715,3.944-1.121,14.629-4.123,16.036-4.515,1.159-.323,2.37-.368,3.305-1.258,1.844-1.753,1.009-2.892,1.209-20.131A7.839,7.839,0,0,0,91.392,99.51Zm-.691,20.5c-.037,1.8-1.207,2.551-2.837,2.887-.1.02-20.228,5.695-20.329,5.723a1.763,1.763,0,0,1-1.011.1c-1.9-.331-2.144-2.245-2.171-3.8-.089-5.069.024-11.993.024-16.826,0-2.442-.839-7.154,2.689-7.351,5.872-.691,11.769-1.372,17.64-2.073,2.443-.292,5.89-1.159,6.02,2.615C90.73,101.407,90.742,118,90.7,120.011Z" fill="#191919"></path><path d="M87.247,64.749c-6.785-.489-13.569-1.036-20.329-1.554-2.664.148-3.6,2.393-3.577,4.761.125,12.2-.059,21.685.222,22.919.834,3.658,4.343,2.844,7.056,2.566,4-.41,14.8-1.525,16.209-1.653a4.387,4.387,0,0,0,3.4-1.431A5.3,5.3,0,0,0,91.1,86.78c0-19.5.066-18.492-.173-19.317A3.806,3.806,0,0,0,87.247,64.749Zm2.837,22.228c0,1.5-.273,3.272-2.048,3.676-.191.044-12.452,1.273-12.557,1.283-2.714.273-5.477.716-8.191.839-2.738.124-2.806-2.64-2.837-4.663C64.41,85.4,64.4,74.321,64.4,71.484c0-2.319-.839-7.006,2.541-7.2,5.847.444,19.464,1.464,20.427,1.555a2.867,2.867,0,0,1,2.739,3.083C90.173,71.7,90.084,68.94,90.084,86.977Z" fill="#191919"></path><path d="M127.962 70.750 A3.898 2.664 0 1 0 135.758 70.750 A3.898 2.664 0 1 0 127.962 70.750 Z" fill="#191919" transform="translate(47.171 194.12) rotate(-83.748)"></path><path d="M135.246 62.156 A3.651 2.467 0 1 0 142.548 62.156 A3.651 2.467 0 1 0 135.246 62.156 Z" fill="#191919" transform="translate(61.985 193.458) rotate(-83.748)"></path><path d="M145.42,133.58c-10.37-.606-26.055,1.188-35.4-2.64-8.7-3.563-14.547-13.33-10.559-29.407,1.609-6.487,8.584-21,9.054-22.105,2.122-5,1.16-5.814.444-8.487a7.3,7.3,0,0,1,1.382-6.537c.464-.571-.35-1.385-.814-.815a8.507,8.507,0,0,0-1.949,4.713c-.187,2.1.866,3.749,1.11,5.748a10.01,10.01,0,0,1-.938,4.342c-1.437,3.95-13.854,22.406-10.238,39.152a20.341,20.341,0,0,0,8.758,13.026c9.743,6.1,25.415,3.6,39.152,4.441A.717.717,0,0,0,145.42,133.58Z" fill="#191919"></path><path d="M121.885,81.574a9.634,9.634,0,0,1-4.367,2.566c-.32.077-.54.076-.74.321a.562.562,0,0,0,.123.888l.148.074c-2,4.243-2.282,9.424-2.492,14.013a64.97,64.97,0,0,0,1.111,17.294c.2.864,1.484.493,1.307-.37-2.04-9.975-1.227-25.836,1.086-30.937a8.247,8.247,0,0,0,1.677-.715,14.5,14.5,0,0,0,3.232-2.418c2.049-1.9,3.6-3.8,3.479-6.735a.457.457,0,0,0-.913,0C125.474,78.221,123.753,79.889,121.885,81.574Z" fill="#191919"></path><path d="M148.455,107.183c-5.562.078-25.874,4.534-30.888,6.463a.486.486,0,0,0,.247.938c4.647-.629,10.163-2.939,22.549-4.91,2.716-.432,5.526-.616,8.215-1.159A.679.679,0,0,0,148.455,107.183Z" fill="#191919"></path><path d="M125.955,100.053c.465,1.9,1.85,2.642,3.6,3.084,2.17.546,4.416.89,6.612,1.258a.461.461,0,0,0,.247-.888,29.089,29.089,0,0,0-5.477-1.086c-5.608-1.04-5.2-2.171-1.332-19.712a.384.384,0,0,0-.741-.2c-.825,3.18-1.531,6.365-2.146,9.6C126.25,94.576,125.334,97.513,125.955,100.053Z" fill="#191919"></path><path d="M113.447,75.407a19.392,19.392,0,0,1-.691-6.908c.169-1.949.586-4.054,2.2-5.354.369-.3-.1-.86-.493-.641-1.866,1.028-2.538,3.134-2.837,5.107a18.7,18.7,0,0,0,.542,8.141C112.4,76.545,113.674,76.22,113.447,75.407Z" fill="#191919"></path><path d="M115.446,75.826a.592.592,0,0,0,1.159-.148c.012-2.072-.592-4.071-.271-6.168.37-2.417,1.786-4.312,2.861-6.439.2-.393-.322-.865-.666-.493A14.156,14.156,0,0,0,115.446,75.826Z" fill="#191919"></path><path d="M118.209,77.528c.273,2.961,4.312,2.79,4.884-2.146.078-.666-.909-.714-1.11-.148a11.8,11.8,0,0,1-.715,1.85c-.124.222-.493.893-.74.938a.892.892,0,0,1-1.036-.839,15.709,15.709,0,0,1,.222-3.306,27.765,27.765,0,0,1,1.381-6.735c.172-.494-.524-.719-.789-.345a12.015,12.015,0,0,0-1.7,5.452A25.105,25.105,0,0,0,118.209,77.528Z" fill="#191919"></path><path d="M134.615,51.155a2.1,2.1,0,0,0-2.763-1.5,3.339,3.339,0,0,0-2,3.478.516.516,0,0,0,.938.123c.35-.713.345-1.554.937-2.146.617-.617,1.829-.766,2.122.247A.4.4,0,0,0,134.615,51.155Z" fill="#191919"></path><path d="M136,53.228a1.982,1.982,0,0,0-2.393-.074c-.689.447-1.327,1.3-.913,2.121a.506.506,0,0,0,.913-.123,1.607,1.607,0,0,1,.617-1.135,1.115,1.115,0,0,1,1.381-.074C136.021,54.239,136.421,53.541,136,53.228Z" fill="#191919"></path><path d="M131.852,47.677c-1.479-.107-3.529.839-3.775,2.492-.1.666.883.985,1.036.3.263-1.186,1.654-1.819,2.739-1.974A.408.408,0,0,0,131.852,47.677Z" fill="#191919"></path><path d="M129.8,46.246a2.4,2.4,0,0,0-1.628.518,4.34,4.34,0,0,0-.938,1.752c-.052.419.5.547.765.32.4-.338.471-.935.814-1.332.3-.344.792-.365,1.184-.543C130.373,46.793,130.149,46.274,129.8,46.246Z" fill="#191919"></path><path d="M154.425,72.076a13.862,13.862,0,0,0-2.788-.049.633.633,0,0,0,0,1.209,13.954,13.954,0,0,0,2.788.172C155.289,73.456,155.264,72.119,154.425,72.076Z" fill="#191919"></path><path d="M160.322,94.3c-.833,3.129-1.364,6.345-2.073,9.5-.144.642.861.912.987.271.627-3.185,1.349-6.35,1.9-9.548C161.225,94.007,160.466,93.761,160.322,94.3Z" fill="#191919"></path><path d="M173.3,93.638a33.927,33.927,0,0,0,.568,7.081c.1.592,1.055.444,1.036-.148a33.1,33.1,0,0,0-.79-7.056C174,93.069,173.32,93.194,173.3,93.638Z" fill="#191919"></path><path d="M152.945,84.091a2.575,2.575,0,0,1-2.368.789.539.539,0,0,0-.3,1.036,2.87,2.87,0,0,0,3.281-1.356A.391.391,0,0,0,152.945,84.091Z" fill="#191919"></path><path d="M155.807,70.473c-.1-1.974-2.621-2.237-4.046-1.752a.4.4,0,0,0,.1.789c1.308.013,2.322.008,3.035,1.209A.493.493,0,0,0,155.807,70.473Z" fill="#191919"></path><path d="M179.54,47.233c-3.821,2.4-3.755,5-4.317,9.054-.055.394-.671.347-.765,0a11.568,11.568,0,0,1-.1-5.206c-8.166-2.319-18.374-.508-22.968,1.925-5.52,2.923-6.612,5.97-6.612,10.608.839.1,2.96.518,5.255,1.036-.689,1.5-2.3,5.334-2.443,6.982-1.529,1.234-3.791,3.133-3.824,5.23-.019,1.259,2.048,3.01,3.356,2.591C146.084,90.505,149.506,92.707,156.3,93a11.985,11.985,0,0,0,7.229-1.8c.419-.3.174-1.031-.37-.863a21.04,21.04,0,0,1-6.464,1.406c-2.072-.011-5.23-.272-6.735-1.9-2.442-2.64-2.1-7.547-2.023-10.88a.341.341,0,0,0-.4-.37.449.449,0,0,0-.4-.2,2.63,2.63,0,0,1-1.727-.666c-1.951-1.567,2.4-4.68,3.01-5.6a21.572,21.572,0,0,0,1.184-3.158c.49-1.359,1.012-2.689,1.579-4,3.109.691,6.267,1.406,7.007,1.53a17.574,17.574,0,0,1,.37,4.835,3.2,3.2,0,0,0,4,2.961,5.571,5.571,0,0,1,4.12.542,2.7,2.7,0,0,0-2.245.642c-.323.269.024.838.419.715,1.9-.593,3.924.321,3.9,2.566-.024,2.072-2.15,4.178-4.268,3.281-.173-.073-2-.543-2.048-.567-.641-.222-.913.789-.271.987.049.024,2.146.888,2.368.937,1.061,2.1,4.293,7.5,9.1,7.574,4.687.073,11.883-1.038,14.013-12.138a33.058,33.058,0,0,0,.222-11.62,4.448,4.448,0,0,1-1.925-.518.452.452,0,0,1,.222-.839c4.963-.323,7.974-2.867,8.635-8.018C196.118,47.667,188.5,41.61,179.54,47.233Z" fill="#191919"></path><path d="M25.077,110.069c-.74.247-1.061,1.5-.987,2.22.1,1.308,1.258,1.8,2.467,1.6a2.152,2.152,0,0,0-.148-4.268A1.855,1.855,0,0,0,25.077,110.069Z" fill="#37a1ff"></path><path d="M29.74,118.334c4.705-2.507,2.483-11.447-2.073-11.2-.592.025-.814,1.012-.148,1.111,2.27.37,3.355,2.442,3.5,4.588a4.61,4.61,0,0,1-.938,3.5c-2.531-2.388-6.612-1.936-7.845-.394a5.937,5.937,0,0,1-.074-6.02,3.2,3.2,0,0,1,3.824-1.628c.419.074.715-.518.3-.715-2.541-1.259-4.836.616-5.675,3.009-.863,2.467-.444,5.551,1.653,7.278C24.263,119.518,27.5,119.493,29.74,118.334Z" fill="#37a1ff"></path><path d="M23.3,37.019c2.468,2,6.464,1.924,9.129.4,5.208-2.977,2.7-13.378-2.665-13.125-.592.025-.814,1.012-.148,1.11,4.212.569,5.211,6.474,3.7,9.252a3.249,3.249,0,0,1-.666.863,7.785,7.785,0,0,0-8.043-1.579,3.387,3.387,0,0,0-1.431,1.11c-1.606-2.024-1.533-5.469-.2-7.7a3.96,3.96,0,0,1,4.687-1.9c.42.1.716-.518.3-.716-3.059-1.53-5.822.888-6.76,3.725C20.315,31.369,20.834,35.021,23.3,37.019Z" fill="#37a1ff"></path><path d="M26.705,27.792c-.888.321-1.233,1.727-1.159,2.591.123,1.505,1.455,2.023,2.837,1.8,2.864-.485,2.728-4.7-.124-4.909A2.061,2.061,0,0,0,26.705,27.792Z" fill="#37a1ff"></path><path d="M27.741,65.02c-2.861-1.431-5.477.814-6.389,3.479-.913,2.738-.445,6.167,1.825,8.067,2.3,1.925,6,1.875,8.561.518,5.176-2.767,2.72-12.8-2.368-12.507-.593.024-.815,1.011-.148,1.109,4.14.581,5.228,7.135,2.911,9.449a5.732,5.732,0,0,0-2.837-1.7,9.071,9.071,0,0,0-4.935.271,3.027,3.027,0,0,0-1.184.962,6.862,6.862,0,0,1-.074-7.253,3.7,3.7,0,0,1,4.318-1.677C27.839,65.817,28.161,65.218,27.741,65.02Z" fill="#37a1ff"></path><path d="M26.458,67.882c-.838.3-1.159,1.653-1.085,2.467.23,2.719,4.921,2.242,4.687-.74A2.2,2.2,0,0,0,26.458,67.882Z" fill="#37a1ff"></path><path d="M47.058,50.835l-.888-.074c.05-7.525-.2-15.074-.247-22.6a.419.419,0,0,0-.838,0c-.543,7.476-.321,15-.247,22.5-7.623-.592-15.3-1.406-22.944-1.53-.567,0-.542.79,0,.864,7.624.839,15.3,1.431,22.944,2.072v1.283a.642.642,0,0,0,1.283,0V52.192c.3.024.592.049.913.073C47.946,52.315,47.971,50.909,47.058,50.835Z" fill="#37a1ff"></path><path d="M30.578,43.31c-1.135-.3-2.121-1.159-3.355-1.061-2.22.173-3.059,2.689-3.454,4.515-.1.469.608.664.716.2.274-1.189.567-2.639,1.554-3.453,1.382-1.136,2.615.024,3.972.493a6.4,6.4,0,0,0,4.86-.37,7.456,7.456,0,0,0,3.306-4c.937-2.023,2.664-5.082,5.4-3.528.641.346,1.085-.715.394-.912-7.044-2.026-5.619,5.06-9.448,7.475A4.958,4.958,0,0,1,30.578,43.31Z" fill="#37a1ff"></path><path d="M71.581,112.684c2.985,0,5.255-1.727,5.206-4.811-.025-2.2-1.308-5.4-3.948-5.2-.592.049-.814.987-.148,1.11,2.868.565,3.465,4.566,2.048,6.291-2.09-1.782-5.3-1.517-6.39-.3-1.494-2.426-.2-6.615,3.035-6.02.419.075.736-.509.3-.715-3.088-1.445-5.156,1.974-5.132,4.638A4.854,4.854,0,0,0,71.581,112.684Z" fill="#37a1ff"></path><path d="M70.569,105.135c-1.175.641-1.32,3.554,1.185,3.33a1.9,1.9,0,0,0,.123-3.774A1.581,1.581,0,0,0,70.569,105.135Z" fill="#37a1ff"></path><path d="M68.5,43.754a6.818,6.818,0,0,0,7.253.493c4.436-2.345,2.384-10.926-1.973-10.632-.592.049-.814.986-.148,1.11,2.047.345,3.084,2.171,3.281,4.12a4.291,4.291,0,0,1-.913,3.4c-2.452-2.2-6.3-1.722-7.376-.345a5.594,5.594,0,0,1-.074-5.576,3.057,3.057,0,0,1,3.6-1.6c.419.074.715-.519.3-.716-2.393-1.184-4.588.543-5.378,2.788C66.2,39.116,66.548,42.1,68.5,43.754Z" fill="#37a1ff"></path><path d="M71.285,36.378c-.74.246-1.036,1.455-.987,2.146.1,1.283,1.209,1.752,2.393,1.554a2.076,2.076,0,0,0-.123-4.12A1.719,1.719,0,0,0,71.285,36.378Z" fill="#37a1ff"></path><path d="M72.815,67.857c-2.344-1.159-4.54.543-5.329,2.763a6.356,6.356,0,0,0,1.455,6.859,6.705,6.705,0,0,0,7.155.469c4.373-2.288,2.333-10.778-1.974-10.485-.592.049-.814.987-.148,1.11,2.023.345,3.035,2.122,3.232,4.07A4.294,4.294,0,0,1,76.318,76c-2.4-2.12-6.137-1.689-7.278-.321a5.554,5.554,0,0,1-.1-5.477,3.022,3.022,0,0,1,3.553-1.579C72.913,68.672,73.234,68.079,72.815,67.857Z" fill="#37a1ff"></path><path d="M71.581,70.25c-1.276.639-1.447,3.905,1.283,3.627a2.072,2.072,0,0,0,.148-4.12A1.767,1.767,0,0,0,71.581,70.25Z" fill="#37a1ff"></path><path d="M88.11,56.213h-.32c-.308-6.139,1-12.348-.148-18.43-.1-.494-.888-.37-.839.1.527,6.094-.776,12.21-.352,18.308-6.174-.2-12.313-1.648-18.472-1.285a.432.432,0,0,0,0,.863c6.226.365,12.388,1.614,18.6,1.84.111.784,1.33.818,1.307.032l.22,0A.716.716,0,0,0,88.11,56.213Z" fill="#37a1ff"></path><path d="M71.63,51.5c-.468.222-.049.888.4.691A18.031,18.031,0,0,0,76.1,50a37.663,37.663,0,0,0,6.291-6.76,16.945,16.945,0,0,0,2.442-3.9c.173-.444-.5-.82-.814-.469-1.17,1.312-1.66,3-5.2,6.982A22.189,22.189,0,0,1,71.63,51.5Z" fill="#37a1ff"></path><path d="M43.974,81.451c-17.649,1.51-17.968,1.1-21.586,1.826a.772.772,0,0,0-1.209.543,15.21,15.21,0,0,0,.024,3.5c.1.764.173,1.579.963,1.924a8.619,8.619,0,0,0,3.182.1,150.143,150.143,0,0,0,19.391-1.53.689.689,0,0,0,.494-.666,24.378,24.378,0,0,0-.617-5.181A.676.676,0,0,0,43.974,81.451ZM22.708,87.767c.025.024.025.024.025.049A.087.087,0,0,1,22.708,87.767Zm6.785.024c.123-1.332.247-2.664.321-4,1.036-.074,10.139-.716,13.642-.987a23.362,23.362,0,0,1,.395,3.725C38.627,87.24,34.287,87.576,29.493,87.791Z" fill="#37a1ff"></path><path d="M86.581,82.265c-12.054,1.1-13.8.766-16.973,1.431a.781.781,0,0,0-1.209.543c-.124,1.061-.42,3.6.641,4.317a3.853,3.853,0,0,0,2.048.2A119.993,119.993,0,0,0,87.2,87.52a.688.688,0,0,0,.493-.666,21.409,21.409,0,0,0-.493-4.145A.63.63,0,0,0,86.581,82.265Zm-5.132,4.614c.124-.987.272-1.949.395-2.936l4.219-.3a24.606,24.606,0,0,1,.3,2.664C84.731,86.533,83.1,86.706,81.449,86.879Z" fill="#37a1ff"></path><path d="M43.358,120.381c-3.035-.049-6.217.963-9.178,1.554-3.232.618-6.439,1.234-9.671,1.9-2.269.469-1.282,3.849.938,3.43,3.232-.593,6.464-1.234,9.671-1.851,2.985-.567,6.242-.863,9.029-2.047C45.7,122.7,44.813,120.406,43.358,120.381Z" fill="#37a1ff"></path><path d="M41.705,126.574c-5.354,1.8-11.225,2.516-16.752,3.725-2.245.493-1.282,3.9.938,3.429,5.5-1.11,11.447-1.85,16.751-3.7C44.813,129.287,43.9,125.833,41.705,126.574Z" fill="#37a1ff"></path><path d="M85.446,112.487c-2.467-.05-4.983.74-7.377,1.184-2.639.518-5.254,1.011-7.894,1.554-2.27.469-1.283,3.849.937,3.43,2.467-.445,4.935-.938,7.4-1.407,2.417-.468,5.082-.691,7.351-1.628C87.444,114.954,87.4,112.512,85.446,112.487Z" fill="#37a1ff"></path><path d="M84.015,117.446c-4.342,1.406-9.029,2.023-13.47,3.009-2.245.494-1.283,3.873.938,3.43,4.44-.889,9.177-1.53,13.494-2.961C87.148,120.184,86.235,116.73,84.015,117.446Z" fill="#37a1ff"></path><path d="M181.218,119.1c.092-4.285,3.294-16.186-3.775-19.1-.665-.273-1.133.861-.493,1.185,3.239,1.638,3.215,6.242,3.108,9.35-.082,2.389-.358,4.553-.592,6.661-4.391-1.382-15.246,2.146-18.824,3.4,0-1.11-.1-2.244-.2-3.3-.351-3.824-2.208-16.061-9-12.78a.639.639,0,0,0,.321,1.184c5.847-.468,6.448,9.129,6.636,13.051.069,1.431-.049,2.887-.024,4.317-1.777,3.356-5.4,9.9-7.944,12.435-3.5,3.484-9.6,1.11-9.6,1.11a100.517,100.517,0,0,0,5.255,25.435,2.279,2.279,0,0,0,1.875,1.5,60.876,60.876,0,0,0,28.2-2.763,2.269,2.269,0,0,0,1.48-1.5,103.4,103.4,0,0,0,4.416-29.161C182.056,126.145,181.118,123.73,181.218,119.1Z" fill="#37a1ff"></path><path d="M146.432,167.872a45.58,45.58,0,0,0-1.9,7.747c-.073.518.669.741.79.222.6-2.588,1.2-5.176,1.949-7.746C147.422,167.577,146.6,167.353,146.432,167.872Z" fill="#191919"></path><path d="M177.64,162.864a124.554,124.554,0,0,0,5.379,13.347c.2.395.916.122.74-.321-1.765-4.43-3.629-8.8-5.28-13.272C178.287,162.1,177.451,162.343,177.64,162.864Z" fill="#191919"></path><path d="M94.229,145.373c-4.877-1.86-7.079-2.961-7.179-2.961-.558-.186-1.513.4-2.147.617-.939.317-5.871,2.023-7.426,2.541a.588.588,0,0,0-.493.173c-.706.3-24.229,8.051-32.023,10.88-.583.145-.624,2.448-.641,3.034a9.073,9.073,0,0,0,.148,2.665c.1.368.743.444.814,0a15.764,15.764,0,0,0,.025-2.468c0-.666.074-1.332.1-2,10.091,4.5,9.453,4,9.622,4.342-.025.987-.077,2-.025,3.01a.346.346,0,0,0,.691,0c.051-.937,0-1.9-.025-2.862,4.722,1.911,6.044,1.739,8.857,2.887-.049.493-.015,1.011-.024,1.529a7.942,7.942,0,0,0,.074,2.023.463.463,0,0,0,.888,0,9.278,9.278,0,0,0,.1-2.023,8.621,8.621,0,0,0-.049-1.381c2.961-1.209,5.9-2.443,8.832-3.7-.123,1.086-.148,2.22-.2,3.306-.025.543.793.518.839,0a34.377,34.377,0,0,0,.222-3.651c3.281-1.406,6.537-2.813,9.819-4.219a15.764,15.764,0,0,0-.173,3.6.444.444,0,0,0,.888,0,32.946,32.946,0,0,1,.123-3.972c2.467-1.061,4.935-2.122,7.426-3.183q-.222,1.629-.3,3.257c-.024.543.757.517.814,0,.131-1.186.3-2.393.321-3.6.1,0-.917.333,8.314-3.478a17.953,17.953,0,0,0-.247,3.182c.017.4.684.542.74.1.153-1.187.247-2.418.321-3.627l.148-.074a.516.516,0,0,0,.395-.691V148.6a.087.087,0,0,0-.025-.05.4.4,0,0,0-.394-.271c-2.814-.913-6.238-1.574-8.956-2.738C94.4,145.422,94.327,145.4,94.229,145.373Zm-10.214-.938c2.054-.676,2.25-.976,2.763-1.036,1.974.888,3.972,1.7,5.995,2.492-2.566,1.036-5.156,2.072-7.722,3.133-2.072-.888-4.12-1.9-6.167-2.837C79.747,145.891,83.148,144.721,84.015,144.435Zm-9.029,15.839c-2.823-1.089-3.944-.933-8.142-2.591,3.207-1.307,6.439-2.639,9.647-3.972,3.859,1.63,4.751,1.408,7.919,2.517C81.252,157.585,78.119,158.917,74.986,160.274Zm10.731-4.614c-2.541-1.085-5.23-1.628-7.82-2.541,2.393-.986,4.761-1.973,7.154-2.96,2.492,1.036,5.156,1.579,7.673,2.492C90.38,153.637,88.061,154.649,85.717,155.66Zm-8.264-8.98c2.1.938,4.169,1.974,6.291,2.911-2.418.987-4.836,2-7.253,2.986-2.418-.987-4.787-2.073-7.18-3.158C71.458,148.7,76.885,146.878,77.453,146.68Zm-9.573,3.208c2.418,1.085,4.836,2.195,7.278,3.231-3.207,1.333-6.439,2.665-9.671,3.972-.489-.244-1.652-.64-8.363-3.651C59.69,152.577,66.869,150.233,67.88,149.888Zm-21.438,7.277c3.059-1.11,6.143-2.171,9.226-3.207,2.788,1.258,5.6,2.517,8.438,3.7-2.862,1.159-5.724,2.319-8.61,3.454C53.137,160.255,47.205,157.513,46.442,157.165Zm10.485,4.515c2.861-1.135,5.723-2.294,8.56-3.454a59.334,59.334,0,0,0,8.092,2.615c-2.787,1.185-5.575,2.344-8.363,3.5C62.472,163.179,60.443,163.047,56.927,161.68Zm44.95-12.853c-2.591,1.061-5.206,2.146-7.8,3.232-2.492-1.037-5.132-1.555-7.673-2.468,2.591-1.06,5.156-2.1,7.747-3.133.024,0,.049.025.074.025C96.77,147.47,99.336,148.062,101.877,148.827Z" fill="#191919"></path><path d="M131.876,146.335c-20.93,11.065-50.207,25.517-71.668,36.143-2.631-.641-48.6-18.779-53.116-20.23,26.588-8.236,46.814-16.45,85.385-28.791a.45.45,0,0,0-.247-.864c-11.008,2.892-21.787,6.924-32.54,10.658C47.573,147.459,12,159.805,6.253,161.606c.3-8.166.052-16.381.1-24.547C6.4,127.832,7.511,34.405,7.585,24.832a.444.444,0,0,0-.888,0C6.129,42.441,4.841,157.586,5.069,162.223a.6.6,0,0,0,.765.543c10.018,3.375,48.322,19.468,54.078,20.822a.615.615,0,0,0,.691-.321c10.114-4.387,67.262-33.373,71.915-35.871C133.208,147.025,132.588,145.958,131.876,146.335Z" fill="#191919"></path></g></svg>