<svg viewBox="0 0 400 400" xmlns="http://www.w3.org/2000/svg"><g transform="matrix(2,0,0,2,0,0)"><path d="M130.785,161.837c-.777-5.884-.49-12.216-.564-18.25-.032-2.707-.668-20.719-.828-27.02a3.782,3.782,0,0,0-4.492-3.621c-10.1,1.884-10.689,2.619-18.929,5.383a.751.751,0,0,0-.334,1.2,2.418,2.418,0,0,1-.684,3.891.717.717,0,0,0-.072,1.228c1.781,1.186.695,3.761-1.338,4.169a6.593,6.593,0,0,1-1.122.111.654.654,0,0,0-.91.753c2.623,10.463,6.459,20.3,9.339,30.566a.843.843,0,0,0,.7.606c1.19.165,2.37.331,3.562.393a.867.867,0,0,0,.848-1.179c-2.731-7.1-2.4-12.213-8.211-28.134a9.153,9.153,0,0,0,4.39-9.289c2.319-.68,4.7-1.289,7.087-1.861.237,3.573,1.878,7.218,5.1,8.734.171,10.727,1.608,21,1.783,31.695.024,1.114,1.259,1.135,3.527,1.579A.9.9,0,0,0,130.785,161.837Z" fill="#37a1ff"></path><path d="M121.19,139.638a4.133,4.133,0,0,0-5.421,0,3.829,3.829,0,0,0-.089,5.507,3.943,3.943,0,0,0,5.6,0A3.828,3.828,0,0,0,121.19,139.638Z" fill="#37a1ff"></path><path d="M104.082,163.819c-4.207-7.252-9.372-14.827-13.15-22.054a10.735,10.735,0,0,0,1.493-7.771c1.974-1.487,3.961-2.92,6.06-4.241a.977.977,0,0,0-.557-1.8c-9.091.355-10.326,4.182-14.948,9.9a.97.97,0,0,0-.108,1.059c1.819,3.5,3.533,5.418,7.744,12.279a4.921,4.921,0,0,0-4.567.622,3.633,3.633,0,0,0-.08,5.651c2.472,2.177,6.6.847,7.086-2.277,2.315,3.793,4.562,7.422,7.26,11.334a.7.7,0,0,0,.532.308c.64.046.806-.876,2.668-2.006A.662.662,0,0,0,104.082,163.819Z" fill="#37a1ff"></path><path d="M89.9,177.088c-7.14-5.216-12.8-8.833-20.2-13.457a5.6,5.6,0,0,0-1.149-6.35,37.851,37.851,0,0,1,2.785-4.243.7.7,0,0,0,.088-.78c-.436-.812-.975-1.627-1.487-2.389a.67.67,0,0,0-.718-.271c-3.795.923-1.512-1.1-5.059,4.113-4.37,6.426-4.915,6.5-5.187,7.742a3.187,3.187,0,0,0,1.423,3.375c9.2,5.784,16.754,11,26.76,16.682a.985.985,0,0,0,.755.09c.729-.21.631-.919,2.212-3.162A.975.975,0,0,0,89.9,177.088Z" fill="#37a1ff"></path><path d="M95.184,171.875a191.16,191.16,0,0,1-15.19-20.513,6.454,6.454,0,0,0,.929-4.826c1.561-1.232,1.19-1.165,2.125-1.909a.96.96,0,0,0,.35-.963c-.438-1.909-.449-2.139-.986-2.372-1.062-.463-2.761,1.513-3.782,2.472-2.062,1.93-3.91,3.65-6.7,3.251A.976.976,0,0,0,71,148.538c4.139,5.889,8.164,10.07,12.627,15.343,3.279,3.821,6.172,7.553,9.625,11.219a.7.7,0,0,0,1.119-.117,18.646,18.646,0,0,1,1.247-2.046A.665.665,0,0,0,95.184,171.875Z" fill="#37a1ff"></path><path d="M82.92,165.166a69.213,69.213,0,0,0-5.3-5.369.978.978,0,0,0-1.626.551c-.852,4.942,2.786,8.442,6.7,6.343a.776.776,0,0,0,.233-1.525Z" fill="#37a1ff"></path><path d="M87.968,185.268l-.28-1.668a.971.971,0,0,0-.831-.846L68.778,180.2A4.48,4.48,0,0,0,64.8,176.13c.087-.517.757-4.5.78-4.588a.9.9,0,0,0-.356-.967,18.185,18.185,0,0,0-3-1.56.865.865,0,0,0-1.213.612c-.268,1.458-.106,1.555-.355,3.481-.369,2.876-.684,5.887-.885,7.863a2.868,2.868,0,0,0,2.554,3.2c8.4.892,15.452,2.026,24.671,2.249A.966.966,0,0,0,87.968,185.268Z" fill="#37a1ff"></path><path d="M95.953,59.36a17.357,17.357,0,0,0-3.336.53c.366,1.491.643,3,.967,4.5.456-.165,2.929-.914,3.008-.929A11.582,11.582,0,0,0,95.953,59.36Z" fill="#37a1ff"></path><path d="M91.162,181.043a92.486,92.486,0,0,1,7.55-11.081c5.19-6.26,9.673-8.731,17.966-8.749a59.051,59.051,0,0,1,18.3,3.332.662.662,0,0,0,.463-1.241,52.935,52.935,0,0,0-18.759-4.02c-8.661-.057-14.023,2.679-19.434,9.5a80.94,80.94,0,0,0-7.222,11.615A.653.653,0,0,0,91.162,181.043Z" fill="#191919"></path><path d="M95.26,184.453a68.991,68.991,0,0,1,14.347-14.05.662.662,0,0,0-.684-1.134,35.554,35.554,0,0,0-4.45,2.762,41.827,41.827,0,0,0-7.437,7.338,36.326,36.326,0,0,0-2.863,4.363A.652.652,0,0,0,95.26,184.453Z" fill="#191919"></path><path d="M101.789,188.29c3.683-3.864,11.656-9.8,14.926-11.953a.663.663,0,0,0-.7-1.128c-5.863,3.17-11.3,6.821-15.231,12.243A.653.653,0,0,0,101.789,188.29Z" fill="#191919"></path><path d="M108.23,195.779c2.66-2.489,13.412-10.249,13.515-10.319,2.291-1.551,3.829-1.452,7-1.109,3.963.429,7.451.857,9.981-2.364a.663.663,0,0,0-1.027-.838c-3.7,4.381-10.738-1.179-16.469,2.313-1.33.81-2.612,1.95-3.689,2.751a72.047,72.047,0,0,0-10.22,8.629A.653.653,0,0,0,108.23,195.779Z" fill="#191919"></path><path d="M178.81,156.322a169.967,169.967,0,0,0-18,2.829,80.239,80.239,0,0,0-4.717-7.138,41.84,41.84,0,0,0-3.833-4.754.653.653,0,0,0-1.045.782,96.022,96.022,0,0,0,8.041,11.453c-3.671.837-4.8,1.308-7.84,2.24a.653.653,0,0,0,.356,1.256c2.512-.643,26.98-5.311,27.251-5.361A.662.662,0,0,0,178.81,156.322Z" fill="#191919"></path><path d="M150.924,180.908c9.765,2.206,21.613,4.154,31.528,2.01,11.316-2.448,19.294-12.059,15.653-23.453-3.953-12.37-12.827-21.2-21.83-30.18a.663.663,0,0,0-.942.932c8.544,8.72,17.319,18.412,20.92,29.835,3.234,10.26-4.007,18.74-14.211,20.991-9.111,2.01-21.833.484-30.838-1.411A.653.653,0,0,0,150.924,180.908Z" fill="#191919"></path><path d="M21.8,153.378c19.6-8.718,28.609-12.978,38.743-16.645,8.58-3.1,11.634-14.671,17.623-21.784,3.85-4.574,7.791-5.937,13.386-5.425,5.1.467,9.269,1.987,13.909,3.927a.662.662,0,0,0,.519-1.219c-4.7-2.035-8.558-3.737-14.258-4.382-6.145-.694-10.686.805-15.008,5.866-5.993,7.018-9.13,18.375-16.835,21.183-14.946,5.446-28.664,12.7-38.618,17.29A.653.653,0,0,0,21.8,153.378Z" fill="#191919"></path><path d="M91.676,114.139c2.586.672.285.177,4.756,1.211,1.162.268,6.586,1.563,7.357,1.764a.663.663,0,0,0,.454-1.245,30.672,30.672,0,0,0-12.366-3.02A.653.653,0,0,0,91.676,114.139Z" fill="#191919"></path><path d="M91.354,120.306c4.868,1.189,9.011,1.761,11.664,2.371a.663.663,0,0,0,.422-1.256,28.322,28.322,0,0,0-11.909-2.408A.653.653,0,0,0,91.354,120.306Z" fill="#191919"></path><path d="M68.28,146.11c-13.273,12.85-26.134,29.167-44.117,36-8.585,3.264-19.614,2.352-22.457-6.4C-.606,168.6,3.2,158.462,7.224,147.842c2.755-7.268,6.5-13.478,9.72-19.632a.662.662,0,0,1,1.172.614c-3.759,7.245-9.541,17.17-14.013,33.766-1.043,3.87-1.845,8.742-.592,12.537,2.526,7.653,12.6,7.972,19.959,5.166,17.573-6.7,30.47-23.029,43.887-35.9a.937.937,0,0,1,.914-.224c3.464,1.016,6.148-.235,8.438-2.373,5.881-5.495,7.78-14.1,15.757-16.137,3.437-.877,7.177-.235,11.251.919a.653.653,0,0,1-.353,1.257,23.463,23.463,0,0,0-8.822-1.07c-6.424.759-8.873,5.959-12.485,11.25C78.5,143.228,74.452,147.577,68.28,146.11Z" fill="#191919"></path><path d="M88.391,57.121a7.854,7.854,0,0,0-3.263,1,16.041,16.041,0,0,0-3.982,2.893.662.662,0,0,0,.728,1.107c.5-.233.992-.441,1.477-.7.4-.216,4.347-2.575,5.386-3.041A.653.653,0,0,0,88.391,57.121Z" fill="#191919"></path><path d="M92.063,57.54a21.146,21.146,0,0,0,2.375.154,43.3,43.3,0,0,0,5.5-.158.662.662,0,0,0,.12-1.319,19.547,19.547,0,0,0-2.016-.406,22.63,22.63,0,0,0-4.082.008,14.533,14.533,0,0,0-2.009.421A.652.652,0,0,0,92.063,57.54Z" fill="#191919"></path><path d="M18.321,28.471A15.856,15.856,0,0,0,2.27,44.242a16.054,16.054,0,1,0,32.108,0A15.856,15.856,0,0,0,18.321,28.471Zm0,1.315A14.374,14.374,0,0,1,32.5,44.242a14.183,14.183,0,0,1-28.365,0A14.373,14.373,0,0,1,18.321,29.786Z" fill="#37a1ff"></path><path d="M170.729,2.826a13.659,13.659,0,0,0-16.575,10.05,13.83,13.83,0,1,0,26.921,6.347A13.658,13.658,0,0,0,170.729,2.826Zm-.26,1.1A12.381,12.381,0,0,1,179.5,18.852a12.218,12.218,0,0,1-23.784-5.607A12.381,12.381,0,0,1,170.469,3.929Z" fill="#37a1ff"></path><path d="M171.2,52.378a12.683,12.683,0,0,0-12.84,12.615,12.842,12.842,0,1,0,25.684,0A12.682,12.682,0,0,0,171.2,52.378Zm0,1.051a11.5,11.5,0,0,1,11.342,11.564,11.345,11.345,0,0,1-22.69,0A11.5,11.5,0,0,1,171.2,53.429Z" fill="#37a1ff"></path><path d="M18.911,42.972c-.051-1.054-.139-2.838-.235-3.869a15.961,15.961,0,0,1,2.051-.273.652.652,0,0,0-.044-1.3c-.7.007-1.441,0-2.182.067-.083-.621-.175-1.241-.265-1.863a.654.654,0,0,0-1.3.093c-.006.673-.035,1.34-.048,2.013-4.683,1.046-4.982,4.433-2.457,5.811a11.679,11.679,0,0,0,2.607.862c.118,1.717.228,2.95.367,4.279-1.355.168-1.882.3-2.841.429a.663.663,0,0,0,.154,1.316l2.842-.155c.039.478.09,1.237.1,1.8a.663.663,0,0,0,1.323.086q.132-.968.187-1.953a6.727,6.727,0,0,0,1.306-.193C23.522,49.3,25.115,44.694,18.911,42.972ZM14.8,41.1c.259-.682,1.387-1.245,2.067-1.5,0,.95.033,1.956.072,2.881C16.151,42.27,14.508,41.853,14.8,41.1Zm6.365,6.183a2.163,2.163,0,0,1-1.905,1.287c-.066.01-.025.122-.079-1.065-.128-2.7-.271-2.495.01-2.392C20.25,45.5,21.539,46.218,21.161,47.279Z" fill="#37a1ff"></path><path d="M168.926,11.811a13.771,13.771,0,0,1,1.773.177.563.563,0,0,0,.222-1.1c-.59-.133-1.209-.283-1.843-.375.053-.537.1-1.075.146-1.614a.563.563,0,0,0-1.112-.18c-.138.563-.294,1.117-.438,1.678-4.124-.048-5.059,2.728-3.209,4.387a10.112,10.112,0,0,0,2.016,1.238c-.208,1.26-.379,2.405-.539,3.66-1.149-.125-1.65-.125-2.467-.2a.571.571,0,0,0-.13,1.134l2.413.432c-.075.488-.167,1.047-.272,1.527a.571.571,0,0,0,1.093.334q.3-.786.543-1.6a5.748,5.748,0,0,0,1.133.1c2.147-.066,3.834-2.258,2.467-4.316a6.512,6.512,0,0,0-2.364-1.983C168.524,14.208,168.8,12.7,168.926,11.811Zm.409,6.213c.561.816-.031,1.967-1.835,1.832.228-1.011.353-1.882.541-2.99A4.241,4.241,0,0,1,169.335,18.024Zm-4.072-4.875c-.346-.746,1.231-1.178,2.046-1.285-.195.834-.346,1.575-.509,2.43C166.332,14.046,165.46,13.594,165.263,13.149Z" fill="#37a1ff"></path><path d="M171.793,63.723c-.05-1.043-.138-2.842-.235-3.869a16.187,16.187,0,0,1,2.051-.273.652.652,0,0,0-.044-1.3c-.7.007-1.441,0-2.182.068-.082-.622-.174-1.242-.265-1.864a.654.654,0,0,0-1.3.093c-.006.673-.035,1.34-.048,2.013-4.675,1.045-4.985,4.432-2.456,5.812a11.72,11.72,0,0,0,2.606.861c.118,1.717.228,2.95.367,4.279-1.355.168-1.881.3-2.841.429a.663.663,0,0,0,.155,1.316l2.841-.155c.039.478.09,1.237.1,1.8a.663.663,0,0,0,1.323.086q.132-.968.187-1.952a6.793,6.793,0,0,0,1.306-.193C176.42,70.045,177.973,65.439,171.793,63.723Zm-4.115-1.876c.26-.682,1.386-1.244,2.067-1.5,0,.95.033,1.957.072,2.881C169.034,63.021,167.39,62.6,167.678,61.847Zm6.366,6.183a2.16,2.16,0,0,1-1.906,1.287c-.066.01-.024.122-.079-1.065-.127-2.7-.271-2.495.01-2.392C173.133,66.246,174.421,66.969,174.044,68.03Z" fill="#37a1ff"></path><path d="M148.427,164.98q-.166-1.535-.4-3.049a.974.974,0,0,0-1.039-.81c-2.288.185-4.527.516-6.788.76a.982.982,0,0,0-.863,1.121q.173,1.125.3,2.261a4.662,4.662,0,0,0,.507,7.382c.037,1.048.193,6.859.244,8.7a.823.823,0,0,0,.812.813c.1,0,7.85-.19,7.049-1.571a78.353,78.353,0,0,0,.55-8.4A4.627,4.627,0,0,0,148.427,164.98Zm-4.234,6.878c-2.458.007-4.142-1.622-4.158-3.209-.085-2.576,3.954-5.01,7.1-2.444C149.749,168.348,147.857,171.866,144.193,171.858Z" fill="#191919"></path><path d="M18.676,121.574c2.448,2.242,14.892,14.345,18.76,18.063a.662.662,0,0,1-.914.958c-3.876-3.711-16.836-16-19.493-18.381a.791.791,0,0,1-.06-1.115C31.5,104.74,54.171,90.374,75,85.614a.967.967,0,0,1,1.112.587c1.2,3.014,4.038,4.88,6.863,6.5,10.378,5.958,26.754,1.071,32.432-9.593a.98.98,0,0,1,.917-.518c26.786,1.446,52.944,16.088,66.926,38.736a.868.868,0,0,1-.3,1.208c-12.406,7.137-24.781,15.388-34.835,25.583a.653.653,0,0,1-.932-.914c9.977-10.225,21.8-18.485,34.123-25.714-13.882-21.641-39.22-35.37-64.473-36.91C110.4,95.807,93.173,100.812,82,94.389c-2.964-1.7-5.841-3.653-7.351-6.712C54.6,92.427,32.526,106.422,18.676,121.574Z" fill="#191919"></path><path d="M46.573,171.264c.229,3.529.494,15.975.979,21.069.148,1.547.375,3.079.542,4.624a.662.662,0,0,0,1.32-.109c-.626-10.272-.059-15.358-1.54-25.7A.653.653,0,0,0,46.573,171.264Z" fill="#191919"></path><path d="M104.3,144.607a4.777,4.777,0,0,0-5.652,0,3.633,3.633,0,0,0-.081,5.651,4.484,4.484,0,0,0,5.811,0A3.629,3.629,0,0,0,104.3,144.607Z" fill="#37a1ff"></path><path d="M113.166,83.208a52.491,52.491,0,0,0-9.815-2.379c-.111-1.871-.347-3.632-.447-5.456,3.363-3.4,3.939-8.618,4.451-13.328a27.688,27.688,0,0,0,.037-6.7c8.8-2.351,8.259-11.765,2.468-13.123a6.175,6.175,0,0,0,.055-5.787,6.177,6.177,0,0,0-1.861-8.565c.783-3.455-1.019-7.816-4.649-7.35a3.967,3.967,0,0,0-3.241-2.633c.013-5.089-4.27-8.975-10.763-5.163a4.965,4.965,0,0,0-1.707-1.536c-2.922-1.478-7.492-.4-8.8,2.723-4.661-2.315-10.3,1.954-9.632,7.2a7.2,7.2,0,0,0-3.84,9.909,6.332,6.332,0,0,0-.211,9.92,5.84,5.84,0,0,0,2.463,7.591c1.035,5.6,1.277,3.483.356,4.03-5.936,3.29-4.145,14.425,5.852,12.7,1.823,5.685,5.056,11.96,10.781,13.749.131,1.141.3,1.971.52,3.189-2.206,1.21-4.26,2.162-6.5,3.432a.663.663,0,0,0,.627,1.168c2.438-1.23,4.62-2.081,7.218-3.392.806-.428.32-1.073,0-4.268,4.918,1.4,10.252-.041,14.553-2.709.155,1.744.421,3.425.539,5.219a.881.881,0,0,0,.778.831,55.74,55.74,0,0,1,10.353,1.99A.663.663,0,0,0,113.166,83.208ZM74.138,34.156c2.653-.348,4.558-2.847,4.908-5.464,2.464,1.061,5.327-.38,6.683-2.706a5.648,5.648,0,0,0,6.287-.6,6.487,6.487,0,0,0,6.041,2.684c.095,2.469,1.285,4.715,3.647,5.367a10.19,10.19,0,0,0,2.571,5.369c-10.83-.726-19.935-.119-31.335,5.207a5.4,5.4,0,0,0-.9-3.623A6.421,6.421,0,0,0,74.138,34.156ZM82,56.374a7.4,7.4,0,0,1-4.041,1.664c.825-1.969,6.262-15.337,6.64-16.307,1.435-.391,2.905-.73,4.236-.989C86.482,45.928,84.245,51.01,82,56.374ZM97.945,64.1c-1.014,1.919-2.689,4.019-4.723,4.724a7.006,7.006,0,0,1-6.7-1.476C89.99,66.118,94.381,64.944,97.945,64.1Zm-12.49,2.2a7.329,7.329,0,0,1-1.294-2.162,14.827,14.827,0,0,1,2.629-1.5,47.2,47.2,0,0,1,12.451-2.879,9,9,0,0,1-.59,2.756,22.736,22.736,0,0,0-3.476.326,42.954,42.954,0,0,0-6.967,2A20.308,20.308,0,0,0,85.455,66.3Zm15.792,5.448A13.885,13.885,0,0,1,96.1,74.806c-.279-1.419-.621-3.366-1.752-4.393,3.746-1.734,6.435-7.077,6.208-10.9a.661.661,0,0,0-.485-1.109,40.489,40.489,0,0,0-8.166.809,20.772,20.772,0,0,0-9.487,3.819.966.966,0,0,0-.328,1.006A9.844,9.844,0,0,0,91.1,71.079c-.665,1.1-.28,2.242-.073,3.393.08.446.18.936.287,1.387-6.26.375-11.65-3.343-14.451-9.009-.473-1.016-1.236-2.511-1.382-3a.975.975,0,0,0-1.16-.666c-8.658,2.115-9.988-6.758-5.632-9.5.4-.232.1-.556.5.3,1.824,3.9,5.783,6.729,9.991,5.864,4.73-.978,7.2-5.633,8.835-7.072a15,15,0,0,0,.894,3.534.662.662,0,0,0,1.311-.19,13.867,13.867,0,0,0-.373-4.244c2.84-.412,5.475,2.343,9.592,1.794,4.672-.621,8.033-4.458,7.863-10.734.029-.005.059-.009.089-.012.274.557.771.236,2.2.667a3.791,3.791,0,0,1,2.781,3.486c.4,3.644-2.726,5.938-6.258,6.589a.963.963,0,0,0-.617.4c-.6.895.72.742-.262,9.321A18.2,18.2,0,0,1,101.247,71.747Z" fill="#191919"></path></g></svg>