<svg viewBox="0 0 400 400" xmlns="http://www.w3.org/2000/svg"><g transform="matrix(2,0,0,2,0,0)"><path d="M123.721,99.988c-5.925,0-8.687,4.534-8.855,9.584s4.1,8.044,8.855,8.195,8.629-4.755,8.687-8.415S130.722,99.988,123.721,99.988Zm.11,14.478s-4.79-4.685-4.79-4.882,2.5-.261,2.595-.37.053-4.842.18-5.155,3.475-.3,3.66-.2.272,5.212.405,5.321,2.74,0,2.774.162C128.694,109.521,123.352,114.935,123.831,114.466Z" fill="#37a1ff"></path><path d="M111.838,101.239c-7.164-.08-14.328-.087-21.486-.116-.533,0-.551.932,0,.938,7.163.069,14.322.156,21.486.168C112.417,102.229,112.417,101.245,111.838,101.239Zm-13.616,3.04a.446.446,0,0,0,0,.886c4.772.168,10.7.736,15.364.544.568-.011.713-.9.128-.983C113.714,104.558,102.775,104.228,98.222,104.279Z" fill="#191919"></path><path d="M142.4,77.089c-.437-4.187-1.882-5.027-5.282-5.1-.486,0-5.293-.052-12.161-.11.052,1.28.1,2.577.121,3.788H138.3c.295,5.05,3.144,42.715,3.144,44.181-3.88.22-73.184,1.042-74.5.967.3-12.654.77-42.907.915-45.618H83.738V71.541c-7.343-.064-12.856-.116-14.177-.139-3.3-.064-4.905,3.041-4.992,5.525-.15,4.094-1.042,35.906-.973,47.291,3.075.145,67.961-.075,81.935-.364C145.566,122.244,142.887,81.775,142.4,77.089Z" fill="#191919"></path><path d="M169.681,137.845c-6.053-3.786-16.054-10.418-22.326-13.065-.608-.255-1.117.579-.515.915,7.835,4.5,15.1,8.218,22.586,13.587,6.254,4.488-1.656,7.922-6.342,8-39.073.655-79.832.336-119.543-.677-4.4-.116-5.212-3.863-1.042-7.054,3.857-2.971,8.194-5.34,12.3-7.928,2.438-1.541,4.894-3.047,7.315-4.6.613-.394.1-1.39-.545-1.008q-7.436,4.412-14.773,9a51.028,51.028,0,0,0-6.429,4.5c-6.752,5.792,2.207,14.479,11.178,14.641,9.984.168,109.819.347,112.9-.238C170.6,152.752,178.609,143.43,169.681,137.845Zm-16.3-3.179c.319.382.3,1.083-.319,1.071-30.363-.457-60.808.122-91.154-.451-.678,0-.759-1.06-.064-1.066,29.715-.324,59.552.452,89.3.3-2.259-1.737-6.232-4.755-8.149-6.469-24.63.487-53.69.2-76.1.173-.411.58-7.557,6.238-8.524,6.881a.511.511,0,1,1-.666-.776c.747-.748,8.27-7.21,8.687-7.21,28.417.1,51.293-.18,76.375-.238a1.357,1.357,0,0,1,.822.232c.956.643,9.509,7.262,9.747,7.529Zm-30.966,9.353a.649.649,0,0,1-.614.747c-11.165,0-23.165.4-34.267-.035-.469,0-.457-.58-.33-.921.463-1.355,2.114-5.154,3.237-5.855.336-.214.95,0,.846.469s-2.276,3.788-2.751,5.056c10.639-.359,21.839.122,32.53.116a20.639,20.639,0,0,0-2.062-4.952c-8.392.1-17.142.325-25.482.076-.642,0-.752-.991-.081-1.025,8.461-.458,17.374-.1,25.887-.2a.7.7,0,0,1,.707.325C120.889,139.305,122.308,142.444,122.418,144.019Z" fill="#191919"></path><path d="M90.885,54.254c-1.373.33-4.72.875-4.83,4.633-.423,14.368-.249,32.3-.435,46.591-.029,2.23,1.929,3.527,3.938,4.1,2.178.62,16.94.423,23.432.579.915,0,.7-1.372-.214-1.407-6.278-.208-20.5-.215-21.747-.446-4.053-.747-4.082-2.612-4.053-5.6.04-3.365,1.158-4.436,4.783-4.523,10.036-.22,20.848.452,30.949.678a.679.679,0,0,0,.683-.794c-.452-5.629.712-41.315-1.025-43.122C122.579,53.664,92.309,53.911,90.885,54.254Zm9.2,22.134c.834-.046,10.251.053,11.293.244a.661.661,0,0,1-.052,1.262c-1.019.133-10.488-.26-11.293-.347a.58.58,0,0,1,.052-1.159ZM95.836,71.53c2.786-.151,16.094-.684,18.451-.093a.626.626,0,0,1-.035,1.2c-2.264.58-15.734.186-18.451.064a.594.594,0,1,1,.035-1.187Z" fill="#37a1ff"></path><path d="M184.309,68.315c-7.526-2.487-19.6-3.892-26.593-3.046-2.942-10.43-12.66-17-18.885-19.407-.58-.225-.69-.335-1.037.336-3.029,5.919-7.905,12.851-11.7,18.318-.365.521.457,1.066.827.579,3.574-5,9.134-12.741,11.751-18.184,12.544,5.565,15.955,13.157,18.1,18.792-3.336,4.743-6.706,9.521-9.88,14.38-.284.434.446.944.758.521,3.418-4.673,6.69-9.468,9.973-14.24,8.4-.921,21.179,1.123,26.484,2.965-1.691,2.8-17.084,28.342-17.125,28.834-5.125-2.241-12.7-4.407-18.294-4.447a.5.5,0,1,0-.041,1c7.007,1,10.807,1.511,17.281,4.291,1.083.469,1.158.689,1.94-.521,5.919-9.434,11.872-19.3,17.444-28.956C185.5,69.155,185.445,68.69,184.309,68.315Z" fill="#191919"></path><path d="M184.529,76.77c-5.014,9.213-14.113,23.878-17.449,30.115-2.82-2.009-17-7.529-20.848-8.548a.579.579,0,0,0-.359,1.095,122.845,122.845,0,0,1,18.387,7.644c3.26,1.662,2.954,2.085,4.766-.863,3.689-6,12.295-21.306,16.673-28.782C186.082,76.77,184.9,76.092,184.529,76.77Z" fill="#37a1ff"></path><path d="M173.769,123.784c-.509-1.019-.087-1.558-.521-1.975s-1.39.342-.62,2.2c.285.684,1.454,2.317,2.01,1.517C174.963,125.047,174.059,124.363,173.769,123.784Zm19.019-20.333c-.538-1.049-.348-2.56-.579-2.9-.3-.5-1.373-.307-.979,1.807C191.734,105.026,193.227,104.309,192.788,103.451Z" fill="#191919"></path><path d="M53.606,123.24c-4.763,3.479-14.739,10.106-20.414,11.877-4.054,1.28-5.577-2.738-2.513-5.923,5.385-5.595,18.578-10.767,20.761-13.454C52.853,114,33.678,98.534,29.323,96.165c-.532-.289-13.708,7.245-15.318,8.108-5.727,3.122-12.792,8.594-6.6,15.474,5.074,5.653,13.731,12.741,20.5,16.135a7.317,7.317,0,0,0,5.919.318,107.315,107.315,0,0,0,20.495-11.929C54.967,123.8,54.255,122.765,53.606,123.24ZM25.681,126.8A207.062,207.062,0,0,1,8.544,112.456c-.509-.491.226-1.239.759-.787,5.687,4.83,11.351,9.665,17.327,14.136C27.337,126.332,26.385,127.333,25.681,126.8Z" fill="#37a1ff"></path><path d="M52.211,122.585c-1.657-.747-1.778-1.911-1.663-3.474.058-.794-1.627-1.263-1.389,1.158.26,2.594,2.855,3.9,3.254,2.971A.528.528,0,0,0,52.211,122.585Z" fill="#191919"></path><path d="M18.656,84.49c-.272-.579-1.263-.307-1.077.342.683,2.374,3.671,11.148,5.009,13.21.394.579,1.3.064,1.2-.579-.365-2.276-4.1-10.911-5.131-13Zm43.678,21.428c-.262-.512-.713-.365-1.1-.151a4.729,4.729,0,0,1-3.04.313c-.22-.046-8.328,3.046-9.127,3.4-.579.254-.272,1.314.359,1.094,3.046-1.042,6.075-2.148,9.115-3.226C60.017,107.783,62.923,107.071,62.334,105.918Z" fill="#37a1ff"></path><path d="M74.791,68.761c-.324-1.12-5.618-10.36-6.556-11.988-.579-1.007-.487-.99-1.425-.515C62.264,58.574,46.355,68.8,44.8,72.085c-6.723-.834-18.265.168-25.174,3.88-.4.221-.5.545-.3,1.159,2.12,6.37,4.182,13.169,6.614,19.354a.58.58,0,0,0,1.06-.405c-1.865-6.371-4.436-12.967-6.66-19.256a42.108,42.108,0,0,1,24.41-3.394c4.257,9.4,7.893,18.411,12.718,28.209-3.666,1.327-7.35,2.606-11,4.014-.579.22-.22,1.054.348.868,1.007-.324,11.843-3.983,11.86-4A10.918,10.918,0,0,1,62.1,99.988.58.58,0,0,0,61.621,99a10.3,10.3,0,0,0-3.046,2.132c-3.017-6.794-9.2-20.351-12.839-28.418,5.374-5.722,13.123-10.668,21.636-15.33,1.494,2.786,4.807,8.317,6.585,11.924C74.194,69.792,74.921,69.212,74.791,68.761Z" fill="#191919"></path><path d="M194.172,104.261c-2.5,3.169-10.483,12.973-19.865,23.594l-16.139-5.114c-2.711-.856-8.52-3.653-5.068-7.215,6.614,1.824,12.231,2.965,18.781,5.524a1.031,1.031,0,0,0,.985-.248c5.078-5.791,16.048-16.8,19.69-22.662.208-.335.284-.724-.342-1.082-1.6-.927-10.036-3.643-12.856-4.24-2.942,5.421-9.081,16.8-11.085,17.229-1.766.382-6.95-2.125-10.053-3.683-2.288,2.8-4.379,5.728-6.492,8.629-3.655,5.033,2.744,8.055,6.59,9.266,5.12,1.616,10.3,3.029,15.353,4.853,1.2.428,1.06.11,2.1-.973,4.633-4.842,18.485-21.143,19.2-23.206C195.145,104.505,194.489,103.861,194.172,104.261Z" fill="#37a1ff"></path></g></svg>