<svg viewBox="0 0 400 400" xmlns="http://www.w3.org/2000/svg"><g transform="matrix(2,0,0,2,0,0)"><path d="M45.621,97.149c-.087-.171-.731-4.952-1.155-7.251a34.675,34.675,0,0,0-1.213-4.817.59.59,0,0,0-1.024-.14c-1.214,1.657-2.234,3.844-3.482,5.244a33.987,33.987,0,0,1-7.48,6.809c-5.827,3.5-13.558,4.095-18.3-.771a.637.637,0,0,0-1.081.59c.642,2.728,1.658,6.38,2.466,9.07a.627.627,0,0,0,.647.459c3.217-.227,6.126-1.323,9.185-2.106,8.28-2.135,12.9-3.777,21.171-6.562A.42.42,0,0,0,45.621,97.149Z" fill="#37a1ff"></path><path d="M114.149,68.891c-1.271.129-1.855.172-2.835.344a.634.634,0,0,1-.565-1.065c3.119-3.272,6.946-7.1,10.16-10.233a.643.643,0,0,1,.876-.025c3.441,3.126,7.106,5.812,10.635,9.144a.629.629,0,0,1-.393,1.089l-2.655.131c.061,1.678.321,8.344.361,9.095a.405.405,0,0,1-.336.606c-5.688.41-14.147.739-14.478.754a.614.614,0,0,1-.639-.59c-.087-1.968,0-3.468.009-5.481C114.289,71.482,114.186,69.973,114.149,68.891Zm7.227-9.627c-2.538,2.485-5.943,5.894-8.439,8.472.581-.066,1.171-.115,1.761-.181a.634.634,0,0,1,.705.631c0,.1.1,9.191.1,9.291,5.4-.214,8.21-.171,13.4-.3a70.222,70.222,0,0,1-.795-9.479.625.625,0,0,1,.59-.639l1.754-.09C127.6,64.394,124.2,61.786,121.376,59.264Z" fill="#191919"></path><path d="M20.818,61.135c0,.058.166,1.689.237,2.18.106.746.278,1.5.418,2.065a.42.42,0,0,0,.475.352.41.41,0,0,0,.344-.467c-.033-.565-.008-1.319-.033-2.064-.02-.4-.158-2.3-.254-2.589a.648.648,0,0,0-.311-.418,4.221,4.221,0,0,1-1.409-2.516.629.629,0,0,0-.672-.475,1.17,1.17,0,0,1-1.2-1.769c.455-.821.851-.754.663-1.18-.22-.422-.968-.066-1.335.2a2.013,2.013,0,0,0-.68,2.27,2.415,2.415,0,0,0,2.105,1.745A5.184,5.184,0,0,0,20.818,61.135Z" fill="#191919"></path><path d="M26.884,52.586a7.4,7.4,0,0,0-.279-1.368c-.18-.541-.239-1.031-.656-.983-.391.045-.353.456-.377,1.114a10.21,10.21,0,0,0,.132,1.975.64.64,0,0,0,.762.541c.779-.165,1.851.379,1.556,1.261a1.647,1.647,0,0,1-1.13.893.624.624,0,0,0-.451.656c.224,2.839-.687,3.394-1.657,3.758a2.371,2.371,0,0,1-.884.131c-.274-.005-.7.137-.787.352-.126.294.348.771.451.812.526.32,1.548-.005,2.09-.282.141,1.4.218,1.481.476,3.061a.415.415,0,1,0,.827-.073,35.658,35.658,0,0,0-.139-3.81,5.465,5.465,0,0,0,.926-3.572A2.288,2.288,0,0,0,26.884,52.586Z" fill="#191919"></path><path d="M25.458,56.657c-.282-.2-1.188.5-1.295.549A1.748,1.748,0,0,1,22.7,57c-.1-.062-.65-.3-.82-.221-.333.163-.265.736-.106,1.024a2.487,2.487,0,0,0,2.966.524,1.8,1.8,0,0,0,.582-.491C25.494,57.573,25.808,56.9,25.458,56.657Z" fill="#191919"></path><path d="M24.3,54.531c-.1-.533-.187-1.053-.335-1.573-.095-.333-.463-.72-.713-.7-.322.03-.621.493-.451,1.385.09.467.2.934.328,1.393C23.548,56.437,24.588,56.144,24.3,54.531Z" fill="#191919"></path><path d="M21.437,52.655c.345,0,.615.41.615.91,0,.516-.27.926-.615.926s-.614-.41-.614-.926C20.823,53.065,21.1,52.655,21.437,52.655Z" fill="#191919"></path><path d="M24.91,51.927c.344,0,.614.41.614.909,0,.517-.27.926-.614.926s-.615-.409-.615-.926C24.3,52.337,24.574,51.927,24.91,51.927Z" fill="#191919"></path><path d="M28.662,47.335a1.177,1.177,0,0,1,.271,1.622,3.371,3.371,0,0,1-2.041,1.557.423.423,0,0,1-.532-.246.416.416,0,0,1,.246-.533A2.583,2.583,0,0,0,28,48.5c.037-.091.08-.21-.009-.254a.857.857,0,0,0-.581.033.618.618,0,0,1-.738-.312.6.6,0,0,1,.221-.77c1.211-.813,2.611-2.56,2.327-3.859-.162-.551-.436-.375-1.057.082-1.608,1.263-2.166,2.113-4.53,2.9a29.57,29.57,0,0,0-3.6,1.057A2.174,2.174,0,0,0,18.65,49.6a14.925,14.925,0,0,0,.434,3.1.4.4,0,0,1-.27.492.391.391,0,0,1-.483-.279c-.84-2.518-1.5-4.784.516-6.276,1.252-.906,3.192-1.116,4.375-1.516,2.106-.7,2.816-1.664,4.162-2.7a2.242,2.242,0,0,1,2-.63,1.549,1.549,0,0,1,.983.975C30.95,44.312,29.86,46.178,28.662,47.335Z" fill="#191919"></path><path d="M26.5,48.545c-.224-.247-.341-.2-1.459.393a13.619,13.619,0,0,1-1.958,1,18.09,18.09,0,0,1-2.556.68c-.551.11-.865.119-.885.475-.022.391.381.448.909.541,1.507.274,4.171-.836,5.178-1.713C26.093,49.6,26.816,48.911,26.5,48.545Z" fill="#191919"></path><path d="M39.414,72.534a.426.426,0,0,0-.582.058,10.8,10.8,0,0,0-2.589,4.883,46.038,46.038,0,0,0-9.578,4.7c-.77.524-1.482,1.106-2.2,1.679a.4.4,0,0,0-.09.558.383.383,0,0,0,.54.09c.475-.279.943-.533,1.418-.8A65,65,0,0,1,37,78.54a.616.616,0,0,0,.4-.467,14.205,14.205,0,0,1,2.081-4.957A.42.42,0,0,0,39.414,72.534Z" fill="#191919"></path><path d="M46.544,75.481a11.008,11.008,0,0,0-5.317.123c-.48.2-.865.324-.762.721.1.359.44.278.974.278a10.431,10.431,0,0,0,1.131-.057,21.857,21.857,0,0,1,3.793.123c1.12.026,1.4.019,1.475-.344C47.929,75.877,47.315,75.7,46.544,75.481Z" fill="#191919"></path><path d="M46.114,78.011a14.48,14.48,0,0,0-2.941-.287c-.168.015-1.114.18-1.106.606.007.375.907.559,1.008.574s2.658.311,2.761.319c.6,0,1.287.038,1.368-.4S46.3,78.051,46.114,78.011Z" fill="#191919"></path><path d="M46.308,80.116a9.577,9.577,0,0,0-2.671-.066c-.241.052-1.014.327-.967.721.064.413.924.492,1.344.492,2.048.048,1.649.073,2.114.073C47.724,81.336,47.8,80.414,46.308,80.116Z" fill="#191919"></path><path d="M41.993,84.4c-3.581,5.2-7.911,10.654-13.781,13.142a13.838,13.838,0,0,1-13.478-1.188,12.549,12.549,0,0,1-4.965-6.776.386.386,0,0,1,.278-.483.4.4,0,0,1,.484.278,12.412,12.412,0,0,0,4.891,5.965,12.746,12.746,0,0,0,12.3,1.024c4.748-2.023,8.32-6.055,11.446-10.069.713-.91,1.417-1.819,2.089-2.729a.556.556,0,0,1,.41-.221c1.252-.021,2.97-.243,4.219-.172a.41.41,0,1,1-.016.819C44.568,84.021,43.322,84.281,41.993,84.4Z" fill="#191919"></path><path d="M64.116,75.917a4.337,4.337,0,0,0-.762-.05c-.224,0-.791.274-.8.582-.012.325.429.569.737.672a5.22,5.22,0,0,0,.721.041c.218,0,.8-.207.836-.533C64.885,76.257,64.337,75.953,64.116,75.917Z" fill="#191919"></path><path d="M64,80.475a2.784,2.784,0,0,0-.664.009c-.185.03-.723.354-.713.655.01.241.488.556.746.6a4.013,4.013,0,0,0,.639-.008c.294-.05.746-.311.746-.631S64.174,80.475,64,80.475Z" fill="#191919"></path><path d="M67.7,73.173c-3.515,0-4.017.218-6.573.315.008-.384.023-.769.032-1.149a.637.637,0,0,0-.623-.663c-7.125-.208-13.374.232-16.878.385a.44.44,0,0,0-.43.442v1.7a.407.407,0,0,0,.381.418.39.39,0,0,0,.41-.377l.073-1.286c9.4.042,9.99-.162,15.764-.033-.135,3.788.273,8.3.2,12.249-4.432.526-9.48.115-15.592.115V85.26a.408.408,0,0,0-.36-.459.423.423,0,0,0-.459.361c-.068.494-.124.679.041.852a.47.47,0,0,0,.311.131c4.475.2,10.71,1.008,16.763.229a.635.635,0,0,0,.558-.614c.016-.564.023-1.132.023-1.7.889.016,5.026.059,6.189.075a.635.635,0,0,0,.631-.623c.111-3.3.164-6.636.164-9.7A.63.63,0,0,0,67.7,73.173Zm-.8,9.692a46.732,46.732,0,0,0-5.578.27c-.017-1.313-.064-2.63-.109-3.94a4.948,4.948,0,0,0,1.7.225c.781.028,3.365.2,3.391-.565.021-.563-1.318-.662-1.884-.68a19,19,0,0,0-3.235.026c-.042-1.3-.078-2.591-.072-3.858a49.868,49.868,0,0,0,5.937.091C67.023,77.859,66.962,80.93,66.9,82.865Z" fill="#191919"></path><path d="M43.316,70.867c-2.041-3.384-6.229-5.388-10.061-6.35a13.664,13.664,0,0,0-4.605-.467.6.6,0,0,0-.516.664,2.314,2.314,0,0,1-2.221,2.7c-2.247.041-4.669-2.738-7.365-2.073-6.025,1.583-11.475,8.345-13,14.371A16.829,16.829,0,0,0,6.2,90.2a.633.633,0,0,0,.967.287A10.764,10.764,0,0,1,9.33,89.359c3.481-1.454-5.29,2.271,13.724-5.612a.628.628,0,0,0,.336-.836c-.656-1.474-2-4.276-1.877-5.444a.143.143,0,0,1,.183-.123c1.482.443,1.678,3.384,2.357,5.215a.579.579,0,0,0,.435.385c.714.208.749-.833,4.391-2.622a59.823,59.823,0,0,1,6.547-2.581.6.6,0,0,0,.376-.418,9.938,9.938,0,0,1,3.089-5.243c.309-.2.553-.3.771,0,.526.72.442,2.08.467,3.129a.485.485,0,0,0,.639.459c1.361-.482,1.7-.18,1.991-.516.259-.3-.085-.653.016-2.335A6.861,6.861,0,0,1,43,71.465.393.393,0,0,0,43.316,70.867Z" fill="#37a1ff"></path><path d="M140.855,82.388v5.948c-3.251,0-14.215.7-20.008.844-6.554.164-13.117-.025-19.68.082-2.327.032-5.235.278-7.4-.787-2.581-1.27-.869-4.088,1.073-4.924l.262.1C110.867,81.722,127.962,83.343,140.855,82.388Z" fill="#37a1ff"></path><path d="M154.068,82.947c-2.558-2.559-9.526-1.4-13.9-1.155-15.025.836-29.994-.607-44.976,1.208a.67.67,0,0,0-.6-.033c-3.13,1.33-4.925,6.23,2.015,6.9.638.065,18.241.017,18.345.017,11.561-.049,16.141-.823,25.067-.9,5.342-.044,10.343.13,12.74-.958a3.259,3.259,0,0,0,2.18-2.851A2.923,2.923,0,0,0,154.068,82.947Zm-57.332,5.64c-1.095-.112-3.067-.468-3.539-1.466-.418-.952.62-2.31,1.679-2.876.371.154,3.927-.634,13.748-.885,10.482-.262,21.835.284,31.828-.313l-.068,4.655C118.794,88.713,98.489,88.77,96.736,88.587Zm54.612-1.412c-2.146.6-5.3.539-10.018.514l-.071-4.7c3.343-.242,12.563-1.439,12.391,2.127C153.6,86.265,152.577,86.831,151.348,87.175Z" fill="#191919"></path><path d="M50.351,151.415c-1.02-2.9-5.887-.531-8.739-3.645a329.028,329.028,0,0,0-4.825-47.553.392.392,0,0,0-.279-.729c-.1,0-10.389,2.3-15.207,4.416a.523.523,0,0,0-.3.549c.6,3.913.317,8.539.451,12.486.4,10.034.845,20.535.541,30.659a.63.63,0,0,0,.582.647A13.331,13.331,0,0,1,19,150.193c-1.963.812-4.549,1.733-5.006,2.556a1.046,1.046,0,0,0,.287,1.229,3.33,3.33,0,0,0,1.122.647,5.385,5.385,0,0,0,1.737.287c.1,0,6.056-.208,7.358-.926a2.594,2.594,0,0,0,1.417-2.073,12.545,12.545,0,0,0-.361-3.357l.32.033a.659.659,0,0,0,.7-.622c.059-1.837,1.654-27.949,2.452-35.6a.512.512,0,0,1,1.006-.045c.867,3.374,4.087,21.1,6.03,35.758a.647.647,0,0,0,.747.545c.06,1.586.154,3.247,1.158,4.4.918,1.065,2.54,1.524,5.49,1.41a20.363,20.363,0,0,0,5.366-.6C50,153.41,50.764,152.581,50.351,151.415Zm-25.584.335a1.68,1.68,0,0,1-1.384,1.351,61.816,61.816,0,0,1-6.219.517,3.455,3.455,0,0,1-1.975-.533c.462-.344.8-.22,4.294-1.762a10.4,10.4,0,0,0,4.141-2.968l1.105.115A19.47,19.47,0,0,1,24.767,151.75Zm22.987,1.066a24.142,24.142,0,0,1-4.35.345c-4.458.2-5.141-.693-5.7-4.6,2.244-.132,1.643-.061,3.255-.137a6.6,6.6,0,0,0,4.91,2.422c.939.129,2.952.033,3.285.991C49.343,152.4,48.338,152.681,47.754,152.816Z" fill="#191919"></path><path d="M125.4,115.314a4.516,4.516,0,0,1-1.1,3.523,3.858,3.858,0,0,1-6.62-.934c-1.14-3.018,1.865-5.931,5.006-5.71a.622.622,0,0,1,.442,1.024,1.152,1.152,0,0,0,1.483,1.761.37.37,0,0,1,.2-.163A.392.392,0,0,1,125.4,115.314Zm-3.777-1.8c-2.349.587-3.305,2.462-2.745,3.941.605,1.643,2.842,2.3,4.547.573a4.023,4.023,0,0,0,1.09-1.991A2.154,2.154,0,0,1,121.62,113.512Z" fill="#191919"></path><path d="M191.668,147.393c-3.053-2.4-8.207-3-11.659-.788-.169.041-1.021.226-.883.656A4.024,4.024,0,0,0,177.6,151.2a6.587,6.587,0,0,0,2.474,3.81c4.2,3.07,10.459,5.04,13.732.991C196.232,153.007,194.68,149.791,191.668,147.393Zm-6.755-.958a11.035,11.035,0,0,0-1.667.957,1.605,1.605,0,0,0-.13-.114,4.225,4.225,0,0,0-1.135-.482A9.907,9.907,0,0,1,184.913,146.435Zm-4.933,1.286a11.2,11.2,0,0,1,2.208.488,9.323,9.323,0,0,0-3,4.166C178.061,150.614,178.182,148.948,179.98,147.721Zm12.835,7.472c-2.774,3.414-8.5,1.379-12.035-1.163a5.965,5.965,0,0,1-.936-.832,13.277,13.277,0,0,1,7.435-6.463,9.068,9.068,0,0,1,3.6,1.658C193.278,150.3,194.755,152.789,192.815,155.193Z" fill="#191919"></path><path d="M175.352,155.426c-37.248,1.048-92.766.17-111.91,1.065a.642.642,0,0,1-.377-1.18c5.2-3.347,11.3-6.515,16.435-9.471,2.643-1.321,75.924-.919,80.965-.475,1.291.258,14.6,8.808,15.5,9.471a.43.43,0,0,1,.106.582.417.417,0,0,1-.573.1Zm-15.042-9.021c-3.084-.221-70.576-.52-80.269.6-4.38,2.528-10.354,5.7-14.215,8.1,12.987-.628,89.588-.185,108.355-.45C172.1,153.268,162.575,147.376,160.31,146.405Z" fill="#191919"></path><path d="M93.911,148.059a50.932,50.932,0,0,0-7.284.4c-1.263.243-1.652.293-1.622.688.037.476.718.432,1.647.451.718.021,7.315-.329,7.415-.336,1.594-.109,1.855-.142,1.876-.533C95.972,148.192,94.72,148.119,93.911,148.059Z" fill="#37a1ff"></path><path d="M146.43,147.881c-13.7-.69-14.721-.037-48.725.778a.387.387,0,0,0-.394.385.4.4,0,0,0,.386.4c1.959.037,3.908.147,5.858.172,1.3.008,40.515-.955,42.85-.918a.407.407,0,0,0,.426-.4A.413.413,0,0,0,146.43,147.881Z" fill="#37a1ff"></path><path d="M154.4,147.661a17.352,17.352,0,0,0-3.269,0c-1.67.227-1.736,1.119.139,1.229.095,0,3.035-.016,3.13-.024.71-.063,1.109-.132,1.147-.476C155.6,147.944,154.635,147.711,154.4,147.661Z" fill="#37a1ff"></path><path d="M158.507,151.462c-13.955.109-23.09-1.358-48.725-.549-13.88.425-19.267.976-25.628,1.123a.391.391,0,0,0-.385.4.4.4,0,0,0,.4.385c15.674-.128,17.766-.47,29.922-.754,23.044-.53,28.738.872,44.44.221a.42.42,0,0,0,.4-.426A.4.4,0,0,0,158.507,151.462Z" fill="#37a1ff"></path><path d="M176.259,48.106c-3.031-4.283-9.483-3.775-14.485-3.7-18.59.386-67.845-.793-80.973-.131-2.794.123-6.408.115-8.915,1.32a5.349,5.349,0,0,0-3.236,5.292c.09,12.159.344,23.556.5,34.977.342,25.958-.746,24.039-.008,29.5.492,3.651,1.806,7.031,5.178,8.48a16.012,16.012,0,0,0,5.473.95c1.81.09,25.3-.2,27.81-.244a20.8,20.8,0,0,0-.1,3.971c.1,2.386.434,7.712.484,8.316.044.556.116,1.1.172,1.66-4.028-.1-8.257-.415-10.361,3.079a.653.653,0,0,0,.508.984c3.324.162,11.991-.437,27.955-.287,18.214.17,19.685.393,20.508.311a.393.393,0,0,0,.426-.36.4.4,0,0,0-.344-.418c-1.279-3.621-5.762-3.638-9.64-3.755.009-.045.126-1.184.158-1.756.086-1.35-.049-3.535-.049-9.267,0-.458.016-.925.008-1.376-.014-.57-.046-1.135-.067-1.7,14.607-.341,28.681-.755,31.454-1.113a.4.4,0,0,0,.344-.443.406.406,0,0,0-.443-.344c-5.167.642-84.186,1.7-88.765,1.492a14.744,14.744,0,0,1-5.039-.861c-3.492-1.492-4.387-5.7-4.6-9.5-.354-6.136.557-1.286.213-27.34-.148-11.413-.41-22.818-.484-34.969-.039-5.192,5.772-5.086,10.922-5.326,13.056-.631,61.926.508,80.941.115,4.581-.09,10.8-.588,13.444,3.155,1.81,2.524,1.044,7.712.893,10.79-.365,8.753.338,17.684-.352,26.071-.355,4.478.11,14.114-.729,26.693-.308,4.539-1.238,8.276-5.67,9.308a.412.412,0,0,0,.181.8c4.828-1.067,6.047-5.1,6.407-10.045.916-11.949.578-22.782.926-26.669.76-8.634.065-17.441.475-26.1C177.515,56.423,178.355,51.06,176.259,48.106ZM145.908,141.74c-18.273-1.386-42.567-.34-46.275-.418,2.113-2.036,5.915-1.591,8.766-1.532,13.73.34,21.655-.887,30.979-.582C141.911,139.285,144.755,139.482,145.908,141.74Zm-9.527-17.762c-.095.551-.2,1.129-.258,1.862-.177,2.3-.018,9.193.1,10.389.049.613.114,1.209.172,1.813-8.676-.192-16.423.7-23.02.6-1.454-.022-2.907-.074-4.361-.114.2-2.45.248-1.824-.314-11.36-.088-1.46-.016-.668-.221-2.626C115.323,124.424,125.931,124.22,136.381,123.978Z" fill="#191919"></path><path d="M168.81,109.144a.411.411,0,0,0,.41-.369H169.2c1.132-15.163,1.208-53.422.631-58.065a.612.612,0,0,0-.622-.532c-22.132.065-86.955-.624-94.46.721a.645.645,0,0,0-.524.7c.624,6.835.21,13.978.442,20.885.448,12.81.913,24.681.934,37.5a.637.637,0,0,0,.7.639C90.289,108.959,168.81,109.3,168.81,109.144Zm-.147-57.737c-22.307.091-83.74-.526-93.108.68.555,6.745.166,13.591.393,20.352.435,12.435.9,24.422.918,36.836,14.387-1.475,76.961-1.046,91.575-.942C169.261,95.142,169.194,57.537,168.663,51.407Z" fill="#191919"></path></g></svg>