<svg viewBox="0 0 400 400" xmlns="http://www.w3.org/2000/svg"><g transform="matrix(2,0,0,2,0,0)"><path d="M95.078,112.86c-1.522,4.292-4.616,13.977-4.121,18.513a5.142,5.142,0,0,0,4.212,4.862,16.846,16.846,0,0,0,4.631.243.651.651,0,1,0,0-1.3c-6.826-.334-7.322-2.215-6.436-7.943.835-5.6,2.983-10.853,3.811-14.538.843-3.619.934-4.383.231-4.559C96.73,107.968,96.693,108.251,95.078,112.86Z" fill="#191919"></path><path d="M93.464,153.178c5.043,6.207,15.442,3.416,15.851-6.424a.649.649,0,0,0-1.289-.158c-.945,4.808-4.858,8.862-9.67,7.39a13.111,13.111,0,0,1-3.677-2.042c-1.3-1-1.549-1.549-2.1-1.094C91.98,151.317,92.635,152.149,93.464,153.178Z" fill="#191919"></path><path d="M109.188,101.83a7,7,0,0,1,3.452-1.817,5.646,5.646,0,0,1,2.711.194c2.542.78,2.935,1.957,3.58,1.264.714-.749-1.4-2.307-1.884-2.631-2.9-2.006-7.156-1-9.3,1.537-.378.453-1.625,2.271-.888,2.778C107.291,103.455,107.349,103.33,109.188,101.83Z" fill="#191919"></path><path d="M82.345,108.76c1.938,0,3.506,2.358,3.506,5.257s-1.568,5.263-3.506,5.263-3.507-2.352-3.507-5.263S80.406,108.76,82.345,108.76Z" fill="#191919"></path><path d="M114.036,107.976c1.939,0,3.513,2.358,3.513,5.264s-1.574,5.263-3.513,5.263-3.507-2.352-3.507-5.263S112.1,107.976,114.036,107.976Z" fill="#191919"></path><path d="M121.233,169.65c.232,4.24.547,7.88.844,10.515a.647.647,0,1,1-1.282.176c-.575-3.629-1-7.441-1.331-11.116a.868.868,0,0,1,.431-.821c11.138-6.677,11.827-19.855,12.435-32.491a1.1,1.1,0,0,1,.955-1.027c8.226-1.012,15.613-8.376,11.122-16.392-1.7-3.148-4.687-4.585-7.8-6.443a.634.634,0,0,1-.255-.863.641.641,0,0,1,.869-.255,39.633,39.633,0,0,1,5.768,3.173,11.439,11.439,0,0,1,2.3,16.568,17.96,17.96,0,0,1-10.824,6.235C133.78,150.169,132.654,162.935,121.233,169.65Z" fill="#191919"></path><path d="M39.984,68.073c0-.1-.019-7.76-.1-10.338a1.06,1.06,0,0,1,.881-1.088,138.366,138.366,0,0,1,14.313-1.89.648.648,0,1,1,.134,1.289c-3.591.541-9.872,1.907-13.17,2.534.12,4.131.046,9.586.225,13.59a1.078,1.078,0,0,1-1.994.614,53.3,53.3,0,0,1-3.464-6.425,26.186,26.186,0,0,1-3.355.158.637.637,0,0,1-.669-.6.65.65,0,0,1,.614-.675,37.661,37.661,0,0,0,3.817-.772.929.929,0,0,1,.978.493C38.265,65.093,39.906,67.939,39.984,68.073Z" fill="#191919"></path><path d="M55.55,66.887a19.983,19.983,0,0,0-3.417-2.9c.728-.915,3.191-3.729,2.372-4.453-.56-.508-2.248,1.028-2.4,1.173-.437.417-1.526,1.723-1.779,2.031-.974-.665-4.659-3.3-5.339-2.333-.727,1,2.913,3.321,3.989,4.051a21.433,21.433,0,0,0-2.335,3.611c-.5.987-.925,1.611-.359,2.012.6.4.957.031,4.5-4.395,5.048,3.445,5.239,3.568,5.689,3.072C56.934,68.216,56.35,67.719,55.55,66.887Z" fill="#191919"></path><path d="M130.726,19.306A26.029,26.029,0,0,0,127.62,17a31.98,31.98,0,0,0,1.839-3.432c.5-1.092.97-1.744.352-2.127-.6-.373-.964.237-2.637,2.419-.459.6-.958,1.364-1.363,1.995-1.288-.8-6.111-4-6.8-2.872s4.492,4,5.637,4.706c-.8,1.283-4.06,5.938-3.021,6.631.651.447,2.05-1.286,2.462-1.817.613-.79,1.386-2.019,2.418-3.678.97.589,1.345.822,2.459,1.409,2.048,1.068,2.587,1.514,3,.906C132.345,20.569,131.794,20.164,130.726,19.306Z" fill="#191919"></path><path d="M139.655,38.314c.84-.178,3.845-1.129,4.667-1.392a32.983,32.983,0,0,0,5.233-1.988c1.152-.542,1.9-.779,1.654-1.458-.274-.753-1.186-.351-3.118.109-1.9.435-8.143,2.4-9.044,2.778C135.613,37.737,136.12,39.12,139.655,38.314Z" fill="#191919"></path><path d="M144.622,28.857a3.528,3.528,0,0,0-3.787.091,2.631,2.631,0,0,0-.918,1.854,2.751,2.751,0,0,0,2.772,2.832,2.8,2.8,0,0,0,2.82-2.832A2.521,2.521,0,0,0,144.622,28.857Z" fill="#191919"></path><path d="M147.544,38.218a3.516,3.516,0,0,0-3.786.085,2.627,2.627,0,0,0-.918,1.853,2.752,2.752,0,0,0,2.772,2.833,2.793,2.793,0,0,0,2.82-2.833A2.506,2.506,0,0,0,147.544,38.218Z" fill="#191919"></path><path d="M168.859,63.151C168.765,63.05,152.6,46.4,152.5,46.34a.651.651,0,0,0-.985.8c-1.3,6.475-1.411,6.432-2.619,14.532a1.062,1.062,0,0,0,.9,1.209c5.855.877,12.315.8,18.039,2.055A1.075,1.075,0,0,0,168.859,63.151Z" fill="#37a1ff"></path><path d="M53.69,34.845a1.043,1.043,0,0,0,.037-1.356,21.254,21.254,0,0,0-2.917-3.181,11.579,11.579,0,0,0-.033-4.383c-2.634-11.662-20.289-5.281-14.586,6.4a8.056,8.056,0,0,0,7.828,4.616c.233.692,2.844,3.165,2.986,3.3a.8.8,0,0,0,1.538-.134c.52-.523,1.045-1.04,1.568-1.558a4.031,4.031,0,0,0,1.467,1.091c.858.424,1.34-.229.875-.954a4.334,4.334,0,0,0-1.165-1.314C52.071,36.577,52.744,35.877,53.69,34.845Zm-11.233.4A7.96,7.96,0,0,1,38.111,31.4c-3.695-7.608,5.418-12.11,9.451-7.84a8.733,8.733,0,0,1,1.871,6.861c-.451.437-.9.878-1.353,1.325-.481-1.022-1.7-3.715-2.252-5.177a1.048,1.048,0,0,0-2.012.45,26.867,26.867,0,0,0,.237,2.735c-1.095-.116-1.991-.176-3.215-.383a1.078,1.078,0,0,0-.869,1.9,21.841,21.841,0,0,0,5.414,3.316q-.453.505-.889,1.015A7.306,7.306,0,0,1,42.457,35.243Zm3.821-1.64s-1.684-1.447-1.915-1.648c.261.03.529.055.79.091a1.1,1.1,0,0,0,1.039-.48q.411.621.84,1.24C46.941,32.9,46.438,33.43,46.278,33.6Zm1.505,5.222c-.7-1.122-.753-1.237-1.416-2.157,1.1-1.211,2.666-2.828,3.829-3.969.464.465.829.853,1.319,1.434C50.152,35.752,49.631,36.376,47.783,38.825Z" fill="#191919"></path><path d="M90.723,15.389c-1.275-3.578-2.224-6.35-3.574-9.7a1.086,1.086,0,0,0-1.3-.651A97.18,97.18,0,0,0,72.708,10.1a.983.983,0,0,0-.522,1.283c1.3,2.887,2.331,6.05,3.689,8.916a.638.638,0,1,0,.571,1.142l.079-.036a.648.648,0,0,0,.954-.389c2.531-.975,5.906-2.057,12.569-4.242A1.074,1.074,0,0,0,90.723,15.389Z" fill="#37a1ff"></path><path d="M133.839,60.547c3-5.937-.252-13.827-6.947-15.049.462-3.37.363-6.5-1.434-9.372-3.472-5.575-11.894-7.56-17.158-3.495a17.69,17.69,0,0,0-5.9-6.12c-7.879-4.374-17.521-.313-22.458,6.777-8.433-3.053-15.751,5.172-14.13,13.535a13.042,13.042,0,0,0-6.224,9.725,7.625,7.625,0,0,0,3.878,7.572c13.658,7.9,30.512,5.659,45.534,7.324,6.276,2.01,11.023,4.59,8.023,10.43a8.412,8.412,0,0,1-1.617,2.266.808.808,0,0,0,.547,1.38c1.666.056,3.653,1.2,5.3-.036,2.457-1.835,3.579-4.6,4.011-7.6,3.537,0,6.2-2.244,7.6-5.524C137.564,70.039,137.668,63.8,133.839,60.547Zm-50.943-4c-1.11,4.935-7.52,6.287-11.116,3.641a4.847,4.847,0,0,1-2.06-5.039.635.635,0,0,1,1.27-.012,5.764,5.764,0,0,0,2.048,3.3c2.69,1.885,7.284.667,8.625-2.291a.648.648,0,0,1,1.233.4Zm-2.08-9.867a16.764,16.764,0,0,0-2.784,3.276.642.642,0,0,1-.832.352.633.633,0,0,1-.347-.833A7.713,7.713,0,0,1,91.6,48.184a.644.644,0,0,1-.255.881.656.656,0,0,1-.882-.261,8.08,8.08,0,0,0-4.54-3.161A5.929,5.929,0,0,0,80.816,46.683Zm21.348,8.005c-2.5,7.509-13.949,7.807-15.134.079a.637.637,0,1,1,1.216-.383,8.572,8.572,0,0,0,3.075,3.257c3.384,1.758,7.949-.41,9.652-3.476a.653.653,0,0,1,.857-.328A.646.646,0,0,1,102.164,54.688Zm8.161-5.611a1.093,1.093,0,0,1-.522-.778c-.414-2.863-2.79-4.012-5.276-3.987-2.535.035-5.583,1.415-6.819,3.4a.639.639,0,0,1-1.143-.571c2.349-6.013,12.92-7.091,15.085-.432a13.311,13.311,0,0,1,2.1-.583c5.169-.95,8.518,3.6,7.944,8.43a.644.644,0,0,1-.687.608.661.661,0,0,1-.608-.693,7.338,7.338,0,0,0-1.227-4.17,4.57,4.57,0,0,0-5.027-2.078C111.773,48.67,111.181,49.577,110.325,49.077Zm14.994,13.681c-3.936,3.991-11.966,2.371-12.685-4.388a8.364,8.364,0,0,1,.432-3.574.638.638,0,1,1,1.264.17,23.719,23.719,0,0,0,.3,2.632,6.967,6.967,0,0,0,1.112,3.112c1.767,2.632,6.505,2.63,8.728,1.057a.648.648,0,0,1,.918.073A.655.655,0,0,1,125.319,62.758Zm4.648,1.822a.648.648,0,1,1-1.088-.7A8.777,8.777,0,0,0,129.6,61a6.41,6.41,0,0,0-1.27-4.869,12.447,12.447,0,0,0-2.559-2.072.638.638,0,0,1,.328-1.234,4.973,4.973,0,0,1,3.872,1.908A7.626,7.626,0,0,1,129.967,64.58Z" fill="#37a1ff"></path><path d="M38.061,195c4.169-2.091,8.266-4.467,12.648-6.114,8.916-3.349,18.154-5.039,27.246-7.682,1.161,3.81,5.221,8.04,8.941,9.681Z" fill="#37a1ff"></path><path d="M115.232,189.735a18.86,18.86,0,0,0,8.849-10.131c10.746.328,29.137,6.649,39.19,12.277Z" fill="#37a1ff"></path><path d="M170.14,77.079c-26.21.641-24.177.512-24.572.8-5.685,4.095-7.482,5.488-16.368,12.318L67.823,91.749c-15.083-9.212-14.165-8.7-14.472-8.73L29.976,80A1.088,1.088,0,0,0,29.247,82c19.747,12.83,20.145,12.978,26.075,16.424a1.012,1.012,0,0,0-.041.487,121.547,121.547,0,0,0,3.339,15.2c-10.1,1.914-12.664,16.183-3.234,21.015a18.4,18.4,0,0,0,7.342,1.708c.1,14.189,3.062,28.832,16,34.7l.443,10.32a.648.648,0,1,0,1.295-.055c-.074-3.218.039-6.246,0-9.744a37.746,37.746,0,0,0,13.682,2.869,49.664,49.664,0,0,0,16.422-2.078.648.648,0,1,0-.286-1.265,84.919,84.919,0,0,1-16.051,1.173c-15.107-.656-21.468-5.959-25.147-13.491-3.44-7-4.212-15.668-4.181-23.466a1.083,1.083,0,0,0-1.052-1.088c-4.466-.124-8.663-.949-11.019-4.747-1.54-2.448-1.495-5.86-.516-8.606a10.017,10.017,0,0,1,6.661-5.982c1.2,4.253,2.489,8.48,3.663,12.685a1.079,1.079,0,0,0,2.115-.268c.1-6.4.357-11.34.207-18.92,2.688-2.82,4.9-6.406,5.163-10.324,2.248-.132,5.239-.133,6.891-.134a7.422,7.422,0,0,0-3.714,2.256c-.6.715-1.827,2.7-1.009,3.178.611.343.64-.172,2.467-1.744a6.041,6.041,0,0,1,4.236-1.75,9.638,9.638,0,0,1,5.2,1.932c1.2.884,1.5,1.5,2.079,1.015.814-.688-1.415-2.713-1.921-3.136a8.5,8.5,0,0,0-3.64-1.781c6.331-.112,24.926-1.684,41.514-1.317a11.117,11.117,0,0,0,6.565,9.063c.326,6.538,1.221,12.847,2.072,19.334a1.087,1.087,0,0,0,2.158-.037c.7-7.5,3.113-12.377,3.852-28.731l33.8-17.578A1.082,1.082,0,0,0,170.14,77.079ZM56.372,97.515c-5.6-4.048-11.094-7.742-21.929-14.764,2.675.334,17.589,2.121,18.477,2.219L66.3,92.419Zm73.221-2.078c-14.074.126-17.937-1.174-43.548.578-3.322.241-7.473.229-10.168.438-6.526.465-8.376,1.112-16.664,1.235,3.237-1.416,8.378-3.668,8.866-3.891,1.459-.031,59.8-1.878,60.893-1.933l4.619,3.619Q131.6,95.419,129.593,95.437Zm6.651.112c-.079,0-.331.04-.387.036l-5.43-4.636c5.443-3.618,9.225-6.173,16.125-11.141l19.1-.456C162.583,80.987,139.158,93.938,136.244,95.549Z" fill="#191919"></path></g></svg>