<svg viewBox="0 0 400 400" xmlns="http://www.w3.org/2000/svg"><g transform="matrix(2,0,0,2,0,0)"><path d="M58.5,116.367a.36.36,0,0,0-.435-.272,26.215,26.215,0,0,1-10.675-.763.405.405,0,0,0-.435.164c-4.8,9.924-6.288,19.579-8.006,21.73a3.815,3.815,0,0,1-2.778,1.2c-2.887.315-5.773.708-8.6,1.035a.409.409,0,0,0-.382.381c.849,9.082,2.771,18.417,3.268,21.893a.29.29,0,0,0,.163.218c6.893-2.757,15.093-7.668,18.735-14.1,4.869-8.607,5.5-24.377,6.209-27.285.053-.218.435-.164.435.054a8.119,8.119,0,0,1-.054,1.035c-1.01,8.141-2.026,20.478-6.536,27.394a63.606,63.606,0,0,1-1.252,11.437.319.319,0,0,0,.272.381,174.82,174.82,0,0,0,20.2-1.362c.164,0,.218-.272.109-.326a.353.353,0,0,0,.327-.491C61.026,138.4,63.182,133.206,58.5,116.367Zm-9.149,5.773c-.163.109-.272-.163-.163-.272,1.626-1.244,2.426-2.879,2.94-3.05C53.162,118.818,51.453,121.091,49.354,122.14Z" fill="#191919"></path><path d="M139.977,82.492a.408.408,0,0,0,.763.164c6.644,0,47.762.327,51.411.163.163.218.489.218.545-.054a32.033,32.033,0,0,0,.381-4.847c.3-6.179,1.851-26.369,1.851-49.614a.265.265,0,0,0-.108-.436c-2.783-.646-34.41-2.176-54.952-.871-.381,0-.762.054-1.2.054-.163,0-.163.274,0,.272,20.184-.162,38.084-.3,54.9,1.035a2.931,2.931,0,0,0,.98,0c-.109,3.268-2.5,53.045-2.5,53.753-3.268,0-47.708,0-51.357.109-.381-6.644-1.851-48.142-1.906-51.792a.164.164,0,1,0-.327,0C138.378,48.8,139.4,72.879,139.977,82.492Z" fill="#191919"></path><path d="M194.819,93.711c-1.944-.451-17.991-1.361-33.166-1.361-16.416,0-22.1.544-22.983.544-.163,0-.163.274,0,.273,20.184-.163,55.024,1.046,55.3,1.02-.109,3.267-.507,25.557-.616,28.008a10.2,10.2,0,0,0-1.961-1.961s.109-.708.109-.763a2.966,2.966,0,0,0-1.906-2.886c-.109,0-.272,0-.272.109,0,.282.623.543.98.98a2.687,2.687,0,0,1,.654,1.906,3.213,3.213,0,0,1-.6,1.961.155.155,0,1,0,.218.218,2.265,2.265,0,0,0,.653-1.089,12.73,12.73,0,0,1,2.015,2.559c-.163,4.085-.381,8.115-.6,12.2-.2-.206-1.654-1.528-2.669-2.669-.108-.109-.326.054-.217.163.435.6.817,1.144,1.252,1.689a20.882,20.882,0,0,0,1.634,1.579c0,.218-.653,10.961-.653,11.764-3.268,0-11.819.054-12.853.054-.256-.575-.234-.312-2.015-3.159-2.463-3.935-6.557-13.668-10.348-16.556-.163-.109-.327.164-.218.272,3.643,3.036,8.773,16.289,11.818,19.334-2.124,0-10.184-.109-12.09-.109-2.529-6.006-4.553-11.98-5.228-14.214-1.3-4.283-1.745-7.758,2.178-9.9.455.227,10.991,2.687,13.289,2.981a18.742,18.742,0,0,0,.653-2.4c1.373,2.335.406,4.6,1.416,7.243a17.073,17.073,0,0,0,2.015,3.54c.218.273.654.055.49-.272-1.978-3.3-2.2-3.875-2.342-6.971-.1-2.237-.407-3.683-2.232-5.392-1.266-1.184-2.823-2.13-3.758-3.594-2.714-4.246,1.439-9.528-1.689-14.106-.11-.162-.378,0-.272.164,2.334,3.655-1.1,9.242.872,13.615,1.024,2.273,3.715,3.618,5.01,5.283-.055.109-.6,2.233-.654,2.233-2.124-.436-10.4-2.07-12.471-2.56.054-.109-.055-.218-.164-.218a5.213,5.213,0,0,0-3.7,3.268c-.761,2.07-.348,4.526.218,6.59.938,3.419,4.252,12.154,5.392,14.813-14.826-.172-20.481.029-25,.163-.381-6.644-1.852-48.142-1.906-51.792a.164.164,0,1,0-.327,0c-.027,6.7.03,13.4.218,20.1.2,6.97,1.035,28.211,1.252,31.86a.408.408,0,0,0,.763.163c6.644,0,47.762.327,51.411.164.164.217.489.217.545-.055a32.023,32.023,0,0,0,.381-4.847c.3-6.179,1.852-26.368,1.852-49.614C195.037,94.038,195.038,93.762,194.819,93.711Z" fill="#191919"></path><path d="M120.1,92.622a29.769,29.769,0,0,0-4.956-.054.137.137,0,0,0,0,.272c.8,0,17.279,1.476,17.312,1.471-.109,3.267-2.226,52.99-2.226,53.7-3.268,0-47.708,0-51.357.109-.327-5.936-1.688-42.043-1.743-45.475a.164.164,0,1,0-.327,0c-.114,25.178.9,33.309,1.2,45.638a.408.408,0,0,0,.763.164c6.644,0,47.762.327,51.411.163.164.218.489.218.545-.054a32.033,32.033,0,0,0,.381-4.847c.35-7.315,1.852-26.688,1.852-49.669a.288.288,0,0,0-.055-.436C132.76,93.534,120.245,92.632,120.1,92.622Z" fill="#191919"></path><path d="M134.586,82.983c-.212-.988-13.314-35.2-15.576-40.628-1.091-2.618-1.7-4.126-4.412-10.185.109-.163-.108-.432-.326-.381-3.468.8-28.883,11.224-30.88,12.091-10.724,4.655-15.439,7.038-20.858,9.748-.164.054,0,.327.163.218,12.461-5.786,36.424-16.179,50.758-21.077a4.3,4.3,0,0,0,.871-.381C118.419,42.806,133.662,82.5,133.714,82.6c-3,1.307-43.795,19.1-47.063,20.679-.816-1.634-4.207-8.336-5.274-10a.147.147,0,0,0-.272.109c.667,1.866,4.139,8.822,4.956,10.511a.379.379,0,0,0,.708-.218C99.149,98.213,134.754,83.151,134.586,82.983Z" fill="#191919"></path><path d="M71.138,71.981a.147.147,0,0,0-.272.109c.676,1.918,4.117,9.215,5.01,11.056.213.438.926.054.654-.381C75.659,80.913,72.205,73.65,71.138,71.981Z" fill="#191919"></path><path d="M64.113,56.678a.147.147,0,0,0-.272.109c.608,1.968,1.828,4.411,2.832,6.753.217.436.862.059.653-.381A52.715,52.715,0,0,0,64.113,56.678Z" fill="#191919"></path><path d="M83.447,83.963c-1.717.572-4.215,4.136-6.971.054-.11-.162-.327,0-.273.164.6,1.2,1.686,2.478,3.213,2.342a7.689,7.689,0,0,0,4.194-2.342C83.719,84.072,83.61,83.908,83.447,83.963Z" fill="#191919"></path><path d="M84.645,85.542a14.323,14.323,0,0,1-3.595,2.451c-.109.054-.054.272.109.272a9.643,9.643,0,0,0,3.867-2.45A.263.263,0,0,0,84.645,85.542Z" fill="#191919"></path><path d="M85.952,87.122c-.523.087-1.247,1.421-3.812,2.341-.163.059-.055.273.108.218,1.668-.357,3.776-1.755,3.867-2.4C86.17,87.231,86.061,87.122,85.952,87.122Z" fill="#191919"></path><path d="M87.041,89.191c.054-.109-.054-.327-.218-.272-2.674,1.856-5.095,3.4-8.278,4.084a.14.14,0,0,0,.055.273,19.234,19.234,0,0,0,4.574-1.362C84.138,91.4,86.5,90.125,87.041,89.191Z" fill="#191919"></path><path d="M75.332,90.444c-.164.326.272.544.49.272a7.153,7.153,0,0,0,.272-3.05,29.9,29.9,0,0,0-.544-4.084c0-.164-.273-.109-.273.054.109,1.307.159,2.615.273,3.921A8.071,8.071,0,0,1,75.332,90.444Z" fill="#191919"></path><path d="M14.989,144.959a10.954,10.954,0,0,1-2.07-1.252c-.6-.706.382-1.2,1.144-1.689.436.109,11.219-.817,11.709-.98.164-.054.218-.545,0-.6-.435-.054-11.491.926-11.654.98a4.62,4.62,0,0,0-2.778-1.96,3.212,3.212,0,0,0-1.8.326c-.436-.49-2.273-1.682-2.887-.108-.532,1.366-.155,2.994-.054,4.356.238,3.193-2.221,5.482-1.47,8.605.447,1.863,1.865,2.451,2.886,1.634a7.046,7.046,0,0,1-.163-5.5c.228-.65.477-1.257.708-1.907.877-2.468-.061-6.345,2.015-6.807,1.3-.29,2.287.653,3.158,1.525a3.69,3.69,0,0,0-.98.544,1.394,1.394,0,0,0-.49,1.743,5.377,5.377,0,0,0,2.669,1.743,6.979,6.979,0,0,0-1.852,1.851,20.449,20.449,0,0,1-1.852-1.089c-.163-.054-.272.109-.163.218a6.641,6.641,0,0,0,1.634,1.416,9.378,9.378,0,0,0-.545,1.035c-.49-.218-1.035-.436-1.525-.708a.137.137,0,1,0-.163.218,5.456,5.456,0,0,0,1.416,1.089,17.96,17.96,0,0,1-1.035,2.287,6.564,6.564,0,0,1-2.5,2.124c-.164.055-.055.273.109.273,2.4-.327,3.158-2.4,3.975-4.412a3.677,3.677,0,0,0,1.253.273.338.338,0,0,0,.109-.654c-.272-.109-.98-.218-1.089-.272l.49-.981c.054.055.435.109.544.164a.938.938,0,0,0,.763-.055.361.361,0,0,0,.109-.381c-.055-.109-.926-.436-1.035-.327a5.445,5.445,0,0,1,1.089-1.143c.218-.164,1.253-.654,1.2-1.035,1.416.272,10.294,1.96,10.511,1.906.109-.054.218-.218.109-.327C26.208,146.811,16.786,145.232,14.989,144.959ZM8.4,141.365c-.089.765.164,3-.272,4.411-.218.708-1.4,3.6-1.579,4.3a4.41,4.41,0,0,0,.708,3.812,1.167,1.167,0,0,1-1.144-.381,3.051,3.051,0,0,1-.708-1.525c-.327-2.5,1.364-4.657,1.634-7.135.181-1.671-.606-5.062.49-5.391.49-.218,1.47.381,1.743.49A1.935,1.935,0,0,0,8.4,141.365Z" fill="#191919"></path><path d="M58.994,172.68a10.6,10.6,0,0,1-1.035,2.233c-.668.695-1.253-.218-1.8-.926.054-.49-2.179-11.056-2.4-11.491-.054-.164-.544-.109-.6.054,0,.49,2.288,11.274,2.4,11.491a4.77,4.77,0,0,0-1.633,3,3.157,3.157,0,0,0,.544,1.743c-.435.49-1.409,2.477.218,2.886,1.422.357,2.943-.208,4.357-.49,3.055-.61,5.637,1.506,8.659.436,1.791-.635,2.152-2.206,1.253-3.1-.163-.163-1.8,1.708-5.446.817-.655-.16-1.306-.331-1.961-.49-2.555-.618-6.258.87-6.971-1.2-.432-1.254.381-2.342,1.144-3.322a5.031,5.031,0,0,0,.653.926,1.358,1.358,0,0,0,1.8.272,5.524,5.524,0,0,0,1.416-2.832,7,7,0,0,0,.925.871c.109.055,1.144.763,1.144.708-.218.654-.6,1.307-.817,1.961-.054.163.109.272.218.163a6.459,6.459,0,0,0,1.2-1.8,8.713,8.713,0,0,0,1.089.381,7.657,7.657,0,0,1-.544,1.58.165.165,0,0,0,.272.163,4.5,4.5,0,0,0,.871-1.579c1.923.512,3.314.6,4.793,2.941.1.166.272,0,.272-.164-.653-2.287-2.777-2.832-4.847-3.431a2.889,2.889,0,0,0,.109-1.307.329.329,0,0,0-.653,0c-.055.272-.109,1.035-.109,1.089a5.859,5.859,0,0,1-1.035-.381c.055-.054.055-.436.109-.545.148-.739-.217-.953-.49-.816-.109.054-.327.98-.218,1.034a5.329,5.329,0,0,1-1.253-.926c-.217-.217-.762-1.2-1.143-1.034.109-1.471.708-10.457.6-10.675a.263.263,0,0,0-.381-.054C59.429,161.352,59.048,170.883,58.994,172.68Zm-2.724,6.971a22.556,22.556,0,0,1,4.412-.272c.76.124,3.7.93,4.466,1.034a4.358,4.358,0,0,0,3.7-1.143,1.092,1.092,0,0,1-.218,1.143c-1.2,1.371-3.343,1.112-5.119.708a15.06,15.06,0,0,0-3.649-.6c-1.254.028-2.453.47-3.649.6-1.931.209-2.255-.353-1.525-2.178A2.142,2.142,0,0,0,56.27,179.651Z" fill="#191919"></path><path d="M58.83,70.293a35.65,35.65,0,0,0-7.9,10.13c-.109.163.164.272.218.163A40.161,40.161,0,0,1,61.934,68.605c1.578-1.155,3.382-2.2,3.867-2.56.164-.163.11-.543-.163-.436A31.963,31.963,0,0,0,58.83,70.293Z" fill="#191919"></path><path d="M74.624,61.906c-.879-.293-3.365.376-4.248.654a12.76,12.76,0,0,0-3.867,1.96.175.175,0,0,0,.218.273c5.875-3.022,7-2.192,7.951-2.669C74.842,62.124,74.787,61.961,74.624,61.906Z" fill="#191919"></path><path d="M75.985,63.54a14.623,14.623,0,0,0-5.337,1.089.117.117,0,0,0,.055.218,10.431,10.431,0,0,0,2.069-.436c2.4-.494,2.727-.306,3.213-.653C76.149,63.758,76.15,63.592,75.985,63.54Z" fill="#191919"></path><path d="M76.421,65.01c-.487-.162-.7.242-4.084.763-.164,0-.109.272.054.272.328-.025,3.706-.275,4.139-.708C76.639,65.174,76.584,65.01,76.421,65.01Z" fill="#191919"></path><path d="M70.975,73.288c-.264-1.275-.726-2.366.381-3.7a8.328,8.328,0,0,1,4.085-2.451.14.14,0,0,0-.055-.272,6.912,6.912,0,0,0-4.52,2.451,3.9,3.9,0,0,0-.381,4.193C70.648,73.779,71.031,73.56,70.975,73.288Z" fill="#191919"></path><path d="M69.232,72.308a8.831,8.831,0,0,1-1.2-2.233c-.054-.218-.383-.108-.327.109a7.362,7.362,0,0,0,1.035,2.342,8.542,8.542,0,0,0,1.525,2.015.183.183,0,0,0,.272-.163C70.446,73.728,69.657,73.051,69.232,72.308Z" fill="#191919"></path><path d="M155.825,51.667c-.163-.054-.272.109-.109.218,1.144.654,2.293,1.408,3.431,2.07.376.218,13.3,7.72,13.943,8.006-.926.217-5.233,1.622-6.427,2.069-2.65.991-6.575,2.9-8.387,5.011-.054.054.054.162.109.108a18.228,18.228,0,0,1,4.738-3A90.35,90.35,0,0,1,172,62.777a13.7,13.7,0,0,0,1.58-.435c.054,0,.218.762,0,.817-4.781,1.509-14.755,4.953-16.448,9.694a3.332,3.332,0,0,0,.545,3.376c1.015,1.108,2.833,1.1,4.194.981a23.191,23.191,0,0,0,4.792-1.2A56.953,56.953,0,0,0,177.011,71.6a1.833,1.833,0,0,1,0,.545,51.053,51.053,0,0,1-13.779,5.773c-6.107,1.286-9.481-2.405-13.4-5.229-2.722-1.962-5.555-3.812-8.224-5.772-.109-.109-.272.108-.163.217,2.4,1.852,4.86,3.631,7.3,5.446a73.365,73.365,0,0,0,6.155,4.575c4,2.369,7.148,2,11,.872a48.41,48.41,0,0,0,11.6-5.283c.163,0,.272-.109.272-.327,0-1.88-.343-1.682-1.579-2.178a13.884,13.884,0,0,0-2.4-.763c-.164-.054-.273.218-.109.272.925.436,1.851.926,2.777,1.362a14.746,14.746,0,0,1-1.47.762,8.97,8.97,0,0,1-1.362-1.742,6.368,6.368,0,0,1-.218-5.828c.109-.217-.218-.272-.326-.163-1.579,2.17-1.06,6.04,1.252,8.006-3.1,1.473-12.746,5.811-15.63,3.975a2.4,2.4,0,0,1-.817-3.049c1.587-4.235,11.181-7.484,14.922-8.986,1.237-.5,1.58-.348,1.58-1.144,0-.436.054-.817-.327-1.144a7.684,7.684,0,0,0-1.634-1.035C159.539,53.38,160.044,53.692,155.825,51.667Z" fill="#191919"></path><path d="M169.767,46.167c-1.956,4.646-1.328,9.351,3.05,11.818a7.47,7.47,0,0,0,10.729-3.595,12.031,12.031,0,0,0-.272-8.114c-.055-.218-.381-.218-.49-.055-4.3-.109-8.551-.109-12.853-.109A.1.1,0,0,0,169.767,46.167Z" fill="#191919"></path><path d="M187.848,54.173h-.054c-1.035.326-1.641-.09-2.56-.436-.274-.1-1.183-.227-.817.381a3.26,3.26,0,0,0,3.431,1.307c3.593-.771,4.134-6.4.273-7.3a3.2,3.2,0,0,0-3.105,1.035c-.248.248-.218.654.109.654.109,0,.164-.109.218-.164a2.476,2.476,0,0,1,2.233-.49A2.644,2.644,0,0,1,187.848,54.173Z" fill="#191919"></path><path d="M180.932,31.3c0-.109-.109-.163-.163-.054-1.413,2.824-5.372,1.716-6.7,4.3a3.375,3.375,0,0,0,.218,3.268c.754,1.245,2.242,1.534,3.1,2.4a1.545,1.545,0,0,1,.436,1.96,4.26,4.26,0,0,1-1.58,1.253c-.109.055,0,.27.109.218.97-.458,2.233-1.035,2.233-2.287,0-1.471-1.47-2.179-2.5-2.832a3.006,3.006,0,0,1-1.579-3.05C174.93,33.5,180.083,34.376,180.932,31.3Z" fill="#37a1ff"></path><path d="M45.705,52.7c.327,1.743,1.941,7.956,2.287,9.422.052.218.382.109.327-.109-.218-1.47-1.688-7.951-1.96-9.748,0-.164-.218-.271-.327-.273A16.724,16.724,0,0,1,30.837,40.34,16.69,16.69,0,0,1,37.1,22.422c5.855-4.144,16.689-4.994,23.963-1.362,6.9,3.446,10.6,10.281,8.333,17.918-2.5,8.4-11.208,13.289-19.552,13.289-.163,0-.272.163-.327.326-.381,3.1-.762,6.209-1.034,9.313-.055.327.493.382.544.055.467-2.991.763-6.046,1.089-9.095,14.488-.613,22.8-12.175,20.1-22.166-1.773-6.55-8.259-12.125-18.354-12.581-8.3-.374-16.465,2.17-20.423,9.64C25.408,39.136,33.436,51.826,45.705,52.7Z" fill="#191919"></path><path d="M52.731,29.447a2.63,2.63,0,0,1,.381,1.09.14.14,0,0,0,.272-.055,1.983,1.983,0,0,0-.708-1.852,5.129,5.129,0,0,0-2.233-.381c-1.905-.128-3.757-.082-5.664-.109-1.361-.019-2.831-.217-4.084.436-1.361.709-1.735,2.233-1.852,3.649a34.446,34.446,0,0,0-.055,5.609C39.1,41.64,40.8,42.79,44.67,42.79c1.8,0,6.454-.2,7.843-1.361a3.168,3.168,0,0,0,1.034-2.124,26.616,26.616,0,0,0-.054-6.263c-.054-.218-.381-.218-.381,0a30.945,30.945,0,0,1,.109,5.065c-.124,1.82-.355,2.934-2.124,3.376a23.155,23.155,0,0,1-4.738.6c-5.525.2-7.213-.388-6.808-7.951.2-3.8.284-5.326,4.248-5.174,1.742.067,3.485,0,5.283,0C51.829,28.957,52.319,28.953,52.731,29.447Z" fill="#37a1ff"></path><path d="M47.284,32.878a.082.082,0,1,0,0-.163,3.043,3.043,0,0,0-1.906-.109,2.8,2.8,0,0,0-2.124,3.976c1.307,2.316,4.777,2.639,5.991.272a2.509,2.509,0,0,0-.871-3.268c-.164-.109-.382.164-.218.273,1.815,1.676.436,3.866-1.525,3.975a3.427,3.427,0,0,1-2.723-1.252,2.121,2.121,0,0,1,.054-2.723A4.3,4.3,0,0,1,47.284,32.878Z" fill="#37a1ff"></path><path d="M55.345,35.275a.17.17,0,0,0,0,.326,18.1,18.1,0,0,0,4.193.273A31.8,31.8,0,0,0,59.7,39.8a.34.34,0,0,0,.653,0,18.821,18.821,0,0,0,0-3.921,37.834,37.834,0,0,0,4.03-.055c.326-.062.272-.54,0-.6a36.143,36.143,0,0,0-4.03-.109c-.054-.6-.381-3.213-.49-3.921-.055-.218-.327-.163-.327.055,0,.708.055,3.267.055,3.866A21.963,21.963,0,0,0,55.345,35.275Z" fill="#37a1ff"></path><path d="M55.018,81.675c-.053-.109-.218-.054-.218.109A5.612,5.612,0,0,1,53.6,86.8c-1.451,1.972-4.433,4.15-4.847,6.426-.168.925.033,1.9-.164,2.832a12.756,12.756,0,0,1-2.505,4.52c-1.078,1.533-2.4,3.7-1.742,5.664.054.164.381.164.381-.054-.5-4.514,4.574-6.935,4.574-10.947a5.105,5.105,0,0,1,1.2-4.03c.861-1.1,1.906-2.069,2.777-3.1a11.619,11.619,0,0,1-.163,2.451c0,.44.544.427.544.109a6.667,6.667,0,0,0,.055-2.233,1.1,1.1,0,0,0-.164-.6C54.979,86.04,56.016,83.737,55.018,81.675Z" fill="#191919"></path><path d="M44.126,99.648c1.583-1.584,1.821-2.828,2.069-4.847.221-1.8.333-3.536,1.416-5.011,1.811-2.467,5.051-3.767,6.045-6.971.055-.109-.163-.163-.217-.054-.988,2.566-4.274,4.293-6.1,6.589a8.222,8.222,0,0,0-1.579,4.739c-.263,2.228-.268,3.5-1.961,5.228-1.321,1.348-3.457,2.947-2.941,5.119.052.219.436.164.381-.054C41.076,102.262,42.764,101.009,44.126,99.648Z" fill="#191919"></path><path d="M42.71,95.835c.991-2.6.939-5.963,3.05-8.114,1.269-1.294,2.964-2.182,4.574-4.03s2.2-3.448,3.159-4.085a1.823,1.823,0,0,1,1.743-.218c.163.055.275-.113.109-.218a2,2,0,0,0-2.451.382,13.754,13.754,0,0,0-1.852,2.614C49.348,84.6,47.8,85.406,46.25,86.74c-4.139,3.567-2.078,6.9-5.12,11.056-1.383,1.89-3.4,3.979-3,6.535.052.328.545.218.545-.054C38.441,101.01,41.441,99.158,42.71,95.835Z" fill="#191919"></path><path d="M78.6,94.093a4.922,4.922,0,0,0-3.595-1.907c-1.307-.061-2.235.978-3.159,1.743a41.369,41.369,0,0,0-5.773,5.882c-.279.35-1.485,2.451-1.851,2.451a2.276,2.276,0,0,0,.817.218c.218,0,.272.381.054.435-1.906.327-3.758-1.742-4.956-2.941-3.292-3.292-4.286-5.677-6.862-6.48a4.4,4.4,0,0,0-3.322.108c0,2.485-.075,4.455-1.525,6.318a17.045,17.045,0,0,0-3.268,6.971c-.1.545-1.093-.047-1.416-.218-.883-.469-2.341-1.8-3.431-1.144-.054,0-.054.055-.109.109-.871,1.035-2.5,5.282-2.287,5.446,5.037,3.833,11.492,4.811,17.645,4.63a26.751,26.751,0,0,0,5.283-.382c.656-.155.6-.435.708-1.143a38.543,38.543,0,0,1-6.426-2.56,31.164,31.164,0,0,1-5.882-4.03c-.109-.109,0-.219.109-.163,6.018,3.054,11.583,7.615,17.809,5.01,5.99-2.506,8.923-8.864,10.565-14.7.168-.6.312-1.2.49-1.851A5.118,5.118,0,0,0,78.6,94.093Z" fill="#37a1ff"></path><path d="M56.543,86.2c.544.181.9-.349.6-.654-.365-.365-1.1-.152-.98.327A.576.576,0,0,0,56.543,86.2Z" fill="#191919"></path><path d="M58.994,87.394a1.694,1.694,0,0,0-.218-1.253,6.921,6.921,0,0,0-.817-1.361c-.055-.109-.218-.055-.218.109a4.853,4.853,0,0,1,.653,2.45c-.054.164-.108.436.109.491C58.83,87.884,58.939,87.557,58.994,87.394Z" fill="#191919"></path><path d="M56.379,88.973a1.239,1.239,0,0,0,1.634.382c.73-.365.57-.939.218-.763a1.393,1.393,0,0,1-1.035.272,1.411,1.411,0,0,1-.708-.708c-.035-.068-.188-.1-.206,0A1.185,1.185,0,0,0,56.379,88.973Z" fill="#191919"></path><path d="M55.671,90.444a3.492,3.492,0,0,0,3.7.163c1.373-.908,1.283-2.677.871-4.084a7.413,7.413,0,0,0-1.525-3.05c-.107-.111-.272,0-.218.109.515,1.286,1.835,3.381,1.416,5.228a2.19,2.19,0,0,1-2.287,1.852,2.943,2.943,0,0,1-2.669-1.144c-.054-.055-.163,0-.108.054A4.192,4.192,0,0,0,55.671,90.444Z" fill="#191919"></path><path d="M55.617,93.984a5.5,5.5,0,0,1,.871-.926.209.209,0,0,0,0-.381,7.116,7.116,0,0,0-4.683-1.525.174.174,0,0,0-.164.163,5.293,5.293,0,0,0,0,1.307A6.409,6.409,0,0,1,55.617,93.984Z" fill="#37a1ff"></path><path d="M59.865,82.874a.191.191,0,0,0-.055-.273,1.824,1.824,0,0,0-.925,0,8.763,8.763,0,0,1-3-.435c-.163-.055-.218.109-.109.217a4.592,4.592,0,0,0,3.05.763C59.211,83.146,59.647,83.146,59.865,82.874Z" fill="#191919"></path><path d="M59.429,81.948c0-.109-.163-.218-.218-.273a3.932,3.932,0,0,0-1.742-.6c-.218,0-.491-.054-.708-.054a.117.117,0,0,0-.055.218C57.8,81.24,59.429,82.747,59.429,81.948Z" fill="#191919"></path><path d="M59.1,79.987a3.932,3.932,0,0,0-3.213-.871.167.167,0,0,0,.055.327,3.441,3.441,0,0,1,2.777,1.089c.218.218.436.6.708.653C59.65,81.185,59.9,80.657,59.1,79.987Z" fill="#191919"></path><path d="M56.924,84.507c.218-.108.163-.381-.054-.49a1.186,1.186,0,0,0-.6.109c-.383.256-.651.6-.163.6A2.546,2.546,0,0,0,56.924,84.507Z" fill="#191919"></path><path d="M79.308,126.17c6.045-.054,21.239.164,22.873.164.272,0,.218-.382,0-.382-.871-.109-1.8-.163-2.668-.217,0,0-.273-6.264-.382-7.462,2.483-.5,5.038-2.978,5.5-6.971a12.479,12.479,0,0,0-.163-4.3c-.054-.218-.322-.163-.327.054-.058,2.421-.067,4.626-.981,6.754-1.3,3.018-4.669,4.822-7.624,3.267-.163-.109-.271.108-.163.218a3.783,3.783,0,0,0,3.485,1.035c0,1.144.055,7.08.163,7.352-1.851-.109-8.931-.163-8.931-.218a51.629,51.629,0,0,0-.272-5.5c0-.164-.218-.109-.218.054-.109.871-.109,5.011-.055,5.446,0,.055-8.605.273-10.184.436C79.144,125.952,79.144,126.172,79.308,126.17Z" fill="#191919"></path><path d="M98.641,133.141a.116.116,0,0,0,.164.164c.762-.763,1.511-1.483,2.233-2.288a45.817,45.817,0,0,0,5.391-7.788c.4-.753.763-1.525,1.144-2.287a45.1,45.1,0,0,0,2.723,14.051c.115.27.547.054.49-.218-.262-1.255-.755-2.453-1.089-3.7a46.876,46.876,0,0,1-1.58-11.056c2.9.341,14.986-.293,16.557-.436.326-.054.381-.544,0-.544-1.706,0-6.763.49-13.125.49-1.144,0-2.342,0-3.54.109a.258.258,0,0,0-.436.054,55.572,55.572,0,0,1-6.644,10.675C100.176,131.3,99.472,132.283,98.641,133.141Z" fill="#191919"></path><path d="M128.05,133.849c-.091-.915-.585-2.359-1.47-6.644a61.321,61.321,0,0,0-1.58-6.753.139.139,0,0,0-.272.054,100.743,100.743,0,0,0,1.961,10.239,14.289,14.289,0,0,0,.926,3.268C127.669,134.176,128.05,134.122,128.05,133.849Z" fill="#191919"></path><path d="M105.993,127.1c0-.109-.163-.163-.217,0a58.93,58.93,0,0,0-.817,7.951c-1.471-.272-3-.544-4.466-.817-.109,0-.163.109-.055.164,1.743.435,8.823,2.124,10.62,2.5a.264.264,0,0,0,.327-.163c4.5-.1,13.908-1.21,15.63-1.525.326-.06.218-.6-.054-.545-1.416.055-2.833.316-4.248.49-5.627.692-8.527.82-11.328,1.307-.14-.14.463.022-5.827-1.307C105.6,134.2,105.976,127.31,105.993,127.1Z" fill="#191919"></path><path d="M122.985,129.166a.19.19,0,0,0,.109-.327,16.789,16.789,0,0,0-2.777-.872,33.763,33.763,0,0,1-8.278-4.03c-.109-.054-.218.109-.109.164C113.935,125.589,120.639,129.459,122.985,129.166Z" fill="#191919"></path><path d="M117.539,129.111a16.985,16.985,0,0,1-2.124-.817c-.163-.054-.327.164-.163.218a15.713,15.713,0,0,0,3.159,1.2,2.68,2.68,0,0,0,1.143.218.143.143,0,0,0,.055-.272A11.4,11.4,0,0,0,117.539,129.111Z" fill="#191919"></path><path d="M128.922,100.083a2.062,2.062,0,0,0-.218-2.233,2.715,2.715,0,0,0-3.213-.816,3.607,3.607,0,0,0-2.016,2.777c0-.163-.98-.436-1.089-.436a2.4,2.4,0,0,0-2.614,1.8,4.858,4.858,0,0,0-3.322.708c-.432.278-.991.766-.762,1.307.208.494.98.6,1.47.653a11.53,11.53,0,0,0,3.377.218,15.715,15.715,0,0,0,1.688-.218c.491-.1.926-.327,1.416-.381a3.037,3.037,0,0,1,1.089.436c2.023,1.011,4.14.652,4.9-.109,0-.109-.055-.164-.164-.218s-.163,0-.272.054a5.4,5.4,0,0,1-4.575-.326,1.656,1.656,0,0,0-1.416-.218,11.754,11.754,0,0,1-5.609.272,5.852,5.852,0,0,1-.872-.218c-.326-.054-.715-.223-.435-.6.66-.886,2.507-1.123,3.594-.926a.25.25,0,0,0,.327-.272,1.871,1.871,0,0,1,3.267-.926.252.252,0,0,0,.436-.163,3.216,3.216,0,0,1,1.362-2.669,2.2,2.2,0,0,1,3,.436,2.583,2.583,0,0,1,.381,1.906C128.7,100.138,128.867,100.138,128.922,100.083Z" fill="#37a1ff"></path><path d="M121.079,113.154a.053.053,0,0,0-.054.054,4.031,4.031,0,0,1-2.4.436c-2.845-.19-2.811-1.011-4.574-.381-1.95.7-2.74.039-3.54.163-.531.082-1.041.683-2.07.545-.435-.058-.817-.381-1.2-.381-.49-.055-.218.435,0,.6a2.978,2.978,0,0,0,2.941-.055,1.044,1.044,0,0,1,.436-.163c.544-.055,1.089.218,1.633.218,1.962,0,2.224-.933,3.976-.381a8.3,8.3,0,0,0,4.466.108c1.3-.313,1.475-1.249.327-1.906-2-1-2.727.2-3.159-.926a1.939,1.939,0,0,0-1.47-1.034,5.344,5.344,0,0,0-1.852.163,3.849,3.849,0,0,0-1.253-3.268c-1.693-1.394-3.8-.077-3.431.109.055.055.164,0,.218,0a2.559,2.559,0,0,1,2.941.382,3.5,3.5,0,0,1,.98,2.886c0,.218-.054.49.164.6.272.163.653-.109.925-.163a2.93,2.93,0,0,1,1.144-.164,1.711,1.711,0,0,1,1.362.817c.1.22.109.436.272.545.218.218.6.114.926.054,1.419-.26,2.668.575,2.668.926A2.27,2.27,0,0,1,121.079,113.154Z" fill="#37a1ff"></path><path d="M89.546,139.731a.117.117,0,0,0-.054-.218,26.083,26.083,0,0,0-3.813,1.2c-.272.218.436,1.743.545,1.906.433.541,1.041-.057,4.629-1.851a.244.244,0,0,0-.218-.436c-.816.381-3.757,1.906-3.866,1.906s-.763-1.089-.654-1.2C86.17,140.929,89.165,139.84,89.546,139.731Z" fill="#191919"></path><path d="M93.25,143.6c.108,0,1.524-.327,1.633-.381.273-.164.109-.491-.054-.708s-1.743-1.961-1.852-2.016a.2.2,0,0,0-.272.273,23.3,23.3,0,0,0,1.8,2.015s-1.089.272-1.144.272c0,0-1.361-1.743-1.8-2.342-.054-.109-.218,0-.163.109A8.764,8.764,0,0,0,93.25,143.6Z" fill="#191919"></path><path d="M95.864,141.147c-.109.327.435.49.544.163a3.406,3.406,0,0,0,.164-1.47c0-.109-.055-.272-.218-.272a24.015,24.015,0,0,0-3.649-.491c-.163,0-.163.218-.054.273a23.25,23.25,0,0,0,3.376.708A3.51,3.51,0,0,1,95.864,141.147Z" fill="#191919"></path><path d="M94.448,137.879a1.977,1.977,0,0,0,.435-1.525c-.073-.924-.817-1.851-.49-2.777.055-.218,0-.272-.163-.163a.95.95,0,0,0-.327.653,5.883,5.883,0,0,1-.708,1.688,7.432,7.432,0,0,0-1.852-4.3c-.222-.213-.49-.109-.326.163a3.529,3.529,0,0,1-.436,4.03c-.054-.6-.163-1.2-.218-1.8,0-.163-.163-.218-.218.055a5.448,5.448,0,0,1-1.96,2.45,1.671,1.671,0,0,0-.327,2.07C89.027,140.017,93.172,139.317,94.448,137.879Z" fill="#37a1ff"></path><path d="M104.577,54.554a12.184,12.184,0,0,0-3.267-6.318c-1.524-1.362-4.03-1.906-5.719-.435-2.245.827-2.7,2.71-2.832,5.119,0,2.832,1.056,5.837-.217,8.55a28.806,28.806,0,0,1-2.233,3.486c-2.633,3.993-1.162,5.819-1.743,9.095-.6,3.369-2.35,6.131-1.2,9.857a7.353,7.353,0,0,0,2.451,3.922c.162.11.435-.109.326-.327-.832-1.19-1.45-1.479-2.124-3.54-1.166-3.571.261-6.068.926-9.041.868-3.879-.593-5.888,1.362-9.095,1.48-2.429,3.376-3.888,3.376-7.515,0-2.824-1.761-8.79,1.961-10.348,2.241-1.29,5.549-.272,7.134,3.431.422.986.654,1.961.981,2.941a6.485,6.485,0,0,0-1.2.436,3.864,3.864,0,0,1-3.213-.6,6.247,6.247,0,0,1-2.342-3.758c0-.109-.217-.109-.217,0a5.579,5.579,0,0,0,2.4,4.248,4.406,4.406,0,0,0,3.376.6.286.286,0,0,0,.436.109c1.053-.9,2.114.082,1.852,1.525-.164.6-.817,1.361-1.471.871a.379.379,0,0,0-.6.218,4.018,4.018,0,0,1-.327,1.852A3.357,3.357,0,0,1,97.5,60.98a6.092,6.092,0,0,1-1.852-3.267c-.791-2.5-.793-5.129,1.144-6.862.108-.055-.055-.218-.109-.109-2.219,1.868-2.4,4.3-1.634,7.08a6.688,6.688,0,0,0,2.015,3.7,3.985,3.985,0,0,0,4.738.109c.054.381.653,2.5.653,2.5a3.5,3.5,0,0,0,.491-.436,20.1,20.1,0,0,0-.926-2.287,4,4,0,0,0,.871-1.035,3.805,3.805,0,0,0,.436-1.089,14.837,14.837,0,0,0,.98,3.1c.164-.163.272-.327.436-.49a18.622,18.622,0,0,1-1.2-3.322C106.021,58.809,106.182,55.294,104.577,54.554Z" fill="#191919"></path><path d="M96.9,56.569c.566,0,.766-.375.6-.708a1.4,1.4,0,0,0-.872-.436c-.31,0-.629.189-.544.708C96.137,56.473,96.626,56.569,96.9,56.569Z" fill="#191919"></path><path d="M97.606,54.5c-.273-.546-1.1-.558-1.688-.381a.154.154,0,0,0,0,.272,3.689,3.689,0,0,1,1.089.382C97.225,54.826,97.77,54.935,97.606,54.5Z" fill="#191919"></path><path d="M98.641,59.074c.273.164.708.218.817-.109.109-.218-.272-.272-.436-.327-.326-.163-.331-.488-.435-.816a15.012,15.012,0,0,1-.381-1.634c0-.109-.164-.055-.218,0a6.254,6.254,0,0,0,.163,2.069A1.727,1.727,0,0,0,98.641,59.074Z" fill="#191919"></path><path d="M100.547,59.728a1.1,1.1,0,0,1-.6.163c-.109,0-.653-.054-.381.218a1.244,1.244,0,0,0,1.961-.654,1.132,1.132,0,0,0,.054-.6.345.345,0,0,0-.327-.272C100.663,58.485,100.946,59.462,100.547,59.728Z" fill="#191919"></path><path d="M97.715,49.108a5.236,5.236,0,0,1,1.907,1.2c.558,0-.345-1.362-1.852-1.362C97.606,48.944,97.606,49.108,97.715,49.108Z" fill="#191919"></path><path d="M98.478,48.509c.163.054.381.218.544.218.327,0-.061-.545-1.2-.545a.117.117,0,0,0-.109.109C97.715,48.479,97.916,48.321,98.478,48.509Z" fill="#191919"></path><path d="M95.7,49.6a2.714,2.714,0,0,0-.708,1.035.2.2,0,0,0,.055.163c.054.055.109,0,.163-.054.055-.109.164-.218.218-.327a3.668,3.668,0,0,1,.871-.763c.216-.166,0-.381-.217-.272A3.025,3.025,0,0,0,95.7,49.6Z" fill="#191919"></path><path d="M94.938,49.162a.154.154,0,1,0,.218.218,2.387,2.387,0,0,1,.381-.327c.109-.054.272-.054.327-.163.054-.055,0-.109-.055-.163C95.535,48.727,95.44,48.66,94.938,49.162Z" fill="#191919"></path><path d="M97.879,50.088c-.055-.054-.163.054-.109.109,1.27,1.315,2.455,4.253,4.629,4.139a.251.251,0,0,0,.054-.49C99.86,53.3,99.755,51.589,97.879,50.088Z" fill="#191919"></path><path d="M101.419,64.847c-.109-.109-.109-.49-.273-.49-.381,0-.163.762-.108.926s.925,1.742,1.034,1.634A24.811,24.811,0,0,0,94.284,75.9,21.778,21.778,0,0,0,92.6,88.374c.432,2.506,2.013,7.784,2.233,7.679,1.188-.566,36.6-15.957,36.6-16.066-.381-1.089-5.283-14.486-5.283-14.541-.186-.435-.855-.743-2.178-1.688a16.627,16.627,0,0,0-17.265.272c-.435-1.579-.217-2.941-.762-2.723-.218.055-.323.384-.436.545C104.451,63.349,101.909,65.337,101.419,64.847Z" fill="#37a1ff"></path><path d="M95.646,61.47c-.055-.108-.218-.108-.218.055.218,1.852-.938,3.422-1.906,4.792-1.134,1.607-1.837,2.65-1.961,4.63-.121,1.937.453,3.3-.163,5.391-.666,2.264-2.423,5.225.381,8.5a2.984,2.984,0,0,1,0-.98,5.375,5.375,0,0,1-.926-2.832c-.087-1.687.807-3.162,1.253-4.738.479-1.692.136-3.431.163-5.174.03-1.92.629-2.951,1.852-4.684C95.089,65.056,96.082,63.322,95.646,61.47Z" fill="#191919"></path><path d="M94.883,70.4c-.1.655-.109,1.688.436,2.124a.262.262,0,0,0,.381-.218c0-.381-.218-.762-.218-1.144,0-3.305,3.752-5.032,2.941-7.733-.054-.109-.217-.054-.163.054C98.66,65.75,95.34,67.356,94.883,70.4Z" fill="#191919"></path><path d="M170.421,108.743c-.708-.461-2.124.327-2.124.98,0,.926,2.069.218,2.342-.218A.6.6,0,0,0,170.421,108.743Z" fill="#191919"></path><path d="M166.554,108.906a.117.117,0,0,0-.218-.054c-.483,2.3-1.034,3.595-.6,4.356.164.327.545.654.926.491.109-.055.164-.218.055-.273-.218-.272-.491-.381-.545-.762C166.054,111.834,166.428,110.932,166.554,108.906Z" fill="#191919"></path><path d="M169.713,114.951c.163-.109.436-.272.436-.49a.307.307,0,0,0-.382-.327c-.235,0-.751.441-1.307.6a1.508,1.508,0,0,1-1.361-.163c-.164-.163-.436.054-.273.218C167.194,115.891,168.85,115.691,169.713,114.951Z" fill="#191919"></path><path d="M170.8,106.673c-.239-.558-2.512-.494-3.213.708-.109.164.056.385.218.327a6.255,6.255,0,0,1,2.178-.6C170.2,107.054,171.02,107.109,170.8,106.673Z" fill="#191919"></path><path d="M160.4,109.287c.109.926.187,1.848.327,2.778a7.6,7.6,0,0,1,.218,1.906c-.055.218-.109.381,0,.545.14.279.823.095.653-.926a35.26,35.26,0,0,0-1.035-4.357C160.519,109.087,160.4,109.124,160.4,109.287Z" fill="#191919"></path><path d="M159.311,115.986a1.013,1.013,0,0,1-.98-.762.2.2,0,0,0-.382.054,1.443,1.443,0,0,0,1.144,1.362c.53.132,1.684.014,1.852-.491.109-.163.163-.435-.109-.381h-.218A3.477,3.477,0,0,1,159.311,115.986Z" fill="#191919"></path><path d="M156.316,108.307c-.185.184.081.422.272.327a3.805,3.805,0,0,1,1.089-.436c.272-.054,1.028.051,1.2-.218C159.191,107.481,157.322,107.1,156.316,108.307Z" fill="#191919"></path><path d="M162.579,107.49c-.483-.483-1.882.262-1.2.49a1.674,1.674,0,0,0,1.253-.163C162.742,107.708,162.687,107.6,162.579,107.49Z" fill="#191919"></path><path d="M160.781,101.663a5.135,5.135,0,0,1-1.47,2.342c-1.433,1.228-3.776,1.52-4.738,3.049a2.923,2.923,0,0,0-.381,2.4,13.634,13.634,0,0,1,.762,3.921,2.477,2.477,0,0,0-3,.6,1.677,1.677,0,0,0-.164,1.579c1.333,1.925,4.244.788,3.213.273a.935.935,0,0,0-.381.054c-.6.109-2.167-.108-2.069-1.089.124-1.251,2.45-1.089,2.45-1.253v.109c0,.109.109.164.218.109.585-.39-.143-3.549-.163-3.649-.49-2.464.041-3.154,2.233-4.139,1.525-.685,2.852-1.371,3.594-2.777a1.967,1.967,0,0,0,.273-1.471C161,101.608,160.836,101.554,160.781,101.663Z" fill="#191919"></path><path d="M162.96,102.153a.472.472,0,0,0-.164.327,4.34,4.34,0,0,1-3.812,2.995c-.163,0-.109.218.055.218a5.493,5.493,0,0,0,1.633-.055,4.054,4.054,0,0,0,2.778-3C163.45,102.48,163.341,101.881,162.96,102.153Z" fill="#191919"></path><path d="M164.1,104.5a3.681,3.681,0,0,1-2.287,1.361c-.163,0-.109.273.055.273a2.924,2.924,0,0,0,1.524-.273,3.651,3.651,0,0,0,1.961-3.376.949.949,0,0,0-.272-.763.334.334,0,0,0-.327.055C164.53,102.226,165.061,103.418,164.1,104.5Z" fill="#191919"></path><path d="M155.88,103.9c-1.574.506-3.562,1.3-4.194,3a5.814,5.814,0,0,0,.817,5.065.18.18,0,0,0,.327-.109c-.163-.817-.545-1.579-.762-2.342a3.313,3.313,0,0,1,1.633-4.03c.708-.436,1.471-.871,2.233-1.253C156.152,104.113,156.044,103.843,155.88,103.9Z" fill="#191919"></path><path d="M153.81,122.957c.871-1.306.9-4.261.817-5.827a.191.191,0,1,0-.381,0c-.054.98-.218,1.96-.327,2.886a16.245,16.245,0,0,0-.49,2.832C153.375,123.066,153.7,123.175,153.81,122.957Z" fill="#191919"></path><path d="M156.479,122.086c0,.217.108.54.381.49.326-.06.327-.49.381-.763a15.918,15.918,0,0,0,.382-2.233c0-.109-.218-.217-.273-.109A6.722,6.722,0,0,0,156.479,122.086Z" fill="#191919"></path><path d="M165.084,106.4a36.128,36.128,0,0,0-.981,4.193c-.054-1.361-.217-2.723-.381-4.084,0-.109-.22-.109-.218.054.106,8.849.123,9.124-.272,9.967-.866,1.847-4.271,1.489-5.882,1.851a.284.284,0,0,0,0,.545,10.119,10.119,0,0,0,3.595-.272c2.528-.464,3.267-1.738,3.267-4.194.687,2.631,2.98,3.655,4.9,2.886a3.583,3.583,0,0,0,.653-.326,22.532,22.532,0,0,1,1.362,4.629,7.88,7.88,0,0,1-1.362.49c-1.361.381-2.832.6-4.193,1.035-.272.109-.218.544.054.49a24.58,24.58,0,0,0,5.882-1.525.361.361,0,0,0,.218-.272,11.672,11.672,0,0,0-1.688-5.011.194.194,0,0,0-.164-.326,6.1,6.1,0,0,0-1.252.381,2.9,2.9,0,0,1-3.431-1.8c-.981-1.907-.308-4.245,0-6.263.116-.762.163-1.58.272-2.342,2.218,0,4.777-1,5.119-1.689a.184.184,0,0,0-.163-.272c-.631,0-.48.313-2.614,1.089a11.685,11.685,0,0,1-2.827.517C164.646,106.191,164.376,106.455,165.084,106.4Z" fill="#191919"></path><path d="M166.282,104.113c-.218.109-.054.44.163.382a5.484,5.484,0,0,1,2.015-.273.729.729,0,0,0,.49-.109C169.387,103.677,168.188,103.319,166.282,104.113Z" fill="#191919"></path><path d="M168.95,101.281a3.9,3.9,0,0,0-2.94,1.471.115.115,0,1,0,.163.163,4.535,4.535,0,0,1,2.669-1.034c1.157,0,1.583.78,2.124,1.089C171.542,103.354,171.413,101.555,168.95,101.281Z" fill="#191919"></path><path d="M176.738,106.455a4.984,4.984,0,0,0-1.688-3.158,3.737,3.737,0,0,0-3-.763.139.139,0,0,0,.054.272,3.2,3.2,0,0,1,2.778,1.144c1.555,1.671,1.3,4.491,1.089,6.753a6.2,6.2,0,0,0,.381,3.431,11.559,11.559,0,0,0,3.431,3.595c6.824,5.48,1.595,9.444,7.189,13.016.166.106.327-.163.163-.272a7.114,7.114,0,0,1-2.5-5.882c0-6.119-6.081-7.685-7.57-10.783C176.107,111.812,177.4,110.082,176.738,106.455Z" fill="#191919"></path><path d="M146.894,122.848a12.377,12.377,0,0,0-6.59,4.684c-.163.326.272.653.49.381,1.6-1.6,3.314-4.3,8.387-4.9a26.23,26.23,0,0,1,3.1-.163c.218,0,.218-.272,0-.327A15.155,15.155,0,0,0,146.894,122.848Z" fill="#191919"></path><path d="M152.667,122.957c-.055-.163-.273-.163-.273,0a1.9,1.9,0,0,0,.763,1.906c2.006,1.482,5.713.233,5.827-1.252,0-.164-.218-.273-.381-.218a9.763,9.763,0,0,1-1.307,1.034,4.617,4.617,0,0,1-3.595.055A2.352,2.352,0,0,1,152.667,122.957Z" fill="#191919"></path><path d="M169.822,120.179c.218-.108.163-.435-.055-.544a3.332,3.332,0,0,0-1.252.109,11.907,11.907,0,0,0-1.307.272c-2.218.555-5.482,1.3-7.516,2.614a.147.147,0,0,0,.109.273c1.678-.524,3.269-1.137,4.956-1.58C169.6,120.053,169.3,120.53,169.822,120.179Z" fill="#191919"></path><path d="M180.932,123.937c-1.767-3.491-6.4-5.206-7.3-8.931-.054-.164-.272-.109-.218.054.672,3.945,4.94,5.818,6.7,8.768.875,1.468.895,3.109,1.144,4.738a10.011,10.011,0,0,0,2.287,5.229c.163.163.436-.055.327-.218C180.969,128.5,182.282,126.606,180.932,123.937Z" fill="#191919"></path><path d="M185.343,124.591c1.307.871,2.693,1.733,3.268,3.267.875,2.334.163,3.6.163,4.956a.19.19,0,0,0,.327.109,4.407,4.407,0,0,0,.6-2.668,6.333,6.333,0,0,0-.544-2.669,6.44,6.44,0,0,0-3.649-3.213C185.343,124.264,185.18,124.482,185.343,124.591Z" fill="#191919"></path><path d="M181.8,117.347c-.054.055-.383.54-.054.436a5.194,5.194,0,0,1,3.322-.218.337.337,0,1,0,.163-.653A3.4,3.4,0,0,0,181.8,117.347Z" fill="#191919"></path><path d="M178.753,137.389a22.668,22.668,0,0,1-4.52.055c-.163,0-.163.217-.054.272a12.115,12.115,0,0,0,4.683.327,3.467,3.467,0,0,0,1.471-.382c.109-.108.109-.326-.055-.326A3.6,3.6,0,0,0,178.753,137.389Z" fill="#191919"></path><path d="M186.378,116.313c-1.43-1.161-2.771-.086-4.085-.49-.217-.055-.326.272-.163.326,1.092.546,2.555.013,3.486.491,1.04.533,1.089,1.742.925,2.777,0,.39.594.475.763-.49A2.689,2.689,0,0,0,186.378,116.313Z" fill="#191919"></path><path d="M187.848,119.907c-.108.164.109.272.218.164.623-.623,1.086-1.547.654-2.179a.239.239,0,0,0-.436.055C188.116,118.7,188.191,119.565,187.848,119.907Z" fill="#191919"></path><path d="M189.156,120.887a2.79,2.79,0,0,0,.816-2.341.265.265,0,0,0-.49,0,4.63,4.63,0,0,1-.653,2.069C188.72,120.833,188.992,121.051,189.156,120.887Z" fill="#191919"></path><path d="M154.192,51.885c-3.015.287-9.882,2.965-12.2,5.283a5.036,5.036,0,0,0-1.525,2.778c0,.163.162.217.218.054a7.93,7.93,0,0,1,3.812-3.976,33.736,33.736,0,0,1,9.749-3.649A.251.251,0,0,0,154.192,51.885Z" fill="#191919"></path><path d="M148.582,57.767a.281.281,0,0,0,0,.49c1.525.654,4.194,3.54,4.52,3.322a44.145,44.145,0,0,1,7.788-3.812.34.34,0,0,0,0-.653c-.327-.109-3.431-2.07-4.139-2.506A46.066,46.066,0,0,0,148.582,57.767Z" fill="#37a1ff"></path><path d="M84.318,105.039c-2.873,2.791-1.956,7.226,0,10.729,2.564,4.593,6.71,4.848,9.2,2.233,3.036-3.183,3.294-10.5-.218-15.031-.167-.216-.436.054-.327.272a25.669,25.669,0,0,1,1.471,3.159c1.364,4.2.677,7.974-.708,10.13a4.523,4.523,0,0,1-5.61,1.96c-2.179-1.033-3.418-3.436-4.193-5.609-.857-2.4-1.09-5.446.653-7.57C84.645,105.148,84.481,104.93,84.318,105.039Z" fill="#191919"></path><path d="M157.568 110.703 A0.599 0.708 0 1 0 158.766 110.703 A0.599 0.708 0 1 0 157.568 110.703 Z" fill="#191919"></path><path d="M161.598 110.159 A0.599 0.708 0 1 0 162.796 110.159 A0.599 0.708 0 1 0 161.598 110.159 Z" fill="#191919"></path></g></svg>