<svg viewBox="0 0 400 400" xmlns="http://www.w3.org/2000/svg"><g transform="matrix(2,0,0,2,0,0)"><path d="M163.882,125.617c-8.321-3.241-17.951.372-26.025,3.882.305.577.62,1.164.925,1.74,5.383-2.729,11.114-5.3,17.139-5.981A21.068,21.068,0,0,1,163.882,125.617Z" fill="#37a1ff"></path><path d="M111.735,119.146l-9.57-12.452s-7.417,9.668-8.026,10.451a63,63,0,0,1,10.908,4.578.473.473,0,0,1,.217.62C107.261,121.345,107.26,121.415,111.735,119.146Z" fill="#37a1ff"></path><path d="M22.514,162.821c12.64,5.855,29.418,3.512,42.794-.348,20.8-6,39.37-17.388,58.683-27.4l-11.647-15.15c-3.2,1.588-6.406,3.187-9.733,4.5-5.4,2.966-18.142,9.861-23.709,12.582-2.338,3.035-10.658,13.866-10.658,13.866a2.1,2.1,0,0,1-1.261.783,7.21,7.21,0,0,1-.12,3.285c-.367,2.183-.447,4.175-2.229,5.024a5.5,5.5,0,0,1-2.752.326,133.974,133.974,0,0,1-15.171-.957,14.635,14.635,0,0,1-2.784-.4,2.415,2.415,0,0,1-1.783-2.654,3.634,3.634,0,0,1,1.664-2.316,26.632,26.632,0,0,1,14.9-5.253,1.939,1.939,0,0,1-.772-2.566c.3-.608.6-1.208.9-1.817-7.238,1.689-15.475,2.538-21.294-2.142a10.731,10.731,0,0,1-3.567-12.006,19.409,19.409,0,0,1,6.308-10.3c8.085-7.009,19.642-7.443,29.777-6.895,1.762.095,3.534.228,5.285.413,1.381-2.425,7.276-12.5,8.766-14.975-23.567-3.691-54.283-3.3-69.994,14.5A38.087,38.087,0,0,0,5.026,133.6,30.569,30.569,0,0,0,22.514,162.821Z" fill="#37a1ff"></path><path d="M99.239,55.308c1.454,2.8,4.08,1.028,3.448-1.555a.352.352,0,0,0-.577-.153,2.847,2.847,0,0,1-3.012.588c-.228-.09-.314.237-.152.359a2.109,2.109,0,0,0,.435.261A.384.384,0,0,0,99.239,55.308Zm2.86-.838a1.557,1.557,0,0,1-.456,1.273c-.8.727-1.371-.131-1.751-.751A3.064,3.064,0,0,0,102.1,54.47Z" fill="#191919"></path><path d="M98.184,59.625c-.251-.14-.567.22-.326.424,3.23,2.745,7.931.952,11.18-.793a96.7,96.7,0,0,0,11.473-7.309A26.731,26.731,0,0,0,128.45,62.3c-5.941,3.486-8.535,5.087-9.548,11.234-.871,5.285-.215,12.163.663,17.433a9.584,9.584,0,0,1,.37,1.653.278.278,0,0,0,.555,0,11.3,11.3,0,0,0-.142-3.687,67.048,67.048,0,0,1-.641-13.768c.69-7.468,2.891-8.239,9.711-12.452a.437.437,0,0,0,0-.74,25.613,25.613,0,0,1-8.374-10.734c-.086-.206-.345-.4-.565-.228A89.166,89.166,0,0,1,109.6,58.081C105.711,60.27,102.087,61.807,98.184,59.625Z" fill="#191919"></path><path d="M137.9,150.152c.08-.081.024.028,1.642-.468a25.641,25.641,0,0,0,5.3-2.186.584.584,0,0,0,.207-.772c-7.214-15.149-18.761-35.487-28.134-50.712a7.488,7.488,0,0,0-1.208-1.849,10.914,10.914,0,0,0,4.1-.685c.239-.121.1-.426-.119-.457a15.8,15.8,0,0,0-3.361.24c-1.087.086-2.175.131-3.262.163-24.43.714-21.487.455-27.819.152a.353.353,0,0,0,.087-.239c.038-1.676.249-3.339.3-5.014.223-6.8,0-15.2-4.111-20.369a57.808,57.808,0,0,0-7.873-6.873,31.051,31.051,0,0,0,5.133-4.655c1.443-1.689,3.262-3.556,3.926-5.742,5.108,2.615,9.1,6.468,13.518,8.189.195.076.316-.23.141-.337-7.014-4.279-9.526-6.776-13.725-8.82a.418.418,0,0,0-.609.25,6.234,6.234,0,0,1-.772,1.849.615.615,0,0,0-.076-.109C72.815,43.534,64.032,39.944,60.36,37.592c-3.77-2.415-4.563-3.984-6.123-5.253a2.592,2.592,0,0,0-3.2-.359c-.892.7-.99,1.99-1.468,2.947a.369.369,0,0,0,.576.446c.73-.683.661-1.73,1.251-2.479.9-1.144,2.336.175,3,.881,7.442,7.9,11.968,5.746,26.275,18.423a.373.373,0,0,0,.261.1,33.556,33.556,0,0,1-5.111,5.7,19.237,19.237,0,0,0-2.241-1.664C63.226,48.792,60.979,42.352,54.759,39.724c-.848-.359-2.113-.947-3.034-.653a.326.326,0,0,0-.076.587c.49.293,1.145.239,2.621.816,5.7,2.227,8.046,8.613,18.607,16.15a15.871,15.871,0,0,0,2.589,1.7,34.973,34.973,0,0,1-2.915,2.328.5.5,0,0,0,0,.859A48.936,48.936,0,0,1,76.977,65c2.909,2.515,4.98,3.984,6.439,8.972,2.064,7.057.957,14.728,1.152,19.358a.377.377,0,0,0,.392.37.247.247,0,0,0,.152.359,18.827,18.827,0,0,0,2.752.489c-7.477,11.771-20.61,35.03-28.951,52.169a.6.6,0,0,0,.207.805,28.922,28.922,0,0,0,6.939,2.653.593.593,0,0,0,.924-.119c9.247-12.026,32.561-42.392,34.986-45.546,9.081,11.8,32.419,42.164,35.018,45.535C137.227,150.3,137.64,150.456,137.9,150.152Z" fill="#191919"></path><path d="M63.546,150.75a.473.473,0,0,0,.12.924c1.6.028.617,3.023.468,3.883a8.393,8.393,0,0,1-.359,1.805c-.312.73-1.425.5-2.077.5a144.736,144.736,0,0,1-17.151-1.131c-.488-.178-.12-.49.163-.728a21.994,21.994,0,0,1,6.917-3.731,34.146,34.146,0,0,1,8.755-1.522c.315-.024.434-.541.076-.588-5.248-.683-11.637,1.521-15.987,4.807-.5.379-1.1.806-1.2,1.479-.2,1.444,1.862,1.371,3.415,1.556a127.081,127.081,0,0,0,14.486.924,6.613,6.613,0,0,0,2.718-.185c1.119-.529,1.116-1.927,1.61-4.774a3.523,3.523,0,0,0-.12-2.327A1.6,1.6,0,0,0,63.546,150.75Z" fill="#191919"></path><path d="M157.324,154.2c-4.112-2.741-10.007-4.749-14.9-4.035-.359.053-.228.564.076.588a36.066,36.066,0,0,1,7.8,1.218,24.781,24.781,0,0,1,7.08,3.458c.249.176,1.53.943,1.131,1.273-.209.172-.881.127-1.131.152a144.166,144.166,0,0,1-15,.989c-3.259.046-3.18.3-3.524-1.663-.145-.826-.3-1.664-.435-2.491-.121-.717-.272-2,.794-2.012a.472.472,0,0,0,.12-.924,1.5,1.5,0,0,0-1.654.609c-.765,1-.35,2.362.044,4.6a5.4,5.4,0,0,0,.631,2.262,1.9,1.9,0,0,0,1.544.707,126.059,126.059,0,0,0,17.6-1.1c.631-.087,1.509-.057,1.925-.631C160.331,155.944,158.107,154.719,157.324,154.2Z" fill="#191919"></path><path d="M122.208,52.306c14.271-11.313,19.473-9.917,26.47-16.324.807-.738,2.154-2.448,3.415-1.729.888.506.563,1.926,1.49,2.882.316.326.736-.085.577-.446-.4-.909-.43-2.06-1.11-2.827a2.268,2.268,0,0,0-2.61-.446A12.466,12.466,0,0,0,147.5,35.8c-3.761,3.239-6.955,4.3-11.039,6.319a72.257,72.257,0,0,0-14.768,9.7C121.361,52.1,121.862,52.581,122.208,52.306Z" fill="#191919"></path><path d="M149.179,41.061c-6.23,1.968-8.958,8.211-19.652,15.421a23.57,23.57,0,0,0-2.9,1.958.217.217,0,0,0,.207.359,12.322,12.322,0,0,0,2.545-1.414c12.582-7.928,13.982-14.1,20.913-15.693a6.053,6.053,0,0,0,1.588-.37.324.324,0,0,0-.076-.587A4.567,4.567,0,0,0,149.179,41.061Z" fill="#191919"></path><path d="M154.018,33.655c.62,0,1,.2,1.066.859a3.449,3.449,0,0,1-.12,1.327c-.361,1.225-.971,1.365-1.142,1.99a.2.2,0,0,0,.185.25c2.092-.046,2.773-6.218-.087-4.774C153.755,33.39,153.844,33.655,154.018,33.655Z" fill="#191919"></path><path d="M155.138,38.647a.227.227,0,0,0,.272.272c1.294-.179,3.237-3.162,1.414-4.709-.153-.13-.433.042-.3.228a2.312,2.312,0,0,1-.055,2.371C156.1,37.437,155.3,37.932,155.138,38.647Z" fill="#191919"></path><path d="M157.1,38.157c-.382.424-.971.732-1.185,1.273-.074.186.13.317.293.293.719-.1,1.416-1.01,1.795-1.587a2.637,2.637,0,0,0,.4-2.121.267.267,0,0,0-.522.076A2.816,2.816,0,0,1,157.1,38.157Z" fill="#191919"></path><path d="M155.552,40.735a.205.205,0,0,0,.141.348c1.523-.1,2.843-1.662,3.426-2.947a.271.271,0,0,0-.468-.272C157.507,39.669,156.367,40.031,155.552,40.735Z" fill="#191919"></path><path d="M49.7,36.309a.194.194,0,0,0,.185-.25,2.508,2.508,0,0,0-.511-.838,3.406,3.406,0,0,1-.587-2.5c.1-.653.489-.867,1.12-.838a.188.188,0,0,0,.1-.348C47.187,30.01,47.626,36.119,49.7,36.309Z" fill="#191919"></path><path d="M48.267,37.07a.223.223,0,0,0,.271-.272c-.127-.727-.911-1.252-1.239-1.914a2.292,2.292,0,0,1,.087-2.36c.119-.153-.108-.379-.261-.261a2.167,2.167,0,0,0-.783,2.382C46.547,35.5,47.342,36.9,48.267,37.07Z" fill="#191919"></path><path d="M47.723,37.527c-.169-.557-.77-.894-1.12-1.338a2.8,2.8,0,0,1-.642-2.121c.043-.3-.443-.347-.522-.076a2.709,2.709,0,0,0,.294,2.143C46.794,38.05,47.878,38.037,47.723,37.527Z" fill="#191919"></path><path d="M47.875,39.212c.185.023.262-.229.141-.348-.8-.8-1.769-1.019-2.936-3.045-.151-.262-.612-.086-.5.207C45.1,37.38,46.33,39.024,47.875,39.212Z" fill="#191919"></path><path d="M188.308,113.7c-4.575-4.711-11.147-7.276-17.466-8.624-13.612-2.9-27.728.049-40.6,5.351-.74.435-1.534.816-2.273,1.229,1.675,2.9,7.895,14.094,9.353,16.835a63.641,63.641,0,0,1,12.365-4.339c6.134-1.368,14.329-1.616,19.032,3.349a8.189,8.189,0,0,1,2.186,4.916c1.331,5.592-5.7,9.758-10.963,12.028a34.889,34.889,0,0,1-13.333,2.578,1.864,1.864,0,0,1-1,1.7.084.084,0,0,1-.055.022,26.384,26.384,0,0,1,12.909,4.546c.876.573,2.366,1.521,2.632,2.914a2.29,2.29,0,0,1-.424,1.816,3.309,3.309,0,0,1-2.534,1.142c-1.075.111-4.273.585-9.048.881-2.338.145-7.293.36-9.07.25a3.216,3.216,0,0,1-2.556-1.25,5.232,5.232,0,0,1-.794-2.4c-.332-2.286-.94-3.893-.228-5.427-.317-.284.146.272-4.329-5.557a70.568,70.568,0,0,1-13.529-3.4c2.62-1.347,5.054-2.637,7.744-4.143l-1.653-2.143c-21.454,11.08-44.307,25.547-69.809,30.125-12.92,2.319-28.275,2.587-39.021-6.177A32.775,32.775,0,0,1,5.189,143.344a35.352,35.352,0,0,0,1.066,4.948c4.285,14.576,15.523,20.4,30.69,21.294,18.367,1.081,37.431-6.068,54.29-13.736,22,12.486,47.976,15.775,69.874,10.441,10.4-2.533,20.533-7.689,27.145-16.161a37.69,37.69,0,0,1-6.341,5.764c-9.856,7.074-24.1,9.358-36.269,9.885-17.207.746-36.429-4.183-51.745-11.353-.326-.153-.087-.717.251-.588,10.212,3.92,18.395,6.846,28.254,8.853a93.816,93.816,0,0,0,26.079,1.794c16.108-1.276,31.14-4.529,40.771-17.389a54.9,54.9,0,0,0,4.524-7.58C196.378,130.62,194.957,120.545,188.308,113.7Z" fill="#37a1ff"></path><path d="M90.637,31.48c.951,1.259,1.761,3.327,2.849,3.872a.235.235,0,0,0,.316-.316c-.382-.7-.972-1.313-1.414-1.979a10.724,10.724,0,0,0-1.425-1.827C90.8,31.074,90.5,31.294,90.637,31.48Z" fill="#191919"></path><path d="M98.978,30.447c-.1.6-.035,4.343.37,4.992a.163.163,0,0,0,.272,0c.335-.7-.075-4.443-.25-4.992C99.294,30.273,99.013,30.241,98.978,30.447Z" fill="#191919"></path><path d="M105.144,35.547c.341-.395,2.17-2.894,2.176-3.578a.2.2,0,0,0-.294-.163c-.588.3-2.07,3.165-2.23,3.535C104.712,35.537,105.014,35.7,105.144,35.547Z" fill="#191919"></path><path d="M109.745,37.124c.556-.5,2.823-2.7,2.98-3.447.02-.1-.066-.218-.174-.174a25.273,25.273,0,0,0-3.089,3.339A.2.2,0,0,0,109.745,37.124Z" fill="#191919"></path><path d="M55.053,56.4A2.816,2.816,0,0,1,53.4,53.97a.212.212,0,0,0-.414.055l-.032-.1a.169.169,0,0,0-.326.087A2.017,2.017,0,0,1,51.4,56.352a.243.243,0,0,0-.109.4c.286.263.635.138.979.446.41.369.529,1.361.837,2.828.055.261.5.207.468-.066a2.783,2.783,0,0,1,1.468-3.121A.232.232,0,0,0,55.053,56.4Zm-1.806,1.86c-.181-.751-.434-1.472-1.152-1.729h-.011A2.4,2.4,0,0,0,53.063,55a3.184,3.184,0,0,0,1.392,1.632A2.815,2.815,0,0,0,53.247,58.255Z" fill="#191919"></path><path d="M135.106,35.21c-1.132-.433-1.425-1.35-1.653-2.425a.212.212,0,0,0-.413.054l-.033-.1a.169.169,0,0,0-.326.087,2.015,2.015,0,0,1-1.229,2.338.244.244,0,0,0-.109.4c.286.263.635.138.979.446.41.368.529,1.361.837,2.828.055.261.5.207.468-.066a2.783,2.783,0,0,1,1.468-3.121A.23.23,0,0,0,135.106,35.21Zm-1.794,1.86c-.182-.752-.435-1.473-1.153-1.729h-.011a2.4,2.4,0,0,0,.979-1.523,3.182,3.182,0,0,0,1.392,1.631A2.736,2.736,0,0,0,133.312,37.07Z" fill="#191919"></path><path d="M75.292,38.592a1.889,1.889,0,0,1-.087-2.033.145.145,0,0,0-.24-.142l-.032.033a.152.152,0,0,1,.022-.065.119.119,0,0,0-.229-.065,1.412,1.412,0,0,1-1.577.924c-.119-.023-.25.065-.206.2.068.252.33.333.413.63a4.807,4.807,0,0,1-.544,1.969c-.064.174.218.3.305.13a1.927,1.927,0,0,1,2.012-1.294A.172.172,0,0,0,75.292,38.592Zm-1.74.435c.157-.45.283-1.108-.055-1.446a1.682,1.682,0,0,0,1.131-.533,2.159,2.159,0,0,0,.218,1.468A1.975,1.975,0,0,0,73.552,39.027Z" fill="#191919"></path><path d="M74.356,70.283a1.908,1.908,0,0,1-1.794-.957.148.148,0,0,0-.25.131c0,.026.048.081-.044-.011a.119.119,0,0,0-.174.163,1.413,1.413,0,0,1-.011,1.838.172.172,0,0,0,.066.283c.289.075.409-.139.75-.044.389.108.735.647,1.425,1.468.119.142.371-.033.272-.185a1.948,1.948,0,0,1-.1-2.392A.17.17,0,0,0,74.356,70.283ZM73.845,72c-.629-.719-.891-.706-1.272-.706a1.675,1.675,0,0,0,.109-1.251,2.146,2.146,0,0,0,1.381.555A2.058,2.058,0,0,0,73.845,72Z" fill="#191919"></path><path d="M143.176,59.821a1.911,1.911,0,0,1-1.11-1.707.149.149,0,0,0-.283-.011.068.068,0,0,1-.01.043c-.011-.021-.011-.043-.022-.065a.118.118,0,0,0-.229.054,1.419,1.419,0,0,1-.891,1.6.165.165,0,0,0-.076.272.455.455,0,0,0,.261.13c.644.178.619.363.957,2.176.034.184.338.152.326-.033a1.932,1.932,0,0,1,1.066-2.143A.164.164,0,0,0,143.176,59.821ZM141.9,61.083a1.492,1.492,0,0,0-.772-1.229,1.8,1.8,0,0,0,.685-1.044,2.216,2.216,0,0,0,.935,1.152A1.979,1.979,0,0,0,141.9,61.083Z" fill="#191919"></path><path d="M156.389,45.477a1.91,1.91,0,0,1,.152-2.034.145.145,0,0,0-.217-.174c-.067.066-.011.016-.011-.033a.12.12,0,0,0-.218-.1,1.434,1.434,0,0,1-1.674.74.17.17,0,0,0-.229.174c.057.323.3.3.337.663.076.429-.451,1.27-.75,1.9-.077.163.182.325.283.164a1.919,1.919,0,0,1,2.142-1.066C156.356,45.781,156.475,45.619,156.389,45.477Zm-1.773.239a1.9,1.9,0,0,0,.24-1.153.913.913,0,0,0-.131-.3,1.665,1.665,0,0,0,1.186-.4,2.162,2.162,0,0,0,.054,1.479A1.973,1.973,0,0,0,154.616,45.716Z" fill="#191919"></path><path d="M107.494,50.827c1.018-1.71,1.622-5.266-.011-6.612-1.157-.953-2.375-.141-3.763-.968-2-1.19-4.469-3.774-7.08-3.611-3.6.227-4.406,5.025-.1,7.32h.011a21.841,21.841,0,0,0-.435,2.5,9.034,9.034,0,0,0-1.066.12.161.161,0,0,0-.141.152c-.478.382-.365,1.543,1.011,2.218a7.221,7.221,0,0,0,.544,4.024,4,4,0,0,0,2.675,1.784c-.032.435-.044.87-.076,1.294-.033.446.63.424.685,0a4.562,4.562,0,0,0,.011-1.218,7.656,7.656,0,0,0,1.642-.065,3.353,3.353,0,0,0,2-.62.232.232,0,0,0-.1-.381,3.082,3.082,0,0,0-1.632.131,6.861,6.861,0,0,1-2.131.076,3.137,3.137,0,0,1-2.7-2.012,7.979,7.979,0,0,1-.24-2.8,2.956,2.956,0,0,0,2.8-.587c-.076.456-.148.914-.206,1.37-.051.4-.089.876.413.99a3.374,3.374,0,0,0,1.74-.359.3.3,0,0,0-.152-.555c-.316.034-.978.324-1.273.218-.2-.071-.018-.478.337-2.611a1.4,1.4,0,0,1,.947.283,2.427,2.427,0,0,0,2.936,1.327,3.219,3.219,0,0,0,1.675-.881l.011.011a.453.453,0,0,0,.587.174.13.13,0,0,0,.174.076c.833-.3.967.924.957,1.468-.012.675-.348,1.386-1.131,1.338a.356.356,0,0,0-.359.359,13.142,13.142,0,0,0,.228,3.621.334.334,0,0,0,.653-.087c-.037-1.077-.174-2.12-.163-3.186,1.829-.28,1.827-3.567.522-4A.584.584,0,0,0,107.494,50.827ZM94.585,42.181a.194.194,0,0,1,.348-.043,12.577,12.577,0,0,0,.75,1.816c.375.584.959.9,1.349,1.436.142.2-.088.406-.283.369C95.779,45.578,94.371,43.552,94.585,42.181Zm1.4,8.94c-.141.023-.3-.163-.163-.272a4.622,4.622,0,0,1,1.066-.533c.185-.077.707-.381.848-.087s-.326.392-.5.446A6.986,6.986,0,0,1,95.987,51.121Zm2.36-.152a4.694,4.694,0,0,1-.946.435.132.132,0,0,1-.13-.229c.273-.193.663-.489,1.022-.424C98.391,50.762,98.4,50.905,98.347,50.969Zm5.819-.381a1.1,1.1,0,0,1-.588.326,7.289,7.289,0,0,1-.772.316.145.145,0,0,1-.141-.24,2.448,2.448,0,0,1,.707-.446,1,1,0,0,1,.718-.163A.165.165,0,0,1,104.166,50.588Zm-2.85-.3a2.42,2.42,0,0,0-.935-.184,7.111,7.111,0,0,0,.25-1.469.2.2,0,0,0-.37-.1A5.67,5.67,0,0,0,99.7,50.24a.194.194,0,0,1-.054.022c-.426-.536-2.159-.79-2.85-.8.055-.761.12-1.523.185-2.3,2.284,1.131,5.2,1.86,7.667,1.1a6.21,6.21,0,0,0,.24,1.185C104.01,49.413,101.806,49.565,101.316,50.283Z" fill="#191919"></path></g></svg>