<svg viewBox="0 0 400 400" xmlns="http://www.w3.org/2000/svg"><g transform="matrix(2,0,0,2,0,0)"><path d="M91.853,68.627c1.265,3.578,8.067,3.435,9.945,1.03a10.467,10.467,0,0,0,1.431,6.922c.191.322.723.527.876.1.5-1.389,1.685-2.147,1.913.418.112,1.271.222,3.369-1.277,3.968-.642.256-.73.4-.836,1.46a45.477,45.477,0,0,0,.223,11c.083.575.98.573.945,0a85.845,85.845,0,0,1-.034-11.193c2.582-.916,2.53-4.769,1.918-6.521,4.511-3.435,2.089-9.161-.819-9.922,3-2.863-2.388-5.972-4.58-2.645-1.426-6.235-10.266-3.252-10.232.544-.939-2.17-6.586-2.131-7.013,1.883C83.852,69.994,90.158,71.81,91.853,68.627Z" fill="#191919"></path><path d="M89.912,71.2a.418.418,0,0,0-.83,0c-.251,2.029-.235,4.1-.315,6.138-.178,4.54-.7,10.878,4.918,12.355l-.653,3.882a.437.437,0,0,0,.728.195c.452-.515.9-3.069,1.019-3.876a7.748,7.748,0,0,0,5.994-1.947c.466-.427-.078-.837-.572-.572-1.881,1.006-3.5,1.791-5.943,1.236C87.275,87.024,90.227,76.1,89.912,71.2Z" fill="#191919"></path><path d="M95.929,83.994c1.272.078,3.3-1.26,3.023-2.216-.2-.693-.788-.417-1.047.04a2.632,2.632,0,0,1-2.1,1.351C95.136,83.334,95.265,83.953,95.929,83.994Z" fill="#191919"></path><path d="M96.685,74.8c.779-.189,1.094.161,1.609.4s.74-.392.029-1.013a1.95,1.95,0,0,0-1.861-.378A.51.51,0,0,0,96.685,74.8Z" fill="#191919"></path><path d="M95.924,78.068c.108.841,1.6.829,1-1.054C96.667,76.209,95.746,76.688,95.924,78.068Z" fill="#191919"></path><path d="M90.966,77.386c-.128,1.77,1.7,1.135,1.145-.458C91.85,76.185,91.017,76.677,90.966,77.386Z" fill="#191919"></path><path d="M92.059,73.556a1.7,1.7,0,0,0-1.718.773c-.281.444-.11.824.407.493a2.207,2.207,0,0,1,1.265-.333A.481.481,0,0,0,92.059,73.556Z" fill="#191919"></path><path d="M93.2,78.52a13.726,13.726,0,0,0-.572,1.821c-.25,1.139,1.5,1.08,2.141.693.411-.248.236-.8-.223-.716-.246.043-.859.126-.865,0a7.059,7.059,0,0,1,.458-2.176C94.275,77.7,93.767,77,93.2,78.52Z" fill="#191919"></path><path d="M117.176,76.19c-.165-.338-.572-3.848-2.439-6.464a.4.4,0,0,0-.541-.175c-.723.371.575,1.239,1.784,6.719.245,1.111,1.014,1.225,2.055,1.867.928.571,1.759,1.308,2.72,1.82.384.205.869-.281.572-.658C120.051,77.677,117.349,76.544,117.176,76.19Z" fill="#191919"></path><path d="M109.579,82.923c-.189.834-.955,2.4.618,2.782,1.146.278,2.359.47,3.533.659a.458.458,0,0,0,.086-.91c-3.494-.967-3.507-.749-3.493-.991.052-.452.1-.906.178-1.351A.471.471,0,0,0,109.579,82.923Z" fill="#191919"></path><path d="M109.344,79.574c.223-.979,1.552-.608,2.25-.281.453.212,1.2.241,1.059-.424-.189-.921-2.9-1.534-3.8-.612S109.132,80.5,109.344,79.574Z" fill="#191919"></path><path d="M108.056,82.156a.4.4,0,0,0,.693.372c1.523-1.925,4.8,2.519,6.406,2.937a.407.407,0,0,0,.487-.573,24.77,24.77,0,0,0-4.082-3.544C109.876,80.29,108.279,80.931,108.056,82.156Z" fill="#191919"></path><path d="M110.346,77.009c1.073-1.464,2.29-.47,3.435-.04a.574.574,0,0,0,.51-.957c-.876-.7-2.714-1.305-3.956-.458S109.838,77.7,110.346,77.009Z" fill="#191919"></path><path d="M112.235,74.381c2.084-7.2.905-7.118,4.947-5.8,4.249,1.385,3.517.4,1.718,7.855-.138.572.775.789.984.263.457-1.147,1.747-5.641,1.4-6.916a1.939,1.939,0,0,0-1.254-1.311,30.467,30.467,0,0,0-4.58-1.511c-1.827-.446-2.341.389-2.794,1.786a32.328,32.328,0,0,0-1.323,5.4C111.267,74.631,112.09,74.884,112.235,74.381Z" fill="#191919"></path><path d="M65.075,88.912c-.523-1.364-2.4-1.775-3.933-1.031a.453.453,0,0,0,.321.836c1.006-.246,2.282-.386,2.776.681C64.487,89.933,65.363,89.661,65.075,88.912Z" fill="#191919"></path><path d="M64.577,90.584c-1.2-1.546-4.529-.693-3.876.309.418.641,1.489-.624,2.777.171a.854.854,0,0,1,.469.8C64.062,92.776,65.562,91.855,64.577,90.584Z" fill="#191919"></path><path d="M61.577,84.5c1.058-.894,2.989-3.229,3.057-4.757a.434.434,0,0,0-.478-.387c-.757.08-.458,1.718-3.134,4.5C60.682,84.209,61.2,84.817,61.577,84.5Z" fill="#191919"></path><path d="M53.5,95.3c1.237-3.67,4.781-7.911,8.5-9.4.63-.251,4.054-1.248,4.271.04.115.682.945.693.945,0,0-1.838-2.187-1.8-3.493-1.609C59.51,84.94,53.652,90.205,52.6,95.152,52.488,95.68,53.338,95.771,53.5,95.3Z" fill="#191919"></path><path d="M62.121,95.588c-.733.263.039,1.51,1.512.074.9-.882,1.36-2.288.435-3.132-1.252-1.142-4.346-.177-3.733.739.452.675,2.259-.97,3.069.1C63.977,94.122,62.774,95.353,62.121,95.588Z" fill="#191919"></path><path d="M153.893,137.932c1.4.807,2.371.894,3.665,2.457a8.428,8.428,0,0,1,1.717,3.578c.148.434.8.762.9-.132.139-1.282-.941-3.33-1.775-4.3a7.281,7.281,0,0,0-4.208-2.451C153.706,137,153.516,137.715,153.893,137.932Z" fill="#191919"></path><path d="M148.088,141.94a3.722,3.722,0,0,0,3.361-.939,3.924,3.924,0,0,0,.658-2.662c-.1-1.844-1.38-1.849-1.26,0a2.58,2.58,0,0,1-.36,1.929,3.928,3.928,0,0,1-2.531.768C147.487,141.047,147.223,141.724,148.088,141.94Z" fill="#191919"></path><path d="M159.155,137.079c-.647.659.827.658,1.426,3.642.212,1.059,1.213.836.853-.876C161.141,138.454,159.859,136.363,159.155,137.079Z" fill="#191919"></path><path d="M165.161,138.642c2-1.885-.317-5.3-2.943-6.7-2.138-1.141-1.8.242-1.483.4,1.383.686,3.449,2.172,3.939,3.9.277.977,0,1.215-.109,2.027C164.515,138.631,164.817,138.9,165.161,138.642Z" fill="#191919"></path><path d="M162.642,135.894c-.413-.3-.962.292-.607.676,1.146,1.241.738,2.793,1.048,3.5.082.19.834.945.807-1.145A3.573,3.573,0,0,0,162.642,135.894Z" fill="#191919"></path><path d="M189.436,148.954c-19.087.214-39.716.507-58.633.572-.647,0-.573,1.141.057,1.145,19.027.138,39.436-.418,58.468-.435C190.152,150.236,190.272,148.944,189.436,148.954Z" fill="#191919"></path><path d="M125.513,149.635c-11.451.017-26.285.138-36.345.183-.733,0-.825,1.145-.052,1.145,11.2,0,24.878-.113,36.339,0C126.32,150.972,126.377,149.634,125.513,149.635Z" fill="#191919"></path><path d="M92.706,141.654c10.405.321,22.632-.089,33.076-.12.9,0,.8-1.231-.1-1.225-10.363.067-23.406.183-32.9.269C92.1,140.584,91.973,141.631,92.706,141.654Z" fill="#191919"></path><path d="M126.543,145.937c-9.842.178-22.442.75-31.724.847-.641.007-.664,1.142,0,1.145,8.68.034,22.383-.053,31.724-.716C127.225,147.165,127.293,145.923,126.543,145.937Z" fill="#191919"></path><path d="M94.887,143.394a.573.573,0,0,0,0,1.146c8.589.022,19.621.148,28.427.189a.642.642,0,0,0,0-1.283C120.118,143.392,98.405,143.323,94.887,143.394Z" fill="#191919"></path><path d="M157.523,66.783a63.861,63.861,0,0,0,9.161,4.46c.716.2.939-.572.469-1.145s-6.8-3.246-8.989-4.2a1.27,1.27,0,0,0-.3-1c1.763-4.047,3.8-8.52,5.725-14.141.2-.572-.606-.761-.847-.235-.832,1.811-4.581,10.306-5.88,13.918-1.6,0-1.471,2.554.046,2.531A1.149,1.149,0,0,0,157.523,66.783Z" fill="#191919"></path><path d="M173.136,66.2a6.943,6.943,0,0,0,1.832-.08c.761-.132.573-.887,0-.922a6.412,6.412,0,0,0-2,.075C172.524,65.472,172.6,66.073,173.136,66.2Z" fill="#191919"></path><path d="M156.8,50.489V48.771a.493.493,0,0,0-.974.086,7.158,7.158,0,0,0-.028,1.569C155.87,51.125,156.722,51.37,156.8,50.489Z" fill="#191919"></path><path d="M157.867,80.186a7.857,7.857,0,0,0-.029,2.182c.172.572.945.624,1,0,0-.31,0-1.226-.068-2.027A.464.464,0,0,0,157.867,80.186Z" fill="#191919"></path><path d="M140.118,66.72a7.508,7.508,0,0,0,1.958.063c.933-.088.458-.96.04-.985-.624-.037-1.254,0-1.883,0A.476.476,0,0,0,140.118,66.72Z" fill="#191919"></path><path d="M65.991,146.629c-4.694-.008-13.556-.011-18.161.04-.486.006-.4.8.041.808,4.986.066,13.081.051,18,.1,1.145.012,2.061-.172,2.147,1.357.068,1.2-1.145,1.145-2.038,1.145-16.1,0-32.377,0-48.46-.269-3.309-.057-4.877-.132-5.777-3.773-2.133-8.629-4.1-17.423-5.387-25.255-.851-5.153,1.294-4.658,5.565-4.769q9.825-.257,19.655.12c6.3.25,7.986.143,9.018,5.491,1.716,8.9,3.533,17.425,5.244,25.764a.584.584,0,1,0,1.145-.229c-1.688-8.291-3.513-16.6-5.061-24.9-.393-2.106-1.419-5.273-3.367-6.407-1.272-.74-2.908-.618-4.328-.687q-10.4-.5-20.812-.315c-4.758.087-9.291-.628-8.273,5.468.567,3.4,4.2,20.464,5.725,25.976,1.343,4.868,4.008,4.669,8.2,4.7H65.883c1.574,0,3.332.1,3.183-2.07S67.617,146.632,65.991,146.629Z" fill="#191919"></path><path d="M62.253,68.249a.573.573,0,0,0,1-.08c.464-1.073.893-2.165,1.311-3.258a47.515,47.515,0,0,0,2.657,4.632c.31.371.787.212.624-.281-.361-1.086-2.256-4.546-2.955-5.874a.521.521,0,0,0-.893.069c-.491,1.019-.91,2.072-1.339,3.12-1.02-1.878-2.04-3.764-3.195-5.554-.274-.424-1.016-.062-.8.413C59.74,63.759,61.027,66.01,62.253,68.249Z" fill="#37a1ff"></path><path d="M68.7,60.892a.573.573,0,0,0,.984.149c.636-.67,1.271-1.346,1.895-2.027.35,1.431,1.117,5,1.575,6.08a.374.374,0,0,0,.727-.172,38.248,38.248,0,0,0-1.506-6.87c-.405-1.224-.87-.51-2.862,1.551a47.5,47.5,0,0,0-2.107-5.685c-.188-.419-.957-.292-.836.212A52.2,52.2,0,0,0,68.7,60.892Z" fill="#37a1ff"></path><path d="M194.3,152.332c-48.664.525-171.521.017-185.084.034-.825,0-.67,1.265.143,1.271,24.31.2,146.089.607,185.067-.04C195.282,153.643,195.133,152.323,194.3,152.332Z" fill="#37a1ff"></path><path d="M169.919,142.055c-3.235.484-7.879.87-9.407,4.374-2.353-2.2-5.765-2.86-8.909-2.548-5.828.578-12.259,4.305-18.27,1.867-.68-.277-1.222-.682-1.362.4-.094.722-.212,1.437-.281,2.159a.447.447,0,0,0,.87.126,11.807,11.807,0,0,0,.424-1.718c7.014,3.384,14.886-2.7,21.991-1.6a8.556,8.556,0,0,1,5.336,2.639c.323.163.709.309.894-.137,1.656-4.012,6.458-3.846,10.065-4.552,5.348-1.046,9.895-5.771,10.437-11.021.085-.825-.658-.7-.79-.155C179.518,137.658,175.845,141.168,169.919,142.055Z" fill="#37a1ff"></path><path d="M177.728,142.713c3.5-.887,9.028-4.279,10.655-8.284.393-.969-.4-.86-.63-.5-2.467,3.9-4.139,5.268-10.3,7.982A.429.429,0,0,0,177.728,142.713Z" fill="#37a1ff"></path><path d="M186.774,144.156c-7.718,2.627-15.259-1.686-22.037,1.66-.468.232-.08.854.4.664,6.992-2.75,15.149,1.5,21.613-1.03a4.117,4.117,0,0,0,.893,2.342c.636.795,1.117.394.676-.682C187.272,144.555,187.662,143.854,186.774,144.156Z" fill="#37a1ff"></path><path d="M165.075,68.335c.573,0,1.065-1.586,1.237-2.353.692-3.087-.709-3.264-.67-1.672C165.7,66.709,163.936,68.335,165.075,68.335Z" fill="#37a1ff"></path><path d="M167.279,69.211c1.088,0,1.837-4.392,1.878-5.1.287-4.9-2.21-6.607-1.431-4.254C169.81,66.153,165.745,69.211,167.279,69.211Z" fill="#37a1ff"></path><path d="M153.859,56.2c-2.061-.155-4.334,2.862-3.1,2.862.424,0,.857-1.554,2.628-1.969C154.934,56.734,153.91,56.2,153.859,56.2Z" fill="#37a1ff"></path><path d="M146.227,55.475a14.874,14.874,0,0,1,8.348-4.969c.527-.113.24-.892-.281-.79-4.384.857-8.148,4.1-8.588,5.364C145.528,55.592,145.99,55.737,146.227,55.475Z" fill="#37a1ff"></path><path d="M153.4,85.511c13.3,2.182,25.634-8.461,23.8-22.484a19.937,19.937,0,0,0-27.345-15.521C132.228,54.557,132.9,82.148,153.4,85.511Zm15.579-34.2a18.4,18.4,0,0,1,6.069,20.457c-5.824,17.143-32.107,16.723-35.961-.75C135.069,52.83,155.18,40.551,168.974,51.313Z" fill="#37a1ff"></path><path d="M151.5,55.017c.241,0,3.574-2.846,7.821-1.815,1.533.373,1.763-.851-1.391-1.007C153.475,51.974,149.92,55.017,151.5,55.017Z" fill="#37a1ff"></path><path d="M158.187,50.242a6.726,6.726,0,0,1,2.863.573c.218,0,1-.581-.492-1.082C158.015,48.882,157.409,50.245,158.187,50.242Z" fill="#37a1ff"></path><path d="M67.978,79.476a3.992,3.992,0,0,0-.114,1.472A2.651,2.651,0,0,0,64.829,83.5c0,.785.929.647,1.048-.086.185-1.144,1.105-1.379,2.038-1.322.138,2.147.5,5.153.847,7.288-2.255.115-2.74-1.454-2.942-3.074-.1-.773-1.033-.819-1.014,0,.072,3.017,1.472,4.431,4.163,4.208A4.073,4.073,0,0,0,69.415,92a37.665,37.665,0,0,0,7.294.161c.908-.459,1.655-12.419,1.277-12.8S68.259,79.041,67.978,79.476Z" fill="#37a1ff"></path><path d="M63.97,138.247c-5.015-.075-9.469-8.313-11.25-12.321-2.628,1.26-5.33,2.05-8.016,3.161.51,2.965,1.953,10.2,2.823,14.027,2.456-.143,19.607-2.073,21.911-2.966a17.887,17.887,0,0,0,6.012-3.905c-.63-6.463-.928-13.133-.968-19.632,0-.618.7-.7.727-.069.479,10.352,1.088,24.442,3.436,34.17h8.244c-.727-1.884,1.643-2.388,5.926-2.606-.865-1.517-.573-3.687-.43-4.843-2.679.286-3.183-4.2-1.523-4.414s27.917-.144,32.544-.218c.063-2.244.5-7.18.572-10.214a59.1,59.1,0,0,1-6.9-7.741c-.313-.419.23-.968.6-.572,9.754,10.395,15.762,15.1,31.616,17.147.8-5.565,5.639-7.809,9.4-8.244-7.626-6.115-15.419-9.041-18.493-11.274-5.537,1.5-14.093,1.887-19.587.241-.475-.143-.269-.852.189-.813,6.978.591,11.274,1.42,18.322-.287a64.849,64.849,0,0,1-6.585-8.4c-.278-.427.32-.854.573-.492,1.4,2.008,4.832,6.647,7.088,8.468,2.817-.979,7.174-3.435,7.746-10.586.654-8.171-15.115-22.272-24.3-26.108-3.905.87-6.945,4.775-7.81,7.443,1.626,1.208,8.673,12.21,10.306,15.155.274.493-.3.807-.63.366-1.77-2.392-3.183-4.694-4.872-7.025a37.266,37.266,0,0,0-14.079-2.061c-3.979,6.367-12.945,3.836-15.693-.286-10.2.95-21.11,12.332-23.875,17.531a39.218,39.218,0,0,0,3.624,6.693.322.322,0,0,1-.509.4c-4.392-5.044-6.333-12.527-7.151-19-3.327.5-9.367-.326-11.388-3.217a58.246,58.246,0,0,0,1.8,28.718c6.613-2.862,7-3.778,11-8.851.371-.471.747.057.441.572-3.413,5.744-5.348,6.59-11.056,9.276,1.718,4.076,5.451,11.193,10.094,12.195C64.354,137.721,64.463,138.255,63.97,138.247Z" fill="#37a1ff"></path><path d="M27.872,131.938c-.6-1.946-1.718-4.071-3.922-4.454-3.819-.653-4.895,4.374-2.393,8.256,1.1,1.706,3.24,3.366,5.279,2.152C28.931,136.65,28.467,133.885,27.872,131.938Zm-1.157,4.454c-1.087,1.363-3.652.367-4.809-2.158-.739-1.62-1.168-5.525,1.277-5.679,1.717-.109,2.788,1.471,3.32,2.908S27.8,135.03,26.715,136.392Z" fill="#37a1ff"></path></g></svg>