<svg viewBox="0 0 400 400" xmlns="http://www.w3.org/2000/svg"><g transform="matrix(2,0,0,2,0,0)"><path d="M186.928,169.163c-.775-13.011-13.467-40.718-35.384-41.591-1.117,2.373-4.779,8.145-8.323,11.153-2.116-1.322-6.393-4.3-8.648-8.687-.542,1.983-5.169,5.634-8.27,7.021-3.669,1.641-4.688.972-5.812-3.411-9.064,5.573-24.038,19.794-23.628,35.7.357,13.884,17.1,8.331,19.668,6.321-.661-2.327-1.705-11.828-2.294-18.664a24.592,24.592,0,0,0-7.186,2.532c-.435.234-.727-.358-.331-.661,2.437-1.865,4.681-2.453,7.405-3.186-.218-2.645-.36-4.747-.364-5.587-.012-3.008,1.389-5.077,4.774-5.514s43.594-.753,46.847-.753,4.632,1.441,4.76,4.826c.041,1.091-.179,3.967-.536,7.437,1.733.033,6.347,1.263,7.689,2.2.78.542.142.933-.277.761a26.04,26.04,0,0,0-7.524-1.792c-.754,7.153-1.983,16.323-2.611,18.736C174.962,179.424,187.568,179.907,186.928,169.163Z" fill="#37a1ff"></path><path d="M153.548,67.35c-.31-.507-6.327-.813-7.021-1.064s-3.306-7.207-3.855-7.207-1.983,6.83-2.644,7.207-7.074.661-7.074,1.064c0,.879,4.826,3.7,5.137,4.767s-1.818,6.948-1.257,7.272S142.6,75.984,143.261,76s6.036,4.495,6.413,4-1.812-7.457-1.442-7.933S153.867,67.874,153.548,67.35Z" fill="#37a1ff"></path><path d="M127.863,67.251c-.113-.631-5.884,0-6.512-.377s-1.985-6.708-3.134-6.327c-.748.248-1.058,5.95-2.122,6.611s-6.453.437-6.77,1.19,5.2,3.445,5.329,4.258-1.944,6.2-1.508,6.8,4.827-3.788,5.64-3.728,5.633,4.013,6.135,3.2-1.626-5.455-1.692-6.268S127.975,67.877,127.863,67.251Z" fill="#37a1ff"></path><path d="M162.942,72.2c.063.562-2.129,6.016-1.441,6.162s5.289-3.656,5.95-3.65,5.759,4.569,6.453,4.132-2.446-6.7-2.195-7.272,5.011-3.517,4.945-4.02-6.261-.436-6.763-.747-2.883-6.611-3.5-6.611-1.627,6.188-2.063,6.5-6.763.45-6.611,1.25S162.879,71.634,162.942,72.2Z" fill="#37a1ff"></path><path d="M107.692,52.21a321.422,321.422,0,0,0,30.941-23.8c-.575,2.777-1.984,8.069-1.25,8.072,1.547.007,13.056-18.315,11.986-18.716-.662-.249-21.213,8.329-20.878,9.328.259.773,6-.086,8.819-.324a318.187,318.187,0,0,1-29.975,23.14A209.855,209.855,0,0,1,91.792,34.34a1.071,1.071,0,0,0-1.481-.079c-13.9,11.5-27.567,22.791-40.811,34.557-.945.84.373,2.271,1.322,1.441,13.05-11.406,26.835-22.584,40.117-33.8,4.906,5.884,10.429,10.234,15.471,15.523A1.082,1.082,0,0,0,107.692,52.21Z" fill="#37a1ff"></path><path d="M194.332,179.854c-62.337.316-126.274.763-188.823.78-.708,0-.661,1.239.039,1.249,62.308.919,126.388-.193,188.632-.5C195.159,181.376,195.324,179.849,194.332,179.854Z" fill="#191919"></path><path d="M145.627,109.986c-.281.515.045.859.549.5a1.245,1.245,0,0,1,1.184-.145c.661.152.66-.323.264-.694A1.27,1.27,0,0,0,145.627,109.986Z" fill="#191919"></path><path d="M145.813,115.017c-2.639,2.578-5.483,1.086-3.994,2.856,2.121,2.521,4.961,1.7,5.084-2.512C146.936,114.237,146.562,114.285,145.813,115.017Zm-3.306,2.427a4.985,4.985,0,0,0,3.51-1.567c-.1,3.041-2.274,3.153-3.47,1.567Z" fill="#191919"></path><path d="M139.823,110.012a1.182,1.182,0,0,0-1.9-.4c-.4.291-.429.767.073.661a1.507,1.507,0,0,1,1.25.218C139.724,110.912,140.019,110.5,139.823,110.012Z" fill="#191919"></path><path d="M138.917,106c-1.7,0-3.518,2.217-2.552,2.691.608.3.483-1.038,2.645-1.448A.662.662,0,0,0,138.917,106Z" fill="#191919"></path><path d="M145.33,107.342a4.066,4.066,0,0,1,2.644.416c.468.248.886-.218.364-.78a3.816,3.816,0,0,0-3.167-.846C144.279,106.356,144.351,107.421,145.33,107.342Z" fill="#191919"></path><path d="M142.375,114.839a2.439,2.439,0,0,0,.727-.311c.67-.429.143-.9-.2-.741a2.473,2.473,0,0,1-.8.219,30.662,30.662,0,0,1,.383-3.392c.055-.33-.3-.8-.661-.066a10.833,10.833,0,0,0-.661,3.021C141.013,114.6,141.084,115.159,142.375,114.839Z" fill="#191919"></path><path d="M63.688,88.751c2.357-2.12,6.042-7.7,7.655-11.55,1.891.125,1.673-1.358.939-1.177-3.52.868-3.412-5.371-.258-5.91,1.362-.233,1.614,1.2,1.6,2.175-.009.661.847.813.873.125.047-1.249-.086-2.876-1.448-3.411C77.611,54.392,98.8,59.863,92.01,76.2c-2.12,5.1-7.484,14.848-14.28,13.335-2.644-.589-4.952-2.743-4.978-5.514-.007-.721-.894-.72-.88,0A6.913,6.913,0,0,0,76.963,90.5a18.848,18.848,0,0,0-.866,4.059.443.443,0,0,0,.873.047c.142-.661.621-2.923.958-3.9,6.757,1.005,11.332-6.565,13.97-11.748,10.685-21-15.867-26.379-19.834-10.082-3.51.3-4.958,6.492-1.712,8.065a46.652,46.652,0,0,1-7.273,11.24C62.716,88.652,63.228,89.164,63.688,88.751Z" fill="#191919"></path><path d="M83.383,75.846c-.715-.323-1.865,1.678-.939,1.9C83.5,77.993,84.03,76.138,83.383,75.846Z" fill="#191919"></path><path d="M81.869,82.106a2.582,2.582,0,0,0,3.246.662c1.22-.779,1.785-2.645,1.593-4.417a.41.41,0,0,0-.813-.1c-.153,1.195-.168,2.625-1.137,3.489-1.038.926-1.937-.086-2.546-.324C81.875,81.234,81.308,81.523,81.869,82.106Z" fill="#191919"></path><path d="M77.3,78.589c-3.666,4.535-.034,8.047,2.969,6.77a.616.616,0,0,0,0-1.144,4.7,4.7,0,0,1-1.984-5.077C78.491,78.312,77.912,77.832,77.3,78.589Zm2.136,6.129c-1.858.218-3.782-1.666-2.043-4.793A4.924,4.924,0,0,0,79.436,84.7Z" fill="#191919"></path><path d="M90.457,76.89c.238.4.614.311.707-.192a2.062,2.062,0,0,0-1.355-2.161c-.5-.119-.847.879-.39,1.1A2.262,2.262,0,0,1,90.457,76.89Z" fill="#191919"></path><path d="M84.8,72.216a3.391,3.391,0,0,0-3.193.436c-.661.556-.271,1.323.595.933a2.644,2.644,0,0,1,2.228-.1C85.187,73.723,85.445,72.573,84.8,72.216Z" fill="#191919"></path><path d="M88.956,78.431c-.744-.495-1.872,1.727-.827,1.937C88.731,80.488,89.467,78.771,88.956,78.431Z" fill="#191919"></path><path d="M72.626,133.767c-.289,1.137-1.825,1.374-2.81,1.719-.357.125-.588,1.218.966.971a3.086,3.086,0,0,0,2.77-2.644C73.581,133.3,72.772,133.192,72.626,133.767Z" fill="#191919"></path><path d="M73.314,137.766c.105-.747-.477-1.11-.893-.436-.7,1.137-.86,1.465-2.228,1.8-1.111.276-.721,1.164.046,1.164A3.135,3.135,0,0,0,73.314,137.766Z" fill="#191919"></path><path d="M72.2,131c-2.657.72-3.967.45-6.373.172-.39-.045-1.237.8.06,1.243,1.836.624,5.389.486,6.644-.218C73.2,131.825,72.927,130.805,72.2,131Z" fill="#191919"></path><path d="M71.991,141.5c.306-.449-.3-.965-.661-.615-2.8,2.7-6.153,3.515-12.211,2.955-.595-.055-.661,1.08-.072,1.184C63.646,145.839,69.181,145.629,71.991,141.5Z" fill="#191919"></path><path d="M60.137,130.924c-.51.291-.224,1.146.747,1.071a6.088,6.088,0,0,0,3.485-2.188c1.7-1.926,2.249-5.435,1.586-8.027-.25-.978-1.1-.892-1.057-.052C65.2,127.348,64.217,128.6,60.137,130.924Z" fill="#191919"></path><path d="M116.723,131.142c-1.071.661-.4,1.522.258,1.269.886-.342,3.3-.843,3.967-.462,1.391.8,1.568,3.095,1.805,3.781.155.451.957.615.932-.3-.049-1.739-1.012-3.967-2.156-4.536A6.214,6.214,0,0,0,116.723,131.142Z" fill="#191919"></path><path d="M122.164,129.912c.9.188,2.807.6,3.782,4.37.464,1.8,1.336,1.115,1.011-.4-.8-3.723-3.094-5.016-4.376-5C121.549,128.884,121.193,129.71,122.164,129.912Z" fill="#191919"></path><path d="M127.116,129.846a6.917,6.917,0,0,1,1.468,2.8c.286,1.071,1.19.873.912-.661a7.5,7.5,0,0,0-1.6-3.054,4.451,4.451,0,0,0-3.2-1.322.5.5,0,1,0-.185.991A4.709,4.709,0,0,1,127.116,129.846Z" fill="#191919"></path><path d="M108.34,140.338a.483.483,0,0,0,.582.767c1.824-.608,4.8-5.046,5.362-6.7.452-1.323-.6-1.442-1.177-.515C111.324,136.765,110.429,138.871,108.34,140.338Z" fill="#191919"></path><path d="M114.482,129.126c3.246-1.084,9.336-2.846,14.042-1.521a4.957,4.957,0,0,1,3.663,2.922c.346.845.9.252.826-.3-.262-1.916-2.441-3.3-4.185-3.768-3.554-.958-10.051-.107-14.789,1.672C113.418,128.36,113.927,129.311,114.482,129.126Z" fill="#191919"></path><path d="M137.178,123.116a20.3,20.3,0,0,1-.859,5.163c-.226.758.617.791.78.357a19.823,19.823,0,0,0,1.177-5.95c2.724,2.843,6.38,3.088,9.328.41a18.543,18.543,0,0,0,.86,4.364c.375,1.139,1.429.883,1.11-.126a26.206,26.206,0,0,1-.972-4.211c3.491.052,10.638-.615,14.4-2.83a40.314,40.314,0,0,1-5.448-17.725c-.464-7.218-5.633-11.774-9.256-9.077-4.019-6-16.22-4.158-18.789,8.952-1.749,8.925-3.8,14.458-6.056,16.931A26.432,26.432,0,0,0,137.178,123.116Zm-2.115-17.692a18.221,18.221,0,0,1-2.189-.383c-.549-.132-.47-.786.073-.727a87.014,87.014,0,0,0,19.4-.186c.5-.058.665.46.159.629a9.464,9.464,0,0,1-2.116.423,27.12,27.12,0,0,1-.231,9.639,14.979,14.979,0,0,1-2.645,6.545c-4.063,4.933-9.451,1.334-11.312-4.833A38.448,38.448,0,0,1,135.063,105.424Z" fill="#191919"></path><path d="M76.738,176.555a3.8,3.8,0,0,0,3.041-.5c.318,1.547.663,2.639.946,2.743.666.246,8.12.451,8.727-.224,1.013-1.129,2.254-15.246,1.838-16.251s-12.113-.5-12.78,0a6.717,6.717,0,0,0-.106,2.645,4.02,4.02,0,0,0-4.2.357C70.922,167.761,73.439,175.663,76.738,176.555Zm-1.322-10.261a2.644,2.644,0,0,1,3.147.45c.2,2.36.542,5.255.939,7.616a2.157,2.157,0,0,1-2.44.767c-2.241-.861-4.324-7.286-1.679-8.833Z" fill="#191919"></path><path d="M75.264,135.446c3.426-4.306,6.915-11.448,6.81-18.611-.012-.76-.987-.786-.986,0,.017,6.836-3.795,13.525-6.551,18.056C74.266,135.336,74.915,135.885,75.264,135.446Z" fill="#191919"></path><path d="M103.706,143.565c-6.544,3.46-19.633,7.582-24.462-.2a26.463,26.463,0,0,1-2.645-7.332.49.49,0,0,0-.952.231c.529,4.416,2.229,9.565,6.539,11.649,5.574,2.7,16.54.234,22.068-3.206C104.987,144.246,104.445,143.173,103.706,143.565Z" fill="#191919"></path><path d="M17.389,136.418c9.306,7.7,26,11.1,37.684,10.492a1.85,1.85,0,0,0,1.8-1.369c.88-2.6,1.573-11.067,1.2-14.419-.172-1.54-.555-1.745-2.122-2.036a86.072,86.072,0,0,1-18.723-5.2c2.73-7.126,4.231-9.321,7.986-13.751.331-.39-.105-1.116-.6-.767-3.366,2.4-7.4,9.672-8.4,14.082a9.553,9.553,0,0,1-2.69-1.712c-.335-.307-1.071,0-.483.833,2.548,3.614,19.51,7.365,23.8,7.933.49,4.086-.231,10.347-1.368,15.1-11.411.662-28.283-2.644-37.413-10.188-3.881-3.206-5.4-5.85-4.694-10.829,1.95-13.725,13.889-34.64,29.268-36.315a74.162,74.162,0,0,1,17.586.152c.469,6.942,12.938,12.68,18.28,8.594a18.829,18.829,0,0,1,8.971,7.273c4.212,6.412,6.089,17.116,7.359,24.845a12.578,12.578,0,0,0-2.83.086c-.4.1-.66.787-.126.892,5.3,1.041,13.712-1.051,18.823-1.243-1.732,2.026-3.934,8.405-2.119,7.989a.521.521,0,0,0,.4-.425,11.836,11.836,0,0,1,2.492-6.612c.977-1.268.833-2.394-1.058-2.32-4.482.175-9.136,1.487-14.267,1.593-1.289-7.973-2.909-18.234-7.55-25.38-2.829-4.357-4.767-5.17-9.163-7.6-.826-.456-1.242-.468-1.838-.033-4.3,3.138-15.571-1.951-16.369-7.973-.079-.595-.2-.994-1.1-1.124a67.951,67.951,0,0,0-17.566-.079C26.4,88.807,14.186,109.655,12.14,124.24,11.394,129.553,13.315,133.048,17.389,136.418Z" fill="#191919"></path><path d="M68.21,146.077c.239-.661-.852-1.051-1.144-.43-1.973,4.19-4.277,13.368-4.079,17.85-17.474.49-31.6-3.219-47.218-10.353A52.751,52.751,0,0,1,18.91,139.5a.563.563,0,0,0-1.032-.45,43.116,43.116,0,0,0-3.239,13.745c-.091,1.124.291,1.289.886,1.606,13.621,7.269,31.522,10.721,47.006,10.393C65.99,164.72,61.983,163.241,68.21,146.077Z" fill="#191919"></path><path d="M15.108,155.835c-1.263,8.654-.661,19.021-.469,22.624H64.223c-.582-4.165-.661-9.448-.965-12.562C43.186,166.254,29,162.691,15.108,155.835Z" fill="#191919"></path><path d="M115.4,150.8c0,1.983,1.912,26.442,3.51,27.351,1.324.751,44.785.337,45.7,0s3.815-24.846,3.9-28.607-1.984-4.258-4.344-4.225-41.651.661-45.261.886S115.4,148.8,115.4,150.8Zm26.141,8.35c2.743-.291,5.765,1.322,5.593,4.595s-2.129,4.594-5.177,4.925c-2.307.251-5.439-1.322-5.712-3.841-.348-3.213,2.142-5.342,5.316-5.679Z" fill="#191919"></path></g></svg>