<svg viewBox="0 0 400 400" xmlns="http://www.w3.org/2000/svg"><g transform="matrix(2,0,0,2,0,0)"><path d="M65.462,61.229a32.193,32.193,0,0,1,14.39,2.923,20.1,20.1,0,0,1,3.317,2.024,13.626,13.626,0,0,1,.112-5c1.29-4.336,5.511-8.265,5.228-11.748-.168-2.3-2.529-1.912-4.16-1.855-1.349.056-1.124-1.125-1.18-2.08a6.517,6.517,0,0,0-6.577-6.24c-2.192.056-3.878,1.405-5.34,2.867a15.346,15.346,0,0,1-5.4,4.047c-1.743.731-3.71,1.293-5.116,2.642a5.71,5.71,0,0,0-1.461,2.755A7.594,7.594,0,0,1,57.93,54.99c-1.349,1.574-4.048,3.372-2.923,5.846.449,1.011,1.574,1.236,2.473,1.742A28.528,28.528,0,0,1,65.462,61.229Z" fill="#37a1ff"></path><path d="M43.6,75.17c-.338.787-3.092,1.518-3.935,1.63-4.167.595-8.1-3.67-14.447-2.923-2.586.337-5.059.787-7.645.169-3.316-.787-7.7-2.417-10.511.449C4.472,77.137,4.7,81.972,5.709,85.232a6.118,6.118,0,0,0,2.192,3.2c1.967,1.349,3.878.394,5.9,0a10.877,10.877,0,0,1,6.689.394c2.474,1.124,3.261,3.26,3.767,5.789.787,3.654,1.517,7.252,2.36,10.905a11.356,11.356,0,0,0,2.418,5.116,17.128,17.128,0,0,0,4.1,2.81,12.853,12.853,0,0,1,3.429,3.316c1.855,2.643,4.5,4.723,7.87,3.373a24.993,24.993,0,0,1,3.148,1.968c1.236.618,3.148.675,3.878-.731a.464.464,0,0,0-.506-.675c-1.644.577-2.85-1.253-4.665-1.8.281.056,1.012-1.405,1.236-1.63.731-.562-.112-.788-.618-.675-1.461.281-2.361,1.237-3.991.844-2.642-.619-1.63-3.71-.112-4.947,2.749-2.156,6.588-1.225,8.881-4.666C43.109,101.7,38.4,87.5,43.6,75.17Z" fill="#37a1ff"></path><path d="M49.61,67.019c-.286.286-1.506-.231-3.035.619a2.241,2.241,0,0,0-.843,3.653A25.393,25.393,0,0,1,49.61,67.019Z" fill="#37a1ff"></path><path d="M28.756,71.235A10.824,10.824,0,0,1,33.59,73.6c1.742,1.293,4.16,3.091,6.408,1.8,3.036-1.743,2.473-7.308-1.63-6.633-1.574.281-2.754.5-4.1-.563a14.243,14.243,0,0,0-3.2-2.36,3.03,3.03,0,0,0-3.372.9,5.163,5.163,0,0,0-1.462,2.642C26.024,70.691,27.442,71.1,28.756,71.235Z" fill="#37a1ff"></path><path d="M32.016,63.478c1.18.393,1.574,1.461,2.361,2.248a3.042,3.042,0,0,0,4.328.169c2.53-2.7-.45-6.015-3.2-6.8-4.646-1.548-5.636,1.518-5.284,2.811a2.55,2.55,0,0,0,1.8,1.574Z" fill="#37a1ff"></path><path d="M43.877,57.688c.52.477,1.792.781,2.529,1.405.843.675,1.406,1.8,2.417,2.249,1.462.674,2.249-.506,2.867-1.63,1.694-2.964,4.034-7.294,7.083-10.344,1.012-1.068,2.361-2.079,2.923-3.485.675-1.686-.562-3.26-2.136-3.878-3.766-1.518-8.882,0-11.917,2.473-2.724,2.2-2.341,4.232-3.766,7.083A7.118,7.118,0,0,0,42.7,55.383,3.674,3.674,0,0,0,43.877,57.688Z" fill="#37a1ff"></path><path d="M48.823,64.377c.9-1.124-.168-2.586-1.236-3.092-1.855-.9-5.116-.618-5.059,2.024,0,1.574,1.012,2.249,2.529,2.192C44.438,65.5,47.91,65.518,48.823,64.377Z" fill="#37a1ff"></path><path d="M54.557,117.779a.442.442,0,0,0-.225-.731,2.117,2.117,0,0,1-.9-.674,2.741,2.741,0,0,0-1.012-.956c-.731-.45-3.654-.731-3.373.731a6.314,6.314,0,0,1,1.687.168C51.9,116.675,53.3,119.2,54.557,117.779Z" fill="#37a1ff"></path><path d="M63.157,149.2a28.819,28.819,0,0,1,9.5-15.964,22.656,22.656,0,0,1,2.193-1.686c-1.15-1.161-4.091-1.405-5.79-2.361-3.542-2.024-6.127-6.015-10.287-7.083-4.5-1.181-8.6,3.035-8.488,7.477.056,2.922,1.686,5.452,3.26,7.813,1.911,2.867,2.53,4.946,1.855,8.431-.562,2.755-1.574,5.4-1.911,8.208-.394,3.878.45,8.6,3.654,11.129a5.045,5.045,0,0,0,.955.676c.45.281.843-.226.675-.676a10.431,10.431,0,0,1-.056-7.813,19.593,19.593,0,0,1,2.192-4.159c.45-.675,1.855-1.8,1.967-2.53C62.989,150.213,63.048,149.708,63.157,149.2Z" fill="#37a1ff"></path><path d="M172.378,137c-.169-.337-.45-2.023-1.125-1.236-.337.393-.111,1.012-.9,1.067-1.405.113-1.349-2.361-2.473-2.923-2.642-1.348-5.228,2.193-6.971,3.654a15.571,15.571,0,0,1-2.642,1.575,6.564,6.564,0,0,0-2.192,9.443.489.489,0,0,0,.731.113,6.4,6.4,0,0,1,7.42-1.744c2.811,1.181,4.722,5.06,8.263,3.542a8.914,8.914,0,0,0,4.61-6.071C177.783,140.557,173.465,139.4,172.378,137Z" fill="#37a1ff"></path><path d="M163.834,128.909a.287.287,0,0,0,.224.281,6.874,6.874,0,0,1,1.687,1.686,6.2,6.2,0,0,0,1.911,1.462,7.9,7.9,0,0,0,4.553.674c.787-.112,1.518-.281,2.305-.45.393-.112,1.068-.056,1.349-.393.674-.843-.956-.675-1.349-.562a4.834,4.834,0,0,0-3.261-1.968A22.261,22.261,0,0,1,163.834,128.909Z" fill="#37a1ff"></path><path d="M157.481,126.042c-.281.112-.112.45-.281.619a4.679,4.679,0,0,1-1.236.449c-.955.394-2.642,1.012-3.036,2.08-.674,1.911,1.912,2.3,3.148,2.023a29.149,29.149,0,0,0,3.766-1.18c.731-.281.731-.956.619-1.63a4.157,4.157,0,0,0-.225-.787C159.337,127.166,158.381,126.6,157.481,126.042Z" fill="#37a1ff"></path><path d="M147.813,125.93a2.857,2.857,0,0,0-2.192-.562c-.394.111,1.18,1.124,1.292,1.124,1.406,1.067,1.462,3.6,2.98,4.665,1.124.844,1.349.113,1.068-1.181A7.455,7.455,0,0,0,147.813,125.93Z" fill="#37a1ff"></path><path d="M157.369,133.8c1.237-.109,2.08-1.181.393-1.124a12.427,12.427,0,0,1-5.509-.787c-.112.168-.055.337,0,.562.113.281,1.238.675,1.519.787A8.285,8.285,0,0,0,157.369,133.8Z" fill="#37a1ff"></path><path d="M116.672,81.972c-.923.7-1.912,1.349-2.7.955-1.517-.73.057-4.834-.056-6.071a4.159,4.159,0,0,0-3.373-4.1c-4.609-.843-7.363,3.991-9.668,7.139-1.237,1.686-3.148,3.541-3.991,5.452-1.105,2.611.907,3.694,3.822,4.666a2.766,2.766,0,0,0,2.53-.562c2.057-1.573.953-5.171,2.979-5.678a2,2,0,0,1,2.249,1.855c.224,1.406-.844,2.642-1.912,3.373-2.361,1.518-5.621,1.63-7.645,3.654-1.011,1.012-1.292,2.473-2.248,3.429-1.237,1.237-5.34,2.811-3.373,5.284,0,0-2.192,1.405-2.417,1.574a3.632,3.632,0,0,0-1.349,2.361c-.281,3.935,4.1,1.348,5.565.281a21.96,21.96,0,0,1,2.867-2.08c2.023-1.012,3.373.45,4.947,1.686,3.71,2.98,5.227-4.722,8.375-3.485a11.29,11.29,0,0,0-1.068,2.024,3.31,3.31,0,0,0-.506,1.124,3.356,3.356,0,0,0,.506,1.405c10.8-27.121,11.018-27.612,11.018-27.712C120.147,79.429,118.2,80.81,116.672,81.972Z" fill="#37a1ff"></path><path d="M194.975,81.016a11.9,11.9,0,0,0-6.914-7.42c-2.585-1.012-5.565-1.068-8.207-2.024-2.81-1.068-4.553-3.991-7.533-4.665a.429.429,0,0,0-.562.337,7.853,7.853,0,0,1-4.778,4.666c-1.236-2.024-3.541-2.867-5.79-3.148a14.137,14.137,0,0,0-3.766.112c-.506.056-4.159.281-4.328.618.787-1.63,2.248-3.71,2.417-5.565.225-2.023-1.855-2.923-3.6-2.923a29.543,29.543,0,0,1-6.183,6.521c-.112.056-.168.169-.281.225.26.325,11.355,18.731,11.355,18.831a25.964,25.964,0,0,1,24.9-1.462,16.209,16.209,0,0,1,3.71,2.418c.169-.169.281-.394.45-.563,2.136-2.754,4.834-5.4,8.544-5.34C194.806,81.578,195.087,81.3,194.975,81.016Z" fill="#37a1ff"></path><path d="M113.917,109.684a11.672,11.672,0,0,0,3.317,8.826c1.573,1.574,4.328,2.753,6.351,1.292a3.289,3.289,0,0,0,1.238-3.934,5.652,5.652,0,0,0-1.574-1.687c-.45-.393-1.069-1.012-1.012-1.686-.113.843,8.825,3.316,9.949,3.879a4.307,4.307,0,0,1,2.08,2.585l13.154-7.082a22.636,22.636,0,0,1,7.2-23.666l.056-.056c-.056-.112-10.568-17.875-10.962-18.662a14.687,14.687,0,0,0-3.372,1.405,29.694,29.694,0,0,1-4.1,5.4c-.056-1.18-.112-2.3-.224-3.485a39.688,39.688,0,0,1-6.746,1.743c-1.181.73-4.047,1.911-4.216,2.023-.533,1.3-7.682,19.314-12.029,29.961a1.552,1.552,0,0,1,.9.281C114.576,107.311,113.917,109.1,113.917,109.684Z" fill="#37a1ff"></path><path d="M135.053,121.714a9.07,9.07,0,0,0,.675,1.855.472.472,0,0,0,.787,0,19.6,19.6,0,0,1,2.473-3.992C137.639,120.308,136.346,121.039,135.053,121.714Z" fill="#37a1ff"></path><path d="M148.319,114.631c-1.968,1.068-3.878,2.08-5.846,3.148a3.992,3.992,0,0,1,2.136.337c2.248,1.236,4.553,6.183,6.3,1.349A23.56,23.56,0,0,1,148.319,114.631Z" fill="#37a1ff"></path><path d="M92.725,97.036c1.181.394,2.08-1.011,2.305-1.967a2.815,2.815,0,0,0-.9-2.473,15.839,15.839,0,0,1-1.742-1.349,16.975,16.975,0,0,1-.506,2.3C92.4,94.594,91.118,96.469,92.725,97.036Z" fill="#37a1ff"></path><path d="M97.84,108.054a10.217,10.217,0,0,0-8.15,1.911c-4.5,3.373-6.352,11.861-1.293,15.739a2.313,2.313,0,0,0,.618.394,27.573,27.573,0,0,1,3.092-.281,32.683,32.683,0,0,1,9.612.956h.056c.113,0,.225.056.338.056.1-.1,3.826-9.928,6.52-16.47.056-.113-5.171-.787-5.565-.843C101.326,109.122,99.588,108.426,97.84,108.054Z" fill="#37a1ff"></path><path d="M121.787,122.613a4.864,4.864,0,0,1-2.923-.506c-.45-.225-1.912-1.8-2.193-.843-.055.225-1.854-1.687-2.023-1.911-1.472-2.3-1.587-5.97-3.6-7.645-.9,2.192-6.239,15.458-6.408,15.908a8.266,8.266,0,0,1,1.63.674,22.549,22.549,0,0,1,4.834,3.036c.057-.056,9.5-5.059,10.512-5.565a7.5,7.5,0,0,0,.787-2.474C122.461,122.838,122.179,122.552,121.787,122.613Z" fill="#37a1ff"></path><path d="M113.074,133.068c.281.281.562.619.9.9.338.337.619.731.956,1.124a1.2,1.2,0,0,1,.169-.281,25.844,25.844,0,0,1,3.091-4.272C116.4,131.437,114.7,132.257,113.074,133.068Z" fill="#37a1ff"></path><path d="M119.426,142.343c0,.057.056.057.056.113.037-.112,1.59-3.549,2.361-5.79.506-1.406-.281-2.979-1.63-1.406a10.78,10.78,0,0,0-2.136,4.048.508.508,0,0,0-.056.281A25.469,25.469,0,0,1,119.426,142.343Z" fill="#37a1ff"></path><path d="M173.277,64.04c.562-2.361-2.979-2.586-4.272-1.518C165.982,64.965,172.515,67.308,173.277,64.04Z" fill="#37a1ff"></path><path d="M90.252,70.617c.971-.652,10.062-7.027,10.793-7.533-.169-.225-.338-.506-.506-.73C97.11,64.827,88.678,70.673,88,71.235c.169.225.281.45.45.675C89.015,71.46,89.643,71.025,90.252,70.617Z" fill="#191919"></path><path d="M82.551,127.672c-1.968-4.778-6.971-16.976-7.139-17.2a2.8,2.8,0,0,1-.731.225c.056.225,6.521,16.189,6.97,17.313h.056A5.3,5.3,0,0,1,82.551,127.672Z" fill="#191919"></path><path d="M123.7,74.945c-2.754,6.689-20.236,50.534-20.8,52.109.281.056.562.168.787.225.615-1.415,19.75-49.171,20.967-52.334Z" fill="#191919"></path><path d="M155.4,87.649a9.34,9.34,0,0,1,.787-.562c-.008-.017-10.931-18.349-11.243-18.888-.225.169-.449.282-.674.45C146.7,73.391,155.3,87.549,155.4,87.649Z" fill="#191919"></path><path d="M147.982,113.731a5.445,5.445,0,0,1-.281-.9c-4.5,2.473-35.639,18.831-35.92,19,.225.168.449.393.675.562C113.27,132.122,141.791,117.053,147.982,113.731Z" fill="#191919"></path><path d="M181.259,86.131a24.478,24.478,0,0,0-25.914,2.923c-10.987,8.927-9.638,25.908.9,34.571a21.29,21.29,0,0,0,26.7.225,23.163,23.163,0,0,0,7.42-27.376,21.689,21.689,0,0,0-4.048-6.632A18.349,18.349,0,0,0,181.259,86.131Zm-26.195,35.245a10.1,10.1,0,0,1,3.654-4.721c3.915-3.011,7.9-3.36,9.669-3.766h.168c.635,4.443,9.382,4.19,10.119-.338a11.453,11.453,0,0,1,2.754.619,8.728,8.728,0,0,1,4.328,3.428,5.442,5.442,0,0,1,.787,2.136v.169a21.645,21.645,0,0,1-1.461,1.742C177.245,129.24,164.006,130.317,155.064,121.376Zm15.852-11.467a7.933,7.933,0,0,0,3.261-1.574c.393-.281.056-.955-.394-.674-2.136,1.348-5.115,2.248-7.251.393-3.429-2.979.168-8.544,1.8-11.467,0,0,2.585.562,2.866.618,1.293.168,3.879.506,5.228-.056a11.54,11.54,0,0,0,.056,5.34c.056.281.338.618.675.393a1.748,1.748,0,0,1,2.417,0c1.293,1.575-1.967,3.991-2.979,2.3a.454.454,0,0,0-.787.45,2.167,2.167,0,0,0,.618.619,21.486,21.486,0,0,0-.956,6.8.451.451,0,0,0,.9,0v-.506a13.755,13.755,0,0,1,1.518-.056c-.45,1.855-2.418,2.7-4.216,2.755a5.232,5.232,0,0,1-2.923-.675,3.716,3.716,0,0,1-1.462-1.743C170.937,112.421,170.828,113.189,170.916,109.909Zm20.237-2.7a21.823,21.823,0,0,1-3.767,10.68c-1.03-4.259-6.738-7.02-11.017-6.071.281-.112.225-5.509.562-5.4a3.36,3.36,0,0,0,3.654-2.136,2.268,2.268,0,0,0-1.181-2.755c1.757-.878,2.9-3.905,2.024-6.408a5.442,5.442,0,0,0-4.834-3.766,12.666,12.666,0,0,0-10.062,3.823.441.441,0,0,0,.225.73c.393.169.787.281,1.18.45a14.339,14.339,0,0,0-3.541,7.814,5.2,5.2,0,0,0,1.236,4.216,5.453,5.453,0,0,0,4.666,1.517c0,.112.056,1.855.056,1.968a24.989,24.989,0,0,0-8.094,1.686,16.019,16.019,0,0,0-6.521,4.89,5.023,5.023,0,0,0-1.012,2.3c-7.4-8-7.786-20.587-1.18-28.5,6.443-7.686,19.155-10.47,29.061-4.441C188.792,91.7,191.638,100.13,191.153,107.211Z" fill="#191919"></path><path d="M170.8,105.805a3.973,3.973,0,0,0,1.63-.9.8.8,0,0,0,.281-.618c0-.45-.562-.169-.73-.057a4.321,4.321,0,0,1-1.406.788,3.906,3.906,0,0,1-1.967.056c-.281-.113-.506.337-.225.506A3.953,3.953,0,0,0,170.8,105.805Z" fill="#191919"></path><path d="M170.579,98.948a5.346,5.346,0,0,0-1.068,1.686,4.767,4.767,0,0,0-.45,1.349,1.092,1.092,0,0,0,0,.731c.337.618,1.125-1.462,1.237-1.687.218-.547.7-1.307.843-1.742A.335.335,0,0,0,170.579,98.948Z" fill="#191919"></path><path d="M101.438,127.672a32.494,32.494,0,0,0-9.331-.956c-14.624.719-25.5,10.568-27.994,22.6a30.944,30.944,0,0,0,5.228,24A28.679,28.679,0,0,0,91.1,185.4c14.39.618,27.488-10.4,30.186-24.4C123.78,148.038,115.275,130.541,101.438,127.672Zm17.37,38.337a31.776,31.776,0,0,1-8.826,12.086c-3.316-.563-6.633.168-9.949.617a15.906,15.906,0,0,1,.112-3.653c0-.337-.112-.731-.562-.618-.281.112-.618.168-.9.281,0-.169-.169-2.474-.225-2.474a10.162,10.162,0,0,0,3.429-.5c3.535-1.1,7.85-4.755,7.251-8.545-.393-2.248-2.473-3.991-4.216-5.34,0,0,.113-1.124.113-1.293-.225-1.63-1.968-2.473-3.429-2.642a8.6,8.6,0,0,0-2.08.113,2.1,2.1,0,0,0,.281-1.013c0-.449-.45-.674-.787-.955a25.029,25.029,0,0,1-3.71-4.666c-.112-.112-.337-.056-.281.113a11.431,11.431,0,0,0,3.485,5.34c.675.562-.45,1.462-.9,1.743a20.036,20.036,0,0,0-2.923,1.911,5.149,5.149,0,0,0-1.687,2.979c-.056.338,0,2.417-.449,2.305a5.254,5.254,0,0,1-1.8-1.069,16.227,16.227,0,0,1-4.553-5.395c-1.462-2.7-2.249-7.252.056-9.782,3.208-3.585,9.431-1.668,13.041-4.609,2.465-1.942,3.559-5.744,2.923-7.87-.113-.393-.675-.337-.843,0a1.64,1.64,0,0,0-.169.562c-.562,2.53-3.6,2.53-5.677,2.418-2.811-.169-5.453-.731-8.151.393-4.057,1.679-4.56,4.066-7.757,6.464-1.124.9-2.249,1.912-2.417,3.43-.391,3.358.831,7.464,2.248,10.455a16.806,16.806,0,0,0,1.8,2.755c-2.908,3.489.779,8.265,5,6.857,1.715,7.289,1.36,9.263,1.349,9.163-.281-.112-.731-.169-1.012-.281-1.18-.507-.337,4.328-.45,4.328a69.132,69.132,0,0,0-7.476,1.237c-11.239-6.579-17.666-21.776-12.535-35.358,6.665-17.774,30.617-22.715,43.171-13.154C118.043,138.966,123.8,153.768,118.808,166.009Zm-31.985-.225a.41.41,0,0,0-.506-.337,3.93,3.93,0,0,1-5-2.193c-1.124-2.811,2.7-4.5,2.811-4.553.056.056,1.18,2.136,1.518,2.754,2.023,3.485,4.272,7.477,7.925,9.5a9.862,9.862,0,0,0,4.329,1.236c-.056.169-.113,2.585-.113,2.754a33.382,33.382,0,0,1-8.038,1.012,10.074,10.074,0,0,1-1.293-.112C89.024,172.992,87.933,167.56,86.823,165.784Zm15.908-6.408a3.305,3.305,0,0,1-1.855-.169,2.5,2.5,0,0,1-.843-.674c.225.281-.9,1.8-1.068,2.023-.675.844-2.417,2.417-3.654,1.968-.112-.056-.169-.169-.056-.281a7,7,0,0,1,1.8-1.012,5.271,5.271,0,0,0,2.36-3.823.46.46,0,0,1,.9-.112,2.355,2.355,0,0,0,1.349,1.293c.281.112,1.011.056,1.18.337C102.955,159.151,102.9,159.319,102.731,159.376Z" fill="#191919"></path><path d="M102.674,152.237a33.89,33.89,0,0,0-1.686-4.1,25.973,25.973,0,0,0-2.248-3.766,4.092,4.092,0,0,0-.956-1.012c-.169-.112-.337.057-.337.225.294,1.031,1.918,2.623,3.822,7.7a11.615,11.615,0,0,1,.45,1.293C102.136,154.259,103.3,153.843,102.674,152.237Z" fill="#191919"></path><path d="M109.87,70.055c10.678,6.506,25.241,4.335,35.189-3.317A26.7,26.7,0,0,0,155.4,49.481c2.168-13.35-5.556-27.805-14.953-32.21a38.138,38.138,0,0,0-14.221-2.7c-9.675,0-18.665,3.32-24.565,11.186C91.84,38.95,95.578,61.346,109.87,70.055ZM97.278,39.644c1.49-12.8,10.441-22.367,24.4-23.947,6.377-.759,12.814-.2,18.607,2.7,2.53,1.124,6.049,3.915,9.05,8.544,5.753,9.026,6.736,19.574,3.541,27.769-7.428,19.453-40.028,26.895-52.052,4.5A34.653,34.653,0,0,1,97.278,39.644Z" fill="#191919"></path><path d="M123.08,41.724a.213.213,0,0,0-.394-.113,20.315,20.315,0,0,0-1.405,3.823,1.332,1.332,0,0,0,.562,1.517,2.024,2.024,0,0,0,1.518.113.4.4,0,0,0-.112-.787,2.089,2.089,0,0,1-1.012-.113c-.338-.224-.057-.843.056-1.18A11.529,11.529,0,0,0,123.08,41.724Z" fill="#191919"></path><path d="M122.237,51.167a.367.367,0,0,0,0,.731,3.736,3.736,0,0,0,3.822-3.317.4.4,0,0,0-.562-.393,13.713,13.713,0,0,1-4.5.956,14.888,14.888,0,0,1-1.574.112.178.178,0,0,0-.057.337,10.117,10.117,0,0,0,5.622-.337A3.379,3.379,0,0,1,122.237,51.167Z" fill="#191919"></path><path d="M112.175,42.005a2.1,2.1,0,0,0,.843,1.742,3.454,3.454,0,0,0,1.967.675,1.065,1.065,0,0,0,1.518,1.124,23.82,23.82,0,0,0-.787,3.429c-.525,4.069,2.294,6.085,6.3,6.352a7.928,7.928,0,0,0,1.63,0c.112,0-.394,4.5-.394,4.947,0,.618.675.337.844.056.281-.506.393-5.059.112-5a9.269,9.269,0,0,0,2.417-.506,4.271,4.271,0,0,0,2.7,3.429c2.707,1,5.844-2.575,5.341-6.352a.465.465,0,0,0-.563-.281c-.281.056-.337.281-.281.562.392,2.873-1.828,5.661-3.766,5.4a3.269,3.269,0,0,1-2.473-2.473c-.056-.169-.056-.337-.113-.506.338-.168.619-.281.956-.449.337-.225.112-.844-.281-.675-.225.056-.45.169-.618.225a6.007,6.007,0,0,1,3.821-4.778,7.672,7.672,0,0,1,1.125-.113.241.241,0,0,0,.113-.449c-1.812-1.056-5.824,1.977-5.959,5.621-4.533,1.442-10.314.47-9.949-4.272.111-2.135,1.818-7.426,2.473-11.355a6.278,6.278,0,0,0,2.811-2.586,2.953,2.953,0,0,0,3.541.113,4.39,4.39,0,0,0,2.923,2.529,3.461,3.461,0,0,0,2.192,3.823,1.893,1.893,0,0,0-.113,1.236c.169.675.732,1.012,1.294,1.406-.169-.113-1.63,1.292-.057.9,4.835-1.181,4.273,5.846-.675,4.778-.168-.056-.168.225-.055.337a3.3,3.3,0,0,0,4.609-1.574c3.061.729,4.842-1.547,4.272-3.485a3.984,3.984,0,0,0,2.361-6.633,4.417,4.417,0,0,0,1.574-1.8,2.707,2.707,0,0,0,.225-1.63,5.014,5.014,0,0,0-.562-2.248,2.616,2.616,0,0,0,.168-2.417,3.3,3.3,0,0,0-2.079-1.687,3.039,3.039,0,0,0,0-2.7,4.093,4.093,0,0,0-2.811-1.855,2.4,2.4,0,0,0-.618-2.53c-.9-.955-2.361-1.011-3.6-1.011a2.68,2.68,0,0,0-1.742-2.249,5.079,5.079,0,0,0-3.935.394,3.383,3.383,0,0,0-3.149-1.687c-1.686.056-3.035,1.124-4.271,2.193a2.994,2.994,0,0,0-2.755.224,7.114,7.114,0,0,0-2.192,2.474c-.837,1.253-1.3,1.166-2.586,1.967a5.367,5.367,0,0,0-2.3,5.284,5.5,5.5,0,0,0-1.125,7.757C109.42,39.138,110.376,41.386,112.175,42.005Z" fill="#191919"></path><path d="M115.66,46.839a.2.2,0,0,0-.057-.393c-2.99-.158-6.119,3.892-4.44,6.745.945,1.654,3.955,2.257,5.4.506.338-.394-.169-.843-.562-.562a2.764,2.764,0,0,1-4.047-.394C110.493,50.718,113.27,47.287,115.66,46.839Z" fill="#191919"></path><path d="M143.99,62.241a31.61,31.61,0,0,0-9.724-2.248,23.387,23.387,0,0,0-2.811-.113c-1.348.113-1.461,1.63-2.529,2.249a5.176,5.176,0,0,1-2.249.618,4.038,4.038,0,0,1-3.766-2.754.457.457,0,0,0-.337-.675,26.254,26.254,0,0,0-17.594,4.216.252.252,0,0,0,.224.45c4.542-2.333,8.077-3.741,13.21-3.991a23.044,23.044,0,0,1,3.935.168,4.167,4.167,0,0,0,2.867,3.2,5.244,5.244,0,0,0,4.384-.674,3.625,3.625,0,0,0,1.518-2.136c.9.112,1.8.056,2.642.168,1.068.113,2.136.225,3.2.394a32.765,32.765,0,0,1,7.7,2.361c.338.168.956.618,1.293.281C146.577,63.141,144.384,62.41,143.99,62.241Z" fill="#37a1ff"></path><path d="M59.9,81.353c.337.056.675-.393.337-.618a3.409,3.409,0,0,1-1.068-1.124c-.749-1.5.444-3.056,2.193-3.148a.259.259,0,0,0,.056-.506,2.427,2.427,0,0,0-1.968.337,3.269,3.269,0,0,0-1.236,1.63A2.98,2.98,0,0,0,59.9,81.353Z" fill="#191919"></path><path d="M89.858,76.631A21.215,21.215,0,0,0,79.4,64.883c-8.053-3.852-19.472-4.072-27.6,1.686-15.444,10.775-11.551,39.721,8.487,44.24a28,28,0,0,0,17.483-2.249C90.182,102.732,95.079,90,89.858,76.631Zm-40.135,27.1a25.892,25.892,0,0,1-3.092-4.272c5.115-3.148,12.479-3.767,12.872-3.935a9.6,9.6,0,0,0,5,2.192A2.359,2.359,0,0,0,65.8,99.172c-.273.878-1.756,9.572-1.517,11.243A21.158,21.158,0,0,1,49.723,103.726ZM68.1,97.317a1.467,1.467,0,0,1-1.63,1.068c-.555-.092-1.405-.77-1.405-1.405.017-.017,1.432-2.964,1.855-3.6C68.069,95.959,67.77,96.983,68.1,97.317Zm-.674-4.384a8.422,8.422,0,0,0,4.5-2.136C73.693,93,73.82,93.13,74.063,93.5a3.043,3.043,0,0,0,.393.506,12.81,12.81,0,0,1-5.733,3.26,8.3,8.3,0,0,0-.563-2.53C67.936,94.113,67.71,93.551,67.43,92.933Zm-2.08,1.63a9.28,9.28,0,0,0-.9,2.248,14.7,14.7,0,0,1-2.585-.843,8.375,8.375,0,0,1-2.417-1.293c.09-.091,2.164-3.077,2.417-3.541a6.681,6.681,0,0,0,4.384,1.8C65.968,93.5,65.631,94,65.35,94.563Zm-.338,15.852c.1-.5.465-4.366.619-5.453.258-1.817.781-4.634.843-5.621a1.779,1.779,0,0,0,.787-.113,13.016,13.016,0,0,0,.281,2.474,36.526,36.526,0,0,0,1.518,5.79,9.47,9.47,0,0,0,1.124,2.529A26.342,26.342,0,0,1,65.012,110.415ZM87.385,99.4A26.162,26.162,0,0,1,70.8,109.91c-.056-.451-1.405-4.554-1.686-5.51-.281-.9-.956-4.553-1.125-5.452a2.115,2.115,0,0,0,.844-1.013,11.141,11.141,0,0,0,5.9-2.866A16.032,16.032,0,0,1,87.385,99.4Zm.506-.9a13.863,13.863,0,0,0-11.58-4.216,7.444,7.444,0,0,1-.9.056.428.428,0,0,0-.112-.674,34.2,34.2,0,0,0-2.979-3.6.436.436,0,0,0-.731-.225,9.662,9.662,0,0,1-.843.731,6.736,6.736,0,0,1-.169-3.654,5.07,5.07,0,0,0,2.193-2.642c.134-.319.271-.7.408-1.121,2.22,0,3.275-1.246,3.358-2.645a2.189,2.189,0,0,0-.225-1.461,2.79,2.79,0,0,0-1.068-1.069c-.224-.168-.562.226-.337.394a2.509,2.509,0,0,1,.787,2.192,2.232,2.232,0,0,1-1.63,1.687c-.135.036-.4.037-.632.071a42.329,42.329,0,0,0,1.362-6.817,3.877,3.877,0,0,0,0-1.967c-.112-.169-.281-.113-.393,0a1.9,1.9,0,0,0-.282.955,57.249,57.249,0,0,1-1.405,7.252,10.768,10.768,0,0,1-1.4,3.429,3.375,3.375,0,0,1-2.979,1.517c-.338-.056-.506.45-.169.562a2.941,2.941,0,0,0,1.406.113c.112,0,.169-.057.281-.057a6.154,6.154,0,0,0,.28,3.823,6.786,6.786,0,0,1-5.958.506,8.318,8.318,0,0,0,.45-4.553,4.973,4.973,0,0,0,.955.112.394.394,0,0,0,0-.787A4.11,4.11,0,0,1,62.2,82.927c-.31-1.555-.107-2.68.563-7.2a32.432,32.432,0,0,0,.281-3.822c0-.113-.224-.169-.224-.057-.282,1.293-.648,2.534-.844,3.823-.553,3.633-1.669,7.749.73,10.23a4.621,4.621,0,0,0,1.238.956,6.485,6.485,0,0,1-.563,4.441,16.915,16.915,0,0,0-1.686-.787,42.735,42.735,0,0,0-2.923,3.991c-.056.112.112.393.169.449A29.814,29.814,0,0,0,46.35,98.835c-4.818-9.223-4.21-21.77,3.035-29.118,10.307-10.452,30.814-8.621,38,4.1A28.051,28.051,0,0,1,90.7,90.235,22.532,22.532,0,0,1,87.891,98.5Z" fill="#191919"></path><path d="M69.79,80.229a3.643,3.643,0,0,0-1.124.956,3.366,3.366,0,0,1-1.405.73,2.152,2.152,0,0,1-2.249-1.124c-.112-.281-.618-.112-.506.225a2.584,2.584,0,0,0,2.755,1.742A3.535,3.535,0,0,0,69.4,81.69a4.477,4.477,0,0,0,.523-.891C70.083,80.41,70.094,80.128,69.79,80.229Z" fill="#191919"></path><path d="M67.317,78.88c.281-.281.225-.843.225-1.18.113-1.125.281-2.249.45-3.373a.317.317,0,0,0-.618-.113,11.606,11.606,0,0,0-.563,2.418c-.056.562-.393,1.8.057,2.248A.342.342,0,0,0,67.317,78.88Z" fill="#191919"></path><path d="M63.382,70.785a.282.282,0,0,0,.563,0A4.22,4.22,0,0,1,66.7,67.244,6.339,6.339,0,0,1,69,67.188a2.239,2.239,0,0,0,2.08-.844c.224-.393-.338-.843-.619-.5-.562.618-1.461.449-2.248.393C65.206,66.031,63.044,68.492,63.382,70.785Z" fill="#191919"></path><path d="M66.024,71.347c-.056.338.506.394.562.057a3.239,3.239,0,0,1,1.237-1.743,5.016,5.016,0,0,1,2.417-.45c1.349-.056,3.148-.506,3.261-2.136.056-.449-.675-.506-.787-.112-.506,1.574-2.586,1.293-3.767,1.405C67.27,68.727,66.149,69.6,66.024,71.347Z" fill="#191919"></path><path d="M69.453,72.528c.049.282.45.225.506,0,.773-2.4,4.04-.836,5.678-2.473a1.936,1.936,0,0,0,.674-1.912.431.431,0,0,0-.843.113,1.523,1.523,0,0,1-.956,1.461,8.319,8.319,0,0,1-2.361.45C70.971,70.336,69.19,71.016,69.453,72.528Z" fill="#191919"></path><path d="M77.717,71.966a1.745,1.745,0,0,0,.843-1.406c-.056-.337-.562-.562-.731-.224a1.976,1.976,0,0,1-.956,1.068,5.144,5.144,0,0,1-1.855.281,2.718,2.718,0,0,0-2.7,1.517c-.112.338.394.506.562.225.562-1.068,2.193-.843,3.148-.955A2.739,2.739,0,0,0,77.717,71.966Z" fill="#191919"></path><path d="M125.385 43.016 A0.562 0.562 0 1 0 126.509 43.016 A0.562 0.562 0 1 0 125.385 43.016 Z" fill="#191919"></path><path d="M119.482 42.623 A0.562 0.562 0 1 0 120.606 42.623 A0.562 0.562 0 1 0 119.482 42.623 Z" fill="#191919"></path><path d="M69.172 76.126 A0.562 0.675 0 1 0 70.296 76.126 A0.562 0.675 0 1 0 69.172 76.126 Z" fill="#191919"></path><path d="M64.507 75.395 A0.562 0.675 0 1 0 65.631 75.395 A0.562 0.675 0 1 0 64.507 75.395 Z" fill="#191919"></path><path d="M93.029,149.915a.884.884,0,1,1-.114,1.04A.757.757,0,0,1,93.029,149.915Z" fill="#191919"></path><path d="M98.1,147.613a.884.884,0,1,1-.114,1.04A.758.758,0,0,1,98.1,147.613Z" fill="#191919"></path><path d="M172.614,99.813c.35-.128.7-.043.788.19s-.128.526-.478.654-.7.044-.788-.189S172.264,99.941,172.614,99.813Z" fill="#191919"></path><path d="M167.788,98.806c.175-.175.531-.105.795.159s.334.619.158.8-.531.1-.8-.159S167.612,98.981,167.788,98.806Z" fill="#191919"></path></g></svg>