<svg viewBox="0 0 400 400" xmlns="http://www.w3.org/2000/svg"><g transform="matrix(2,0,0,2,0,0)"><path d="M194.966,69.435c-.715-5.006,1.61-26.642-6.437-22.172.716,6.616,1.446,14.3,1.61,21.815a223.934,223.934,0,0,1-12.159,79.211c-16.45,1.967-33.973-4.291-48.814-5.543a8.4,8.4,0,0,0,5.185,6.079c10.459,4.635,30.755,5.365,34.867,6.259,15.735,2.145,15.7-4.12,18.6-16.987A294.748,294.748,0,0,0,194.966,69.435Zm-14.483,84.576c-.715.715-1.967-5.543-.894-4.113A4.274,4.274,0,0,1,180.483,154.011Z" fill="#37a1ff"></path><path d="M173.867,109.846a.673.673,0,0,0-1.073,0,26.193,26.193,0,0,1-8.761,9.119,6.808,6.808,0,0,1-7.51,0,15.364,15.364,0,0,1-5.722-7.689c-.339-.9-1.073-2.146-.715-3.04.179-.357-.358-.536-.536-.179-1.61,1.967-5.007,10.729-6.259,13.411-.715,1.788-1.43,3.576-1.967,5.185-.178.716-1.967,4.294-.715,4.471,6.436.906,32.543,3.039,34.867,3.039,1.789,0,2.683-7.331,2.683-9.3a31.215,31.215,0,0,0-.894-6.079A34.1,34.1,0,0,0,173.867,109.846Z" fill="#37a1ff"></path><path d="M144.007,87.674a17.432,17.432,0,0,0-3.934-2.861c-.358-.179,0-.716.357-.537a12.367,12.367,0,0,1,3.934,2.861c.894-1.967,1.431-2.146,1.431-1.788a34.032,34.032,0,0,1-2.146,5.543c-1.325,2.828-2.192,6.3.358,8.94,1.229,1.273,2.682,2.146,3.933,3.577.537.536,1.444.354,1.252-.537a49.67,49.67,0,0,1-1.073-6.8,46.211,46.211,0,0,1-.715-7.152,20.877,20.877,0,0,1,.179-3.576c.164-.9.715-2.324.357-3.04a17.129,17.129,0,0,0-1.967-1.966c-1.923-1.835-4.294-3.773-7.152-3.219-2.685.52-4.828,3.219-5.185,6.079,0,1.02,2.983.941,5.543,2.861.536.537,3.218,2.5,3.934,3.219A7.3,7.3,0,0,0,144.007,87.674Z" fill="#37a1ff"></path><path d="M177.98,81.237a4.253,4.253,0,0,0-2.146-1.073c-1.438-.324-2.675.549-3.934,1.251a27.834,27.834,0,0,1-12.874,3.576c-.357.008-1.251-.178-1.609.358-.179.537.358,1.073.715,1.431,1.241,1.861-.615,4.428-1.073,6.258-.357,1.43.358,2.682.894,3.755a8.927,8.927,0,0,0,1.967,3.039c.358.179.716.179.894-.178,2.569-3.854,2.875-4.883,3.577-7.689,5.612-1.4,9.4-.633,13.946-.179.358,0,1.073.358,1.431,0,1.073-.894,1.073-3.218.894-4.649A7.142,7.142,0,0,0,177.98,81.237Zm-6.08,7.331c-1.039.346-2.536.011-3.576.357a27.915,27.915,0,0,0-3.755.715c-.357.179-.536-.536-.178-.715a28.7,28.7,0,0,1,3.754-.894,12.006,12.006,0,0,1,3.934,0C172.079,88.21,172.079,88.568,171.9,88.568Zm3.04-3.934c-2.934,1.174-5.506.7-11.265,3.576-.357.179-.536-.179-.179-.536a15.6,15.6,0,0,1,5.543-2.5,22.834,22.834,0,0,1,6.08-1.073S175.119,84.634,174.94,84.634Z" fill="#37a1ff"></path><path d="M67.12,66.4a2.268,2.268,0,0,0-.537,2.861,2.206,2.206,0,0,0,1.252.894,1.908,1.908,0,0,0,1.431,0,.528.528,0,0,0,.178-.894,2.1,2.1,0,0,0-.894-.179,1.4,1.4,0,0,1-1.073-1.61c.022-.177.316-.563.179-.894A.336.336,0,0,0,67.12,66.4Z" fill="#191919"></path><path d="M95.014,104.3a15.1,15.1,0,0,0,.357,6.437c.35,1.253.894,3.4,2.146,4.112.358.179.715-.179.715-.536-.357-1.073-1.073-1.788-1.43-2.682C95.8,108.621,96,106.17,95.729,104.3Z" fill="#191919"></path><path d="M110.212,65.144c-2.5.387-4.112,2.146-5.364,4.113-1.073,1.966-2.371,5.049-.536,6.973,2.383,2.5,8.094,1.861,11.264-.358C122.787,72.027,119.7,63.676,110.212,65.144Zm5.722,2.324a6.423,6.423,0,0,0-4.47-.178c-.537.178-1.431.894-1.431,1.609,0,1.252,1.788,1.43,2.682,1.43s3.04.537,3.755-.357c.716-.715-1.43-.894-1.966-.894-.358,0-2.861,0-1.967-.716,1.251-.894,4.669-.719,5.006,1.073.571,3.034-6.973,1.788-8.046.179-.894-1.609.715-2.861,2.146-3.218a5.333,5.333,0,0,1,4.649.536C116.292,67.111,116.113,67.468,115.934,67.468Z" fill="#37a1ff"></path><path d="M157.775,87.5c0-.179-.179-.179-.358-.179-.358.179-1.252,2.324-2.146,3.04a22.872,22.872,0,0,1,.537-2.861,30.85,30.85,0,0,0,.715-3.755c.044-.316-.434-.406-.536-.179a26.292,26.292,0,0,0-1.252,3.934,7.538,7.538,0,0,0-.358,3.755.444.444,0,0,0,.716.179,6.009,6.009,0,0,0,2.145-2.861A1.275,1.275,0,0,0,157.775,87.5Z" fill="#191919"></path><path d="M154.2,83.2a5.69,5.69,0,0,0-1.609,4.649c.139.375.568.2.715,0,.234-.324.114-.9.179-1.43a14.461,14.461,0,0,1,1.1-3.152C154.678,83.082,154.445,82.93,154.2,83.2Z" fill="#191919"></path><path d="M151.338,82.846a7.054,7.054,0,0,0-.716,2.5,7.842,7.842,0,0,0,0,2.5c.148.206.317.174.358,0,.092-.389.314-1.969.358-2.324a19.472,19.472,0,0,0,.4-2.316C151.734,82.775,151.457,82.617,151.338,82.846Z" fill="#191919"></path><path d="M148.834,83.561a10.348,10.348,0,0,0-.536,2.5c-.179.894,0,3.576,0,5.543a5.725,5.725,0,0,0,.536,2.5c.179.357.537.178.537-.179,0-.894-.358-3.4-.358-5.186a50.187,50.187,0,0,0,.179-5.185S148.834,83.382,148.834,83.561Z" fill="#191919"></path><path d="M149.371,96.793c.308,4.314.725,10.561,2.324,14.662a17.89,17.89,0,0,0,3.04,5.543,7.121,7.121,0,0,0,5.364,2.324c2.5-.2,4.649-1.967,6.437-3.755a46.584,46.584,0,0,0,11.98-22.35c0-.358-.357-.358-.536-.179-2.662,7.651-5.294,14.437-10.907,20.562-1.626,1.774-3.4,3.577-5.722,4.292a5.04,5.04,0,0,1-5.007-.894c-3.365-2.571-4.419-7.594-5.364-11.98-.576-2.674-.894-5.543-1.252-8.225C149.728,96.435,149.371,96.435,149.371,96.793Z" fill="#191919"></path><path d="M155.808,93.217c0,4.075,2.579,6.729,4.291,9.3a12.508,12.508,0,0,0,2.5,2.861c.179.179.358,0,.358-.178-.914-2.743-5.729-6.215-6.616-11.98C156.165,93.038,155.808,93.038,155.808,93.217Z" fill="#191919"></path><path d="M157.059,73.727c0-.179-.152-.148-.357,0a7.415,7.415,0,0,1-2.5.715c-2.065.487-1.343,1.705-.179,1.43a4.422,4.422,0,0,1,.715-.178c.179,0,.895.923,1.252.894C157.071,76.5,157.059,73.905,157.059,73.727Z" fill="#191919"></path><path d="M151.7,72.117c.641-1.546.581-1.583.179-3.4-.1-.476-.607-.268-.536,0A11.849,11.849,0,0,1,150.8,71.4a1.1,1.1,0,0,0,.179,1.252c.358.357.894.715,1.43.357a.342.342,0,0,0-.06-.532C152.074,72.307,151.7,72.117,151.7,72.117Z" fill="#191919"></path><path d="M154.378 69.078 A0.536 0.894 0 1 0 155.450 69.078 A0.536 0.894 0 1 0 154.378 69.078 Z" fill="#191919"></path><path d="M68.380 62.462 A0.536 0.894 0 1 0 69.452 62.462 A0.536 0.894 0 1 0 68.380 62.462 Z" fill="#191919" transform="translate(-8.777 11.327) rotate(-8.836)"></path><path d="M149.192 69.614 A0.536 0.894 0 1 0 150.264 69.614 A0.536 0.894 0 1 0 149.192 69.614 Z" fill="#191919"></path><path d="M150.265,66.4a1.942,1.942,0,0,0-1.808.684,1.259,1.259,0,0,0-.338,1.1.284.284,0,0,0,.537,0,2.822,2.822,0,0,1,1.609-1.431C150.439,66.714,150.444,66.4,150.265,66.4Z" fill="#191919"></path><path d="M153.841,66.4c.179,0,.185-.133.358-.179a1.538,1.538,0,0,1,1.966.894c.111.318.537.456.537,0,0-1.662-1.813-2.136-3.04-1.252C153.338,66.093,153.483,66.4,153.841,66.4Z" fill="#191919"></path><path d="M135.6,76.051a104.224,104.224,0,0,0,.536-11.8c-.045-1.966,0-3.934-.179-5.722,0-.894-.179-1.967-.179-2.861a5.456,5.456,0,0,0-.536-2.861c-.179-.178-.536-.178-.536,0-.3,1.51.357,4.714.357,11.444,0,3.934,0,7.867-.179,11.622C135.245,76.23,135.6,76.23,135.6,76.051Z" fill="#191919"></path><path d="M133.278,112.885c-1.172,11.719-4.649,23.053-4.649,27.179a.269.269,0,0,0,.537,0c.646-1.454.521-1.714,2.324-10.729.715-3.576,1.252-6.973,1.788-10.549.179-2.146.358-4.113.358-6.258C133.815,112.528,133.278,112.528,133.278,112.885Z" fill="#191919"></path><path d="M190.317,69.614a195.293,195.293,0,0,0-1.43-22.172c.358-.179.179-.887-.358-.894-13.312-.171-28.138.345-41.3,2.325-3.751.564-7.689,1.072-11.444,1.788-.357,0-.178.715.179.536a383.236,383.236,0,0,1,40.947-3.576c3.757-.138,7.51,0,11.444,0,.867,16.043,1.359,24.285.536,39.516a254.507,254.507,0,0,1-5.364,39.338c-1.57,7.339-3.576,14.483-5.364,21.635-2.139-.305-6.09-.041-8.941-.357a212.934,212.934,0,0,1-40.231-5.9c-.358,0-.358.357-.179.536,14.2,5.012,44.376,7.5,49.172,6.437.179.179.715.179.715-.178C185.359,128.653,190.505,97.37,190.317,69.614Z" fill="#191919"></path><path d="M184.774,58.886a28.129,28.129,0,0,0-.894-5.543c0-.179,0-.537-.178-.537a68.428,68.428,0,0,0-10.55-.536,52.836,52.836,0,0,0-10.55,1.073c-.178,0-.178.536,0,.357a85.289,85.289,0,0,1,20.563-.178,46.367,46.367,0,0,1,.537,4.649c.551,5.51-.178,12.151-.537,15.913-.188,1.966-.179,4.113-.179,6.08,0,.179.358.179.358,0C184.059,73.011,185.391,65.853,184.774,58.886Z" fill="#191919"></path><path d="M181.556,104.3c-2.183,16-5.212,28.59-5.364,29.5a.459.459,0,0,0,.894.178c.667-1.667.81-3.509,2.324-11.264.733-3.752,1.194-7.7,1.788-11.623.326-2.151.358-4.47.716-6.616C181.914,104.124,181.556,103.945,181.556,104.3Z" fill="#191919"></path><path d="M140.609,134.878c-.441.105-4.29.668-4.47,1.431-.122.515.33.867,2.325,2.861,1.182,1.183,1.882.452.715-.715-1.256-1.255-1.777-1.675-1.746-1.86.039-.233.889-.368,3.355-1.18C141.028,135.336,140.957,134.8,140.609,134.878Z" fill="#191919"></path><path d="M153.483,137.739c-2.6,0-4.062,2.229-3.039,3.934,1.071,1.786,3.9,2.391,5.185.358.946-1.5.477-2.821-.179-3.04-.675,0-.179.943-.179,1.43a2.126,2.126,0,0,1-2.145,1.788c-1.645-.2-2.6-1.734-1.967-2.682a2.725,2.725,0,0,1,2.146-1.251C153.662,138.1,153.662,137.739,153.483,137.739Z" fill="#191919"></path><path d="M169.218,140.779a40.184,40.184,0,0,0-4.291-1.43c-.358,0-.537.357-.179.536a37.779,37.779,0,0,0,3.622,1.536c-.848.532-4.131,1.9-4.337,2.577-.052.171,0,.357.179.357.769,0,3.965-1.625,4.649-1.967a1.349,1.349,0,0,0,.715-1.251A.385.385,0,0,0,169.218,140.779Z" fill="#191919"></path><path d="M155.808,70.151c-.511,0-1.291,1.43-.537,1.43a3.26,3.26,0,0,0,1.61-.536C157.092,70.872,157.949,70.151,155.808,70.151Z" fill="#37a1ff"></path><path d="M149.192,71.939c.179,0,1,.512,1.252-.179.138-.375-.326-.8-.716-.894a1.136,1.136,0,0,0-.894.179C148.29,71.317,148.684,71.939,149.192,71.939Z" fill="#37a1ff"></path><path d="M104.312,78.018c.536,0,.6-.371.536-.536-.257-.621-2.092.086-2.431.282s-1.293.585-1.145.79C101.506,78.879,103.06,78.018,104.312,78.018Z" fill="#191919"></path><path d="M106.1,81.058c.331-.4.125-1.8,0-2.325-.083-.348-.173-.694-.716-.536-.707.206-.3,2.022,0,2.5C105.517,80.915,105.691,81.556,106.1,81.058Z" fill="#191919"></path><path d="M108.067,79.627a1.808,1.808,0,0,0-.716-1.251c-.179-.179-.856-.7-1.073-.179-.153.369.179.536.537.715s.714.717,1.073.894C108.1,79.909,108.067,79.806,108.067,79.627Z" fill="#191919"></path><path d="M144.185,105.912a16.288,16.288,0,0,1-5.721,3.4,9.692,9.692,0,0,1-6.974-.894,33.01,33.01,0,0,1-10.371-8.225c-1.579-1.814-3.039-3.934-4.47-5.9,0-.683-1-.357-1.43-.357-4.056,0-5.755-2.682-8.225-2.682-.179,0-.358.357-.179.357,1.967.894,3.755,2.325,5.9,2.861,1.073.358,2.683.715,3.577,0a38.331,38.331,0,0,0,8.761,10.55c3.671,2.937,8.427,6.176,13.053,5.185a10.287,10.287,0,0,0,6.258-4.291C144.543,106.091,144.364,105.733,144.185,105.912Z" fill="#191919"></path><path d="M118.437,86.78c.64,1.6-.385,3.4.179,3.4,1.609,1.252,3.423,2.282,5.185,3.4,2.976,1.883,7.477,4.186,9.656,1.431a13.537,13.537,0,0,0,1.788-3.576,13.771,13.771,0,0,0,1.073-4.828c0-.358-.358-.358-.537,0-.864,2.81-2.149,8.27-4.112,8.761a4.1,4.1,0,0,1-2.5-.179c-2.938-.587-6.786-3.427-10.014-5.364a6.447,6.447,0,0,0-.178-3.218,5.691,5.691,0,0,0-2.325-2.682.2.2,0,1,0-.179.357A5.377,5.377,0,0,1,118.437,86.78Z" fill="#191919"></path><path d="M110.749,89.64a10.146,10.146,0,0,0-2.146-.715,3.814,3.814,0,0,0-1.578-.642c-.242,0-.358.172-.21.285a9.682,9.682,0,0,0,2.861,1.609,4.2,4.2,0,0,0,1.43.357C111.822,90.356,111.106,89.819,110.749,89.64Z" fill="#191919"></path><path d="M108.067,85.886c1.842.737,3.234,3.286,4.47,3.039a.175.175,0,0,0,.178-.179c0-.715-1.251-1.43-1.788-1.788a10.688,10.688,0,0,0-2.682-1.609C107.888,85.17,107.709,85.707,108.067,85.886Z" fill="#191919"></path><path d="M113.967,85.707c-.272-1.5-1.609-2.682-2.861-3.576-.179-.179-.536.357-.357.536a13.769,13.769,0,0,1,2.5,4.291c.341.724.715.716.894.537C114.5,87.137,114.063,86.234,113.967,85.707Z" fill="#191919"></path><path d="M102.524,86.6c-.716.536-.879,1.438-1.252,2.145a14.08,14.08,0,0,1-3.911,4.759c.389-1.156,1.835-4.72,2.838-6.725a48.315,48.315,0,0,1,4.828-6.974c0-.536-.358-.894-.537-.536a30.152,30.152,0,0,0-7.156,10.374,3.452,3.452,0,0,0-2.857,1.069,2.356,2.356,0,0,0,2.5,3.934c2.009-.5,4.117-3.4,5.186-5.185.358-.716,1.073-1.788.894-2.682A.342.342,0,0,0,102.524,86.6ZM94.835,93.4a1.67,1.67,0,0,1,.179-1.788,3.478,3.478,0,0,1,2.014-1.23,19.074,19.074,0,0,0-1.071,3.636A1.1,1.1,0,0,1,94.835,93.4Z" fill="#191919"></path><path d="M103.418,89.64c-.891,2.673-3.528,4.779-4.471,5.722-.178.179.179.537.358.537.894-.179,2.682-2.146,3.219-2.682a4.886,4.886,0,0,0,1.43-3.4C103.954,89.283,103.418,89.283,103.418,89.64Z" fill="#191919"></path><path d="M104.669,93.038c-2.567,3.209-4.634,3.74-5.364,4.47a.342.342,0,0,0,.179.536c.857,0,4.36-2.462,5.543-4.827C105.184,92.885,104.848,92.859,104.669,93.038Z" fill="#191919"></path><path d="M104.848,97.866c-1.967,1.43-4.075,3.143-6.437,3.933-5.348,1.789-5.486.816-7.331,1.431-.179,0-.179.357,0,.536,1.9.544,6.339-.351,7.867-.894a21.1,21.1,0,0,0,6.437-4.291C105.384,98.044,105.027,97.687,104.848,97.866Z" fill="#191919"></path><path d="M96.98,88.031a8.1,8.1,0,0,0-5.721,1.609,16.543,16.543,0,0,0-3.934,4.113c-.179.179.179.536.358.358,1.43-.894,2.5-2.5,3.933-3.577a8.433,8.433,0,0,1,5.364-2.145C97.4,88.415,97.338,88.031,96.98,88.031Z" fill="#191919"></path><path d="M89.292,104.3a32.527,32.527,0,0,0-3.219-12.338,1.349,1.349,0,0,0-1.251-.715,49.538,49.538,0,0,0-7.331-.179c-.358,0-.537.536,0,.536a34.87,34.87,0,0,0,4.112.358c1.095,0,3.934.438,3.934.179.131.479,2.861,7.655,2.861,13.768a11.7,11.7,0,0,0,0,2.5c0,.179.357.179.536,0C89.471,107.342,89.292,105.733,89.292,104.3Z" fill="#191919"></path><path d="M86.073,107.7c-1.469,0-6.613-.064-6.789.166a12.014,12.014,0,0,0,.531-4.279c.09-4.294-1.026-9.342-4.112-12.516-.177-.181-.53,0-.358.357.886,1.858,1.55,3.309,2.088,4.7-.817.191-1.646.517-2.624.842-.894.358-1.788.537-2.683.894-1.788.537-3.576,1.252-5.364,1.789-1.252.357-2.324.894-3.576,1.251a2.2,2.2,0,0,0-.715-1.43,4.107,4.107,0,0,0-2.5-.358,11.694,11.694,0,0,0-5.364,1.609c-.179.179,0,.537.178.358a32.939,32.939,0,0,1,4.47-.894c1.073-.179,3.04-.536,3.4.894a17.226,17.226,0,0,0-4.471,2.861,7.612,7.612,0,0,0-2.5,4.112c-.178.358.537.537.537.179a11.859,11.859,0,0,1,6.079-6.079,79.348,79.348,0,0,1,9.834-3.4,17.593,17.593,0,0,1,2.861-.9,22.908,22.908,0,0,0,2.719-.991,20.823,20.823,0,0,1,1.036,7.25c0,1.43-.536,2.861-.357,4.291a.175.175,0,0,0,.178.179,19.33,19.33,0,0,0,3.219,0c.056,0,2.987.017,3.04,0-1.252,1.073-2.682,1.788-3.934,3.04-.179.178,0,.528.358.357a39.634,39.634,0,0,0,4.649-3.04C86.068,108.811,86.789,108.236,86.073,107.7Z" fill="#191919"></path><path d="M53.888,81.058c3.4-.179,6.258,2.324,7.331,5.543,1.618,4.854.537,7.574.537,11.086,0,.357.357.357.536,0a10.118,10.118,0,0,0,.537-3.219c1.431-8.586-3.846-14.559-9.12-13.768C53.709,80.7,53.709,81.058,53.888,81.058Z" fill="#191919"></path><path d="M77.669,110.561c-4.223,2.957-3.37,3.315-11.086,8.225-2.909,1.851-8.858,5.276-12.337,6.079a9.9,9.9,0,0,1-6.437-.178c-1.967-.895-3.04-3.04-3.755-5.007-2.952-7.87-1.662-20.786-.523-29.046.091-.4-.319-.462-.371-.1q-.123.532-.236,1.067c-.283-.782-2.26-5.389-3.162-6.967q-.363-.789-.727-1.577c2.729-2.6,8.96-9.167,9.131-9.509a1.387,1.387,0,0,1,1.788-.358c4.158,2.079,8.424,6.632,10.192,8.047.179.178.537,0,.358-.358a12.333,12.333,0,0,0-1.967-2.325c-1.75-1.4-4.415-4.152-7.867-5.721a2.412,2.412,0,0,0-2.861,0c-.537.536-7.849,8.56-8.97,9.8a168.752,168.752,0,0,1-11.057-29.47s-.536.179-.357.358A128.4,128.4,0,0,0,32.61,70.151c2.41,6.506,5.561,13.624,7.868,18.238.715,1.43,1.251,3.039,1.967,4.291a.333.333,0,0,0,.226.174c-1.383,7.227-2.22,18.762.131,26.111.715,2.145,1.609,4.47,3.219,5.9a8.1,8.1,0,0,0,6.079,1.61,18.842,18.842,0,0,0,6.8-2.146,70.552,70.552,0,0,0,13.053-7.868,29.072,29.072,0,0,0,6.079-5.364C78.206,110.918,78.027,110.382,77.669,110.561Z" fill="#191919"></path><path d="M6.862,70.866a256.464,256.464,0,0,0,11.8,31.47c8.218,18.489,24.87,46.629,26.106,48.277.179.179.536,0,.358-.178C35.589,131.921,21.538,112.727,7.935,73.19a21.3,21.3,0,0,0-.894-2.5C7.041,70.508,6.683,70.508,6.862,70.866Z" fill="#191919"></path><path d="M59.789,125.4a126.616,126.616,0,0,0,8.225,14.662c1.306,2.113,5.185,8.225,5.364,8.4l-3.755,4.649c-6.923.432-16.832,1.042-23.245-.179-.357,0-.536.536-.178.536,4.74,1.778,15.612.848,20.92.716a15.811,15.811,0,0,0,2.682-.358c.358,0,5.02-4.657,4.291-5.9-3.407-5.819-9.786-14.305-13.947-22.887C59.968,125.044,59.61,125.223,59.789,125.4Z" fill="#191919"></path><path d="M5.253,65.323A121.644,121.644,0,0,1,25.637,52.985c.357-.179.179-.715-.179-.536A35.7,35.7,0,0,0,21.7,54.237C19.413,55.382,8.98,61.8,5.074,65.144,4.895,65.144,5.074,65.5,5.253,65.323Z" fill="#191919"></path><path d="M22.239,57.634c1.61,5.722,3.548,11.454,5.543,16.987,5.206,14.431,9.7,21.115,10.55,23.245a21.261,21.261,0,0,0,1.609,2.682c.179.178.716.178.537-.179-1.726-5.177-7.263-11.418-17.7-42.735C22.6,57.276,22.239,57.455,22.239,57.634Z" fill="#191919"></path><path d="M54.425,128.978A223.419,223.419,0,0,0,65.511,149a10.8,10.8,0,0,0,1.251,1.788c.179.179.537,0,.537-.357A3.9,3.9,0,0,0,66.405,149c-.358-.536-.724-1.246-1.073-1.788a201.316,201.316,0,0,1-10.371-18.238C54.6,128.62,54.246,128.8,54.425,128.978Z" fill="#191919"></path><path d="M67.3,60.316c.2.148.536,0,.715-.179a1.325,1.325,0,0,1,1.43-.357c.508.21,1.246-.469.179-1.073-.641-.363-1.468.128-1.967.536C67.461,59.4,66.974,60.082,67.3,60.316Z" fill="#191919"></path><path d="M79.457,73.011a19.545,19.545,0,0,1,3.04-2.324c1.073-.715,3.4-2.325,3.219-1.609-.536,2.144-1.489,3.186-2.146,4.649-.164.364.336.511.536.357,1.146-.875,1.761-2.69,2.146-3.933.167-.541.927-2.5-.536-2.325a4.722,4.722,0,0,0-1.431.536,17.843,17.843,0,0,0-2.682,1.61c-.94.653-2.2,1.335-2.682,2.5C78.716,72.971,79.279,73.19,79.457,73.011Z" fill="#191919"></path><path d="M91.259,76.766c-1.887,1.059-3.866,2.47-6.8,3.934a8.465,8.465,0,0,0-2.146,1.252.485.485,0,0,0,.358.715,6.53,6.53,0,0,0,2.5-.894c1.09-.489,5.79-2.954,6.616-4.291A.461.461,0,0,0,91.259,76.766Z" fill="#191919"></path><path d="M77.669,71.223a19.563,19.563,0,0,0-1.251,10.014c.2,1.427.536,3.039,1.609,3.933a2.324,2.324,0,0,0,3.4,0c.179-.357,0-.894-.536-.536-1.073.715-2.125-.013-2.682-.894a9.389,9.389,0,0,1-.894-3.755,22.128,22.128,0,0,1,.894-8.4C78.206,71.223,77.848,71.045,77.669,71.223Z" fill="#191919"></path><path d="M101.093,54.237c-1.418-1.8-4.649-1.609-6.616-.715a6.624,6.624,0,0,0-3.755,4.649c-2.145-2.325-5-3.915-8.225-2.683a5.072,5.072,0,0,0-2.861,3.219c-.566,1.6-.161,3.215.179,4.828a8.668,8.668,0,0,0,2.861,4.649,1.344,1.344,0,0,0,.894.178,10.109,10.109,0,0,1,2.146-.715c.536-.179,1.609-.357,1.967.358.715,1.252-.179,3.218-.537,4.47a1.074,1.074,0,0,0,.179.715A16.09,16.09,0,0,0,96.981,77.3a.678.678,0,0,0,.357-1.252,51.749,51.749,0,0,1,1.967-9.119c.536-1.43,1.057-2.867,1.609-4.291a13.653,13.653,0,0,0,.894-2.5C102.2,58,102.356,55.837,101.093,54.237ZM84.822,58.528a2.043,2.043,0,0,0-1.252,1.431,5.1,5.1,0,0,0,0,2.324c.179.536.715,1.431.536,2.146a.343.343,0,0,1-.536.179c-.894-.179-1.445-1.607-1.609-2.5a4.96,4.96,0,0,1,.357-2.861c.758-1.893,3.408-2.489,4.471-1.072.178.178,0,.357-.179.357A3.044,3.044,0,0,0,84.822,58.528Zm10.013,11.98c1.957-6.182,2.9-7.124,3.218-9.655a.269.269,0,1,1,.537,0,19.413,19.413,0,0,1-.179,3.218c-.358,1.609-1.052,3.045-1.43,4.649-.17.718-.516,1.614-.716,2.5-.161.72-.179,1.61-.357,2.325a.373.373,0,0,1-.716,0C94.3,72.654,94.494,71.586,94.835,70.508ZM98.59,56.919c-.537.536-.894-.358-1.073-.715s-1.073-.716-.894-1.252c.358-.715,1.609.536,1.788.894C98.769,56.025,98.947,56.74,98.59,56.919Z" fill="#37a1ff"></path><path d="M14.908,68.541a8.767,8.767,0,0,0,.358,5.186,6.638,6.638,0,0,0,1.788,2.5c2.859,1.715,3.916-1.018,3.04-4.291a11.319,11.319,0,0,0-1.788-3.934c-.528-.722-2.146-1.788-2.5-.358-.178.715.894.358,1.252.537a7.145,7.145,0,0,1,2.146,3.4c.334,1.08,1.073,5.007-1.073,4.113a3.614,3.614,0,0,1-1.967-2.5,10.5,10.5,0,0,1-.536-4.649C15.445,68.541,15.087,68.362,14.908,68.541Z" fill="#191919"></path><path d="M77.133,44.76a9.47,9.47,0,0,0-5.722.536c-3.755,1.252-11.086,8.583-11.265,8.583A6.049,6.049,0,0,0,56.57,53.7c-2.878,1.079-3.12,8-3.934,12.874-.178.894-1.43,4.292-1.788,5.186-.178.536.537.894.716.357a7.56,7.56,0,0,0,1.072-2.5c3.755,1.609,9.209,0,9.3-4.649.006-.357-.358-.357-.537-.357-4.113,1.251-1.43-5.543.715-3.04,1.431,1.609,3.755-3.576,3.755-3.576a24.95,24.95,0,0,0,5.75-.586A54.934,54.934,0,0,0,73.2,63.892a5.221,5.221,0,0,1,.358,1.61c0,.334.468,1.292-1.366,2-.158-.092-.422-.106-.422.145-.537,2.146-.537,4.47-1.967,6.258-.715.894-2.138.871-3.219.537a22.866,22.866,0,0,1-3.576-1.609c-.178-.179-.536.357-.357.536a7.176,7.176,0,0,0,2.5,1.609c1.593.752,3.576,1.431,5.007,0,1.681-1.681,2.256-4.469,2.169-6.878.393-.129,1.362-.051,1.943-.632.894-.536.358-2.145.179-3.039-.522-2.433-1.718-4.7-2.442-7.121a13.139,13.139,0,0,0,7.627-5.4C81.9,48.9,80.223,45.609,77.133,44.76Zm-8.225,4.828c-.243.175-2.391,1.318-2.5,1.43-.358.358-.895.894-1.431.894s.069-.753.179-.894a13.542,13.542,0,0,1,3.219-2.5c.357-.179,1.251-.894,1.788-.358C70.7,48.873,69.318,49.292,68.908,49.588Zm10.371-.179a4.885,4.885,0,0,1-1.073,2.146c-.358.357-1.431,1.251-2.146.894-.536-.358.358-.894.715-1.252.716-.715,1.61-1.609,1.431-2.682a2.356,2.356,0,0,0-3.4-1.788c-.358.179-.537-.358-.358-.537C76.037,45,80.033,46.013,79.279,49.409Z" fill="#191919"></path><path d="M73.378,78.2a26.933,26.933,0,0,0-5.185.179c-.179,0-.179.357,0,.536.894.179,1.609.179,2.5.358h.894c-1.073.536-2.146,1.251-3.218,1.788-.179,0-.358.357-.358.536a12.39,12.39,0,0,0,3.04,7.152c.357.358,1.072-.178.715-.536-1.252-1.967-2.5-3.934-2.682-6.437,1.43-.894,2.874-1.588,4.291-2.5C73.92,78.92,73.736,78.2,73.378,78.2Z" fill="#191919"></path><path d="M67.3,64.608c.719,0,.888.532,1.43.894.537.536,1.252-.179,1.073-.894-.358-.894-1.521-1.6-2.325-1.073-.211.139-.536.357-.536.715S67.12,64.608,67.3,64.608Z" fill="#37a1ff"></path><path d="M21.882,81.415c.179.537-.179.894-.715.716s-1.61-1.788-1.073-2.325,1.609.358,1.073-.358a1.129,1.129,0,0,0-1.61-.357,1.442,1.442,0,0,0-.536,1.609,3.208,3.208,0,0,0,1.073,1.609,1.571,1.571,0,0,0,1.788.358.991.991,0,0,0,.357-1.43C22.061,81.058,21.882,81.237,21.882,81.415Z" fill="#191919"></path><path d="M174.225,80.343c-.94-3.134-4.809-8-6.795-10.55a32.358,32.358,0,0,1-3.4-5.185,22.009,22.009,0,0,1-1.788-4.292c-.6-2.533-3.455-5.364-6.616-5.364a10.947,10.947,0,0,0-7.331,3.04c-2.013,1.919-3.443,6.26-3.219,10.728.3,5.9-1.609,7.868-.178,9.119s5.543,1.609,6.437,1.252a4.446,4.446,0,0,0,3.4.179,9.384,9.384,0,0,0,4.649-3.576,5.3,5.3,0,0,0,1.609,2.324c1.767,1.281,4.292.358,4.649.358a20.907,20.907,0,0,1,4.649.715,17.928,17.928,0,0,1,2.682,1.252C173.152,80.879,174.225,80.521,174.225,80.343ZM153.662,60.5c.561,1.122,3.291,1.537,2.5,2.324-.6.6-2.522-.752-3.218-2.145C152.947,60.137,153.483,60.137,153.662,60.5Zm1.252,17.881c-1.258.521-2.5.715-3.576-.179-1.252-.894-2.759-2.875-3.576-8.4-.16-1.076-.179-3.755-.179-4.113a11.014,11.014,0,0,0,3.933-4.47c1.431,3.576,5.365,3.4,6.616,3.219a34.791,34.791,0,0,1,.358,4.47,26.71,26.71,0,0,0,.894,6.079A12.223,12.223,0,0,1,154.914,78.376Zm9.477-.894a4.7,4.7,0,0,1-3.755-3.4,21.738,21.738,0,0,1-.894-6.973c0-.358.344-.179.357,0a29.987,29.987,0,0,0,1.609,6.616,3.79,3.79,0,0,0,1.61,2.145c1.244.729,2.5.537,2.5,1.073C166,77.482,164.569,77.482,164.391,77.482Zm6.794,1.251a27.82,27.82,0,0,1-2.146-3.218c-.689-1.09-1.609-2.325-2.145-3.4a24.735,24.735,0,0,1-2.325-5.185c1.314,2.628,6.808,8.559,8.225,12.338A4.273,4.273,0,0,1,171.185,78.733Z" fill="#191919"></path></g></svg>