<svg viewBox="0 0 400 400" xmlns="http://www.w3.org/2000/svg"><g transform="matrix(2,0,0,2,0,0)"><path d="M194.335,191.833H140.468a55,55,0,0,0-.321-8.706c-.125-.526-.912-.424-1.009.066a68.209,68.209,0,0,0,0,8.531H63.043c0-2.858-.033-5.769-.066-8.626-.006-.541-1-.731-1.03-.117-.142,2.923-.168,5.765-.248,8.666H5.786a.638.638,0,0,0,0,1.271c62.789.607,125.738.267,188.52.307C195.146,193.226,195.175,191.833,194.335,191.833Z" fill="#191919"></path><path d="M194.313,180.927a.687.687,0,1,0,0-1.373c-62.475.04-126.213.066-188.725.314a.658.658,0,0,0,0,1.308C68.6,181.242,131.809,180.986,194.313,180.927Z" fill="#191919"></path><path d="M121.609,31.85c.085.308.519.315.475-.5-.086-1.557-2.236-3.289-2.653-2.236S120.933,29.415,121.609,31.85Z" fill="#191919"></path><path d="M117.984,32.333c-.314.226-.218.6.11.562a1.522,1.522,0,0,1,1.052.263c.5.362.614-.226.49-.5A1.082,1.082,0,0,0,117.984,32.333Z" fill="#191919"></path><path d="M127.191,40.663c-1.085.844-2.707,5.545-2.813,7.036a.373.373,0,0,0,.731.125c.948-3.734,2.61-6.256,2.652-6.913C127.787,40.5,127.462,40.452,127.191,40.663Z" fill="#191919"></path><path d="M154.9,46.274c-8.359-1.075-15.786-6.8-19.648-14.2-.275-.527-1.076-.08-.811.453C138.8,41.31,148.1,47.6,157.976,47.517c13.788-.111,21.483-5.225,33.86,6.759a.461.461,0,0,0,.665-.636C179.507,39.27,168.125,47.975,154.9,46.274Z" fill="#191919"></path><path d="M170.617,62.123c-7.387-4.429-9.967-4.067-17.713-4.749-10.5-.925-18.391-8.846-22.6-15.542-.243-.386-.861,0-.658.431,2.4,5.042,7.593,9.724,12.356,12.553,11.431,6.791,16.446,1.032,28.169,7.958C170.6,63.027,171.055,62.386,170.617,62.123Z" fill="#191919"></path><path d="M124.678,28.387c-.533,2.154.432,7.263,1.958,6.386,1.036-.6,1.958-.261,2.192.526.652,2.2-1.653,3.7-3.259,3.274-.651-.174-.526.607.2.818,2.7.791,4.832-2.395,4.1-4.384a2.369,2.369,0,0,0-3.449-1.213c-.936-.584-1.058-3.471-.914-4.939.089-.9-.13-1.115-.957-1.5-1.59-.738-5.524-1.966-6.978-4.786a2.926,2.926,0,0,1,.694-3.764c3.146-2.523,9.667-1.213,12.853.432,10.405,5.37,12.422,21.54,25.8,22.812,10.829,1.03,17.189-6.742,32.319-1.191.41.15.659-.537.263-.731-16.144-7.871-28.535,7.118-40.254-2.418-7.264-5.911-10.037-16.633-19.3-20.19-3.433-1.318-10.167-2.244-12.955.965a3.974,3.974,0,0,0-.578,4.253C117.871,25.974,121.558,27.379,124.678,28.387Z" fill="#191919"></path><path d="M182.724,58.272c-11.937-11.34-19.408-4.03-29.958-6.13-7.812-1.555-13.669-6.8-18.049-13.2-.234-.343-.835,0-.621.387,5.465,9.811,15.813,15.566,26.992,13.942,8.637-1.256,14.378-.588,21.191,5.458C182.646,59.059,183.1,58.632,182.724,58.272Z" fill="#191919"></path><path d="M118.277,43.235c-.68,1.461-1.447,2.93-2.192,4.384-.215.419.36.683.628.285a29.319,29.319,0,0,0,2.667-4.837c3.288-.673,2.192-1.252,1.8-1.162-1.58.358-5.394,1.149-6.8.146-1.28-.912-.358-3.171.073-4.348,4,1.089,5.261-2.455,4.15-1.71s-1.33,1.411-3.865.994c.241-.562.986-1.6.548-2.024s-1.919-1.041-1.279-1.585c1.351-1.148,2.806-1.721,3.654-3.4a18.233,18.233,0,0,0,1.125-2.558c.158-.485-.371-.729-.629-.314-.565.914-1.059,1.868-1.541,2.828-.7,1.391-3.961,2.536-3.654,3.9a2.924,2.924,0,0,0,1.513,1.7,13.527,13.527,0,0,0-1.462,4.026C112.236,43.463,115.427,43.571,118.277,43.235Z" fill="#191919"></path><path d="M97.466,43.045c.161-.241,1.2-2.407,1.856-2.017.5.3.908-.506.242-.921-1.182-.734-2.923,1.579-2.806,2.762A.38.38,0,0,0,97.466,43.045Z" fill="#191919"></path><path d="M95.369,41.233c.681.363.622-.971,1.644-1.082.5-.054.839-.494.431-.811C96.314,38.462,94.559,40.8,95.369,41.233Z" fill="#191919"></path><path d="M96.59,46.947c-.087.424.432.825.73.46.752-.918,2.324-1.4,2.689-2.521a3.791,3.791,0,0,0-.277-2.492c-.426-.868-.965-.365-.855.424s.675,1.413-.154,2.192C98.06,45.634,96.752,46.158,96.59,46.947Z" fill="#191919"></path><path d="M93.111,39.355c.329-.212.064-.834-.314-.731-4.1,1.123-4.022,8.268-2.691,7.691C91.014,45.921,88.91,42.061,93.111,39.355Z" fill="#191919"></path><path d="M93.345,40.94c.607.226.237-.652,1.71-1.293.183-.08,1.043-.72.11-.921C94.066,38.49,92.461,40.611,93.345,40.94Z" fill="#191919"></path><path d="M93.4,130.707c1.458-1.531,22.249-12.038,29.769-16.894,9-5.812,11.691-13.73,7.307-23.185-7.38,4.983-18.859,5.429-24.6,4.084C94.821,103.43,81.333,117.7,78.11,122.654c-2.187,3.365-13.883,34.913-16.959,43.111a22.3,22.3,0,0,0,10.3,4.911C74.552,163.939,90.26,134,93.4,130.707Z" fill="#191919"></path><path d="M134.316,135.361c-2.1-4.715-4.151-19.29-4.523-26.027-2.967,4.567-11.407,9.206-18.224,12.246,1.724,6.927,4.384,17.033,7.263,20.7S148.14,163.7,153.4,166.745c3.091-1.805,5.583-5.751,6.737-7.826C158.129,157.611,134.965,136.82,134.316,135.361Z" fill="#191919"></path><path d="M34.305,72.857c-.165,30.317-.337,73.671-.636,104.307a1.133,1.133,0,1,0,2.265.052c.54-29.65,1.064-75.307.41-104.534C36.316,71.454,34.312,71.6,34.305,72.857Z" fill="#191919"></path><path d="M36.183,56.051a38.537,38.537,0,0,0-.2-4.508.862.862,0,0,0-1.709,0,32.253,32.253,0,0,0-.205,4.662C34.09,57.264,36.178,57.249,36.183,56.051Z" fill="#191919"></path><path d="M49.81,69.05a52.239,52.239,0,0,0-.424-10.061c-.036-.263-.117-.524-.511-.541-8.135-.344-17.827-.344-25.889-.241-1.212.015-1.123-.014-1.914.73-1.054.991-3.1,3.066-4.231,4.326-.908,1.015-1.277,1.256-.168,2.463,1.229,1.336,3.183,2.926,4.582,4.267a2.483,2.483,0,0,0,2.36,1.03c4.72.169,19.734-.192,24.844-.6C49.475,70.343,49.74,70.329,49.81,69.05Zm-26.933.833c-1.82-1.746-3.931-3.266-5.692-5.188,1.7-1.878,3.478-3.653,5.319-5.37,7.643.182,17.12-.285,25.743.241a56.443,56.443,0,0,1,.445,9.689C40.055,69.744,31.477,69.869,22.877,69.883Z" fill="#191919"></path><path d="M45.214,64.052c-6.8-.1-14.387-.16-21.117,0a23.739,23.739,0,0,0,2.075-2.4c.621-.993-.4-1.1-1-.54-1.033.962-1.8,1.987-2.791,2.995a.731.731,0,0,0-.095,1.016,18.721,18.721,0,0,0,3.157,2.653c1.2.686,1.684.069.73-.848-.469-.451-1.242-1.162-1.761-1.578,6.891-.1,14.088,0,20.825-.073A.615.615,0,0,0,45.214,64.052Z" fill="#191919"></path><path d="M41.9,26.67c2.023.2,1.856-5.809.044-5.612C40.326,21.234,40.157,26.494,41.9,26.67Z" fill="#191919"></path><path d="M34.868,49.46c14.35-.326,23.475-9.823,21.738-24.091C53.078-3.6,8.66,3.388,13.37,30.944,15.279,42.109,23.768,49.712,34.868,49.46ZM34.319,8.074C45.36,7.591,53.925,14.162,55.188,25.53c1.518,13.666-7.307,22.259-20.54,22.491-11.4.2-19.1-7.8-20.255-18.743C13.089,16.878,24.119,8.519,34.319,8.074Z" fill="#191919"></path><path d="M28.218,26.487c1.58-.109,1.136-5.181-.511-4.852C25.839,22.009,26.612,26.6,28.218,26.487Z" fill="#191919"></path><path d="M35.613,41.744A13.94,13.94,0,0,0,49.248,30.053c.158-.907-.857-1.139-1.06-.241A13.5,13.5,0,0,1,35.613,40.29c-6.889.3-10.23-3.653-13.313-8.988a.454.454,0,0,0-.841.344A14.664,14.664,0,0,0,35.613,41.744Z" fill="#191919"></path><path d="M149.171,66.405c-.389-4.34-10.9-12.078-20.263-15.461,4.158,6.5-.964,13.517-1.563,16.148,4.939,1.155,6.664,1.666,9.25,2.821-.044,1.381-5.465,8.169-8.556,11.26a40.385,40.385,0,0,0,3.178,7.7C136.157,85.878,149.885,74.385,149.171,66.405Z" fill="#37a1ff"></path><path d="M127.637,63.446c3.111-7.173,3.011-14.624-7.19-14.958-9.7-.316-16.723,9.081-22.476,12.583a17.515,17.515,0,0,1-3.712,1.951c-.914.183-.922-.264-.249-.6A12.02,12.02,0,0,0,97.2,60.18,92.132,92.132,0,0,1,96.9,48.211c-1.213-.921-6.4-1.462-7.892-1.2-2.849,6.46-5.019,17.172-3.083,24.274,1.886,6.92,9.748,5.949,14.665,4.07,6.957-2.658,10.484-5.73,15.586-10.712.395-.386.959,0,.613.439-3.651,4.677-10.4,9.258-16.031,11.333.694,6.32,2.543,12.794,5.334,17.536,8.4,1.206,20.028-1.125,24.113-4.5C125.708,80.471,124.092,71.618,127.637,63.446Z" fill="#37a1ff"></path><path d="M67.53,172.627c-.868,4.918-1.388,5.2-4.428,3.946-5.294-2.185-10.722-4.5-14.994-8.418-1.711-1.57-1.227-1.613.672-1.257,3.845.721,8.556,1.727,12.239,2.126.68.074.935-.947.227-1.059-3.955-.624-7.307-1.462-10.9-2.134-2.587-.483-6.906-.832-3.427,2.792,4.2,4.376,10.545,7.085,16.272,9.4,3.355,1.357,4.252.111,5.115-2.58a11.541,11.541,0,0,0,.534-2.7C68.889,172.013,67.659,171.9,67.53,172.627Z" fill="#37a1ff"></path><path d="M164.42,163.128a12.623,12.623,0,0,0-3.434-2.324c-.739-.349-1.249.854-.49,1.213a11.231,11.231,0,0,1,2.879,1.958c2.144,2.007-.394,4.451-1.9,5.992-3.463,3.545-7.812,6.882-12.861,7.154-4.98.267,4.42-2.112,6.6-9.324.131-.432-.6-.731-.818-.329-3.73,7.05-6.725,6.85-8.184,8.725-1.042,1.339-.2,2.173,1.557,2.192,5.927.062,10.9-3.745,14.891-7.863C164.663,168.456,166.883,165.8,164.42,163.128Z" fill="#37a1ff"></path></g></svg>