<svg viewBox="0 0 400 400" xmlns="http://www.w3.org/2000/svg"><g transform="matrix(2,0,0,2,0,0)"><path d="M148.28,68.924a59.829,59.829,0,0,0-11.923,5.322q-.934-2.091-1.867-4.181c-10.963,2.575-21.63,10.941-27.848,20.079a22.841,22.841,0,0,0,9.186,11.542,60.5,60.5,0,0,0-.325,12.557c7.214.042,14.424.379,21.638.442,2.29.02,15.183-.016,18.1.426-.6-4.023,2.038-6.981,4.852-8.824-.707-.967-1.43-1.917-2.178-2.855a11.189,11.189,0,0,1,1.994-4.071A19.616,19.616,0,0,1,171.23,91.7c.963.917,1.808,1.963,2.674,2.971.409-1.173.909-2.319,1.3-3.5C170.691,83.586,160.234,73.834,148.28,68.924Zm-8.163,22.654c-.093,3.008-.28,6.745-.332,9.5a1.5,1.5,0,0,1-1.484,1.55c-.315.009-7.526.238-9.464.083a2.067,2.067,0,0,1-1.887-2.06c-.02-3.175.124-6.222.312-9.382a2.085,2.085,0,0,1,2.043-1.966c3.119-.058,5.771.088,8.836.193A2.038,2.038,0,0,1,140.117,91.578Z" fill="#37a1ff"></path><path d="M137.033,60.588a2.628,2.628,0,0,0,4.091-.392,2.96,2.96,0,0,0,.452-1.428.362.362,0,1,0-.707-.154,3.381,3.381,0,0,1-.634.873,2.162,2.162,0,0,1-2.768.535C137.038,59.791,136.7,60.244,137.033,60.588Z" fill="#191919"></path><path d="M135.493,56.752c.23.095.462.179.684.281a.362.362,0,0,1-.2.7c-.705-.094-1.707-.011-1.619-.742a11.43,11.43,0,0,1,1.34-5.161.356.356,0,0,1,.672.234,35.637,35.637,0,0,1-.817,4.406C135.534,56.562,135.513,56.657,135.493,56.752Z" fill="#191919"></path><path d="M138.938 52.692 A0.766 1.045 0 1 0 140.470 52.692 A0.766 1.045 0 1 0 138.938 52.692 Z" fill="#191919"></path><path d="M134.514,92.145a2.35,2.35,0,0,0-2.173.272,1.7,1.7,0,0,0-.6,1.243,1.852,1.852,0,0,0,3.174,1.332A1.773,1.773,0,0,0,134.514,92.145Z" fill="#191919"></path><path d="M136.222,99.164a2.937,2.937,0,0,0-3.328-2.33,3.854,3.854,0,0,0-2.283,1.94.61.61,0,0,0,.545.928c1.145-.057,1.2.089,4.7-.068A.358.358,0,0,0,136.222,99.164Z" fill="#191919"></path><path d="M115.007,77.544c.236-.676.829-2.216,1.149-3.132,2.279-6.513,2.634-9.273,4.14-11.229,1.073-1.393,2.31-1.616,4.288-1.792a.363.363,0,0,0-.049-.724c-3,.126-4.7.365-6.272,3.672-.505,1.066-3.162,9.421-3.47,10.7-.187.771-.335,1.544-.475,2.324A.356.356,0,0,0,115.007,77.544Z" fill="#191919"></path><path d="M156.344,101.351c.319.265.57.54.848.315.591-.487-2.407-4.465-3.082-3.994C153.339,98.2,155.617,100.745,156.344,101.351Z" fill="#191919"></path><path d="M165.994,103.312a7.989,7.989,0,0,0-2.917,1.733,27.029,27.029,0,0,0-2.507-2.7.356.356,0,0,0-.556.446,24.223,24.223,0,0,0,2.124,2.971c-2.949,2.494-6.134,5.867-5.2,9.632a.363.363,0,0,0,.71-.152c-.4-2.606,1.77-5.274,3.67-7.107,2.81-2.715,3-2.234,5.064-4.215A.363.363,0,0,0,165.994,103.312Z" fill="#191919"></path><path d="M171.707,93.487a29.383,29.383,0,0,1,2.01,2.711c3.126,4.546,6.106,7.826,3.933,12.911a12.292,12.292,0,0,1-3.216,4.588.362.362,0,0,0,.488.536,13.167,13.167,0,0,0,3.757-4.659c2.409-5.081-.259-8.951-3.614-13.473a18.838,18.838,0,0,0-2.855-3.12A.357.357,0,0,0,171.707,93.487Z" fill="#191919"></path><path d="M116.713,100.481c.092-.353.2-.687.286-1.042.223-.918,1.209-6.6,1.343-7.759.082-.7-.421-.911-.712-1.322a.362.362,0,0,0-.628.362c.138.306.446.623.4.777a40.459,40.459,0,0,0-1.445,8.226c.007.234.025.457.043.69A.357.357,0,0,0,116.713,100.481Z" fill="#191919"></path><path d="M152.347,72.223a84.637,84.637,0,0,0-7.255,8.173c-.549-.446-1.092-.9-1.635-1.354,3.531-4.1,4.442-4.765,8.791-9.764a.357.357,0,0,0-.506-.5,82.383,82.383,0,0,0-9.215,9.493,30.519,30.519,0,0,0-4.368-3.183.356.356,0,0,0-.421.575c1.045.894,1.093,1.048,4.012,3.528a76.23,76.23,0,0,0-6.014,8.392.362.362,0,0,0,.6.4c1.656-2.407,4.62-5.991,6.332-8.015q1.067.9,2.147,1.772a.605.605,0,0,0,.457.129c.411-.053.183-.057,2.515-2.944.081-.1,4.778-5.848,5.095-6.211A.363.363,0,0,0,152.347,72.223Z" fill="#191919"></path><path d="M135.664,74.983c-.191.059-.37.11-.562.179a21.158,21.158,0,0,0-3.642,2.2c-.04-4.957.114-1.854-.038-7.092a.356.356,0,0,0-.71-.05,34.713,34.713,0,0,0-.459,8.1c-.446.4-.657.615-.953.909a.363.363,0,0,0,.442.575c.18-.106.361-.209.542-.311a67.939,67.939,0,0,0,.824,8.367.362.362,0,0,0,.72-.078c0-.1-.32-7.44-.349-9,.648-.416,1.215-.807,1.848-1.224a11.956,11.956,0,0,0,2.692-1.954A.357.357,0,0,0,135.664,74.983Z" fill="#191919"></path><path d="M85.031,80.2a9.132,9.132,0,0,1,.875,1.937c.405,1.305.116,2.057-.267,3.824A6.779,6.779,0,0,0,85.615,90,3.206,3.206,0,0,0,87.8,91.781a.362.362,0,0,0,.251-.68c-1.978-.911-1.71-2.731-1.225-4.876.547-2.424,1.1-4.334-1.244-6.481A.357.357,0,0,0,85.031,80.2Z" fill="#191919"></path><path d="M82.147,91.64a38.473,38.473,0,0,0-4.537-1.662.357.357,0,0,1,.185-.689,38.315,38.315,0,0,1,4.973,1.477c.29.114.2.137,1.075,2.2,2.718,6.426,5.832,13.288,11.889,17.672a13.322,13.322,0,0,0,10.478,2.688,16.391,16.391,0,0,0,7.173-2.915.362.362,0,0,1,.449.569,17.648,17.648,0,0,1-7.446,3.359C94.345,116.638,86.148,103.215,82.147,91.64Z" fill="#191919"></path><path d="M107.108,96.026l-1.371,1.061c-2.6-2.236-10.125-8.434-14.932-12.076a.357.357,0,0,0-.472.535c.49.5,1.445,1.5,2.24,2.215,1.7,1.546,7.634,6.427,12.153,9.755a5.442,5.442,0,0,0-.9.819c-.4.456-.634.678-.449.949s.5.115.845-.025a15.87,15.87,0,0,0,3.356-2.683A.363.363,0,0,0,107.108,96.026Z" fill="#191919"></path><path d="M77.994,86.379A14,14,0,0,0,81.34,87.6a.362.362,0,1,0,.243-.683,10.052,10.052,0,0,0-3.39-1.221C77.706,85.658,77.562,86.148,77.994,86.379Z" fill="#191919"></path><path d="M79.55,83.129a7.654,7.654,0,0,0,2.686,1.339.363.363,0,1,0,.309-.656,9.27,9.27,0,0,0-2.672-1.319C79.391,82.388,79.177,82.8,79.55,83.129Z" fill="#191919"></path><path d="M81.832,81.032a8.048,8.048,0,0,0,2.456,1.9.362.362,0,1,0,.43-.583,10.048,10.048,0,0,0-2.442-1.872C81.825,80.27,81.534,80.638,81.832,81.032Z" fill="#191919"></path><path d="M141.183,63.926c-.143.076-.284.137-.427.21a10.924,10.924,0,0,1-3.312,1.317c-3.532.117-4.814-4.96-4.668-8.528.138-3.374.112-3.042.309-5.2a.356.356,0,0,0-.7-.121c-.036.143-.022.2-.1.249a2.6,2.6,0,0,0-2.3,2.009c-.573,2.068.855,4.549,1.595,4.671.216,3.549,1.793,7.825,5.364,8.022l.229,4.193a.363.363,0,0,0,.726-.017c-.006-1.619.095-2.492.113-4.209a5.566,5.566,0,0,0,1.621-.473,6.1,6.1,0,0,0,2-1.562A.363.363,0,0,0,141.183,63.926Z" fill="#191919"></path><path d="M130.5,64.733c-.631-.1-2.569-.063-3.213.514-1.826-1.424.632-4.28,1.7-6.175a3.245,3.245,0,0,0,1.855.562.362.362,0,0,0,.058-.722c-1.78-.339-2.909-2.746-2.4-4.723a3.742,3.742,0,0,1,1.262-1.911.357.357,0,0,0-.292-.651c-2.765.718-2.934,4.9-1.112,6.9-2.361,1.946-4.357,6.31-1.487,7.615.029,1.542,3.039,2.017,4.415,1.013C132.423,66.334,131.852,64.943,130.5,64.733Z" fill="#191919"></path><path d="M136.776,119.867a2.507,2.507,0,0,0-.082,3.63,2.619,2.619,0,0,0,3.718.006,2.561,2.561,0,0,0-.041-3.683A2.95,2.95,0,0,0,136.776,119.867Zm2.819.73a1.5,1.5,0,0,1-.041,2.048,1.433,1.433,0,0,1-2.015.007C136.193,121.342,138.123,118.832,139.6,120.6Z" fill="#191919"></path><path d="M143.346,136.069a72.374,72.374,0,0,0,13,.91.363.363,0,0,0,.02-.725c-4.244-.424-9.589-1.19-12.988-.9A.357.357,0,0,0,143.346,136.069Z" fill="#191919"></path><path d="M70.819,79.9a4.582,4.582,0,0,1,1.158.223c1.367.493,1.5,1.723.92,3.068-.914,2.125-1.379,1.4-1.8,4.258-.22,1.49-.362,3.141-1.285,4.316a.362.362,0,0,1-.594-.415c1.1-1.788.224-4.92,1.65-7.053.393-.587,1.414-2.13,1.079-2.757-.13-.243-.52-.337-.794-.385-.7-.121-1.009-.008-1.22-.394a19.659,19.659,0,0,1-1.874-4.325.357.357,0,0,1,.653-.288C68.785,76.28,70.735,79.747,70.819,79.9Z" fill="#191919"></path><path d="M66.993 80.126 A0.705 1.406 0 1 0 68.403 80.126 A0.705 1.406 0 1 0 66.993 80.126 Z" fill="#191919" transform="translate(-17.096 18.376) rotate(-13.742)"></path><path d="M194.989,70.719c-.114-2.6-1.225-8.923-5.018-10.73a6.249,6.249,0,0,0-2.809-.618c-13.063.423-23.252-.494-37.213.6a.357.357,0,0,0,.044.712c10.518-.466,24.935.267,37.205-.1,1.927-.059,4.644,1.369,4.829,3.715a22.521,22.521,0,0,1-.5,4.363c-.619,4-8.727,38.9-10.325,44.993a.363.363,0,0,0,.7.191c2.2-7.765,10.178-39.665,11.233-47.672,1.25,3.352.771,7.4.149,10.88-.832,4.686-7.729,34.538-9.334,39.406-1.135,3.441-2.554,6.1-5.228,8.282,1.325-2.269,1.924-5.18,2.5-7.717h.183a.363.363,0,0,0,0-.726c-.48-.235-75.073-1.141-75.173-1.142a.6.6,0,0,0-.6.484c-1.761,8.7,1.079,11.791,9.242,12.415.1.007-.2.232,23.1.016.82,2.461,1.405,4.464,2.4,7.028-2.56,1.026-5.6,1.784-8.326,2.6a.6.6,0,0,0,.131,1.18c2.209.154,5.122.468,8.041.814,12.293,1.456,12.032,1.712,12.411,1.514.1-.054,7.994-3.972,8.1-4.022,1.335-.656,1.314-2.363.61-3.681-.959-1.779-1.834-3.452-2.9-5.222,15.029.305,14.861.092,15.4,0,2.614-.468,6.634-3.475,8.372-5.909a21.667,21.667,0,0,0,2.765-5.556c2-5.719,8.693-34.908,9.472-39.554A34.113,34.113,0,0,0,194.989,70.719Zm-34.5,63.223c.379.754.558,1.943-.21,2.293-1.281.59-7.933,3.786-8.034,3.838-4.768-.705-11.723-1.631-16.744-2.123a46.313,46.313,0,0,0,5.835-2.014.567.567,0,0,0,.3-.743c-.884-1.985-2.012-4.964-2.868-7.126,6.251-.044,12.652.073,18.8.2C158.578,130.056,159.614,132.19,160.484,133.942Zm13.187-6.65c-1.567.253-18.54-.331-28.821-.421-2.858-.025-27.042.189-29.891-.029-7.294-.556-9.675-2.944-8.249-10.468,4.981.083-20.857-.132,73.759.65a35.168,35.168,0,0,1-1.808,5.906C177.279,126.018,175.658,126.97,173.671,127.292Z" fill="#191919"></path><path d="M16.151,132.306c1.438-1.8,3.477-6.365,4.1-7.536a.363.363,0,0,0-.6-.4,25.936,25.936,0,0,0-4.122,7.6A.356.356,0,0,0,16.151,132.306Z" fill="#191919"></path><path d="M79.257,155.108c2.014,1.748,3.645,3.839,6.2,5.235a19.766,19.766,0,0,0,21.253-1.245c3.477-2.4,5.909-5.53,8.956-8.04,3.476-2.866,4.706-2.473,4.428-3.157a.365.365,0,0,0-.473-.2c-5.532,2.2-9.109,7.368-13.585,10.413a19.081,19.081,0,0,1-20.032,1.2c-2.161-1.121-4.214-3.072-6.292-4.754A.357.357,0,0,0,79.257,155.108Z" fill="#191919"></path><path d="M116.613,143.832a14.346,14.346,0,0,1,3.346.4.363.363,0,1,0,.253-.68,5.441,5.441,0,0,0-3.632-.428C116.024,143.274,116.243,143.877,116.613,143.832Z" fill="#191919"></path><path d="M116.994,146.706a15.914,15.914,0,0,1,3.029-.522.363.363,0,0,0-.044-.724,6.379,6.379,0,0,0-3.146.551C116.319,146.273,116.623,146.795,116.994,146.706Z" fill="#191919"></path><path d="M121.368,141.941c-5.961-3.992-12.86-4.1-19.747-2.121-.487-.6-1.853-2.347-2.861-3.67a.356.356,0,0,0-.592.395c1.5,2.582,3.829,6.481,6.064,8.447a.362.362,0,0,0,.552-.469c-.235-.366-.45-.744-.7-1.122-.431-.66-1.105-1.545-1.791-2.546a25.873,25.873,0,0,1,14.086-.258c4.171,1.188,4.68,2.48,5.094,1.845A.366.366,0,0,0,121.368,141.941Z" fill="#191919"></path><path d="M6.539,132.252c-2.423,4.406-2.175,11.02,2.114,14.318a.363.363,0,0,0,.477-.546c-3.559-3.548-3.316-8.649-1.932-13.5A.356.356,0,0,0,6.539,132.252Z" fill="#191919"></path><path d="M162.846,149.768c-.12,2.791-3.108,4.861-5.649,6.016-2.828,1.285-6.487,1.98-9.242.568-7.121-3.65,2.676-15.088,12.327-10.585A4.609,4.609,0,0,1,162.846,149.768Zm-5.754-4.008c-7.234-.558-13.548,6.955-8.583,9.514,3.252,1.677,8.564-.173,11.42-2.427,2.513-1.983,2.75-4.614.2-6.255A6.794,6.794,0,0,0,157.092,145.76Z" fill="#191919"></path><path d="M155.282 148.097 A1.277 0.894 0 1 0 157.836 148.097 A1.277 0.894 0 1 0 155.282 148.097 Z" fill="#191919"></path><path d="M141.9,142.763c-6.974-1.114-11.123-1.191-20.757-2.169a.356.356,0,0,1,.061-.71c3.713.263,12.968.366,21.446,1.769a.608.608,0,0,1,.506.662c-.2,2.014.095,2.756-.4,3.078-6.077,3.99-15.788,9.711-16.739,10.354a.522.522,0,0,1-.531.118,59.54,59.54,0,0,0-8.709-1.466.362.362,0,0,1,.082-.72,64.7,64.7,0,0,1,8.68,1.134c1.885-1.287,12.771-7.961,16.293-10.267C141.855,144.028,141.869,143.238,141.9,142.763Z" fill="#191919"></path><path d="M125.173,151.275c2.248-.865,7.8-4.775,13.586-7.352a.363.363,0,0,1,.307.657c-4.312,2.13-12.862,8.156-13.956,7.9.1.041-3.546-.5-3.647-.52-1.3-.2-3.081-.554-3.672-.643a.357.357,0,0,1,.056-.711A49.827,49.827,0,0,1,125.173,151.275Z" fill="#191919"></path><path d="M123.718,144.028a8.182,8.182,0,0,0,2.142.159c.5-.022.571-.551.113-.717a7.217,7.217,0,0,0-2.156-.465c-.4.05-.572.1-.623.387S123.288,143.864,123.718,144.028Z" fill="#191919"></path><path d="M128.3,144.445a4.962,4.962,0,0,0,2.916.3c.507-.095.552-.5.11-.717C129.321,143.035,127.12,143.848,128.3,144.445Z" fill="#191919"></path><path d="M124.573,146.808c.5.012.617-.5.166-.706a4.874,4.874,0,0,0-2.076-.516c-.356.079-.553.1-.6.388C121.928,146.745,123.79,146.79,124.573,146.808Z" fill="#191919"></path><path d="M126.634,147.237a2.493,2.493,0,0,0,2.133.381c.415-.076.558-.4.181-.7C127.836,146.031,125.865,146.42,126.634,147.237Z" fill="#191919"></path><path d="M63.677,139.473a26.274,26.274,0,0,0,4.3,6.311,38.874,38.874,0,0,0,5.374,5.418.362.362,0,0,0,.5-.522c-5.918-6.516-6.387-7.616-9.577-11.589A.356.356,0,0,0,63.677,139.473Z" fill="#191919"></path><path d="M90.792,122.714c-5.586-6.059-14.646-12.885-21.57-17.392l-36.774.766c-10.205,4.29-19.455,14.394-25.494,23.288A39.671,39.671,0,0,0,15,134.441a68.7,68.7,0,0,0-4.716,15.021c-.261,1.272-.247,2.574-.468,3.842l66.971,1.547c6.238-8.344,14.123-15.418,21.56-22.658A61.232,61.232,0,0,0,90.792,122.714ZM29.777,110.633c-7.787,5.9-12.355,11.091-17.946,17.3a.356.356,0,0,1-.561-.44c3.78-5.539,10.512-12.169,18.081-17.444A.362.362,0,0,1,29.777,110.633Z" fill="#37a1ff"></path><path d="M77.465,96.773c-4.642,1.734-8.719-1.21-9.42-5.684-.344-2.192.062-2.911-.562-3.1a.508.508,0,0,0-.553.179,2.562,2.562,0,0,1-1.958.907c-1.913.033-2.528-2.027-1.517-3.475a2.389,2.389,0,0,1,2.278-1.064.579.579,0,0,0,.5-.175c.318-.337.131-.372-.64-4.573-.139-.758-.27-1.515-.383-2.272a11.83,11.83,0,0,0,5.662-6.307.6.6,0,0,0-.079-.552c-1.917-2.652-3.359-5.377-6.281-7.235-5.6-3.559-14.622-3.667-19.5,1.116a11.62,11.62,0,0,0-2.22,3.386c-3.425.716-5.405,3.929-6.048,7.369-1.535,8.214.986,19.395-4.575,24.887a2.51,2.51,0,0,1-2.718.883.591.591,0,0,0-.789.7c2.677,10.34,17.163,12.742,28.24,9.77,7.713-2.07,16.789-7.166,21.009-14.238A.36.36,0,0,0,77.465,96.773ZM39.744,88.282c-.226,1.2-1.243,1.2-1.13-.214.01-.118.092-1.157.1-1.321.068-.922,1.138-.9,1.143.033A12.94,12.94,0,0,1,39.744,88.282Zm4.237-17.92C39.41,73.5,40.8,78.345,40.007,83.514a.362.362,0,0,1-.722-.061c.085-4.671-1.139-11.533,4.364-13.722A.357.357,0,0,1,43.981,70.362Z" fill="#191919"></path><path d="M150.414,48.29c1.267-2.879-.5-7.022-3.623-7.876a7.469,7.469,0,0,0-4.278-2.966c-5.524-1.5-11.375,2.6-14.1,7.726a11.945,11.945,0,0,0-1.563,4.152.607.607,0,0,0,.322.587c3.4,1.766,7.359.83,10.851-.744a21.069,21.069,0,0,0,2.633-1.3,7.81,7.81,0,0,0,4.052,3.741c-1.228,2.433-1.068,5.292.927,7.085-.363.508-1.589,2.156-1.542,2.6a40.229,40.229,0,0,0,.263,7.754.363.363,0,0,0,.725-.017c.139-2.516.132-1.478.153-4.518.044-4.274-.074-2.567.83-4.522a7.712,7.712,0,0,0,.3-.756c3.2,1.938,6.467-.785,6.674-5.315C153.141,51.7,152.422,49.251,150.414,48.29ZM140.531,39.3a16.234,16.234,0,0,0-7.855,4.262.357.357,0,0,1-.562-.439c1.127-2.162,4.267-4.387,8.313-4.541A.363.363,0,0,1,140.531,39.3Zm11.382,14a7.021,7.021,0,0,1-1.345,4.275c-1.289,1.6-3.013-.722-3.177-1.08a5.4,5.4,0,0,1,.373-5.2C149.611,48.4,151.955,49.256,151.913,53.3Z" fill="#191919"></path><path d="M139.785,101.074c.052-2.751.239-6.488.332-9.5a2.037,2.037,0,0,0-1.976-2.086c-3.065-.105-5.717-.251-8.836-.193a2.085,2.085,0,0,0-2.043,1.966c-.188,3.16-.332,6.207-.312,9.382a2.067,2.067,0,0,0,1.887,2.06c1.938.155,9.149-.074,9.464-.083A1.5,1.5,0,0,0,139.785,101.074Zm-.715,0a.725.725,0,0,1-.763.7c-7.513-.308-8.2-.157-9.373-.258a.873.873,0,0,1-.778-.874c-.018-3.095.139-6.2.316-9.307a.878.878,0,0,1,.858-.829c2.73-.059,5.842.068,8.78.128a.931.931,0,0,1,.914.926C139.016,93.5,138.969,101.063,139.07,101.078Z" fill="#191919"></path></g></svg>