<svg viewBox="0 0 400 400" xmlns="http://www.w3.org/2000/svg"><g transform="matrix(2,0,0,2,0,0)"><path d="M106.5,121.632a41.562,41.562,0,0,1-2-5.8,10.556,10.556,0,0,0-.4-1.4c-.727.363-7.212,1.833-14.8-.4a13.719,13.719,0,0,0-2.3,4.9c-1.2,5,1.1,8.9,3.7,12.9a.588.588,0,0,0,1.1-.4,31.526,31.526,0,0,1,.7-9.2.416.416,0,0,1,.8,0c.6,2.8,2.2,5.3,2.8,8.1a11.913,11.913,0,0,1-.7,7.9.838.838,0,0,0,1.3,1c3.9-3.4,5.8-7.2,5.1-12.4-.3-1.9-.6-3.6-.8-5.2-.1-.4.4-.5.6-.2a28.219,28.219,0,0,1,1.8,2.9,7.487,7.487,0,0,1,.6,4.9c-.1.5.6.9.9.4C106.9,127.232,107.619,124.625,106.5,121.632Z" fill="#37a1ff"></path><path d="M99.9,56.931a12.03,12.03,0,0,0-1.6-2.7,1.72,1.72,0,0,0-2.4-.1,12.03,12.03,0,0,0-1.6,2.7,40.14,40.14,0,0,0-4.7,16.3c-1.026,14.368,5.871,35.419,7,40.5a.522.522,0,0,0,1,.3c.6-2.1,1.1-4.1,1.6-6.2,1.006-4.224,5.865-20.339,5.6-31.7a44.088,44.088,0,0,0-1.5-10.9A52.563,52.563,0,0,0,99.9,56.931Zm-2.8.1c-.2-.5.6-.7.8-.2,3.4,9.338,3.127,21.984,2.3,31.9a194.934,194.934,0,0,1-2.7,19.8c-.1.4-.7.3-.6-.1.989-8.651,1.021-6.177,2.3-21.1.3-3.7.4-7.3.4-11C99.234,70.1,99.1,62.815,97.1,57.031Z" fill="#191919"></path><path d="M94.6,37.431c.786-.52,1.2.1,2.1.3,1.3.2,6-3.9,6.1-3.8a7.442,7.442,0,0,0-12.3,5.6,2.769,2.769,0,0,0,.1.9A38.939,38.939,0,0,1,94.6,37.431Z" fill="#37a1ff"></path><path d="M103.9,35.132c-1.1.7-5.9,4-6.5,4.2a1.479,1.479,0,0,1-1.3,0,1.565,1.565,0,0,0-1-.4c-.4,0-3.8,2.6-4.2,2.9a7.4,7.4,0,0,0,14.4-2.4A7.14,7.14,0,0,0,103.9,35.132Z" fill="#37a1ff"></path><path d="M97,47.732a9,9,0,1,0-9-9A8.963,8.963,0,0,0,97,47.732Zm0-16.7a7.817,7.817,0,0,1,5.3,13.5,7.793,7.793,0,1,1-5.3-13.5Z" fill="#191919"></path><path d="M186.6,122.032c-7.7-9.472-21.416-13.2-34.6-10.9-.8.1-1.5.3-2.3.4a8.107,8.107,0,0,0-1.8-1c2.3-5.017,2.734-10.508-.7-14.8-2.9-3.7-7.7-5.3-12.3-5,2.253-5.634,4.536-11.686,3.2-17.7-1.582-8.7-7.8-13.726-14.7-18.9a70.387,70.387,0,0,0-.5-10.3c-1.349-11.685-5.327-22.586-13.9-30.5-2.278-2.1-6.23-5.089-9.3-5.6a11.378,11.378,0,0,0-5.5.1,15.917,15.917,0,0,0-5.1,2.4C74.944,20,70.48,37.114,70.8,54.132c-8.232,5.716-15.1,12.52-15.1,22.5a22.2,22.2,0,0,0,.6,5.1c-10.645,2.241-18.383,13.73-17,24.1-1.1.1-2.1.2-3.2.4-19.56,3.816-33.174,25.532-28.5,48.9a50.9,50.9,0,0,0,10.9,22.5c.087.1,2.4,2.6,2.5,2.6H75.6a14.159,14.159,0,0,0,.4,2,3.507,3.507,0,0,0,1.028.716c.794.453,14.7,7.4,18.272,9.183a2.681,2.681,0,0,0,1.7.4,12.622,12.622,0,0,0,1.873-.667c5.027-2.089,17.1-8.266,18.527-9.333.3-.2.3-.9.6-2.4h53.3a53.286,53.286,0,0,0,15.3-16.4C196.485,147.67,194.608,131.877,186.6,122.032Zm-65.3-22.3c-.1-.5.8-.6.9-.1a42.458,42.458,0,0,1,.7,8.4,4.1,4.1,0,0,1-.1,1.1.385.385,0,0,1-.7,0,2.079,2.079,0,0,1-.1-1.1,23.43,23.43,0,0,0-.362-5.1C121.481,101.886,121.368,100.809,121.3,99.732Zm14.2-17.5a.461.461,0,0,1-.9-.1,46.586,46.586,0,0,0,.2-6.5c-.44-7.033-3.923-12.332-9.2-17-.4-.4.2-.9.6-.6a36.433,36.433,0,0,1,4.5,4.3C135.712,68.254,137.387,73.844,135.5,82.232Zm-41-72.9a12.3,12.3,0,0,1,5.4,0,16.067,16.067,0,0,1,4.7,2.4,26,26,0,0,1,3.2,2.6,34.848,34.848,0,0,1-21.5,0C88.673,12.391,91.528,10.157,94.5,9.332Zm-9.2,5.9c6.971,2.746,16.935,2.586,23.5,0a29.068,29.068,0,0,1,3.3,3.7c4.6,5.9,7.3,13.1,8.7,20.4,3.523,18.625-.229,42.868-13.9,63.2-1,1.5-3.1,4.5-3.1,4.6a8.2,8.2,0,0,1-3.1.3.446.446,0,0,0-.4.3c0,.2.1.4.3.4a12.621,12.621,0,0,0,3.5,0c.1.3,2.2,4.4,2.3,4.5a22.831,22.831,0,0,1-18.9-.3,46.764,46.764,0,0,0,2.7-4.6s1.7.4,1.8.4c.3,0,.7.1.9-.2.2-.2.1-.4,0-.6-.2-.3-.5-.2-.9-.3-.6-.1-1.7-.3-1.8-.3a99.163,99.163,0,0,1-11-18.9C69.6,66.237,67.938,31.871,85.3,15.232Zm15.1,174.7a23.151,23.151,0,0,1-3.7,1.3,2.618,2.618,0,0,1-1.7-.5c-1.6-.9-3-1.5-4.6-2.3-1.643-.773-13.067-6.6-13.2-6.6-.2-1.3-1.3-6-1.5-7.1-.951-3.993-2.684-9.295-2.9-10a61.391,61.391,0,0,1,9.1-1.3c1.667.712,9.207,3.816,13.5,5.8,0,2.5.2,17.1.2,17.9a8.954,8.954,0,0,0,.2,2.3c.1.4.8.5.9,0a26.729,26.729,0,0,0,.1-4c0-1.3-.5-14.8-.6-16.2.716-.179,11.253-4.24,14.3-5.4a98.144,98.144,0,0,1,11-3.3c-.1.4-.9,2.6-1.1,3.3-.4,1.3-2.5,9.6-3,12.4-.3,1.7-.6,3.5-.8,5.2C112.972,183.993,105.857,187.364,100.4,189.932Zm-19.5-39.4c.6.3,1.2.7,1.8,1,.4.3.8-.4.4-.7-5-3-10.8-5.1-16.7-4.1a8.648,8.648,0,0,0-2.3.6c-.3-2.7,1.9-4.9,4-6.1a9.732,9.732,0,0,1,13,2.2,11.985,11.985,0,0,0-1.2,1.1.424.424,0,0,0,.6.6,9.764,9.764,0,0,1,7.3-2.5c.9.1,1.7.4,2.6.5.4,0,.7-.6.3-.8a6.782,6.782,0,0,0-3.6-.9,11.455,11.455,0,0,1,5.6-2.4c.1,3.2.1,6.4.2,9.5a23.791,23.791,0,0,0-3.3-2.5c-.4-.2-.8.3-.5.6.8.7,1.6,1.4,2.4,2.2a4.836,4.836,0,0,1,1.3,1.6c0,3.153-.027,4.959.1,6.6a10.253,10.253,0,0,0-5.2-.9,10.636,10.636,0,0,0-3.5.9c-.5.2-.1,1.1.4.9a9.951,9.951,0,0,1,8.2.322,7,7,0,0,1,3.7,4.278,4.084,4.084,0,0,0-.1,1.9.46.46,0,0,0,.9-.1c-.346-1.729,1.617-3.759,3.3-4.6a9.883,9.883,0,0,1,5.6-1.3c1.1.1,2.2.4,3.3.6a.513.513,0,0,0,.4-.9c-1.994-1.551-6.074-1.245-9.1.1.813-4.341,3.875-6.637,7.1-6.383a8.616,8.616,0,0,1,4.2,1.783c.4.3,1-.3.7-.7a6.405,6.405,0,0,0-3.4-2.1,7.353,7.353,0,0,0-3.9.1,7.88,7.88,0,0,0-3.8,2.6c0-7.39.025-11.137-.1-14.9,3.744,1.069,5.857,2.929,7.1,5a6.228,6.228,0,0,0-1.8,1.4,6.385,6.385,0,0,0-1.7,3,.571.571,0,0,0,1.1.3,6.026,6.026,0,0,1,4.7-4c3.645-.663,5.523,2.074,5.9,2.2a.643.643,0,0,0,.9-.7c-.2-1.02-2.818-3-5.4-3a4.454,4.454,0,0,0-2.3.3,9.433,9.433,0,0,0-2-2.3,29.358,29.358,0,0,1,5.5-3c4.111-1.567,9.172-2.173,13.3-.6a9.846,9.846,0,0,1,5.2,4,6.075,6.075,0,0,1-.9,6.8,12.423,12.423,0,0,0-3.3.4c-.5.2-.4,1.1.1,1,1.6-.2,3.9-.3,4.1-.3,2.88.221,5.11,1.4,6.1,4.1,1.105,3.017-2.244,5.113-5.4,5.4-2.267.453-3.276-.186-6.7.1-5.108.45-15.45,3.677-18.8,5.2-3.836,1.461-3.7,1.587-8.8,3.5a22.559,22.559,0,0,0-2.6,1c-5.763-2.895-9.025-4.667-10-5.1-7.065-3.14-14.451,1.893-21.9,1.2-5.567-.53-8.63-4.778-8-8.4.893-4.466,6.5-7.148,10.783-8.081C71.176,147.094,75.708,147.831,80.9,150.532Zm89.7,28.7H118.3a121.084,121.084,0,0,1,3.3-14.1c.2-.8,1.3-3.7,1.4-4.4a24.77,24.77,0,0,1,2.7-.3c4.932-.38,2.989.192,7.3-.2,2.2-.4,4.7-1.3,6-3.2,1.4-2.3.2-5.4-1.7-7a7.6,7.6,0,0,0-4.5-1.7h-.3c5.107-7.661-4.884-16.106-18.1-11.7a19.322,19.322,0,0,0-7,3.8,10.893,10.893,0,0,0-5.9-2.5c0-1.2,0-2.1-.1-3.3,0-.6-1,1.2-1,1.8,0,4.929-.364,16.137-.1,19.3a8.424,8.424,0,0,0-.7,3.5,5.529,5.529,0,0,0-2.1,2.1,8.145,8.145,0,0,0-3.2-3.5,168.645,168.645,0,0,0-.6-21.8c-.1-.6-1-.6-1,0a17.7,17.7,0,0,0,.1,2.3,10.488,10.488,0,0,0-3.5,1,10.3,10.3,0,0,0-3.3,2.5,9.419,9.419,0,0,0-4.3,1.6,10.586,10.586,0,0,0-9.4-4.4c-4.745.459-10.134,4.475-9.3,9.2-2.907,1.292-5.723,2.769-7.5,6-2.429,4.453.562,9.648,5.6,11.4,3.5,1.2,7.3.6,10.8-.2,1,4.3,3.1,11.2,3.5,14.1H21.2c-.6-.7-1.2-1.5-1.8-2.2a51.439,51.439,0,0,1-5.2-7.8,48.537,48.537,0,0,1-6.1-23c0-18.472,11.211-33.48,25.1-37.5,14.319-4.3,28.328,1.956,34.2,13.7.2.5,1,.1.8-.5a26.588,26.588,0,0,0-7.4-9.5,30.04,30.04,0,0,0-20.3-6.4,22.254,22.254,0,0,1,4.2-14.7,20.82,20.82,0,0,1,11.8-8.1c-.1,0,2.4,6.9,2.7,7.5,2.907,6.872,7.415,12.826,11.4,19.8.3.5.6,1.1.9,1.6.2.4,1.1.4,1.1-.1,1-7.1,1.6-14.3,3.3-21.3.4-1.6.8-3.1,1.2-4.7a82.845,82.845,0,0,0,12.3,21.4,22.688,22.688,0,0,0-1.8,2.5,10.775,10.775,0,0,0-1.4,2.6.76.76,0,0,0,.5.9,23.779,23.779,0,0,0,20.4.2c.3-.2.5-.3.5-.6,0-.5-.3-.8-.6-1.3a44.709,44.709,0,0,1-2.2-4.3,85.4,85.4,0,0,0,6.3-9.2,77.741,77.741,0,0,0,5-10c.3-.6.5-1.3.8-2,2.478,8.983,2.893,13.582,4.5,25.9a.593.593,0,0,0,1.1.1c3.335-6.235,9.487-14.669,11.7-20.2,6.979-.7,13.5,3.356,14.1,10.2a19.146,19.146,0,0,1-1.7,8.2,11.186,11.186,0,0,0-7.9,1.6c-.5.3-.1,1,.5.8a10.379,10.379,0,0,1,7.7-1c2.6.8,4.2,3.3,4.7,5.9.409,1.841.056,4.827.2,5.4.1.6,1,.5,1.1,0a16.112,16.112,0,0,0,.1-5.4,11.4,11.4,0,0,0-1.7-4.3,6.47,6.47,0,0,0-.8-.9c15.825-2.683,32.593,2.316,39,17.1,4.274,10.075,2.452,21.812-2.9,31.6A60.646,60.646,0,0,1,170.6,179.232Z" fill="#191919"></path></g></svg>