<svg width="23" height="20" viewBox="0 0 23 20" fill="none" xmlns="http://www.w3.org/2000/svg">
<path fill-rule="evenodd" clip-rule="evenodd" d="M22.8125 8.61471C22.8125 14.7601 18.3954 17.2294 11.4062 17.2294C9.15853 17.2294 7.17314 16.972 5.51502 16.4164C3.98231 17.5287 1.26357 20 1.26357 20C1.26357 20 2.95406 17.0156 1.07595 13.0657C0.374364 11.872 0 10.3981 0 8.61471C0 2.46936 4.44508 0 11.4062 0C18.3954 0 22.8125 2.46936 22.8125 8.61471ZM5.75904 8.61471C5.75904 11.5611 7.71599 12.431 11.4062 12.431C15.1245 12.431 17.0814 11.5611 17.0814 8.61471C17.0814 5.66831 15.1245 4.79842 11.4062 4.79842C7.71599 4.79842 5.75904 5.66831 5.75904 8.61471Z" fill="#3167E3"/>
</svg>
