<svg id="Layer_1" data-name="Layer 1" xmlns="http://www.w3.org/2000/svg" viewBox="0 0 581.96 157.29"><defs><style>.cls-1{fill:#5a5adf;}.cls-2{fill:#fff;}.cls-3{fill:#fbbc1b;}</style></defs><path class="cls-1" d="M157.29,78.64a78.65,78.65,0,1,0-79.08,78.64h79.08L139.47,128.5A78.35,78.35,0,0,0,157.29,78.64Z"/><path class="cls-2" d="M100.12,112.45v19H88.48q-14.62,0-22.42-7.08t-7.78-23.59V63.06H46.17V44.34H58.28V22.79H80.46V44.34H100V63.06H80.46v38.06c0,4.2.83,7.14,2.51,8.81s4.51,2.52,8.5,2.52Z"/><path class="cls-3" d="M229.09,133.11v18.76H217.62q-14.42,0-22.09-7t-7.67-23.25V84.44H175.92V66h11.94V44.76h21.85V66h19.22V84.44H209.71V122q0,6.21,2.48,8.68c1.66,1.66,4.44,2.48,8.37,2.48Z"/><path class="cls-3" d="M320.85,113.12H257.92q.46,11.47,6.2,16.89a19.92,19.92,0,0,0,14.26,5.43A20.69,20.69,0,0,0,291,131.72a16.47,16.47,0,0,0,6.43-10.08h23.1a36.94,36.94,0,0,1-7.29,16.12,37.93,37.93,0,0,1-14.34,11.16,49.15,49.15,0,0,1-41.77-1.31A37.67,37.67,0,0,1,242,132.34q-5.43-9.91-5.42-23.41T242,85.45a37.07,37.07,0,0,1,15.19-15.27,46.29,46.29,0,0,1,22.32-5.27q12.71,0,22.24,5.27a37.16,37.16,0,0,1,14.73,14.5,42.5,42.5,0,0,1,4.42,28.44ZM294.11,87.54a21,21,0,0,0-14.65-5.42,21.5,21.5,0,0,0-14.88,5.42q-6,5.43-6.66,16h41.69Q300.08,93,294.11,87.54Z"/><path class="cls-3" d="M355.1,37.17v114.7H333.24V37.17Z"/><path class="cls-3" d="M392.92,37.17v114.7H371.06V37.17Z"/><path class="cls-3" d="M469.12,70.18a38.72,38.72,0,0,1,15.73,15.27q5.73,10,5.73,23.48t-5.73,23.41a39.36,39.36,0,0,1-15.73,15.27,50.3,50.3,0,0,1-45.11,0,39.29,39.29,0,0,1-15.73-15.27q-5.73-9.91-5.74-23.41t5.74-23.48A38.65,38.65,0,0,1,424,70.18a50.9,50.9,0,0,1,45.11,0ZM431.06,90.26q-6.35,6.42-6.35,18.67t6.35,18.68a21.9,21.9,0,0,0,31,0q6.36-6.44,6.36-18.68t-6.36-18.67a21.87,21.87,0,0,0-31,0Z"/><path class="cls-3" d="M581.19,113.12H518.26q.47,11.47,6.2,16.89a19.94,19.94,0,0,0,14.26,5.43,20.69,20.69,0,0,0,12.63-3.72,16.47,16.47,0,0,0,6.43-10.08h23.1a36.94,36.94,0,0,1-7.29,16.12,38,38,0,0,1-14.33,11.16,49.17,49.17,0,0,1-41.78-1.31,37.67,37.67,0,0,1-15.19-15.27q-5.42-9.91-5.42-23.41t5.42-23.48a37.07,37.07,0,0,1,15.19-15.27,46.29,46.29,0,0,1,22.32-5.27q12.72,0,22.25,5.27a37.2,37.2,0,0,1,14.72,14.5,42.06,42.06,0,0,1,5.19,21A41,41,0,0,1,581.19,113.12ZM554.45,87.54a21,21,0,0,0-14.65-5.42,21.5,21.5,0,0,0-14.88,5.42q-6,5.43-6.66,16H560Q560.42,93,554.45,87.54Z"/><polygon class="cls-2" points="106.72 70.54 117.26 59.12 121.66 66.15 109.35 73.18 106.72 70.54"/><polygon class="cls-2" points="114.63 80.21 114.63 84.6 128.69 85.48 127.81 77.57 114.63 80.21"/><polygon class="cls-2" points="109.47 91.54 106.77 95.01 118.03 104 121.66 97.92 109.47 91.54"/></svg>