<svg width="46" height="40" viewBox="0 0 46 40" fill="none" xmlns="http://www.w3.org/2000/svg">
<path fill-rule="evenodd" clip-rule="evenodd" d="M46 17.2294C46 29.5201 37.0931 34.4588 23 34.4588C18.4676 34.4588 14.4642 33.9439 11.1207 32.8329C8.03008 35.0573 2.5479 40 2.5479 40C2.5479 40 5.95668 34.0312 2.16958 26.1314C0.754883 23.7439 0 20.7963 0 17.2294C0 4.93872 8.96323 0 23 0C37.0931 0 46 4.93872 46 17.2294ZM11.6127 17.2294C11.6127 23.1222 15.5588 24.862 23 24.862C30.4975 24.862 34.4436 23.1222 34.4436 17.2294C34.4436 11.3366 30.4975 9.59684 23 9.59684C15.5588 9.59684 11.6127 11.3366 11.6127 17.2294Z" fill="#3167E3"/>
</svg>
