<svg width="117" height="30" viewBox="0 0 117 30" fill="none" xmlns="http://www.w3.org/2000/svg">
<path d="M13.8691 12.4459V6.80065H6.75851V1.32051L0 3.10321V6.80065L3.65397e-05 12.4459L0 20.567C0 24.8587 3.09903 26.7404 8.67068 26.7404C11.2752 26.7404 13.517 26.5754 15.3962 26.2452V20.7651C13.1214 21.0952 12.1324 21.0952 10.3521 21.0952C7.48382 21.0952 6.75851 20.1379 6.75851 17.2987V12.4459H13.8691Z" fill="#3167E3"/>
<path d="M29.5948 21.3263C26.6606 21.3263 24.0561 20.567 23.3967 17.926H43.2766C43.2766 9.17758 37.705 6.47052 29.9244 6.47052C21.9461 6.47052 16.4734 9.37566 16.4734 16.6055C16.4734 23.8353 22.045 26.7404 29.5948 26.7404C37.2764 26.7404 41.826 24.2975 42.947 19.2135H36.2544C34.7708 20.8311 32.9905 21.3263 29.5948 21.3263ZM29.9244 11.4225C32.7268 11.4225 35.1334 11.8846 36.0895 14.1625H23.6605C24.5836 11.8846 26.9573 11.4225 29.9244 11.4225Z" fill="#3167E3"/>
<path d="M44.8133 0V26.4103H51.6047V0H44.8133Z" fill="#3167E3"/>
<path d="M53.5705 0V26.4103H60.362V0H53.5705Z" fill="#3167E3"/>
<path d="M75.3525 26.7404C83.5946 26.7404 88.8036 23.8353 88.8036 16.6055C88.8036 9.37566 83.5946 6.47052 75.3525 6.47052C67.1434 6.47052 61.9014 9.37566 61.9014 16.6055C61.9014 23.8353 67.1434 26.7404 75.3525 26.7404ZM75.3525 21.0952C71.0007 21.0952 68.6929 20.0718 68.6929 16.6055C68.6929 13.1391 71.0007 12.1157 75.3525 12.1157C79.7373 12.1157 82.0451 13.1391 82.0451 16.6055C82.0451 20.0718 79.7373 21.0952 75.3525 21.0952Z" fill="#3167E3"/>
<path d="M103.065 21.3263C100.131 21.3263 97.5266 20.567 96.8672 17.926H116.747C116.747 9.17758 111.175 6.47052 103.395 6.47052C95.4166 6.47052 89.9438 9.37566 89.9438 16.6055C89.9438 23.8353 95.5155 26.7404 103.065 26.7404C110.747 26.7404 115.297 24.2975 116.417 19.2135H109.725C108.241 20.8311 106.461 21.3263 103.065 21.3263ZM103.395 11.4225C106.197 11.4225 108.604 11.8846 109.56 14.1625H97.131C98.0541 11.8846 100.428 11.4225 103.395 11.4225Z" fill="#3167E3"/>
<path d="M63.3917 29.9996C63.3917 29.9996 65.4878 26.3079 62.9934 21.4853C60.4989 16.6627 70.0443 25.5429 69.5787 25.1771C69.1131 24.8112 63.3917 29.9996 63.3917 29.9996Z" fill="#3167E3"/>
</svg>
