<svg width="187" height="161" viewBox="0 0 187 161" fill="none" xmlns="http://www.w3.org/2000/svg">
<circle cx="138" cy="112" r="49" fill="#FAE6E2"/>
<path d="M113.708 84.5902L111.622 78.1217C111.622 78.1217 108.07 78.9559 106.406 77.7041L103.067 81.8772C103.067 81.8772 103.588 86.5726 104.945 88.8679C104.945 88.8679 96.5984 99.1966 94.616 108.691C94.616 110.986 99.9363 119.539 99.9363 119.539C99.9363 119.539 109.64 113.279 111.622 112.549C110.787 100.655 109.953 89.2827 109.953 89.2827C111.422 87.9058 112.687 86.3256 113.708 84.5902ZM104.632 93.4587C101.934 97.0558 98.3916 102.903 97.4316 107.335C97.2291 108.275 95.7622 107.857 95.9705 106.918C97.6428 100.948 100.62 97.4839 104.005 93.0411C104.319 92.7281 104.945 93.1438 104.632 93.4587Z" fill="#38A1FF"/>
<path d="M104.319 42.1258C104.553 42.1699 104.796 42.1318 105.006 42.0178C105.216 41.9037 105.38 41.7208 105.471 41.4999C106.193 40.5399 105.676 38.8579 104.636 39.2045C103.693 39.5175 103.059 41.8426 104.319 42.1258Z" fill="#191919"/>
<path d="M115.482 43.8953C115.717 43.9397 115.96 43.9016 116.17 43.7875C116.38 43.6735 116.544 43.4905 116.634 43.2694C117.356 42.3094 116.84 40.6275 115.8 40.974C114.857 41.2908 114.223 43.6169 115.482 43.8953Z" fill="#191919"/>
<path d="M107.448 34.1999C106.608 33.9023 104.736 33.8869 104.423 34.9305C104.372 35.0581 104.365 35.1992 104.402 35.3314C104.44 35.4637 104.521 35.5797 104.632 35.661C105.075 35.9346 105.563 35.5036 106.093 35.5564C106.623 35.6092 107.032 36.1823 107.553 36.2869C107.664 36.3198 107.782 36.3256 107.896 36.304C108.011 36.2823 108.118 36.2338 108.21 36.1624C108.301 36.091 108.375 35.9988 108.424 35.8934C108.473 35.7881 108.496 35.6725 108.492 35.5564C108.458 35.2567 108.343 34.972 108.159 34.733C107.975 34.494 107.729 34.3096 107.448 34.1999Z" fill="#191919"/>
<path d="M119.969 37.5359C119.343 36.0748 117.047 35.136 116.004 36.7008C115.588 37.3248 116.587 37.9958 117.047 37.5359C117.36 37.223 117.882 37.4313 118.199 37.7443C118.516 38.0572 118.512 38.6832 118.825 38.9923C119.62 39.7958 120.493 39.1075 119.969 37.5359Z" fill="#191919"/>
<path d="M109.535 40.1433C109.56 40.0338 109.54 39.9193 109.481 39.8239C109.422 39.7286 109.328 39.6601 109.22 39.6329C109.111 39.6058 108.996 39.6221 108.899 39.6786C108.802 39.735 108.731 39.827 108.701 39.935C108.17 41.2876 107.345 44.8386 107.24 45.2553C107.135 45.6719 107.032 46.1942 107.448 46.5081C108.439 46.7558 109.453 46.8955 110.474 46.9247C110.626 46.9373 110.776 46.8895 110.892 46.7918C111.009 46.6941 111.082 46.5544 111.096 46.403C111.109 46.2517 111.063 46.101 110.966 45.9839C110.869 45.8667 110.73 45.7925 110.579 45.7775C110.163 45.6662 108.283 45.4646 108.283 45.4646C108.492 45.4646 109.327 41.1868 109.535 40.1433Z" fill="#191919"/>
<path d="M113.918 50.5776C110.66 51.2294 108.707 51.8169 105.362 51.2035C105.254 51.182 105.141 51.203 105.048 51.2622C104.954 51.3214 104.887 51.4142 104.86 51.5215C104.833 51.6288 104.849 51.7424 104.903 51.8386C104.958 51.9349 105.047 52.0065 105.153 52.0387C106.103 52.3463 107.082 52.556 108.074 52.6646C108.408 54.9974 110.924 57.9552 113.187 57.046C113.9 56.7738 114.492 56.256 114.857 55.5859C115.436 54.4887 115.757 53.2739 115.796 52.0339C115.821 51.797 115.786 51.5575 115.693 51.3381C115.6 51.1188 115.452 50.927 115.264 50.7809C115.075 50.6349 114.853 50.5395 114.617 50.5039C114.382 50.4683 114.141 50.4937 113.918 50.5776ZM113.605 55.1683C112.625 56.3933 111.092 55.4304 110.266 54.1248C109.973 53.6275 109.729 53.1035 109.535 52.56C111.221 52.4411 112.895 52.1969 114.544 51.8294C114.41 52.9851 114.093 54.1122 113.605 55.1683Z" fill="#191919"/>
<path d="M53.2995 42.3344C53.7089 41.7997 54.0262 41.2004 54.2384 40.5613C54.5513 39.9353 54.7597 39.3133 55.0736 38.6825C56.6729 34.8425 57.7049 31.2137 56.9513 27.1021C56.8371 26.4781 55.9078 26.7891 56.0125 27.415C56.984 33.2432 53.4349 38.9024 52.4653 41.815C52.3606 42.2307 52.9798 42.7433 53.2995 42.3344Z" fill="#191919"/>
<path d="M32.5366 27.9364C34.5795 29.1988 35.5885 32.0452 36.919 35.1364C38.9523 39.8615 39.4438 41.6644 41.3014 43.7965C42.1568 44.7786 44.1757 46.4989 45.3699 45.9873C45.4839 45.9085 45.5671 45.7926 45.6052 45.6594C45.6434 45.5262 45.6342 45.3839 45.5792 45.2567C45.4859 45.1147 45.3629 44.9945 45.2187 44.9045C45.0745 44.8146 44.9126 44.7569 44.744 44.7354C43.832 44.3128 43.0155 43.7093 42.344 42.9613C40.7811 41.3217 40.1024 39.0167 37.9626 34.4058C36.8106 31.9261 35.7872 28.5719 33.0589 27.1031C32.433 26.8929 32.0192 27.6167 32.5366 27.9364Z" fill="#191919"/>
<path d="M40.3616 32.3185C40.4259 32.4283 40.5284 32.5106 40.6495 32.5496C40.7707 32.5886 40.9019 32.5816 41.0182 32.5299C41.1345 32.4782 41.2277 32.3855 41.2799 32.2695C41.3322 32.1534 41.3398 32.0222 41.3014 31.9009C41.0368 30.9343 40.6152 30.0178 40.0534 29.1879C38.549 26.5701 36.438 24.3518 33.8979 22.7195C33.7867 22.6601 33.6578 22.6424 33.5347 22.6698C33.4116 22.6971 33.3023 22.7677 33.2267 22.8686C33.1511 22.9695 33.1141 23.0942 33.1224 23.22C33.1307 23.3458 33.1837 23.4646 33.272 23.5547C38.6461 27.8574 39.0925 30.2459 40.3616 32.3185Z" fill="#191919"/>
<path d="M41.5097 24.3886C43.9999 28.771 43.7733 29.7262 44.3263 30.6469C44.3958 30.7628 44.5012 30.8528 44.6266 30.9032C44.7519 30.9537 44.8904 30.9618 45.0208 30.9264C45.1512 30.891 45.2664 30.8139 45.349 30.707C45.4316 30.6 45.477 30.469 45.4783 30.3339C45.4161 29.7152 45.239 29.1136 44.9561 28.5598C44.7477 28.0386 44.5509 27.5115 44.3301 26.995C42.9185 23.6728 40.8209 20.6863 38.1746 18.2312C38.0916 18.1482 37.979 18.1016 37.8617 18.1016C37.7443 18.1016 37.6317 18.1482 37.5487 18.2312C37.4657 18.3142 37.4191 18.4268 37.4191 18.5442C37.4191 18.6615 37.4657 18.7741 37.5487 18.8571C39.0181 20.5895 40.3428 22.4396 41.5097 24.3886Z" fill="#191919"/>
<path d="M48.0828 29.6059C48.2912 30.0235 49.016 30.1262 49.1264 29.6059C49.2603 28.6281 49.189 27.6333 48.9171 26.6846C48.5015 23.8293 47.7667 21.0297 46.7264 18.3384C46.6849 18.2139 46.5956 18.1109 46.4782 18.0522C46.3608 17.9935 46.2249 17.9839 46.1004 18.0254C45.9759 18.0669 45.873 18.1562 45.8143 18.2735C45.7556 18.3909 45.746 18.5268 45.7875 18.6513C47.5184 22.8552 47.7267 28.1832 48.0828 29.6059Z" fill="#191919"/>
<path d="M182.986 41.3994C182.5 38.3581 179.818 36.3114 177.874 36.2874C168.856 36.1914 164.876 36.1827 132.907 36.1827C132.822 34.4557 132.242 32.7896 131.237 31.3827C129.801 29.512 127.717 28.2466 125.395 27.8355C124.431 25.3614 123.169 23.0138 121.638 20.8448C117.069 13.8368 110.118 11.9504 104.736 14.3763C98.4243 17.2198 97.399 24.9632 101.088 28.9827C103.735 31.8694 107.974 32.6307 111.73 32.6307C114.282 32.6299 116.829 32.4205 119.347 32.0048C120.472 35.34 122.722 38.1799 125.711 40.0381C125.243 42.6925 123.58 47.6029 125.294 48.8029C126.337 49.5325 129.283 45.127 131.342 47.2371C133.559 49.5075 129.464 52.4538 128.107 52.5584C127.691 52.8714 124.665 64.7658 124.56 67.1648C122.37 67.8954 112.56 70.7168 109.849 71.3389C109.015 70.713 106.201 67.7869 105.571 67.1648C105.676 66.6435 105.676 62.3648 105.676 61.5315C106.823 61.6352 107.972 61.6227 109.015 61.7398C109.85 61.8358 110.058 60.3834 109.223 60.175C106.928 59.7574 104.509 60.2326 102.233 59.4445C99.8057 58.6035 99.103 57.3459 99.103 55.688C99.103 50.8966 100.963 40.8282 103.694 33.7779C103.896 33.2547 102.968 32.841 102.755 33.3613C100.786 38.0181 99.3508 42.8831 98.4771 47.863C98.0188 50.379 97.7397 52.9242 97.6419 55.4797C97.5622 59.3418 100.681 60.9728 104.528 61.3222C104.424 62.1574 104.215 66.4352 104.215 66.9565C104.215 68 108.284 71.7565 108.702 72.0685C105.781 75.825 103.276 79.8934 100.668 83.9629C100.042 79.6851 99.3728 75.3949 98.4771 71.2342C98.1891 69.873 97.9548 68.4176 97.5382 67.0611C97.4336 66.5389 96.4947 66.6435 96.5993 67.1648C97.2253 71.9648 98.1929 76.6554 98.8947 81.3546C99.1116 82.8138 99.295 84.2787 99.5206 85.737C99.5275 85.8811 99.5805 86.0192 99.672 86.1309C99.7634 86.2425 99.8884 86.3218 100.028 86.3569C100.168 86.392 100.316 86.3811 100.449 86.3258C100.583 86.2705 100.695 86.1738 100.769 86.0499C103.53 81.8029 106.09 77.3898 109.217 73.425C109.217 74.2822 113.511 85.6995 114.851 88.2406C114.901 88.3304 114.972 88.4067 115.059 88.463C115.145 88.5194 115.243 88.5542 115.345 88.5645C115.448 88.5747 115.551 88.5602 115.647 88.522C115.742 88.4839 115.827 88.4232 115.894 88.3453C123.997 80.4368 122.94 80.1642 131.231 71.2342C143.542 74.0326 158.559 77.2477 166.601 90.6406C169.443 95.5894 171.286 101.048 172.026 106.707C172.468 110.204 172.503 113.74 172.13 117.245C171.912 119.741 171.259 122.717 171.191 123.192C166.704 123.192 143.229 123.401 135.926 123.505C136.79 119.54 138.53 103.537 145.316 90.6406C145.629 90.1184 144.794 89.5971 144.481 90.1184C140.89 96.9248 138.108 104.178 136.033 115.159C135.442 117.909 135.057 120.698 134.881 123.505C118.291 123.61 101.39 123.715 84.6963 123.505C85.5699 116.52 88.2656 91.8167 88.8694 86.7795C88.974 86.2583 87.9257 86.049 87.8259 86.6758C87.0579 91.4701 85.5305 103.682 85.3222 105.039C75.4486 105.039 67.7945 103.999 59.7603 97.9434C53.0605 92.8223 48.3718 85.5113 46.5123 77.2861C45.3847 71.7603 44.8945 66.1235 45.0512 60.4861C54.2028 56.6326 50.4608 58.1331 57.1539 55.7907C57.6156 61.3347 60.3382 65.5827 64.6659 68.937C70.6265 73.5546 76.6534 74.7152 83.8659 73.5277C87.9444 72.6702 91.9282 71.4119 95.7593 69.7712C96.392 69.4726 95.9638 68.3994 95.2381 68.6192C86.646 71.2774 77.9004 76.1677 66.2326 68.4109C64.0043 66.9794 62.1134 65.0811 60.6905 62.8473C59.2675 60.6136 58.3465 58.0975 57.991 55.473C58.5123 55.3683 58.9318 55.1725 59.4512 55.0554C59.5427 55.0256 59.6259 54.9747 59.6942 54.9069C59.7625 54.8391 59.814 54.7562 59.8444 54.6648C59.8748 54.5735 59.8834 54.4764 59.8695 54.3811C59.8556 54.2859 59.8195 54.1952 59.7641 54.1165C59.4521 51.3046 58.4096 45.3104 57.8864 42.536C57.7683 41.912 57.4688 41.4925 57.0512 41.5971C51.8644 43.5644 46.7804 45.7928 41.8188 48.2739C41.5059 48.3786 41.6105 49.1091 41.6105 49.1091C41.4848 51.4918 41.4339 58.6947 41.6105 61.0026C41.6902 62.048 43.4883 61.0026 43.8012 60.8989C43.6092 70.2589 44.527 80.073 49.2262 88.1293C51.6962 92.2679 54.8749 95.9398 58.6169 98.9773C58.6169 108.944 58.1801 107.779 58.6169 118.905V119.01C59.0336 121.618 60.4947 124.331 62.9984 124.644C65.2534 124.644 76.0457 125.165 107.757 125.165C124.557 125.165 170.462 124.696 176.723 124.644C178.174 124.648 179.579 124.136 180.687 123.199C181.795 122.262 182.533 120.962 182.771 119.531C182.778 115.878 183.584 91.6256 182.986 41.3994ZM57.8902 49.1168C58.1869 50.8928 58.4115 52.664 58.7244 54.4371C53.3191 56.112 48.052 58.2044 42.9708 60.6954C42.7539 56.9082 42.6569 53.2861 42.6569 49.5315C47.4569 47.3408 52.2569 45.2538 57.1596 43.376C57.246 45.3063 57.4904 47.2264 57.8902 49.1168ZM60.2902 119.229C59.9888 111.714 60.2902 102.614 60.2902 100.449C64.9509 103.663 70.3193 105.703 75.9382 106.395C78.9777 106.851 82.0625 106.921 85.1197 106.604C84.9949 107.603 83.3456 121.558 83.3456 123.924L63.2096 123.611C61.6457 123.298 60.4985 121.211 60.2902 119.229ZM117.569 20.0077C117.673 19.7984 117.986 19.7984 118.195 19.903C118.79 20.1852 119.269 20.6645 119.551 21.2595C119.76 21.7808 119.343 22.4115 118.821 22.0938C118.404 21.8854 118.299 21.4678 118.091 21.1549C117.778 20.8419 117.256 20.4243 117.569 20.0077ZM114.544 16.2474C116.12 16.8781 116.06 18.2298 115.273 18.2298C113.603 18.0627 112.681 16.424 109.225 16.7686C107.114 16.6923 105.056 17.4409 103.487 18.8557C103.404 18.9388 103.292 18.9856 103.174 18.9857C103.057 18.9857 102.944 18.9392 102.861 18.8562C102.778 18.7732 102.731 18.6605 102.731 18.5431C102.731 18.4256 102.777 18.3129 102.86 18.2298C105.362 15.0128 110.893 14.4992 114.544 16.2474ZM181.421 119.955C181.194 120.999 180.612 121.933 179.776 122.597C178.939 123.262 177.899 123.618 176.83 123.603H172.762C173.052 122.366 173.261 121.111 173.388 119.847C173.815 116.491 173.955 113.106 173.805 109.726C173.424 103.504 171.754 97.4288 168.902 91.8858C161.821 78.4717 147.747 73.207 132.806 70.6016C132.282 70.5056 130.823 69.7664 130.302 70.3923C128.215 72.897 125.926 75.3018 123.833 77.8006C119.813 82.6006 119.897 82.7792 115.591 87.0858C114.773 85.3849 114.041 83.6438 113.399 81.8691C112.507 79.3482 111.383 76.7667 110.687 74.1488C110.577 73.7331 110.373 73.3146 110.27 72.7923C110.373 72.7923 117.682 70.9299 120.598 69.9757C124.476 68.7066 125.92 68.673 125.92 67.8886C126.258 64.181 126.954 60.5149 128 56.9418C128.299 55.8944 128.521 54.8547 128.834 53.8112C131.338 53.3936 133.693 51.0906 133.32 48.4899C133.221 47.8469 132.957 47.2403 132.555 46.7287C132.153 46.217 131.626 45.8175 131.025 45.5686C130.946 45.5577 130.873 45.5213 130.817 45.465C131.13 44.839 131.338 44.1085 131.651 43.4826C132.419 41.6223 132.878 39.6486 133.007 37.64C138.537 37.64 168.273 37.5354 177.766 37.7437C178.664 37.9288 179.488 38.3729 180.137 39.0212C180.785 39.6696 181.229 40.4937 181.414 41.3917C181.734 67.8954 181.734 93.5629 181.421 119.959V119.955Z" fill="#191919"/>
<path d="M69.1577 37.7437H96.704C96.902 37.7298 97.0874 37.6414 97.2228 37.4962C97.3582 37.351 97.4335 37.1598 97.4335 36.9613C97.4335 36.7628 97.3582 36.5716 97.2228 36.4264C97.0874 36.2812 96.902 36.1928 96.704 36.1789H69.1577C69.0612 36.1767 68.9653 36.194 68.8757 36.23C68.7861 36.2659 68.7047 36.3197 68.6365 36.388C68.5683 36.4563 68.5147 36.5377 68.4788 36.6273C68.443 36.717 68.4258 36.813 68.4281 36.9095C68.4199 37.1155 68.4909 37.3168 68.6266 37.472C68.7624 37.6272 68.9525 37.7245 69.1577 37.7437Z" fill="#191919"/>
<path d="M51.4217 131.854C51.3694 130.811 51.3694 129.766 51.4217 128.723C51.4141 128.611 51.3673 128.505 51.2895 128.424C51.2117 128.343 51.1078 128.291 50.996 128.279C50.8842 128.266 50.7716 128.294 50.6778 128.356C50.584 128.418 50.515 128.511 50.4828 128.619C50.2413 129.611 50.1014 130.625 50.0652 131.645C49.856 131.645 45.9958 131.123 44.3264 131.123C44.3264 130.914 44.5356 128.306 44.5356 127.785C45.7959 128.116 47.1345 127.967 48.2912 127.367C48.8134 127.367 49.3347 127.263 49.856 127.263C50.7286 127.175 51.5776 126.928 52.3606 126.533C52.7485 126.316 53.0698 125.997 53.2897 125.611C53.5097 125.225 53.6199 124.786 53.6086 124.342C53.6552 123.647 53.6552 122.95 53.6086 122.255C53.6259 121.731 53.5908 121.207 53.504 120.69C54.0115 120.58 54.5026 120.404 54.9651 120.168C55.0437 120.121 55.1105 120.057 55.1601 119.98C55.2097 119.903 55.2407 119.816 55.2509 119.725C55.261 119.634 55.2499 119.541 55.2185 119.456C55.1871 119.37 55.1361 119.292 55.0697 119.229C53.0326 117.088 51.3132 114.848 49.3308 112.656C49.8901 111.779 50.2135 110.773 50.2697 109.735C50.3974 108.808 50.1671 107.867 49.6256 107.103C49.0842 106.34 48.2723 105.811 47.355 105.625C46.4378 105.439 45.4842 105.61 44.6881 106.102C43.892 106.594 43.3133 107.371 43.0697 108.275C42.7708 109.254 42.6298 110.275 42.6521 111.299C42.3238 112.942 41.768 112.902 40.879 114.012C38.528 116.521 37.5344 120.387 39.2096 123.402C39.6389 124.403 40.2392 125.321 40.9836 126.115C41.694 126.736 42.5058 127.23 43.3836 127.576C43.3836 128.098 42.967 130.914 42.967 131.224C39.4017 131.216 35.9147 132.269 32.9504 134.25C31.2771 131.239 27.5849 127.785 22.6217 125.802C22.5171 123.507 22.6217 122.673 22.5171 121.211C22.5171 121.087 22.4676 120.968 22.3796 120.88C22.2915 120.791 22.1721 120.742 22.0476 120.742C21.9231 120.742 21.8037 120.791 21.7157 120.88C21.6277 120.968 21.5782 121.087 21.5782 121.211C21.4736 122.568 21.3699 123.924 21.3699 125.281C20.4912 124.974 19.5814 124.764 18.6569 124.655C19.1564 123.107 19.2992 121.466 19.0745 119.855C20.9179 119.951 22.7657 119.917 24.6041 119.751C25.1582 119.796 25.711 119.649 26.1689 119.334C27.0828 118.47 26.7948 116.516 26.7948 115.369C26.7948 114.638 27.9468 114.121 28.4643 113.699C28.5469 113.643 28.6162 113.569 28.6672 113.484C28.7183 113.398 28.75 113.302 28.7599 113.202C28.7699 113.103 28.758 113.002 28.725 112.908C28.692 112.813 28.6387 112.728 28.5689 112.656C27.4481 111.152 26.2295 109.723 24.9209 108.378C24.5033 108.065 23.8774 108.483 24.1904 108.9C25.1056 110.324 26.1166 111.683 27.2163 112.969C26.9033 113.178 26.6921 113.383 26.3811 113.595C25.3299 114.314 25.4422 115.161 25.4422 116.308C25.4422 116.829 25.3376 117.351 25.3376 117.873C25.3446 117.929 25.339 117.987 25.321 118.041C25.3031 118.095 25.2733 118.144 25.2339 118.186C24.6665 118.753 19.1859 118.659 18.8691 118.499C18.6608 118.395 18.5561 117.769 18.4515 117.56C17.8256 116.099 16.3654 115.369 15.5302 114.117C15.2172 113.699 14.79 112.537 15.4265 112.135C15.9401 111.809 16.8905 112.35 17.5126 112.03C19.5056 111.008 20.7468 108.275 21.1606 107.23C21.1606 106.934 24.7126 107.369 25.9606 105.352C28.5641 101.138 21.0742 96.048 17.4051 99.718C16.2494 101.104 15.3003 102.651 14.5875 104.309C14.5875 104.309 13.9155 104.117 13.7532 104.099C13.0133 104.101 12.2848 104.282 11.6304 104.627C10.976 104.972 10.4154 105.472 9.99676 106.082C8.86606 107.7 8.28122 109.638 8.32732 111.611C8.32732 115.163 6.85564 115.693 5.09308 116.724C3.68738 117.499 2.53124 118.657 1.75996 120.064C1.04223 121.483 0.717696 123.068 0.820124 124.654C1.28764 131.662 9.9814 132.86 15.2201 128.932C16.4691 127.945 17.4401 126.651 18.0377 125.176C22.3628 126.235 26.325 128.434 29.5116 131.544C30.3621 132.485 31.1301 133.497 31.807 134.57C28.8857 137.178 27.5292 141.038 27.1116 144.795C27.007 145.421 28.0505 145.525 28.1552 144.899C29.1987 141.874 29.8179 138.634 32.0153 136.239C34.6191 133.628 38.1359 132.132 41.8227 132.066C48.4102 131.695 58.1571 133.422 63.5244 138.114C66.4716 140.694 68.7171 144.597 68.0105 148.547C67.9145 149.072 68.7507 149.28 68.8448 148.757C69.5417 144.908 68.0105 141.245 65.5068 138.323C62.1497 134.825 55.6745 132.504 51.4217 131.854ZM53.6124 119.334C52.8819 119.542 52.1513 119.647 52.1513 120.064C52.1513 125.003 53.2908 125.583 48.5033 126.112C48.3971 125.651 48.2575 125.197 48.0857 124.756C47.2505 122.878 45.2691 123.609 45.3728 121.939C45.4774 121.104 46.4163 121 46.7292 120.787C47.6297 119.587 46.9462 118.827 46.5209 117.762C45.9987 116.823 48.8163 113.38 48.7116 113.275C50.2736 115.474 51.943 117.351 53.6124 119.334ZM49.23 109.318C49.23 109.839 48.3958 110.152 48.1875 109.631C47.9848 109.158 47.7403 108.704 47.4569 108.275C47.144 107.962 46.3049 107.649 46.6217 107.027C47.0393 106.296 48.2912 107.339 48.5004 107.756C48.9085 108.183 49.1649 108.731 49.23 109.318ZM17.8256 122.463C17.893 123.133 17.707 123.803 17.3043 124.342C17.2341 124.405 17.1501 124.45 17.0592 124.473C16.9682 124.497 16.8729 124.499 16.7812 124.478C16.6895 124.458 16.6039 124.416 16.5316 124.356C16.4593 124.296 16.4023 124.219 16.3654 124.133C16.2958 123.575 16.3313 123.008 16.47 122.463C16.6442 120.765 16.2012 119.061 15.222 117.663C14.9177 117.24 15.535 116.828 15.848 117.142C17.0897 118.641 17.7868 120.517 17.8256 122.463ZM25.0256 103.892C24.869 103.866 24.7238 103.793 24.6089 103.684C24.3382 103.263 24.1275 102.806 23.983 102.327C23.6944 101.833 23.3437 101.377 22.9395 100.971C22.7302 100.763 22.7302 100.45 22.9395 100.345C23.0257 100.268 23.1371 100.226 23.2524 100.226C23.3678 100.226 23.4791 100.268 23.5654 100.345C25.4816 101.988 26.166 104.035 25.0246 103.896L25.0256 103.892Z" fill="#191919"/>
<path d="M21.9996 108.9C21.247 109.006 21.2892 110.14 21.582 110.673C22.0505 111.528 23.6028 110.982 22.734 109.318C22.6731 109.178 22.5686 109.062 22.4362 108.987C22.3039 108.911 22.1507 108.881 21.9996 108.9Z" fill="#191919"/>
<path d="M48.608 116.202C47.982 116.62 48.3996 117.663 48.9209 117.976C49.3385 118.185 49.8598 118.185 50.0729 117.768C50.1573 117.501 50.1519 117.213 50.0576 116.95C49.9633 116.686 49.7853 116.46 49.5507 116.307C49.4393 116.168 49.2776 116.079 49.1009 116.06C48.9242 116.04 48.747 116.091 48.608 116.202Z" fill="#191919"/>
<path d="M20.9599 114.951C20.7497 114.743 20.2294 114.012 19.9164 114.638C19.8542 114.84 19.8506 115.055 19.906 115.259C19.9614 115.463 20.0735 115.647 20.2294 115.79C20.4543 116.019 20.6987 116.228 20.9599 116.416C21.2962 116.611 21.682 116.706 22.0708 116.687C22.4595 116.669 22.8346 116.538 23.1506 116.311C23.2075 116.271 23.2557 116.221 23.292 116.162C23.3284 116.103 23.3522 116.037 23.3621 115.968C23.3719 115.9 23.3675 115.83 23.3491 115.763C23.3307 115.696 23.2988 115.634 23.2553 115.58C22.9423 115.267 22.5218 115.467 22.2118 115.58C21.7894 115.73 21.1375 115.127 20.9599 114.951Z" fill="#191919"/>
<path d="M178.082 16.0429C175.736 3.47266 159.397 -0.448942 146.679 1.43554C139.966 2.4301 133.413 5.65954 130.611 11.7651C129.826 13.6152 129.401 15.5982 129.358 17.6077C129.358 25.497 135.8 31.185 143.444 32.6317C143.92 32.7595 144.411 32.8295 144.905 32.84C144.87 33.8259 144.73 34.8053 144.487 35.7613C143.929 37.9321 142.855 39.9363 141.357 41.6039C140.928 42.1165 141.357 43.0765 142.088 42.8567C147.039 41.2742 151.211 37.8841 153.773 33.3623C158.516 33.7136 164.837 33.297 169.215 31.4835C175.797 28.7571 179.264 22.3799 178.082 16.0429ZM145.739 19.0679C144.491 21.4679 140.505 20.7363 140.732 17.9159C140.924 15.5159 143.444 14.0557 145.322 15.9335C145.696 16.3551 145.935 16.8786 146.009 17.437C146.084 17.9954 145.989 18.5633 145.739 19.0679ZM153.877 20.529C153.328 20.4668 152.808 20.2463 152.382 19.8943C151.956 19.5424 151.642 19.0741 151.477 18.5466C150.367 14.9869 156.225 13.9645 156.798 17.2986C156.863 17.711 156.834 18.1327 156.715 18.5328C156.596 18.9328 156.388 19.3012 156.108 19.6108C155.828 19.9205 155.483 20.1636 155.096 20.3225C154.71 20.4813 154.294 20.5519 153.877 20.529ZM163.477 15.5207C163.983 15.2127 164.575 15.0777 165.164 15.136C165.754 15.1942 166.308 15.4426 166.744 15.8436C167.18 16.2446 167.473 16.7765 167.58 17.359C167.687 17.9415 167.602 18.543 167.337 19.0727C167.079 19.5604 166.681 19.96 166.194 20.2202C165.708 20.4805 165.154 20.5896 164.605 20.5337C164.056 20.4777 163.537 20.2591 163.113 19.906C162.688 19.5528 162.379 19.0812 162.225 18.5514C162.032 17.9803 162.053 17.3589 162.283 16.8018C162.513 16.2448 162.937 15.7897 163.476 15.5207H163.477Z" fill="#38A1FF"/>
</svg>
