<?xml version="1.0" encoding="UTF-8"?>
<svg width="502px" height="364px" viewBox="0 0 502 364" version="1.1" xmlns="http://www.w3.org/2000/svg" xmlns:xlink="http://www.w3.org/1999/xlink">
    <title>Untitled</title>
    <g id="Page-1" stroke="none" stroke-width="1" fill="none" fill-rule="evenodd">
        <g id="hero">
            <path d="M381.152,179.39 C376.4,179.704 371.629,179.596 366.896,179.065 C364.953,179.099 363.011,178.929 361.104,178.559 C360.46,180.858 359.744,183.157 358.992,185.457 C365.064,187.909 372.508,187.128 380.252,187.461 C380.416,184.757 380.716,182.064 381.152,179.39 Z" id="Path" fill="#38A1FF"></path>
            <path d="M442.622,169.355 C435.97,164.189 427.688,161.577 419.276,161.992 C419.276,165.086 419.139,168.207 419.171,171.264 C419.174,171.409 419.147,171.554 419.091,171.689 C419.036,171.824 418.953,171.945 418.848,172.047 C418.743,172.148 418.618,172.226 418.482,172.277 C418.345,172.327 418.199,172.349 418.054,172.341 C412.225,172.048 407.019,177.093 401.781,179.635 C401.77,182.478 401.77,185.331 401.781,188.197 C406.1,188.315 410.422,188.432 414.743,188.572 C420.797,188.756 427.151,189.973 433.189,189.081 C444.512,187.434 454.647,179.147 442.622,169.355 Z" id="Path" fill="#38A1FF"></path>
            <path d="M88.885,223.342 C89.252,217.57 93.619,217.713 98.413,217.673 C106.417,217.592 114.625,217.977 122.609,217.428 C124.457,211.599 126.896,206.076 129.09,200.384 C131.69,193.803 134.048,187.1 136.788,180.584 C154.476,180.584 153.974,179.095 193.915,180.563 C188.675,190.331 183.777,200.413 178.841,210.366 C176.486,214.999 174.656,220.134 171.853,224.545 L88.885,223.342 Z" id="Path" fill="#38A1FF"></path>
            <path d="M268.688,254.068 C268.566,240.174 276.732,230.075 287.237,221.828 C286.774,228.323 288.529,234.783 292.213,240.152 C299.219,235.133 307.061,231.399 315.374,229.122 C315.374,235.561 316.084,242.996 320.574,247.486 C320.757,247.668 319.437,254.596 318.99,258.173 C310.661,257.257 302.475,256.119 294.174,255.837 C289.48,255.694 284.85,256.201 280.156,256.161 C276.439,256.119 272.661,255.348 268.941,255.105 L268.688,254.068 Z" id="Path" fill="#38A1FF"></path>
            <polygon id="Path" fill="#38A1FF" fill-rule="nonzero" points="150.099 25.279 194.448 25.279 194.448 44.924 150.099 44.924"></polygon>
            <path d="M389.705,62.09 C383.879,58.819 383.48,50.896 384.729,44.336 C385.112,42.371 385.655,40.441 386.353,38.565 C386.41,38.326 386.559,38.118 386.767,37.988 C386.976,37.858 387.227,37.815 387.467,37.868 C387.707,37.921 387.917,38.067 388.051,38.273 C388.184,38.48 388.232,38.73 388.182,38.971 C388.106,40.595 387.871,43.248 387.715,44.761 C385.975,61.527 392.794,58.095 392.794,61.155 L392.794,68.283 C392.83,68.55 392.778,68.821 392.646,69.056 C392.514,69.291 392.309,69.476 392.063,69.585 C390.456,70.109 388.821,70.543 387.166,70.884 C386.926,70.949 386.671,70.92 386.452,70.804 C386.233,70.687 386.067,70.491 385.988,70.255 C385.621,68.935 387.071,69.046 390.133,67.634 C389.886,65.795 389.743,63.944 389.705,62.09 Z" id="Path" fill="#191919"></path>
            <path d="M392.821,55.134 C394.824,57.557 398.74,55.617 399.381,51.66 C399.629,50.139 397.818,50.039 397.615,50.989 C397.435,51.839 394.959,54.273 393.898,53.589 C393.087,53.069 391.786,53.885 392.821,55.134 Z" id="Path" fill="#191919"></path>
            <path d="M390.579,41.17 C389.585,43.933 389.305,46.902 389.766,49.803 C389.776,50.053 389.882,50.29 390.062,50.464 C390.241,50.639 390.481,50.738 390.732,50.7400697 C390.982,50.743 391.224,50.649 391.407,50.479 C391.591,50.308 391.702,50.074 391.717,49.824 C392.17,47.09 392.408,44.326 392.427,41.555 C392.388,40.206 391.118,40.027 390.579,41.17 Z" id="Path" fill="#191919"></path>
            <path d="M398.734,41.576 C399.099,41.934 399.326,42.41 399.373,42.919 C399.421,43.428 399.286,43.937 398.994,44.356 C398.701,44.775 398.269,45.077 397.775,45.207 C397.281,45.338 396.756,45.289 396.295,45.069 C395.933,44.71 395.71,44.236 395.665,43.729 C395.619,43.221 395.754,42.715 396.046,42.297 C396.337,41.88 396.767,41.579 397.259,41.447 C397.75,41.315 398.273,41.361 398.734,41.576 Z" id="Path" fill="#191919"></path>
            <path d="M388.04,87.75 C389.576,89.087 391.293,90.202 393.14,91.061 C395.202,92.21 397.506,92.857 399.864,92.951 C402.416,92.524 404.706,91.135 406.264,89.07 C410.408,84.5 412.336,77.43 414.023,71.646 C412.234,70.764 410.396,69.985 408.518,69.312 C404.577,72.784 400.35,75.894 396.226,79.165 C393.521,81.534 390.572,83.611 387.43,85.361 C385.142,80.771 383.396,75.93 382.229,70.936 C381.091,71.118 379.996,71.403 378.818,71.586 C376.775,76.543 372.482,84.801 373.657,90.155 C374.795,94.889 380.484,92.449 383.084,90.623 C384.668,89.485 386.252,88.326 387.776,87.148 L388.04,87.75 Z" id="Path" fill="#38A1FF"></path>
            <path d="M308.782,171.175 C309.31,169.427 309.093,169.652 310.205,166.505 C310.235,166.384 310.289,166.271 310.364,166.172 C310.439,166.073 310.533,165.989 310.641,165.927 C310.749,165.865 310.868,165.825 310.991,165.81 C311.114,165.794 311.24,165.804 311.359,165.838 C311.479,165.872 311.59,165.929 311.687,166.007 C311.784,166.085 311.865,166.182 311.924,166.291 C311.983,166.4 312.019,166.521 312.031,166.644 C312.042,166.768 312.029,166.893 311.992,167.012 C311.765,168.197 311.517,170.525 311.282,172.313 C311.139,173.105 310.49,173.171 309.106,174.67 C307.197,176.556 305.593,178.729 304.354,181.109 C305.045,181.691 305.779,182.221 306.548,182.693 C308.103,183.678 306.707,184.85 306.384,188.868 C306.202,190.011 306.317,191.182 306.719,192.268 C307.122,193.353 307.797,194.317 308.681,195.064 C309.174,195.514 309.756,195.856 310.39,196.066 C311.024,196.276 311.695,196.35 312.359,196.284 C312.589,196.253 312.823,196.277 313.043,196.352 C313.263,196.427 313.462,196.552 313.625,196.717 C313.789,196.883 313.911,197.084 313.984,197.304 C314.056,197.525 314.077,197.759 314.043,197.989 C313.658,200.365 313.299,202.958 312.562,206.297 C312.511,206.585 312.361,206.846 312.138,207.035 C311.916,207.224 311.635,207.33 311.342,207.335 C309.785,207.261 307.338,207.052 304.983,207.111 C304.731,207.126 304.483,207.043 304.29,206.881 C304.098,206.718 303.975,206.487 303.948,206.237 C303.937,206.111 303.951,205.985 303.989,205.865 C304.027,205.745 304.089,205.634 304.17,205.538 C304.251,205.442 304.35,205.362 304.462,205.305 C304.574,205.247 304.696,205.212 304.822,205.202 C306.292,205.038 308.064,204.938 310.205,204.877 L310.833,199.309 C309.313,199.083 307.883,198.452 306.691,197.482 C302.765,194.243 302.633,189.731 303.845,184.723 C303.42,184.438 303.032,184.135 302.607,183.831 C301.535,182.857 300.291,182.017 300.941,180.721 C302.703,176.926 305.401,173.641 308.782,171.175 Z" id="Path" fill="#191919"></path>
            <path d="M310.112,187.432 C310.624,190.508 315.176,192.184 317.813,186.862 C317.94,186.651 317.982,186.401 317.932,186.16 C317.881,185.92 317.742,185.708 317.541,185.566 C317.34,185.425 317.093,185.364 316.85,185.398 C316.606,185.431 316.385,185.555 316.229,185.745 C313.803,188.446 311.944,186.841 311.802,186.598 C311.305,185.771 309.853,185.864 310.112,187.432 Z" id="Path" fill="#191919"></path>
            <path d="M326.055,206.549 C327.853,206.834 334.994,206.787 334.994,204.965 C334.994,203.645 331.697,203.519 330.382,203.463 C330.047,203.463 326.744,203.418 326.158,203.503 C323.072,203.988 322.642,205.707 326.055,206.549 Z" id="Path" fill="#38A1FF"></path>
            <path d="M340.026,205.47 C340.29,205.451 343.986,205.169 344.311,205.106 C345.882,204.789 346.655,204.659 346.75,203.865 C346.827,202.854 345.045,202.421 344.047,202.199 C342.411,201.99 340.749,202.093 339.152,202.505 C338.577,202.719 337.143,203.675 337.365,204.556 C337.621,205.364 339.176,205.47 340.026,205.47 Z" id="Path" fill="#38A1FF"></path>
            <path d="M334.931,211.127 C334.857,210.335 334.77,209.543 334.667,208.751 C334.621,208.406 334.463,208.086 334.218,207.84 C333.972,207.594 333.652,207.435 333.307,207.389 C330.765,207.125 328.323,207.186 326.258,207.106 C325.921,207.086 325.585,207.176 325.303,207.362 C325.02,207.549 324.806,207.822 324.693,208.141 C323.552,211.148 322.721,214.57 322.195,216.185 C322.13,216.414 322.117,216.654 322.16,216.888 C322.202,217.122 322.297,217.342 322.439,217.533 C322.58,217.724 322.764,217.88 322.975,217.988 C323.187,218.096 323.42,218.154 323.658,218.157 C326.319,218.089 331.05,217.851 333.69,217.933 C333.913,217.951 334.135005,217.895 334.323,217.774 C334.51,217.653 334.653,217.473 334.728,217.262 C335.024,215.231 335.092,213.173 334.931,211.127 Z" id="Path" fill="#191919"></path>
            <path d="M347.624,215.064 C347.604,212.422 347.435,209.783 347.117,207.16 C347.075,206.764 346.887,206.398 346.591,206.132 C346.294,205.866 345.91,205.718 345.512,205.718995 C342.37,205.809 341.264,206.096 338.788,206.226 C338.411,206.25 338.054,206.403 337.776,206.658 C337.499,206.914 337.317,207.257 337.262,207.63 C336.969,210.457 336.868,213.301 336.958,216.141 C336.956,216.371 337.006,216.598 337.104,216.806 C337.202,217.014 337.346,217.196 337.526,217.34 C338.664,218.132 338.946,217.237 342.787,216.791 C343.898,216.642 345.02,216.595 346.14,216.648 C346.291,216.761 346.473,216.826 346.662,216.833 C346.851,216.84 347.037,216.789 347.196,216.688 C347.366,216.652 347.523,216.569 347.649,216.449 C347.776,216.329 347.866,216.176 347.91,216.008 C347.955,215.84 347.951,215.662 347.901,215.496 C347.85,215.329 347.754,215.18 347.624,215.064 Z" id="Path" fill="#191919"></path>
            <path d="M315.867,173.146 C316.68,173.328 317.066,174.73 316.699,176.255 C316.332,177.781 315.4,178.874 314.566,178.671 C313.731,178.468 313.367,177.087 313.734,175.564 C314.101,174.041 315.033,172.961 315.867,173.146 Z" id="Path" fill="#191919"></path>
            <path d="M225.461,143.927 C227.808,155.34 233.985,164.627 238.36,173.324 C246.499,189.042 258.445,215.147 275.09,225.532 C276.146,226.237 277.144,224.592 276.125,223.927 C261.341,213.462 248.027,185.077 241.203,171.861 C236.292,162.576 229.88,151.905 227.309,143.478 C227.279,143.357 227.226,143.243 227.152,143.142 C227.079,143.041 226.986,142.956 226.879,142.891 C226.773,142.826 226.654,142.782 226.531,142.763 C226.407,142.744 226.282,142.749 226.16,142.779 C226.039,142.808 225.924,142.861 225.824,142.935 C225.723,143.009 225.637,143.101 225.573,143.208 C225.508,143.315 225.464,143.433 225.445,143.557 C225.426,143.68 225.431,143.806 225.461,143.927 Z" id="Path" fill="#191919"></path>
            <path d="M235.139,137.248 C238.945,140.657 241.102,143.568 244.423,146.979 C263.764,165.708 280.623,191.4 295.983,205.751 C296.988,206.612 298.261,205.223 297.324,204.391 C285.132,191.857 268.284,165.639 246.475,144.807 C243.271,141.606 239.879,138.598 236.319,135.799 C236.223,135.718 236.112,135.658 235.993,135.621 C235.873,135.583 235.748,135.57 235.623,135.582 C235.499,135.594 235.378,135.631 235.268,135.69 C235.158,135.75 235.06,135.83 234.982,135.928 C234.903,136.025 234.845,136.137 234.81,136.257 C234.776,136.377 234.765,136.503 234.78,136.628 C234.795,136.752 234.834,136.872 234.895,136.981 C234.957,137.09 235.04,137.185 235.139,137.262 L235.139,137.248 Z" id="Path" fill="#191919"></path>
            <path d="M228.779,144.349 C229.183,145.432 233.412,151.433 234.832,150.503 C235.751,149.904 234.484,147.388 234.283,147.011 C233.418,145.452 232.411,143.977 231.276,142.602 C229.053,140.418 227.625,141.269 228.779,144.349 Z" id="Path" fill="#191919"></path>
            <path d="M232.274,141.529 C232.679,142.184 233.149,142.796 233.676,143.358 C234.338,144.3 235.087,145.177 235.912,145.98 C237.232,147.154 238.349,148.221 239.122,147.564 C240.073,146.753 238.18,144.023 237.435,142.991 C236.577,141.812 235.648,140.686 234.653,139.62 C234.188,139.24 232.575,138.068 231.889,138.646 C231.237,139.142 231.664,140.206 232.274,141.529 Z" id="Path" fill="#191919"></path>
            <path d="M409.21,44.329 C410.149,42.38 410.529,40.208 410.307,38.056 C410.085,35.904 409.27,33.856 407.953,32.14 C406.402,30.449 404.557,29.052 402.509,28.016 C401.57,25.053 400.302,22.204 398.729,19.523 C392.393,8.1157 380.888,10.2225 378.353,18.61 C377.493,22.592 378.091,26.75 380.037,30.329 C381.983,33.907 385.149,36.669 388.958,38.111 C392.289,38.935 395.772,38.922 399.096,38.072 C399.483,39.687 400.241,41.19 401.309,42.463 C402.377,43.735 403.726,44.742 405.25,45.403 C406.57,45.81 405.928,45.424 407.137,46.084 C407.821,46.454 408.385,47.01 408.764,47.689 C409.007,48.147 409.079,48.676 408.967,49.182 C408.855,49.688 408.567,50.138 408.154,50.451 C407.056,51.32 405.694,51.786 404.294,51.771 C403.964,51.794 403.65,51.917 403.392,52.124 C403.134,52.332 402.946,52.613 402.853,52.93 C402.221,55.394 400.985,57.663 399.257,59.53 C398.771,59.817 398.668,60.739 398.668,61.296 C398.668,63.532 398.829,66.293 398.993,68.02 C399.007,68.271 399.099,68.511 399.256,68.708 C399.412,68.904 399.626,69.048 399.867,69.118 C401.142,69.566 402.444,69.931 403.766,70.214 C403.887,70.244 404.014,70.251 404.138,70.233 C404.261,70.215 404.38,70.172 404.488,70.108 C404.595,70.044 404.689,69.96 404.764,69.859 C404.839,69.759 404.893,69.645 404.924,69.523 C404.954,69.402 404.961,69.276 404.943,69.152 C404.925,69.028 404.882,68.909 404.818,68.802 C404.754,68.694 404.67,68.6 404.569,68.526 C404.469,68.451 404.355,68.396 404.233,68.366 C403.289,68.028 402.369,67.626 401.48,67.162 C401.823,60.826 401.786,61.547 401.786,61.354 C403.495,59.475 404.795,57.262 405.604,54.854 C407.42,54.669 409.125,53.892 410.456,52.642 C411.101,52.099 411.597,51.4 411.895,50.611 C412.193,49.823 412.284,48.971 412.159,48.137 C412.034,47.303 411.697,46.515 411.181,45.848 C410.665,45.181 409.986,44.658 409.21,44.329 Z M393.705,21.416 C392.937,20.546 392.039,19.799 391.044,19.201 C390.398,18.648 389.569,18.356 388.72,18.383 C387.87,18.409 387.061,18.752 386.45,19.344 C385.672,19.969 385.431,21.097 384.827,22.9 C384.836,23.024 384.821,23.149 384.782,23.267 C384.743,23.385 384.681,23.495 384.6,23.589 C384.519,23.683 384.42,23.761 384.309,23.817 C384.198,23.873 384.077,23.907 383.953,23.916 C383.829,23.925 383.704,23.91 383.586,23.871 C383.468,23.833 383.358,23.771 383.264,23.69 C383.169,23.609 383.092,23.51 383.036,23.399 C382.98,23.287 382.946,23.166 382.936,23.042 C382.632,22.283 382.502,21.464 382.554,20.648 C382.607,19.831 382.841,19.036 383.24,18.322 C383.877,17.216 384.839,16.3325 385.995,15.7909 C387.151,15.2493 388.445,15.0758 389.703,15.2939 C390.999,15.6048 392.195,16.2395 393.179,17.1384 C394.163,18.037 394.902,19.171 395.329,20.434 C395.92,21.569 394.291,22.493 393.705,21.416 Z M395.983,26.221 C395.309,25.553 394.892,24.669 394.806,23.723 C394.521,22.609 395.585,21.804 396.49,22.91 C397.074,23.647 397.497,24.498 397.731,25.408 C398.064,26.363 397.134,27.382 395.983,26.221 Z" id="Shape" fill="#191919"></path>
            <path d="M159.223,97.07 C153.325,87.254 138.52,91.475 128.485,96.948 C118.9,102.08 116.542,105.636 111.666,112.611 C111.519,112.82 111.296,112.962 111.045,113.007 C110.794,113.053 110.536,112.998 110.325,112.854 C110.123,112.711 109.987,112.494 109.945,112.251 C109.903,112.008 109.959,111.757 110.1,111.555 C114.121,105.264 116.4,100.343 126.996,94.327 C139.383,87.288 156.3,83.767 162.668,96.684 C170.131,96.528 180.243,100.507 186.885,104.076 C198.132,110.614 208.095,119.144 216.289,129.249 C216.444,129.439 216.52,129.682 216.501,129.927 C216.482,130.173 216.369,130.401 216.187,130.565 C216.004,130.73 215.765,130.818 215.519,130.811388 C215.273,130.804 215.04,130.703 214.866,130.529 C206.538,120.943 196.605,112.88 185.512,106.7 C179.53,103.593 170.432,100.008 163.735,99.836 C164.804,106.362 157.383,112.73 152.581,111.112 C151.904,110.882 151.285,110.511 150.763,110.023 C150.241,109.535 149.829,108.942 149.555,108.283 C149.28,107.623 149.149,106.913 149.17,106.199 C149.191,105.485 149.364,104.784 149.677,104.142 C150.639,102.326 151.996,100.747 153.648,99.524 C155.3,98.3 157.205,97.461 159.223,97.07 Z M160.585,100.037 C154.703,100.987 151.873,105.531 152.438,106.861 C153.935,110.755 161.681,105.124 160.585,100.037 Z" id="Shape" fill="#191919"></path>
            <path d="M85.377,140.743 C86.2772,139.891 85.4984,138.631 84.3421,139.159 C81.7919,140.337 81.4381,139.547 80.1181,138.286 C79.73,137.916 79.3076,137.639 78.8588,137.879 C77.259,138.732 80.4719,145.398 85.377,140.743 Z" id="Path" fill="#191919"></path>
            <path d="M110.383,199.003 C111.463,205.97 109.725,210.316 111.399,210.664 C112.965,210.965 113.654,205.434 113.736,204.304 C114.093,199.634 113.188,194.953 111.114,190.753 C110.726,190.006 108.754,186.957 107.743,187.667 C106.381,188.435 109.744,193.955 110.383,199.003 Z" id="Path" fill="#191919"></path>
            <path d="M107.334,211.448 C101.682,206.749 94.778,208.05 87.565,209.397 C80.4716,211.103 73.056,210.934 66.0468,208.908 C66.374,205.507 66.4411,202.087 66.2475,198.675 C65.7195,194.979 63.8477,194.642 63.2616,198.675 C63.1016,201.848 63.1634,205.028 63.4464,208.193 C55.302,205.917 45.4443,203.037 38.179,207.467 C35.3877,209.252 33.2162,211.856 31.9618,214.922 C31.3753,216.328 30.8667,217.766 30.4385,219.228 C30.3629,219.462 30.3822,219.717 30.4923,219.937 C30.6024,220.157 30.7945,220.325 31.0272,220.405 C31.1419,220.447 31.2637,220.466 31.3857,220.46 C31.5076,220.454 31.6271,220.424 31.7371,220.371 C31.8471,220.318 31.9454,220.243 32.0262,220.152 C32.1069,220.06 32.1685,219.953 32.2073,219.838 C33.4976,215.815 36.1475,212.368 39.7023,210.086 C48.1186,205.386 60.9912,211.324 69.8722,213.093 C73.3442,213.645 76.8698,213.781 80.3741,213.499 C86.7101,213.235 93.236,210.466 99.084,210.635 C105.481,210.843 106.183,214.244 107.495,212.789 C107.643,212.587 107.708,212.336 107.679,212.087 C107.649,211.838 107.525,211.609 107.334,211.448 Z" id="Path" fill="#191919"></path>
            <path d="M94.839,215.437 C97.417,214.885 100.09,214.948 102.64,215.619 C102.752,215.674 102.873,215.706 102.998,215.714 C103.122,215.721 103.247,215.704 103.365,215.664 C103.482,215.623 103.591,215.56 103.684,215.477 C103.778,215.395 103.854,215.294 103.908,215.182 C103.963,215.071 103.995,214.949 104.003,214.825 C104.01,214.7 103.993,214.576 103.953,214.458 C103.912,214.34 103.849,214.231 103.766,214.138 C103.684,214.045 103.583,213.969 103.471,213.914 C102.119,213.044 100.555,212.56 98.948,212.513 C97.34,212.467 95.751,212.86 94.35,213.65 C93.128,214.408 93.841,215.683 94.839,215.437 Z" id="Path" fill="#191919"></path>
            <path d="M79.9778,127.287 C80.8939,126.643 82.375,127.166 83.3095,128.467 C84.2441,129.769 84.223,131.35 83.2884,132 C82.3538,132.649 80.8913,132.124 79.9567,130.822 C79.507,130.342 79.2586,129.708 79.2624548,129.05 C79.2664,128.393 79.5225,127.762 79.9778,127.287 Z" id="Path" fill="#191919"></path>
            <path d="M211.814,279.133 C211.342,271.029 211.022,248.834 210.135,240.479 C210.31,240.342 210.453,240.169 210.554,239.97 C210.654,239.772 210.709,239.555 210.716,239.333 L210.716,230.837 L210.645,230.837 C210.657,229.297 210.212,227.787 209.366,226.5 C208.52,225.212 207.311,224.204 205.893,223.604 C204.082,222.798 205.528,222.983 173.975,222.88 C175.958,219.411 177.822,214.91 179.847,210.884 C182.896,204.973 193.155,185.165 195.306,181.284 C195.419,181.055 195.473,180.801 195.464,180.546 C195.455,180.29 195.383,180.041 195.255,179.82 C195.126,179.599 194.945,179.413 194.728,179.279 C194.51,179.145 194.263,179.067 194.008,179.051 C150.764,177.393 155.886,179.009 136.799,179.009 C136.485,179.003 136.177,179.091 135.913,179.262 C135.649,179.432 135.442,179.676 135.318,179.964 C134.505,181.937 122.118,213.931 121.442,215.942 C98.495,217.326 88.788,213.743 88.019,222.624 C66.675,222.563 46.4183,222.511 31.431,222.474 C27.9443,217.416 26.4598,211.243 27.2651,205.153 C28.2759,196.75 31.4547,188.755 36.4893,181.952 C38.6124,179.21 40.8909,176.593 43.3137,174.112 C55.793,171.556 65.062,185.957 98.004,177.932 C103.145,176.807 108.102,174.967 112.732,172.467 C119.034,177.649 121.854,185.07 124.982,192.761 C125.072,192.99 125.247,193.175 125.47,193.278 C125.694,193.38 125.949,193.392 126.181,193.31 C126.3,193.266 126.409,193.199 126.502,193.114 C126.595,193.028 126.67,192.924 126.723,192.809 C126.775,192.694 126.805,192.569 126.809,192.443 C126.814,192.316 126.793,192.19 126.748,192.071 C123.715,184.31 121.173,175.571 113.707,169.763 C113.482,169.592 113.212,169.49 112.93,169.472 C112.648,169.455 112.367,169.521 112.123,169.663 C111.545,170.005 110.957,170.325 110.356,170.624 C109.959,170.045 109.529,169.488 109.068,168.958 C107.09,167.004 104.752,165.451 102.183,164.386 C101.602,164.156 99.261,163.694 98.87,164.589 C98.579,165.553 100.789,167.042 101.064,167.189 C103.102,168.316 105.044,169.608 106.872,171.052 C107.067,171.215 107.701,171.685 107.83,171.77 C105.376,172.75 102.861,173.57 100.301,174.225 C100.301,173.013 100.301,172.158 100.261,171.321 C100.045,168.22 99.037,165.227 97.333,162.628 C96.85,161.933 94.693,160.333 93.922,161.144 C93.035,162.078 95.063,164.127 96.116,167.097 C96.897,169.626 97.478,172.212 97.853,174.832 C89.033,177.155 79.8458,177.743 70.8014,176.564 C70.738,176.123 70.1572,173.003 70.0595,172.667 C72.0256,172.783 73.9985,172.649 75.9309,172.269 C76.8787,172.118 76.7599,170.587 76.6411,170.117 C75.8573,167.684 75.3135,165.18 75.0174,162.641 C74.6135,159.457 73.4519,143.369 73.4519,138.445 C73.5655,130.776 75.2814,121.549 81.6359,118.049 C87.526,125.939 88.286,125.372 90.25,132.458 C89.698,133.109 89.085,133.708 88.421,134.245 C87.217,135.222 88.239,136.093 87.964,140.027 C87.264,144.38 86.0738,147.574 81.7389,148.567 C81.2619,148.669 80.7655,148.634 80.308,148.464 C79.2071,148.115 77.14,147.611 76.6305,148.646 C76.3058,149.325 76.7123,150.251 77.7076,150.819 C78.6039,151.307 79.5772,151.638 80.5852,151.798 C80.6697,155.003 80.7383,156.049 81.0868,160.553 C81.082,160.824 81.1703,161.089 81.337,161.303 C81.5037,161.517 81.7387,161.668 82.0029,161.73 C85.0569,162.432 88.069,163.304 91.026,164.341 C91.261,164.405 91.506,164.416 91.745,164.373 C91.985,164.33 92.211,164.233 92.408,164.091 C92.605,163.948 92.767,163.764 92.883,163.55 C92.999,163.337 93.065,163.1 93.078,162.857 C93.104,158.52 93.342,151.769 92.917,145.871 C91.942,134.501 91.148,136.103 91.861,135.341 C93.748,133.379 93.809,133.334 93.012,130.853 C93.189,130.636 93.304,130.375 93.344,130.097 C93.986,125.967 93.337,121.739 91.486,117.99 C89.636,114.242 86.6731,111.156 83.0035,109.154 C75.6431,105.194 66.3715,111.266 59.9668,116.649 C57.7598,118.542 58.6257,121.496 58.6864,123.537 C55.5541,126.47 53.6583,130.488 53.3853,134.77 C52.3293,142.107 51.3842,158.018 53.3351,164.666 C51.7733,165.654 50.3403,166.833 49.0689,168.174 C48.5282,168.931 48.0781,169.749 47.7278,170.611 C45.8656,170.507 43.9983,170.673 42.1838,171.105 C41.8209,171.239 41.4893,171.447 41.2096,171.714 C21.1931,191.665 21.4967,213.115 29.3296,222.468 C6.5226,222.416 7.3622,222.204 5.3769,223.076 C3.3116,223.929 1.6685,225.565 0.807,227.627 C-0.0219,229.599 0.1761,230.373 0.1761,239.327 C0.1761,240.119 0.7622,240.534 1.5225,240.605 C0.6566,260.632 1.2189,269.73 1.2189,290.33 C1.3377,302.03 0.5483,313.398 1.3007,325.273 C1.7654,332.897 1.3931,346.089 3.3335,350.382 C4.4291,353.022 7.0295,353.563 8.3495,351.092 C9.8042,348.367 10.5328,340.16 10.7651,337.073 C11.1928,332.728 16.779,253.771 17.9354,240.618 L46.7563,240.618 C47.332,245.219 48.647,249.696 50.6503,253.877 C51.9996,257.438 54.4661,260.467 57.6806,262.509 C55.898,263.03 54.3637,264.177 53.3605,265.74 C52.3573,267.303 51.9528,269.176 52.2216,271.013 C52.4904,272.851 53.4144,274.529 54.8232,275.739 C56.2319,276.949 58.0306,277.609 59.8876,277.597 C62.0418,277.597 68.9798,277.515 76.2556,277.433 C74.6716,283.735 69.3547,305.077 66.1734,317.87 C64.6792,318.382 64.8825,319.248 65.7299,319.655 C64.8667,323.132 58.9689,349.17 58.9689,349.17 C58.9196,349.408 58.9639,349.656 59.0928,349.862 C59.2216,350.069 59.4249,350.217 59.6605,350.277 C59.8961,350.338 60.1458,350.305 60.3577,350.185 C60.5697,350.066 60.7275,349.87 60.7984,349.637 C64.534,336.588 63.5387,340.165 68.6445,320.23 C75.9078,320.583 83.1863,320.469 90.435,319.89 C95.382,335.394 99.939,349.677 99.939,349.677 C100.009,349.914 100.171,350.114 100.388,350.232 C100.605,350.35 100.861,350.377 101.098,350.308 C101.22,350.275 101.334,350.219 101.433,350.142 C101.533,350.065 101.617,349.969 101.679,349.859 C101.741,349.75 101.781,349.629 101.797,349.504 C101.812,349.379 101.803,349.252 101.769,349.13 L80.2975,277.388 C87.293,277.307 93.83,277.225 95.902,277.19 C97.467,277.16 98.98,276.622 100.212,275.657 C101.444,274.693 102.33,273.353 102.735,271.842 C103.792,286.632 105.623,301.357 108.221,315.956 C107.334,317.411 105.512,338.647 105.486,338.924 C105.222,342.311 104.559,346.269 107.537,348.412 C110.269,350.453 113.033,349.191 115.032,346.44 C117.694,341.952 119.441,336.981 120.172,331.815 C121.55,323.536 120.528,320.885 121.545,328.966 C121.897,331.79 122.413,334.592 123.089,337.356 C123.174,337.672 123.352,337.954 123.601,338.166 C123.85,338.378 124.158,338.509 124.483,338.541 C124.145,340.416 124.045,342.326 124.187,344.225 C124.104,345.782 124.611,347.312 125.607,348.511 C126.603,349.71 128.015,350.489 129.56,350.693 C131.849,351.023 132.992,350.59 141.749,349.474 C144.547,349.138 148.66,348.441 151.723,347.868 C151.973,347.842 152.203,347.717 152.362,347.521 C152.52,347.325 152.594,347.074 152.567,346.823 C152.541,346.572 152.416,346.343 152.22,346.184 C152.024,346.026 151.773,345.952 151.522,345.978 C149.714,346.081 146.791,346.042 142.81,346.324 C131.413,347.116 128.467,349.445 127.429,344.719 C127.041,343.169 126.925,341.004 126.519,338.441 C127.25,338.391 131.292,337.913 132.915,337.776 C134.718,339.539 136.886,340.886 139.265,341.723 C141.645,342.559 144.178,342.865 146.688,342.617 C147.958,342.493 149.51,342.441 149.392,341.4 C149.392,340.418 148.394,340.439 146.791,340.202 C142.836,339.767 139.023,338.477 135.616,336.421 C134.615,335.69 135.352,337.403 135.962,328.81 C137.234,310.568 135.492,277.412 135.373,271.174 C135.159,261.089 135.796,252.042 125.175,249.336 C125.332,247.767 125.162,246.184 124.676,244.684 C124.191,243.185 123.399,241.802 122.353,240.624 L194.623,240.624 C196.312,248.858 200.885,267.153 201.154,268.172 C202.271,272.581 203.321,275.606 204.871,280.137 C204.941,280.382 205.106,280.589 205.328,280.713 C205.551,280.836 205.814,280.867 206.059,280.797 C206.304,280.727 206.511,280.562 206.635,280.339 C206.759,280.117 206.789,279.854 206.719,279.609 C205.238,273.233 200.742,249.22 196.832,240.624 L208.002,240.624 C207.205,253.559 207.851,266.544 209.927,279.337 C209.934,279.465 209.968,279.591 210.025,279.706 C210.083,279.821 210.163,279.923 210.261,280.007 C210.36,280.09 210.474,280.152 210.597,280.19 C210.72,280.228 210.849,280.24 210.977,280.226 C211.105,280.213 211.229,280.173 211.341,280.11 C211.454,280.047 211.552,279.961 211.63,279.859 C211.708,279.757 211.765,279.64 211.797,279.515 C211.828,279.39 211.834,279.261 211.814,279.133 Z M89.96,160.65 L84.862,158.963 C84.862,155.251 84.8224,153.887 85.0231,151.326 C86.371,150.532 87.512,149.431 88.355,148.113 C89.123,147.185 89.728,146.132 90.142,145 C90.187,146.55 90.158,147.289 89.96,160.65 Z M53.2639,168.626 C53.6995,168.298 54.1588,167.971 54.5839,167.636 C55.5612,169.5 57.0711,171.031 58.9214,172.034 C59.1823,172.173 59.4793,172.23 59.7732,172.198 C60.0672,172.165 60.3445,172.044 60.5687,171.852 C61.5059,171.039 60.809,169.911 60.6083,169.148 C62.3804,170.626 64.4762,171.664 66.7252,172.179 C66.7991,172.607 67.438,175.672 67.4934,175.936 C60.7984,174.42 54.2934,171.712 50.315,170.944 C51.3405,170.227 52.325,169.453 53.2639,168.626 Z M124.15,256.421 C124.148,256.168 124.246,255.924 124.423,255.743 C124.6,255.561 124.842,255.458 125.096,255.454933 C125.349,255.452 125.593,255.55 125.774,255.728 C125.956,255.905 126.059,256.147 126.062,256.4 C127.014,272.484 126.803,288.615 125.431,304.667 C125.288,306.457 125.085,308.224 124.924,310.011 C124.909,310.268 124.792,310.509 124.6,310.681 C124.408,310.853 124.156,310.942 123.899,310.928 C123.641,310.915 123.4,310.801 123.226,310.61 C123.053,310.419 122.962,310.168 122.973,309.911 C123.923,256.068 123.205,270.577 124.14,256.421 L124.15,256.421 Z M122.733,218.976 C123.043,218.95 123.338,218.834 123.584,218.643 C123.829,218.452 124.013,218.193 124.114,217.899 C125.898,212.133 128.768,205.617 130.574,200.976 C132.686,195.715 136.044,186.314 137.868,182.206 C155.928,181.942 157.478,180.87 191.478,182.003 C185.765,192.945 184.577,195.754 177.766,209.852 C175.823,213.862 174.105,218.617 171.744,222.878 C149.605,222.806 118.868,222.714 89.904,222.635 C91.095,215.945 99.482,220.441 122.722,218.976 L122.733,218.976 Z M6.0078,348.354 C4.7354,343.988 4.8885,331.302 4.4846,325.072 C3.7902,313.356 4.4397,301.489 4.3816,290.314 C4.3209,283.569 3.4154,243.683 3.4391,240.624 L16.0055,240.624 C13.4315,266.174 7.547,343.256 6.0078,348.354 Z M89.735,317.693 C85.2013,317.234 80.6416,317.077 76.0866,317.223 C73.3859,317.223 71.464,317.2 69.3863,317.342 C73.1457,302.653 77.5703,285.271 78.3914,281.966 C79.4236,285.327 84.6799,301.827 89.735,317.693 Z M95.908,274.835 C91.296,274.754 64.5208,274.469 59.8876,274.429 C58.6889,274.429 57.5393,273.953 56.6917,273.105 C55.8441,272.258 55.3679,271.108 55.3679,269.909 C55.3679,268.711 55.8441,267.561 56.6917,266.713 C57.5393,265.866 58.6889,265.39 59.8876,265.39 L64.2357,265.368 C74.0037,268.101 88.835,267.143 98.909,265.962 C99.778,266.566 100.427,267.435 100.758,268.439 C101.089,269.443 101.085,270.528 100.746,271.529 C100.408,272.531 99.753,273.395 98.88,273.992 C98.007,274.589 96.964,274.886 95.908,274.838 L95.908,274.835 Z M104.031,244.301 C101.32,251.894 102.922,250.748 102.751,258.821 C102.716,260.405 102.735,261.625 101.716,261.686 C100.763,261.741 100.66,260.611 100.354,259.046 C99.42,255.656 99.112,252.125 99.445,248.626 C95.705,249.087 91.938,249.288 88.17,249.227 C86.945,249.135 84.7564,248.861 84.7564,247.847 C84.6587,246.994 85.4983,246.714 88.067,246.199 C92.071,245.882 96.09,245.813 100.103,245.991 C100.389,245.202 100.781,244.455 101.267,243.771 C101.924,242.934 103.313,241.276 104.171,241.901 C104.849,242.393 104.43,243.277 104.031,244.301 Z M111.97,345.149 C111.259,345.962 110.438,346.593 109.472,345.859 C107.096,344.064 109.554,338.599 109.96,317.347 C113.329,317.485 115.792,317.456 119.272,317.691 C118.625,324.557 116.624,340.078 111.97,345.149 Z M208.726,230.837 L208.726,238.311 C202.976,238.271 12.4917,237.722 3.3678,237.722 C3.3678,230.687 3.2253,230.159 3.7744,228.844 C4.1791,227.894 4.8522,227.082 5.7113,226.509 C6.5703,225.935 7.578,225.625 8.6109,225.615 C29.4669,225.615 194.778,225.169 202.886,225.087 C204.431,225.07 205.92,225.666 207.027,226.743 C208.135,227.82 208.771,229.292 208.797,230.837 L208.726,230.837 Z" id="Shape" fill="#191919"></path>
            <path d="M195.943,46.793 C195.803,38.178 195.151,31.528 195.639,25.422 C195.668,25.198 195.647,24.97 195.576,24.755 C195.506,24.54 195.389,24.344 195.233,24.18 C195.077,24.017 194.887,23.89 194.676,23.809 C194.465,23.728 194.238,23.696 194.013,23.714 C185.301,23.978 154.825,24.588 150.965,24.812 C150.566,24.829 150.187,24.991 149.899,25.267 C149.611,25.544 149.435,25.916 149.402,26.314 C148.14,42.458 150.939,66.323 152.267,80.556 C152.286,80.874 152.414,81.176 152.627,81.412 C152.841,81.649 153.129,81.806 153.444,81.857 C167.12,82.777 180.85,82.512 194.48,81.065 C194.656,81.05 194.824,80.985 194.966,80.879 C195.107,80.772 195.215,80.628 195.279,80.463 C195.342,80.298 195.358,80.119 195.325,79.945 C195.292,79.772 195.21,79.611 195.09,79.481 C195.399,65.12 195.943,62.585 195.943,46.793 Z M152.509,27.919 C156.084,27.756 183.978,27.167 192.373,26.924 C192.08,32.711 192.606,38.149 192.838,43.96 C190.24,43.865 183.07,43.561 181.542,43.543 C179.245,43.501 160.128,43.419 158.046,43.501 C156.366,43.598 154.086,43.809 152.422,44.005 C152.248,38.619 152.248,33.236 152.509,27.919 Z M154.988,79.175 C154.178,68.393 152.945,56.679 152.504,46.006 C156.25,46.479 160.025,46.687 163.801,46.629 C173.505,46.922 183.219,46.677 192.896,45.895 C192.896,46.209 193.139,76.128 193.221,79.257 C180.489,80.085 167.716,80.058 154.988,79.175 Z" id="Shape" fill="#191919"></path>
            <path d="M163.283,54.521 C165.295,54.548 172.14,54.45 175.272,54.115 C179.276,53.587 180.005,53.51 180.005,52.491 C179.873,51.366 178.685,51.498 175.781,51.332 C171.4,51.129 167.01,51.19 162.636,51.514 C162.124,51.554 158.721,52.063 158.859,53.201 C158.948,54.357 161.256,54.434 163.283,54.521 Z" id="Path" fill="#191919"></path>
            <path d="M161.295,63.109 C162.508,63.152 163.722,63.131 164.933,63.048 C166.309,63.03 167.676,62.825 168.996,62.438 C170.134,62.124 170.987,61.952 170.884,61.057 C170.884,60.17 169.968,60.104 168.122,59.919 C165.792,59.781 163.454,59.843 161.134,60.104 C160.87,60.178 158.645,60.799 158.758,61.728 C158.755,62.652 161.021,63.074 161.295,63.109 Z" id="Path" fill="#191919"></path>
            <path d="M222.113,95.321 C218.932,95.643 215.334,96.198 212.564,96.744 C212.356,96.785 212.141,96.78 211.935,96.729 C211.729,96.677 211.537,96.582 211.372,96.448 C211.208,96.314 211.074,96.146 210.982,95.955 C210.89,95.763 210.84,95.554 210.838,95.342 C210.595,90.712 210.127995,87.158 210.127995,82.076 C210.127,81.666 210.286,81.272 210.57,80.977 C210.854,80.682 211.241,80.508 211.651,80.492 L223.415,79.719 C223.648,79.698 223.884,79.732 224.102,79.817 C224.321,79.902 224.517,80.035 224.676,80.208 C224.835,80.381 224.952,80.587 225.019,80.812 C225.085,81.037 225.099,81.275 225.059,81.506 C224.718,84.192 224.515,86.893 224.45,89.6 C224.349,90.778 224.246,91.958 224.186,93.135 L224.735,93.156 C224.985,93.143 225.23,93.23 225.417,93.397 C225.603,93.565 225.715,93.8 225.729,94.05 C225.742,94.3 225.655,94.546 225.488,94.732 C225.32,94.918 225.085,95.031 224.835,95.044 L224.022,95.126 L224.022,95.572 C224.031,95.698 224.014,95.825 223.973,95.944 C223.931,96.064 223.866,96.174 223.781,96.267 C223.695,96.361 223.592,96.436 223.477,96.488 C223.362,96.541 223.237,96.569 223.111,96.572 C222.984,96.575 222.859,96.552 222.741,96.505 C222.624,96.458 222.517,96.387 222.428,96.298 C222.339,96.208 222.268,96.101 222.221,95.984 C222.175,95.866 222.152,95.741 222.155,95.614 L222.113,95.321 Z M221.749,83 C216.867,83.325 220.447,83.185 213.338,83.631 C213.338,86.643 213.57,88.761 213.723,93.626 C216.434,93.312 219.16,93.156 221.889,93.159 C221.441,89.79 221.394,86.38 221.749,83 Z" id="Shape" fill="#191919"></path>
            <path d="M262.309,107.698 C262.816,107.637 263.263,107.555 263.793,107.495 C264.039,107.455 264.29,107.513 264.493,107.656 C264.696,107.799 264.835,108.017 264.88,108.261 C264.924,108.506 264.872,108.758 264.733,108.964 C264.594,109.17 264.38,109.314 264.136,109.364 C257.832,110.868 249.857,111.956 246.058,112.735 C245.801,112.778 245.538,112.754 245.292,112.668 C245.047,112.581 244.828,112.433 244.655,112.238 C244.483,112.044 244.363,111.808 244.306,111.554 C244.249,111.3 244.258,111.036 244.331,110.787 C245.891,104.54 248.584,98.225 250.73,91.731 C250.828,91.447 251.003,91.196 251.236,91.006 C251.469,90.817 251.751,90.696 252.049,90.658 C252.347,90.619 252.649,90.665 252.923,90.79 C253.196,90.915 253.429,91.114 253.595,91.364 C257.058,96.492 259.979,101.966 262.309,107.698 Z M252.618,95.894 C252.13,97.283 248.6,107.014 247.987,109.303 C251.034,108.815 256.377,108.363 260.176,107.962 L252.618,95.894 Z" id="Shape" fill="#38A1FF"></path>
            <path d="M139.592,145.879 C135.695,145.657 130.88,145.913 125.267,145.512 C125.008,145.498 124.756,145.419 124.535,145.281 C124.315,145.143 124.133,144.951 124.007,144.723 C123.881,144.496 123.815,144.24 123.815989,143.98 C123.815989,143.72 123.882,143.464 124.008,143.237 C126.627,138.128 129.586,133.201 132.865,128.489 C133.029,128.266 133.247,128.088 133.499,127.974 C133.752,127.859 134.029,127.812 134.305,127.836 C134.581,127.861 134.846,127.956 135.075,128.113 C135.303,128.27 135.487,128.483 135.608,128.732 C143.695,146.22 139.28,143.44 142.129,144.11 C142.253,144.124 142.373,144.161 142.483,144.221 C142.593,144.28 142.69,144.361 142.768,144.458 C142.846,144.555 142.905,144.667 142.94,144.786 C142.976,144.906 142.987,145.032 142.974,145.156 C142.961,145.28 142.923,145.4 142.864,145.51 C142.804,145.619 142.723,145.716 142.626,145.795 C142.529,145.873 142.417,145.932 142.298,145.967 C142.178,146.002 142.053,146.014 141.928,146.001 L141.155,145.94 C141.063,146.064 140.943,146.164 140.804,146.231 C140.665,146.298 140.512,146.33 140.357,146.324 C140.203,146.318 140.053,146.274 139.919,146.196 C139.786,146.119 139.674,146.01 139.592,145.879 Z M133.882,132.613 C132.422,134.865 130.679,137.537 127.868,142.629 C129.872,142.735 136.551,143.242 138.676,143.582 C138.079,142.051 134.328,133.601 133.882,132.613 Z" id="Shape" fill="#38A1FF"></path>
            <path d="M325.509,258.504 C323.794,258.013 322.083,257.573 320.374,257.184 C321.2,252.339 321.226,250.695 321.884,247.265 C321.94,246.966 321.889,246.657 321.741,246.392 C318.346,241.219 316.632,235.123 316.836,228.938 C317.553,228.226 318.205,227.452 318.784,226.623 C319.341,225.765 321.818,222.117 321.834,222.096 C322.362,221.129 323.375,219.218 322.483,218.579 C321.723,217.94 319.941,219.574 319.701,219.841 C318.811,220.883 318.009,221.996 317.303,223.17 C316.369,224.402 315.641,225.778 315.149,227.244 C307.757,228.165 299.359,233.207 292.994,237.012 C290.142,232.211 288.802,226.663 289.15,221.09 C292.695,216.084 296.55,211.306 300.693,206.784 C301.437,205.564 302.556,204.896 301.851,204.001 C301.199,203.272 300.326,203.94 298.947,204.936 C294.112,208.927 290.089,213.812 287.099,219.324 C286.887,219.392 286.689,219.5 286.518,219.643 C278.688,226.409 272.4,230.686 268.83,241.684 C267.723,245.749 267.31,249.972 267.608,254.174 C252.71,252.691 237.728,252.233 222.768,252.804 C222.529,252.826 222.298,252.901 222.091,253.023 C221.884,253.144 221.707,253.31 221.571,253.507 C221.435,253.705 221.345,253.93 221.306,254.167 C221.266,254.403 221.28,254.646 221.345,254.876 C222.913,259.687 227.889,274.676 229.711,280.025 C217.039,279.394 207.535,286.171 200.901,296.992 C198.154,301.4 196.221,306.264 195.193,311.354 C195.125,311.591 195.151,311.845 195.264,312.064 C195.377,312.283 195.57,312.45 195.803,312.531 C196.04,312.605 196.296,312.583 196.517,312.469 C196.737,312.354 196.904,312.158 196.98,311.922 C204.087,295.166 212.474,282.618 230.989,282.248 C232.169,282.776 235.424,280.601 245.804,282.058 C264.326,284.592 277.183,293.724 291.27,289.392 C291.39,289.551 291.557,289.667 291.748,289.724 C291.939,289.78 292.143,289.774 292.33,289.705 C292.516,289.637 292.676,289.51 292.786,289.344 C292.895,289.178 292.948,288.981 292.936,288.782 C293.161,288.7 293.364,288.639 293.546,288.558 C293.781,288.458 293.967,288.27 294.066,288.035 C294.164,287.8 294.167,287.536 294.074,287.298 C293.972,287.071 293.788,286.89 293.558,286.792 C293.329,286.695 293.071,286.687 292.836,286.77 L292.49,286.913 C290.161,276.537 287.265,266.297 283.815,256.239 C283.717,255.952 283.535,255.701 283.293,255.52 C283.05,255.339 282.758,255.235 282.455,255.222 C278.168,254.958 273.878,254.649 269.585,254.325 C269.538,250.322 270.183,246.341 271.491,242.558 C274.488,234.374 279.298,229.664 286.011,224.234 C286.094,229.93 287.931,235.461 291.273,240.074 C291.5,240.395 291.84,240.617 292.225,240.697 C292.61,240.776 293.01,240.706 293.345,240.502 C299.805,236.613 306.316,232.426 313.782,230.588 C314.093,236.596 316.054,242.402 319.45,247.368 C319.027,250.647 318.79,254.346 318.457,256.751 C309.922,255.299 301.297,254.437 292.643,254.172 C290.235,254.203 287.837,254.496 285.491,255.045 C285.245,255.072 285.019,255.192 284.86,255.382 C284.701,255.571 284.622,255.815 284.639,256.062 C284.677,256.312 284.81,256.539 285.01,256.694 C285.211,256.849 285.464,256.92 285.716,256.893 C290.6,256.893 315.548,258.929 325.147,260.325 C325.268,260.352 325.394,260.355 325.517,260.332 C325.639,260.31 325.756,260.263 325.86,260.194 C325.964,260.126 326.054,260.037 326.123,259.934 C326.192,259.83 326.24,259.714 326.264,259.592 C326.297,259.349 326.238,259.102 326.098,258.9 C325.959,258.699 325.748,258.557 325.509,258.504 Z" id="Path" fill="#191919"></path>
            <path d="M80.1179,124.806 C80.8838,124.686 81.6676,124.758 82.3983,125.017 C83.129,125.276 83.7835,125.714 84.3023,126.29 C84.459,126.483 84.6857,126.606 84.933,126.633 C85.1802,126.66 85.428,126.588 85.6223,126.432 C87.103,125.21 82.911,120.754 79.5688,123.019 C78.3702,123.832 78.9458,124.893 80.1179,124.806 Z" id="Path" fill="#191919"></path>
            <path d="M133.066,39.441 C135.041,39.472 137.017,39.364 138.977,39.116 C139.856,38.976 142.348,38.504 142.227,37.45 C142.227,36.434 140.643,36.291 138.816,36.151 C136.842,36.116 134.868,36.19 132.902,36.373 C132.422,36.471 130.465,37.078 130.465,37.999 C130.465,38.881 132.509,39.404 133.066,39.441 Z" id="Path" fill="#191919"></path>
            <path d="M133.227,11.5309 C133.736,12.0774 136.366,14.0574 136.844,14.4164 C142.337,18.537 143.626,15.5754 138.773,11.9374 C138.105,11.3883 135.912,9.5905 135.117,9.1126 C134.523,8.7589 132.709,8.0038 132.152,8.7483 C131.595,9.4928 132.91,11.2141 133.227,11.5309 Z" id="Path" fill="#191919"></path>
            <path d="M159.978,3.1044 C160.011,4.6842 160.161,6.2593 160.427,7.8168 C161.676,11.9828 163.434,11.0588 163.434,7.2704 C163.389,5.7868 163.253,4.3074 163.027,2.8404 C163.027,2.5764 162.182,0.7469 161.258,0.8499 C160.472,0.9449 160.018,2.8404 159.978,3.1044 Z" id="Path" fill="#191919"></path>
            <path d="M224.032,41.881 C225.206,41.299 226.421,40.803 227.668,40.398 C235.955,37.33 245.657,38.856 248.592,28.33 C248.667,28.096 248.653,27.841 248.551,27.616 C248.45,27.392 248.269,27.213 248.043,27.113 C246.552,26.585 247.146,28.671 244.001,31.459 C239.305,35.902 230.701,34.915 225.92,37.919 C224.767,38.578 223.73,39.423 222.852,40.419 C222.664,40.577 222.546,40.803 222.522,41.048 C222.498,41.293 222.572,41.537 222.726,41.728 C222.881,41.919 223.104,42.043 223.348,42.071 C223.592,42.1 223.838,42.032 224.032,41.881 Z" id="Path" fill="#191919"></path>
            <path d="M228.415,54.507 C229.505,53.948 230.649,53.498 231.828,53.166 C240.276,50.467 248.291,52.843 253.199,44.757 C253.336,44.546 253.389,44.292 253.348,44.044 C253.307,43.796 253.175,43.572 252.977,43.416 C251.639,42.503 251.884,44.57 247.734,46.523 C241.044,49.768 232.451,47.051 227.237,53.044 C227.052,53.206 226.935,53.432 226.908,53.676 C226.882,53.921 226.948,54.166 227.095,54.364 C227.172,54.46 227.267,54.54 227.375,54.6 C227.484,54.659 227.602,54.696 227.725,54.709 C227.848,54.723 227.972,54.712 228.09,54.677 C228.208,54.642 228.319,54.584 228.415,54.507 Z" id="Path" fill="#191919"></path>
            <path d="M92.101,75.343 C102.331,76.737 105.678,88.279 116.6,81.943 C116.819,81.836 116.988,81.65 117.073,81.421 C117.157,81.193 117.15,80.941 117.052,80.718 C116.955,80.495 116.776,80.318 116.551,80.225 C116.327,80.131 116.074,80.128 115.848,80.216 C104.989,84.163 102.159,71.119 92.04,73.495 C91.907,73.479 91.772,73.493 91.644,73.535 C91.516,73.576 91.399,73.645 91.3,73.736 C91.202,73.827 91.124,73.938 91.072,74.062 C91.02,74.186 90.995,74.32 91,74.454 C91.004,74.588 91.037,74.72 91.097,74.84 C91.157,74.96 91.242,75.066 91.347,75.15 C91.451,75.235 91.573,75.296 91.703,75.329 C91.833,75.362 91.969,75.367 92.101,75.343 Z" id="Path" fill="#38A1FF"></path>
            <path d="M96.483,65.431 C97.569,65.684 98.625,66.052 99.633,66.53 C106.333,69.151 110.602,78.233 119.623,74.27 C119.749,74.235 119.867,74.175 119.969,74.093 C120.072,74.011 120.156,73.909 120.217,73.793 C120.278,73.677 120.315,73.55 120.325,73.419 C120.335,73.289 120.318,73.158 120.275,73.034 C120.233,72.91 120.165,72.796 120.077,72.699 C119.988,72.603 119.881,72.525 119.762,72.471 C119.642,72.418 119.513,72.389 119.382,72.388 C119.251,72.386 119.121,72.411 119,72.462 C109.81,74.624 105.882,61.77 96.431,63.544 C96.188,63.561 95.961,63.672 95.798,63.852 C95.635,64.033 95.548,64.269 95.555,64.513 C95.561,64.756 95.662,64.987 95.835,65.158 C96.008,65.329 96.24,65.427 96.483,65.431 Z" id="Path" fill="#38A1FF"></path>
            <path d="M315.867,309.245 C310.961,307.829 305.897,307.031 300.793,306.869 C287.121,305.895 274.179,307.661 263.007,316.133 C257.514,314.832 252.357,312.389 247.872,308.962 C233.771,315.768 212.889,329.053 208.298,333.971 C206.964,335.887 206.235,338.158 206.205,340.492 C204.375,352.966 215.936,358.774 226.622,359.912 C271.259,364.688 316.897,358.045 374.008,354.022 C387.111,353.106 395.015,333.504 398.468,322.857 C405.253,301.771 408.423,271.886 389.347,255.471 C384.656,251.85 379.339,249.124 373.662,247.427 C367.462,244.968 360.686,244.34 354.14,245.618 C353.429,245.803 352.677,245.925 351.946,246.189 C352.474,256.976 350.219,271.034 341.362,278.397 C337.866,281.002 333.76,282.666 329.437,283.23 C328.255,288.199 326.213,292.923 323.402,297.188 C321.229,301.209 318.975,306.024 315.258,308.867 L315.867,309.245 Z" id="Path" fill="#38A1FF"></path>
            <path d="M377.841,256.908 C384.212,295.877 352.046,316.992 314.236,327.08 C284.705,334.984 261.644,334.226 252.254,334.799 C238.33,335.628 222.533,338.392 217.406,351.431 C217.189,351.779 217.823,352.083 217.976,351.674 C223.076,339.002 238.705,336.496 252.309,335.728 C262.196,335.187 285.256,335.924 314.494,328.088 C353.152,317.808 385.431,296.194 378.446,256.808 C378.29,256.328 377.72,256.586 377.841,256.908 Z" id="Path" fill="#191919"></path>
            <path d="M348.801,173.594 C349.423,172.609 349.811,171.495 349.938,170.336 C350.064,169.178 349.926,168.006 349.532,166.91 C349.138,165.813 348.5,164.821 347.666,164.008 C346.832,163.194 345.824,162.582 344.717,162.216 C344.685,160.92 344.222,159.672 343.401,158.668 C342.581,157.664 341.45,156.962 340.187,156.672 C339.205,151.447 331.346,148.871 325.54,154.335 C320.704,150.903 311.049,153.694 308.38,163.417 C308.311,163.686 308.315,163.969 308.391,164.236 C308.467,164.504 308.613,164.746 308.814,164.938 C309.015,165.13 309.263,165.265 309.534,165.33 C309.804,165.394 310.087,165.386 310.352,165.305 C311.029,165.103 311.678,164.816 312.282,164.452 C313.616,166.493 315.588,168.036 317.89,168.84 C317.805,169.127 317.731,169.415 317.671,169.703 C316.966,169.344 316.181,169.173 315.391,169.206 C314.601,169.239 313.833,169.476 313.161,169.893 C311.881,170.727 312.705,171.965 313.711,171.68 C314.378,171.49 313.948,170.59 317.407,172.309 C317.415,174.639 318.229,176.894 319.711,178.692 C320.011,179.011 320.338,179.303 320.688,179.566 C319.498,181.106 318.841,182.99 318.815,184.936 C318.79,186.881 319.397,188.782 320.546,190.353 C319.853,191.497 319.453,192.794 319.379,194.129 C319.305,195.464 319.559,196.797 320.121,198.011 C320.682,199.224 321.533,200.282 322.599,201.09 C323.664,201.898 324.912,202.432 326.232,202.645 C328.294,203.007 329.714,202.117 331.333,202.138 C331.967,202.151 332.594,201.992 333.145,201.677 C333.696,201.361 334.151,200.902 334.461,200.348 C337.613,203.373 339.757,201.404 342.201,201.203 C347.418,200.842 350.087,193.36 347.442,188.22 C351.082,184.294 352.466,177.488 348.801,173.594 Z M336.657,194.487 C336.58,194.583 336.484,194.663 336.376,194.722 C336.268,194.781 336.149,194.818 336.026,194.831 C335.904,194.844 335.78,194.833 335.662,194.798 C335.543,194.763 335.433,194.705 335.337,194.627 C335.144,194.467 335.02,194.239 334.99,193.99 C334.959,193.742 335.025,193.491 335.174,193.289 C335.885,192.355 336.266,191.211 336.255,190.038 C336.244,188.864 335.842,187.727 335.113,186.807 C334.944,186.551 334.854,186.251 334.854,185.944 C334.854,185.637 334.944,185.337 335.113,185.081 C335.924,183.636 336.171,181.942 335.808,180.325 C335.444,178.708 334.495,177.283 333.144,176.324 C332.864,176.099 332.667,175.787 332.583,175.438 C332.498,175.089 332.531,174.722 332.676,174.394 C333.633,172.782 333.955,170.871 333.579,169.034 C333.204,167.198 332.157,165.567 330.644,164.46 C330.423,164.338 330.259,164.134 330.189,163.892 C330.118,163.65 330.147,163.39 330.269,163.169 C330.39,162.948 330.594,162.784 330.836,162.714 C331.079,162.644 331.339,162.673 331.56,162.794 C336.473,164.682 337.896,169.566 336.026,174.619 C337.581,176.024 338.626,177.905 338.997,179.967 C339.369,182.029 339.046,184.156 338.08,186.015 C338.732,187.405 338.945,188.959 338.691,190.472 C338.438,191.985 337.731,193.386 336.663,194.487 L336.657,194.487 Z" id="Shape" fill="#191919"></path>
            <path d="M500.19,188.486 L439.794,189.014 C450.354,184.935 453.522,176.226 443.625,168.113 C436.682,162.722 428.037,159.996 419.258,160.428 C419.231,159.227 419.157,158.052 419.049,156.877 C425.401,155.968 431.421,153.469 436.55,149.612 C445.526,142.455 452.807,128.025 453.108,114.326 C453.165,112.953 453.083,111.579 452.865,110.223 C452.825,109.975 452.689,109.752 452.485,109.604 C452.282,109.455 452.029,109.393 451.78,109.43 C451.531,109.467 451.307,109.601 451.157,109.802 C451.006,110.004 450.94,110.256 450.975,110.506 C451.108,111.742 451.108,112.989 450.975,114.225 C449.987,125.693 443.319,140.216 434.559,147.114 C431.225,149.603 427.477,151.48 423.487,152.658 C417.307,154.261 410.865,154.593 404.553,153.633 C402.552,153.437 396.739,152.796 395.091,152.489 C394.632,151.246 391.699,143.12 390.677,140.229 C395.026,139.265 399.215,137.682 403.114,135.527 C410.818,132.019 418.247,127.937 425.34,123.317 C425.55,123.183 425.706,122.979 425.78,122.741 C425.854,122.502 425.841,122.246 425.744,122.016 C425.614,121.796 425.404,121.635 425.158,121.567 C424.912,121.499 424.648,121.529 424.424,121.652 C423.202,122.211 422.001,122.753 420.799,123.333 C420.717,119.173 420.956,115.012 421.515,110.888 C424.683,110.545 437.809,108.98 441.223,108.634 C455.782,107.203 455.315,108.177 456.234,106.968 C456.352,106.749 456.424,106.508 456.445,106.26 C456.466,106.012 456.437,105.762 456.358,105.526 C453.688,98.219 449.478,91.572 444.011,86.037 C438.545,80.502 431.951,76.208 424.678,73.448 C421.694,72.289 418.597,71.449 415.438,70.94 C415.278,70.613 415.009,70.351 414.677,70.201 C412.841,69.29 410.954,68.483 409.028,67.782 C408.758,67.694 408.47,67.677 408.193,67.734 C407.915,67.791 407.657,67.92 407.444,68.107 C401.273,73.459 394.824,78.482 388.124,83.155 C386.239,79.124 384.776,74.91 383.758,70.578 C383.667,70.19 383.431,69.851 383.098,69.632 C382.765,69.413 382.36,69.33 381.968,69.401 C378.711,69.925 375.519,70.792 372.445,71.988 C367.951,73.211 363.731,75.28 360.011,78.084 C350.84,85.304 345.055,97.583 342.56,108.943 C342.472,109.336 342.541,109.748 342.754,110.09 C342.967,110.432 343.306,110.676 343.698,110.77 C347.535,111.601 351.437,112.104 355.359,112.272 C354.765,117.288 354.393,120.72 353.878,128.479 L342.97,128.6 C343.001,128.323 343.939,122.066 344.192,120.812 C345.063,116.852 346.568,113.016 345.33,112.401 C343.424,111.49 341.386,117.66 341.106,120.202 C340.528,122.975 340.482,125.831 340.969,128.621 C336.982,128.663 326.372,128.777 322.489,128.447 C322.27,128.435 322.051,128.48 321.855,128.579 C321.659,128.677 321.492,128.825 321.371,129.008 C321.249,129.19 321.178,129.402 321.163,129.62 C321.149,129.839 321.191,130.058 321.287,130.255 C323.199,133.951 328.724,144.659 329.577,146.246 C329.705,146.457 329.909,146.61 330.148,146.675 C330.386,146.739 330.64,146.709 330.857,146.591 C331.074,146.473 331.237,146.277 331.313,146.042 C331.388,145.807 331.371,145.552 331.264,145.33 C329.329,141.742 327.003,136.378 324.437,131.111 C338.329,132 373.142,131.227 384.267,131.618 C386.561,138.057 393.346,156.869 394.666,160.394 C377.834,160.011 372.142,158.973 365.663,158.699 C361.236,158.501 356.368,159.781 352.154,159.169 C351.862,159.128 351.565,159.172 351.297,159.294 C351.029,159.417 350.802,159.613 350.642,159.861 C350.482,160.108 350.396,160.396 350.394,160.69 C350.392,160.985 350.474,161.274 350.631,161.524 C352.108,163.788 353.052,166.358 353.392,169.04 C353.614,173.364 351.138,173.343 351.951,175.093 C353.941,179.146 355.438,183.671 352.315,186.899 C351.125,188.087 352.645,189.592 352.051,193.56 C351.523,196.855 349.997,196.541 349.554,200.59 C349.34,202.422 349.63,204.996 349.451,206.38 C349.29,207.211 349.126,208.001 349.005,208.819 C348.943,209.215 349.03,209.62 349.251,209.955 C349.472,210.29 349.809,210.53 350.198,210.629 C350.586,210.728 350.998,210.679 351.352,210.491 C351.706,210.302 351.977,209.989 352.112,209.611 C353.258,206.33 350.422,211.879 358.693,186.424 C364.501,188.9 370.824,188.459 380.188,188.908 C379.654,205.33 381.521,221.742 385.732,237.624 C385.799,237.89 385.941,238.131 386.142,238.319 C383.96,239.717 381.658,240.917 379.262,241.904 C376.382,243.154 373.405,244.167 370.36,244.932 C364.875,243.314 359.065,243.138 353.493,244.422 C353.083,233.801 350.853,225.15 342.98,217.27 C342.81,217.086 342.575,216.978 342.325,216.968 C342.075,216.959 341.832,217.049 341.648,217.218 C341.465,217.388 341.356,217.624 341.347,217.874 C341.337,218.123 341.427,218.367 341.597,218.55 C344.481,221.943 346.694,225.853 348.12,230.071 C352.162,242.086 352.608,271.205 336.768,279.885 C332.347,281.711 327.6,282.613 322.817,282.536 C318.035,282.459 313.318,281.404 308.959,279.437 C305.315,277.518 301.548,275.842 297.683,274.421 C295.489,273.71 293.195,273.161 291.02,272.369 C290.901,272.318 290.773,272.291 290.643,272.29 C290.514,272.29 290.385,272.316 290.266,272.366 C290.147,272.417 290.039,272.491 289.949,272.585 C289.86,272.678 289.79,272.789 289.745,272.91 C289.699,273.032 289.679,273.161 289.685,273.29 C289.691,273.42 289.723,273.547 289.78,273.663 C289.836,273.78 289.916,273.883 290.014,273.968 C290.112,274.053 290.226,274.117 290.349,274.157 C292.543,275.03 294.779,275.701 296.973,276.533 C305.297,279.492 308.956,284.717 322.246,285.575 C324.057,285.706 325.875,285.706 327.687,285.575 C324.917,293.636 320.434,301.002 314.545,307.164 C299.373,300.485 274.417,306.372 263.329,314.211 C237.721,303.886 231.271,286.3 208.76,303.244 C208.575,303.397 208.456,303.615 208.428,303.854 C208.399,304.092 208.463,304.332 208.606,304.525 C208.749,304.717 208.961,304.848 209.197,304.889 C209.434,304.93 209.677,304.879 209.877,304.746 C215.157,300.934 221.493,298.146 227.916,299.363 C233.827,300.493 239.223,304.477 245.467,308.447 C240.994,310.33 236.648,312.498 232.454,314.939 C219.601,322.732 207.579,331.819 196.576,342.06 C194.2,344.146 185.436,351.403 182.114,354.22 C178.284,351.213 174.807,348.275 171.267,344.945 C187.273,328.688 179.96,336.218 188.113,327.482 C203.939,310.586 205.352,307.875 207.007,305.726 C207.157,305.535 207.229,305.294 207.206,305.053 C207.184,304.811 207.069,304.587 206.886,304.428 C206.703,304.268 206.466,304.185 206.224,304.196 C205.981,304.207 205.752,304.31 205.584,304.485 C204.301,305.805 202.841,307.046 201.521,308.366 C196.191,313.825 181.014,330.278 169.841,343.591 C161.757,335.983 160.691,334.351 157.457,333.62 C156.545,333.266 155.538,333.245 154.613,333.56 C153.687,333.876 152.903,334.509 152.399,335.346 C152.174,336.127 152.108,336.945 152.206,337.751 C152.304,338.558 152.564,339.336 152.969,340.04 C154.352,342.822 156.169,345.366 158.352,347.578 C161.858,351.596 170.216,361.284 175.58,360.965 C178.59,360.322 181.245,358.567 183.015,356.049 C183.318,355.746 204.586,339.182 204.863,338.969 C204.805,339.396 204.75,339.824 204.689,340.244 C202.73,352.937 213.705,360.089 226.509,361.493 C271.053,366.203 316.976,359.724 374.138,355.579 C387.559,354.653 395.91,336.157 399.98,323.342 C407.57,299.672 409.22,270.627 390.329,254.351 C387.332,251.775 386.865,252.313 388.259,252.115 C392.068,251.635 395.79,250.616 399.313,249.09 C402.863,247.094 403.317,243.247 402.974,239.221 C405.065,238.091 402.124,238.091 401.813,189.698 C443.538,191.131 396.065,190.648 468.789,191.369 C468.642,195.624 468.763,293.777 468.763,300.44 C468.77,300.691 468.873,300.93 469.051,301.107 C469.229,301.283 469.469,301.385 469.72,301.39 C469.971,301.395 470.214,301.303 470.399,301.134 C470.584,300.965 470.697,300.73 470.714,300.48 C470.814,296.884 471.485,279.009 471.588,272.953 C471.728,265.133 471.588,212.354 471.424,206.889 C471.332,204.461 470.896,195.228 470.722,191.387 L498.643,191.651 C498.643,197.032 499.192,317.843 499.247,330.037 C487.689,329.317 484.376,329.723 414.601,330.077 C414.471,330.07 414.342,330.09 414.22,330.135 C414.098,330.18 413.987,330.249 413.893,330.338 C413.799,330.427 413.724,330.535 413.672,330.654 C413.621,330.773 413.595,330.902 413.595,331.031 C413.595,331.161 413.621,331.289 413.672,331.409 C413.724,331.528 413.799,331.635 413.893,331.725 C413.987,331.814 414.098,331.883 414.22,331.928 C414.342,331.973 414.471,331.993 414.601,331.986 C433.041,332.25 476.25,332.535 500.208,331.986 C500.736,331.986 501.486,331.566 501.486,331.041 L501.486,190.065 C501.467,189.199 501.061,188.486 500.19,188.486 Z M392.01,84.433 C392.274,84.245 405.282,74.287 408.872,71.125 C410.501,71.745 411.8,72.35 412.143,72.508 C410.332,78.411 408.125,86.624 402.594,90.426 C401.871,90.989 401.021,91.368 400.119,91.531 C399.217,91.693 398.289,91.635 397.414,91.36 C395.386,90.764 393.42,89.974 391.543,89.003 C390.576,88.424 389.647,87.786 388.76,87.091 C388.76,85.903 387.224,87.68 392.01,84.433 Z M379.922,72.933 L381.099,72.73 C382.248,77.342 383.89,81.817 385.996,86.078 C386.152,86.378 386.401,86.62 386.707,86.767 L382.483,89.734 C380.845,90.92 378.895,91.598 376.875,91.685 C373.411,91.455 375.027,85.027 376.165,81.748 C377.221,78.744 378.662,75.837 379.922,72.933 Z M386.96,129.564 C386.846,129.272 386.652,129.018 386.4,128.831 C386.149,128.644 385.849,128.532 385.537,128.508 C380.18,128.244 368.142,128.323 355.879,128.471 C356.89,119.354 358.486,110.312 360.658,101.4 C361.014,98.269 361.027,97.794 360.233,97.562 C359.354,97.298 359.063,98.135 358.445,99.431 C358.2,100.041 357.896,100.65 357.693,101.3 C356.819,103.941 356.171,106.651 355.755,109.402 C352.875,109.043 348.828,108.731 345.934,108.106 C347.16,103.072 349.031,98.217 351.499,93.662 C358.543,80.708 365.09,77.743 376.622,72.917 C374.174,77.643 372.644,82.791 372.115,88.087 C372.115,95.215 378.14,95.568 383.697,91.482 L385.838,89.829 C384.934,94.845 384.336,99.912 384.048,105.001 C384.048,106.524 384.109,108.029 384.209,109.553 C384.209,109.795 384.302,110.029 384.469,110.205 C384.636,110.381 384.864,110.486 385.107,110.499 C385.349,110.512 385.587,110.432 385.772,110.274 C385.957,110.117 386.074,109.894 386.099,109.653 C386.342,108.23 386.606,106.849 386.87,105.429 C387.121,103.789 388.7,92.334 388.7,90.154 C388.626,89.071 388.301,89.404 390.379,90.814 C392.364,92.051 394.476,93.072 396.678,93.86 C403.642,95.988 408.774,89.716 411.792,83.216 C413.181,79.85 414.355,76.4 415.306,72.886 C416.335,73.116 417.349,73.411 418.342,73.767 C433.675,79.351 445.634,88.612 452.553,104.605 C442.191,105.284 431.871,106.498 421.634,108.243 C422.645,101.696 420.293,102.021 419.823,103.52 C419.136,107.395 418.742,111.316 418.645,115.25 C418.608,117.847 418.775,121.562 418.804,124.273 C417.624,124.83 392.441,137.125 389.975,138.265 C388.993,135.443 387.992,132.557 386.96,129.564 Z M362.762,170.716 C363.097,170.349 363.406,169.924 363.878,170.085 C364.351,170.246 364.43,170.721 364.528,171.244 C364.692,172.128 364.67,172.664 363.675,174.372 C362.962,175.6 361.885,175.141 361.827,173.926 C361.711,173.355 361.736,172.764 361.9,172.205 C362.064,171.645 362.361,171.134 362.767,170.716 L362.762,170.716 Z M380.36,186.01 C373.657,185.822 365.275,186.743 359.306,184.494 C359.934,182.514 360.541,180.534 361.099,178.557 C363.006,178.927 364.948,179.097 366.891,179.064 C371.624,179.594 376.394,179.703 381.147,179.388 C380.814,181.471 380.553,183.689 380.36,186.01 Z M385.215,169.642 C383.993,171.788 382.82,175.45 381.434,175.067 C380.4,174.803 380.664,172.556 380.888,171.754 C381.684,168.959 383.212,166.428 385.315,164.422 C385.999,163.736 389.119,161.703 389.803,162.957 C390.35,163.96 389.244,164.092 387.221,166.798 C386.48,167.688 385.813,168.636 385.226,169.634 L385.215,169.642 Z M388.383,256.569 C406.121,271.913 404.191,300.021 396.937,322.41 C393.415,333.562 385.611,351.638 373.9,352.456 C320.736,356.152 271.265,363.114 226.836,358.349 C216.091,357.224 206.083,351.577 207.759,340.735 C207.836,339.065 208.198,337.42 208.829,335.872 C220.702,325.948 233.742,317.512 247.66,310.75 C251.523,313.526 255.841,315.607 260.42,316.898 C258.849,318.432 255.91,321.603 256.987,322.677 C257.629,323.224 258.307,322.983 260.034,321.518 C263.751,318.35 267.27,312.341 281.244,309.205 C287.624,307.858 294.165,307.441 300.664,307.967 C311.292,308.696 312.808,308.817 317.855,312.568 C323.362,316.895 323.663,317.416 324.519,316.692 C325.556,315.536 322.085,312.083 321.066,311.106 C319.901,310.06 318.625,309.148 317.259,308.384 C320.164,305.216 322.545,301.605 324.313,297.687 C326.77,293.843 328.708,289.691 330.076,285.34 C347.764,282.752 353.614,265.091 353.535,247.163 C360.091,245.62 366.966,246.174 373.19,248.747 C378.687,250.421 383.839,253.067 388.401,256.561 L388.383,256.569 Z M397.995,246.716 C393.056,248.322 387.93,249.279 382.744,249.565 C380.446,248.475 378.094,247.506 375.695,246.661 C380.391,245.093 384.687,242.514 388.28,239.108 C389.072,238.485 386.39,238.728 400.952,239.372 C400.952,242.455 400.643,245.296 398.014,246.708 L397.995,246.716 Z M414.759,186.981 L401.76,186.617 C401.76,184.287 401.76,181.962 401.76,179.642 C405.538,177.812 408.951,174.927 412.832,173.364 C417.117,171.598 419.02,172.411 423.954,173.786 C427.774,174.945 428.397,175.133 428.791,174.378 C429.282,173.504 428.358,172.857 426.922,171.899 C424.528,170.538 421.885,169.675 419.149,169.362 C419.168,167.44 419.226,165.502 419.247,163.57 C427.286,163.18 435.201,165.668 441.571,170.587 C446.732,174.774 447.379,178.507 445.23,181.477 C442.044,184.959 437.663,187.113 432.959,187.512 C427.328,188.367 420.644,187.174 414.778,186.973 L414.759,186.981 Z" id="Shape" fill="#191919"></path>
        </g>
    </g>
</svg>