<svg xmlns="http://www.w3.org/2000/svg" xmlns:xlink="http://www.w3.org/1999/xlink" width="621" height="601" viewBox="0 0 621 601">
  <defs>
    <rect id="rect-1" width="621" height="601" x="0" y="0"/>
    <mask id="mask-2" maskContentUnits="userSpaceOnUse" maskUnits="userSpaceOnUse">
      <rect width="621" height="601" x="0" y="0" fill="black"/>
      <use fill="white" xlink:href="#rect-1"/>
    </mask>
  </defs>
  <g transform="matrix(-1 0 0 1 621 0)">
    <use fill="none" xlink:href="#rect-1"/>
    <g mask="url(#mask-2)">
      <path fill="rgb(247,247,255)" fill-rule="evenodd" d="M48.05446396 6.88134928S-12.06545287 107.20521531 63.688512 172.93563636c35.52097043 30.8206603 102.37317006 44.81907177 148.65546211 47.40711005 54.79378004 3.06538756 105.49538817 23.18882297 158.18281886 38.42374163 59.38527726 17.17307177 126.0939926 43.50204785 157.8097597 98.19592344C569 427.08674641 542.87438078 529.91238278 472.83682994 574.24260288c-69.37178373 43.91038277-169.75913123 29.7394354-247.8949353 23.70067942-95.07842884-7.34427752-189.4451756-21.57848804-282.9969316-39.20590431-5.11378005-.96620096-10.23329945-1.93240191-15.33560075-2.95611483L-71.58847505 4s120.84820703 1.73111005 119.642939 2.88134928z"/>
      <g>
        <path fill="rgb(90,90,223)" fill-rule="evenodd" d="M219.75489834 197.6215598s1.72755083 28.67546412-24.84573938 33.00611484c-.00573937 0-8.82715341-23.01053588 24.84573938-33.00611483z"/>
        <path fill="rgb(22,87,171)" fill-rule="evenodd" d="M204.21831793 301.17864115s8.40243993 27.4792153-16.39738447 37.95789474c-.00573937 0-13.96389095-20.2959713 16.39738447-37.95789474z"/>
        <path fill="rgb(22,87,171)" fill-rule="evenodd" d="M171.51537893 366.67326316s16.0071072-23.77544498 39.77384473-11.00203828c0 0-6.92742144 23.60866029-39.77384473 11.00203828z"/>
        <path fill="rgb(22,87,171)" fill-rule="evenodd" d="M221.70044362 316.00522488s11.9551109 26.1334354-11.23768946 39.8155311c0 0-16.5121719-18.27730143 11.23768946-39.8155311z"/>
        <path fill="rgb(22,87,171)" fill-rule="evenodd" d="M189.7895379 382.3740287s19.16376155-21.29092822 40.93319777-5.32560765c0 0-10.15294824 22.4009091-40.93319778 5.32560766z"/>
        <path fill="rgb(22,87,171)" fill-rule="evenodd" d="M246.55192237 339.24580861s8.20156192 27.54247847-16.67287431 37.83711962c0 0-13.81466728-20.39949282 16.6728743-37.83711962z"/>
        <path fill="rgb(22,87,171)" fill-rule="evenodd" d="M200.66564695 402.95180861s22.73365065-17.40887081 41.2316451 2.27747369c0 0-14.072939 20.14644019-41.2316451-2.27747369z"/>
        <path fill="rgb(22,87,171)" fill-rule="evenodd" d="M264.3669316 370.98666029s3.0476063 28.56619138-23.30184842 34.12184689c0 0-9.86597967-22.58494737 23.30184843-34.1218469z"/>
      </g>
      <g>
        <path fill="rgb(205,212,230)" fill-rule="evenodd" d="M184.18791128 121.14894737V458.8534354c0 4.77349282 4.02329944 8.67280382 8.93620147 8.67280382h207.7135952c4.91290203 0 8.93620148-3.9050622 8.93620148-8.67280382V121.14894737c0-4.77349282-4.02329945-8.67280383-8.93620148-8.67280383h-207.7135952c-4.9186414-.0057512-8.93620147 3.899311-8.93620147 8.67280383z"/>
        <path fill="rgb(255,255,255)" fill-rule="evenodd" d="M403.2654621 127.73981818V433.1800957c0 4.90001914-4.42505545 8.90860287-9.83154343 8.90860287h-192.911756c-5.406488 0-9.82580407-4.00283253-9.82580407-8.90860287V127.7398182c0-4.90001915 4.42505545-8.90860288 9.82580406-8.90860288h192.91749538c2.8008133 0 5.33187616 1.07547369 7.12829945 2.78933014 1.67015711 1.59883254 2.69750462 3.7555311 2.69750462 6.11927273z"/>
        <g opacity=".19">
          <path fill="rgb(202,208,224)" fill-rule="evenodd" d="M403.2654621 127.73981818v34.20236364L190.69061923 342.43772249v-42.61636364l209.8715989-178.1950622c1.67589648 1.59308134 2.70324399 3.7497799 2.70324399 6.11352153z"/>
        </g>
        <g opacity=".19">
          <path fill="rgb(202,208,224)" fill-rule="evenodd" d="M403.2654621 187.7995598v61.1697225L191.706488 428.59639234l-1.01586877-1.12723445v-59.1798086L403.26546211 187.7995598z"/>
        </g>
        <g opacity=".19">
          <path fill="rgb(202,208,224)" fill-rule="evenodd" d="M290.51550832 455.47173206c0 3.46797129 2.89264325 6.27455502 6.46253235 6.27455502 3.56988909 0 6.46253234-2.81233493 6.46253234-6.27455502 0-3.4679713-2.89264325-6.27455503-6.46253234-6.27455503-3.5698891-.0057512-6.46253235 2.80658374-6.46253235 6.27455503z"/>
        </g>
        <g opacity=".19">
          <path fill="rgb(202,208,224)" fill-rule="evenodd" d="M307.53857422 455.47167969c.02294922 5.57861328-4.8326416 10.25439453-10.56054688 10.25439453-5.87695312 0-10.10229492-4.53222656-10.54077148-9.96679688-.0180664-.08789062-.02514648-.18408203-.01965332-.28759765-.00549317-.10351563.00158691-.19921875.01965332-.28759766.45471191-5.63769531 4.97912598-10.22070312 11.05737305-9.93798828 5.56140136.25878906 10.02099609 4.83105469 10.0439453 10.22558594zm-18.88830567 0c.57397461 10.35791015 16.64990235 10.44384765 16.64990235 0 .0057373-10.44433594-16.07592774-10.34667969-16.64990235 0z"/>
        </g>
      </g>
      <g>
        <path fill="rgb(254,160,134)" fill-rule="evenodd" d="M476.0923475 369.42808612c-3.43788354-2.88134928-17.36159889.7476555-17.36159889.7476555l-.94125693 6.88993302c2.89838263 3.4507177 9.32647875-3.43346411 14.03850277.3163158 4.71202403 3.7497799 10.08981516 2.79508133 10.61783734 1.5010622.52802218-1.29401915-2.91560074-6.57361723-6.35348429-9.45496652z"/>
        <g>
          <path fill="rgb(255,255,255)" fill-rule="evenodd" d="M462.10549908 370.03196172c-13.16037893-1.76561722-15.59387246-1.3572823-28.84608134-2.19120574-13.25220887-.83392344-26.91191312-3.58874641-37.53548983-11.5771579-8.67219039-6.52185645-12.51756931-20.53177033-16.86801294-29.98673684-5.1424769-11.16882296-9.25186691-23.02203827-19.3761183-30.81490909-1.98008318-1.52406698-4.79237523-2.05317703-7.34639556-2.8410909-1.44058226-.44284211-5.75085028-2.66855503-7.21439002-2.21996173-.27548983.08626794-10.967939 3.43921531-18.47503697 16.33914833-7.61040665 13.0724689-13.0455915 67.54779904-13.0455915 67.54779904s14.83053605 16.28163636 31.53210721 5.44638278c0 0 1.08474122-30.5043445 8.69514788-32.68404785 2.60567467-.7476555 5.20560998-1.3630335 7.5013586-2.50752153 10.99663585 9.88630622 23.0435767 34.0988421 37.22556376 37.66458373 24.38085028 6.12502392 38.73501849-2.6915598 63.78737523-4.72173206-.01721811-2.49026794-.02295748-4.9690335-.03443622-7.45355024z"/>
          <path fill="rgb(186,206,219)" fill-rule="evenodd" d="M398.11730957 383.1274414c6.22717285 1.56445313 11.77722168 2.17431641 17.01721191 2.17431641 8.3623047 0 15.93249512-1.55273437 24.18566895-3.26123047 7.0192871-1.4375 14.27966309-2.92724609 22.88293457-3.62304687l.87817383-.06884766-.0402832-9.16210937-.82067872-.10888672c-9.14282226-1.22509766-13.11450195-1.40917969-19.12365722-1.6796875-2.65148926-.12060547-5.70483399-.25878906-9.78552246-.51757813-16.0645752-1.00634765-28.17456055-4.73291015-37.0189209-11.38720703-6.4683838-4.85986328-10.24487305-14.22265625-13.57373047-22.48144531-1.02160645-2.54199219-1.99145508-4.94580078-3.00158691-7.1430664-.74621582-1.62158204-1.47509766-3.25488282-2.1982422-4.89404297-4.241333-9.5703125-8.6262207-19.46777344-17.46484374-26.27148438-1.70458985-1.31152344-3.89709473-1.92675781-6.02062989-2.52490234-.54528808-.15527344-1.0904541-.3046875-1.62426757-.4716797-.38452149-.11474608-.98144532-.36816405-1.67016602-.6611328-2.67456055-1.12744141-4.82678223-1.95556641-6.10095215-1.55859375-.45910644.14355468-11.3638916 3.6171875-19.02026367 16.7705078-7.62768555 13.10107423-12.94799805 65.70166017-13.171875 67.93310548l-.04016113.42529297.2869873.31054687c.15490723.17285156 15.57666016 16.75341797 32.7487793 5.60742188l.41906738-.27001954.01721192-.4946289c.4074707-11.53125 2.94421386-30.35498047 8.00634765-31.80419922l1.34301758-.37939453c1.9227295-.53515625 3.90283203-1.08154297 5.72790527-1.90966797 3.696167 3.45654297 7.5357666 8.51171875 11.58776856 13.8491211 7.92041016 10.43261718 16.11047363 21.22753906 25.57470703 23.60253906zm-36.35900879-39.29785156l-.48217773-.43164062-.57385254.28173828c-1.81945801.9086914-3.84545899 1.46679688-5.98620606 2.0649414l-1.35449218.37939454c-7.71948243 2.2084961-9.16003418 28.15820312-9.36669922 33.06396484-14.59521485 9.08691406-27.48010254-3.07128906-29.609375-5.25097656.53955078-5.17041016 5.81396484-54.59033203 12.87915039-66.72558594 7.2890625-12.52001953 17.50512695-15.77539062 17.93554687-15.90771484.7064209-.22460938 3.45581055.92822265 4.72216797 1.45898437l.08740234.0366211c.76330567.31591796 1.42907715.59228515 1.84814454.72460937.55090332.1665039 1.10766601.32763672 1.67004394.48291016 1.95141602.54638672 3.96594238 1.11572265 5.37780762 2.20263672 8.45983887 6.5102539 12.74145508 16.18408203 16.8852539 25.53515625.72888184 1.64501953 1.45776368 3.29003906 2.2097168 4.92333984.98718262 2.1508789 1.95129395 4.53173828 2.96716309 7.05664063 3.42077636 8.48876953 7.30627441 18.11035156 14.19348144 23.29248046 9.14855957 6.88427735 21.59155274 10.73144532 38.04052735 11.76660157 4.09228515.25878906 7.15710449.39697265 9.82006836.51757812 5.77392578.26464844 9.64794921.4375 18.1364746 1.55859375l.02294922 5.7397461c-8.33349609.73632812-15.39868164 2.1796875-22.234375 3.5830078-13.21240234 2.70898438-24.62792968 5.0498047-40.36499023 1.09277344-8.81567383-2.21386718-17.16064453-13.20458984-24.524292-22.90673828-4.2816162-5.63623046-8.32214355-10.96191406-12.29943847-14.5390625z"/>
        </g>
        <path fill="rgb(90,90,223)" fill-rule="evenodd" d="M349.51049805 388.57958984c3.13378906-.90283203 6.26745605-1.7368164 9.37243652-2.51318359 42.23608398-10.57666016 108.3479004 5.87792969 112.7039795 23.49951172 4.35046386 17.63330078-64.37268067 115.75976562-64.37268067 115.75976562h-10.10131836s10.87609863-45.83691406 17.94128418-71.68847656c6.82983398-24.97753906 22.79101562-34.05273437 23.8585205-34.63378906-.32141113.17285156-2.3416748 1.26513672-15.16345214 8.19580078-3.546875 1.91503906-7.375 3.37011719-11.28930664 4.60058594l.02294922.01171875s-46.8963623 20.62353515-92.9720459 10.47265625c-.6829834-.14941406-1.3659668-.32177735-2.0489502-.5-.05163574-.01171875-.09753418-.0288086-.14355469-.04052735-.57958984-.15527343-1.15930175-.32177734-1.73327636-.50585937-.10327149-.03466797-.20654297-.06347656-.30419922-.09814453-.41894531-.13183594-.83789063-.28173828-1.25109863-.43115235-.26403809-.09179687-.52233887-.1899414-.77490235-.28759765-.09179687-.03417969-.17785644-.07470703-.26965332-.109375-35.48083496-14.0727539.4074707-66.02929688.4074707-66.02929688 16.85656739 14.69433594 31.5321045 5.87792969 31.5321045 5.87792969.74035644 2.70263672 2.3474121 5.53808594 4.58569336 8.4194336z"/>
        <path fill="rgb(9,11,60)" fill-rule="evenodd" d="M409.06799316 530.58251953c.36157227 1.56982422 5.43518067 2.35205078 10.1472168 3.24902344 4.70837402.89648437 9.7779541 8.4946289 9.79125977 8.50048828h-33.7072754c-.36157226-8.2241211 1.80786133-17.00634766 1.80786133-17.00634766h10.10131836s1.49804688 3.69238282 1.85961914 5.25683594z"/>
        <path fill="rgb(254,160,134)" fill-rule="evenodd" d="M370.37312384 262.57086124c-10.88184842 0-13.74579482 5.16457417-13.74579482 5.16457417-2.29000924 4.02008612-4.58001848 11.47938756-4.0118207 13.77411483.16644177.67288995.5854159 1.6448421 1.28561922 2.7088134 1.69885398 2.5592823 5.07360444 5.66492823 10.73836414 6.47584689 8.01790204 1.15023923 14.31973198-12.6238756 14.89366913-16.0688421.57393716-3.44496652 1.72181146-12.05450719-9.16003697-12.05450719z"/>
        <path fill="rgb(254,160,134)" fill-rule="evenodd" d="M347.69112754 291.38435407s9.07968577 5.79145454 10.7268854 3.3069378c1.652939-2.47876555 7.42674676-10.74898565 7.42674676-10.74898565l-8.25321626-9.09839234-9.9004159 16.54044019z"/>
        <path fill="rgb(251,188,27)" fill-rule="evenodd" d="M378.58042514 257.65358852c-7.71371534-3.51398086-7.71371534-10.54194259-16.12763401-7.72960766-8.41391867 2.81233493-21.74073937 10.54194258-33.66141405 4.91727273-11.92067468-5.61891866-24.54155268-7.02796172-32.25526802-2.110689-7.71371534 4.91727273-16.12763401 11.94523445-27.34810536 9.84029665-11.22047135-2.110689-16.12763401-4.91727272-18.9341867 3.51398087-2.80655267 8.43125358-2.80655267 29.50938756 26.64790204 31.62007655 29.45445471 2.110689 39.96898336-11.24358852 49.08884473-16.16086124 9.114122-4.91727273 18.0044085 5.63617225 27.91630314 2.67430622 0 0 .83794825-10.40391388 3.63876156-12.51460287 2.80655268-2.110689 2.10634935 2.81233492 5.60736598 3.51398086 3.50675601.70164593 9.114122-4.2156268 11.22047135-5.61891866 2.10634936-1.40329187 3.50675601 0 4.20695934 3.51398086.70020333 3.51398086-1.87103512 8.36799043-1.87103512 8.36799043s7.4784011-6.25730144 6.77819778-13.9869091c-.70020333-7.72960765 2.80655268-6.32631578-4.90716266-9.84029664z"/>
        <g>
          <path fill="rgb(4,44,55)" fill-rule="evenodd" d="M488.62145996 379.0209961c11.66235352-19.59423829 23.33044434-39.18847657 34.99291992-58.78320313 1.0789795-1.80566406 3.89697266-.16064453 2.82373047 1.6508789-6.1583252 10.34619141-12.3223877 20.6982422-18.48071289 31.04492188-3.80529785 6.38964844-7.60473633 12.77929688-11.4099121 19.16845703-2.11779786 3.5600586-3.99462891 8.06347656-6.68640138 11.23242188-1.24291992 1.46923828-1.99414062 1.46533203-3.7322998 1.45654296l-.44018555-.00146484h-85.3272705c-2.10058594 0-2.10058594-3.26660156 0-3.26660156h74.39953613c1.21960449 0 2.52160644-.07373047 3.85083008-.1484375 2.74291992-.15527344 5.60119629-.31640625 8.08703613.1484375.12390137.02246094.23132324.03955078.32751465.05078125.45336914-.87939453 1.11889648-1.75341797 1.59521484-2.55273438zm-.87890625 2.4868164c-.06091308-.0522461-.3092041-.07666016-.56176758.08447266l-.14953613-.01708985c-.06298828.12060547-.12023926.24121094-.171875.3618164.09179688-.1665039.20666504-.27001952.32141113-.34472655.49645996.04882812.62268067-.03173829.56176758-.08447266z"/>
          <path fill="rgb(4,44,55)" fill-rule="evenodd" d="M487.1808133 381.59186603c-.05165434-.0057512-.0975693-.0057512-.15496302-.01725359-.06313309.12077512-.1205268.24155024-.17218115.36232536.09756932-.1610335.21235675-.27030622.32714418-.34507177z"/>
        </g>
      </g>
      <g>
        <path fill="rgb(9,11,60)" fill-rule="evenodd" d="M153.3330499 452.07852632s-73.24012014 2.66855502-76.2532902 14.67705263c-3.00743068 12.0084976 123.48831793 46.29137799 159.51435305 32.65529186 36.02603512-13.63608612 45.69113679-22.0903445 45.69113679-22.0903445s2.70898336-13.77986602-55.11518484-21.11264114c-57.82416821-7.33852632-73.8370148-4.12935885-73.8370148-4.12935885z"/>
        <path fill="rgb(254,160,134)" fill-rule="evenodd" d="M178.89621072 300.55176077c-6.1296488.18978947-11.2721257 5.13006698-13.38421442 10.76623923-3.34031423 8.92585646-1.11343807 29.56114833 6.68062847 32.35047847 7.79406654 2.78933014 16.70157116 2.62254545 20.03614602-4.54344498 5.03342884-10.8122488 3.9314695-36.32455502-11.31804066-38.464-.67724584-.09201914-1.35449168-.12652631-2.0145194-.10927272z"/>
        <path fill="rgb(251,188,27)" fill-rule="evenodd" d="M206.27875231 482.72089952s40.7265804-13.34277512 43.86027726-23.5971579c3.13369686-10.25438277-11.74849353-83.13929186-19.5769963-90.20176076-7.5817098-6.83817225-48.3886414-12.94594258-50.95987985-13.31977033v-.0172536s-.0401756.0057512-.06313309.0115024c-.02295748-.0057512-.06313308-.0115024-.06313308-.0115024v.0172536c-2.57123845.37957894-43.37817006 6.48159808-50.95987986 13.31977033-7.83424214 7.0624689-22.71069316 79.947378-19.5769963 90.20176077 3.13369686 10.25438277 43.86027726 23.5971579 43.86027726 23.5971579l3.9142514-9.81154068-28.78294825-23.1370622s12.08711645-40.03407655 16.127634-30.61936842c4.04051757 9.42045933 11.86902034 41.20156938 11.86902034 41.20156938h47.22354898s7.83424215-31.78686125 11.86902034-41.20156938c4.04051756-9.42045933 16.25390018 30.61936842 16.25390018 30.61936842l-26.92913124 23.64316746 1.93416821 9.30543541z"/>
        <path fill="rgb(209,218,240)" fill-rule="evenodd" d="M139.4609889 482.72089952h80.27658965l15.66274493-44.73280383H123.79824399l15.66274492 44.73280383z"/>
        <path fill="rgb(254,160,134)" fill-rule="evenodd" d="M185.82363216 357.82217225v-18.89267943H173.3749353v18.89267943s6.34774492 6.05600957 12.44869686 0z"/>
        <path fill="rgb(9,11,60)" fill-rule="evenodd" d="M204.7692871 314.23925781c-2.3416748 6.52783203-4.99328612 12.56640625-6.75524901 15.84472656-.6829834 1.27685547-1.5553589 2.52490235-2.35888672 3.57128907l-.18048096.75195312c-1.06970215 4.44238281-2.50714111 10.41210938-.54266357 13.71826172 3.67895507 6.17675781-11.09423829 10.49609375-15.45611573 7.45361328-2.70373535-1.88574219-4.4085083-1.39648437-6.57281494-.77490234-1.32739258.38134766-2.82757568.81201172-4.83709717.77490234-4.14379882-.0805664-7.28326416-12.61816406-6.07220459-23.90771484-.71746826-1.2709961-1.31433105-2.80078125-1.56115722-4.59521484-.8781128-6.34375-2.9385376-8.4716797-2.9385376-15.84472657 0-7.37304687 2.9385376-15.29785156 10.57189941-17.75390625 3.99328614-1.28466797 4.41638184-1.14941406 5.24542237-.8852539.75567627.24121093 1.84875488.58984375 6.29071045.06884765 3.77612304-.4428711 6.50341797-1.33496094 8.82269287-2.09326172 3.4020996-1.11279296 5.92626953-1.93847656 9.5949707-.63867187 6.1697998 2.18554687 6.75524902 5.7397461 3.52392578 8.1953125-1.59790039 1.21435547-2.33410644 1.60449219-2.42138672 2.10742187-.08935547.51416016.49902344 1.1459961 1.53759766 2.8959961.57092285.96191406 1.32263184 1.74316406 2.06030273 2.5102539 1.9173584 1.99267579 3.7401123 3.88720704 2.04907227 8.60107422zm-33.44818114 20.39160156c3.39312744-1.6274414 7.7543335-3.71875 14.50250244-2.09667968 4.76330566 1.14208984 5.26574707.47021484 6.26269531-.86328125.25836182-.34521485.54992676-.73535156.9574585-1.14941406-.1893921-4.20996094-.55096436-9.78857422-1.19378662-13.81445313-.71594239-4.4765625-1.18292237-4.29345703-3.42822266-3.4140625-1.42669678.55908203-3.57147217 1.39990234-6.9543457 1.50488281-.92645264.0288086-1.7942505.046875-2.60748291.06347656-6.8291626.14160157-9.81060791.20361329-11.3850708 5.87744141-.85516358 3.07080078-1.12493897 6.85546875-1.17657471 9.94921875 1.10772705 2.79541016 2.5425415 5.10742188 4.109375 4.37695313.29699707-.13867188.60113525-.28466797.91345215-.43408204z"/>
        <path fill="rgb(254,160,134)" fill-rule="evenodd" d="M175.5731146 335.91586603c0 1.0582201 1.80216266 1.91514832 4.02903882 1.91514832 2.22113678 0 4.02903882-.85692823 4.02903882-1.91514832 0-1.0582201-1.80216267-1.91514833-4.02903882-1.91514833-2.22687616.0057512-4.02903882.86267943-4.02903882 1.91514833z"/>
        <path fill="rgb(34,42,88)" fill-rule="evenodd" d="M83.84647874 464.1215311c-2.4794085.40258373-4.96455637 1.16174163-6.76097966 2.63404785-6.36496304 5.21633493-3.35753235 14.21695694 1.53815157 21.14714832 2.08339186 2.95036364 4.51114602 5.52689952 6.70358595 7.28101436 8.9706377 7.16599043 21.52264325 10.74898564 33.41462107 13.0724689 13.5276987 2.64555024 27.50880776 3.6002488 41.36939002 4.0430909 4.1323475.13227752 30.29240296 2.66280383 32.4618854.24155024l6.80115526-7.59157894c.16644178-.18403828-36.88694085-18.24279426-39.22860443-19.28376077-20.15667283-8.97186603-52.40620148-25.44904306-76.29920518-21.54398086z"/>
        <path fill="rgb(34,42,88)" fill-rule="evenodd" d="M208.06369686 509.37769378l-3.8109427-1.98416268-2.99021257 9.58149282c5.23430684 3.51973206 31.99125693 10.5189378 29.98821627 1.0467177-1.9973013-9.47797129-23.187061-8.64404784-23.187061-8.64404784z"/>
        <path fill="rgb(34,42,88)" fill-rule="evenodd" d="M272.0289926 468.55570335c-23.89874306-3.9050622-56.14827171 12.57211483-76.2934658 21.53247847-2.33592421 1.0409665-39.3950462 19.09972249-39.22860443 19.28376076l6.80115526 7.59157895c2.16374307 2.42125359 28.32379853-.10927273 32.4618854-.24155024 13.86058226-.4485933 27.84169131-1.40329186 41.36939002-4.0430909 11.89197782-2.32348326 24.44398336-5.90647848 33.4088817-13.0724689 2.19243993-1.74836364 4.62019409-4.32489953 6.70358595-7.28101436 4.89568392-6.93019139 7.9031146-15.9250622 1.53815157-21.14714833-1.79068392-1.46080382-4.28157116-2.21421052-6.76097966-2.62254545z"/>
        <path fill="rgb(34,42,88)" fill-rule="evenodd" d="M133.31986137 518.01599043c-2.00304067 9.4722201 24.75390942 2.47876555 29.98821626-1.0467177l-2.99021257-9.58149283-3.8109427 1.98416268c0 .0057512-21.18402033-.82817225-23.187061 8.64404785z"/>
      </g>
      <g>
        <path fill="rgb(209,218,240)" fill-rule="evenodd" d="M234.96413124 315.24606699h61.72694085c3.23126617 0 5.84268022 2.62254545 5.84268022 5.8547177v27.7897799c0 3.23217225-2.61715342 5.8547177-5.84268022 5.8547177h-36.29004621l-15.03141405 15.06238278V354.7452823h-10.39974122c-3.2255268 0-5.84268022-2.62254546-5.84268022-5.8547177v-27.78977991c-.00573937-3.23217225 2.61141405-5.8547177 5.83694085-5.8547177z"/>
        <path fill="rgb(247,246,240)" fill-rule="evenodd" d="M282.97399902 324.7241211c.92980957 0 1.68737793.75927734 1.68737793 1.69091796 0 .93164063-.75183105 1.69091797-1.68737793 1.69091797h-34.2927246c-.92980958 0-1.68737794-.75341797-1.68737794-1.69091797 0-.93164062.75756836-1.69091797 1.68737793-1.69091797h34.29272461zm-34.2927246 9.1040039c-.92980958 0-1.68737794-.75927734-1.68737794-1.69091797 0-.9375.75183106-1.69091797 1.68737793-1.69091797h34.29272461c.92980957 0 1.68737793.75341797 1.68737793 1.69091797 0 .93164063-.75756836 1.69091797-1.68737793 1.69091797h-34.2927246zm-1.68737794 4.03173828c0 .93164063.75756836 1.69091797 1.68737793 1.69091797h34.29272461c.92980957 0 1.68737793-.75927734 1.68737793-1.69091797 0-.93164062-.75756836-1.69091797-1.68737793-1.69091797h-34.2927246c-.93554688 0-1.68737794.75927735-1.68737794 1.69091797zm1.68737793 7.41357422c-.92980957 0-1.68737793-.75927734-1.68737793-1.69091797 0-.93164062.75183106-1.69091797 1.68737793-1.69091797h18.5324707c.9296875 0 1.68737794.75927735 1.68737794 1.69091797 0 .93164063-.75769043 1.69091797-1.68737793 1.69091797h-18.5324707z"/>
      </g>
      <g>
        <path fill="rgb(209,218,240)" fill-rule="evenodd" d="M417.89512015 134.7735311H327.3335767c-4.73498152 0-8.57462107 3.84755024-8.57462107 8.59228708v40.77022967c0 4.74473684 3.83963955 8.59228708 8.57462107 8.59228708h53.24414972l22.0564048 22.10184689v-22.1018469h15.26098892c4.73498151 0 8.57462107-3.84755023 8.57462107-8.59228707v-40.77022967c.00573937-4.74473684-3.83390018-8.59228708-8.57462107-8.59228708z"/>
        <path fill="rgb(255,255,255)" fill-rule="evenodd" d="M415.49609375 153.63769531h-50.31713867c-1.3659668 0-2.47937012-1.11035156-2.47937012-2.48486328 0-1.37451172 1.11340332-2.484375 2.47937012-2.484375h50.31713867c1.3717041 0 2.47937012 1.10986328 2.47937012 2.484375s-1.11340332 2.48486328-2.47937012 2.48486328zm-50.31713867 3.43310547h50.31713867c1.3659668 0 2.47363281 1.10986328 2.47937012 2.484375 0 1.37451172-1.11340332 2.48486328-2.47937012 2.48486328h-50.31713867c-1.3717041 0-2.47937012-1.11572265-2.47937012-2.48486328 0-1.37451172 1.11340332-2.484375 2.47937012-2.484375zm50.31713867 8.39697266h-50.31713867c-1.3659668 0-2.47937012 1.10986328-2.47937012 2.484375 0 1.36914062 1.10766602 2.48486328 2.47937012 2.48486328h50.31713867c1.3659668 0 2.47937012-1.11035156 2.47937012-2.48486328-.0057373-1.37451172-1.11340332-2.484375-2.47937012-2.484375zm-50.31713867 8.39648437h27.1932373c1.3659668 0 2.47937012 1.11572266 2.47937012 2.484375 0 1.37451172-1.11340332 2.48486328-2.47937012 2.48486328h-27.1932373c-1.3717041 0-2.47937012-1.11572265-2.47937012-2.48486328 0-1.37451172 1.11340332-2.484375 2.47937012-2.484375z"/>
        <g>
          <path fill="rgb(255,255,255)" fill-rule="evenodd" d="M324.10231054 178.37910048c0 .81666985.66002772 1.47805741 1.47501848 1.47805741h26.00509242c.81499076 0 1.47501849-.66138756 1.47501849-1.47805741 0-.81666986-.66002773-1.47805742-1.47501849-1.47805742h-26.00509242c-.81499076-.0057512-1.47501848.66138756-1.47501848 1.47805742z"/>
          <path fill="rgb(255,255,255)" fill-rule="evenodd" d="M330.50744917 183.4631579c0 .81666985.66002772 1.47805741 1.47501848 1.47805741h13.20055453c.81499076 0 1.47501849-.66138756 1.47501849-1.47805742 0-.81666985-.66002773-1.47805741-1.47501849-1.47805741h-13.20055453c-.81499076 0-1.47501848.66138756-1.47501848 1.47805741z"/>
          <path fill="rgb(255,255,255)" fill-rule="evenodd" d="M345.34372458 163.84007656c-1.81938077-.89143541-3.305878-2.31773206-4.28157116-4.0660957 3.1451756-1.89214354 5.41222736-7.00495694 5.41222736-10.5074354 0-4.3651579-3.5297135-7.90789474-7.89163586-7.90789474-4.356183 0-7.89163586 3.53698564-7.89163586 7.90789473 0 3.49672728 2.26705175 8.60954067 5.41222735 10.50743541-.97569316 1.74836364-2.46219038 3.17466029-4.28157116 4.0660957-3.56414972 1.74836363-6.35348429 4.83100478-7.71945471 8.60378947h28.95512939c-1.36023106-3.77278469-4.14956562-6.85542584-7.71371535-8.60378947z"/>
        </g>
      </g>
    </g>
  </g>
</svg>
