<svg xmlns="http://www.w3.org/2000/svg" xmlns:xlink="http://www.w3.org/1999/xlink" width="740.72" height="684.46" viewBox="0 0 740.72 684.46">
  <defs>
    <rect id="rect-2" width="740.72" height="684.46" x="0" y="0"/>
    <mask id="mask-3" maskContentUnits="userSpaceOnUse" maskUnits="userSpaceOnUse">
      <rect width="740.72" height="684.46" x="0" y="0" fill="black"/>
      <use fill="white" xlink:href="#rect-2"/>
    </mask>
    <path id="path-8" fill-rule="evenodd" d="M463.98693848 49.78356934c.05566406-19.55090332 13.89978027-27.46472168 30.93188476-17.6270752l175.78771973 100.8227539c17.01062012 9.82470704 30.78625488 33.6817627 30.73046875 53.2327881l-.73266602 292.59631347c-.05566406 19.55102539-13.92126465 27.4519043-30.93615722 17.62719727L493.98046875 395.61279296c-17.03637695-9.83337402-30.79052734-33.68188477-30.73486328-53.23291016l.741333-292.59631347z"/>
    <mask id="mask-9" maskContentUnits="userSpaceOnUse" maskUnits="userSpaceOnUse">
      <rect width="740.72" height="684.46" x="0" y="0" fill="black"/>
      <use fill="white" xlink:href="#path-8"/>
    </mask>
    <linearGradient id="linearGradient-11" x1="599.578" x2="683.182" y1="220.121" y2="265.656" gradientUnits="userSpaceOnUse">
      <stop offset="0" stop-color="rgb(90,45,104)"/>
      <stop offset="1" stop-color="rgb(34,4,61)"/>
    </linearGradient>
    <linearGradient id="linearGradient-21" x1="614.467" x2="617.204" y1="251.874" y2="256.301" gradientUnits="userSpaceOnUse">
      <stop offset="0" stop-color="rgb(255,138,120)"/>
      <stop offset="1" stop-color="rgb(255,167,153)"/>
    </linearGradient>
    <linearGradient id="linearGradient-24" x1="584.025" x2="599.903" y1="235.951" y2="248.304" gradientUnits="userSpaceOnUse">
      <stop offset="0" stop-color="rgb(255,184,158)"/>
      <stop offset=".995" stop-color="rgb(255,167,153)"/>
    </linearGradient>
    <linearGradient id="linearGradient-33" x1="303.341" x2="277.798" y1="427.105" y2="412.342" gradientUnits="userSpaceOnUse">
      <stop offset="0" stop-color="rgb(109,106,254)"/>
      <stop offset="1" stop-color="rgb(63,176,247)"/>
    </linearGradient>
    <linearGradient id="linearGradient-40" x1="224.332" x2="50.441" y1="511.733" y2="703.382" gradientUnits="userSpaceOnUse">
      <stop offset="0" stop-color="rgb(109,106,254)"/>
      <stop offset="1" stop-color="rgb(63,176,247)"/>
    </linearGradient>
    <linearGradient id="linearGradient-47" x1="503.905" x2="498.56" y1="368.343" y2="362.135" gradientUnits="userSpaceOnUse">
      <stop offset="0" stop-color="rgb(255,138,120)"/>
      <stop offset="1" stop-color="rgb(255,167,153)"/>
    </linearGradient>
    <linearGradient id="linearGradient-50" x1="360.269" x2="354.334" y1="382.832" y2="392.404" gradientUnits="userSpaceOnUse">
      <stop offset="0" stop-color="rgb(255,138,120)"/>
      <stop offset="1" stop-color="rgb(255,167,153)"/>
    </linearGradient>
    <linearGradient id="linearGradient-54" x1="376.615" x2="367.591" y1="360.883" y2="372.022" gradientUnits="userSpaceOnUse">
      <stop offset="0" stop-color="rgb(255,184,158)"/>
      <stop offset=".995" stop-color="rgb(255,167,153)"/>
    </linearGradient>
    <linearGradient id="linearGradient-59" x1="370.872" x2="341.009" y1="330.618" y2="340.494" gradientUnits="userSpaceOnUse">
      <stop offset="0" stop-color="rgb(138,71,145)"/>
      <stop offset=".995" stop-color="rgb(86,46,101)"/>
    </linearGradient>
  </defs>
  <g>
    <ellipse cx="472" cy="463" fill="rgb(235,236,244)" rx="201" ry="201"/>
    <g>
      <use fill="none" xlink:href="#rect-2"/>
      <g mask="url(#mask-3)">
        <g>
          <g opacity=".2">
            <path fill="rgb(95,127,251)" fill-rule="evenodd" d="M726.69160165 652.55201094L509.88129113 528.72484782c-8.04683327-3.6762528-19.86856541-7.1468411-27.76114628-2.33514892l-20.19420936 12.30130745c-4.06197973 2.47654326-17.42195104 10.69026892-8.4881665 15.54480788 26.28717895 14.29368222 194.2380434 112.42135315 220.9279925 126.94212325 5.04748114 2.7464779 12.43445694 3.74052295 20.18563978 3.09353674 7.71690453-.64270154 15.73374427-2.7293392 21.86099218-6.50842425l8.06397242-4.97450991c5.70305382-3.51771976 8.86094312-7.35679028 9.16516312-11.04161244.29993521-3.6034133-2.0138507-6.94117662-6.94992734-9.19491668z"/>
          </g>
          <g>
            <path fill="rgb(223,225,236)" fill-rule="evenodd" d="M720.94141515 638.45542386c-.02999352 10.55315927-3.79203804 17.98278905-9.80788144 21.47908542l-9.54650932 5.74146708C668.838384 651.69936023 680.99432968 485.7452536 678.99761812 438.5623913l10.05639919-247.60291012c-8.4538882-14.77356604-40.98400435-27.6661589-33.3913587-57.8388538l-95.98355268-44.92912224c-4.2633648-2.8964416-116.2720274-67.76216556-96.16351382-79.92636335 3.36355917-2.03522154 6.68855524-4.08329711 10.0135513-6.01140173 7.42125411-4.39179385 16.88635245-1.67530868 23.831995 2.33086425l190.99017354 109.54633493c18.74595076 10.80167053 33.45134574 36.9339151 33.3913587 57.83456913l-.8012555 466.48991549z"/>
            <path fill="rgb(247,247,247)" fill-rule="evenodd" d="M453.75055856 29.7270885c.02999352-10.34749477 3.61207692-17.69143102 9.41796567-21.27342093 6.11439354-3.7705157 14.6968254-3.36347138 24.18763246 2.12091508L678.34633023 120.1166329c18.48457865 10.67313022 33.45134574 36.59542562 33.3913587 57.83885381l-.79697071 466.49420017c-.05998704 21.23914351-15.12530427 29.82563607-33.6141677 19.15250585L486.33637696 554.06014248c-18.50600259-10.68598425-33.45134573-36.59542562-33.3913587-57.83456913l.8055403-466.49848485z"/>
            <path fill="rgb(214,231,237)" fill-rule="evenodd" d="M463.98691888 49.78366119c.05570225-19.55098081 13.89985469-27.46477909 30.93188995-17.62716087L670.7065519 132.97923303c17.01061132 9.8247642 30.78620714 33.6818453 30.73050488 53.23282611l-.73269887 438.17677038c-.05570226 19.5509808-13.92127864 27.45192505-30.93617475 17.62716086L493.9804401 541.19325768c-17.03632005-9.83333355-30.79049192-33.68184531-30.73478967-53.23282612l.74126846-438.17677037z"/>
          </g>
        </g>
        <g>
          <use fill="none" xlink:href="#path-8"/>
          <g mask="url(#mask-9)">
            <g>
              <path fill="url(#linearGradient-11)" fill-rule="evenodd" d="M585.56779953 199.74306887c-7.32698876 1.50820628-11.02904623 8.31227324-11.43181637 15.71191028-.47132677 8.65076272 3.2735786 18.22701564 6.5471572 22.76877318 10.63484566 14.75642733 5.34741635 24.87683423 5.27457494 33.62185983-.02999352 3.85620923 1.05405804 8.48366031 3.02506086 13.2953525 2.38662733 5.81430658 6.91136424 7.57959348 11.71461243 11.7914309 2.72084085 5.11590424 5.9001541 9.60624566 9.56793327 13.02970252 12.09595862 11.28155434 36.38214123 10.76310844 59.01439539 3.11067545 18.15036512 2.12091508 40.43555139-15.53195385 54.9009982-37.53376986 11.82173214-17.97850438 17.8547147-39.26477934 16.29933638-52.01169319-1.7096307-13.98947016-20.64411218-29.36289096-32.83005137-16.78307951-2.83653015 2.93071901-6.31149382 6.2213509-11.71889722 6.56412505-3.71919663.23137255-8.50530566-6.06710253-16.33789948-12.44698647-7.58407608-6.17850413-17.2119964-10.40319557-28.31388403-.92549022-3.00363691 2.5622368-5.65592115 5.29586068-8.73668425 7.36107496-11.29470314-2.77647065-12.20307835-15.18489502-24.66324402-18.07705195-7.58407608-1.76100221-17.70046231 1.01118376-27.28981952 7.96092973-1.65392846.835512-3.32499607 1.70530142-5.02177241 2.5622368z"/>
              <path fill="rgb(34,4,61)" fill-rule="evenodd" d="M582.76554769 210.59615552c1.08833634 4.68315188 4.17338424 7.9652144 8.2225096 10.72026167 9.44795918 6.43558474 12.4473113 4.53747286 19.97996992 14.4093685 4.1862386-5.7928832 7.8026003-7.78525798 10.76767412-4.73028333 4.76896987 4.91023976 4.43475635 8.98925219 7.29699523 14.83783619 4.65328058 9.5076981 11.41467722-8.41939016 23.4892119-4.29753096 11.86886483 4.0490197 7.57122172 11.59862044 15.0053302 20.81924518 2.78511268 3.4534496 5.73304733 8.25657244 10.06068396 8.62505465 13.46280624 1.15686277 22.9236198 13.16252751 5.0689051 27.52047989-11.05903976 8.8949893-29.774997 14.66644911-47.03412607 15.1506176-22.78222176.63841686-46.35712943-24.5469141-46.47710352-40.63587595-.04713268-6.65838794 4.08768846-13.1839509 2.41233606-17.77712456-5.76304086-15.77189576-12.5587158-24.73543989-8.7923865-44.64204888z"/>
            </g>
            <g>
              <g>
                <path fill="rgb(255,166,152)" fill-rule="evenodd" d="M648.53277014 317.01039162c4.78610903 1.49106757 8.56100792.7626725 13.03004258.06427016 4.96178536-.77124185 6.0501217-.1114016 8.88665185.7969499 4.340491 1.38823533 11.63320145 6.18707348 16.2950516 6.84262905 1.70963071.23994191 1.04548846 3.2135077.45418761 5.07305748-.43704845 1.37966597-.8355338 2.87073354-1.77390254 3.64626006-5.861591 4.8288309-17.73474062-2.05236024-19.39723865-1.45679015-5.35170114 1.91525058-9.58078764 3.86477859-12.8286575 2.88787225-2.72941043-.8183733-5.05176594-3.24350044-8.2267944-4.97450991 1.1826017-4.37037047 2.46375353-8.47937564 3.56065945-12.87973884z"/>
                <path fill="rgb(229,239,255)" fill-rule="evenodd" d="M606.8203517 296.01119001c7.15131242 1.9323893 26.03009163 9.4134352 34.78391504 14.7435733 3.00363691 1.82955705 3.32071128 3.02926659 4.35763015 4.65744382l3.9248665 1.59389981c-.62557916 3.35490204-1.7910417 8.47937564-4.2676496 14.13514918l-4.39190846-1.84241108c-5.16317044.8183733-7.18130594.42418302-14.70111018-2.16376185-9.14802398-3.14495286-21.06830627-6.37131458-30.4605632-10.79310117-16.75780878-7.88380554-3.87773381-25.03536727 10.75481976-20.330792z"/>
              </g>
              <path fill="rgb(229,239,255)" fill-rule="evenodd" d="M589.43696377 261.43384723c.74555324 25.29673257-1.72248508 37.8422666-1.62821973 44.1750191 1.26401268 13.8137984 20.08708964 12.24560665 20.2199181-3.57342056 1.74390901-11.44008739 9.34940903-37.75657306 2.75511915-45.94030599-7.4983803-9.29774892-21.6638919-5.45010904-21.34681752 5.33870745z"/>
            </g>
            <path fill="rgb(194,214,249)" fill-rule="evenodd" d="M594.8315128 260.5126417c1.62393493 7.97378375 3.95057522 14.0366016 4.26764959 19.8294848.30850479 5.57864936-1.42683466 11.15301404-1.10119071 16.33747311.27422648 4.37037047 2.25808367 11.80428493 17.39195752 14.48220801-.4970355 3.8604939-18.14179555 5.27015262-13.2100037 7.68242573 9.59792678 4.69172123 23.33067471 8.39796677 33.75128094 10.90450277 5.87016058-1.85526511 13.89128511-12.4041397 13.95555695-12.7383445l-3.9248665-1.59389981c-1.03691887-1.62817724-1.35399324-2.82788677-4.35763015-4.65744382-7.96970707-4.85453896-24.3290305-11.48721884-32.59438799-14.09658708 2.56230367-12.8497461 7.47695636-33.4804655 1.77390254-40.55875177-7.4983803-9.30631828-18.10751723-6.1656501-15.9522685 4.40893255z"/>
            <path fill="rgb(229,239,255)" fill-rule="evenodd" d="M717.85636725 300.34299838c-35.05814151 1.38395065-52.4243903 18.52265835-66.51706048 17.23725527-10.42060623-.95548295-9.4822375-16.04611508-12.16451525-24.02418351-9.0194803-29.54713208-5.67734509-35.43856285 18.7330964-31.9936826 9.0580434 1.2811184 23.54062936.34705883 37.17482715-26.11510586 18.26176964 3.9761802 36.31358462 37.67944888 22.77365218 64.8957167z"/>
            <path fill="rgb(229,239,255)" fill-rule="evenodd" d="M670.33377528 286.12215567c.86552733 22.23318856-9.37940256 29.88990623-19.91569809 32.40501158-5.96014114 1.42251274-11.804593.44132173-16.64211949-2.34800295-11.26042482-6.49128554-6.12296311-6.04567914-18.64311583-8.05519262-6.23436762-1.0026144-10.07782313-3.81336246-12.7943792-8.26085711-3.78346845-6.19564283.56987691-15.1334789-1.22544957-22.3188821-1.21259522-4.8459696-2.5880124-9.88046499-3.96771438-13.2396517-7.14274284-17.36579557 9.37940256-23.64713194 19.59862372-17.19012382 12.57585497-.20994917 17.63619048 4.49034142 30.8761877 6.10566462 11.16615947 1.36681194 22.08808598 3.12781415 22.71366514 32.9020341z"/>
            <g>
              <path fill="rgb(255,166,152)" fill-rule="evenodd" d="M618.61637512 239.0464103c1.39255634 7.55388542 4.55044565 14.0194629 9.30656116 20.08228075-3.80060762 7.53246203-14.97105188 9.09208443-19.18299922 5.11590425-.66414225-3.33776333-1.15260817-6.44843878-2.0138507-9.80762549l11.89028876-15.3905595z"/>
              <path fill="url(#linearGradient-21)" fill-rule="evenodd" d="M618.61637512 239.0464103c.66842705 3.62483668 1.74390902 7.0011621 3.20502198 10.19753108.86124254 7.51532333-10.28349299 16.9544666-13.65990652 11.97995668-.4199093-2.24945538-.8398186-4.46034868-1.43968902-6.79121292l11.89457356-15.38627484z"/>
              <path fill="rgb(255,166,152)" fill-rule="evenodd" d="M583.47682262 217.97865386c-1.1783169 5.67291225-1.00692535 10.861656 2.0952617 17.14727706.78840113 1.59818449.93408394 2.7293392.86124253 3.96332615-.43276366 7.1125637.51845944 8.91641268 3.68063354 13.3124912 3.07647832 4.2718229 3.91201212 6.7954976 6.14438706 7.82382007 2.29236198 1.0583152 4.92750706.51416123 7.09132537-.13710966 4.43475635-1.34110388 10.80623722-6.96688468 14.24692258-10.93878019 2.5537341-2.94785772 1.98385719-4.09615114 2.2066662-7.63957896 3.05933917-5.61721145-.94265352-7.39963705-2.56658845-7.1297024-4.66185016.77552652-3.50067241 6.04139446-5.66020594 8.11089342-2.8536693-8.95925945-25.14742514-17.5671754-28.09964459-24.51263669z"/>
              <path fill="url(#linearGradient-24)" fill-rule="evenodd" d="M582.86838262 222.22048402c-.29565043 4.13042855.38991577 8.20944099 2.70798649 12.9054469.78840112 1.59818449.93408394 2.7293392.86124253 3.96332615-.43276366 7.1125637.51417465 8.91641268 3.68063354 13.3124912 1.37970197 1.9152506 2.30950113 3.47915767 3.11504141 4.71314462 1.61108057 1.16543213 3.9634296 1.17828616 5.6002189-.41989834 1.50824563-1.47392886 2.48946225-4.27610757 1.61108056-8.00806117-.62557915-2.65221501 3.94200565-6.25134363 4.05341016-9.22490942.09426535-2.46368923-3.18788283-3.9547568-5.09889861-4.64458978-6.68855523-2.40798843-12.0316868-7.06971693-16.53071498-12.59695016z"/>
              <path fill="rgb(255,143,127)" fill-rule="evenodd" d="M583.47682262 217.97865386c6.45717664 9.8976037 23.60918599 12.81975336 28.0953598 24.50835201-8.39818594-10.75453908-25.19455782-14.00660886-28.0953598-24.508352z"/>
            </g>
            <path fill="rgb(206,224,255)" fill-rule="evenodd" d="M717.80494979 300.29158226c-10.02212088.39847496-19.4143778 2.06521428-27.6368874 4.59745834-15.09531076 4.65315914-27.04130178 10.9002181-35.85511223 13.368192-6.4743158 1.81241835-14.19122033 1.4696442-20.07423527-1.91953526-11.26042483-6.49128554-6.12296312-6.04567914-18.64311583-8.05519261-8.96377806-1.43965145-15.30098061-7.56673945-14.8510778-15.66906352 14.06696146 12.21132924 20.41273359-1.6324619 34.84818687-23.00014573 8.95949327-13.26107508 18.24034569-13.59527988 24.50470684-9.6919392 5.15888565 3.2135077 7.15988199 9.79477145 7.54122819 17.38293428.58273127 11.65003656-8.30820538 21.23057416-11.69318849 31.603777 6.29006988 5.33870745 23.07787218-9.37058844 33.45991531-11.56434302 19.35867556-4.08758179 29.68501643-7.3910677 32.82576658-24.64546167.86981212 8.03376923.50988986 19.99230253-4.42618677 27.5933194z"/>
            <g>
              <path fill="rgb(255,166,152)" fill-rule="evenodd" d="M567.9873113 330.01010141c-2.51945578.6298475-4.61471747.95119828-6.52573325 1.10116197-4.92322227.3899056-8.63813411-.3513435-15.232424.12425563-3.732051.26993465-8.0339789.83122732-12.36161552 1.46107483-5.2574358.68983299-9.45652877 1.34110388-15.0396085 2.58366019-4.33192142.9640523-4.71755241 4.90595508 1.4054107 4.13471323 5.1031834-.64270154 8.52672961-.80123458 12.4515961-1.4096587 1.74819381 3.21350769 1.7524786 11.35867852 6.54287242 12.70406707 3.05933916.85693539 6.9670665-1.43965144 11.20900735-2.05664492 3.30785692-.4841685 6.79995974.20137982 9.14373919-.84836603 3.3078569-1.48249822 1.1054755-4.19898339 6.60285945-5.15446634l1.80389607-12.63979693z"/>
              <path fill="rgb(229,239,255)" fill-rule="evenodd" d="M624.84645796 338.75512701c.23994817-.04713144.47132676-.10711692.68985099-.18852578 5.79731917-2.0609296 11.18329862-10.08612948 15.9908316-17.07872222 10.04354481-14.60217896 17.34054005-25.84945589 23.96910824-41.10290574 3.86487944-8.8949893 2.6222907-17.63573022-5.7501865-22.02752407-6.48288537-3.40203348-13.49279976-1.7824256-19.23441668 4.734568-5.05176593 5.74146708-13.40710398 26.73209933-19.54292147 40.8672485-1.25972789 2.90501096-3.49210282 7.9480757-5.39883382 12.93972432-.44561803.02142339-.89980563.04713145-1.36256282.08997822-13.94698736 1.25969501-36.42498912 7.58387815-41.56245083 9.07494572-3.24786987.9469136-3.8434555 1.97952074-5.2145879 3.23493108l-5.0646203 1.10973132c1.78247212 1.74386351 3.66777917 7.56245478 2.61372114 13.43674684l4.644711-.56129268c4.59329353 2.05236025 5.2874293 2.29658684 12.92292285 1.77814093 11.86886483-.80123459 27.2255477-2.63079163 38.30601139-5.20588247 1.61536535-.37276689 2.9307955-.71554104 3.9934231-1.10116197z"/>
            </g>
          </g>
        </g>
        <g>
          <g opacity=".5">
            <path fill="rgb(255,255,255)" fill-rule="evenodd" d="M510.51965332 369.03503418c4.47338867 2.72924805 8.81811523 4.13464355 12.79870606 4.34033203 3.31213378.17138672 6.3671875-.48413086 9.04089355-1.90661621 2.67797852-1.41833496 4.94470215-3.58630371 6.68005371-6.42712402 2.12097168-3.47485352 3.44067383-7.96520996 3.71484375-13.3338623.47558594-9.28491212-2.25805664-19.59387208-7.0612793-28.75878907-4.81188964-9.17346191-11.7232666-17.25012207-19.59008789-22.0489502-4.4732666-2.72924804-8.81811523-4.13464355-12.79870605-4.34033203-3.3121338-.16711426-6.3671875.48840332-9.04089356 1.90661621-2.67797851 1.42260743-4.94458007 3.58630371-6.67993164 6.43139649-2.11669922 3.47058105-3.43640136 7.9609375-3.71069336 13.32958984-.4798584 9.28063965 2.25378418 19.59387207 7.06140137 28.75878906 4.80749512 9.17346192 11.71887207 17.24572754 19.58569336 22.0489502zm13.01733398-.01721191c-3.26940917-.16711426-6.91137695-1.37109375-10.74633789-3.7105713-7.18554687-4.38757324-13.53991699-11.83862304-17.99609375-20.33935546-4.46472168-8.50939942-7.00561523-18.02563477-6.56860351-26.5222168.23571777-4.61450195 1.3326416-8.4107666 3.08081055-11.27722168 1.31542968-2.16381836 3.01220703-3.79199219 4.98742675-4.8416748 1.97961426-1.05407715 4.27197266-1.53820801 6.78283692-1.40966797 3.2692871.17138672 6.91137695 1.37109375 10.74633789 3.71057129 7.18981933 4.38745117 13.54418945 11.83850097 18.0003662 20.33935547 4.46044923 8.50927734 7.00134278 18.0213623 6.56433106 26.52209472-.23571777 4.61889649-1.3326416 8.41516114-3.08081054 11.28161621-1.31970215 2.15942383-3.01220703 3.78759766-4.98754883 4.83740235-1.97949219 1.05395507-4.27612305 1.538208-6.78271485 1.40966797z"/>
          </g>
          <g opacity=".5">
            <path fill="rgb(255,255,255)" fill-rule="evenodd" d="M512.7092517 346.66464062c5.47167523 3.33776332 10.17208848.80123458 10.506302-5.65577354.32992874-6.4612928-3.83060113-14.40079915-9.30227636-17.73856247-5.46739044-3.33776333-10.17208848-.80551926-10.50201722 5.65577354-.3384983 6.4612928 3.82631635 14.40079914 9.29799158 17.73856247z"/>
          </g>
        </g>
        <g>
          <g>
            <path fill="rgb(240,177,134)" fill-rule="evenodd" d="M335.38326947 457.62920361c2.04384423-.05998548 4.67470452.71125637 6.95421213.63413219.95979268-.03427742 4.10482762.47559913 5.09889861.43703704 16.98490259 4.81597687 15.08245639-2.99498917 27.1441367-9.68765452 4.05341016-1.29397244 7.87544172-2.66935373 11.89457356-4.0661584 4.59329354-1.59389982 6.56429636-3.18351496 6.17866537-6.2213509-.32992873-2.62650696-.40277014-3.81764714-.73698366-6.4441541-.24423296-1.93667397-.71555972-3.15352221-4.99606368-2.72076984-5.80160396.59128541-13.18857976 1.69673206-16.41502568 2.99927384-4.44761072 1.79527964-11.83458652 8.70646352-18.86592485 10.87879472-1.71820029.53129994-3.33785043 1.07973858-4.76468508.91692086l-7.60978482-.86550474-3.8820186 14.13943385z"/>
            <path fill="url(#linearGradient-33)" fill-rule="evenodd" d="M260.34376417 432.12252188c-9.14802397 10.4546117-2.23237493 21.00348628 6.03726734 22.06180148 28.5195539 5.31299939 40.24702069 6.54270167 61.36674442 6.65838794 3.732051.02142339 8.06397242-1.26397969 10.8876482-2.36514166 2.03527465-.04284677 5.84445185.65555557 8.05968763.59128542-.32992873-3.17923028-.62986395-11.50435755 3.16645888-15.48053773-2.65228423-.22708788-6.4743158-.05998548-8.4538882-.65555557-.97693183-1.31111114-4.87608959-2.78504-7.92685917-3.68910683-8.92093017-2.64364567-17.71760146-5.00450265-27.58118516-7.56245477 10.70768708-5.99426302 24.68038318-14.88925232 28.58382572-21.24771287 7.17702115-11.68431398-6.6242834-22.84589737-17.94898005-19.59811226-18.0475302 5.1801744-42.73648295 28.82730635-56.1907196 41.28714685z"/>
            <path fill="rgb(90,90,223)" fill-rule="evenodd" d="M260.34376417 432.12252188c-9.14802397 10.4546117-2.23237493 21.00348628 6.03726734 22.06180148 28.5195539 5.31299939 40.24702069 6.54270167 61.36674442 6.65838794 3.732051.02142339 8.06397242-1.26397969 10.8876482-2.36514166 2.03527465-.04284677 5.84445185.65555557 8.05968763.59128542-.32992873-3.17923028-.62986395-11.50435755 3.16645888-15.48053773-2.65228423-.22708788-6.4743158-.05998548-8.4538882-.65555557-.97693183-1.31111114-4.87608959-2.78504-7.92685917-3.68910683-8.92093017-2.64364567-17.71760146-5.00450265-27.58118516-7.56245477 10.70768708-5.99426302 24.68038318-14.88925232 28.58382572-21.24771287 7.17702115-11.68431398-6.6242834-22.84589737-17.94898005-19.59811226-18.0475302 5.1801744-42.73648295 28.82730635-56.1907196 41.28714685z"/>
          </g>
          <g opacity=".5">
            <path fill="rgb(109,106,254)" fill-rule="evenodd" d="M257.45581656 448.00581924c1.85102874 3.36775606 5.253151 5.70718966 8.92521495 6.17850412 28.5195539 5.31299939 40.24702069 6.54270167 61.36674442 6.65838794 3.732051.02142339 8.06397242-1.26397969 10.8876482-2.36514166 2.03527465-.04284677 5.84445185.65555557 8.05968763.59128542-.32992873-3.17923028-.62986395-11.50435755 3.16645888-15.48053773-2.65228423-.22708788-6.4743158-.05998548-8.4538882-.65555557-.97693183-1.31111114-4.87608959-2.78504-7.92685917-3.68910683-8.92093017-2.64364567-17.71760146-5.00450265-27.58118516-7.56245477 10.70768708-5.99426302 24.68038318-14.88925232 28.58382572-21.24771287 7.17702115-11.68431398-6.54287241-22.32745146-17.94898005-19.3667397-7.03562312 1.82955704-14.11837892 6.94974597-22.24233838 14.88068296-12.7558161 12.44698646-26.74136656 30.34836665-36.83632884 42.05838869z"/>
          </g>
          <g>
            <path fill="rgb(109,106,253)" fill-rule="evenodd" d="M53.77838354 631.75418915c4.1133972-8.44081354 6.23008284-12.99114044.88695127-21.58620235-1.74390902-1.97952074-4.50331297-3.04640529-7.6483479-3.8047931-7.87115693-6.6498186-15.60520062-.44132173-21.25255218 7.05257821-5.24029664 6.95403065-4.51616734 9.12636185-7.85401777 12.0870736-1.09262113.968337-2.6265755 1.66245465-5.18459439 2.87073355C6.14867185 631.4671158 2.2452293 640.03646965.75412282 644.98098682c-2.30093156 7.6310096.88266648 19.02396554 6.59428988 24.58976087 2.1338248 2.0780683 6.99277523-1.68387803 9.90643158-4.76884542 6.00298903-6.3498912 8.01255495-9.83333354 11.4618099-13.31677588 4.51616733-4.56318093 9.4393896-7.58387816 14.68825581-10.94734954 2.5922972-1.65816997 9.01091073-5.98569367 10.37347355-8.7835877z"/>
            <path fill="rgb(71,85,252)" fill-rule="evenodd" d="M38.11748068 603.86094237c-4.59329354 1.0026144-8.9123606 5.013072-12.35304595 9.55911422-5.2574358 6.94117662-4.51616734 9.12636185-7.85401777 12.0870736-1.09262113.96833699-2.6265755 1.66245465-5.18459439 2.87073354C6.14867185 631.47140047 2.2452293 640.04075433.75412282 644.9852715c-2.30093156 7.6310096.88266648 19.02396555 6.59428988 24.58976087.29993521.29135803.65128789.46702979 1.04120366.54843865 1.1826017-.83122732 2.23665973-2.17661588 3.42354621-4.31466966 4.44332593-7.97806844 8.6038558-21.97182327 14.22978342-27.79041454 2.7079865-2.8021787 5.50166875-4.29324627 8.09825073-6.6455339 4.46903467-4.05330438 8.28249665-8.65933207 10.04782961-14.52505478 1.64964367-5.46296308-.32564394-12.11706634-6.07154565-12.98685576z"/>
          </g>
          <path fill="rgb(47,72,221)" fill-rule="evenodd" d="M287.98493637 486.29369224c-4.64899579 2.76790129-14.26834652-5.35584616-20.03995696-3.84763988-13.96412652 3.6376907-20.12993753 4.29324628-33.21568236 9.88474966-10.64341524 4.5503269-21.84385302 16.44459004-29.56504234 28.90014586-11.07189412 17.85853342-35.08813504 35.96986278-44.1633176 41.6127823-13.03861215 8.10660873-27.20840853 7.84095876-43.14782267 13.62098794-23.35209866 8.47080627-46.04862464 23.3771973-67.45542922 30.09985539 6.00298904 8.27799582 2.52802536 25.32244062-5.80588875 34.65875164 34.26117081-16.2089328 112.59139387-25.96085748 130.9688528-36.83536752 25.40022768-15.03064665 82.17796335-57.98453282 103.096302-77.77117086l.92122958-17.4172117 8.40675552-22.90588283z"/>
          <g opacity=".5">
            <path fill="url(#linearGradient-40)" fill-rule="evenodd" d="M287.98493637 486.29369224c-4.64899579 2.76790129-14.26834652-5.35584616-20.03995696-3.84763988-13.96412652 3.6376907-20.12993753 4.29324628-33.21568236 9.88474966-6.15295664 2.63079163-12.4901592 7.71670314-18.24034569 13.9466234 3.69777269 12.00566474 7.97399186 22.66165625 5.9387172 30.03558523-2.92222592 10.60029072-12.5244375 23.65998598-26.33002684 38.25788026-3.89915775-6.67981132-11.41039243-16.29462634-19.5643454-23.06441588-6.33291777 5.1416123-12.04025638 9.16492394-15.536644 11.33725514-6.07154565 3.77480037-12.38303947 5.73289773-19.00732287 7.33108222 1.95814845 8.77501834 3.76204451 17.3786496 5.42025776 26.2736389-40.79975843 3.3977488-61.01967652 14.1137258-95.27227776 30.30551989-1.45254338 5.36870019-4.07911888 10.58743668-7.54551298 14.46935397 34.26117081-16.21321748 112.59139387-25.96085748 130.9688528-36.83536752 25.40022768-15.03064665 82.17796335-57.98453282 103.096302-77.77117086l.9169448-17.4172117 8.4110403-22.90588283z"/>
          </g>
          <g>
            <path fill="rgb(109,106,253)" fill-rule="evenodd" d="M160.3582188 527.64939391c.05998704-3.26063914 1.10976028-6.0156864.43276366-9.57625292-.67271183-3.52628911-3.05505437-7.86666684-7.66120228-9.41771988-5.0603355-1.70101674-11.35897496-.11997096-16.6335499 2.60508357-4.32763664 2.23660135-5.45453608 4.13471323-9.15659355 7.43819914-4.97035495 4.4389253-24.89033783-2.69077711-34.65537138 13.36390733-2.69513212 4.42607126-3.41069184 11.0287584 3.73633579 14.20798868 5.19316396 2.31372554 12.02311722-1.30682646 21.03831274-1.96666671 4.06626452-.29992739 9.24228932.7241104 13.75845666 1.9109659 7.09561016 1.86811915 12.99576426 2.0609296 13.99412004 1.40537404 10.49773243-6.86833711 16.81351104-5.59150339 15.65661808-14.04945564-.23566338-1.77814092-.54416817-3.88620197-.50988986-5.9214235z"/>
            <path fill="rgb(71,85,252)" fill-rule="evenodd" d="M153.12978018 508.65970578c-5.0603355-1.70101674-11.3032727-.01285403-16.6335499 2.60508357-7.67405665 3.7705157-10.70768708 7.14255644-21.64675275 7.78954265-7.31413439.4284677-17.82043639 5.87857674-22.16521218 13.0168485-1.58965662 2.61365292-2.48946226 5.98140899-1.49110648 8.95925945 5.84016706 3.9933189 18.6945333-2.55795213 24.44900458-5.05591877 16.145084-6.99687742 7.93971355-7.5024693 28.19819473-10.44604234 12.13452173-1.76100222 23.36495303-12.1427744 9.289422-16.86877306z"/>
          </g>
          <path fill="rgb(47,72,221)" fill-rule="evenodd" d="M313.71509279 513.79274874c-3.4663941 7.12541772-9.5550789 16.99302868-15.27955667 25.87087927-11.60749271 32.41786561-33.69986348 58.04880297-55.2052182 78.78235461-7.67834143 7.40392173-37.8775325 40.29738648-54.76816974 36.76252802-9.61935073-2.01379816-13.31283863-10.34749478-16.53071498-18.57407447-12.03597159-30.81111177-19.63290203-55.4994202-35.01529363-88.85991474 6.42718312-.80980394 21.67674626-6.76978954 24.80464205-13.79237502 5.38597945 15.51909982 33.78984405 41.7584613 37.55617335 63.22897737 16.88206766-25.42098819 25.08315332-40.237401 28.7423629-53.94836715 7.00134482-26.24364617 7.3141344-32.0879455 33.507048-44.57349405 8.89950622-4.24183016 13.80130455 2.85359483 26.44143134-3.24778511l25.74729558 18.35127127z"/>
          <path fill="rgb(243,248,255)" fill-rule="evenodd" d="M349.47165487 488.40603796c-11.24757046 12.0699349-22.2723319 20.30936862-41.0825545 36.40689983-13.98555046 11.74001477-55.59941876-1.13543939-67.7682188-35.5756725 11.74889075-7.05257822 18.60455274-13.50958635 27.6840201-25.09535275 14.33690313-18.29557047 27.16556064-77.92541923 57.26191679-73.10944237 9.37083298 1.49963693 45.63728492 19.95374044 55.91649312 27.13485897 12.3359068 7.99092246 16.05081864 18.02563582 8.39818594 29.87276751-10.03069045 15.51909982-34.07692489 33.5704437-40.40984265 40.36594131z"/>
          <path fill="rgb(47,72,221)" fill-rule="evenodd" d="M298.04133555 407.17284815c-19.65432597 25.20246967-39.54431533 62.517721-79.568527 58.061657-6.34148734 4.53318819-7.46838678 12.2927381-5.24886621 20.82352986 7.92257439 4.43464061 19.51292795 6.40130732 30.04922347 4.44749464-13.0943144 2.96928111-19.88141978 3.35490204-27.93682262 1.7095861 2.99935212 7.10399434 7.90543524 14.3322443 13.72846314 20.3693541 34.39399926 35.6870741 142.1992841-35.7427749 160.8166912-64.5443732 7.65691748-11.84284702 3.94200564-21.88184505-8.39390116-29.87276751-9.11374566-6.36702991-38.65307927-21.5947717-51.76453283-26.01227361-3.18788283-1.07116924-6.27293072-1.75243287-9.66219862-1.44393613-8.59528623.78838056-15.8794271 7.59244751-22.01952937 16.46172875z"/>
          <g>
            <path fill="url(#linearGradient-47)" fill-rule="evenodd" d="M477.31261187 378.1398773l10.506302 9.34488038c1.61536537-2.1166304 3.35927438-4.12614388 5.51880791-5.79716788 9.27228285-1.86811914 9.1737327-2.48082794 15.33525892-9.53769084 2.19809663-.92549021 2.73798001-.71554104 3.48353325-2.83217144.58273127-1.6538853 1.1783169-3.77908505 1.13546902-4.13042856 1.07976676-1.2082789 1.20831043-1.79099495.94693831-2.59651421-1.09690592-3.37204074-3.44497015-3.40203348-6.29863945-7.22824998-.8783817-1.17828615-2.90080198-2.20660861-2.40805128-3.1920843l1.97100282-4.39607853 4.33620622-5.89143077c1.54680873-2.2108933 1.97100282-2.92214966.66842704-4.19898339-.97693183-.95976763-2.82367578-1.86383446-5.47596002 1.23827163-1.35399324 1.75243287-3.39783747 3.59912862-4.6061479 5.24444456-1.36256282 1.8552651-2.5494493 3.81764714-4.10054283 5.7757445-1.15689296 1.46107483-2.91794113 3.39346412-4.1133972 4.82026153-2.30521634 2.75504727-4.73469156 5.34299213-7.15988199 8.07233133-3.3892679 3.82193182-3.07647832 8.1880176-4.97463973 10.27465527-1.26829747 1.40537403-2.8965172 3.12352947-4.76468509 5.0302107z"/>
            <path fill="rgb(47,72,221)" fill-rule="evenodd" d="M378.74104679 422.82048828c15.36525244-8.0037765 42.91215928-7.84952813 58.72302975-15.14204826l27.12271276-23.48002954c4.38762368-3.69339151 6.23008284-6.26848234 11.80887778-7.52389268l4.5290217-3.53485847c4.66185016-.14996369 12.40017864 7.798112 11.85601047 10.48031976l-2.88366283 3.29491656c-1.53395437 6.00283237-5.03034199 8.7835877-9.32370031 13.33391459l-26.24861585 27.24197588c-13.64705216 7.69099508-63.80478921 34.98010242-78.74584757 31.89513503-15.88371188-3.2863472-10.66483919-29.36289096 3.1621741-36.56543287z"/>
          </g>
          <g>
            <path fill="url(#linearGradient-50)" fill-rule="evenodd" d="M371.01985747 382.95585417c-1.66249804 5.00021797-3.17931325 15.26630388-3.02077607 22.2460426-11.2304313-1.1697168-26.45000092-6.97973872-26.81849276-16.30748038 1.13546902-4.6788672 2.12954001-9.6748005 1.16546254-11.97995669 16.43216484 3.08068271 16.6035564-5.48438646 28.67380629 6.04139447z"/>
            <path fill="rgb(90,90,223)" fill-rule="evenodd" d="M341.09060808 388.56878094c-3.5049572.49702252-8.09825073 4.66601317-7.8411634 6.96688468 1.15689296 14.12229514 27.43121754 21.74902007 43.44347309 20.94778548.19281549-.00856935-5.45453608-10.72883102-8.2653575-12.16419779-9.90214678-.59985476-25.61446711-7.24538867-27.33695219-15.75047237z"/>
            <g>
              <path fill="rgb(255,166,152)" fill-rule="evenodd" d="M367.1978259 388.9115551c-3.5006724.45417575-6.82566847-2.7507626-10.49773242-8.95925946-3.11075663-5.26158326-16.29076681 7.84952813-16.17079273 7.38249835-3.37212874-4.58031964-9.81216622-6.5726944-13.629913-13.27392912-5.33884677-9.36630375-6.85994678-20.80210647.78840113-30.44691422 13.96412653-17.61002216 38.13890463-13.03827188 48.33670184 5.57436468 1.99242677 3.63340603-.58273127 6.45272344.29993521 9.75192468.17139155.64698621 1.19117127 1.12258535 2.22809015 2.40370375 1.43111944 1.76957157 4.27193438 15.14633293 2.50660142 21.444808-.72841409 2.6179376-11.07617891 6.18278881-13.8612916 6.12280333z"/>
              <path fill="url(#linearGradient-54)" fill-rule="evenodd" d="M381.06340229 382.78875177c-.28279606 1.11830068-5.30028368 1.86811914-7.30556481 1.73100948 3.80060761-11.85570105-7.36983665-16.05896912-3.21787635-27.55047263 2.49374705-6.90261452-4.3019279-10.96877293-.36849183-15.59193933 2.2452293 2.22374733 4.22908649 4.83740025 5.85730621 7.81096604 1.99242677 3.63340603-.58273127 6.45272344.29993521 9.75192468.17139155.64698621 1.19117127 1.12258535 2.22809015 2.40370375 1.42683465 1.76957157 4.10482762 15.10348616 2.50660142 21.444808z"/>
              <g>
                <path fill="rgb(255,180,156)" fill-rule="evenodd" d="M366.33229858 374.66071964c.32564394-2.75933194-.66414226-3.50486572-1.72248508-2.9692811-1.16117775.5912854-2.49374705 2.76361661-2.78939747 5.61292676-.47561155 4.59745835 2.88366283 9.48199004 6.50430932 6.42273071-3.48781804 1.02832247-4.1519603-3.30777058-3.70205748-6.1827888.29993521-1.95381267 1.12261465-3.47487298 1.7096307-2.88358757z"/>
                <path fill="rgb(255,157,142)" fill-rule="evenodd" d="M364.97830534 376.1903493c1.41826507 1.61103853 2.0138507 2.62222228 1.84674395 3.32919397-.11997409.49273785-.6855662 1.1525781-2.04812903.32992013-.33421352-1.2639797-.16282197-2.55366745.20138508-3.6591141z"/>
              </g>
              <g>
                <path fill="rgb(86,46,101)" fill-rule="evenodd" d="M338.58829145 388.9286938c-3.26929381-5.30443003-9.90214679-8.86928123-13.38139525-14.97494585-3.43211578-6.01997108-6.73140312-14.86354425-2.09954648-22.31459742-1.89816142-17.63144555 18.77165949-27.10058155 34.53539728-27.00203398 11.28184877.0728395 15.40381554 13.02113317 9.08803693 19.93231705 3.14075015 5.37726954 1.77818733 11.35867853 1.1826017 12.84546142-1.8296048 4.5503269-1.8296048 5.17160505-1.03691888 9.01924493.62557916 3.03783594 2.22809015 10.3989109-2.28807719 5.02164135-2.91794114-3.4705883-6.59428988 2.14233847-6.27721551 6.60268714.14568282 2.03093687.30850479 4.59317367-.90409043 8.31655791-2.819391 8.6550474-17.00204174 5.50580985-18.81879217 2.55366745z"/>
                <path fill="url(#linearGradient-59)" fill-rule="evenodd" d="M329.65450692 345.16071902c-.32564395-16.77022549 22.41372993-20.59644198 30.70051136-19.10965909 8.38533157 1.5039216 12.13023694 16.57313035 1.2940062 19.1824986-7.3869758 1.7824256-19.4957888-7.10827902-31.99451756-.07283951z"/>
              </g>
            </g>
          </g>
        </g>
        <g>
          <g opacity=".5">
            <path fill="rgb(90,90,223)" fill-rule="evenodd" d="M676.36247304 536.9728509L524.7409385 449.43690133l-19.48721922-49.63798217-5.96014114 6.35846056 2.45518395 30.06986265c-10.06068397-4.93166314-18.02182146.15424837-18.05609977 11.94996395l-.12425888 44.2649973c-.0342783 12.35700825 8.66384285 27.42193232 19.4143778 33.63042918l138.91285114 86.5461892 35.11384376 20.21510574c10.34348004 5.45010904 18.63026147.42846769 18.660255-11.59005109l.12425886-50.61060383c.0385631-12.37414696-8.66384284-27.4433557-19.43151696-33.66042192z"/>
          </g>
          <g>
            <path fill="rgb(48,58,125)" fill-rule="evenodd" d="M676.38389699 626.79253327l4.43475635-2.57509083c4.08768846-2.38228037 5.4074034-7.45962253 5.4074034-11.89426314l.11997408-42.07124273c0-11.85141637-8.16680735-25.86230991-18.274624-31.8608576-.06427183-.03427742-.11997408-.06855484-.18424591-.10711693l-164.55731177-95.00414145c-3.89915776-2.25802474-9.01519552-3.71053022-13.19286455-1.2982571l-4.55901523 2.652215c-2.40376648 9.61481503 170.74026193 163.46042468 190.80592763 182.15875478z"/>
            <path fill="rgb(90,90,223)" fill-rule="evenodd" d="M663.13961498 540.910469l-164.49303994-94.96986404c-10.21493637-5.89571545-18.53599611-1.15686277-18.57027442 10.60029071l-.11997409 42.05410402c-.0342783 11.74001477 8.23107918 26.05512038 18.45030034 31.9551205l131.98434772 76.19869443 33.36564996 19.20820665c9.82930539 5.17588973 17.70046231.4070443 17.73045583-11.0116197l.11997409-42.05838869c.0342783-11.7528688-8.23536397-26.07225908-18.4674395-31.97654389z"/>
            <g>
              <g>
                <path fill="rgb(255,255,255)" fill-rule="evenodd" d="M512.1779379 521.58657606c-12.67440511-7.32679754-23.73344486-24.61118425-24.70180712-38.61779312-.96836226-13.99803951 8.51387524-19.41387114 21.19256513-12.0870736 12.66583554 7.32251286 23.73344486 24.6197536 24.70180712 38.61779312.96407747 14.00660887-8.5267296 19.40958647-21.19256513 12.0870736z"/>
                <path fill="rgb(90,90,223)" fill-rule="evenodd" d="M522.0715332 497.5065918c.45422364 6.55993652-3.98913574 9.08789062-9.91931152 5.66015625-5.93444824-3.4321289-11.11047363-11.52160645-11.56030273-18.0814209-.45422364-6.55126953 3.98486328-9.08776856 9.91918945-5.65576172 5.92590332 3.42773437 11.10620117 11.52575684 11.5604248 18.07702637zm-26.95996093-2.1636963c-.78833008.48840333-1.27685547 1.48681641-1.28112793 2.89648438l-.01281739 3.86901856c4.60180664 8.07666015 11.22180176 15.35205078 18.3560791 19.47814941 6.93701172 4.01049805 12.92285157 4.20324707 16.7578125 1.25964356l.00854493-4.43457032c.00427246-2.89221191-2.03100586-6.41845703-4.54614258-7.87097168l-3.9934082-2.2923584c-2.16381836.56140137-4.93188477.03857422-8.0168457-1.7437744-3.04223634-1.75671388-5.92590333-4.47326661-8.33398438-7.63537598l-5.64733887-3.23913575c-1.28967285-.74560547-2.45947266-.80126953-3.29077148-.28710937z"/>
              </g>
              <g>
                <path fill="rgb(255,255,255)" fill-rule="evenodd" d="M670.1323902 561.7425682l-129.67484658-74.8104591c-1.02406451-.59128542-1.85102874-.12425563-1.85102874 1.0583152l-.01285437 4.18612935c-.00428479 1.15686277.81410986 2.59651422 1.83817437 3.18351496l129.6748466 74.8104591c1.0240645.59128542 1.85102873.10283225 1.85531352-1.05403052l.00856958-4.18612936c.00428479-1.17828615-.81410986-2.59651421-1.83817437-3.18779963z"/>
                <path fill="rgb(255,255,255)" fill-rule="evenodd" d="M670.1323902 583.38018667l-129.67484658-74.8104591c-1.02406451-.59128542-1.85102874-.12425563-1.85102874 1.0583152l-.01285437 4.18612935c-.00428479 1.15686277.81410986 2.59222954 1.83817437 3.18351496l129.6748466 74.8104591c1.0240645.59128542 1.85102873.10283225 1.85531352-1.05403052l.00856958-4.18612936c.00428479-1.17828615-.81410986-2.59651421-1.83817437-3.18779963z"/>
                <path fill="rgb(255,255,255)" fill-rule="evenodd" d="M600.98446943 564.99463799l-60.52692581-34.79157663c-1.02406451-.59128542-1.85102874-.12425563-1.85102874 1.05403052l-.01285437 4.18612936c-.00428479 1.15686277.81410986 2.59222954 1.83817437 3.18351495l60.52692582 34.79157663c1.02406451.59128542 1.85102874.10283225 1.85531353-1.05403052l.00856958-4.18612936c.00428478-1.1697168-.81410987-2.59222954-1.83817438-3.18351495z"/>
              </g>
            </g>
            <path fill="rgb(90,90,223)" fill-rule="evenodd" d="M497.21974039 446.59616053l.31707436-39.02483743 24.11479106 56.15926045-24.43186542-17.13442302z"/>
            <path fill="rgb(48,58,125)" fill-rule="evenodd" d="M502.10011477 403.12811313l-4.56330002 4.44320997 21.52249387 50.1521434 3.30357212-3.4148875-20.26276597-51.18046587z"/>
          </g>
        </g>
        <g>
          <g opacity=".5">
            <path fill="rgb(251,188,27)" fill-rule="evenodd" d="M549.64841548 126.05091045l-95.8293003-55.32803313-.25708732 88.57284138 61.80379286 35.68278943 34.81390856 60.55533898.1156893-40.44735017c10.28777777 5.4201163 18.53171132.42418301 18.56170484-11.52578093l.12425887-44.02934008c.03427831-12.3098768-8.62099495-27.29767668-19.33296681-33.48046548z"/>
          </g>
          <g>
            <path fill="rgb(215,154,0)" fill-rule="evenodd" d="M527.55249023 181.36694336c11.16015625 10.08312988 19.39611817 17.52416992 22.8671875 20.75842285l4.2590332-2.4765625c3.92919923-2.29223633 5.19750977-7.16821289 5.19750977-11.43579101l.11572266-40.4473877c0-11.39294434-7.84985352-24.8638916-17.56762695-30.63110352-.0600586-.03430175-.11572266-.06860351-.17578125-.1027832l-158.1986084-91.33654785c-3.74499512-2.16796875-8.6682129-3.56481934-12.6829834-1.24682617l-4.38342285 2.54943847c-1.8939209 7.58605957 109.70666504 108.41577149 160.56896972 154.36914063zm10.60400391 57.07958984l-2.05664062-38.39489746 8.4453125-2.38659668-.10705567 37.1439209-6.2816162 3.63757324z"/>
            <path fill="rgb(251,188,27)" fill-rule="evenodd" d="M537.6852853 119.56390958L379.54658707 28.261729c-9.8207358-5.66862757-17.8204364-1.10973132-17.85042991 10.1932464l-.1156893 40.43021147c-.0342783 11.28583902 7.91400481 25.05250598 17.73474062 30.72113355l126.88544912 73.25512138 31.96880883 55.6108218.10711971-37.14386426c9.44795919 4.97450991 17.01489611.3899056 17.04488963-10.58743668l.1156893-40.43449613c.03427831-11.29869305-7.91400481-25.06536001-17.75187977-30.74255694z"/>
            <g>
              <g>
                <path fill="rgb(255,255,255)" fill-rule="evenodd" d="M392.4395164 101.48257296c-12.18593919-7.04400886-22.81650006-23.65998598-23.74629922-37.12672555-.93408395-13.45817022 8.1839465-18.66405269 20.3698857-11.62004382 12.1773696 7.03972419 22.81650006 23.66855533 23.74629922 37.12244087.93408395 13.46673958-8.1882313 18.66405269-20.3698857 11.6243285z"/>
                <path fill="rgb(251,188,27)" fill-rule="evenodd" d="M401.95178223 78.328125c.43701172 6.30273438-3.83056641 8.7364502-9.53369141 5.44152832-5.70300293-3.29919434-10.68188477-11.07592773-11.11901855-17.38293457-.43273926-6.29846191 3.83496093-8.7364502 9.53796386-5.43725586 5.69873047 3.29492188 10.67773438 11.0802002 11.1147461 17.37866211zm-25.91442871-2.07800293c-.75842286.47131348-1.22973633 1.43103027-1.2340088 2.78503418v3.72338867c4.421875 7.75952149 10.78479005 14.75634766 17.6447754 18.72399903 6.66711426 3.8519287 12.4173584 4.04040527 16.10656738 1.20825195l.00854492-4.26330567c.00427246-2.78063964-1.95385742-6.16992187-4.3704834-7.56665039l-3.8392334-2.20239257c-2.08239746.54418945-4.74328613.03857421-7.70825195-1.67529297-2.92651367-1.68811035-5.69885254-4.30175782-8.01257324-7.33959961l-5.428833-3.11499024c-1.24267579-.71984863-2.36523438-.77124023-3.16650391-.27844238z"/>
              </g>
              <g>
                <path fill="rgb(255,255,255)" fill-rule="evenodd" d="M544.29671433 140.08751205L419.63078578 68.16492519c-.9855014-.56986203-1.77818733-.11997095-1.77818733 1.01546843l-.01285436 4.02759631c0 1.10973133.78411634 2.49368197 1.76961775 3.05925933l124.66592855 71.92258685c.98121662.56986204 1.77818733.09854757 1.78247212-1.01118375l.00856957-4.0275963c0-1.13115472-.78840113-2.49796666-1.76961775-3.06354401z"/>
                <path fill="rgb(255,255,255)" fill-rule="evenodd" d="M544.29671433 160.88533384L419.63078578 88.96703166c-.9855014-.56986203-1.77818733-.11997095-1.77818733 1.01546843l-.01285436 4.02759631c0 1.10973133.78411634 2.49368197 1.76961775 3.05925933l124.66592855 71.92258685c.98121662.56986203 1.77818733.09854757 1.78247212-1.01118375l.00856957-4.0275963c0-1.1354394-.78840113-2.49796666-1.76961775-3.06782869z"/>
                <path fill="rgb(255,255,255)" fill-rule="evenodd" d="M477.81821695 143.21104153l-58.18743117-33.44618808c-.9855014-.56986203-1.77818733-.11997095-1.77818733 1.01546844l-.01285436 4.0275963c0 1.10973133.78411634 2.49368198 1.76961775 3.05925933l58.18743116 33.44618807c.98121663.56557736 1.77818733.09854757 1.78247212-1.01118375l.00856958-4.02759631c0-1.1311547-.78411634-2.49368197-1.76961775-3.063544z"/>
              </g>
            </g>
          </g>
        </g>
      </g>
    </g>
  </g>
</svg>
