<?xml version="1.0" encoding="UTF-8"?>
<svg xmlns="http://www.w3.org/2000/svg" xmlns:xlink="http://www.w3.org/1999/xlink" width="543.9" height="432.92" viewBox="0 0 543.9 432.92">
  <defs>
    <rect id="rect-1" width="543.9" height="432.92" x="0" y="0"></rect>
    <mask id="mask-2" maskContentUnits="userSpaceOnUse" maskUnits="userSpaceOnUse">
      <rect width="543.9" height="432.92" x="0" y="0" fill="black"></rect>
      <use fill="white" xlink:href="#rect-1"></use>
    </mask>
    <rect id="rect-61" width="543.9" height="280.741" x="0" y="0"></rect>
  </defs>
  <g>
    <use fill="none" xlink:href="#rect-1"></use>
    <g mask="url(#mask-2)">
      <g>
        <g>
          <g>
            <path fill="rgb(26,26,26)" fill-rule="evenodd" d="M406.55107458 302.61080382c-8.10757111-8.97590672-21.2977683-9.75330719-32.39693052-7.03752003-10.70404641 2.62116934-20.3022817 8.70995393-28.09170762 16.37911183-8.41545356 8.28545236-14.62698194 18.39165844-19.20929903 29.21133403-5.06723194 11.96276115-8.21789565 24.60830494-10.96831218 37.26663493-3.00698524 13.83721688-5.82667532 27.71534957-8.7259017 41.5755816l-2.18596537 10.44887602c-.1795981.8592321 1.14429643 1.22747442 1.32389452.36312785 2.91718619-13.93439194 5.8318067-27.86622664 8.74899288-41.80061858 2.62213217-12.5330253 5.21860748-25.11719537 9.28522147-37.28197835 3.81004529-11.39761147 8.96707628-22.5139267 16.52045899-31.95269357 6.74775697-8.43377218 15.25814095-15.64518442 25.21044105-20.02061929 4.90815935-2.1583092 10.17808057-3.58013373 15.5275381-4.05322283 6.00114203-.53190559 12.31786357.11251849 17.7058064 2.96128204 9.54179018 5.04287409 13.90602387 16.23846372 13.62892967 26.57226402-.34123638 12.6992458-6.66565499 24.50857264-13.06191283 35.16202774-6.13968913 10.2212818-13.24151092 19.85951327-21.17974668 28.7638173-7.96132695 8.92987644-16.7565022 17.13349716-26.24954432 24.42929826-9.61106373 7.38530445-20.22274542 14.6248463-32.31226285 17.07723791-2.92744893.5932793-5.9087773.85667486-8.89523703.76717152-.88516204-.02557239-.88259635 1.34255015 0 1.36812253 12.73350488.38102852 24.5074428-5.72565674 34.6983518-12.76829124 10.0549276-6.94545944 19.414554-14.93938662 27.93263503-23.68769912 8.48472711-8.71251116 16.14843436-18.2228807 22.8448776-28.36488812 3.40210104-5.1502781 6.5809873-10.46421946 9.43403132-15.9367096 3.00441954-5.76657254 5.62142035-11.80932684 7.04794235-18.17173593 2.3989174-10.71482882.98009246-22.84125322-6.63230105-31.26991092z"></path>
            <path fill="rgb(26,26,26)" fill-rule="evenodd" d="M333.52648946 401.02100844c.0974961.01790066.1975579.01534343.30018538-.01790067 4.8183603-1.53690027 9.6367206-3.0712433 14.4550809-4.60814357 4.8183603-1.53690026 9.6367206-3.0712433 14.4550809-4.60814356l8.13579367-2.59303972c.34123638-.10996125.59780509-.48076081.47978348-.84133142-.11032454-.3401127-.47721779-.59583655-.84411104-.47820358-4.8183603 1.53690027-9.6367206 3.0712433-14.4550809 4.60814356-4.8183603 1.53690027-9.6367206 3.0712433-14.4550809 4.60814356-2.25010755.71602675-4.5002151 1.43461074-6.75032266 2.15063748 2.54516157-3.44204286 5.04157508-6.91988706 7.48667485-10.43608983 5.31097221-7.63335657 10.38590122-15.43293363 15.21452427-23.37827328.3181452-.52167663.63115901-1.0459105.94417283-1.57014437 2.15517714-.87457552 4.3026572-1.7721662 6.43987453-2.69277201 2.39635171-1.03056707 4.7773093-2.091821 7.14800415-3.18120455 2.37069484-1.08938355 4.72599556-2.20689672 7.06846785-3.34998228 2.34247229-1.1456428 4.67211614-2.3194152 6.98636587-3.52131725 2.31424973-1.20190204 4.61310533-2.42937646 6.8991325-3.68753774.28735695-.15854878.5747139-.31709756.85950517-.47564634.31301382-.17389221.44386386-.62908064.24630596-.93594925-.20525497-.31709756-.60293646-.43217329-.93904147-.24549488-2.27063305 1.25816128-4.55409453 2.48819294-6.85551582 3.69009498-2.30911836 1.20957375-4.63619652 2.38846065-6.97353744 3.54177516-2.32707816 1.14820003-4.66955045 2.2657132-7.02485117 3.357654-2.35530072 1.09194078-4.72342988 2.1531947-7.10438747 3.18887625-1.90630548.82854524-3.7074178 1.59060228-5.58293504 2.36288827 4.07431105-6.84572715 7.969024-13.7988583 11.67644181-20.84916452.18729516-.35801338.37202462-.71602675.55931978-1.07148288.0590108-.07160268.10262748-.15599155.12828435-.24805213 4.06917968-7.80469154 7.91001321-15.7244588 11.50967216-23.75418732.4746521-1.06125393.94673852-2.12250786 1.41369357-3.18631902.35149913-.80041562-.83128261-1.49598445-1.18534742-.69045436-3.73820605 8.51048933-7.74067787 16.90590293-11.99971839 25.16834014-.05387943.10484678-.11032454.20969355-.16420397.31454032-.56188547-2.19155329-1.22126704-4.3575342-1.98071041-6.48771377-.27196283-.76461428-.55931978-1.52667131-.85693948-2.28105664-.13085004-.33244099-.46695504-.60095102-.84411104-.47820357-.32327657.10484677-.62089627.48587529-.47978348.84133142 1.05449738 2.67487135 1.95248785 5.40855918 2.68884004 8.1882773.18216378.68533989.35149913 1.37323701.51313741 2.06369137-3.93063258 7.52083808-8.0690858 14.93171491-12.41792537 22.2198443-.22321478.3733568-.44899524.74415636-.67221001 1.11751317-.09749611.03835857-.19499222.07927439-.29505402.1201902-.33097363.1329764-.60293645.46286015-.47978348.84133143.0205255.06137372.04874806.1201902.08723336.17900669-3.81774234 6.31382156-7.78942591 12.5330253-11.91248502 18.65249675-.11289023-3.36532571-.1565069-6.73320866-.12828435-10.1010916.03335393-3.97906293.16420397-7.95556861.39255012-11.92695982.12828435-2.23758358.28992264-4.47260992.47978348-6.70507903.03078824-.35801337-.3386707-.70068332-.68760413-.68533989-.3976815.01790067-.6542502.30175413-.68760414.68533989-.33867069 3.96371949-.57984527 7.9351107-.72352375 11.91161638-.14367847 3.97650568-.18729515 7.9555686-.13598141 11.93207428.03078824 2.24014082.08979905 4.48028165.18216378 6.72042247 0 .02557238.00769706.05114477.01026275.07927439-.15394123.22503698-.30531676.4526312-.46182367.6802254-5.25709279 7.68705858-10.75022879 15.21301114-16.4768423 22.55739977-5.71891646 7.33671691-11.66617907 14.49442714-17.83152508 21.46034449-.74661493.84388867-1.49836124 1.6852201-2.25267324 2.52399428-.58754233.65465303.37972169 1.62640361.9723954.96919335 6.23975093-6.94801668 12.26398415-14.08782624 18.05987122-21.40919973 2.67088023-3.37299742 5.2930124-6.7894679 7.86639653-10.23918247z"></path>
          </g>
          <g>
            <path fill="rgb(26,26,26)" fill-rule="evenodd" d="M109.18281287 233.06926328c-11.46862116 3.8972313-17.37739846 15.67587128-19.24008727 26.91237673-1.79598094 10.8401335.04361668 22.03060865 4.05121987 32.18540226 4.32831407 10.97055265 11.20692108 20.63947097 19.38120006 29.0962583 9.03891551 9.35182076 19.46330204 17.21532878 30.05702391 24.71570895 11.5789457 8.20106349 23.27078164 16.24613544 34.91130384 24.35769558 2.92488325 2.038119 5.85233218 4.07879522 8.77721543 6.1169142.72095807.50377597 1.58302892-.56514967.85693948-1.06892563-11.70466437-8.1550332-23.40676305-16.3100664-35.11142743-24.46765683-10.527014-7.33671692-21.11303882-14.66576212-30.7317996-23.17880869-9.01325865-7.97858375-17.23628568-17.0772379-22.96803058-27.71279233-5.12111137-9.50269783-8.42315062-20.13825226-8.5437379-30.97838575-.05901081-5.34718546.70299825-10.73528673 2.37069484-15.82163387 1.87038586-5.70775606 4.95177602-11.24161992 9.69829708-15.05701958 8.40519082-6.75878104 20.44852588-6.35218014 29.87229445-2.03044728 11.5789457 5.30882688 19.98157083 15.75258843 27.28864758 25.80764974 7.01202274 9.64846041 13.1055295 19.94901661 18.19585264 30.72777639 5.10315156 10.80944664 9.20825086 22.09709685 12.20240766 33.66604329 3.03007641 11.71215178 5.52905561 24.28353566 3.03520779 36.32812844-.60550215 2.91780899-1.53684655 5.75122912-2.79403321 8.45167285-.37202462.8004156.89029341 1.33743567 1.26231803.5395773 5.36228596-11.51780167 4.3642337-24.70803724 1.88064862-36.81911822-2.45023114-11.94741771-6.13968914-23.66724121-10.85542195-34.91653285-4.69520733-11.20326135-10.45260909-21.96923493-17.1721435-32.09589892-3.4123638-5.14516362-7.0607708-10.14967913-10.986272-14.91637148-4.13588754-5.02241618-8.67971932-9.79933747-13.98556016-13.60962266-8.94141941-6.41866834-20.6820034-9.89139806-31.45275768-6.23198994z"></path>
            <path fill="rgb(26,26,26)" fill-rule="evenodd" d="M171.21086325 338.7087808c.05644511-.08183162.09236473-.17644944.10262748-.28129622.47978348-5.01985894.95956696-10.03716064 1.43935044-15.05701958.47978348-5.01985895.95956696-10.03716065 1.43935044-15.0570196.26939714-2.8257484.53879429-5.64893958.81075711-8.47468799.03335394-.35545613-.20782065-.73648465-.58754233-.76972875-.3591962-.0332441-.73635219.20457907-.7722718.58560759-.47978349 5.01985894-.95956697 10.03716065-1.43935045 15.05701959-.47978348 5.01985894-.95956696 10.03716064-1.43935044 15.05701958-.22321477 2.3449876-.44899524 4.68741796-.67221001 7.03240555-2.17570263-3.6849805-4.4001533-7.34183139-6.67848342-10.96543818-4.95177603-7.87117973-10.14729232-15.58892517-15.57628614-23.1404501-.3566305-.49610425-.7158267-.98965126-1.07502288-1.48319827.04105099-2.3194152.0590108-4.63883042.05131374-6.96080287-.00769706-2.60071143-.04874806-5.20142287-.1205873-7.79957706-.07183923-2.60071143-.17446671-5.19886563-.30788244-7.79446259-.13341573-2.5981542-.30018539-5.19375115-.4977433-7.78679087-.1975579-2.59303972-.42590404-5.1835222-.68503844-7.77144744l-.1000618-.97430782c-.03591961-.35545614-.40537855-.65465303-.76714042-.5932793-.37202463.06393096-.6362904.38358575-.5952394.76461427.26683145 2.57513905.50287466 5.15283534.70812963 7.73308887.20525496 2.59303971.37972168 5.18863667.52340016 7.78423363.14111279 2.585368.25400302 5.170736.33353932 7.75866125.0795363 2.58792524.12828435 5.17585048.14624416 7.76377572.01282843 2.07136309.00769706 4.02253597-.01795981 6.04531153-4.71060144-6.42889729-9.59053823-12.7324899-14.634679-18.9031061-.25400301-.3119831-.5131374-.62140894-.76970611-.93339202-.04361668-.08438887-.10262749-.15599154-.17703241-.21480802-5.59576348-6.79969686-11.39165055-13.43573046-17.37996415-19.8953146-.79023161-.85411763-1.5855946-1.70312077-2.38352328-2.54956667-.59780508-.63675236-1.70874758.1738922-1.10324544.81575904 6.37829804 6.77412447 12.54620973 13.7451563 18.49090665 20.90030929.07440493.08950334.14880985.18156392.22578046.2736245-2.24241049-.34778441-4.5002151-.59583654-6.76315109-.73904189-.8133228-.05114476-1.6266456-.08950334-2.44253408-.11251849-.3566305-.01022895-.73635219.19179288-.7722718.5856076-.03078825.33755546.20268927.7594998.58754233.76972875 2.88126657.0869461 5.75740176.3401127 8.61044578.7594998.70299825.10228953 1.4059965.2199225 2.10642907.34266994 5.39050852 6.55931645 10.59628756 13.26950996 15.6045087 20.12290882.25656871.35034166.51057173.7057978.76714044 1.05613945-.00256569.10484677-.00513138.20969355-.00513138.31709756-.00769706.35545613.18986085.73392742.58754234.76972875.06414218.00511448.13085004.00255724.2001236-.01022895 4.320617 5.98138057 8.49498985 12.07016516 12.51542147 18.2561248-3.14809802-1.22235995-6.27053917-2.50609361-9.36475777-3.85887272-3.65610406-1.59571675-7.27372282-3.28093684-10.8477249-5.05310304-2.01406433-.99732297-4.01273455-2.0253328-5.99601065-3.078915-.3181452-.16877774-.77740318.0332441-.90055616.3605706-.14111279.37079957.0205255.71858399.36176188.89759068 3.52268833 1.86934125 7.09155903 3.65429364 10.70148073 5.34974269 3.60992169 1.69544905 7.26346006 3.30395199 10.95291806 4.82039435 2.07820652.85411762 4.16924147 1.68010561 6.27053917 2.47796399.02565687.01022895.05131375.01534343.07697062.0204579l.44642954.69045437c5.02104958 7.84049287 9.80092458 15.8369773 14.32166518 23.97410982 4.51560922 8.12690358 8.77721543 16.39445526 12.77712156 24.78475439.48491485 1.01778087.96469833 2.03556175 1.44191613 3.05589986.37202462.79530114 1.64973678.29152518 1.27514647-.50889043-3.95372376-8.45167285-8.16658192-16.7831555-12.63857446-24.97399003-2.08077221-3.77959833-4.19746404-7.52595256-6.3654696-11.24161993z"></path>
          </g>
          <g>
            <g>
              <path fill="rgb(90,90,223)" fill-rule="evenodd" d="M256.44042172 432.92c17.24398273-9.41063724 29.95696212-26.68733974 33.77727015-45.90754342 2.27319874-11.43085556 1.07758857-24.44719892-6.9581433-32.91165796-8.03573188-8.46445904-24.16107506-9.2341878-30.41108874.61629445 7.84843672-19.98737519 15.10419973-41.268713 11.9971527-62.50913499-3.10704703-21.24042199-19.93538846-42.01031212-41.46919996-42.3018373-20.07650125-.2736245-36.84583188 17.24601565-42.4723836 36.45599037-5.62655173 19.20997471-2.68114298 39.74715615.30788244 59.53506674-9.25443323-10.91173617-21.2156663-19.52962951-34.51362234-24.86658601-5.24939573-2.10716443-11.2608005-2.88967937-16.19461673-.13041916-12.10310017 6.76643997-11.18549503 32.92070803 17.26282258 64.6126937-7.06008832-7.64578986-21.8806847-1.86343147-24.33385612 8.32741664-2.47588801 10.28521277 4.75165244 20.92332443 14.11641021 25.90226756 9.36475777 4.9763859 73.8635648 13.12886185 73.8635648 13.12886185L256.4404217 432.92z"></path>
              <path fill="rgb(242,242,242)" fill-rule="evenodd" d="M234.9681867 428.70567115c-5.1339398-9.35949248-9.44429406-19.15627271-12.89001179-29.25480708-3.4303236-10.05506131-6.01397047-20.39653333-7.74067786-30.87865345-1.73440445-10.52815042-2.59390962-21.19694894-2.58621256-31.86574747.01026275-10.66368405.88772773-21.3273681 2.66318317-31.84528956 1.76006133-10.42841811 4.39245625-20.71107364 7.89975046-30.69197505.44129818-1.25816128.90055616-2.51376532 1.3700769-3.76169765.2386089-.63163788-.77996887-.9052624-1.01601208-.27873899-3.7689943 10.03204617-6.65282655 20.38374714-8.63610265 30.91189755-1.97557904 10.48467736-3.07112741 21.13301798-3.2917765 31.79925927-.22064908 10.71738606.44642955 21.4475583 1.97044767 32.05754034 1.5240181 10.60231033 3.92036982 21.08187322 7.1787924 31.2878116 3.24559412 10.15990808 7.34299636 20.05642062 12.27681258 29.51820263.6157649 1.18400137 1.2469239 2.36033102 1.89091136 3.5315462.32584226.5932793 1.23666116.06393096.9108189-.52934834z"></path>
              <path fill="rgb(242,242,242)" fill-rule="evenodd" d="M226.6014812 427.46796777c-4.08200811-4.9840576-8.28203783-9.87094015-12.59752347-14.65553316-4.31548563-4.78459301-8.74642719-9.46433925-13.2851276-14.03923871-4.52587197-4.55955604-9.15693712-9.00915082-13.89576112-13.34878435-4.73625831-4.33963353-9.5751441-8.56674858-14.5140917-12.67623066-4.9389476-4.11203931-9.97795698-8.10644566-15.10676541-11.98066181-.64398746-.48843253-1.29310628-.97175059-1.93965942-1.45506864-.22834615-.17133497-.58497665-.03580134-.72095807.18923564-.1590726.2659528-.0384853.54980625.18986085.71858399 5.14933393 3.84097204 10.20373744 7.80469153 15.16321053 11.88860123 4.95947308 4.0839097 9.82145006 8.28545235 14.58336525 12.5995135 4.7593495 4.31406115 9.41607151 8.74064079 13.96503467 13.27462444 4.53356904 4.51864022 8.9619449 9.14468445 13.27486485 13.87301822 4.32831407 4.7436772 8.54373791 9.58964392 12.64114015 14.53278571.50287466.6060655 1.00318364 1.212131 1.50092693 1.82075373.18216378.2199225.5567541.18412117.74404925 0 .21551771-.21480802.17446672-.52423387-.00256569-.74159913z"></path>
              <path fill="rgb(242,242,242)" fill-rule="evenodd" d="M245.37204774 428.64685467c.11289023-5.18096496.59780508-10.35170097 1.45987594-15.46106326.85693947-5.07867542 2.07050945-10.09341989 3.62275013-15.00587482 1.5650691-4.94569903 3.47137459-9.7814368 5.7086537-14.46118304 2.23214775-4.66696005 4.78500637-9.17792855 7.64574745-13.48943246 2.8556097-4.30894667 6.01653615-8.41331427 9.46481956-12.26707251.42590406-.47564634.85693948-.94873544 1.29310628-1.4192673.45925799-.49610425-.28222557-1.23770338-.74404925-.74159914-3.56117364 3.84352929-6.84268739 7.9478969-9.813753 12.26195804-2.95823718 4.29360324-5.6111576 8.79690003-7.93823577 13.4587456-2.33734091 4.68741795-4.35140525 9.53849916-6.01910184 14.50209886-1.65743384 4.93802731-2.9736313 9.9936876-3.92293552 15.11583607-.95443559 5.14772086-1.5471093 10.36192992-1.75236426 15.59403965-.02565687.6393096-.04361668 1.27606195-.0590108 1.91537154-.01026275.6725537 1.04166894.6725537 1.05449738-.00255723z"></path>
              <path fill="rgb(242,242,242)" fill-rule="evenodd" d="M226.94271758 412.41606266c-.55931978-3.81028519-.76457474-7.67427238-.64398745-11.52291614.1205873-3.86654444.57214821-7.71774544 1.3469857-11.51012996.7748375-3.79238452 1.8652545-7.52339531 3.2532912-11.13933038 1.3880367-3.61337784 3.08652153-7.10656547 5.06466626-10.43608984 1.97044766-3.31418094 4.2231209-6.46469862 6.74519128-9.38506486.31301382-.3605706.62859333-.71858398.94673852-1.07404012.45156093-.50121872-.28992263-1.24537509-.74404924-.74159913-2.64522336 2.93315243-5.02618096 6.10157078-7.11465022 9.45155306-2.0807722 3.33975333-3.86392472 6.8559561-5.3545889 10.49490632-1.4855328 3.62616402-2.66574885 7.37507549-3.52268833 11.19558963-.86463654 3.84864376-1.41112789 7.77400468-1.61638285 11.71470902-.20525497 3.92280368-.06927355 7.86350802.42333836 11.76073932.0615765.49098976.12828436.9794223.2001236 1.46785483.04105099.28129622.39768149.43473052.64655313.36568508.30275108-.07927439.41050993-.3605706.36945894-.64186683z"></path>
              <path fill="rgb(242,242,242)" fill-rule="evenodd" d="M216.68510071 382.06675755c-1.03910326-3.06868605-2.33220954-6.05298324-3.85366196-8.914533-1.51118968-2.84109183-3.2532912-5.56199347-5.19295061-8.13201804-1.94992217-2.58025353-4.08970518-5.01474447-6.41165197-7.26767148-2.32964385-2.2580415-4.8363201-4.33451906-7.48924053-6.20386031-2.62469786-1.8514406-5.39820557-3.49318763-8.2897349-4.8971115-.36176187-.17644945-.72865512-.34778442-1.09298268-.51656216-.2565687-.11763296-.56701684-.07160267-.72095806.18923564-.13341573.22759422-.06927355.59839378.18986084.71858399 2.90948913 1.33999291 5.70608802 2.917809 8.36157413 4.70787586 2.62726355 1.7721662 5.10828294 3.7514687 7.42509835 5.91233513 2.33220954 2.17620987 4.49764942 4.53142642 6.46809708 7.03752003 1.9627506 2.49586466 3.72537762 5.15283534 5.26992123 7.9223245 1.54197792 2.7643747 2.86330676 5.64126787 3.93832963 8.61533611.13341573.36824233.26170008.73648465.38741875 1.10728422.08979905.26851003.36176188.44495948.64655314.36568509.2591344-.07160268.4541266-.3733568.36432756-.64442408z"></path>
              <path fill="rgb(242,242,242)" fill-rule="evenodd" d="M210.263186 409.43943719c-3.40210104-1.32464949-6.83755602-2.56235286-10.30379924-3.71566737-3.46624322-1.15075727-6.960709-2.21712568-10.47826595-3.1914335-3.52012265-.97686506-7.06333648-1.86422678-10.6270758-2.66208516-3.56373934-.79785837-7.14800416-1.50877064-10.7476631-2.1250651-3.59452758-.61885168-7.20701496-1.14564279-10.82976509-1.58293055-.4566923-.05625924-.91595028-.10996125-1.37264258-.16110602-.28222557-.0332441-.52596584.26339556-.52596584.52423387 0 .30942585.24374027.49098977.52596584.52423387 3.59965895.41427262 7.18648946.91804858 10.76049154 1.51132788 3.5868305.59583655 7.1582669 1.28373367 10.70917779 2.05601966 3.55091089.77484323 7.08386197 1.6391898 10.59115618 2.59048248 3.50729422.95129268 6.99406293 1.98953146 10.4500434 3.11471635s6.88373839 2.33731588 10.27814237 3.63383574c.43103542.16366325.85950516.32988375 1.29054059.49610424.26426577.10228954.57727959-.11251848.64655314-.36568508.08210198-.2991969-.1000618-.54469178-.36689325-.64698131z"></path>
              <path fill="rgb(242,242,242)" fill-rule="evenodd" d="M187.954537 386.42173452c-.18472946-5.4827191-.37202462-10.96543818-.55675409-16.44560003-.05387942-1.55480094-.10519317-3.10704463-.1590726-4.66184557-.02309118-.6725537-1.07502287-.67511093-1.05193169 0 .18472947 5.48271909.37202463 10.96543818.5567541 16.44560003.05387942 1.55480093.10519316 3.10704463.1590726 4.66184557.02309118.6725537 1.07502287.67766817 1.05193169 0z"></path>
              <path fill="rgb(242,242,242)" fill-rule="evenodd" d="M213.11366432 337.9083652c1.59842304-2.6646424 3.3507873-5.23978145 5.24683004-7.70240201 1.87551724-2.43704818 3.89727865-4.7641351 6.03962734-6.97358907 2.15774282-2.22479739 4.43863862-4.32940458 6.83242465-6.29847813 2.38608896-1.96395908 4.88506816-3.78982728 7.48154347-5.4699329 2.61186942-1.69033457 5.32123496-3.23234931 8.11270248-4.61325804.3386707-.1662205.67734139-.33244099 1.01857776-.493547.25656871-.12274745.32327657-.48843253.18986085-.71858399-.15394123-.26083831-.46182367-.31198308-.72095807-.18923564-2.81969008 1.34766463-5.56240954 2.85643527-8.2076329 4.51864022-2.66318317 1.67499114-5.22887023 3.50341658-7.68423275 5.46481842-2.4399684 1.95117289-4.76961225 4.0378794-6.97353743 6.2498906-2.20392519 2.2120112-4.2821317 4.54932708-6.21922544 6.99660421-1.94992216 2.4651778-3.76386292 5.03264514-5.41873107 7.70495925-.20525496.32988375-.40537855.66232474-.60550215.99476573-.34893344.5804931.56188547 1.10984145.90825322.52934834z"></path>
              <path fill="rgb(242,242,242)" fill-rule="evenodd" d="M212.7031544 317.19217707c-2.5374645-3.17864731-4.59001416-6.76133828-6.08067834-10.54093661-1.49836124-3.80261347-2.4604939-7.8225922-2.80686164-11.89371571-.19499222-2.29128559-.1975579-4.59535737-.01026275-6.88664296.02309118-.28385346-.2591344-.52423387-.52596585-.52423387-.30531676 0-.50287466.24038041-.52596585.52423387-.34380206 4.16574132-.04105099 8.38007017.84924242 12.46397987.89029341 4.08135246 2.3783919 8.03995747 4.4001533 11.6993656 1.14686212 2.07647756 2.47332234 4.04555111 3.95372377 5.89954894.1770324.22247974.55931978.18412116.74404925 0 .22064908-.2199225.1795981-.5191194.00256568-.74159913z"></path>
            </g>
            <g>
              <path fill="rgb(90,90,223)" fill-rule="evenodd" d="M438.44513043 432.24488907c4.77217793-2.5444522 9.68803434-9.18304303 13.17993443-13.7246984 3.4919001-4.54165536 5.20321336-11.5075727 2.65035474-16.82151406-3.10704704-6.46469863-10.62194444-7.67427239-17.01050522-7.46713608-6.38856078.20713631-13.51603943.81064457-18.3805821-3.98673463-4.86197698-4.79226473-5.48543894-13.01634336-6.55019907-20.30447275-1.06219444-7.28812938-3.95372376-15.6247265-10.20117175-17.16162677-5.3135379-1.30674882-10.35511298 3.05078539-14.19081513 7.5029374-10.23196 11.88348676-18.05473985 26.52623373-22.66784518 42.42969922-7.56877683-5.3574144-18.04191141-10.46166221-24.46382613-3.37555466-4.1025336 4.52631194-4.18976697 12.37703377-1.74210151 18.29448338 2.44766545 5.91744961 6.8811727 10.3542582 11.19409264 14.60950287h88.18266428v.00511448z"></path>
              <path fill="rgb(242,242,242)" fill-rule="evenodd" d="M396.01123213 426.3504546c-.24117458-3.38578362-.48234916-6.77156723-.6337247-10.16246533-.15137554-3.38578361-.21551771-6.77923895-.1000618-10.1675798.10519317-3.09937292.36176188-6.19363136.84154536-9.24697399.45925798-2.91780899 1.11350818-5.79981664 2.00893297-8.57953476.88516203-2.74647403 2.01919572-5.39065851 3.42006085-7.83793564.17446672-.3068686.35406481-.60862274.5362286-.90781963.14111278-.23270869.03591962-.58305035-.16163829-.71858398-.22578046-.1534343-.4772178-.04347305-.62089627.18923564-1.4880985 2.43960541-2.6965371 5.09146161-3.66380112 7.85839354-.9723954 2.77460365-1.69078777 5.66172578-2.20392519 8.59232096-.5362286 3.0507854-.8518081 6.1501583-1.00318364 9.2546457-.16676965 3.40112705-.14111278 6.80992581-.01282843 10.21105286.12828435 3.4241422.35919619 6.8431699.60037077 10.25964038.03078825.4193871.0590108.8387742.08979905 1.25560405.0205255.28129622.19499221.52423387.4541266.52423387.22578047.00255724.46952074-.23782317.44899524-.52423387z"></path>
              <path fill="rgb(242,242,242)" fill-rule="evenodd" d="M405.59150762 423.26386787c1.67026227-1.96395907 3.47650597-3.76936937 5.40590264-5.38810127 1.93452804-1.62128913 3.97938063-3.06357158 6.11146657-4.3115039 2.11669183-1.24026062 4.31548564-2.28361388 6.57329025-3.12238807 2.28346149-.84900314 4.62593377-1.49086998 6.99662862-1.91025707 2.3399066-.41427262 4.71316713-.60095102 7.0787306-.56514968.2976197.00511447.5952394.01278619.8928591.02557238.58241096.02301515.58241096-1.02545259 0-1.04846773-2.4194429-.09461782-4.84145149.04858752-7.24036889.41682985-2.4194429.3733568-4.81066324.96152163-7.14543846 1.77472344-2.32451248.80808733-4.59514553 1.83353992-6.7836766 3.05078539-2.180834 1.21468823-4.27700032 2.62884105-6.2628421 4.22967228-1.99867023 1.61106018-3.8895816 3.40879876-5.6342488 5.38042955-.21295202.24038041-.42333836.48331806-.63115901.72881294-.41307562.48076082.22834615 1.22235995.63885608.7390419z"></path>
              <path fill="rgb(242,242,242)" fill-rule="evenodd" d="M389.6534596 425.39404744c-2.72219397-.16622049-5.43155951-.54213453-8.1101368-1.12774212-2.6965371-.59072207-5.35972027-1.3860232-7.96645833-2.37567446-2.58108118-.9794223-5.10828293-2.15063748-7.55851408-3.50853106-2.48615076-1.37579425-4.89276522-2.94082413-7.20188358-4.67974623-2.2783301-1.71590696-4.45659842-3.60059164-6.51684513-5.65149683-.2591344-.25828107-.5157031-.51911939-.7722718-.78251494-.18216379-.18923564-.45925799-.20969355-.64142177 0-.16420397.19179288-.18472947.55236349 0 .74159913 2.08846927 2.14808024 4.30009151 4.13505446 6.61690693 5.94046476 2.28346148 1.78239515 4.66955045 3.3908981 7.13517572 4.81272263 2.50154488 1.44228245 5.08262606 2.6978865 7.72271805 3.75658318 2.61443511 1.0459105 5.28531534 1.89747088 7.99468088 2.53933772 2.72732534.6469813 5.493136 1.0868263 8.2692094 1.30930605.34123637.02812962.68247275.05114477 1.02370913.07160267.24374027.01534343.45412661-.25060936.45412661-.52423387.00513138-.29152517-.20268928-.5063332-.44899523-.52167663z"></path>
              <path fill="rgb(242,242,242)" fill-rule="evenodd" d="M394.85923864 405.44758807c-1.94992216-2.08159204-3.75360017-4.35241972-5.36741733-6.7894679-1.61894853-2.4447199-3.05829897-5.04543132-4.29752582-7.7688902-.69273551-1.52411408-1.32646021-3.08658673-1.88834568-4.68230348-.09236474-.26083831-.30018539-.44751671-.5567541-.36568508-.2155177.06904543-.41050992.38102851-.3155795.64442407 1.02884051 2.91780899 2.26293599 5.73332845 3.70485211 8.40564256 1.44191613 2.66975687 3.08139016 5.19886562 4.89276523 7.54641046 1.0108807 1.30930605 2.07564083 2.56235286 3.1917147 3.7514687.1795981.19179288.46182367.20713631.64142177 0 .16420397-.19435011.1770324-.54980625-.00513138-.74159913z"></path>
              <path fill="rgb(242,242,242)" fill-rule="evenodd" d="M394.80535922 417.18786948c2.02945846-1.46785483 4.0229973-3.00731234 5.97291947-4.61581528 1.95248786-1.61106018 3.86135903-3.28860856 5.7291792-5.03264513 1.0544974-.98709402 2.09616634-1.9920887 3.12244116-3.02009853.18472947-.18412116.16420397-.55236349 0-.74159913-.18472947-.21225079-.4541266-.1866784-.64142176 0-1.78058682 1.78239515-3.60735601 3.50853106-5.47774188 5.16562153-1.8832143 1.66731942-3.81004528 3.26815065-5.77536157 4.79993644-1.11607387.86946105-2.2424105 1.71590695-3.38414123 2.54189495-.4977433.3528989-.04361668 1.26071852.4541266.90270515z"></path>
              <path fill="rgb(242,242,242)" fill-rule="evenodd" d="M373.83599887 422.20261395c-1.03910326-2.52655153-1.95761923-5.11959124-2.74785084-7.76633297-.79792868-2.67487134-1.467573-5.4034447-2.0038016-8.16526215-.30275107-1.55480093-.55931978-3.11727359-.77740318-4.68997519-.0384853-.27873898-.34123638-.43473052-.55675409-.36568509-.2565687.08183163-.35406481.3656851-.3155795.64442407.38741874 2.80784775.9108189 5.59268034 1.56763479 8.33403989.65681588 2.74135954 1.4470475 5.43924603 2.36299778 8.07831604.52340016 1.50621341 1.08785131 2.99452615 1.69078777 4.45982374.10519317.25572384.42077268.32221204.62089627.18923564.22064909-.1534343.26426577-.4603029.1590726-.71858398z"></path>
              <path fill="rgb(242,242,242)" fill-rule="evenodd" d="M414.22504458 415.916922c2.82225576.25060937 5.62142035.76972876 8.36927119 1.54457199 2.74785084.77740046 5.44695363 1.80285306 8.051126 3.08147225 1.48040143.7262557 2.92744893 1.53434302 4.34370819 2.41403303.51313741.3196548.9723954-.5856076.4566923-.90526239-2.55029294-1.5854878-5.2160418-2.93315242-7.95619558-4.02253597-2.72475966-1.08171184-5.52392424-1.91025707-8.36413982-2.4651778-1.6240799-.3196548-3.26098825-.5523635-4.90302797-.69812608-.24374027-.0204579-.4541266.25572384-.4541266.52423387.00256568.30431137.21038633.5063332.45669229.5267911z"></path>
              <path fill="rgb(242,242,242)" fill-rule="evenodd" d="M423.86946224 410.1196626c1.81907212-2.8308629 4.025563-5.34207098 6.50145101-7.39809064.70812963-.58816483 1.43678475-1.13797108 2.18596538-1.65453323.50030897-.34522719.04618236-1.25048957-.4566923-.9052624-2.72219397 1.8718985-5.1955163 4.23222953-7.296814 6.97358907-.60293646.78762943-1.17508467 1.60850295-1.71644464 2.45239161-.14624417.22759422-.03335394.5856076.16163828.71858399.23347752.15854878.4746521.04347305.62089627-.1866784z"></path>
            </g>
          </g>
          <g>
            <g>
              <path fill="rgb(51,51,51)" fill-rule="evenodd" d="M270.01290627 432.92c.4746521-4.35241972.9903552-8.2547655 1.54967498-11.61241949 5.94469692-35.70671951 5.28018397-60.77532736 5.28018397-60.77532736H223.0146507s-.46438936 39.3840283-.46438936 72.38774685h47.46264494z"></path>
              <path fill="rgb(51,51,51)" fill-rule="evenodd" d="M281.9023001 432.92h43.95278505c0-33.00627578-.46438936-72.38774685-.46438936-72.38774685h-53.82811454s.70812963 23.1532363 7.84073966 58.64770503c.90825322 4.51352574 1.73953583 9.09865416 2.4989792 13.74004182z"></path>
            </g>
            <g>
              <path fill="rgb(255,133,99)" fill-rule="evenodd" d="M323.81792962 217.16324055c1.7267074-3.37299742.82101986-29.7892699-2.17826832-32.407882-2.4194429-2.1122789-5.83180668-3.07380053-9.09792631-3.99696359-8.61557715-2.43704817-14.96052125-5.09401885-23.399066-7.96324032-1.43678475-.48843253-2.935146-1.02289535-3.91267276-2.0585769-1.0724572-1.13541383-.60806784-29.10904448-.60806784-29.10904448h-22.21115288s.46438936 27.97363065-.60806784 29.10904449c-.97752677 1.03568154-2.475888 1.57014436-3.91267276 2.0585769-8.43597906 2.86922146-15.32998019 5.52619214-23.94555734 7.96324031-3.26355394.92316306-6.67591773 1.88468469-9.09792632 3.9969636-3.00185386 2.6186121-3.9049757 29.03232733-2.17826831 32.407882l50.57225765 11.26974954 50.57738903-11.26974955z"></path>
              <path fill="rgb(0,0,0)" fill-rule="evenodd" d="M284.53212935 157.56935732c-.04618237-7.71263095.08979904-15.93926683.08979904-15.93926683h-22.21115288s.20782065 12.47420883.02565687 21.10233112c7.9921152 1.47552655 15.5070126-.7927439 22.09569697-5.16306429z"></path>
            </g>
            <g>
              <g>
                <path fill="rgb(255,133,99)" fill-rule="evenodd" d="M302.33030049 111.46234931c-1.2289641 7.68705858-7.60726214 25.79486355-11.53789472 34.05730076-4.13332185 8.68949602-14.4730407 11.49222929-20.60759847 10.51792146-6.11659795-.97175058-14.08818765-6.97358906-16.27415302-16.30750915-2.03458984-8.68949602-1.59585736-28.31885783-.36176188-36.02637431 2.25780461-14.11595587 14.15232983-18.45814664 27.6221869-16.31518088 13.46985706 2.14296577 23.4170258 9.95788626 21.15922119 24.07384212z"></path>
                <g>
                  <g>
                    <ellipse cx="298.26" cy="132.071" fill="rgb(255,133,99)" rx="6.291" ry="6.271" transform="rotate(-35.935979 298.26010274 132.07120145)"></ellipse>
                    <path fill="rgb(212,93,66)" fill-rule="evenodd" d="M300.465046 129.12008033c.79536298.6930116 1.2289641 1.77728068 1.090417 2.82830565-.14367848 1.08171184-.86976792 2.04323347-1.8652545 2.49330743-.52083447.23526593-.20012359 1.0663684.32327657.82854523 1.27514647-.57793587 2.23471343-1.78239515 2.42200859-3.18120455.18216378-1.3655653-.36945894-2.7515885-1.40343083-3.65429364-.4361668-.37847128-.99805226.30942584-.56701684.68533988z"></path>
                  </g>
                  <g>
                    <ellipse cx="250.999" cy="124.564" fill="rgb(255,133,99)" rx="6.291" ry="6.27" transform="rotate(-29.16701 250.99942221 124.56394843)"></ellipse>
                    <path fill="rgb(212,93,66)" fill-rule="evenodd" d="M249.80812067 121.06733667c-.9723954.41171538-1.7241417 1.30674882-1.91913393 2.35010207-.20012359 1.07148289.18986085 2.20945397.9929209 2.94849586.42077268.386143-.1411128 1.07659736-.56445116.68789712-1.0314062-.9461782-1.56763479-2.38846065-1.3085004-3.77448385.25400302-1.35533634 1.2110043-2.50097913 2.47588802-3.0379992.52853153-.22759421.84924241.60350826.32327657.825988z"></path>
                  </g>
                </g>
              </g>
              <path fill="rgb(23,22,66)" fill-rule="evenodd" d="M252.40203028 126.2662023c1.2315298.32988375 1.74979858 1.75426553 2.07820652 2.98173995.39255012 1.46274036.78510024 2.92292347 1.17765036 4.38566383.4156413 1.5522437.92621303 3.23746379 2.262936 4.13249722.7517463.50377596 3.31230199-1.34255015 6.88886975-.9257203 6.74519128.78762943 12.87461767 1.52922856 19.54283834 2.80273327 3.2917765.62908064 3.271251 3.90746025 5.7291792 1.6391898 2.52463608-2.3322014 2.72989104-6.9224443 5.93956555-8.15759043 0 0-4.97999858 15.12862226-6.3629039 18.14104907-1.38290533 3.01242682-7.14800416 8.73808355-18.75004105 6.89431468-11.60203689-1.84376887-15.42234492-8.37751294-16.80011887-13.26439548-1.37777395-4.88943979-1.7061819-18.6294816-1.7061819-18.6294816z"></path>
              <g>
                <path fill="rgb(23,22,66)" fill-rule="evenodd" d="M252.23526063 124.17693854c-2.08077221.72881294-2.02689278-21.61889327-.30788245-31.64071048 1.71901033-10.02181722 14.0189141-13.66588191 30.72923392-11.00891123 16.71031983 2.65697067 26.0160668 13.32832644 24.69730365 19.82115469-1.31619746 6.49282825-7.82791122 30.91956926-11.00936318 30.41323606-2.28859285-.36312785 1.82933488-27.3240921 1.82933488-27.3240921s-4.0845738 2.80273327-12.50259305 2.78738984c-12.36661163-.02301515-27.50416529-7.95045413-27.50416529-7.95045413s-3.85366197 24.17613165-5.93186848 24.90238735z"></path>
                <path fill="rgb(23,22,66)" fill-rule="evenodd" d="M268.34777537 87.40385062c-2.09360064-2.1787671-2.69397142-5.22955248-.76714043-7.77144743 1.34442002-1.77728068 3.53295108-2.77716089 5.74200764-3.10193016 5.57780367-.81831628 11.09659654 2.11995062 16.6564404.65465302 2.92231756-.76972875 5.36228595-2.30407178 8.4667673-2.44471989 3.77925704-.17133497 11.24797207 1.0331243 12.8284353 5.21932354.36945894.98197954.30275107 2.0790348.04361668 3.09425844-1.55737205 6.09389906-8.64123402 9.4873544-14.47047502 9.69193346-5.54958112.19690736-26.33934337-3.09425844-28.49965187-5.34207098z"></path>
              </g>
            </g>
            <path fill="rgb(255,255,255)" fill-rule="evenodd" d="M323.88720317 373.41562011c-14.86045946 3.94326159-30.82159866 3.14796045-46.31321713 2.28361388l-41.21006557-2.29384283c-5.34176046-.29663965-11.67644182-1.212131-14.00865135-5.9558082-1.02884051-2.08926375-1.00831502-4.5109685-.95956696-6.83294095 1.04423463-50.74328119 5.70095664-101.9136212-2.7965989-151.9715625-1.0519317-6.19874584-3.50216284-20.41699124-.6157649-26.02245777l19.79171-4.25524466c7.15313552 9.69193346 14.85532807 18.708756 26.37782866 22.45511022 12.05103213 3.9176892 26.34704043 2.25292701 35.83495118-6.050426 5.28018397-4.62092976 6.45013727-10.12154952 9.57257842-16.40468422 4.90815935 1.18144413 19.25035002 7.44667816 19.25035002 7.44667816 4.18976697 6.22687546 1.98840747 14.51232781 1.52145243 21.96923493-2.2424105 35.76809324-6.00627341 54.1750951-4.26673759 86.11244525 1.24435823 22.82590978 10.0138766 56.29504572 3.06599604 77.90626727-1.73183876.61117998-3.47907165 1.1456428-5.24426435 1.61361742z"></path>
            <path fill="rgb(251,188,27)" fill-rule="evenodd" d="M263.80907496 383.05129433c-.95700128-16.23590648-3.59452758-30.77380668-4.54896316-47.00971316-.4951776-8.40052808-.98778952-16.8573154.03591962-25.20925596.97496108-7.96324032 3.31999905-15.72190156 4.1435846-23.70048531 1.55224067-15.02121825 7.67140431-33.32593058 6.55789613-48.3855074-.61063352-8.27010893-10.14216095-26.02245777-17.0541219-37.48911468-4.52330628-7.50549464-11.19409264-24.39605415-11.19409264-24.39605415l-30.3366838 6.53118683s4.42837586 36.5250358 5.05953488 48.9378709c.6337247 12.4128351 5.61372329 64.06393591 3.12244115 75.47433357-2.49128214 11.40784042-4.11279636 64.88480944-3.12244115 69.70776103.98778951 4.82295159 47.33692627 5.53897833 47.33692627 5.53897833z"></path>
            <path fill="rgb(251,188,27)" fill-rule="evenodd" d="M275.37775791 383.05129433c-2.62982923-15.98018264 4.03839144-72.08599272 4.07431106-77.06237861.06927355-9.6740328.34893344-57.80125913 1.87295155-64.5958415 1.77545545-7.91721003 18.64741356-47.25776529 22.48311571-64.53446779 0 0 20.9206123 4.7232193 26.1135629 9.5870867 5.19295062 4.8638674 1.2110043 42.09725822 0 53.80173829-1.21100429 11.70192283-2.34760365 61.350706 0 74.82479503 2.34760367 13.47664627.50030898 59.18216785 0 62.7495154-.50030897 3.56734753-54.54394122 5.22955248-54.54394122 5.22955248z"></path>
            <path fill="rgb(251,188,27)" fill-rule="evenodd" d="M378.52094344 288.88354819c-5.89851455-11.81188408-12.25628709-23.64166883-15.50957828-36.47389103-1.48040144-5.8432897-2.32964385-11.9269598-4.98256427-17.34063346-2.85304401-5.82538903-7.6149592-10.50257803-10.96061513-16.06201427-3.84339921-6.38542424-5.7112194-13.74004182-8.85162036-20.49882286-2.68627435-5.7768015-8.07421718-13.91393404-12.32556064-14.18755854-4.25134346-.2736245-17.47489457 45.87685655-3.4688089 64.67255865 1.76775838 2.37055998 3.78438841 4.66440281 4.66441907 7.48503674.98009246 3.13517426 21.27980849 44.22232333 28.89733337 47.8382584 15.17860465 7.21396947 20.14320911-10.95520923 22.53699514-15.43293363z"></path>
            <path fill="rgb(0,0,0)" fill-rule="evenodd" d="M329.02370867 259.74893131l.88516203-23.78231694c.08210199-2.23758358.16676966-4.47516717.24887165-6.71275075.03335393-.88480448-1.34698571-.88224724-1.37777396 0l-.88516203 23.78231694c-.08210199 2.23758359-.16676966 4.47516717-.24887165 6.71275075-.03335393.88480448 1.34442002.88480448 1.37777396 0z"></path>
            <path fill="rgb(251,188,27)" fill-rule="evenodd" d="M159.3214694 287.81717978c5.89851456-11.81188408 12.2562871-23.64166883 15.5095783-36.47389102 1.48040142-5.8432897 2.32964384-11.92695981 4.98256426-17.34063347 2.85304401-5.82538903 7.6149592-10.50257803 10.96061513-16.06201427 3.84339921-6.38542423 5.7112194-13.74004182 8.85162036-20.49882286 2.68627435-5.7768015 8.07421718-13.91393403 12.32556064-14.18755854 4.25134345-.2736245 17.47489457 45.87685656 3.4688089 64.67255866-1.76775838 2.37055998-3.78438841 4.6644028-4.66441908 7.48503674-.98009245 3.13517425-21.27980848 44.22232332-28.89733336 47.8382584-15.17860465 7.21141223-20.14320911-10.95776647-22.53699514-15.43293364z"></path>
            <path fill="rgb(0,0,0)" fill-rule="evenodd" d="M219.89220954 261.11193937c-.5567541-2.18643881-.65938158-4.43169411-.68503845-6.67950665-.02565687-2.27082768-.0384853-4.54165536-.1180216-6.8099258-.16420397-4.63371596-.51057173-9.25976019-1.04166895-13.86534651-.30018538-2.60838315-.65681589-5.20653734-1.0698915-7.79957706-.1385471-.8720183-1.467573-.50121873-1.3290259.36568509 1.45731025 9.1676996 2.09873202 18.3967729 2.17570263 27.67443376.0205255 2.51120809.11545591 5.03264513.73635218 7.47736502.2206491.85667486 1.54967499.493547 1.33159159-.36312785z"></path>
            <g>
              <g>
                <path fill="rgb(242,127,85)" fill-rule="evenodd" d="M232.83610076 345.17603667c4.72342988 2.13785129 10.5501052 1.63663256 14.83736827-1.27350471 1.19817586-.8132018 2.34760366-1.92048603 2.54772725-3.34998228.03078825-.22503698.03591962-.47053186-.08210198-.66488198-.23604321-.39125747-.79792868-.38870024-1.25205529-.32221204-3.00698523.439845-6.01397047 1.47041207-9.01325864.9922085-2.3783919-.37847129-4.5233063-1.68266286-6.88373839-2.1583092-1.79341525-.36057061-3.6868923-.22503698-5.411034.38870023l5.25709278 6.38798148z"></path>
                <g>
                  <path fill="rgb(242,127,85)" fill-rule="evenodd" d="M222.29112694 347.50823807s2.40918015 6.43145453 3.3328275 8.79178556c.92108165 2.36033102 16.57177272-.8464459 19.291401-3.09937292 2.7170626-2.25292701-5.1339398-8.71762564-5.1339398-8.71762564l-10.40642673-1.93071498-7.08386197 4.95592798z"></path>
                  <path fill="rgb(181,95,64)" fill-rule="evenodd" d="M241.9879065 354.5994601l-4.06148261-4.06600902 3.24815982 4.33963353.8133228-.2736245z"></path>
                  <path fill="rgb(181,95,64)" fill-rule="evenodd" d="M236.3972744 356.12357418l-2.516939-3.29372304 2.03458983 3.39601257.48234917-.10228953z"></path>
                  <path fill="rgb(181,95,64)" fill-rule="evenodd" d="M231.77390632 356.90864636l-1.71131327-2.38334617 1.29823765 2.42937646.41307562-.04603029z"></path>
                </g>
              </g>
              <g>
                <path fill="rgb(251,188,27)" fill-rule="evenodd" d="M223.2506939 360.53225315c4.62593377-4.5032968 11.09403085-18.11803393 13.01316477-26.9635215.2591344-1.1993448-15.51727534-9.63311697-20.49983961-11.30555087-11.05041417-3.70799566-24.91282136-13.60962267-33.1922935-21.79278549-7.36352187-7.27790043-21.07198784-17.72677645-23.25025615-12.83477943-2.17826832 4.89199702-9.49304213 16.14896038-8.84648899 22.76453607.8338483 8.53861895 11.06837398 19.44779788 18.57814001 23.64166883 7.50720034 4.19387094 52.79157696 25.86646622 54.19757347 26.49043239z"></path>
                <path fill="rgb(0,0,0)" fill-rule="evenodd" d="M182.68461578 300.76959218c-4.46429548-.37079956-8.94398509-.20202183-13.37236096.46797463-.87489928.1329764-.50287466 1.45762587.36689325 1.32464948 4.30009152-.64953855 8.66945658-.7799577 13.00546771-.4193871.88259635.07415992.88003067-1.30163433 0-1.373237z"></path>
              </g>
            </g>
            <g>
              <g>
                <path fill="rgb(23,22,66)" fill-rule="evenodd" d="M259.37300203 278.68272429h17.57752205c2.52720176 0 4.59514553-2.06113414 4.59514553-4.58001394v-32.5204005c0-2.5188798-2.06794377-4.58001394-4.59514553-4.58001394h-17.57752205c-2.52720176 0-4.59514553 2.06113414-4.59514553 4.58001395v32.52040049c-.00256568 2.5188798 2.06537809 4.58001394 4.59514553 4.58001394z"></path>
                <g>
                  <path fill="rgb(242,127,85)" fill-rule="evenodd" d="M288.68084532 262.31384141c3.86905609 1.705678 8.95937922 10.5076925 5.45978207 15.84209177-3.50729421 5.4034447-14.88098495 5.29348345-18.68589887 3.11471635-3.7664286-2.0253328-1.84729468-9.30579047 1.73440446-14.22080264 3.56117364-5.10936228 7.61752488-6.2831347 11.49171234-4.73600548z"></path>
                  <path fill="rgb(242,127,85)" fill-rule="evenodd" d="M281.45330487 263.3597519c-.84667673-.439845-5.78305863-2.77460364-10.5295797-6.68206388-4.76191518-3.65173641-9.33396952-8.87361718-9.82145006-9.21628713-1.1289023-.6725537-1.95505354.18156393-.0795363 2.75670298.91595028 1.30419157 4.86967404 6.01462467 8.98760177 9.41575172 4.1050993 3.58269097 8.37183688 5.85863313 9.60080098 6.5158434 2.4810194 1.17632965 3.89727865-1.91025708 1.84216331-2.78994708z"></path>
                  <path fill="rgb(242,127,85)" fill-rule="evenodd" d="M278.79525308 266.15992794c-.88516204-.48331806-6.04475872-3.04055644-10.90417001-7.43389198-4.89019954-4.09413865-9.48277938-10.02948893-9.95999717-10.37727335-1.03910326-.63163788-1.88834568.43217329-.00513137 3.39345533.91851596 1.50109893 4.8978966 6.87897125 9.1210175 10.71738606 4.20002972 4.05322283 8.6437997 6.57210264 9.92407755 7.29835834 2.59390962 1.29396262 3.97424925-2.64418449 1.8242035-3.5980344z"></path>
                  <path fill="rgb(242,127,85)" fill-rule="evenodd" d="M277.04288882 270.32055478c-.87746498-.47820358-5.97805086-2.96895376-10.71430917-7.36996101-4.7773093-4.09158141-9.19542243-10.09597713-9.64954904-10.47700565-1.00318364-.7057978-1.77545544.82854524.041051 3.87421615.88772772 1.54457198 4.72599556 7.03240554 8.85162036 10.92452236 4.09483655 4.11459656 8.47959573 6.63091912 9.74704514 7.35717482 2.56568706 1.28884815 3.85879334-3.37555466 1.7241417-4.30894667z"></path>
                  <path fill="rgb(242,127,85)" fill-rule="evenodd" d="M276.07049342 276.77502445c-.70043257-.3401127-4.66955045-2.10972166-8.38979669-5.06844647-3.7484688-2.76693192-7.25063163-6.7229797-7.62009057-7.00427592-1.23152979-.84900314-1.43935044 1.31697776.01795981 3.40368428 1.32132884 2.97662548 13.07474126 12.51512464 15.37616255 13.16466319 2.29885561.64953855 2.28859286-3.80517071.6157649-4.49562508z"></path>
                </g>
                <path fill="rgb(242,127,85)" fill-rule="evenodd" d="M289.68659465 262.899449l-8.14092504-8.5488479v6.15271554l2.81199302 4.6644028 5.32893202-2.26827044z"></path>
              </g>
              <g>
                <path fill="rgb(251,188,27)" fill-rule="evenodd" d="M281.4892245 290.89098032c.32584225-6.436569 6.28593329-20.27890036 11.66874474-27.56702975.72865513-.98709401 17.51337988 5.21932354 22.0700401 7.83793564 10.10110996 5.80493112 26.72419642 9.6075446 38.35702156 10.37983059 10.34741591.68533988 24.96156941 2.69021477 25.0436714 8.0425147.20268928 13.10328947-5.86772631 18.61925266-11.27362895 22.51392671-6.97610312 5.02753066-21.95201849 4.60047185-30.07754941 1.76449448-8.12039955-2.8385346-54.39-22.33492002-55.78829945-22.97167237z"></path>
                <path fill="rgb(0,0,0)" fill-rule="evenodd" d="M339.73801783 280.13523569c4.27700033.7927439 8.45650455 2.06369137 12.4333195 3.82307138.80306005.35545613 1.51375536-.82343076.70299825-1.18144413-4.09483655-1.81052478-8.36927119-3.15051769-12.77455587-3.96627673-.86463654-.16366326-1.23666117 1.16098622-.36176188 1.32464948z"></path>
              </g>
            </g>
          </g>
        </g>
        <g>
          <g>
            <path fill="rgb(239,240,244)" fill-rule="evenodd" d="M509.32736686 192.966651h-72.79623898c-18.87319402 0-34.33658993 15.27694208-34.56493608 34.03684284-6.56046181-.62908064-13.00033634-2.49586465-18.8552342-5.5108487-.52853154-.27362451-1.17508468-.55492073-1.6856564-.25060937-.73891788.439845-.44899524 1.55991541-.05131375 2.32197245 4.84914855 9.33136285 12.00998113 17.43525128 20.59990141 23.52147863.43360112 18.58345132 15.81746073 33.6532571 34.55980471 33.6532571h72.79623897c19.01430681 0 34.57006746-15.5045363 34.57006746-34.45622995v-18.85963306c0-18.9491364-15.55832634-34.45622995-34.57263314-34.45622995z"></path>
            <g>
              <g>
                <path fill="rgb(255,133,99)" fill-rule="evenodd" d="M458.27019435 280.74130118h24.89742724l13.14144912-2.92803794c.87489929-1.70823524.4156413-15.07236302-1.10324544-16.3970125-1.22383272-1.06892564-2.95054012-1.55480094-4.60284258-2.02277556-4.35910232-1.2325889-7.57134252-2.57769629-11.8380801-4.03020769-.72608944-.24805212-1.4855328-.5191194-1.98071041-1.04335326-.54135997-.57537863-.30788245-14.72713584-.30788245-14.72713584h-11.23770932s.23347752 14.15431444-.30788245 14.72713584c-.4951776.52423387-1.25205529.79530114-1.98071041 1.04335326-4.26930327 1.4525114-7.75607199 2.79761879-12.1151743 4.03020769-1.65230247.46797462-3.37900986.95384992-4.60284259 2.02277556-1.51888674 1.32464948-1.97557904 14.6913345-1.10324544 16.3970125l13.14144913 2.92803794z"></path>
                <path fill="rgb(0,0,0)" fill-rule="evenodd" d="M476.43012736 247.65830825c-.02309118-3.90234577.04618237-8.06552986.04618237-8.06552986h-11.23770932s.10519317 6.31126433.01282843 10.67647025c4.04095712.7467136 7.84587103-.3989292 11.17869852-2.6109404z"></path>
              </g>
              <g>
                <g>
                  <path fill="rgb(255,133,99)" fill-rule="evenodd" d="M483.07269116 223.8427472c0 3.8179569-1.6856564 13.08283156-2.95054012 17.38666376-1.3290259 4.52886917-6.11916363 6.68206389-9.16719986 6.68206389-3.03777348 0-7.36608755-2.29384283-9.14667437-6.64626255-1.65999953-4.05322284-2.96849993-13.59427924-2.96849993-17.4224651 0-7.01194763 5.42386244-10.03204616 12.1151743-10.03204616 6.69387754 0 12.11773998 3.02009853 12.11773998 10.03204617z"></path>
                  <g>
                    <g>
                      <ellipse cx="482.693" cy="234.138" fill="rgb(255,133,99)" rx="3.087" ry="3.076"></ellipse>
                      <path fill="rgb(212,93,66)" fill-rule="evenodd" d="M483.53964621 232.53991494c.43873249.2736245.7337865.76717151.74661493 1.2862909.01282844.53446283-.26426576 1.05613946-.71069531 1.35022187-.23347752.1534343-.01539412.53190558.22064909.37591404.57214821-.37847128.94417283-1.03568154.92621302-1.72869314-.0179598-.67511094-.39255012-1.30419158-.96469833-1.66220495-.23604321-.14576259-.4566923.23015145-.2180834.37847128z"></path>
                    </g>
                    <g>
                      <ellipse cx="459.219" cy="234.138" fill="rgb(255,133,99)" rx="3.087" ry="3.076"></ellipse>
                      <path fill="rgb(212,93,66)" fill-rule="evenodd" d="M458.37538752 232.53991494c-.43873249.2736245-.7337865.76717151-.74661494 1.2862909-.01282843.53446283.26426577 1.05613946.71069532 1.35022187.23347752.1534343.01539412.53190558-.22064909.37591404-.57214821-.37847128-.94417284-1.03568154-.92621303-1.72869314.01795981-.67511094.39255012-1.30419158.96469834-1.66220495.2360432-.14576259.4566923.23015145.2180834.37847128z"></path>
                    </g>
                  </g>
                </g>
                <g>
                  <path fill="rgb(23,22,66)" fill-rule="evenodd" d="M466.55992924 222.61271554c-.18472947.09717506-.36945893.19435012-.5541884.2864107-1.53941224.77995771-3.38414124 1.3118633-5.0184839.98453678-.42846973 2.73368783-.6542502 5.49806252-.6747757 8.26755169-1.97044765-1.90769984-3.81004528-4.09925313-4.66955044-6.71275075-.80049436-2.43449094-.62859333-5.29859793.94417284-7.32393073.96469833-1.24537509 2.40918015-2.14296576 3.03777348-3.5852482.34380206-.79018667.41820699-1.69033458.85950516-2.4319337.90825322-1.5189996 2.96080287-1.80796754 4.73112694-1.85399783 1.3880367-.03580134 2.91975188-.0792744 4.08200812-.73392742-.18216379-.5932793-.52083448-1.18911585-.8543738-1.705678-.70812962-1.09449803-1.34955139-2.64674172-.4361668-3.5775765.56445116-.57537863 1.467573-.60095101 2.27576443-.59072206 1.54967498.02301514 3.14809802.05625924 4.56435728.68278265 1.41625926.6265234 2.6170008 2.00743213 2.53233313 3.54944687-.01539413.27618174-.06927355.5600352.01282843.82343076.1590726.50377596.754312.73392741 1.28284353.76461427.53109722.02812963 1.07502288-.07160267 1.5855946.07415992.72095807.20457907 1.22383273.86434657 1.50349262 1.55735817.78766593 1.95373012.08466768 4.29616048-1.37777395 5.81516008-1.1494278 1.19423032-2.68884004 1.93327222-4.31291995 2.32964417-.04361668.19690735-.11032454.38870023-.19499221.57026415-.4566923.9794223-1.40086514 1.67499114-2.42970565 2.01766109-.58241096.19435011-1.2084386.2864107-1.81137506.1662205-.42846974-.08694611-.82871693-.27618175-1.25462098-.37079957-1.31363177-.29152518-2.59904099.3605706-3.82287372.99732296z"></path>
                  <path fill="rgb(23,22,66)" fill-rule="evenodd" d="M478.87779282 214.91287078c-.89029341-.02301515-1.81650644.02301514-2.60160668.386143-1.18278173.54980625-1.95505354 2.00231765-.40537855 2.99964062-.1795981 2.36800274 1.28027784 4.81272263 3.67406387 5.9634799.3976815.19179288.86720222.4066009.94160715.79785838.04105099.20969354-.04874806.42194433-.1205873.6265234-.41820699 1.23003166-.12058729 2.56746733.42846974 3.75658318.44899524.96919335 1.05706307 1.87445573 1.60098873 2.80784774.90312185-2.94593861 2.70936554-5.74867188 2.73245672-8.79945727.01282844-1.75682276-.57214821-3.4778442-1.30080334-5.117034-.51826879-1.16354346-1.19304448-2.3859034-2.45536252-2.96895376-.73891787-.34266994-1.59842304-.42450157-2.4374027-.45007395-.01795981 0-.03591962-.00255724-.05644512-.00255724z"></path>
                  <path fill="rgb(23,22,66)" fill-rule="evenodd" d="M481.29210434 216.44465657c1.70105053-1.0459105 2.31424973-3.46761524 1.26744941-5.17840772-.16933534-.27618175-.6157649-.03835858-.44642955.24293764.89542479 1.46785484.41050993 3.58780545-1.06476013 4.49306784-.27452851.1662205-.03591962.61373721.24374027.44240224z"></path>
                  <path fill="rgb(23,22,66)" fill-rule="evenodd" d="M473.75155007 205.77585804c.66194726-.59839378 1.6266456-.81831628 2.4784537-.52934834.77740318.26339555 1.39573376.94873544 1.59072598 1.7389221.10519317.42450157.11032455.86946105.29505401 1.27350471.15650691.3401127.43360112.58305035.77740318.72881294.6337247.27106727 1.52401812.16110602 2.03972122.66743922.83641398.82087352-.01282844 2.03044727-.6362904 2.66208515-.23091183.2327087.12828436.58816483.3591962.35801338.68760413-.6930116 1.3059347-1.59315952 1.05706306-2.61605487-.23347752-.9589644-1.10067975-1.19167308-1.95505354-1.35533634-.39255012-.07671715-.84924241-.16110602-1.09811406-.50889044-.30018539-.4193871-.24117458-1.02289535-.39255012-1.49854169-.2770942-.87457553-.96469833-1.58804503-1.82676919-1.91025707-1.03910326-.38870023-2.2398448-.10228953-3.04803623.63163788-.24117458.2199225.1180216.57793587.3591962.35801337z"></path>
                  <path fill="rgb(23,22,66)" fill-rule="evenodd" d="M470.48799613 208.37401224c-.56188546-.0664882-1.04680032.20969355-1.5471093.42194433-.5157031.2199225-1.06476013.29408242-1.6240799.29152518-1.0698915-.00511448-2.12695458-.2531666-3.19941177-.22759422-.52853153.0127862-1.05449738.09717506-1.54197792.30175413-.52083448.21736526-.96982971.55747797-1.38547102.93339201-.84667673.76205704-1.77545544 1.61361742-2.26293598 2.66208515-.2591344.56003521-.40537856 1.17632966-.32840795 1.7926241.0795363.64442408.52083448 1.20957376.50030898 1.86678403-.01026275.32476927.49774329.32476927.50800604 0 .01539412-.53446282-.23604321-.98453678-.40024718-1.47808379-.1795981-.5395773-.14367848-1.09705526.0384853-1.63151808.36945894-1.07659736 1.27771216-1.89491364 2.08590358-2.65697068.40537856-.38358576.83641398-.75182809 1.3495514-.98709402.46182367-.21225078.97496108-.28896793 1.47783574-.29663965.99805227-.01790067 1.9832761.19690736 2.97876268.22503698.54135997.01534343 1.09554838-.02557239 1.61638285-.18923564.57214821-.17900669 1.1083768-.59839378 1.73183876-.52423387.32584226.04091581.32327657-.46541739.0025657-.50377596z"></path>
                </g>
              </g>
              <path fill="rgb(234,191,189)" fill-rule="evenodd" d="M506.49228265 279.61355906c-1.47270437-3.26303618-1.88577998-6.82526924-2.98132836-10.20849562-.8518081-2.62884106-2.68370867-6.3368367-4.59257984-7.32137348-.02822256-.04347306-.05387943-.08950335-.08466767-.1329764 0 0-15.0092693-5.64126787-17.49285438-6.23966165-1.58046323 3.1786473-2.7760734 13.65053848-10.38333554 14.31286322-6.10890089.53190558-8.4667673-10.31845687-9.7932275-14.31286322l-20.1483405 4.9431418c-.00769706.01278618-.01282843.02812961-.0179598.0409158-.03335394.00255724-.06414218.00767172-.09236474.02045791-2.0038016.79018666-3.33282749 5.54153557-3.72537761 8.73808355-.46182367 3.74123975-.21551771 7.57198285-1.0724572 11.24161992-.00256568.01534343-.00769705.03068686-.01026274.0460303h70.94894429c-.1975579-.37079957-.38228737-.74671361-.5541884-1.12774213z"></path>
            </g>
          </g>
          <g>
            <path fill="rgb(239,240,244)" fill-rule="evenodd" d="M426.50442285 0h-72.79623897c-19.01430681 0-34.57006746 15.5045363-34.57006746 34.45622995V53.315863c0 18.95169364 15.55576065 34.45622994 34.57006746 34.45622994h1.61894853c-1.30080334 11.35669565-6.33211566 22.24541668-13.21585405 31.47193276 12.64883721-7.82514945 23.35288363-18.73432838 30.98067126-31.47193276h53.41247323c19.0143068 0 34.57006746-15.5045363 34.57006746-34.45622994V34.45622995C461.07705599 15.5045363 445.51872966 0 426.50442285 0z"></path>
            <g>
              <g>
                <path fill="rgb(23,22,66)" fill-rule="evenodd" d="M376.5479301 46.86139333c-.8543738-1.52922855-1.69848484-3.48551591-.68503845-4.9175694.44129817-.62140893 1.17508467-1.02033812 1.50862399-1.70312077.54135997-1.11495593-.20782065-2.40636131-.9903552-3.37044018-.78253456-.96152163-1.6882221-2.06113414-1.47270438-3.2783796.2591344-1.4652976 2.0602467-2.39357513 2.04485259-3.87933063-.01795981-1.77983791-2.5785155-2.62372658-2.81199302-4.3907783-.26683146-2.0253328 4.11023067-4.6899752 4.72599556-6.63859084 2.72732535-8.63067953 5.0159182-9.31090494 16.94379735-9.31090494 4.6592877 0 7.38661305 2.90246556 10.33971886 8.69205325 1.04680032 2.05346242.99292089 4.23222952 1.88577999 5.51852043.69786688 1.00243745 2.00893297 1.65709047 2.19622812 2.86154975.2001236 1.27606195-.9929209 2.35521655-1.17765036 3.63383574-.34636775 2.40124684 2.86587245 4.21177161 2.57081844 6.62069017-.24887165 2.03811899-2.93258032 3.30395198-2.7786391 5.35229993.06670787.86946105.6542502 1.61361742.83641399 2.4651778.18216378.85156038-.4361668 2.00231765-1.27258078 1.75426553l-31.8632676.59072206z"></path>
                <g>
                  <path fill="rgb(227,119,80)" fill-rule="evenodd" d="M416.20062361 71.79958202c.83897967-1.6391898-3.42519222-13.8985906-5.01078683-14.34866455-4.18720128-1.18400137-6.33981272-2.45750609-10.43978065-3.851201-.69786688-.23782317-1.426522-.49866149-1.9037398-1.00243745-.52083447-.55236349-.295054-14.14919996-.295054-14.14919996h-10.79641116s.22578046 13.59683647-.29505401 14.14919996c-.4746521.50377596-1.20330723.76461428-1.9037398 1.00243745-4.09996792 1.39625215-7.45075522 2.68765753-11.6405222 3.8716589-1.5855946.45007396-3.24559413.91549135-4.4206788 1.94350117-1.45987594 1.27350472-1.89860842 14.11339863-1.05962875 15.75258843l24.58441341 5.47760461 23.1809826-8.84548756z"></path>
                  <path fill="rgb(0,0,0)" fill-rule="evenodd" d="M398.50764564 46.19651135c-.02309118-3.74891146.04361668-7.7484323.04361668-7.7484323h-10.79641115s.1000618 6.06321221.01282844 10.25708315c3.8844502.71858399 7.53798858-.38358575 10.73996603-2.50865085z"></path>
                </g>
                <g>
                  <path fill="rgb(242,127,85)" fill-rule="evenodd" d="M404.13932874 22.66991825c0 3.6645226-.01539412 11.62520568-2.82995283 16.25892162-2.35273503 3.87421615-5.87542337 6.84572715-8.80030661 6.84572715-2.9171862 0-6.42961178-2.95361033-8.77978113-6.8099258-2.82738714-4.6362732-2.85047832-12.61741418-2.85047832-16.29216573 0-6.73065142 5.20834473-9.6280025 11.63025945-9.6280025 6.4219147 0 11.63025944 2.89479384 11.63025944 9.62544526z"></path>
                  <g>
                    <g>
                      <ellipse cx="404.139" cy="32.124" fill="rgb(242,127,85)" rx="3.058" ry="3.048"></ellipse>
                      <path fill="rgb(212,93,66)" fill-rule="evenodd" d="M404.97574272 30.54365522c.4361668.27106727.72608944.7594998.74148356 1.27350472.01282844.52934834-.26170008 1.0459105-.70299825 1.3399929-.23091184.15343431-.01539412.52679111.2180834.37335681.56701684-.37591404.93647578-1.02545259.91851597-1.71079247-.01795981-.66999646-.38998444-1.29396263-.95443559-1.64686152-.2386089-.15087707-.4566923.22247974-.22064909.37079956z"></path>
                    </g>
                    <g>
                      <ellipse cx="380.879" cy="32.124" fill="rgb(242,127,85)" rx="3.058" ry="3.048"></ellipse>
                      <path fill="rgb(212,93,66)" fill-rule="evenodd" d="M380.03983018 30.54365522c-.4361668.27106727-.72608944.7594998-.74148356 1.27350472-.01282844.52934834.26170008 1.0459105.70299825 1.3399929.23091184.15343431.01539413.52679111-.2180834.37335681-.56701684-.37591404-.93647577-1.02545259-.91851596-1.71079247.0179598-.66999646.38998443-1.29396263.95443558-1.64686152.2386089-.15087707.4566923.22247974.2206491.37079956z"></path>
                    </g>
                  </g>
                  <g>
                    <path fill="rgb(23,22,66)" fill-rule="evenodd" d="M380.5119166 17.31761832c2.516939-4.6567311 7.21471201-6.02485363 10.93239257-6.34195119 4.90815934-.41682985 12.43588518 1.80029582 13.43137176 4.79993644.99548658 2.99964062-.73635219 13.30019682-.73635219 13.30019682l-4.22055521-5.57477967h-15.53266947c-.20012359 1.36812254-1.08271994 2.63395553-1.77545544 3.87933063-.18472947.33244099-.36176188.68789712-.35149913 1.0663684.00769706.34266994.16933534.66488198.3566305.95384992.8312826 1.29140538 2.3014213 2.47540675 2.01663003 3.9841774-.10262748.54213453-.43103543 1.0126664-.61833058 1.53178578-.4746521 1.30930606-.01795981 2.77460365.63629039 4.0046353.6542502 1.23003167 1.51632105 2.37055999 1.9242653 3.70288118.40794424 1.3323212.23347752 2.98173996-.88259635 3.82307138h-4.81066324s-1.03397189-1.39880939-.73635219-3.44971457c.2976197-2.05090518-1.73953583-6.15783002-2.8735695-8.72274012-1.131468-2.5649101.55162271-2.15319472 1.59842303-11.38993975.25143733-2.24269806.8338483-4.07368074 1.64203972-5.56710795z"></path>
                    <path fill="rgb(23,22,66)" fill-rule="evenodd" d="M399.78792349 21.08698769c-.43103543.82854524-.55162272 1.77472344-.34893344 2.6851003.20525496.92316306.7517463 1.61361742 1.42139063 2.25548425.3181452.30431137.66194726.6060655.90568753.97686506.29248833.44751672.28479126.83621695.18986084 1.34766463-.18729515.99732297.24117459 1.76960896.90055616 2.49330742.6542502.71602675 1.98071041 1.78239515 1.40343082 2.88967937-.1770324.3401127.3386707.64186684.5157031.30175413.46438936-.88991896.05387943-1.83609716-.52083447-2.5649101-.5747139-.72881293-1.52145243-1.3323212-1.73183877-2.28872835-.11545591-.52167663.15394123-1.02545259.10262749-1.54968645-.041051-.40915815-.2206491-.77740047-.46695505-1.10472699-.5362286-.70579779-1.3264602-1.19678756-1.77545544-1.96907355-.5567541-.96152163-.58754234-2.18388158-.07440493-3.16841835.17446672-.34522718-.34123638-.64698131-.52083447-.30431137z"></path>
                    <path fill="rgb(23,22,66)" fill-rule="evenodd" d="M384.13466673 22.1866002c.54392566.66488197.38228737 1.61361741.11032454 2.35777378-.30788244.83877419-.8312826 1.58293056-1.09298268 2.44216265-.5182688 1.68777734.4336011 3.04311368 1.12633661 4.5032968.3591962.75694255.55418841 1.53434302.39511581 2.37311721-.16420397.86178934-.55162272 1.65709047-.79792867 2.49330742-.47465211 1.62128914-.12315298 3.39856981 1.16225623 4.56211327.34636776.31454033.82871693.56770693 1.03910326 1.00243745.20782066.43217329.06414218.933392-.15394122 1.3323212-.4772178.87201828-1.3675112 1.42949625-1.7831525 2.35010207-.15650692.34778442.35919618.65209579.5157031.30175413.377156-.83621695 1.15199348-1.37067977 1.64717109-2.1250651.43873248-.66488198.68247275-1.5727016.21038633-2.28872835-.24374027-.36824232-.60550214-.61117997-.93904146-.8924762-.336105-.28129621-.6157649-.61629444-.8338483-.99476572-.4541266-.7927439-.59780508-1.72102143-.41050992-2.61349763.18729515-.89503343.60037077-1.72102143.8338483-2.60326867.22064908-.84133143.2180834-1.68010562-.0795363-2.50353638-.55418841-1.54201474-1.88578-2.94593861-1.37520827-4.6848607.295054-1.0049947.95443558-1.86166955 1.23152979-2.87433595.24374027-.88480448.21295202-1.8258682-.38485306-2.55979562-.24117459-.29663965-.66194726.12786192-.42077268.42194433z"></path>
                    <path fill="rgb(23,22,66)" fill-rule="evenodd" d="M381.34833058 14.33587836c-2.62469786.96407887-3.12244115 4.05322284-4.05891693 6.3163788-.26683145.64442408-.59010802 1.265833-1.03910326 1.8054103-.42590405.51144768-.98265814.8924762-1.44191613 1.37323701-.40537855.42705881-.72865512.94873544-.68247275 1.55991542.04105099.53190558.35919618.95640715.7312208 1.31442052.38485307.36824233.86463655.68533989 1.13403369 1.15587175.26170008.45774567.20268928.95640716-.00256569 1.42182454-.45156092 1.0254526-1.3290259 1.81308201-1.68822208 2.88712213-.35406482 1.05613945.02822255 2.02021832.57984527 2.92548071.47978348.78762942 1.3290259 1.81052477.96982971 2.79506155-.24630596.67766817-.91851597 1.09194079-1.35468277 1.6391898-.43360111.54213454-.62602764 1.212131-.63115901 1.89747088-.00769707 1.49086998.69016981 2.95616757.36689325 4.44703755-.082102.37591404.5131374.43473052.5952394.06393096.28222557-1.29396262-.17446673-2.57513905-.32584226-3.85375824-.07440493-.6188517-.06670787-1.26839024.23091183-1.83353992.2976197-.56770692.84667673-.94362097 1.2494896-1.42693902.73122081-.87969.6337247-1.90258535.1205873-2.8589925-.47208643-.87969001-1.25462098-1.72869315-1.34698571-2.75926022-.18729516-2.03556175 2.99672248-3.55200411 1.7446672-5.66172578-.2770942-.46541738-.71069532-.79530113-1.10581113-1.15587175-.39255012-.35545613-.79023161-.80297285-.64398745-1.373237.14624416-.58049312.713261-1.0049947 1.13916506-1.3783515.50030897-.439845.9493042-.90270514 1.30336902-1.47041206.80819143-1.30419158 1.131468-2.80784775 1.71131327-4.20921438.53109722-1.2862909 1.32389453-2.57769629 2.69140573-3.08147225.36176188-.12786192.11289023-.6725537-.24630596-.5395773z"></path>
                  </g>
                </g>
                <path fill="rgb(227,119,80)" fill-rule="evenodd" d="M368.33260012 87.74652057c4.1846356-8.63323678 8.22559272-17.42757957 8.22046135-19.53218676.34636775-7.04007726-5.534187-9.33647733-5.534187-9.33647733-2.82738714-.6597675-9.11075475 9.6280025-10.84002783 15.60171137-.85950516 2.96895376-2.46819095 8.07831604-4.1230591 13.26950996h12.27681258v-.00255724z"></path>
                <path fill="rgb(227,119,80)" fill-rule="evenodd" d="M415.61051559 87.74652057h11.74314968c-2.24754187-6.05809773-4.64902496-12.6327576-5.89851456-16.05434256-2.0807722-5.70008435-8.55400066-15.24369799-10.9657465-14.3588935 0 0-4.92868484 2.74391678-3.95885513 9.60754459.21038634 2.22224015 4.73369263 11.9192881 9.07996651 20.80569147z"></path>
                <g>
                  <path fill="rgb(249,202,107)" fill-rule="evenodd" d="M374.33117647 87.74652057h36.77142695c-.62089626-4.50585403-.98265814-9.05006663-1.08015425-13.59683647-.1180216-5.45970395.5541884-11.07028496 2.12695458-17.07979515l-3.96142083-1.17377242c-1.37520826 6.21153203-3.00441954 13.60450819-3.61248738 18.83406068-.03078824.26339555-17.6288358.1866784-26.85761215.19690735-.69016982-6.27546298-1.7446672-11.7530676-3.19941176-17.95437067l-4.14871598 1.58804504c2.94540874 9.69960517 4.09996792 19.40432483 3.96142082 29.18576164z"></path>
                  <g>
                    <path fill="rgb(230,230,230)" fill-rule="evenodd" d="M387.91392377 80.77804598c.3566305-.23782317.0205255-.81831628-.3386707-.57793587-.14880984.0997323-.33097362-.08950335-.44129817-.18412117-.14624416-.12530468-.29248832-.24805212-.4746521-.32221203-.33353932-.1329764-.66194726-.04347306-.9313444.1738922-.19242654.15599155-.38998444.5063332-.64911883.55492073-.23604321.04347306-.47978348-.2531666-.63885608-.38358575-.2386089-.19690736-.50030898-.38358576-.82358555-.39637195-.30275107-.0127862-.56701684.1329764-.78253455.33244099-.20268928.1866784-.35149913.4603029-.57984528.61629445-.24630595.1662205-.44642954-.13809087-.6337247-.2736245-.6337247-.45774568-1.61894854-.20457908-1.94735648.50889043-.1795981.38870023.40024718.72881294.57984528.33755547.12315298-.26851003.39255012-.439845.69530119-.41171538.32584226.0332441.5157031.35545613.80049436.48587529.62346196.28385346 1.04423464-.23015146 1.41882495-.64186684.13598141-.15087706.30018538-.3401127.52083447-.26595279.26426577.08950335.4746521.36312785.69786688.52423387.24117459.17644945.52853154.28385346.8312826.22503698.31557952-.06137372.54135998-.29408242.7568777-.51656215.08466767-.0869461.19242652-.23015146.31814519-.25828108.16676966-.03835858.3181452.14064811.43360111.2403804.32584226.278739.78253455.5063332 1.18791311.2327087z"></path>
                    <path fill="rgb(230,230,230)" fill-rule="evenodd" d="M398.74882023 87.74652057c.1385471-.1662205.3181452-.3068686.53109722-.2864107.22834615.0204579.43360111.17133497.64655314.2864107h1.0108807c.04618237-.02812962.08979905-.05881648.13085004-.09461782.18472947-.15854878.336105-.49610425.58497665-.5600352.2386089-.05881649.54905703.13041915.76714043.20969354.27196283.09717506.56701684.1534343.83897967.03068686.13598141-.06137372.24117458-.1534343.32840794-.27106727.11289023-.14831982.16420398-.3528989.35406482-.42194433.37202462-.13809087.76714043.18156392 1.03910326.39381471.336105.26083831.8133228-.2071363.4746521-.4730891-.35919618-.27873898-.73635218-.56514968-1.20587291-.60862274-.418207-.03835857-.82358555.12274745-1.05706307.47820358-.07440493.11507573-.1180216.28385346-.26426577.30942585-.1205873.0204579-.27965989-.06137373-.39255012-.10484678-.32071088-.1201902-.64911883-.26339555-1.00061795-.19690735-.36689325.06904543-.56701685.34522718-.80049437.60350825-.08723336.09717506-.17446672.19179288-.3155795.18412117-.15650692-.01022896-.32327658-.13809087-.45925799-.20969355-.35919619-.18923564-.72865513-.30175413-1.12377093-.14320535-.38485306.1534343-.65938158.4858753-.86720223.83365971-.00769706.0127862-.01282843.02812963-.0205255.04091582h.80049437z"></path>
                  </g>
                </g>
              </g>
              <g>
                <path fill="rgb(242,127,85)" fill-rule="evenodd" d="M369.14335723 87.74652057c3.57400208-7.99392718 7.2993797-16.40468422 8.57452616-19.0616549 1.47013869-4.1376117-3.40466673-5.2909262-4.88763385-2.57769628-.92108165 1.6852201-7.67910137 12.73760437-13.22868248 21.63935118h9.54179017z"></path>
                <g>
                  <g>
                    <path fill="rgb(242,127,85)" fill-rule="evenodd" d="M376.04505543 60.75486946c-1.8652545 1.17121517-4.77217794 5.95325095-3.55860796 8.28800959 1.2110043 2.36800274 6.35777254 1.34255015 8.22559272-.05625925 1.84216331-1.32209224 1.47783575-4.75390615.1975579-6.87385676-1.25718666-2.21968292-3.00698523-2.45239161-4.86454266-1.35789358z"></path>
                    <path fill="rgb(242,127,85)" fill-rule="evenodd" d="M377.74610595 60.13601777s4.01016887-.36568509 8.17941035 2.12762233c2.38608896 1.80285306 1.69848483 3.45227182-.34636776 1.92815774-2.04485258-1.52155684-4.92098778-1.08682631-6.1448205-.65465303-1.22126705.43728777-2.1833997-2.39613236-1.6882221-3.40112704z"></path>
                  </g>
                  <path fill="rgb(170,89,60)" fill-rule="evenodd" d="M381.38681589 63.05894124c-.4156413-.0460303-.83641398-.07415992-1.25462098-.08950335-.31301382-.01022895-.62859333-.01278619-.94160715.01534343-.32584225.03068687-.62602764.13809088-.92621303.29408242-.295054.1534343-.58497665.33499823-.85437379.54980625-.08723336.06904544-.00513137.2403804.0795363.17133497.4951776-.39125747 1.0698915-.74927084 1.66256522-.8132018.58754233-.06393096 1.1879131-.02045791 1.77545544.02557238.15394123.0127862.30788245.02557238.45925799.04347305.10262748.0127862.1000618-.18412116 0-.19690735z"></path>
                  <path fill="rgb(170,89,60)" fill-rule="evenodd" d="M381.81785131 64.7953061c-.4156413-.0460303-.83641398-.07415991-1.25462097-.08950334-.31301382-.01022896-.62859333-.0127862-.94160715.01534343-.32584226.03068686-.62602764.13809087-.92621303.2940824-.29505401.15343431-.58497665.33499824-.85437379.54980626-.08723336.06904544-.00513137.2403804.0795363.17133497.4951776-.39125747 1.0698915-.74927084 1.66256521-.8132018.58754234-.06393096 1.18791311-.02045791 1.77545545.02557238.15394122.0127862.30788245.02557239.45925798.04347305.10262749.01022896.10262749-.1866784 0-.19690735z"></path>
                  <path fill="rgb(170,89,60)" fill-rule="evenodd" d="M381.820417 66.67231907c-.40281287-.0460303-.80562574-.07415991-1.2084386-.08950334-.30275108-.01022896-.60550215-.0127862-.90825322.01534343-.31557951.03068686-.60293646.13809087-.8928591.29408241-.28479127.1534343-.56445115.33499823-.82358555.54980625-.08210198.06904544-.00513137.24038041.07697061.17133497.4772178-.39125747 1.0314062-.74927084 1.60098873-.8132018.56701684-.06393096 1.14429643-.0204579 1.71131327.02557238.14880985.0127862.29505401.02557239.44386386.04347306.0974961.01022895.0974961-.1866784 0-.19690736z"></path>
                </g>
              </g>
              <path fill="rgb(242,127,85)" fill-rule="evenodd" d="M407.94937403 87.74652057h11.98432426c-8.20506722-6.85851334-18.8372744-15.9111372-20.29715034-17.28181698-2.25523893-2.11739338-6.52967357.48843253-3.84083353 3.96627673 1.81907213 1.89491364 6.9016982 7.52339531 12.1536596 13.31554025z"></path>
              <g>
                <path fill="rgb(23,22,66)" fill-rule="evenodd" d="M386.70805085 78.4944321h8.75925563c1.25975234 0 2.29115854-1.02800982 2.29115854-2.28361387V60.00559861c0-1.25560404-1.0314062-2.28361387-2.29115854-2.28361387h-8.75925563c-1.25975235 0-2.29115854 1.02800983-2.29115854 2.28361387v16.20521962c.00256568 1.25560405 1.0314062 2.28361388 2.29115854 2.28361388z"></path>
                <g>
                  <path fill="rgb(242,127,85)" fill-rule="evenodd" d="M401.3119416 70.33684167c1.92683098.84900314 4.46429549 5.2372242 2.71962829 7.89419488-1.7472329 2.69277202-7.41483561 2.63651277-9.31087835 1.5522437-1.87808293-1.01010916-.92108165-4.63883042.86463654-7.08610755 1.77545545-2.54700943 3.79721685-3.13005978 5.72661352-2.36033103z"></path>
                  <path fill="rgb(242,127,85)" fill-rule="evenodd" d="M397.71228265 70.8585183c-.42333836-.2199225-2.88126656-1.38346596-5.24683003-3.32952437-2.37326054-1.82075373-4.65159065-4.42146516-4.89533092-4.59280013-.56188546-.33499823-.97496108.08950334-.04105099 1.373237.4566923.64953855 2.42713996 2.99708339 4.4796896 4.69253244 2.0448526 1.78495239 4.17180717 2.92036623 4.78500638 3.24769274 1.23666116.58560759 1.9422251-.95384992.91851596-1.39113768z"></path>
                  <path fill="rgb(242,127,85)" fill-rule="evenodd" d="M396.38582244 72.25477046c-.44129817-.24038041-3.0121166-1.51388513-5.43412519-3.70288118-2.4374027-2.04067623-4.72599557-4.9968438-4.96460446-5.170736-.51826879-.31454033-.94160715.21480802-.00256569 1.69033456.45925798.74927085 2.4399684 3.42669943 4.54639747 5.34207098 2.09360064 2.02021832 4.30778858 3.27582237 4.94664465 3.63639298 1.29310628.64186683 1.98071042-1.32209224.90825322-1.79518134z"></path>
                  <path fill="rgb(242,127,85)" fill-rule="evenodd" d="M395.51348884 74.32869078c-.4361668-.23782317-2.97876267-1.47808378-5.33919477-3.67219431-2.3809576-2.04067623-4.58231709-5.03264514-4.80809755-5.22188078-.50030898-.35034165-.88516204.41171538.0205255 1.93071498.44129817.76972875 2.35530072 3.50597382 4.41041605 5.44436051 2.03972122 2.05090519 4.2256866 3.303952 4.8568456 3.66707984 1.28027785.6393096 1.9242653-1.68522009.85950517-2.14808024z"></path>
                  <path fill="rgb(242,127,85)" fill-rule="evenodd" d="M395.02857399 77.54313943c-.34893344-.16877774-2.32707816-1.05102498-4.18206991-2.52655152-1.86782018-1.37835149-3.61248738-3.34998228-3.79721685-3.4906304-.6131992-.42194433-.71839238.65721027.01026275 1.69544905.65938157 1.48319826 6.51427945 6.23710442 7.66114156 6.55931645 1.1494278.32732651 1.14173074-1.8923564.30788245-2.23758358z"></path>
                </g>
                <path fill="rgb(242,127,85)" fill-rule="evenodd" d="M401.81481626 70.62836685l-4.05635124-4.2578019v3.06357157l1.40086514 2.32452969 2.6554861-1.13029936z"></path>
              </g>
            </g>
          </g>
          <g>
            <path fill="rgb(239,240,244)" fill-rule="evenodd" d="M157.27405113 27.96851617H50.63896552C22.78843247 27.96851617 0 50.68190747 0 78.44328734v27.62584623c0 27.76137986 22.78843247 50.47221392 50.63896552 50.47221392h46.29269163c3.75616586 12.38214825 9.7752677 24.08407108 17.69810935 34.3334825-2.95823718-7.98625546-3.0557333-16.79849892-1.6471711-25.19646976.5182688-3.08402949 1.2315298-6.12714316 2.06537809-9.13701274h42.22607764c27.85309874 0 50.63896552-22.7133913 50.63896552-50.47221392V78.44328734c0-27.76137987-22.78843247-50.47477117-50.63896552-50.47477117z"></path>
            <g>
              <path fill="rgb(23,22,66)" fill-rule="evenodd" d="M87.3847356 112.19116225c-1.25462097-2.24269806-2.49128214-5.11447676-1.00574933-7.21141223.64655314-.9129341 1.7241417-1.49598446 2.21162225-2.50097914.7927973-1.63663256-.30275107-3.5315462-1.45217888-4.94314179-1.14686211-1.41159559-2.4784537-3.02265577-2.1603085-4.8101654.37972168-2.14808023 3.02237936-3.5110883 2.99928817-5.69241263-.02565687-2.61094039-.4156413-13.16722042-.89799047-15.73468776-1.6266456-8.6485802 2.80429596-12.1059665 3.7074178-14.964959 3.99990613-12.66344447 7.36095618-13.6582102 24.85894193-13.6582102 6.83755602 0 10.83746215 4.26035915 15.1709076 12.7529478 1.53684654 3.00986958 1.12120524 3.89978854 1.53684654 6.15271555.82101986 4.45470926.06414218 8.5411762.6542502 10.23151077 2.28346149 6.52607234 2.3399066 13.88324717 2.07050946 15.7577029-.50800604 3.52387449 4.2051611 6.17828793 3.77412567 9.71239137-.36432756 2.98941167-4.30009152 4.84596673-4.07431105 7.85072183.09493042 1.27350471.95956696 2.3654455 1.22639841 3.61593507.26683146 1.25048957-.63885608 2.93570966-1.86782018 2.57258181l-46.75194962.86946105z"></path>
              <g>
                <path fill="rgb(201,115,79)" fill-rule="evenodd" d="M147.37563045 137.99114028c1.31876315-2.57513905-3.91010708-21.79022825-6.40138921-22.49602604-6.57585594-1.8591123-11.41730742-3.88700234-17.85718194-6.07855563-1.09554838-.3733568-2.2398448-.78251495-2.98645974-1.5727016-.81845418-.86690382-.46438936-22.21472982-.46438936-22.21472982h-16.94892872s.35406481 21.347826-.46438936 22.21472981c-.74661494.79018666-1.89091137 1.1993448-2.98645974 1.5727016-6.43987452 2.1915533-11.699533 4.2168861-18.27282325 6.07855564-2.49128213.7057978-5.0954545 1.4397252-6.94274918 3.05078539-2.29115855 1.99720317-2.98132837 22.15847057-1.66256522 24.73105238l38.59563046 8.59999268 36.39170526-13.88580441z"></path>
                <path fill="rgb(0,0,0)" fill-rule="evenodd" d="M119.59693665 97.7964674c-.03591962-5.88676275.06927355-12.16478297.06927355-12.16478297h-16.94892872s.1590726 9.52059849.0179598 16.10293008c6.09863815 1.12774213 11.83294873-.60350826 16.86169537-3.9381471z"></path>
              </g>
              <path fill="rgb(201,115,79)" fill-rule="evenodd" d="M62.84137318 156.53623302h19.43764517c1.89091136-12.16478298 3.25585688-23.0662902 2.46305958-25.70791745-2.62726355-10.75318739-12.50515874-11.5996333-12.50515874-11.5996333-4.54896315.26083832-9.40837445 18.53997827-9.34166658 28.29839993.01539412 2.31685797-.00769706 5.44436051-.05387943 9.00915082z"></path>
              <path fill="rgb(197,201,221)" fill-rule="evenodd" d="M150.22867447 117.07293032c-1.56506911-1.30674881-5.3956399-2.08926376-8.20763291-2.50609361-6.83755602-2.12250786-19.19903628-5.70519883-19.19903628-5.70519883 0 1.88979916-5.99601066 27.3368783-10.91443275 27.2703901-5.24939573-.06904544-11.66874476-25.6184141-12.14083117-27.7434792l-22.99881882 8.23430759c-2.83764989.386143-7.20958064 1.1865586-8.90806547 2.6058259-2.27833011 1.9051426-7.20701495 30.23167215-8.40519081 37.3049935h98.1529242c-.00321994-.00255723-4.77492066-37.28212667-7.378916-39.46074545z"></path>
              <g>
                <path fill="rgb(255,255,255)" fill-rule="evenodd" d="M122.62701307 108.38854878s2.935146.76972875 3.83570215 2.19666777c.90312185 1.42438178-2.27319873 31.0218588-2.27319873 31.0218588s-4.46429549-6.9429022-6.77341384-6.4161111c-2.38352328.54469178-5.50853012.94106373-5.50853012.94106373s6.03449596-9.4336524 7.76120336-15.22835456c2.12952026-7.16026747 2.95823718-12.51512464 2.95823718-12.51512464z"></path>
                <path fill="rgb(255,255,255)" fill-rule="evenodd" d="M100.68269164 108.36041916s-2.935146.76972875-3.83570216 2.19666777c-.90312184 1.42438177 2.27319874 31.0218588 2.27319874 31.0218588s4.80040049-6.53374407 7.16852964-6.53374407c2.36812916 0 5.11341432 1.0586967 5.11341432 1.0586967s-6.03449597-9.4336524-7.76120336-15.22835457c-2.12952026-7.1628247-2.95823718-12.51512463-2.95823718-12.51512463z"></path>
              </g>
              <g>
                <path fill="rgb(201,115,79)" fill-rule="evenodd" d="M127.86614604 62.18436571c0 5.37787232-.02309118 17.05678-4.15384735 23.85136238-3.45341478 5.68218368-8.61814283 10.04227512-12.91053729 10.04227512-4.27956601 0-9.43403132-4.33451905-12.88231473-9.99113035-4.14871598-6.8022541-4.17950422-18.51184864-4.17950422-23.90250715 0-9.87349739 7.63805038-14.12618482 17.06181895-14.12618482 9.42376858 0 17.06438464 4.25268743 17.06438464 14.12618482z"></path>
                <g>
                  <g>
                    <ellipse cx="127.864" cy="76.048" fill="rgb(201,115,79)" rx="4.487" ry="4.473" transform="rotate(-23.893009 127.86388588 76.04760723)"></ellipse>
                    <path fill="rgb(173,67,40)" fill-rule="evenodd" d="M129.09254446 73.73285424c.63885608.39892919 1.06732582 1.11495593 1.08528563 1.86934126.0205255.77740046-.38228738 1.53434303-1.0314062 1.96395907-.3386707.22503698-.0205255.772286.32071088.54724902.8338483-.54980626 1.37264258-1.50621341 1.3469857-2.5112081-.02565686-.98197953-.56958252-1.89747087-1.40086513-2.41659026-.34636775-.21736527-.66707863.32988375-.32071088.54724901z"></path>
                  </g>
                  <g>
                    <ellipse cx="93.745" cy="76.05" fill="rgb(201,115,79)" rx="4.488" ry="4.473" transform="rotate(-13.791681 93.7448152 76.05039142)"></ellipse>
                    <path fill="rgb(173,67,40)" fill-rule="evenodd" d="M92.51097835 73.73285424c-.63885608.39892919-1.06732582 1.11495593-1.08528563 1.86934126-.0205255.77740046.38228737 1.53434303 1.0314062 1.96395907.3386707.22503698.0205255.772286-.32071088.54724902-.8338483-.54980626-1.37264258-1.50621341-1.34698571-2.5112081.02565687-.98197953.56958253-1.89747087 1.40086514-2.41659026.34636775-.21736527.66707863.32988375.32071088.54724901z"></path>
                  </g>
                </g>
                <path fill="rgb(23,22,66)" fill-rule="evenodd" d="M93.20114817 54.33108664c3.69202368-6.83038371 10.58602481-8.84037308 16.03810981-9.30323323 7.1993179-.61117997 18.2446007 2.63907001 19.70704232 7.0426345 1.46244162 4.40100726-1.08015426 19.51172885-1.08015426 19.51172885l-9.13384593-12.64042932c-3.00955092 3.03032749-14.32679655 4.88943979-21.92379594 4.88943979-.295054 2.00743213.65938158 12.22359946.1385471 17.18464192-.4361668 4.14272618-1.19561016 7.22164119-.66194726 10.60231033.35149913 2.22479739 3.37644418 3.6312785 2.95823719 5.84584694-.14880985.79530113-.63115902 1.4857555-.90825322 2.24781253-.69786688 1.92048603-.02822256 4.0711235.93391009 5.8765338.96213264 1.8054103 2.22445068 3.4778442 2.82225576 5.43157432.59780509 1.95373013.34123638 4.37543487-1.29567196 5.60802377h-7.0582051s-3.3918383-3.25280722-2.95054013-6.2626768c.4387325-3.00986957 2.95054012-6.40588214 0-12.3463469-1.83190056-3.6849805-3.0711274-21.81835786-1.53684655-35.37172128.37459031-3.2911658 2.76581066-6.12458592 3.95115808-8.31613922z"></path>
              </g>
              <g>
                <g>
                  <path fill="rgb(201,115,79)" fill-rule="evenodd" d="M54.32842351 125.39418401c2.01406434 3.50085935 1.44191613 10.65089786-2.90948913 13.1390908-4.35140525 2.48819295-10.83233077-.63675235-12.8463951-4.13505446-2.01406435-3.50085934 1.20330722-6.05298324 5.55471248-8.53861895 4.35140525-2.48819295 8.1871074-3.96627673 10.20117175-.46541739z"></path>
                  <path fill="rgb(201,115,79)" fill-rule="evenodd" d="M54.81333837 126.35059117s-2.8581754-8.81991518-3.9665522-11.64566359c-1.10837681-2.82574841-3.26355394-.79785837-2.6554861 2.38590341.91595027 4.79226473 1.14173073 7.4620216 2.28089579 8.54373343 1.13403368 1.0791546 4.94921034 2.58281077 4.3411425.71602675z"></path>
                  <path fill="rgb(201,115,79)" fill-rule="evenodd" d="M48.60437568 124.21018264c-.9313444-1.51644236-10.13959527-16.51464546-10.98114062-16.91357465-.89542479-.42450157-2.04998396.20457907-1.090417 2.07136309.95956696 1.86678402 8.36413982 14.54045743 9.64954903 16.77804102 1.2879749 2.23758358 3.5098599-.1662205 2.42200859-1.93582946z"></path>
                  <path fill="rgb(201,115,79)" fill-rule="evenodd" d="M45.59739044 125.80845663c-.98009245-1.59571675-10.65786405-17.38922099-11.55328883-17.79326465-.89029341-.40148643-2.15517713.21480802-1.14686212 2.1787671 1.0108807 1.96395907 8.79774093 15.2974 10.1524237 17.6500593 1.35211708 2.35265931 3.69202368-.1738922 2.54772725-2.03556175z"></path>
                  <path fill="rgb(201,115,79)" fill-rule="evenodd" d="M42.91368178 128.2915351c-.98009246-1.59571675-10.7066121-17.29716041-11.55328884-17.79326466-.8518081-.49866148-2.15517713.21480803-1.14686211 2.1787671 1.0108807 1.96395908 8.79774093 15.2974 10.1524237 17.65005931 1.35211708 2.35521655 3.69202368-.1738922 2.54772725-2.03556175z"></path>
                  <path fill="rgb(201,115,79)" fill-rule="evenodd" d="M40.24793292 132.10693476c-.77740318-1.265833-8.5847889-13.59683647-9.16463418-14.11595586-.92364734-.82343076-1.71131327.17133497-.90825322 1.72869315.80306005 1.55735817 6.9786688 12.13409611 8.05369168 14.00088013 1.0724572 1.86934126 2.92744894-.13553363 2.01919572-1.61361742z"></path>
                </g>
                <path fill="rgb(151,86,59)" fill-rule="evenodd" d="M48.32471579 134.52352503c-.9339101-2.98941166-.65681589-6.2626768.7927973-9.04495215.2565687-.49098977-.48491485-.92827753-.74404925-.43728776-1.55480636 2.97918271-1.88834567 6.49538548-.88259635 9.7072769.16420398.5267911.99805227.30431136.8338483-.22503699z"></path>
              </g>
              <path fill="rgb(201,115,79)" fill-rule="evenodd" d="M50.49015567 156.53623302h10.75279447c-3.95628945-9.63055975-7.4174013-18.2024228-8.03573187-19.96436004-1.4496132-4.11971103-8.51551536-3.61849231-7.40970424 2.48819294.80819143 2.75414574 2.61443512 9.58197222 4.69264164 17.4761671z"></path>
            </g>
          </g>
        </g>
      </g>
      <g>
        <g>
          <path fill="rgb(93,106,177)" fill-rule="evenodd" d="M470.99600217 262.8534187l6.24231662-.23015145-2.64778905 8.49003143h-7.18905514l-2.64778905-8.49003143 6.24231662.23015146z"></path>
          <path fill="rgb(93,106,177)" fill-rule="evenodd" d="M475.74252323 280.74130118l-1.15199349-9.77376509h-7.18905514l-.98522383 9.7737651h9.32627246z"></path>
        </g>
        <path fill="rgb(255,255,255)" fill-rule="evenodd" d="M478.61096137 254.22785365s.1590726 3.5443324-.4772178 4.73344824c-.70043256 1.30163434-6.37316666 3.86142996-6.37316666 3.86142996s5.66503703 2.72345887 6.01910185 3.73612527c.35406481 1.0126664 2.9736313 5.50829148 2.9736313 5.50829148s5.0980202-12.28241595 5.02618095-14.6248463c-.07183923-2.34243036-5.66503703-3.73612528-5.66503703-3.73612528l-1.50349261.52167663z"></path>
        <path fill="rgb(255,255,255)" fill-rule="evenodd" d="M463.21427331 254.22785365s-.1590726 3.5443324.4772178 4.73344824c.70043257 1.30163434 6.37316666 3.86142996 6.37316666 3.86142996s-5.66503703 2.72345887-6.01910185 3.73612527c-.35406481 1.0126664-2.9736313 5.50829148-2.9736313 5.50829148s-5.0980202-12.28241595-5.02618095-14.6248463c.07183923-2.34243036 5.66503703-3.73612528 5.66503703-3.73612528l1.50349261.52167663z"></path>
      </g>
    </g>
  </g>
</svg>
