<svg xmlns="http://www.w3.org/2000/svg" xmlns:xlink="http://www.w3.org/1999/xlink" width="987.88" height="693.9" viewBox="0 0 987.88 693.9">
  <defs>
    <rect id="rect-1" width="987.88" height="693.9" x="0" y="0"/>
    <mask id="mask-2" maskContentUnits="userSpaceOnUse" maskUnits="userSpaceOnUse">
      <rect width="987.88" height="693.9" x="0" y="0" fill="black"/>
      <use fill="white" xlink:href="#rect-1"/>
    </mask>
    <radialGradient id="radialGradient-10" cx="432.342" cy="926.394" r="850.437" gradientUnits="userSpaceOnUse">
      <stop offset="0" stop-color="rgb(226,0,129)"/>
      <stop offset=".546" stop-color="rgb(255,176,72)"/>
      <stop offset="1" stop-color="rgb(255,252,159)"/>
    </radialGradient>
  </defs>
  <g>
    <use fill="none" xlink:href="#rect-1"/>
    <g mask="url(#mask-2)">
      <path fill="rgb(251,188,27)" fill-rule="evenodd" d="M100.48237337 590.26688857s46.01054487-18.97403458 66.76952906 27.20316322c20.75898418 46.17719781 24.53190178 36.75360348 66.04987015 15.07880799 41.51796838-21.6747955 43.40178137 35.81282961 66.04987016 22.14518242 22.6480888-13.6676472 27.83386613-47.59364385 67.4627299-47.59364385 39.62886378 0 38.68695728 70.67960013 79.25772755 47.59364385 40.57077027-23.09124153 60.8588012-43.81997791 90.58177194-12.7215881 29.72297073 31.09838983 35.38499293 38.64043645 75.0138567 32.9852228s43.40178137 16.48996877 43.40178137 16.48996877H0l100.48237337-101.1807571z"/>
      <path fill="rgb(255,255,255)" fill-rule="evenodd" d="M255.78582148 237.6141077h-188.561214c-11.74737316 0-20.7060681-10.50706984-18.8222551-22.08704471 2.36005784-14.49214563 10.25513926-31.63219971 33.63876178-36.4946264 22.24063485-4.62987585 35.30032718.8773509 42.70858052 7.2090761 5.80489565 4.95756112 13.98043238 5.80848579 20.78015062 2.3360789 7.3870869-3.77366593 17.60518491-5.10554802 28.93981252 4.66158733 22.66396362 19.52898545 1.3334856 28.40291416 61.76366644 28.40291416s42.66095604 15.97201462 19.55249722 15.97201462z"/>
      <path fill="rgb(255,255,255)" fill-rule="evenodd" d="M625.34124786 21.30482824h-66.61607238c-4.14862187 0-7.31300437-3.71024297-6.64626157-7.80102369.8360743-5.12140376 3.62475253-11.17301089 11.884955-12.89600121 7.85804016-1.63314114 12.47232367.31182953 15.08637878 2.54748876 2.04785288 1.74941656 4.93707169 2.0506756 7.33946241.82449844 2.6087635-1.3318821 6.2176412-1.80226902 10.22338962 1.64371163 8.00620522 6.89724655.47095325 10.03668292 21.8225977 10.03668292 21.35164446 0 15.07050394 5.64464315 6.90555044 5.64464315z"/>
      <path fill="rgb(255,255,255)" fill-rule="evenodd" d="M898.06551144 109.11391195H751.97475553c-9.1015684 0-16.0441601-8.13927946-14.58367587-17.11362785 1.82560529-11.22586335 7.9427059-24.50768756 26.06117694-28.27606824 17.22948063-3.58339706 27.34703805.68179678 33.0884344 5.58650544 4.4978681 3.84237414 10.8319247 4.4977447 16.09707618 1.80755427 5.72552152-2.92274126 13.64176937-3.9533643 22.42054958 3.6098233 17.55756043 15.13166044 1.03186386 22.007766 47.85202499 22.007766 46.83074434 0 33.05668473 12.37804708 15.1551697 12.37804708z"/>
      <g>
        <g>
          <g>
            <path fill="rgb(251,188,27)" fill-rule="evenodd" d="M227.55508463 408.253573c-68.56338468 1.36359358 3.26492308 83.61788332-24.50544373 83.18977836-19.6001217-6.5272793-35.93002871 10.87175185-23.41008056 34.24839668 12.51994814 23.37664483-8.1649535 14.67712925-15.23983545 38.05905933-7.07488194 23.37664484 7.64637577 95.42512377 63.15535974 93.38501866V408.25357301z"/>
            <path fill="rgb(251,188,27)" fill-rule="evenodd" d="M227.55508463 657.13054079V408.253573c72.31513584-.75579024 16.56273783 71.44596085 33.73401076 69.04645898 13.05969232-1.65428212 29.93992672 14.13803412 22.320009 32.0761604-7.61991773 17.94341154-32.65981402 59.80784828-14.69479967 55.4580905 66.89123608-1.45344277 8.61474032 101.6141473-41.35922009 92.2962579z"/>
            <path fill="url(#radialGradient-10)" fill-rule="evenodd" d="M274.46520312 584.66452738c-1.0001142-.98834107-2.61934672-.98834107-3.6088777 0-9.7206867 9.71428289-31.29457876 31.26751771-40.750685 40.70168254v-93.96639577l30.16217433-30.12590448c1.0001142-.98834108 1.0001142-2.61619697 0-3.60453805-.98953098-.98834108-2.61934672-.98834108-3.6088777 0l-26.55329662 26.52136644v-40.9818006c0-1.40059029-1.15357088-2.552774-2.5558474-2.552774-1.39698492 0-2.5505558 1.15218371-2.5505558 2.552774v59.65986138c-4.61428351-4.6245906-21.52626757-21.48981186-26.4315896-26.39980577-2.30714176-2.36250514-5.97951877 1.29488537-3.6088777 3.6098233 7.06429872 7.04523344 23.18783296 23.17052021 30.0404673 29.99377332v40.93951862l-26.4315896-26.39980577c-2.30714176-2.3572199-5.97951877 1.29488536-3.6088777 3.60453804l30.0404673 30.00434382v86.42434915c0 1.39530505 1.15357088 2.54748877 2.5505558 2.54748877 1.40227652 0 2.5558474-1.15218372 2.5558474-2.54748877v-52.07024754l44.35956269-44.30622058c.98953098-.99362633.98953098-2.61619697 0-3.60453805z"/>
          </g>
          <g>
            <path fill="rgb(90,90,223)" fill-rule="evenodd" d="M263.2836914 484.45605469c-15.28747558-28.55078125 4.65661622-49.79760742 28.59057618-41.82739258 13.14337158.20263672 8.02209472-14.7565918 1.68927002-33.25488281-10.01000977-29.23950196-23.04718018-67.32104493 28.23480224-68.34326172v303.9543457c-67.79614257 2.4946289-85.77172851-85.49951172-77.1305542-114.05029297 3.67773438-12.15136719 10.36712647-17.20654297 15.65948487-21.20654297 7.14257812-5.39794921 11.74047851-8.87255859 2.9564209-25.27197265z"/>
            <path fill="rgb(90,90,223)" fill-rule="evenodd" d="M318.80359937 644.9903298V341.03580928c88.31696307-.92491812 20.22453163 87.25941808 41.2004718 84.33139157 15.94891113-2.01896412 36.56502186 17.2669 27.2570807 39.17424633-9.30794117 21.91263158-39.88815264 73.04210526-17.94913953 67.73043263 81.70245115-1.78112804 10.52501136 124.09230025-50.50841297 112.71845z"/>
            <path fill="rgb(71,71,193)" fill-rule="evenodd" d="M376.09056415 556.48359357c-1.2170702-1.21032142-3.19613216-1.21032142-4.40791074 0-11.87437179 11.86537817-38.21600403 38.18590525-49.76758763 49.7077424V491.42749562l36.84018555-36.79588544c1.21707019-1.21032143 1.21707019-3.19228883 0-4.40261026-1.21177858-1.21032142-3.19613216-1.21032142-4.40791074 0l-32.43227481 32.3932752V432.5709917c0-1.71241984-1.40756814-3.11829538-3.12204962-3.11829538-1.70389827 0-3.1114664 1.40587554-3.1114664 3.11829538v72.86769213l-8.29724375-8.28726636-23.9815744-23.95273669c-1.20119536-1.21032142-3.20142376-1.21032142-4.40791073 0-1.21177858 1.21560668-1.21177858 3.19228883 0 4.41318075l23.97628278 23.94745144c2.78338661 2.79589535 9.84768534 9.82527306 12.7157377 12.68987661v49.99843095l-32.27881813-32.24000304c-2.81513627-2.8804593-7.30242116 1.58028867-4.40791074 4.40261025l36.68672887 36.6426133v105.54637063c0 1.70184934 1.40756814 3.10772488 3.1114664 3.10772488 1.7144815 0 3.12204963-1.40587554 3.12204963-3.10772488v-63.60794044l54.17549837-54.11035265c1.20648697-1.20503618 1.20648697-3.18700358-.00529161-4.397325z"/>
          </g>
          <rect width="66.775" height="23.921" x="285.63" y="669.979" fill="rgb(71,71,193)" rx="0" ry="0"/>
          <rect width="36.121" height="12.944" x="209.49" y="680.956" fill="rgb(255,156,49)" rx="0" ry="0"/>
        </g>
        <path fill="rgb(251,188,27)" fill-rule="evenodd" d="M884.70948899 691.81761292H563.48233245s-65.65299945-29.66608805-60.9646334-60.89132379c4.68836604-31.22523574 117.23560914 59.32689085 106.29256063 17.17176556-10.9430485-42.1551253-7.03254906-129.58367126 56.27097575-118.6537817 63.30352481 10.92988955 74.25186493 121.77736232 114.89142612 92.11655952 40.6395612-29.6608028 60.9646334-62.45047148 98.47685336-35.90796405 37.51751157 26.54250743 10.94304851 96.79928784 50.0215849 73.38036103 39.07853637-23.4189268 59.39831697 32.78438343 59.39831697 32.78438343h-103.1599278z"/>
        <g>
          <path fill="rgb(255,255,255)" fill-rule="evenodd" d="M589.14134706 692.34085231H396.37859509c-28.11961305 0-51.12223967-22.98025135-51.12223967-51.06076548v-472.3001889c0-28.08579937 23.00791823-51.06076548 51.12223967-51.06076548h192.76804358c28.11961304 0 51.12223967 22.98025136 51.12223967 51.06076549v472.29490364c0 28.08579938-23.00791824 51.06605073-51.12753128 51.06605073z"/>
          <path fill="rgb(209,218,240)" fill-rule="evenodd" d="M592.91955626 680.71859548H392.60038588c-19.89116022 0-36.16285953-16.25213269-36.16285953-36.1193739V164.22846141c0-19.86724122 16.27169931-36.1193739 36.16285953-36.1193739h200.31917038c19.89116023 0 36.16285954 16.25213268 36.16285954 36.1193739v480.37076015c0 19.86724122-16.27169931 36.1193739-36.16285954 36.1193739z"/>
          <rect width="3.868" height="64.575" x="341.796" y="195.094" fill="rgb(255,255,255)" rx="0" ry="0"/>
          <rect width="3.868" height="45.247" x="341.796" y="276.762" fill="rgb(255,255,255)" rx="0" ry="0"/>
          <rect width="3.868" height="45.247" x="639.946" y="276.862" fill="rgb(255,255,255)" rx="0" ry="0"/>
        </g>
        <g>
          <path fill="rgb(90,90,223)" fill-rule="evenodd" d="M679.23099931 351.10948892s-8.81052986 47.32409627 5.00057101 73.5706299c13.81110087 26.24653363 151.29240808-7.24607281 151.29240808-7.24607281l-105.62581783-63.07413056-50.66716126-3.25042653z"/>
          <path fill="rgb(255,120,84)" fill-rule="evenodd" d="M726.95602567 678.29266738s7.18071413 2.938597 7.18071413 15.52805392h-7.36592047l-3.15909088-3.77895117-3.1590909 3.77895117h-45.77242243s0-6.71226293 15.78487123-7.97543682 16.01770205-7.5526171 16.01770205-7.5526171h20.47323727z"/>
          <path fill="rgb(90,90,223)" fill-rule="evenodd" d="M595.19494836 347.5313771s38.02021448-3.2134298 56.4614737-14.93610633c18.4412592-11.72267651 20.11869943-51.52586716 24.02919887-60.9283205 3.91049944-9.40245335 22.91266927-22.77412675 22.91266927-22.77412675l-14.53075977 97.14282885s-20.86481638 30.4694455-81.40612102 14.37058497c.00529161.00528524-4.13274704-.16912789-7.46646105-12.87486024z"/>
          <path fill="rgb(206,111,132)" fill-rule="evenodd" d="M601.24325806 354.35991545s3.15379928 1.63314114 1.42344296 6.04632189c-1.73035632 4.41318074-8.87402918 6.93424328-8.87402918 6.93424328l-6.58805387-12.98056517h14.03864009z"/>
          <g>
            <path fill="rgb(251,188,27)" fill-rule="evenodd" d="M441.98168602 655.17499962s-6.74151054-1.18918044-14.05451491 9.06419758l5.1646109 3.67324625 4.40791074-1.50100998.02116644 4.65101683L469.61976259 693.9s3.89991623-5.47023003-6.43988879-14.37058496c-10.33980502-8.90035494-6.84734273-14.14331937-6.84734273-14.14331937l-14.35084505-10.21109605z"/>
            <path fill="rgb(24,24,45)" fill-rule="evenodd" d="M476.13373393 546.50504837s-18.46242565 88.98769365-38.21071242 109.12976769l18.4835921 14.68769974s16.7691106-13.60422423 26.87079319-35.12574758c10.10168259-21.52680859-7.14367287-88.69171985-7.14367287-88.69171985z"/>
            <path fill="rgb(42,40,73)" fill-rule="evenodd" d="M519.01164595 386.224666s11.00654783 134.76849799 0 240.45228502l-5.37627528 51.61571636h-26.51625535s-20.06578334-214.85055145-17.19773098-270.24521898c2.86805237-55.38938229 49.09026161-21.8227824 49.09026161-21.8227824z"/>
            <g opacity=".23">
              <path fill="rgb(0,0,0)" fill-rule="evenodd" d="M511.24885477 370.7547498s-4.3867443 56.27730367-41.60792573 57.6937497l.2804553-20.39576586 41.32747043-37.29798385z"/>
            </g>
            <path fill="rgb(255,255,255)" fill-rule="evenodd" d="M482.45720732 259.07749334s-18.90692085 4.6140201-23.10845882 16.36312285c-4.20153797 11.74910275 8.40307593 90.64197578 8.40307593 90.64197578l-2.10076898 20.14207404h53.77333605s4.81536467-95.18728769-11.66799902-123.12510016l-25.29918516-4.02207251z"/>
            <path fill="rgb(206,111,132)" fill-rule="evenodd" d="M507.7616841 263.0942806c.30162174 2.76946911.92603166 5.6604989 2.0002284 8.57266966L482.4519157 259.0722081l16.66327841-45.32627314 6.0536013 13.19726027 6.2705573 13.66764719c.0052916.00528525-5.0481955 10.09482063-3.67766863 22.48343819z"/>
            <g opacity=".23">
              <path fill="rgb(0,0,0)" fill-rule="evenodd" d="M507.7616841 263.0942806c-18.28251093-25.58059258-9.75772798-38.52416102-9.75772798-38.52416102l7.1648393 2.37307564 6.2705573 13.66764719c.0052916.00528525-5.0481955 10.09482063-3.67766863 22.48343819z"/>
            </g>
            <path fill="rgb(223,122,140)" fill-rule="evenodd" d="M519.63605588 220.68546348l-2.70930408 22.028907s-19.34612444 1.5485772-19.34612444-10.4330764c0-11.98165359 3.48187907-26.66935334 6.96375814-27.05517633 3.48187907-.38582298 15.09167038-6.95538426 15.09167038 15.45934573z"/>
            <path fill="rgb(223,122,140)" fill-rule="evenodd" d="M579.08728895 351.39489222s8.82111309-2.51577728 13.44597982 1.25788865c4.61957512 3.77895117 10.08580776 11.33156828 8.40307593 12.17192246-.94179537.47033408-1.35648822.4141889-1.5390805.27356435.1696437.39458064.32702147 1.10878127-.56168848 1.407144-1.25940307.41753447-2.9421349-.41753446-2.9421349-.41753446s1.25940307 1.25788864 0 1.68070835c-1.25940307.41753447-2.10076898-.41753446-2.10076898-.41753446s.41803715 2.09824282-.41803716 1.68070835c-.84136591-.41753446-4.61957512-5.03683982-4.61957512-5.03683982l-12.20245157-.26954756 2.53468096-12.33047986z"/>
            <path fill="rgb(251,188,27)" fill-rule="evenodd" d="M482.45720732 259.07749334s23.52649597 22.65785132 28.987437 67.14377027c5.46094104 44.48063372-3.7835008 82.2490045-35.28974395 91.05951025-31.51153475 8.81050575-38.23187886 0-38.23187886 0l29.82880292-51.19289664s-13.44597981-45.73852236-13.44597981-46.16134207c0-.41753446 1.55044159-39.70277096 1.55044159-39.70277096s1.3916933-16.94978521 26.6009211-21.14627085z"/>
            <g opacity=".23">
              <path fill="rgb(0,0,0)" fill-rule="evenodd" d="M482.45720732 281.73534466s13.52535396 49.53332927 6.8314679 72.6245708l21.96017955 16.38954908s-27.07187435 11.01973875-46.21691763 0l2.7198873-4.66687257-2.7198873-11.72267652 17.42527018-72.6245708z"/>
            </g>
            <path fill="rgb(251,188,27)" fill-rule="evenodd" d="M458.50738258 275.4406162s-18.90692085 27.69469113-5.8842698 69.2420131c13.02265106 41.5420367 123.52204127 20.9824282 123.52204127 20.9824282l2.9421349-14.27016528s-93.26990958 5.877194-96.63008163-28.53504532c-3.36017205-34.41223931.84136591-28.95257978 0-41.12450224-.84136592-12.16663722-18.90692085-17.20347704-23.94982474-6.29472847z"/>
            <path fill="rgb(251,188,27)" fill-rule="evenodd" d="M489.21459269 678.29266738s-7.18071413 2.938597-7.18071413 15.52805392h7.36592046l3.1590909-3.77895117 3.15909088 3.77895117h45.77242244s0-6.71226293-15.78487123-7.97543682c-15.78487123-1.25788864-16.01770205-7.5526171-16.01770205-7.5526171H489.2145927z"/>
          </g>
          <path fill="rgb(56,52,90)" fill-rule="evenodd" d="M494.1622476 227.23388377s2.21189278-2.56862975 6.59863708-9.909837 4.80478146-8.60438114 4.80478146-8.60438114 15.5467488 7.13508264 18.48359209 5.03683982c2.9421349-2.09824283 3.78350081-7.13508265-5.8842698-9.65085993-9.662479-2.51577729-16.80615187 0-16.80615187 0s-4.61957512-1.68070836-8.82111309 5.03683982c-4.20153796 6.71226293 1.62452413 18.09139843 1.62452413 18.09139843z"/>
          <path fill="rgb(223,122,140)" fill-rule="evenodd" d="M498.53311707 220.5850438l1.02657225-4.74615127s-1.30173594-1.58028868-3.4448378.36996725c-2.14310186 1.95554116 1.8943962 8.35597456 1.8943962 8.35597456l.52386935-3.97979054z"/>
          <path fill="rgb(237,140,161)" fill-rule="evenodd" d="M601.24325806 354.35991545s-6.91084205-11.36327976-12.35061665-7.53676136c-5.4397746 3.8265184-9.81064407 4.57173813-9.81064407 4.57173813s2.4923481 5.06326606 11.08063036-.82449844c.0052916.00528525 10.218098 11.79138473 11.08063036 3.78952167z"/>
          <path fill="rgb(237,140,161)" fill-rule="evenodd" d="M579.08728895 363.7729393c.04233288-.0687082 4.02162325-7.37820398 6.06947613-6.62241375 2.0478529.75579024-3.03738387 8.0071483-3.03738387 8.0071483s-4.25974567.72407876-3.03209226-1.38473456z"/>
          <path fill="rgb(237,140,161)" fill-rule="evenodd" d="M585.64359316 359.82486023s2.33889141-2.53691827 3.25433986 0c.91544845 2.53691828-3.25433986 6.62769899-3.25433986 6.62769899l-3.52421195-1.30017061 3.52421195-5.32752838z"/>
          <path fill="rgb(237,140,161)" fill-rule="evenodd" d="M588.89793302 361.53199482s2.96330134-2.27265595 3.52421195-.34882626c.5609106 1.92382969-3.39192171 6.57484652-3.39192171 6.57484652s-3.8311253 1.67542311-3.3866301-1.30017061l3.25433986-4.92584965z"/>
          <path fill="rgb(237,140,161)" fill-rule="evenodd" d="M589.03022326 367.75801508s-.58736866 2.52106253 2.09018576 1.05176403c2.67226282-1.4692985 3.1643825-6.23659075 3.1643825-6.23659075s-1.58219125-1.13104273-2.65638798 1.46401325c-1.07419674 2.59505599-2.59818028 3.72081347-2.59818028 3.72081347z"/>
          <path fill="rgb(239,239,239)" fill-rule="evenodd" d="M686.86679187 262.23278544s-8.19141156 6.93424328-8.3819095 51.35145403c-.19049794 44.41721075 4.19095475 91.54046767 4.19095475 91.54046767h68.47342732l-8.95340332-40.80738747s13.41423016-69.1521639 1.1165296-102.08453423c0 0-5.58793966-13.2818242-13.41423015-13.33996192l-23.46828827 8.8739287-7.8262905-8.8739287s-7.26537988 3.02844619-11.73678993 13.33996192z"/>
          <g opacity=".23">
            <path fill="rgb(0,0,0)" fill-rule="evenodd" d="M722.82857023 290.5564209s-12.58344746 80.08733872 25.64313979 102.35936705l-6.2758489-28.59846828-19.36729089-73.76089877z"/>
          </g>
          <path fill="rgb(90,90,223)" fill-rule="evenodd" d="M729.89816057 248.89282352s-17.88564022 65.83831442 0 105.46709193c17.88564021 39.62877752 51.4132782 68.10039988 105.62581783 63.07413056 0 0-66.50494857-34.97776069-77.6808279-50.98148679s2.79396983-104.19334755 2.79396983-104.19334755-25.7066391-19.47613299-30.73895976-13.36638815z"/>
          <path fill="rgb(90,90,223)" fill-rule="evenodd" d="M760.63712033 262.26449692s55.88468825 58.05314646 64.82750836 29.02657323c8.9428201-29.02657323 4.47141005-54.70230025 4.47141005-54.70230025h18.44125921s16.763819 66.0761505 0 86.0649524c-16.76381899 19.98880188-90.53414745-7.09808592-96.12208712-18.67277554 0 0-5.58793966-37.81065275 8.3819095-41.71644984z"/>
          <g>
            <path fill="rgb(206,111,132)" fill-rule="evenodd" d="M845.2922896 223.04796862s-3.72529311 8.3718303-.93132328 13.53551603h-6.70446928l-5.45035781-13.53551603s-.8360743-22.3248808 1.25940307-23.58276944c2.09547737-1.25788865 2.37593267 13.67293244 2.37593267 13.67293244l9.45081463 9.909837z"/>
            <path fill="rgb(223,122,140)" fill-rule="evenodd" d="M833.17979538 236.58348465s-10.48267848-6.51670881-6.14885027-16.68552289c2.52409774-5.92476121 3.35488044-8.43525325 4.47141005-7.59489907 1.11652961.83506893-.69849246 7.53676136-.69849246 7.53676136s10.62026033 9.909837 11.59391648 16.7436606h-9.2179838z"/>
            <path fill="rgb(223,122,140)" fill-rule="evenodd" d="M835.2964392 218.444519c.25928886-.41753446-.02116645-7.67417777 1.93672908-7.1192269 1.95789553.56023612 2.14310186 7.81687943.7196589 8.09171224-1.41815136.2854033-2.65638799-.97248534-2.65638799-.97248534z"/>
            <path fill="rgb(223,122,140)" fill-rule="evenodd" d="M838.76773504 220.95501104c.25928887-.41753446-.02116643-7.67417777 1.9367291-7.1192269 1.95789552.55495087 2.14310185 7.81687943.71965889 8.09171224-1.41815136.2854033-2.65638799-.97248534-2.65638799-.97248534z"/>
            <path fill="rgb(223,122,140)" fill-rule="evenodd" d="M841.70457833 223.34922766c.25928887-.41753446-.02116643-7.67417777 1.9367291-7.1192269 1.95789552.56023612 2.14310185 7.81687943.71965889 8.09171224-1.41815136.2854033-2.65638799-.97248534-2.65638799-.97248534z"/>
          </g>
          <path fill="rgb(206,111,132)" fill-rule="evenodd" d="M725.56962397 246.83157742l-6.58276225-32.18186533-17.4834779 2.19337725 1.54514999 34.25368193 4.59311707 10.6497715 17.9279731-14.91496535z"/>
          <g opacity=".23">
            <path fill="rgb(0,0,0)" fill-rule="evenodd" d="M715.84893726 218.48151573l-9.41906496 39.2852365-4.07983095-11.2998568V228.9568741l13.49889591-10.47535837z"/>
          </g>
          <path fill="rgb(255,255,255)" fill-rule="evenodd" d="M729.89816057 248.89282352l-1.20119537-5.30110214-22.2670929 14.17503085 2.79396983 9.14876152 20.67431844-18.02269023z"/>
          <path fill="rgb(255,255,255)" fill-rule="evenodd" d="M706.4298723 257.76675223l-4.07983095-11.2998568-5.96364394 3.71024297 3.51892034 13.57251275 6.52455455-5.98289892z"/>
          <path fill="rgb(223,122,140)" fill-rule="evenodd" d="M693.0526834 201.4260256l2.77809501 30.40602254s20.25098967 1.72299032 20.01815885-13.34524717c-.23283082-15.06823748-2.77280339-24.6715302-2.77280339-24.6715302s-21.63739137-10.10010587-20.02345046 7.61075482z"/>
          <path fill="rgb(56,52,90)" fill-rule="evenodd" d="M715.84893726 216.0872991l6.06418453 12.869575s6.7785518-29.000147 1.92085426-36.04009521c-4.85769755-7.03994821-7.97974718-4.99455785-7.97974718-4.99455785s-1.61923251-7.0399482-10.53030296-4.60873486c-8.91107045 2.43121334-18.04968011 2.04539035-18.04968011 2.04539035s-.1164154 12.80086679 7.86862337 11.64868307c7.98503878-1.15218371 12.72632092-2.04539036 12.72632092-2.04539036s-.80961626 9.48173205 7.97974717 21.12512987z"/>
          <path fill="rgb(223,122,140)" fill-rule="evenodd" d="M715.84893726 216.0872991l-2.778095-10.75547642s.92074006-2.69019042 3.46600424-1.15218371c2.5505558 1.5380067 1.28056951 10.24809277-.68790924 11.90766014z"/>
          <path fill="rgb(42,40,73)" fill-rule="evenodd" d="M682.67583712 405.12999238l21.73264034 273.162675h25.4896831s12.41411597-53.08501486 0-131.78761901l21.25110388-141.37505599h-68.47342732z"/>
          <path fill="rgb(42,40,73)" fill-rule="evenodd" d="M682.67583712 405.12999238l73.77032846 273.162675h22.29355095s17.41468697-46.7902864-27.58516048-153.96451291c0 0 8.95340333-78.39077462 0-119.19816209h-68.47871893z"/>
          <path fill="rgb(255,120,84)" fill-rule="evenodd" d="M777.85601774 678.29266738s7.18071413 2.938597 7.18071413 15.52805392h-7.36592046l-3.1590909-3.77895117-3.15909088 3.77895117h-45.77242244s0-6.71226293 15.78487123-7.97543682c15.78487123-1.25788864 16.01770205-7.5526171 16.01770205-7.5526171h20.47323727z"/>
          <g opacity=".23">
            <path fill="rgb(0,0,0)" fill-rule="evenodd" d="M694.02633956 332.8595331s-2.29126693 73.98816436 60.33493187 96.72529438l-3.21200699-24.4548351s-46.5344142-21.68008073-57.12292488-72.27045929z"/>
          </g>
          <path fill="rgb(90,90,223)" fill-rule="evenodd" d="M706.4298723 257.76675223l-6.51926294 5.98289892 1.59277447 7.91729911s-21.88080541 40.42156448 2.91038524 95.6788156c24.79119065 55.25725113 58.7421574 53.85137558 58.7421574 53.85137558l12.57286424-5.2958169-7.5458352-15.90859166s-38.42237679-8.13399421-50.01629327-35.6754132c-11.59391648-27.541419-16.90669245-51.4043065-11.73678994-90.75296596l2.79396983-6.65412522-2.79396983-9.14347627z"/>
          <g opacity=".23">
            <path fill="rgb(0,0,0)" fill-rule="evenodd" d="M708.17610345 499.5456341l21.72734873 178.74703328s7.74691635-39.39094143 5.19636056-79.05671567l-26.9237093-99.69031762z"/>
          </g>
          <path fill="rgb(90,90,223)" fill-rule="evenodd" d="M755.14442964 307.27894051l-10.66788482-12.1772077s-6.23880763 26.78562876 9.8847266 59.6862876c0 0-1.40227652-32.27171452.78315822-47.5090799z"/>
        </g>
      </g>
    </g>
  </g>
</svg>
