<svg xmlns="http://www.w3.org/2000/svg" xmlns:xlink="http://www.w3.org/1999/xlink" width="431.74" height="650.79" viewBox="0 0 431.74 650.79">
  <defs>
    <rect id="rect-1" width="431.74" height="650.79" x="0" y="0"/>
    <mask id="mask-2" maskContentUnits="userSpaceOnUse" maskUnits="userSpaceOnUse">
      <rect width="431.74" height="650.79" x="0" y="0" fill="black"/>
      <use fill="white" xlink:href="#rect-1"/>
    </mask>
    <rect id="rect-30" width="62.83" height="79.728" x="338.624" y="174.518"/>
    <mask id="mask-31" maskContentUnits="userSpaceOnUse" maskUnits="userSpaceOnUse">
      <rect width="431.74" height="650.79" x="0" y="0" fill="black"/>
      <use fill="white" xlink:href="#rect-30"/>
    </mask>
  </defs>
  <g>
    <g transform="matrix(-1 0 0 1 431.74 0)">
      <use fill="none" xlink:href="#rect-1"/>
      <g mask="url(#mask-2)">
        <g>
          <path fill="rgb(90,90,223)" fill-rule="evenodd" d="M112.92902114 19.26498138C138.02435917-16.08366432 193.8779803.2625655 195.5090551 43.57976928c.01832668.5068125.03665336 1.01973118.04276226 1.52654369 1.11181877 51.2185939-37.87514503 64.57890429-25.62070295 101.31975783 12.25444209 36.74085355 49.48204432 9.34244739 63.96623285 69.4638441 14.47807963 60.12750288-34.9978558 93.45500474-30.5444718 129.08453448 4.45338398 35.62952973 25.62070294 59.37644338 24.50888417 105.77115923-.83080963 34.50599358-63.48973908 141.40679515-63.48973908 141.40679515s-83.55134817-91.29341888-85.77498571-152.53224557c-2.11367745-58.08193434 39.46956646-52.64133262 41.693204-107.20000413 2.22974644-54.5586715-79.11629085-61.83723181-39.46956646-130.31798177 8.35696749-14.43499714 29.81751337-28.50972997 29.81751337-59.68175213s-28.21698304-78.67195564-5.93784531-111.32777827c2.7001313-3.97511977 5.46135155-7.93192102 8.2286807-11.82766051z"/>
          <path fill="rgb(69,69,191)" fill-rule="evenodd" d="M203.35287546 344.98055555c-4.453384-35.62952974 45.02255143-68.96313777 30.5444718-129.08453448-14.47807964-60.1213967-51.71179076-32.72299055-63.96623285-69.4638441-12.25444208-36.74085354 26.73252172-50.10116392 25.62070295-101.31975783-.01221779-.51291868-.02443558-1.01973118-.04276226-1.52654369C194.50719642 16.98127201 173.05886832.54955573 150.84081954.01221235l-.1038512 1.3799955s-31.18590571 126.17188911-10.3973382 190.00584008c20.7885675 63.82784479 37.12375102 68.28535236 26.73252171 154.37631034-10.3973382 86.09706415-2.7001313 246.37804549-2.7001313 246.37804549s62.65892945-106.8946954 63.48973908-141.40068898c1.11181877-46.40082202-20.05550019-70.1416295-24.50888417-105.77115923z"/>
          <path fill="rgb(244,116,88)" fill-rule="evenodd" d="M217.40944138 633.25917226H81.70035318c-17.28206215-16.2851681-27.81379603-38.713148-27.42893569-63.31492611.19548462-12.42606565 2.67569573-23.25841967 7.84382036-33.88926994l174.97095226 2.02725003c4.83824434 10.80792933 7.42841554 22.67222689 7.23903982 35.09829253-.37264256 23.43549874-10.57449614 44.5689696-26.91578855 60.07865349z"/>
        </g>
        <g>
          <path fill="rgb(53,83,137)" fill-rule="evenodd" d="M200.09683476 360.31926655s73.83820613-22.14709586 76.81323769-21.59143396c2.9200515.54344956-8.68073889 25.15744002-7.22682203 33.10767957.46427597 2.55238105-63.19651216 38.93907646-77.3447115 36.25846573-15.42495825-2.9248577-74.7239958-53.91141697-81.05281036-64.96969947-7.06799078-12.35889772-19.44461075-43.17676174-11.20371226-54.78459997 3.75697003-5.28794734 12.85922263-12.33447302 19.1758194-10.84456637 25.11366471 5.92298952 52.23715567 50.40036649 80.83899906 82.82415447z"/>
          <path fill="rgb(209,218,240)" fill-rule="evenodd" d="M204.15314062 444.93253024c-.48260266-2.19211674-15.80370971-37.80943413-16.58564819-41.44260812-10.177418-47.4694026-49.34764864-116.8843973-67.484956-125.81773098-2.93226929-1.46548194-23.86745026-1.59981778-23.86745026-1.59981778l10.81885191 5.34900909c12.32774882 11.25368009 26.12774118 24.27815085 34.92454906 38.80474061 25.52296063 42.13260586 42.90887398 139.18414754 45.23025384 139.01928082 2.5962801-.18318524 18.03956504-9.44625236 16.96439964-14.31287364z"/>
          <path fill="rgb(251,188,27)" fill-rule="evenodd" d="M179.9069389 446.25146398c-35.853101-20.84037446-41.4916105-70.05003687-56.6477774-96.47756124-18.55882106-32.36272624-45.9327767-35.88598908-93.04457 22.77603186-57.75959617 71.91242018-28.3697054 216.58601882 51.38801936 262.9502038l191.25115573-.40911371c39.40236862-14.1785378 56.91656875-34.97616904 71.07087698-69.6103923 62.94604749-154.02825838-84.2599799-72.86498343-164.01770467-119.2291684z"/>
          <path fill="rgb(247,164,145)" fill-rule="evenodd" d="M264.73504599 606.0073143s-1.33173897 23.55762223-1.34395676 23.60647162c-.48871155 2.99202564-2.41912217 10.3804971-2.41912217 13.09774487 0 10.21563038 45.46850072-8.67076816 35.27886493-13.19544366-.92244305-.40911371-7.18405977-5.81918455-7.48950449-9.29970417-.47038486-5.35511526-.2199202-13.87933523-.2199202-13.87933523l-23.80636131-.32973344z"/>
          <path fill="rgb(7,52,90)" fill-rule="evenodd" d="M295.5910714 629.07644254s-10.67223845 3.12636148-16.1396989 3.90795185c-5.46746045.78159037-12.6759558-5.79475985-16.54288593-4.017863-3.15829838 1.4532696-4.39229504 11.9803149-4.81380875 17.31100546-.13439568 1.69141041 1.15458103 3.15689235 2.84674477 3.2423788 12.5721046.6533607 60.38031185 2.85768979 72.7813674-.73274097 6.43266576-1.8623833-16.31074794-12.438278-38.1317186-19.71073214z"/>
          <path fill="rgb(7,52,90)" fill-rule="evenodd" d="M392.49646263 582.38863031s-10.67223845 3.12636148-16.1396989 3.90795185c-5.46746045.78159037-12.6759558-5.79475985-16.54288592-4.017863-3.15829839 1.4532696-4.39229505 11.98031489-4.81380876 17.31100546-.13439568 1.6914104 1.35006565 3.6026431 3.0361205 3.76750983 13.94660582 1.37388932 60.18482723 2.33255876 72.59199168-1.257872 6.43877465-1.85627713-16.30463905-12.43217182-38.1317186-19.71073214z"/>
          <path fill="rgb(247,164,145)" fill-rule="evenodd" d="M347.69994029 563.300728s12.7859159 17.9765785 13.98325919 21.9455921c1.1973433 3.9690136 30.82548094 6.87555278 30.82548094-2.84547744 0-.12822967-9.18777712-7.5960814-11.78405722-10.99722075-4.337315-5.69095487-14.45975295-24.70558308-14.45975295-24.70558308L347.69994029 563.300728z"/>
          <path fill="rgb(244,116,88)" fill-rule="evenodd" d="M301.15016527 426.3575466c-11.99786853-5.89856481-137.86552792 13.69615-137.86552792 13.69615l-15.08896907-24.04611621-49.13383734 11.14376894s-13.90384356 16.00428405-14.47807963 23.16682705c-1.86321278 23.19125174 8.7723723 62.18528378 20.76413193 65.9772183 42.71338936 13.5007524 134.54228938-14.09305135 147.39540312-17.04233376 0 0-.46427597 20.79763124 3.42708973 63.25386437 1.53944138 16.77366207 3.55537652 35.26315925 5.4246982 51.4384162 11.24036562-.0244247 22.48073124-.23814082 33.72109686-1.71583511 0 0 17.83186264-179.97339495 5.83399412-185.87195977z"/>
          <path fill="rgb(183,87,66)" fill-rule="evenodd" d="M380.9323256 560.7605593c-21.53385261-54.3632739-68.26078557-161.05035935-85.19464074-164.04849116-22.1997221-3.93237655-132.47748309 43.38437168-132.47748309 43.38437168l111.8844002-2.33255876s.61699834 1.10521764 5.48578714 24.54682255c3.7997323 18.26967489 45.88390554 82.61043836 69.87964258 118.25218045 11.07542548-5.0070633 22.03478196-9.62333143 30.42229392-19.80232476z"/>
          <path fill="rgb(255,255,255)" fill-rule="evenodd" d="M96.74655998 276.48148707s-27.85655828-.3175211-30.81937205.3358396c-2.96281376.6533607 2.33970654 113.64812469 5.9622809 155.81126142 3.62257435 42.16313673 9.4321329 48.48913379 9.4321329 48.48913379s39.7322489.15265437 67.18562016-8.50590145c28.54686335-9.00660777 35.33384498-42.15703056 35.33384498-42.15703056s-25.85894983-75.80815967-36.22574355-99.29861398c-6.62815039-15.0272961-19.87834225-31.935294-33.29347427-45.71082427-7.55670232-7.75484195-17.57528907-8.96386455-17.57528907-8.96386455z"/>
          <path fill="rgb(247,164,145)" fill-rule="evenodd" d="M88.90884852 255.91589047l5.58963834 15.24711838s9.7497954 21.59143396 4.60610634 27.30070736C93.96090415 304.1790958 67.02678892 276.548655 67.02678892 276.548655l-6.70145711-40.27632873 28.5835167 19.6435642z"/>
          <path fill="rgb(244,116,88)" fill-rule="evenodd" d="M62.5062071 249.32122172c8.04541386 12.46880887 21.90038627 18.15976375 31.14925233 19.51533454l-4.74050202-12.92677197-28.57740782-19.6435642 2.1686575 13.05500163z"/>
          <path fill="rgb(247,164,145)" fill-rule="evenodd" d="M65.2002295 191.32477383c11.44806804-6.99767628 26.47594816-1.68530423 31.1920146 10.66138113 2.04647962 5.36732762 4.337315 12.18181866 6.15776552 19.78400623 4.38618615 18.28188724-1.17290772 38.23686637-9.50543962 40.08093115-8.3386408 1.8379586-34.00210601-4.95210774-40.59360302-30.8239702-4.07463254-15.967647.73306732-32.35662007 12.74926252-39.70234831z"/>
          <path fill="rgb(247,164,145)" fill-rule="evenodd" d="M59.04246399 231.7354384c.89189858 4.04839387-1.06294762 7.92581485-4.38007726 8.65244965-3.31102074.73274097-6.7197838-1.9600821-7.61779126-6.00847597-.89189858-4.04839387 1.06294762-7.92581484 4.38007725-8.65244964 3.31712964-.73274097 6.7258927 1.9600821 7.61779127 6.00847597z"/>
          <path fill="rgb(181,195,230)" fill-rule="evenodd" d="M66.97791776 276.43263767s-32.34659563-1.2822967-39.70781334 5.5138758c-4.67941308 4.32317174 4.80159097 47.58541993 4.80159097 47.58541993s26.38431474 50.48585294 30.2207004 80.01531409c6.37157682 49.05090186 12.18113535 79.18487432 14.69799983 80.8091168 14.53916858 5.21467325 62.5978405-4.70786074 64.59544896-10.3804971 22.05921754-62.67377775-74.60792682-203.54322952-74.60792682-203.54322952z"/>
          <path fill="rgb(111,108,127)" fill-rule="evenodd" d="M223.40837564 380.31088273l21.47276368-90.633952c.55590938-2.34477111 2.65126015-4.00565065 5.06427342-4.00565065h38.9930727c3.41487195 0 5.90730085 3.23627263 5.03372895 6.53971317l-23.68418343 89.18678858c-.58645386 2.21043527-2.54130005 3.773616-4.82602655 3.86520863l-36.78165294 1.44716342c-3.43930752.13433584-6.0661321-3.04698121-5.27197583-6.39927115z"/>
          <path fill="rgb(248,164,146)" fill-rule="evenodd" d="M258.99268529 377.9722178c-1.64940148.31752108-4.38007726.90982003-6.26772562 1.59981778-2.04037071.74495332-4.14793927.79380272-5.956172 1.16627938-3.59202988.73884715-6.20052777 1.32503992-6.14554772 1.16627938.06719783-.20760994-.73917622-.54955573 1.13014545-1.26397818 2.25418202-.85486446 7.43452444-1.64866718 10.64780287-3.15078617 1.82655942-.85486447 5.7423607-2.41193904 5.7423607-2.41193904s5.49189603-3.43167021 5.40026262-3.80414687c-.49482045-2.03946237-4.90544218-.72052862-7.23293093.7510595-1.96095509.20150376-6.04169652 1.9600821-6.04169652 1.9600821s-9.02894586 1.75857832-9.27941053.51902485c-.1038512-.52513103 5.3147381-2.24707232 10.36679373-4.7444978 4.69163087-2.3203464 9.06559923-5.40396466 8.75404562-6.36874027-.53147381-1.64256101-6.01115205.39690136-6.01115205.39690136s-3.76918783 1.62424249-5.05816454 2.07609942c-1.5150058.52513103-6.1638744 1.75857833-6.1638744 1.75857833s-16.38405468 3.56600606-16.51234146 2.3691958c-.13439568-1.19070407.78193848-4.41476435 1.72270821-4.97653242.94076973-.56176808 3.20716954-.72052863 4.15404816-1.2822967.94076974-.56176808 1.69216374-2.07609942 1.0934921-3.24848498-.59867165-1.17238555-6.18831-.13433584-6.18831-.13433584s-4.5389085.87318299-6.98857514 2.9248577c-8.47303648 7.10758743-6.95192178 8.18227419-8.06374055 9.06766953-1.3134123 1.04415588-23.67807454 3.49273196-23.67807454 3.49273196s-65.87220789 7.6449308-69.4398022 7.9380272l2.30916207 21.9211674c3.92191018.40300753 79.9471005-12.84128553 87.7481586-14.39225392 0 0 9.94528 1.48380047 16.22522341 2.21043526 6.2799434.7266348 12.62097575-1.31282757 14.42920848-1.37388932.26879135-.00610617 6.2738345-.54955573 13.52509211-3.13857383 6.24939893-2.22875379-.67197838-2.88822066-.67197838-2.88822066s-12.29720434 2.11884264-12.28498655 1.14796086c.01221778-.7510595 6.78698163-1.52043752 13.72668562-3.91405803 1.78379716-.61672365 3.54315873-1.2334473 5.15590684-1.80742773 4.221246-1.52043751 4.52058183-4.46971992-.14661346-3.56600606z"/>
          <path fill="rgb(209,218,240)" fill-rule="evenodd" d="M109.11707106 373.03842858s76.83767326-.54955573 79.81270481 0c2.9200515.54344956 3.74475225 20.24807552 5.1925602 28.20442123.46427598 2.55238105-80.99172142 11.66889997-95.13992075 8.98828925-15.42495826-2.92485771-54.2775264-45.58870077-63.27592779-59.98095469-7.55059342-12.07801368-23.65974785-42.80428508-19.65842205-56.25618809 2.41912217-8.1273186 14.99122676-17.30489927 21.85762402-15.17384428 27.38006453 8.47537057 71.21138156 94.21827658 71.21138156 94.21827658z"/>
          <g>
            <path fill="rgb(247,164,145)" fill-rule="evenodd" d="M283.20223364 336.87155547c1.47835243-.57398043 3.1399717.30530873 3.44541642 1.8623833.3115536 1.59371161.3176625 3.49883814-.89800748 4.71396691-2.41912216 2.41804521-18.7298701 4.22547294-18.7298701 1.8135339-.0061089-1.8623833 11.05709879-6.39316497 16.18246116-8.38988411z"/>
            <path fill="rgb(247,164,145)" fill-rule="evenodd" d="M286.78815463 343.94861202s1.87543056 6.01458214.47038486 6.12449328c-1.4050457.10991115-18.88870136 2.55848723-19.75616436.5068125-.8613541-2.05167471 16.97661743-7.76705429 19.2857795-6.63130578z"/>
            <path fill="rgb(247,164,145)" fill-rule="evenodd" d="M287.50900416 350.7020413s.67197838 2.6622922-.67808727 4.31706556c-1.35006566 1.65477336-17.74022923 1.6914104-18.50384102-.86707682-.7636118-2.55238105 18.47940544-5.40396466 19.18192829-3.44998874z"/>
            <path fill="rgb(247,164,145)" fill-rule="evenodd" d="M283.76425192 356.83874694s.34209808 2.0333562-.3359892 3.03476886c-.67808727 1.00141266-12.81035147 1.642561-14.3925551-.71442245-1.58220364-2.36308963 12.93252936-4.7444978 14.7285443-2.32034641z"/>
          </g>
        </g>
        <g>
          <path fill="rgb(209,218,240)" fill-rule="evenodd" d="M286.4888188 218.14309339H182.0817053c-9.95138892 0-18.02123837-8.06625686-18.02123837-18.01321555v-36.0264311c0-9.94695869 8.06984945-18.01321555 18.02123836-18.01321555H286.4888188c9.95138891 0 18.02123836 8.06625686 18.02123836 18.01321555v36.0264311c.0061089 9.94695869-8.06374055 18.01321555-18.02123836 18.01321555z"/>
          <path fill="rgb(209,218,240)" fill-rule="evenodd" d="M208.80811812 208.20224087l44.46664205 70.46525676-18.36333645-70.46525676h-26.1033056z"/>
        </g>
      </g>
    </g>
    <g transform="rotate(7.000002 370.0390608 214.38226766)">
      <use fill="none" xlink:href="#rect-30"/>
      <g mask="url(#mask-31)">
        <path fill="rgb(19,55,91)" fill-rule="evenodd" d="M352.502892 174.73542501c12.3547 2.18870184 20.35638886 8.7598621 23.30073325 11.55513257 5.61157402.5762402 13.23800331 3.27547065 21.10690803 14.61324945 9.68169714 13.94096922 2.52867224 29.38825055-8.74066159 36.9653038-11.26933382 7.57705324-11.14232289 16.37735324-11.14232289 16.37735324l-1.75506018-4.56948374c-1.31629514-3.43216755-1.853205-7.06652464-1.41443995-10.66549857.26556831-2.1583734.79670495-4.49366266 1.82433887-6.41446335 2.71341542-5.0597934-5.8251833-8.42624934-8.21529817-12.63684664-1.84165855-3.24008748-1.93403014-10.66044383-4.83796196-16.0184668l-3.46393457-4.08928358s-7.99591565-5.4136251-15.8244078-3.88709402c-7.81117247 1.52653107-6.68539373-24.04033705 9.16210696-21.22990236z"/>
      </g>
    </g>
    <path fill="rgb(255,255,255)" fill-rule="evenodd" d="M144.5 166h104c1.37978756 0 2.5 1.12021244 2.5 2.5s-1.12021244 2.5-2.5 2.5h-104c-1.37978756 0-2.5-1.12021244-2.5-2.5s1.12021244-2.5 2.5-2.5z"/>
    <path fill="rgb(255,255,255)" fill-rule="evenodd" d="M145.5 190h104c1.37978756 0 2.5 1.12021244 2.5 2.5s-1.12021244 2.5-2.5 2.5h-104c-1.37978756 0-2.5-1.12021244-2.5-2.5s1.12021244-2.5 2.5-2.5z"/>
  </g>
</svg>
