<svg xmlns="http://www.w3.org/2000/svg" width="650.676" height="610.58" viewBox="0 0 650.676 610.58">
  <g>
    <ellipse cx="231" cy="179" fill="rgb(251,188,27)" rx="179" ry="179"/>
    <path fill="rgb(209,218,240)" fill-rule="evenodd" d="M596.29774674 237.99454493l-1.2977379 194.88484707-103.61082821-7.62607233 104.90856611-187.25877474z"/>
    <g transform="matrix(-1 0 0 1 608.46069649 0)">
      <path fill="rgb(61,55,102)" fill-rule="evenodd" d="M176.52362544 218.9140839c31.73740964-28.25362292 55.04029928-11.3976131 72.39584106 7.43631422 13.83523662 15.0146888 15.76484489 18.34217988 27.19490406 33.89779088 1.69455683 2.31121301 3.00100549 4.87376361 3.05566861 7.73682654.32251243 17.19476917 9.12327535 89.90236156-.6614238 114.98694536-11.4027276 29.24258169-152.06734388 42.62357618-152.06734388 42.62357618l50.08235395-206.68145317z"/>
      <path fill="rgb(61,52,121)" fill-rule="evenodd" d="M266.60845334 399.62034401c-.76528373 0-1.40484228-.60102466-1.44857278-1.37689286-.03826418-.79772364.5739628-1.48070621 1.3720444-1.51895323 4.17079635-.21309057 7.57084264-2.08719474 10.38599352-5.73158973 15.77031119-20.42391075 6.90395252-88.61289046-.82541317-125.68518432-.16398937-.78133206.33891136-1.5517364 1.12059403-1.71565221.78168267-.16391582 1.55243272.33875935 1.71642209 1.12009141 1.68909052 8.09744134 7.33032489 36.83734786 9.09047747 66.76837597 1.8093494 30.74514334-1.1533919 51.3602892-8.81169554 61.27719611-3.31805161 4.30005826-7.53257845 6.60580741-12.53425427 6.857145-.01639894.00546386-.0437305.00546386-.06559575.00546386z"/>
      <path fill="rgb(61,55,102)" fill-rule="evenodd" d="M188.42378748 210.48881093c-60.99311345 33.7010919-23.80032407 147.6990785-101.15411045 188.34473716C65.8362662 410.08910083 0 467.23015451 43.14013724 542.56586382c28.21710447 49.27855834 112.56230438 38.66227728 140.33117123-4.95572152 27.76340054-43.6179988 4.952479-327.12133137 4.952479-327.12133137z"/>
      <path fill="rgb(61,55,102)" fill-rule="evenodd" d="M26.11804052 469.67250017c-.06559575 0-.12572519-.00546386-.19132094-.01092772-.7926153-.10381335-1.35017915-.8305068-1.24631922-1.62823044.05466313-.40432568 1.38297703-9.99886482 7.4669827-22.71873219 5.60297018-11.71998089 16.48639812-28.368364 36.49856771-41.09369522 35.79341342-22.76790693 59.55000699-44.22448733 87.64138627-149.98843607.20225356-.7758682 1.00033516-1.23483249 1.7710852-1.02720579.77075005.2076267 1.2353866.99988649 1.02766674 1.77029082-13.57285363 51.10895163-27.03091469 85.6569419-42.35298827 108.73082503-14.2288111 21.42379723-28.86759564 31.72317437-46.52925091 42.95687167-37.18732307 23.64758848-42.60443863 61.37008175-42.65363544 61.74708812-.09839363.73215732-.72155324 1.2621518-1.43217384 1.2621518z"/>
      <path fill="rgb(61,55,102)" fill-rule="evenodd" d="M27.44635442 440.1512616c-.2678493 0-.53569861-.07103019-.77075004-.22401828-.67782274-.42618113-.8800763-1.32225426-.45370393-1.99977297 8.84449342-13.99294687 20.11056322-25.4725179 33.48116328-34.1163453 50.26274227-32.48811485 58.5824697-51.16905408 100.09364585-158.1569076.28971456-.74854889 1.13152666-1.11462754 1.87494515-.82504294.7488848.28958461 1.11512772 1.13101914.82541317 1.87410417-20.75558808 53.49119483-33.15865086 84.83736283-46.72603816 107.05341984-14.57318879 23.86067904-31.0158564 37.31270372-54.49366804 52.49130834-13.01528976 8.41434525-23.9861787 19.59340395-32.6065533 33.2311999-.27331563.43164498-.74341849.67205484-1.22445398.67205484z"/>
      <path fill="rgb(238,151,89)" fill-rule="evenodd" d="M186.31925721 281.62827535c-21.00157213 43.59614336-17.77098152 83.1490299-17.77098152 83.1490299s2.42157638 15.33705658 12.11334822 18.56619817c9.69177184 3.22914159 23.42314852-6.45828318 22.61413428-19.37484953-.80901423-12.91656634 3.23059062-44.39933086 8.07374338-55.70405834 4.85408539-11.29926363-25.03024436-26.6363202-25.03024436-26.6363202z"/>
      <path fill="rgb(191,1,1)" fill-rule="evenodd" d="M75.369515 584.53377674c1.32284759 11.89482443-1.65082635 10.90586566 8.9264881 12.88378319 10.57731444 1.98338138 29.41969318-5.28901702 29.41969318-5.28901702L92.5610674 552.8051385 75.369515 584.53377673z"/>
      <path fill="rgb(238,151,89)" fill-rule="evenodd" d="M171.08464463 341.36466278c-5.94734786 19.33113864-50.57432207 4.46397408-66.19704283 8.92248429-15.61725445 4.45851021-29.00425345 69.88277648-31.2399752 128.61381358-2.23025545 58.7310371.74341848 105.56724976 6.69623265 112.99810012 5.95281417 7.43631421 104.12778438 10.40865435 113.05427249 7.43631421 8.9264881-2.97234014-74.37464614-40.14298349-74.37464614-40.14298349s-5.2093957-68.39660642 1.48683696-103.33799466c6.69623266-34.94138824 66.94046132-81.03451587 66.94046132-81.03451587l-16.36613925-33.45521818z"/>
      <path fill="rgb(238,151,89)" fill-rule="evenodd" d="M191.91129477 347.31480693c15.61725445 23.78964885 56.52713625 20.8173087 70.65755373 40.14298349 14.13041748 19.33113864 43.88355572 125.64147344 43.88355572 125.64147344l31.23997521-107.79650487s25.33089154-4.25634738 17.10409142 13.3809945c-14.63331822 31.36255957-20.08869797 132.5587209-35.95193648 146.92867415-17.64525634 15.98179212-35.20851799 2.97234014-45.113476-25.00808976-9.5879119-27.06796518-33.47023066-85.49302608-50.57432208-107.79650487-17.10409141-22.30347878-35.7004861-57.98795205-35.7004861-57.98795205l4.45504458-27.50507403z"/>
      <path fill="rgb(90,90,223)" fill-rule="evenodd" d="M229.84204102 380.77001953c-13.38708497 4.4584961-74.38012696 5.94482422-105.61462403-30.48291016 0 0-6.69628906-3.71533203-16.34979248-2.96679687-9.66986084.74316406-26.77398681 10.40332031-35.70043945 99.6171875-7.92633057 79.21289063 1.15447998 130.88012695 3.28894043 143.0246582.26934814 1.5324707.42810058 2.43579102.42810058 2.68554688 0 2.22924804 6.6907959 2.22924804 4.46051026-.74316406-2.23571778-2.9777832 2.23028564-23.78955079 15.61730957-32.7121582 13.38696289-8.92236329 23.05688476 0 23.05688476 0l-1.4868164-121.92041016 110.81848144-2.22924805s40.16101075 107.79638672 44.62695313 119.6911621c3.95251465 10.54003907 19.96960449 15.2282715 23.56713867 16.15966798-1.74487305-.6730957-6.05847168-3.89648438-6.05847168-19.31762696 0-19.32568359 15.95617676-38.4711914 15.95617676-38.4711914s-5.95288086-24.53271485-9.66992188-39.39990235c-3.71704101-14.87255859-25.28710937-80.29125976-34.21362304-90.69995117-8.92651368-10.4086914-19.33984375-6.69335937-19.33984375-6.69335937l-13.3869629 4.4584961zm67.43249511 190.30078125s-.25732422-.05761719-.71972656-.1772461c.44238281.1706543.71972656.1772461.71972656.1772461z"/>
      <g>
        <path fill="rgb(191,1,1)" fill-rule="evenodd" d="M292.72649386 569.53001566c.20771987.07103018.33344505.07103018.33344505.07103018s-.12025887-.0273193-.33344505-.07103018z"/>
        <path fill="rgb(91,83,201)" fill-rule="evenodd" d="M297.02301538 515.80387483c-6.44478229 1.98338138-17.35554178 24.78407147-17.35554178 24.78407147s-24.79519292-54.02665315-32.22937775-128.86515116l-8.84995973 50.77565613c12.21720815 32.78862718 31.39303196 84.2308743 34.39403745 92.24089387 4.08333534 10.87854636 20.5424019 15.41901448 22.7999889 15.92168965-.6176933-.2076267-1.97880508-1.03266964-3.11033174-4.30005825-.65049117-.5955608-4.3730499-2.33306846-5.07273788-2.97234014-5.94734786-5.45293284-3.47110835-18.33671602.49743443-32.71213314 3.96307647-14.37541712 15.37127039-16.85600981 8.9264881-14.87262843z"/>
      </g>
      <path fill="rgb(91,83,201)" fill-rule="evenodd" d="M122.8663032 437.16252988l-12.29373653-56.17395036c-13.386999 18.83392733-14.87383597 83.26923484-9.41845622 127.3789811 4.47144352 36.17622072 11.16220987 45.56313316 15.75937857 49.33319694 1.36111178.8031875 2.10453027 1.48617007 2.10453027 1.48617007l-1.48683697-121.9205844 5.33512088-.10381335z"/>
      <path fill="rgb(90,90,223)" fill-rule="evenodd" d="M87.26967703 380.49136821c22.81092153 61.45750351 11.4027276 73.84953925 41.41824884 145.98889014 16.76518005 40.29050773 49.0874851 70.62586152 49.0874851 70.62586152s26.03057952 6.68776532 58.7573917 4.45851022c32.72681217-2.22925511 56.6856593-4.4749018 56.6856593-4.4749018s-34.3721722-20.80091713-35.85900916-34.92499666c-1.48683697-14.12407953-7.94255188-70.15050565.4865018-109.8017417 6.5814401-30.96369775-20.56973346-61.92739551-20.56973346-61.92739551l-45.37039269-2.2292551-104.63615143-7.71497111z"/>
      <path fill="rgb(90,90,223)" fill-rule="evenodd" d="M127.43614034 474.66646872c-3.96854278-14.37541712 16.85810736 4.45851021 51.0717565 7.92806166 34.21364913 3.46955145 72.39584106-1.98338138 53.5534623 3.96676277-18.84237874 5.95014414-70.41156966-2.97234015-60.99311344 15.86158718 11.08568149 22.16688227 24.17749962 43.6179988 43.14013724 56.501782 12.39759646 8.42527297 42.1452684 16.35333463 13.386999 11.89482442-28.7582694-4.45851021-59.50627649-38.16506597-72.89327549-59.97133344-13.38153269-21.81173133-26.3804235-32.9798623-27.26596611-36.1816846z"/>
      <path fill="rgb(225,131,64)" fill-rule="evenodd" d="M203.19922982 358.31355822c.30064718-14.83984526 3.91934597-40.15937507 8.16120437-50.04349881 3.47110836-8.09744134-10.88342793-18.26568583-19.30154898-23.38532317l-7.12260503-.3059762c-1.08779616 2.36585163-2.10453026 4.71531166-3.0502023 7.04291626-7.51617951 49.3386608 14.98316221 69.72978839 25.71899971 73.83314767 4.6354329 1.77029082 9.82842965 1.9669898 14.26160898 1.56812797-6.6306369-2.3549239-13.09181813-5.03221557-18.66745675-8.70939372z"/>
      <path fill="rgb(251,188,27)" fill-rule="evenodd" d="M189.57171308 380.25095835c-2.58009944 0-5.2585925-.31144006-7.91522032-.9561756-6.20426454-1.51348937-21.01250476-7.26147068-24.45628155-27.90939971-.07652838-.44803657.22958512-.86875383.67782273-.94524788.4427713-.07103018.86914367.22948215.94567204.67751871 3.27978742 19.68082572 17.33367653 25.14468627 23.22089496 26.5816816 9.15060691 2.2292551 18.85877768.16391581 22.58133641-4.80273343 2.99007287-3.98315434 1.19712241-12.46306592 1.17525716-12.5504877-.09839362-.4425727.18585462-.87968154.62862592-.97803103.437305-.0983495.8800763.18577126.97846992.62834396.08199468.37700638 1.97333876 9.29949067-1.47043803 13.88366967-3.044736 4.0596484-9.33099522 6.3708614-16.36613924 6.3708614z"/>
      <path fill="rgb(238,151,89)" fill-rule="evenodd" d="M259.5623767 301.01951645c-5.04540633 26.63085634-16.694118 48.10929218-36.41657303 44.06057151-19.71698873-4.04872067-40.45071156-32.1766748-34.9898655-58.72557323 5.45537975-26.54889844 25.86659015-44.78726497 45.58357888-40.7385443 19.71698872 4.05418454 32.54642386 19.92123558 25.82285964 55.40354602z"/>
      <path fill="rgb(238,151,89)" fill-rule="evenodd" d="M329.74982756 432.53463999s-36.4439046 97.89052568-38.18219193 108.04784245c-1.73828733 10.16278063 1.73282103 16.60467223 2.72768988 16.60467223.98940254 0 31.98339369-53.03223054 31.98339369-53.03223054l3.47110836-71.62028414z"/>
      <path fill="rgb(238,151,89)" fill-rule="evenodd" d="M331.23666452 428.2400456c2.97367393-9.91144305-1.65082634-22.4673946-1.65082634-22.4673946l13.22300963 1.65008588-11.57218329 20.81730871z"/>
      <g>
        <path fill="rgb(244,235,249)" fill-rule="evenodd" d="M345.7661228 411.32939718h-36.8976085c-2.24118808 0-3.84828392-2.15822492-3.20872537-4.30005826l23.29195702-78.06217573c.42637236-1.41513989 1.7273547-2.38770707 3.20872536-2.38770707h36.89760852c2.24118807 0 3.8482839 2.15822492 3.20872536 4.30005826l-23.29742333 78.06217573c-.42090606 1.42060375-1.72735471 2.38770707-3.20325905 2.38770707z"/>
        <path fill="rgb(219,225,236)" fill-rule="evenodd" d="M350.39062307 411.32939718h-36.89760851c-2.24118807 0-3.84828391-2.15822492-3.20872536-4.30005826l23.29195702-78.06217573c.42090605-1.41513989 1.7273547-2.38770707 3.20872536-2.38770707h36.89760851c2.24118808 0 3.84828391 2.15822492 3.20872537 4.30005826l-23.29195702 78.05671187c-.42090606 1.4260676-1.72735471 2.39317093-3.20872537 2.39317093z"/>
        <path fill="rgb(244,235,249)" fill-rule="evenodd" d="M323.67675451 354.75112114c-3.9357449 14.16779042-6.5814401 25.80034954-5.91454999 25.9861208.66689011.18577125 4.39491515-11.1517394 8.33066006-25.31406595 3.9357449-14.16779042 6.5814401-25.80034954 5.91454999-25.9861208-.66689011-.18577126-4.39491515 11.14627553-8.33066006 25.31406595z"/>
      </g>
      <path fill="rgb(238,151,89)" fill-rule="evenodd" d="M348.75619567 434.51802137c1.09326248-12.87285547 12.24453972-24.93705957 16.49186443-28.78908126 1.29004972-1.16926616 2.01706927-2.83027977 2.00067033-4.57325128-.06012944-6.4145723-.34437768-21.56585761-1.67269159-23.33614843-1.68909052-2.25111055-5.91454998-31.25328237-7.88788875-30.1277271-1.97333877 1.12555528.56303018 26.46694053.56303018 26.46694053s-4.78848964-2.25111055-7.32485858-3.37666582c-2.53636894-1.12555528-12.96062664 10.41958207-12.96062664 10.41958207s-4.88688326 12.342861 8.47278418 7.05384398c15.86870482-6.27797578 3.96854278 11.2336973-6.61423797 22.4673946-8.71876824 9.25577977-1.30098235 11.30472748-1.30098235 11.30472748l7.04061034-.27865689 3.19232642 12.76904212z"/>
      <path fill="rgb(191,1,1)" fill-rule="evenodd" d="M344.76032133 444.64801884c-1.16979085 0-2.49263844-.1803074-3.82641866-.5955608-3.43284417-1.07091667-9.42392253-4.51861268-11.00915312-15.6102496-.06559575-.44803657.25145037-.86328998.69968799-.9288563.45370392-.06010247.86367735.24587372.9292731.69937415 1.35564547 9.48526192 5.95828048 12.94388565 9.57697927 14.17871814 2.96274131 1.0108142 5.40618294.5409222 6.02934255.19669898.03826419-.28412075.2241188-.53545834.50836705-.6501994.42090606-.16937969.90194154.03824701 1.07139723.45896428.16398937.4152534.06559575.87421769-.262383 1.23483248-.5794291.61195238-1.97880508 1.01627807-3.71709241 1.01627807z"/>
      <path fill="rgb(191,1,1)" fill-rule="evenodd" d="M343.3773443 441.45712427c-1.09326247 0-2.23572176-.0819579-3.32351792-.24040986-6.37372023-.92339244-10.6483765-4.15799788-11.72524004-8.87330954-.09839362-.4425727.174922-.88514541.6176933-.9834949.4427713-.0983495.8855426.17484354.98393622.61741624 1.02220042 4.49675724 5.11646838 6.40910843 8.36345793 7.2177598 4.55890452 1.13648299 8.83902711.43710884 9.34739416-.1529881.2241188-.39339796.71608692-.52453062 1.10966141-.30051233.3935745.22401828.5302323.73762117.3061135 1.13101913-.612227 1.09277211-3.00647181 1.58451956-5.67949856 1.58451956z"/>
      <path fill="rgb(255,255,255)" fill-rule="evenodd" d="M235.71826172 314.78857422c.40454101.0600586.80908203.09277344 1.21350098.09277344 5.80529785 0 11.15673828-6.31079102 12.50146484-15.04736329 1.43225098-9.34326171-2.3449707-17.41333007-8.6040039-18.3696289-3.1048584-.4753418-6.25341798.90698242-8.87182618 3.88476562-2.45983887 2.80297852-4.17614746 6.73144532-4.84313965 11.06982422-1.4321289 9.34326172 2.34509278 17.41333008 8.6040039 18.3696289zm-1.585083-27.52709961c1.7109375-1.9506836 3.64050292-2.98876953 5.5045166-2.98876953.24597167 0 .49743652.01635742.74890136.0546875 4.49328613.68847656 7.31933594 7.58935547 6.17687988 15.06933594-1.14782715 7.47998046-5.91455078 13.2224121-10.40783691 12.52856445-4.49328613-.68847656-7.3248291-7.58935547-6.17687988-15.06933594.5793457-3.79736328 2.05529785-7.20141601 4.15441894-9.59448242z"/>
      <path fill="rgb(255,255,255)" fill-rule="evenodd" d="M256.96044922 314.87573242c.19677734.02734375.39904785.04370117.5958252.04370117 3.9029541 0 7.76208496-5.76977539 8.96472167-13.59936523.57946778-3.78100586.44274903-7.45825195-.38269043-10.3540039-.90734863-3.18554688-2.5690918-5.11425782-4.67907714-5.43676758-4.0888672-.63916016-8.29248047 5.32739257-9.55517579 13.5559082-1.2626953 8.22851562.95666504 15.16235351 5.05639649 15.79052734zm-2.89172363-15.46240234c1.08776855-7.09765625 4.3675537-11.74194336 6.7836914-11.74194336.09289551 0 .18579102.0053711.27331543.02197266 1.19714356.18017578 2.2520752 1.58984374 2.9025879 3.8684082.7434082 2.60058594.8527832 5.94458008.32250976 9.42504883-1.1315918 7.3708496-4.6081543 12.0805664-7.05700684 11.7199707-2.43249511-.37158203-4.35119629-5.92285156-3.22509765-13.29345703z"/>
      <path fill="rgb(255,255,255)" fill-rule="evenodd" d="M230.07708776 290.2502473c-.1311915 0-.26784931-.01639158-.3990408-.0546386l-48.595517-13.87820581c-.77075004-.21855442-1.21352134-1.02174193-.99486885-1.79214626.2186525-.77040434 1.02220041-1.21297705 1.79295046-.99442263l48.59551699 13.87820581c.77075004.21855442 1.21352135 1.02174193.99486885 1.79214626-.1803883.63380783-.75981742 1.04906123-1.39390965 1.04906123z"/>
      <path fill="rgb(61,52,121)" fill-rule="evenodd" d="M264.78817132 260.05149002c-75.20552562 44.27912593-79.33805777 14.53933293-79.33805777 14.53933293l4.4605109-42.29574455 44.6269742 2.47512883 30.25057267 25.28128279z"/>
      <path fill="rgb(238,151,89)" fill-rule="evenodd" d="M191.27173622 284.42030809c1.74921996 7.48548896-.63955854 14.44098344-5.33512087 15.53921941-4.69556233 1.09823598-9.92135696-4.08150383-11.67057692-11.56699279-1.74921996-7.48548896.63955855-14.44098344 5.33512088-15.53921941 4.69009601-1.09823598 9.92135696 4.08150383 11.67057691 11.56699279z"/>
      <path fill="rgb(196,177,177)" fill-rule="evenodd" d="M186.11700366 294.24979323c0 1.6336943-1.3228476 2.96141242-2.9627413 2.96141242-1.63989372 0-2.96274131-1.32225426-2.96274131-2.96141242 0-1.63369431 1.3283139-2.96141242 2.9627413-2.96141242 1.6344274 0 2.9627413 1.32771811 2.9627413 2.96141242z"/>
      <path fill="rgb(221,233,242)" fill-rule="evenodd" d="M572.71262227 610.58H12.24160365c-2.83444624 0-5.13539757-3.48898137-5.13539757-7.7930876 0-4.29793103 2.30095133-7.7869124 5.13539757-7.7869124h560.47101862c2.83851872 0 5.13539756 3.48898137 5.13539756 7.7869124 0 4.30410623-2.30095132 7.7930876-5.13539756 7.7930876z"/>
      <path fill="rgb(217,227,233)" fill-rule="evenodd" d="M192.3212682 595.47242557s-28.35922859.3606148-28.7200052 2.86852679c-.36077662 2.51337585 1.07686353 3.58975638 11.12941199 5.38190264 10.05254845 1.79214627 123.12868618 2.51337586 124.20554972 1.79214627 1.07686354-.71576574 34.1043229-8.61104424 34.1043229-8.61104424l-79.33259147-1.43699532H192.3212682v.00546386z"/>
      <path fill="rgb(238,151,89)" fill-rule="evenodd" d="M207.76360065 576.60025121s20.32921572-8.92248428 26.28202989-4.95572152c5.94734786 3.96676276 23.13890027 22.13956297 23.13890027 22.13956297l-49.42093016-17.18384145z"/>
      <path fill="rgb(251,188,27)" fill-rule="evenodd" d="M256.06393677 595.40139538c-.38810817.48081973-.96207097.68844643-1.2845834.4425727l-41.83368859-31.12761357c-2.2521207-1.67740519-3.32351792-4.23995579-2.24118807-5.5949932 1.08232985-1.35503743 3.82095235-.86875384 5.95281417.96163945l39.55970264 33.96882106c.3061135.26226531.23505143.86875383-.15305675 1.34957356z"/>
      <path fill="rgb(238,151,89)" fill-rule="evenodd" d="M146.27851909 572.80286813s33.71621471 13.3809945 37.6847575 13.3809945c3.96854277 0 26.1125742-14.86716457 33.55222533-12.88924705 7.43965114 1.98338138 43.80156104 20.3200974 42.8066922 21.80626747-.98940255 1.48617007-11.40272762 4.95572152-42.15073471 3.96676276-30.74254078-.98895876-80.82489474-5.45293283-80.82489474-5.45293283l8.93195442-20.81184485z"/>
      <path fill="rgb(90,90,223)" fill-rule="evenodd" d="M577.3191149 597.36838518H427.17044666c-.03826419 0-.07652838-.03278316-.07652838-.07649405v-28.91475005c0-.03824702.03279788-.07649405.07652838-.07649405H577.3191149c.10385994 0 .18585462.08195791.18585462.18577126v28.69073177c0 .10927721-.08199468.19123512-.18585462.19123512z"/>
      <path fill="rgb(240,227,220)" fill-rule="evenodd" d="M557.59665986 573.2235854H427.11578353c-.91287416 1.51895323-1.44857278 3.28378019-1.44857278 5.17427594v8.8787734c0 1.89049575.53569862 3.6553227 1.44857278 5.17427594h130.48634265c4.63543289 0 8.42358736-3.78645536 8.42358736-8.41980911v-2.38770706c-.00546631-4.63335375-3.79362078-8.41980912-8.42905368-8.41980912z"/>
      <path fill="rgb(251,188,27)" fill-rule="evenodd" d="M569.77560383 568.3061109H456.66120191c-.02733157 0-.0437305-.02185545-.0437305-.0437109v-17.48981762c0-.0273193.02186525-.04371089.0437305-.04371089h113.1089356c.06012944 0 .11479257.04917475.11479257.11474107v17.34775726c0 .06010247-.04919681.11474107-.10932625.11474107z"/>
      <path fill="rgb(240,227,220)" fill-rule="evenodd" d="M554.89630155 553.69574777h-98.2624312c-.68875536.91792858-1.09326248 1.98338138-1.09326248 3.1307921v5.37097492c0 1.14194686.40450712 2.21286353 1.09326247 3.1307921h98.26243121c3.4875073 0 6.34092235-2.28935757 6.34092235-5.09231803v-1.4424592c0-2.80296046-2.85341505-5.09778189-6.34092235-5.09778189z"/>
      <g>
        <path fill="rgb(198,210,233)" fill-rule="evenodd" d="M581.50084387 195.20639296H470.03726828c-3.55310304 0-5.40071662-2.90677381-4.1106669-6.45828317l16.85264104-46.28982662C484.07475845 138.90677381 488.04330124 136 491.59640428 136h111.46357559c3.55310304 0 5.40071662 2.90677381 4.1106669 6.45828317l-16.85264104 46.28982662c-1.29551604 3.55150936-5.26405882 6.45828317-8.81716186 6.45828317z"/>
        <path fill="rgb(255,255,255)" fill-rule="evenodd" d="M577.72362202 190.35994865h-100.3778941c-3.07753386 0-4.67916339-2.51883971-3.55856935-5.5949932l13.95549549-38.3289818c1.12059403-3.07615348 4.5534382-5.5949932 7.63097207-5.5949932h100.3778941c3.07753386 0 4.67916338 2.51883972 3.55856935 5.5949932l-13.95549549 38.3289818c-1.12059404 3.07615349-4.5534382 5.5949932-7.63097207 5.5949932z"/>
        <path fill="rgb(198,210,233)" fill-rule="evenodd" d="M514.270668 192.51270971c-9.24353422 24.40160123-23.47234533 31.93626494-23.47234533 31.93626494s10.1181442-13.99294688 8.65317249-20.81184485c-1.46497172-6.81889797-6.88208728-9.68742476-6.88208728-9.68742476l21.70126012-1.43699533z"/>
        <path fill="rgb(198,210,233)" fill-rule="evenodd" d="M585.78643277 154.4787764H521.0762269c-1.0604646 0-1.61256215-.86875383-1.22992028-1.92874278l.03279787-.09288563c.38810818-1.05998895 1.56883165-1.92874278 2.62929626-1.92874278h64.71020586c1.0604646 0 1.61256215.86875383 1.22445397 1.92874278l-.03279787.09288563c-.37717556 1.05998895-1.56336534 1.92874277-2.62382994 1.92874277z"/>
        <path fill="rgb(198,210,233)" fill-rule="evenodd" d="M582.77996096 162.7346697h-64.70473955c-1.0604646 0-1.61256215-.86875384-1.22992028-1.92874278l.03279787-.08742177c.38810818-1.05998895 1.56883165-1.92874278 2.62929625-1.92874278h64.70473956c1.0604646 0 1.61256215.86875383 1.22992028 1.92874278l-.03279788.08742177c-.38264186 1.05998894-1.56883165 1.92874277-2.62929625 1.92874277z"/>
        <path fill="rgb(198,210,233)" fill-rule="evenodd" d="M579.38538098 172.06147966h-64.71020586c-1.0604646 0-1.61256215-.86875383-1.22992029-1.92874278l.03279788-.08742177c.38810817-1.05998895 1.56883165-1.92874277 2.62929625-1.92874277h64.71020586c1.0604646 0 1.61256215.86875382 1.22445397 1.92874277l-.03279787.08742177c-.38264187 1.05998895-1.56336534 1.92874278-2.62382994 1.92874278z"/>
        <path fill="rgb(198,210,233)" fill-rule="evenodd" d="M510.98541426 161.11736697c-2.5637005 7.03198853-9.29819734 12.73625895-15.04875796 12.73625895-5.75056061 0-8.33612637-5.70427042-5.77242586-12.73625895 2.5637005-7.0374524 9.29819734-12.73625895 15.04875796-12.73625895 5.75056061 0 8.33612637 5.69880655 5.77242586 12.73625895z"/>
      </g>
      <g>
        <path fill="rgb(202,213,234)" fill-rule="evenodd" d="M447.91510211 280.60653342H336.45152652c-3.55310304 0-5.40071662-2.90677381-4.1106669-6.45828317l16.85264104-46.28982662c1.29551604-3.55150936 5.2585925-6.45828317 8.81169555-6.45828317H469.4687718c3.55310304 0 5.40071662 2.90677381 4.1106669 6.45828317l-16.85264104 46.28982662c-1.29004972 3.55150936-5.2585925 6.45828317-8.81169555 6.45828317z"/>
        <path fill="rgb(255,255,255)" fill-rule="evenodd" d="M444.13241395 275.76008911H343.75998617c-3.07753387 0-4.6791634-2.51883971-3.55856936-5.5949932l13.95549549-38.3289818c1.12059403-3.07615348 4.5534382-5.5949932 7.63097207-5.5949932h100.3778941c3.07753386 0 4.67916339 2.51883972 3.55856935 5.5949932l-13.95549549 38.3289818c-1.12059403 3.07615349-4.5534382 5.5949932-7.63643838 5.5949932z"/>
        <path fill="rgb(202,213,234)" fill-rule="evenodd" d="M342.0982272 277.91285017c-8.5274473 24.40160123.2186525 31.93626494.2186525 31.93626494s.07106206-13.99294688 6.49944541-20.81184485c6.43384966-6.81889797 13.93909655-9.68742477 13.93909655-9.68742477l-20.65719446-1.43699532z"/>
        <path fill="rgb(202,213,234)" fill-rule="evenodd" d="M416.8937794 243.10805844h-54.6029943c-.9784699 0-1.48683696-.79772364-1.13152665-1.77575468l.14212412-.39339796c.3553103-.97803104 1.44857278-1.77575468 2.42157638-1.77575468h54.60299429c.97846991 0 1.48683696.79772364 1.13152666 1.77575468l-.14212412.39339796c-.3553103.97803104-1.44310647 1.77575468-2.42157638 1.77575468z"/>
        <path fill="rgb(202,213,234)" fill-rule="evenodd" d="M413.8873076 251.35848788h-54.6029943c-.97846991 0-1.48683696-.79772364-1.13152666-1.77575468l.14212412-.39339796c.3553103-.97803104 1.44857278-1.77575468 2.42157639-1.77575468h54.60299428c.97846992 0 1.48683697.79772364 1.13152666 1.77575468l-.14212412.39339796c-.3553103.97803104-1.44310646 1.77575468-2.42157638 1.77575468z"/>
        <path fill="rgb(202,213,234)" fill-rule="evenodd" d="M410.4927276 260.6907617h-54.60299428c-.97846991 0-1.48683696-.79772364-1.13152666-1.77575468l.14212412-.39339796c.3553103-.97803104 1.44857278-1.77575468 2.42157638-1.77575468h54.6029943c.9784699 0 1.48683696.79772364 1.13152665 1.77575468l-.14212412.39339796c-.3553103.97803104-1.44857278 1.77575468-2.42157638 1.77575468z"/>
        <path fill="rgb(202,213,234)" fill-rule="evenodd" d="M435.86188333 263.91990329h-7.89882138c-3.55310304 0-5.40071662-2.90677381-4.1106669-6.45828317l5.88175211-16.14570794c1.29551603-3.55150936 5.2585925-6.45828318 8.81169554-6.45828318h7.89882138c3.55310304 0 5.40618294 2.90677382 4.1106669 6.45828318l-5.8817521 16.14570794c-1.29004973 3.55150936-5.2585925 6.45828317-8.81169555 6.45828317z"/>
      </g>
    </g>
  </g>
</svg>
