<?xml version="1.0" encoding="UTF-8"?>
<svg xmlns="http://www.w3.org/2000/svg" xmlns:xlink="http://www.w3.org/1999/xlink" width="429.28" height="668.36" viewBox="0 0 429.28 668.36">
  <defs>
    <rect id="rect-1" width="402.119" height="445.665" x="0" y="222.695"></rect>
    <mask id="mask-2" maskContentUnits="userSpaceOnUse" maskUnits="userSpaceOnUse">
      <rect width="429.28" height="668.36" x="0" y="0" fill="black"></rect>
      <use fill="white" xlink:href="#rect-1"></use>
    </mask>
    <path id="path-22" fill-rule="evenodd" d="M215.52858078 294.33589901c-2.26604261 7.684639-8.7110258 6.50714198-16.39201532 4.23965958-7.68098952-2.26711002-12.06590013-10.36435708-9.79985752-18.04899608 2.26604262-7.6850114 10.35906526-12.07213739 18.03996175-9.80502737 7.68098952 2.26711 10.44735142 15.92935248 8.1519111 23.61436387z"></path>
    <mask id="mask-23" maskContentUnits="userSpaceOnUse" maskUnits="userSpaceOnUse">
      <rect width="429.28" height="668.36" x="0" y="0" fill="black"></rect>
      <use fill="white" xlink:href="#path-22"></use>
    </mask>
    <path id="path-27" fill-rule="evenodd" d="M224.18071813 314.1220942l-4.53208523 53.9708478h-36.40371696l-4.59092718-53.9708478c-.3825889-4.82878047 3.41376279-8.98055602 8.26959498-8.98055602h28.98753942c4.8558322 0 8.6816281 4.15177555 8.26959497 8.98055602z"></path>
    <mask id="mask-28" maskContentUnits="userSpaceOnUse" maskUnits="userSpaceOnUse">
      <rect width="429.28" height="668.36" x="0" y="0" fill="black"></rect>
      <use fill="white" xlink:href="#path-27"></use>
    </mask>
    <path id="path-30" fill-rule="evenodd" d="M224.18071813 314.1220942l-4.53208523 53.9708478h-36.40371696l-4.59092718-53.9708478c-.3825889-4.82878047 3.41376279-8.98055602 8.26959498-8.98055602h28.98753942c4.8558322 0 8.6816281 4.15177555 8.26959497 8.98055602z"></path>
    <mask id="mask-31" maskContentUnits="userSpaceOnUse" maskUnits="userSpaceOnUse">
      <rect width="429.28" height="668.36" x="0" y="0" fill="black"></rect>
      <use fill="white" xlink:href="#path-30"></use>
    </mask>
    <path id="path-35" fill-rule="evenodd" d="M224.18071813 314.1220942l-4.53208523 53.9708478h-36.40371696l-4.59092718-53.9708478c-.3825889-4.82878047 3.41376279-8.98055602 8.26959498-8.98055602h28.98753942c4.8558322 0 8.6816281 4.15177555 8.26959497 8.98055602z"></path>
    <mask id="mask-36" maskContentUnits="userSpaceOnUse" maskUnits="userSpaceOnUse">
      <rect width="429.28" height="668.36" x="0" y="0" fill="black"></rect>
      <use fill="white" xlink:href="#path-35"></use>
    </mask>
    <path id="path-52" fill-rule="evenodd" d="M388.34442584 14.63380785c2.47210569 8.3031787-2.26604262 17.01859309-10.5650353 19.46258833-8.2989927 2.47304165-15.24420213 3.73916748-17.68681709-4.56401123-2.44261495-8.3031787.5003193-23.02524297 8.79931198-25.46886582 8.29899268-2.47341405 17.00992545 2.26711001 19.4525404 10.57028872z"></path>
    <mask id="mask-53" maskContentUnits="userSpaceOnUse" maskUnits="userSpaceOnUse">
      <rect width="429.28" height="668.36" x="0" y="0" fill="black"></rect>
      <use fill="white" xlink:href="#path-52"></use>
    </mask>
    <path id="path-60" fill-rule="evenodd" d="M403.00011554 114.97874846h-56.68037013l-7.06298635-63.952388c-.64740088-5.21159735 5.29726302-9.68697976 12.86056866-9.68697976h45.14409397c7.56330564 0 13.47857182 4.47538241 12.86056866 9.68697976l-7.1218748 63.952388z"></path>
    <mask id="mask-61" maskContentUnits="userSpaceOnUse" maskUnits="userSpaceOnUse">
      <rect width="429.28" height="668.36" x="0" y="0" fill="black"></rect>
      <use fill="white" xlink:href="#path-60"></use>
    </mask>
    <path id="path-63" fill-rule="evenodd" d="M403.00011554 114.97874846h-56.68037013l-7.06298635-63.952388c-.64740088-5.21159735 5.29726302-9.68697976 12.86056866-9.68697976h45.14409397c7.56330564 0 13.47857182 4.47538241 12.86056866 9.68697976l-7.1218748 63.952388z"></path>
    <mask id="mask-64" maskContentUnits="userSpaceOnUse" maskUnits="userSpaceOnUse">
      <rect width="429.28" height="668.36" x="0" y="0" fill="black"></rect>
      <use fill="white" xlink:href="#path-63"></use>
    </mask>
  </defs>
  <g>
    <g>
      <use fill="none" xlink:href="#rect-1"></use>
      <g mask="url(#mask-2)">
        <rect width="113.92" height="164.828" x="0" y="470.084" fill="rgb(90,90,223)" rx="0" ry="0"></rect>
        <rect width="113.92" height="251.481" x="155.876" y="383.433" fill="rgb(251,188,27)" rx="0" ry="0"></rect>
        <g>
          <path fill="rgb(251,188,27)" fill-rule="evenodd" d="M31.01821916 393.05831097c-7.62212406 1.08942914-25.80927723 43.87160606-20.39433195 53.64702432 5.44437433 9.77541827 35.31486052 21.19970226 35.31486052 21.19970226l-1.61859778-16.84198568s-20.4826191-8.68598912-18.83459227-14.13313484c1.61859777-5.44714572 13.419647-25.73408302 13.419647-25.73408302l-7.88698552-18.13752304z"></path>
          <path fill="rgb(251,188,27)" fill-rule="evenodd" d="M81.95990546 393.05831097c7.62212406 1.08942914 25.83870628 43.87160606 20.39433195 53.64702432-5.44437433 9.77541827-35.31486052 21.19970226-35.31486052 21.19970226l1.61859777-16.84198568s20.4826191-8.68598912 18.83459228-14.13313484c-1.61859777-5.44714572-13.419647-25.73408302-13.419647-25.73408302l7.88698552-18.13752304z"></path>
          <path fill="rgb(251,188,27)" fill-rule="evenodd" d="M35.69743818 391.8511057H77.4866898c6.29781679 0 11.33018441 5.00548526 11.12418106 11.0415116 0 0-7.97527267 32.56509818-8.06355982 43.45938962-.0588581 5.97713828 1.88345923 23.87910907 1.88345923 23.87910907H30.7533577s2.38375309-18.69695963 2.32489499-24.96853821c-.08828715-10.6587392-8.53442463-42.36996048-8.53442463-42.36996048-.1765743-6.03602634 4.85579332-11.0415116 11.15361012-11.0415116z"></path>
          <path fill="rgb(252,168,158)" fill-rule="evenodd" d="M61.94815117 400.00710227s-.52972291 4.3871606-5.20894193 4.15160835c-5.12065478-.23555224-5.50323243-4.15160835-5.50323243-4.15160835V379.6612769h10.6827453v20.34582536h.02942906z"></path>
          <path fill="rgb(252,168,158)" fill-rule="evenodd" d="M69.80570763 378.77795598c0 7.30211966-5.91523914 18.16696707-13.21364364 18.16696707-7.29840451 0-13.21364365-10.8648474-13.21364365-18.16696707 0-7.30211967 5.91523914-13.22036988 13.21364365-13.22036988 7.2984045 0 13.21364364 5.91825021 13.21364364 13.22036988z"></path>
          <rect width="70.012" height="41.752" x="21.601" y="432.926" fill="rgb(41,38,107)" rx="0" ry="0"></rect>
          <path fill="rgb(12,92,155)" fill-rule="evenodd" d="M63.03702603 453.06524597c0 3.56272774-2.88404694 6.44824277-6.44496204 6.44824277s-6.44496205-2.88551503-6.44496205-6.44824277 2.88404694-6.44824277 6.44496205-6.44824277c3.5609151.02944403 6.44496204 2.91495906 6.44496204 6.44824277z"></path>
          <path fill="rgb(43,121,230)" fill-rule="evenodd" d="M51.91284497 496.96629606s-1.23602012 1.17776124-4.88522238 2.70885084c-3.7374894 1.58997767-11.15361011 4.50493673-10.06473524 7.74378013 1.50088157 4.35771658 6.7098235 4.03383224 10.18245145 3.00329116 7.50440786-2.26719038 15.33253527-7.56711595 15.33253527-7.56711595l-10.5650291-5.88880618z"></path>
          <path fill="rgb(230,249,255)" fill-rule="evenodd" d="M60.88870535 485.60090013c12.71334979-9.27486974 19.36431519-16.13532894 33.6079756-24.82131806 3.3843408-2.06108217 5.70923578-2.67940681 11.62447492-.3827724 5.00293857 1.97275007 4.47321566 10.59985113 1.73631397 14.1920229-8.21070507 10.80595934-39.84693428 25.70463898-46.23303823 27.97182936-2.76633074.97165302-12.50734643-7.2432316-8.53442463-11.15928771 1.94231733-1.94330604 4.35549947-3.29773146 7.79869837-5.8004741z"></path>
          <path fill="rgb(43,121,230)" fill-rule="evenodd" d="M55.03232431 503.4734269s3.0900503 4.09272029 6.7098235 6.88990323c4.29664137 3.32717549 7.26897546 4.44604866 10.77103246 2.79718293 5.06179668-2.35552247.4120067-7.3315637-3.53148605-11.27706384-5.82695199-5.82991812-10.00587715-8.24432865-10.00587715-8.24432865l-3.94349276 9.83430632z"></path>
          <path fill="rgb(255,255,255)" fill-rule="evenodd" d="M43.6432818 381.33958667s4.53207376-6.12435843 5.97409723-10.45263098c1.44202347-4.35771657 2.29546594.26499628 8.56385368 5.03492929 3.2666246 2.4732986 11.50675872 5.56492184 11.50675872 5.56492184s1.88345923-8.27377268-1.03001677-12.51371314c-6.91582685-10.06985857-21.10062916-9.39264586-25.39727052 2.35552248-2.20717878 5.91825021.38257765 10.0109705.38257765 10.0109705z"></path>
          <path fill="rgb(245,151,98)" fill-rule="evenodd" d="M55.67976342 491.2835981l5.41494528 4.4754927s1.88345923 1.5310896 2.82518884 3.29773145c1.76574303 3.29773147-4.3260704 10.01097051-8.29899222 6.06547037-3.9729218-3.94550014-7.50440786-8.1854406-7.50440786-8.1854406l7.56326596-5.65325393z"></path>
          <path fill="rgb(205,238,252)" fill-rule="evenodd" d="M39.52321473 498.37960954c-14.77338331-7.44933982-23.83753085-10.12874663-33.31368509-23.49633666-2.41318213-3.41550759-3.3843408-9.0393175-2.44261118-11.83650043 1.14773296-3.41550759 6.15067154-5.47658975 12.03648162-4.06327627 4.94408048 1.17776124 38.14004937 27.20628457 43.31956224 32.0939937 2.23660784 2.11997022-4.56150281 12.69037732-10.1530224 10.8648474-2.76633074-.94220899-5.44437433-1.56053363-9.44672519-3.56272774z"></path>
        </g>
        <g>
          <path fill="rgb(100,134,206)" fill-rule="evenodd" d="M232.03827977 368.24024588h-48.79336562v11.7187243c0 6.33046665 5.15008382 11.48317206 11.47732967 11.48317206h37.31603595c6.32724584 0 11.47732967-5.1527054 11.47732967-11.48317205v-.23555225c0-6.35991068-5.15008383-11.48317206-11.47732967-11.48317206z"></path>
          <path fill="rgb(255,100,95)" fill-rule="evenodd" d="M183.24491415 368.09302573h36.40373538l4.53207377-53.97090866c.4120067-4.82882107-3.41376985-8.98042943-8.26956317-8.98042943h-28.98761468c-4.85579332 0-8.65214083 4.15160836-8.26956317 8.98042943l4.59093187 53.97090866z"></path>
          <path fill="rgb(252,168,158)" fill-rule="evenodd" d="M199.13660138 308.49830716h5.65037768c1.76574303 0 3.17833745-1.6194217 3.17833745-3.59217177v-6.97823532c0-1.97275008-1.41259442-3.59217178-3.17833745-3.59217178h-5.65037768c-1.76574302 0-3.17833745 1.6194217-3.17833745 3.59217178v6.97823532c0 1.97275007 1.44202348 3.59217177 3.17833745 3.59217177z"></path>
          <g>
            <path fill="rgb(252,168,158)" fill-rule="evenodd" d="M215.52858247 294.3357283c-2.26603688 7.68489206-8.71099893 6.50713083-16.39198109 4.23994045-7.68098216-2.26719038-12.06591068-10.36429889-9.7998738-18.04919095 2.26603689-7.68489207 10.35902576-12.07205268 18.04000792-9.8048623 7.68098217 2.26719038 10.4473129 15.92922073 8.15184697 23.6141128z"></path>
            <g>
              <use fill="none" xlink:href="#path-22"></use>
              <g mask="url(#mask-23)">
                <path fill="rgb(255,255,255)" fill-rule="evenodd" d="M199.54860809 277.90595904s0 5.12326138-.70629721 5.12326138-3.35491175-1.0599851-5.29722908 1.41331349c-1.94231733 2.4732986.1765743 4.9465972 2.47204024 5.47658975 2.29546593.52999255.7062972 6.53657486-4.76750618 5.47658975-5.47380338-1.05998512-7.4161207-13.98591469-4.59093186-18.93251188 2.82518884-4.9465972 11.83047827-10.42318694 15.03824477-10.06985857 3.17833745.35332837 30.13534764 8.50932493 30.13534764 8.50932493l-32.28366832 3.00329115z"></path>
              </g>
            </g>
          </g>
          <path fill="rgb(90,90,223)" fill-rule="evenodd" d="M223.35670989 310.08828483l17.30428166 29.73847122-13.44907605 5.68269797-10.71217436-17.57808646 6.85696875-17.84308273z"></path>
          <path fill="rgb(90,90,223)" fill-rule="evenodd" d="M180.86116106 307.87998251l-22.80751409 32.88898253c-1.05944581 2.26719038-.2354324 5.85936215 2.11889164 6.62490696l33.01939458 16.4886573 4.59093187-7.77322415-22.48379453-17.46031033 17.77514646-17.78419467-12.21305593-12.98481764z"></path>
          <g>
            <g>
              <use fill="none" xlink:href="#path-27"></use>
              <g mask="url(#mask-28)">
                <rect width=".765" height="27.058" x="188.056" y="335.95" fill="rgb(255,186,87)" rx="0" ry="0" transform="rotate(-45.826574 188.43868834 349.47858005)"></rect>
              </g>
            </g>
            <g>
              <use fill="none" xlink:href="#path-30"></use>
              <g mask="url(#mask-31)">
                <rect width=".765" height="25.056" x="183.594" y="347.044" fill="rgb(255,186,87)" rx="0" ry="0" transform="rotate(-62.281779 183.97687643 359.57170383)"></rect>
              </g>
            </g>
          </g>
          <rect width="56.827" height="4.829" x="192.044" y="363.647" fill="rgb(205,238,252)" rx="0" ry="0"></rect>
          <g>
            <path fill="rgb(90,90,223)" fill-rule="evenodd" d="M183.24491415 368.09302573h36.40373538l4.53207377-53.97090866c.4120067-4.82882107-3.41376985-8.98042943-8.26956317-8.98042943h-28.98761468c-4.85579332 0-8.65214083 4.15160836-8.26956317 8.98042943l4.59093187 53.97090866z"></path>
            <g>
              <use fill="none" xlink:href="#path-35"></use>
              <g mask="url(#mask-36)">
                <path fill="rgb(252,168,158)" fill-rule="evenodd" d="M213.52740704 307.79165042c0 6.62490696-5.35608718 11.98372058-11.97762352 11.98372058-6.62153635 0-11.97762353-5.35881362-11.97762353-11.98372058 0-6.62490695 5.35608718-11.98372058 11.97762353-11.98372058 6.62153634 0 11.97762352 5.35881363 11.97762352 11.98372058z"></path>
              </g>
            </g>
          </g>
          <path fill="rgb(252,168,158)" fill-rule="evenodd" d="M192.57392313 363.79419722H207.082445l1.05944581-6.35991068h-10.94760676c-2.06003353 0-3.7963475 1.47220154-4.1494961 3.50383968l-.47086482 2.856071z"></path>
          <path fill="rgb(205,238,252)" fill-rule="evenodd" d="M203.19781034 363.85308528h45.64445723l6.26838774-28.26626968h-45.64445723l-6.26838774 28.26626968z"></path>
          <path fill="rgb(140,179,222)" fill-rule="evenodd" d="M227.0353412 350.48549524c0 1.64886573 1.35373631 3.00329116 3.00176314 3.00329116 1.64802682 0 3.00176314-1.35442543 3.00176314-3.00329116 0-1.64886573-1.35373632-3.00329115-3.00176314-3.00329115-1.64802683 0-3.00176315 1.3249814-3.00176315 3.00329115z"></path>
          <path fill="rgb(252,168,158)" fill-rule="evenodd" d="M242.80931223 377.27956337l6.00352629 66.92628227h-8.82871513s-14.15537326-43.57716575-15.56796768-57.73974462c-1.41259443-14.16257887 8.82871513-11.65983624 8.82871513-11.65983624l9.56444139 2.4732986z"></path>
          <path fill="rgb(252,168,158)" fill-rule="evenodd" d="M214.88114336 377.27956337l6.0035263 66.92628227h-8.82871514s-14.15537326-43.57716575-15.56796768-57.73974462c-1.41259442-14.16257887 8.82871513-11.65983624 8.82871513-11.65983624l9.5644414 2.4732986z"></path>
          <path fill="rgb(255,100,95)" fill-rule="evenodd" d="M220.88466965 444.20584564h-8.65214082v6.65435098h17.5691431c1.14773297 0 1.55973968-2.62051875.52972291-3.17995534l-9.44672519-3.47439564z"></path>
          <path fill="rgb(255,100,95)" fill-rule="evenodd" d="M248.4008318 444.20584564h-8.65214082v6.65435098h17.56914311c1.14773297 0 1.55973967-2.62051875.5297229-3.17995534l-9.44672518-3.47439564z"></path>
          <path fill="rgb(100,134,206)" fill-rule="evenodd" d="M190.6316058 370.12466386l45.37959578.26499628s5.35608718 1.5310896 6.8863978 6.12435843c1.53031062 4.59326882 5.09122572 26.26407557 5.09122572 26.26407557h-49.70566618l-3.3254827-16.31199312-4.32607041-16.34143716z"></path>
        </g>
        <path fill="rgb(255,255,255)" fill-rule="evenodd" d="M324.6612844 279.46323971c-3.00176315-4.50493673-18.59915988-16.87142971-34.0199823-3.3271755-13.5962213 11.95427656-5.65037769 21.08192614-6.0035263 24.4679897-.38257765 3.38606355-6.7686816 7.53767191-7.15125925 13.92702662-.38257765 6.3893547 14.39080566 8.8626533 16.15654869-5.27048154.76515531-6.0065823 10.3884548-4.79937703 18.74630513-11.89538848 7.5338369-6.38935471 12.27191403-17.9019708 12.27191403-17.9019708z"></path>
      </g>
    </g>
    <rect width="113.92" height="412.216" x="309.268" y="224.56" fill="rgb(90,90,223)" rx="0" ry="0"></rect>
    <g>
      <path fill="rgb(205,238,252)" fill-rule="evenodd" d="M403.00013606 114.97894071h-56.68035113l1.50088157 102.84799998h10.82989056s8.18127602-51.73316231 11.27132632-80.32331633h7.50440786l2.26603688 80.32331633h10.82989056s12.77220789-80.64720067 12.41905928-96.193649c.2942905-1.17776123.0588581-6.65435098.0588581-6.65435098z"></path>
      <path fill="rgb(251,188,27)" fill-rule="evenodd" d="M403.00013606 114.97894071h-56.68035113l-7.0629721-63.95243514c-.64743912-5.21159347 5.29722907-9.68708617 12.86049503-9.68708617h45.14416337c7.56326596 0 13.4785051 4.4754927 12.86049504 9.68708617l-7.1218302 63.95243514z"></path>
      <path fill="rgb(252,168,158)" fill-rule="evenodd" d="M381.6640745 40.92720297v-9.4220899c0-2.14941425-3.17833745-1.94330603-5.09122573-1.94330603h-6.09181344c-1.88345922 0-5.09122572 1.73719782-5.09122572 3.85716805v7.50822788c-.5297229.6772127 1.64802682 7.74378013 7.4161207 7.3315637 9.88816095-.70665675 8.85814419-6.62490696 8.85814419-7.3315637z"></path>
      <g>
        <path fill="rgb(252,168,158)" fill-rule="evenodd" d="M360.09258053 29.532363c2.44261119 8.30321672 9.38786709 7.0371234 17.68685931 4.5638248 8.29899222-2.44385457 13.03706934-11.15928772 10.5650291-19.46250444-2.44261118-8.30321671-11.1536101-13.0437057-19.45260233-10.5704071-8.29899222 2.44385457-11.24189727 17.16587003-8.79928608 25.46908674z"></path>
        <g>
          <use fill="none" xlink:href="#path-52"></use>
          <g mask="url(#mask-53)">
            <path fill="rgb(17,34,86)" fill-rule="evenodd" d="M377.33800409 11.8070564s0 5.5354778.7651553 5.5354778c.76515532 0 3.61977321-1.1483172 5.7092358 1.53108961 2.08946257 2.67940682-.17657431 5.3293696-2.6780436 5.91825022-2.47204023.55943659-.76515531 7.06656742 5.15008383 5.91825021 5.91523914-1.1483172 8.00470172-15.07534383 4.94408047-20.40471342-3.06062124-5.3293696-12.77220789-11.2476198-16.21540679-10.8648474-3.4431989.3827724-26.04470963 12.5726012-26.04470963 12.5726012l28.36960462-.20610822z"></path>
          </g>
        </g>
      </g>
      <path fill="rgb(251,188,27)" fill-rule="evenodd" d="M353.67704754 63.92299111l-38.61091417-13.57369825c-3.3254827-1.08942914-5.65037769-6.1832465-4.53207377-9.48097795 2.41318213-7.18434355 22.27779118-29.7090272 22.27779118-29.7090272l7.4161207 5.77103006-12.77220788 21.0524821s22.27779118 3.29773147 29.69391189 4.12216433c3.3254827.35332838.44143575 14.04480275.44143575 14.04480275l-3.9140637 7.77322416z"></path>
      <path fill="rgb(255,125,125)" fill-rule="evenodd" d="M390.55164773 217.67972053h-10.91817771v7.15489952h18.95230848c1.26544917 0 1.67745587-2.79718294.588581-3.41550759l-8.62271177-3.73939193z"></path>
      <path fill="rgb(255,125,125)" fill-rule="evenodd" d="M347.67352125 217.67972053h10.9181777v7.15489952h-18.95230847c-1.26544917 0-1.67745588-2.79718294-.58858101-3.41550759l8.62271178-3.73939193z"></path>
      <path fill="rgb(252,168,158)" fill-rule="evenodd" d="M332.81185078 11.12984368L347.6440922 0l2.35432403 2.62051875-9.77044474 14.280355-7.41612071-5.77103007z"></path>
      <path fill="rgb(251,188,27)" fill-rule="evenodd" d="M397.23204218 41.3394194c9.41729614 1.1483172 10.65331626 1.56053364 16.83341685 11.86594446 6.18010059 10.30541082 15.21481907 28.47237789 14.83224142 31.77010935-.82401341 7.4198958-44.93816002 31.77010936-44.93816002 31.77010936l-2.06003353-14.01535872 29.28190519-21.87691497-14.83224142-23.93799713.8828715-15.57589235z"></path>
      <g>
        <g>
          <use fill="none" xlink:href="#path-60"></use>
          <g mask="url(#mask-61)">
            <rect width="26.868" height=".824" x="383.501" y="91.047" fill="rgb(187,187,187)" rx="0" ry="0" transform="rotate(-38.405685 396.93440265 91.45883093)"></rect>
          </g>
        </g>
        <g>
          <use fill="none" xlink:href="#path-63"></use>
          <g mask="url(#mask-64)">
            <rect width="27.105" height=".824" x="384.531" y="107.473" fill="rgb(187,187,187)" rx="0" ry="0" transform="rotate(-25.194119 398.08386457 107.88512726)"></rect>
          </g>
        </g>
      </g>
      <rect width="29.694" height="44.549" x="357.562" y="76.731" fill="rgb(255,255,255)" rx="0" ry="0"></rect>
      <path fill="rgb(252,168,158)" fill-rule="evenodd" d="M387.25559408 99.02027596l.4120067 13.8092505-9.71158664-4.32827255 1.03001677-11.12984368 8.26956317 1.64886573z"></path>
    </g>
  </g>
</svg>
