<svg xmlns="http://www.w3.org/2000/svg" xmlns:xlink="http://www.w3.org/1999/xlink" width="518" height="606.22" viewBox="0 0 518 606.22">
  <defs>
    <rect id="rect-1" width="518" height="606.22" x="0" y="0"/>
    <mask id="mask-2" maskContentUnits="userSpaceOnUse" maskUnits="userSpaceOnUse">
      <rect width="518" height="606.22" x="0" y="0" fill="black"/>
      <use fill="white" xlink:href="#rect-1"/>
    </mask>
    <rect id="rect-8" width="230.054" height="11.71" x="181.845" y="538.028" rx="0" ry="0"/>
    <rect id="rect-75" width="65.224" height="41.256" x="176.817" y="440.408"/>
  </defs>
  <g>
    <g>
      <use fill="none" xlink:href="#rect-1"/>
      <g mask="url(#mask-2)">
        <g>
          <rect width="51.136" height="155.151" x="271.306" y="388.732" fill="rgb(151,151,244)"/>
          <rect width="51.136" height="155.151" x="271.306" y="388.732" fill="rgb(192,192,219)" rx="0" ry="0" transform="rotate(179.999936 296.87401304 466.30786796)"/>
        </g>
        <path fill="rgb(183,195,223)" fill-rule="evenodd" d="M98.54905193 463.46950938H495.1948407c12.40375698 0 22.45957525-10.04489096 22.45957525-22.43516921V174.7431976c0-12.39027825-10.05581827-22.43516922-22.45957525-22.43516922H98.54905193c-12.40375698 0-22.45957525 10.04489097-22.45957525 22.43516922v266.29452697c.00338808 12.38689385 10.05581827 22.43178481 22.45957525 22.43178481z"/>
        <rect width="406.976" height="295.519" x="93.384" y="119.189" fill="rgb(255,255,255)" rx="0" ry="0" transform="rotate(179.999936 296.872319 266.94808792)"/>
        <rect width="406.976" height="35.692" x="93.384" y="119.191" fill="rgb(210,217,236)" rx="0" ry="0" transform="rotate(179.999936 296.872319 137.03705275)"/>
        <g>
          <use fill="rgb(209,218,240)" xlink:href="#rect-8"/>
          <use fill="rgb(183,195,223)" xlink:href="#rect-8"/>
        </g>
        <path fill="rgb(245,247,255)" fill-rule="evenodd" d="M163.57645089 143.77934737h-48.34111022c-2.67997043 0-4.8551171-2.16939862-4.8551171-4.84984122v-3.7905249c0-2.6770582 2.17175859-4.84984122 4.8551171-4.84984122h48.34111022c2.67997044 0 4.85511711 2.16939862 4.85511711 4.84984122v3.7905249c-.00338808 2.6804426-2.17514667 4.84984122-4.85511711 4.84984122z"/>
        <path fill="rgb(50,54,87)" fill-rule="evenodd" d="M517.97628345 435.48054432c.00677616-.0033844.01355231-.0033844.02032847-.0033844-.08470197.03722837-.09825429.04061277-.02032847.0033844z"/>
        <path fill="rgb(255,255,255)" fill-rule="evenodd" d="M138.31154629 211.61620538c-.35236021.17937305-.6776158.3688993-.97237866.56519434-.29476287.19629504-.53531647.41966525-.71488465.66334185-.17956819.247061-.27104632.54150356-.27104632.88671208h-3.2491677c0-.3756681.02371656-.7377986.07453774-1.08300712.0474331-.34520851.14229932-.67687944.28459863-.99501278.13891124-.31813334.3388079-.6193447.60307805-.89686527.26088208-.27752057.60646613-.53135036 1.03336408-.76148937.21344897-.1150695.49465952-.26736738.8504078-.45350923.35236022-.18952624.69794427-.40612767 1.03336408-.65318866.33541982-.247061.6267946-.52796597.87412437-.8494837.24732976-.32151775.3693006-.67687945.3693006-1.06946953 0-.54150356-.19650858-.96455321-.58952573-1.26576457-.39301716-.30459575-.84701974-.45350922-1.35523158-.45350922-.32864365 0-.62001844.06091915-.87412436.18275745-.25410592.1218383-.48449529.27075177-.6911681.44335603-.20667282.17260426-.38285292.3655149-.52854032.57873193-.14907547.21321702-.28121055.40274327-.39301715.56519434l-2.53767112-1.77003975c.42689794-1.00178158 1.10451373-1.78019294 2.03284736-2.33523409.92833362-.55842554 1.97525001-.83594611 3.14074917-.83594611.62340652 0 1.24681304.09137872 1.87021957.27075177.62340652.17937306 1.18243955.46704682 1.673711.8596369.49127144.39259008.89445283.90363406 1.2061561 1.52636315.31170325.62272909.46755488 1.37744967.46755488 2.26416174 0 .93409364-.1931205 1.7192738-.5793615 2.34877168"/>
        <path fill="rgb(210,217,236)" fill-rule="evenodd" d="M271 260h163c1.65574507 0 3 1.34425493 3 3v22.85246164c0 1.65574507-1.34425493 3-3 3H271c-1.65574507 0-3-1.34425493-3-3V263c0-1.65574507 1.34425493-3 3-3z"/>
        <path fill="rgb(210,217,236)" fill-rule="evenodd" d="M271 346h163c1.65574507 0 3 1.34425493 3 3v22.85246164c0 1.65574507-1.34425493 3-3 3H271c-1.65574507 0-3-1.34425493-3-3V349c0-1.65574507 1.34425493-3 3-3z"/>
        <path fill="rgb(210,217,236)" fill-rule="evenodd" d="M241 389h252c1.65574507 0 3 1.34425493 3 3v9.85246164c0 1.65574507-1.34425493 3-3 3H241c-1.65574507 0-3-1.34425493-3-3V392c0-1.65574507 1.34425493-3 3-3z"/>
        <g>
          <path fill="rgb(37,40,64)" fill-rule="evenodd" d="M417.83483442 191.13044897s-2.6867466 2.35215607-5.0990588 5.9666923c-2.4123122 3.61453625-8.81578138 3.80744689-9.09021577 8.74189804-.2744344 4.93445116 8.70736286 5.08674904 13.42356873 3.47916035 4.71620588-1.60758868 5.42770245-6.42697033 8.28046492-7.63181574 2.84937438-1.20484542 4.32996487-2.17955182 4.11312782-4.53170789-.21683705-2.35215607-1.79568183-6.16975614-1.79568183-6.16975614s-1.77196529.56519433-2.81210552.68026384c-1.04691639.1150695-4.55357808.15568227-7.02009955-.53473476z"/>
          <path fill="rgb(210,217,236)" fill-rule="evenodd" d="M281 215h177c1.65574507 0 3 1.34425493 3 3v22.85246164c0 1.65574507-1.34425493 3-3 3H281c-1.65574507 0-3-1.34425493-3-3V218c0-1.65574507 1.34425493-3 3-3z"/>
          <path fill="rgb(210,217,236)" fill-rule="evenodd" d="M244 164h238c1.65574507 0 3 1.34425493 3 3v13c0 1.65574507-1.34425493 3-3 3H244c-1.65574507 0-3-1.34425493-3-3v-13c0-1.65574507 1.34425493-3 3-3z"/>
          <path fill="rgb(210,217,236)" fill-rule="evenodd" d="M281 302h177c1.65574507 0 3 1.34425493 3 3v22.85246164c0 1.65574507-1.34425493 3-3 3H281c-1.65574507 0-3-1.34425493-3-3V305c0-1.65574507 1.34425493-3 3-3z"/>
          <path fill="rgb(90,90,223)" fill-rule="evenodd" d="M450.15371937 57.44675852s-1.80584608 10.735308-3.26272002 17.8256202c-.58952573 2.87673764-1.1248422 5.15105257-1.45348586 5.86854478-.4167337.90024967-3.80820072 4.53847669-7.95859741 8.80958599-7.28436971 7.48967106-16.90990196 16.92198613-16.90990196 16.92198613l-3.76076761-7.13430936s8.54812314-10.011047 14.34173812-16.69184712c2.68335851-3.08995466 4.77380322-5.46918591 5.15665614-5.81101003 1.21293225-1.08300712 2.61898501-11.75062718 4.59423503-20.53990677 1.97525002-8.7892796 5.93930237-13.64927402 5.93930237-13.64927402l3.3135412 14.4006102z"/>
          <path fill="rgb(238,168,134)" fill-rule="evenodd" d="M437.475528 89.95050949c-7.2843697 7.48967106-16.90990196 16.92198613-16.90990196 16.92198613l-3.76076761-7.13430936s8.54812314-10.011047 14.34173812-16.69184712c1.77874144.87317449 5.04146145 2.95119438 6.32893145 6.90417035z"/>
          <path fill="rgb(37,40,64)" fill-rule="evenodd" d="M484.19036033 188.19279218s2.47329762 2.73120856 3.93694772 4.3895632c1.4636501 1.65497024 7.06753265 4.61631781 7.09802536 9.53723138.0338808 5.33381003-4.1334563 4.86676321-7.84001465 4.67385257-3.70655835-.19629504-6.71856052-2.75151494-8.28046491-5.77378167-1.56190439-3.01888232-5.71230108-3.81421567-6.00706395-6.25098167-.29137479-2.436766 1.92442883-6.81956042 1.92442883-6.81956042l9.1681416.2436766z"/>
          <path fill="rgb(95,140,201)" fill-rule="evenodd" d="M475.49993786 183.4038701l-.47771913 4.54186108s7.7349842 3.36747524 9.1681416.247061l-.33203174-4.04435469-8.35839073-.74456739z"/>
          <path fill="rgb(95,140,201)" fill-rule="evenodd" d="M418.25495621 187.84419926l-.42350987 3.2862497s4.67554893 1.65158585 9.8254289-.14552907l.10503046-2.9241192-9.50694949-.21660143z"/>
          <path fill="rgb(90,90,223)" fill-rule="evenodd" d="M484.6274225 105.4239736c.26765824.95440002-49.52354976 0-49.52354976 0s13.77254087-10.01443139 14.6669937-12.6881052c.89106476-2.6736738-3.50666169-18.72586985-4.07924703-23.94799477-.46077873-4.17973058-1.6093375-22.87852525 1.14855876-25.73495651 2.88325517-2.98503836 13.26432902-6.11560579 13.26432902-6.11560579l15.1345486.56180994s2.49701417.52119717 4.28253177 1.3503745c1.7855176.82917731 11.9971875 4.46063554 13.6539581 9.55753776 1.6567706 5.09690222-10.18795335 21.4773848-10.18795335 21.4773848s-.02371656.7377986-.05759735 1.942644c-.04404502 1.60758869-.1118066 4.05450788-.1761801 6.70787531-.07792582 3.43516319-.14907547 7.21891928-.14907547 9.98058742-.00338808 6.49465828 1.75502488 15.95404853 2.02268312 16.90844854z"/>
          <path fill="rgb(50,54,87)" fill-rule="evenodd" d="M484.6274225 105.4239736s6.7727698 9.93659026 6.867636 16.7189223c.09486622 6.78233205-2.5071784 25.59281183-2.7002989 29.31903318-.18973242 3.72622134-3.6997822 34.7780659-3.6997822 34.7780659s-2.71046314 2.51460713-10.84185258-.63626668c0 0-1.79568184-29.44764027-1.98541426-32.60189849-.18973242-3.15425821-.18973242-17.67332231-2.0091308-19.77503299-1.81601031-2.10171068-12.81710261-8.69451647-14.25026-9.93659026-1.43654547-1.24207378-26.42701568 4.71784974-29.0460007 5.39472918-6.78293402 1.75650216-3.68961795 13.5443577-2.18869898 18.82740177 2.51056649 8.84004556 4.70265356 40.7650646 4.70265356 40.7650646s-4.83140056 2.05432911-12.91874498.31813334c0 0-15.88670211-57.64643796-16.39491395-63.37622247-.51159992-5.7331689-.76231776-15.18579035 38.39032239-22.37086566l46.0744854 2.57552628z"/>
          <path fill="rgb(238,168,134)" fill-rule="evenodd" d="M464.25490388 4.09173625s-13.13558202-2.96134758-10.13713216 13.55451089c3.00183793 16.51585846 6.1595275 17.8120826 14.08424412 14.3938414 7.92471663-3.4182412 7.21660813-13.99786693 7.61301336-19.18614787.39640524-5.18828095-7.36907168-8.58283137-11.56012532-8.76220442z"/>
          <path fill="rgb(238,168,134)" fill-rule="evenodd" d="M460.7787349 41.17457666s5.81733153 6.16298735 15.01257775.56180994c0 0-2.05656391-13.35144706-.97237865-19.85625853 1.08418526-6.50481147-11.9971875 10.07873494-11.9971875 10.07873494.17279202.09137872.28459863.71072342.31170326 1.5940511.02371655.74795178-.0169404 1.68542981-.13891124 2.64659862-.26765823 2.16262983-.94188594 4.44371356-2.21580362 4.97506393z"/>
          <path fill="rgb(238,168,134)" fill-rule="evenodd" d="M471.29871999 15.45654213c.17279202-1.4552908 3.0560472-1.99002557 3.28982464.19291065.23377745 2.1863206-1.31118655 6.01745826-2.40553604 5.64179017-1.09096142-.37905249-1.12145413-3.82775326-.8842886-5.83470082z"/>
          <path fill="rgb(108,114,123)" fill-rule="evenodd" d="M475.17807036 21.32847132s-.33880789-5.20181854-2.24290825-5.3642696c-1.90410036-.16245107-2.19547515 1.93249081-2.19547515 1.93249081l-1.92104075.3621305s.60646613-4.56216745-1.29424616-5.3575008c-1.90071228-.79533335-12.30889076 2.51122274-13.83352628 1.17100144-1.52463552-1.3402213-.80636278-10.58977892 1.95153347-11.85554349 2.75789625-1.26576456 10.37429769-4.10188944 15.9544637-.32828653 0 0 4.35029334-.494122 4.99402834 3.01211353.65051116 3.50623553-.23038937 13.82187828-1.41282892 16.42786414z"/>
          <path fill="rgb(167,120,96)" fill-rule="evenodd" d="M462.99453852 36.19951273c9.48662101-2.9207348 10.20150567-8.62682853 10.2116699-8.71482285-3.12380877 5.3608852-10.07275866 6.07160862-10.07275866 6.07160862.02032847.74456739-.0169404 1.68204542-.13891124 2.64321423z"/>
          <path fill="rgb(238,168,134)" fill-rule="evenodd" d="M479.6740511 38.9205681s-6.9455618 13.81510948-18.1702673 12.92162862c-11.22131744-.89009648-1.9142646-14.7762783-1.40266469-14.90488539.5624211-.14214468 11.50930414-2.86658445 19.572932 1.98325677z"/>
          <path fill="rgb(57,57,176)" fill-rule="evenodd" d="M429.41190014 104.72340338s34.38561309 4.23388093 55.21891045.70057022l-39.80653939-4.96829512s-.23716552 1.01531916-15.41237106 4.2677249z"/>
          <path fill="rgb(238,168,134)" fill-rule="evenodd" d="M455.12741924 98.89208696l-2.56138767 1.29622414s.58274957 4.06466106 1.98541425 5.29658165l2.87309094-.7344142c.00338807 0-.5963019-4.45725114-2.29711752-5.8583916z"/>
          <path fill="rgb(90,90,223)" fill-rule="evenodd" d="M494.91701823 90.56985418c-.51159992.59226951-7.2708174 3.30994049-14.9075473 6.24759728-10.43189504 4.0138951-22.20208126 7.8111888-22.20208126 7.8111888l-2.67997043-5.7365533s12.32244308-6.69095332 20.6503411-11.38172788c3.93355964-2.21678018 6.97605452-3.98681993 7.40634054-4.396332 1.33829118-1.27253335 1.68726331-3.31670927.70133234-6.88047955-.98593097-3.56377028-3.25255577-19.93748406-3.5066617-21.8462841-.25410591-1.91218443.63695885-7.00570226 5.4209263-7.26291645 4.78396745-.2538298 7.21660813 1.0931603 7.21660813 1.0931603s1.19937994.4975064 2.09383278 12.0924513c.89106476 11.5949449 1.01981176 28.85875515-.1931205 30.2598956z"/>
          <path fill="rgb(74,74,196)" fill-rule="evenodd" d="M482.92660688 71.82706234c-.04404502 1.61097308-.1118066 4.05450787-.1761801 6.7078753-4.66877277-11.42910943-1.97186194-20.55005996-1.92442883-20.70235783-.50482376 3.10010786 2.06334007 13.84218465 2.10060893 13.99448253z"/>
          <path fill="rgb(74,74,196)" fill-rule="evenodd" d="M446.89099935 75.27237871c-.58952573 2.87673765-1.1248422 5.15105258-1.45348586 5.8685448-1.59578518-7.70627249-.15923971-17.5751748-.15923971-17.5751748.21683705 4.71446533 1.61272557 11.70663 1.61272557 11.70663z"/>
          <path fill="rgb(238,168,134)" fill-rule="evenodd" d="M480.00947092 96.81406706c-10.43189503 4.01389511-22.58154609 7.9364115-22.58154609 7.9364115l-2.3005056-5.8583916s12.32244309-6.69095332 20.6503411-11.38172788c.00338808 0 3.03233065 1.4755972 4.2317106 9.30370798z"/>
          <path fill="rgb(94,88,83)" fill-rule="evenodd" d="M454.38542995 105.09230268l-48.8730386-.72087661L430.1877702 116.886927l24.19765974-11.79462433z"/>
          <path fill="rgb(145,136,127)" fill-rule="evenodd" d="M430.18777021 116.88692701l24.19765974-9.36124273v-2.4333816l-26.10853626 9.40862429 1.91087652 2.38600004z"/>
          <path fill="rgb(238,168,134)" fill-rule="evenodd" d="M453.12167651 100.27630542s-3.05265912-.4738156-5.1634323-.9645532c-1.63305404-.3790525-5.6919726.14214468-6.72872475 1.19130782-1.03336408 1.04577874-4.32318872 8.33915476-4.94659525 8.7858952-.62340652.44674043.31847942 1.47559719 1.41282892.95778441 0 0 1.00287136 3.19148659 3.47616898 1.99679437 2.4766857-1.19469223 4.15717285-3.80406249 5.451419-4.2643405 1.29763424-.46027803 8.8462741-2.77859013 8.8462741-2.77859013s-.4031814-5.69932493-2.3479387-4.92429797z"/>
          <path fill="rgb(238,168,134)" fill-rule="evenodd" d="M441.97489682 100.02247563s-1.9616977.94763122-2.47329762 1.36729648c-.51159992.42304965-2.5884923 1.97310358-3.08992799 2.33861848-.50143568.3655149.75892968 1.40452485 4.46887612-.20306383 3.70994643-1.60420428 1.0943495-3.50285113 1.0943495-3.50285113z"/>
          <path fill="rgb(110,103,96)" fill-rule="evenodd" d="M430.18777021 116.88692701l-14.53485862-39.6482135-46.86729588.76487377 13.85724283 36.53795245 47.54491167 2.34538728z"/>
          <path fill="rgb(128,112,102)" fill-rule="evenodd" d="M400.65727423 94.78004433c1.42976931 2.85643126.99948329 5.9666923-.9656025 6.9481675-1.9616977.9814752-4.71281779-.53811916-6.1425871-3.39455041-1.42976931-2.85643126-.99948329-5.96669232.9656025-6.94816751 1.9616977-.9814752 4.7128178.53811916 6.1425871 3.39455042z"/>
        </g>
        <g>
          <g>
            <rect width="47.909" height="4.383" x="129.507" y="476.485" fill="rgb(50,54,87)" rx="0" ry="0" transform="rotate(-179.565982 153.4619025 478.67645727)"/>
            <rect width="45.49" height="4.163" x="102.56" y="456.142" fill="rgb(50,54,87)" rx="0" ry="0" transform="rotate(-107.007147 125.30499925 458.22343444)"/>
            <rect width="3.737" height="108.568" x="38.613" y="486.42" fill="rgb(209,218,240)" rx="0" ry="0" transform="rotate(179.999936 40.4811059 540.70365395)"/>
            <rect width="164.301" height="6.542" x="17.591" y="479.877" fill="rgb(209,218,240)" rx="0" ry="0"/>
            <rect width="3.737" height="108.568" x="159.155" y="486.416" fill="rgb(209,218,240)" rx="0" ry="0"/>
            <path fill="rgb(238,168,134)" fill-rule="evenodd" d="M178.82619417 471.88650529s-2.4766857.49750639-3.66251333.53473476c-1.18582763.03722837-6.66435126-2.4435348-8.41937615-2.21001139-1.75502489.2369078-13.19317936 5.09013343-13.71155544 5.44549514-.51837608.3519773.24394168 1.13377307.24394168 1.13377307l26.26099981.31136454-.71149657-5.21535612z"/>
            <path fill="rgb(81,82,105)" fill-rule="evenodd" d="M223.7555089 582.33969317l1.68387523 3.64161142s7.09463728-2.64321424 7.13190615-2.73120857c.0338808-.08799432-1.95492154-5.05628945-1.95492154-5.05628945l-6.86085984 4.1458866z"/>
            <path fill="rgb(106,107,138)" fill-rule="evenodd" d="M162.98692515 582.25846764l-1.96508578 5.7297845s7.7858054 1.712505 8.91742376 1.62112627c.09825428-.0067688 1.47381433-6.49127388 1.47381433-6.49127388l-8.4261523-.8596369z"/>
            <path fill="rgb(196,198,209)" fill-rule="evenodd" d="M170.81338749 587.94087058s-5.44125477-1.4755972-5.60388256-1.712505c-.16262778-.2369078-2.15820628-1.5805135-3.18818227-1.40790924-1.029976.17260426-1.12145413 1.40114045-2.15143012 1.65158584-1.02658792.2504454-8.97840918 2.79212772-10.0829229 3.43854759-1.10112566.64980426-6.36281224-1.26238017-7.37584785.09814752-1.0130356 1.36052768-1.99557849 4.93783555 6.26794603 6.17652493 8.2669126 1.235305 17.1131867 4.92091357 19.09182479 4.42002278 1.98541425-.4975064 3.3440339-10.46117183 3.04249488-12.66441442z"/>
            <path fill="rgb(196,198,209)" fill-rule="evenodd" d="M233.1303233 582.27538962s-5.04146145 2.14909224-5.30911968 2.0678667c-.26427016-.08122553-2.60204462.09137873-3.28304849.84271492-.68100386.75133618-.01016423 1.74634897-.643735 2.5552199-.63357076.81225534-4.2283225 5.56394904-5.28201505 6.66049375-.86057205.89686526-5.580166 1.73619577-7.09463729 3.31670928-1.1417826 1.19130782.19989666 5.95315472 8.22964373 3.67883978 7.81968618-2.21678018 17.50281577-6.05807103 18.70897187-7.63181574 1.21293226-1.57036032-3.7641557-9.99074062-5.32606008-11.49002859z"/>
            <path fill="rgb(52,57,92)" fill-rule="evenodd" d="M227.96011485 510.84430176s-22.18175277 9.85198033-26.88101825 13.21945557c-4.69926548 3.36747524-14.99224928 9.57445975-15.33444525 11.0906697-.34219597 1.51959436-2.37843141.03722838 1.2705296 7.62504696 3.648961 7.58443418 20.9078351 25.83987282 22.52394875 27.826514 1.6872633 2.0712511 13.65734617 14.46491374 13.65734617 14.46491374l9.00212573-6.77217885s-17.30969527-25.42697636-19.81687368-29.1667353c-2.50379033-3.73975893-3.63202062-4.29141568-2.15143012-5.94300153 1.4805905-1.65158584 7.39956439-1.62451066 37.86517015-14.23139033 3.04588296-1.25899577 11.53640877-4.17634618 12.6578629-8.26131363 2.02268312-7.37798596.2879867-16.7290755-7.90100007-20.84111812-8.18898679-4.11542703-24.89221593 10.9891378-24.89221593 10.9891378z"/>
            <path fill="rgb(238,168,134)" fill-rule="evenodd" d="M217.40963706 439.51474582c.19650858.17260425.40656947.54827235.6267946 1.06608512.31847942.741183.65728731 1.77342415.98254289 2.91396601 1.00625944 3.51300433 1.91765268 8.02440583 1.91765268 8.02440583s12.69513176-10.56608814 10.902838-11.22943c-1.79568183-.66334186-3.1204207-3.74991213-3.1204207-3.74991213s-12.64431057 1.79034614-11.30940747 2.97488517z"/>
            <path fill="rgb(237,220,197)" fill-rule="evenodd" d="M218.20244753 476.0154699s10.30314803 19.68026988 10.75037445 27.05825583c.44722642 7.37798595 21.51091315-2.3216965 21.51091315-2.3216965l-32.2612876-24.73655933z"/>
            <path fill="rgb(50,54,87)" fill-rule="evenodd" d="M228.91216503 502.59991012l-.23716552 1.8343433-.3693006 2.41984401h.00338807c.31509135-.02030638 20.5690272-1.29283974 22.03606539-.92055604 1.47720241.37566809-2.78838897-4.7720001-2.78838897-4.7720001l-18.64459837 1.43836883z"/>
            <path fill="rgb(73,79,128)" fill-rule="evenodd" d="M228.30908698 506.85409743s-22.9169659 5.38796039-28.58183387 7.1952285c-5.66486798 1.80726812-15.41575915 4.99198591-18.03474417 6.48788949-1.39250044.79194895-3.51682593 1.97987237-6.0612732 10.2513392-2.88325518 9.37816471-9.46968062 35.7493879-10.96382343 39.85804613-.93849787 2.57891069-3.63879678 12.72871797-3.63879678 12.72871797l11.7092008 2.02725394s13.94533288-28.04649982 15.07695125-35.52263329c1.90410036-12.58318889 6.7863221-12.65087683 8.76157212-13.7981875 1.97186194-1.14731065 11.47203526 1.00516598 45.2715107-1.6888142 3.3779147-.26736739 12.61042979-.43658725 15.00241352-4.07819867 4.31980064-6.5792682 8.67687014-14.04863288 1.96847386-20.66512946-6.70839629-6.60972778-30.5096508-2.7955121-30.5096508-2.7955121z"/>
            <path fill="rgb(238,168,134)" fill-rule="evenodd" d="M212.93398479 413.02506872s-3.96744043 6.8432512-3.06282336 8.70466967c.90461708 1.86141848-4.14362053 6.37620438-3.3135412 7.3306044.83007934.95440001 2.53428305 2.11186386 2.50717841 2.39276883-.02710463.27752057 1.46703818 9.19540727 3.41179549 9.3950867 1.9447573.19967944 15.25313136-.4907376 16.35425701-4.64677739 1.10451373-4.1560398 4.34690527-13.26345273 5.11261111-14.95565134.76909392-1.69558301-6.90151679-14.75597191-21.00947746-8.22070087z"/>
            <path fill="rgb(64,52,41)" fill-rule="evenodd" d="M229.33906298 411.7017694c1.10790181.82240853 2.00235465 1.69219862 2.7172393 2.5789107.87412437.40951206 6.01722819 2.96134757 4.94998333 5.7230157-1.43993355 3.71268376-7.25726508 13.65942721-7.74853652 14.69843716-.0643735.13876029-.0643735-.1218383-.0169404-.68026384-.35913637-3.51300432-4.68571316-7.4490583-4.68571316-7.4490583l-2.30728176-1.04239434c1.2061561-2.23708657.72843697-4.32864406.72843697-4.32864406-2.61220885-2.7988965-11.29924324-5.81101003-11.29924324-5.81101003 1.23664881-12.37674066 11.84133587-8.00409945 17.66205548-3.68899298z"/>
            <path fill="rgb(238,168,134)" fill-rule="evenodd" d="M225.40889142 423.6622292c.61324228-.93747802 3.85563382-.78179575 3.38130277 1.97987238-.47094297 2.76166814-4.44854764 4.97506393-5.31250776 3.74652773-.86734821-1.23530498 1.27730575-4.72800292 1.93120499-5.7264001z"/>
            <path fill="rgb(251,188,27)" fill-rule="evenodd" d="M216.98273911 473.93745c.75892968 1.21499861 1.64321828 3.20163978 2.59188039 5.6180994.52176415 1.32668371 1.0435283 2.77859013 1.57884478 4.29141569 3.52360209 9.97381862 7.1556227 23.00713234 7.1556227 23.00713234 11.78373853-2.86996885 33.55214568 7.59120298 33.55214568 7.59120298-.12535892-3.408088-6.68129166-32.11116088-10.31670035-48.45779949C247.926064 449.65439991 231.829301 440.283004 231.829301 440.283004c-7.40972863 3.69237737-12.95262577 12.57642009-12.95262577 12.57642009s-5.79361497 14.78304708-1.89393612 21.07802593z"/>
            <path fill="rgb(167,120,96)" fill-rule="evenodd" d="M218.03643166 440.58083094c.31847942.741183.65728731 1.77342415.98254289 2.91396601 1.90071228-.78856455 5.52595674-4.12896461 5.63776334-4.23388093-1.5110832.58211633-6.62030623 1.31991492-6.62030623 1.31991492z"/>
            <path fill="rgb(206,212,225)" fill-rule="evenodd" d="M285.65232293 598.54757149l-.97576674 2.74474615-41.27018948-12.77271513 1.97525002-5.55718025 40.2707062 15.58514923z"/>
            <rect width="4.692" height="44.82" x="241.987" y="541.746" fill="rgb(206,212,225)" rx="0" ry="0" transform="rotate(179.999936 244.3337178 564.15607144)"/>
            <rect width="27.667" height="2.64" x="230.502" y="539.364" fill="rgb(94,88,84)" rx="0" ry="0" transform="rotate(179.999936 244.33541183 540.68351679)"/>
            <path fill="rgb(206,212,225)" fill-rule="evenodd" d="M202.6545533 598.54757149l.97915482 2.74474615 41.2668014-12.77271513-1.81262223-5.90577316-40.43333399 15.93374214z"/>
            <path fill="rgb(206,212,225)" fill-rule="evenodd" d="M231.73443479 601.00125948v3.19148658l13.16607473-15.67314355-1.81262223-5.90577316-11.3534525 18.38743013z"/>
            <path fill="rgb(191,178,172)" fill-rule="evenodd" d="M198.79891948 602.36517156c0 2.12878585 1.72792025 3.85144404 3.85563382 3.85144404s3.85563383-1.72604258 3.85563383-3.85144404-1.72792026-3.85144404-3.85563383-3.85144404-3.85563382 1.72604258-3.85563382 3.85144404z"/>
            <path fill="rgb(191,178,172)" fill-rule="evenodd" d="M231.40579113 602.36517156c0 2.12878585 1.72792026 3.85144404 3.85563383 3.85144404s3.85563382-1.72604258 3.85563382-3.85144404-1.72792025-3.85144404-3.85563382-3.85144404-3.85563383 1.72604258-3.85563383 3.85144404z"/>
            <path fill="rgb(191,178,172)" fill-rule="evenodd" d="M281.79330102 602.36517156c0 2.12878585 1.72792026 3.85144404 3.85563383 3.85144404 2.13110165 0 3.85563382-1.72604258 3.85563382-3.85144404s-1.72792025-3.85144404-3.85563382-3.85144404-3.85563383 1.72604258-3.85563383 3.85144404z"/>
            <path fill="rgb(221,229,247)" fill-rule="evenodd" d="M216.3254518 539.36461719h55.65597263c2.73079162 0 4.94320717-2.2100114 4.94320717-4.93783556v-.12860709c0-2.72782416-2.21241555-4.93783555-4.94320717-4.93783555H216.3254518c-2.73079162 0-4.94320717 2.21001139-4.94320717 4.93783555v.1286071c0 2.72443976 2.21241555 4.93783555 4.94320717 4.93783555z"/>
            <path fill="rgb(221,229,247)" fill-rule="evenodd" d="M264.0262151 522.35463673h19.64746973c4.7297582 0 8.56167546-3.82775327 8.56167546-8.5523718v-45.42876396c0-4.72461853-3.83191727-8.5523718-8.56167546-8.5523718H264.0262151c-4.7297582 0-8.56167547 3.82775327-8.56167547 8.5523718v45.42876397c0 4.72123413 3.83530536 8.55237179 8.56167547 8.55237179z"/>
            <path fill="rgb(221,229,247)" fill-rule="evenodd" d="M255.04780592 536.87370083c6.66435127 0 12.06833716-2.23708657 16.0662703-6.64357176 9.03600652-9.96366543 7.41311671-27.48130547 7.33857897-28.22248847-.13891123-1.38083407-1.37217196-2.38938444-2.75112009-2.25062415-1.3823362.13537589-2.39198373 1.36729648-2.25646057 2.74474615.02032847.19967943 1.46026202 16.07927122-6.07143745 24.36766003-3.04588296 3.35393765-7.07769689 4.98183272-12.32921923 4.98183272-1.38911237 0-2.51395457 1.12361987-2.51395457 2.51122274 0 1.38760286 1.12823028 2.51122274 2.51734264 2.51122274z"/>
            <path fill="rgb(251,188,27)" fill-rule="evenodd" d="M225.57829536 448.7981474s-1.69742754 1.94602841-4.06569472 6.04791785c-2.68335851 4.65354619-4.86189326 9.25294202-5.44125476 10.28518317-1.18582763 2.10171068-5.36332895 4.2643405-7.22677237 5.06305825-1.71436794.7344142-31.2956851 1.36391209-31.66159763 1.33006811-.36591252-.03384397.42689795 8.97542145.42689795 8.97542145s40.83651538 1.16423264 42.6186449-.46027802c1.78212952-1.62789507 6.93539758-7.77057604 9.10038001-10.82330233 2.06334007-2.90719722 5.22441772-7.67242852 6.90151679-9.72675763 1.87360765-2.29800572 5.81055537-10.15657608.80636279-14.07570807-6.38314071-5.0055235-9.91690704 1.08639151-11.45848296 3.38439723z"/>
          </g>
          <g>
            <path fill="rgb(156,184,57)" fill-rule="evenodd" d="M37.61106424 559.05842465l-.42350987-.02369078c.00677616-.15568227.81652702-15.70698753.59291381-33.99627014-.20667281-16.86783578-1.36200773-39.57375677-5.68519645-51.96065062l.39979332-.13876029c4.34012911 12.4410442 5.4988521 35.19773116 5.708913 52.0994109.2236132 18.29943581-.58613766 33.86427866-.59291381 34.01996093z"/>
            <path fill="rgb(156,184,57)" fill-rule="evenodd" d="M43.75026326 559.05842465c-.05082118-.99839718-5.1769846-100.20523308-11.66176768-130.06576981l.41334563-.08799433c6.49155923 29.8943807 11.61772266 129.13506057 11.67193192 130.13345776l-.42350987.02030638z"/>
            <path fill="rgb(156,184,57)" fill-rule="evenodd" d="M41.36844377 562.36498074c-.04404502-.88332768-4.421443-88.3564584-.99270712-106.01962752l.4167337.08122554c-3.41857164 17.61578756.95543826 105.03815232.99948329 105.9180956l-.42350987.02030638z"/>
            <path fill="rgb(156,184,57)" fill-rule="evenodd" d="M40.6569472 560.43925872c0-.4907376.0474331-49.43927469 4.01487353-71.77629638l.41673371.07445674c-3.96066427 22.29979332-4.43160724 71.70183964-4.43160724 71.70183964z"/>
            <path fill="rgb(251,188,27)" fill-rule="evenodd" d="M75.4897867 469.50050524s-4.3740099-29.7759268-15.31411677-15.65960596c-7.55202794 9.747064-12.48168279 23.50125434-14.80929302 31.08568852-1.01981175 3.32347808-1.63644212 6.75525686-1.83972686 10.22426402l-.48788336 8.34592356c23.73010484-61.8667813 32.45102002-33.99627014 32.45102002-33.99627014z"/>
            <path fill="rgb(251,188,27)" fill-rule="evenodd" d="M81.01574345 433.8086521s4.37739798-28.47631827-20.46738484-15.77805988C36.73693987 430.19411585 39.403358 466.77606547 39.403358 466.77606547c1.42638123-6.1020682 4.00132122-22.40470963 12.50878742-32.96402898 22.53750107-27.98219627 29.10359804-.0033844 29.10359804-.0033844z"/>
            <path fill="rgb(251,188,27)" fill-rule="evenodd" d="M56.26582684 524.99446656c-14.1689461-2.7921277-14.93804001 9.34093635-14.93804001 9.34093635v4.44709796c1.19937994-7.66227533 14.93804001-13.7880343 14.93804001-13.7880343z"/>
            <path fill="rgb(251,188,27)" fill-rule="evenodd" d="M21.32795688 402.54359051c-13.85385475-10.37994629-21.32795688 0-21.32795688 0s26.63030041 1.29283974 36.73693987 59.9105997c0 0-1.5585163-49.5306534-15.40898299-59.9105997z"/>
            <path fill="rgb(251,188,27)" fill-rule="evenodd" d="M9.85253354 444.4221218s22.21224548 28.76060762 26.6811216 52.24832438l-.49127145-5.4928767c.00338808 0-.87751244-41.71946461-26.18985015-46.75544769z"/>
            <path fill="rgb(156,184,57)" fill-rule="evenodd" d="M36.53365514 496.67044618l.76570583 8.56929377c.0813139-2.72782416-.19989665-5.6045618-.76570583-8.56929377z"/>
            <path fill="rgb(251,188,27)" fill-rule="evenodd" d="M19.3323822 507.0571289s17.080719 17.751709 18.63995362 21.88085938c-.65991211-1.8894043-7.55621338-20.84228516-18.63995362-21.88085937z"/>
            <path fill="rgb(90,90,223)" fill-rule="evenodd" d="M55.1782535 594.9871856l6.3357076-38.23691986H19.79993329l6.33570761 38.23691987H55.1782535z"/>
            <rect width="49.554" height="10.251" x="15.88" y="546.499" fill="rgb(90,90,223)" rx="0" ry="0"/>
            <path fill="rgb(76,76,210)" fill-rule="evenodd" d="M61.5139611 556.75026574H19.79993329l6.33570761 38.23691987h7.13190615s-6.97605452-29.67777928 26.88101826-29.98575943l1.3653958-8.25116044z"/>
          </g>
        </g>
      </g>
    </g>
    <path fill="rgb(210,217,236)" fill-rule="evenodd" d="M474 230c3.86340517 0 7 3.13659483 7 7s-3.13659483 7-7 7-7-3.13659483-7-7 3.13659483-7 7-7z"/>
    <path fill="rgb(210,217,236)" fill-rule="evenodd" d="M474 317c3.86340517 0 7 3.13659483 7 7s-3.13659483 7-7 7-7-3.13659483-7-7 3.13659483-7 7-7z"/>
    <path fill="rgb(210,217,236)" fill-rule="evenodd" d="M93 155v260h47V155H93z"/>
    <path fill="rgb(210,217,236)" fill-rule="evenodd" d="M150 164.85244164h73.00002c1.65574507 0 3 1.34425493 3 3v22.85246164c0 1.65574507-1.34425493 3-3 3H150c-1.65574507 0-3-1.34425493-3-3v-22.85246164c0-1.65574507 1.34425493-3 3-3z"/>
    <path fill="rgb(210,217,236)" fill-rule="evenodd" d="M256 277c3.86340517 0 7 3.13659483 7 7s-3.13659483 7-7 7-7-3.13659483-7-7 3.13659483-7 7-7z"/>
    <path fill="rgb(210,217,236)" fill-rule="evenodd" d="M256 362c3.86340517 0 7 3.13659483 7 7s-3.13659483 7-7 7-7-3.13659483-7-7 3.13659483-7 7-7z"/>
    <path fill="rgb(210,217,236)" fill-rule="evenodd" d="M150 236.57375918h73.00002c1.65574507 0 3 1.34425493 3 3v22.85246164c0 1.65574507-1.34425493 3-3 3H150c-1.65574507 0-3-1.34425493-3-3v-22.85246164c0-1.65574507 1.34425493-3 3-3z"/>
    <path fill="rgb(210,217,236)" fill-rule="evenodd" d="M150 309.29507672h73.00002c1.65574507 0 3 1.34425493 3 3v22.85246164c0 1.65574507-1.34425493 3-3 3H150c-1.65574507 0-3-1.34425493-3-3v-22.85246164c0-1.65574507 1.34425493-3 3-3z"/>
    <path fill="rgb(210,217,236)" fill-rule="evenodd" d="M150 201.21310041h73.00002c1.65574507 0 3 1.34425493 3 3v22.85246164c0 1.65574507-1.34425493 3-3 3H150c-1.65574507 0-3-1.34425493-3-3V204.2131004c0-1.65574507 1.34425493-3 3-3z"/>
    <path fill="rgb(210,217,236)" fill-rule="evenodd" d="M150 272.93441795h73.00002c1.65574507 0 3 1.34425493 3 3v22.85246164c0 1.65574507-1.34425493 3-3 3H150c-1.65574507 0-3-1.34425493-3-3v-22.85246164c0-1.65574507 1.34425493-3 3-3z"/>
    <path fill="rgb(210,217,236)" fill-rule="evenodd" d="M150 344.6557355h73.00002c1.65574507 0 3 1.34425492 3 3v22.85246163c0 1.65574507-1.34425493 3-3 3H150c-1.65574507 0-3-1.34425493-3-3V347.6557355c0-1.65574507 1.34425493-3 3-3z"/>
    <path fill="rgb(210,217,236)" fill-rule="evenodd" d="M150 381h73.00002c1.65574507 0 3 1.34425493 3 3v22.85246164c0 1.65574507-1.34425493 3-3 3H150c-1.65574507 0-3-1.34425493-3-3V384c0-1.65574507 1.34425493-3 3-3z"/>
  </g>
</svg>
