<svg xmlns="http://www.w3.org/2000/svg" xmlns:xlink="http://www.w3.org/1999/xlink" width="694.06" height="363.6" viewBox="0 0 694.06 363.6">
  <defs>
    <rect id="rect-1" width="694.06" height="363.6" x="0" y="0"/>
    <mask id="mask-2" maskContentUnits="userSpaceOnUse" maskUnits="userSpaceOnUse">
      <rect width="694.06" height="363.6" x="0" y="0" fill="black"/>
      <use fill="white" xlink:href="#rect-1"/>
    </mask>
  </defs>
  <g>
    <g>
      <use fill="none" xlink:href="#rect-1"/>
      <g mask="url(#mask-2)">
        <g>
          <path fill="rgb(209,218,240)" fill-rule="evenodd" d="M689.76 59.87s-8.36-5.1-17.6 14.78c-9.25 19.88-12.61 31.27-12.61 31.27s-2.48 4.19-5.39 1.61c-2.91-2.57-7.03-10.02-11.75-8.48-4.9 1.59-6.33 7.18-5.1 15.27 1.24 8.09 3.3 25.91 3.48 27.52.18 1.58-.65 3.95-2.91 2.52-2.26-1.44-15.46-15.11-21.57-8.46-6.11 6.65 1.04 28.62 1.77 31.03.74 2.42.3 3.48-.84 4.12-1.14.65-5.14-4.37-9.05-8.1-3.91-3.74-9.11-7.38-12.31-3.25-3.21 4.13-3.68 20.83 13.15 47.31l8.6 11.76 14.57-1.34c31.01-4.76 43.27-16.1 44.27-21.24 1-5.13-5.16-6.64-10.55-7.13-5.39-.49-11.8-.2-12.06-1.48-.26-1.28.25-2.31 2.55-3.35s23.55-10.11 24.53-19.09c.98-8.98-18-9.92-20.57-10.68-2.57-.76-1.33-2.94-.02-3.85 1.33-.93 16.11-11.1 23.01-15.49 6.9-4.39 10.17-9.15 8.14-13.89-1.95-4.57-10.27-2.77-14.12-3.27-3.85-.5-2.33-5.12-2.33-5.12s6.36-10.03 15.25-30.08c8.88-20.05-.71-23.01-.71-23.01"/>
          <path fill="rgb(224,224,224)" fill-rule="evenodd" d="M681.45 77.66s-.05.15-.16.43c-.13.3-.3.71-.52 1.24-.48 1.11-1.17 2.71-2.06 4.76-1.79 4.13-4.44 10.09-7.73 17.43-6.58 14.7-15.84 34.92-26.14 57.22-10.3 22.31-19.61 42.51-26.27 57.17-3.32 7.32-6 13.25-7.87 17.37-.92 2.03-1.64 3.62-2.14 4.72-.24.52-.43.93-.57 1.22-.13.27-.21.41-.21.41s.05-.15.16-.43c.13-.3.3-.71.52-1.24.48-1.11 1.17-2.71 2.06-4.76 1.79-4.13 4.43-10.09 7.73-17.43 6.58-14.7 15.84-34.92 26.14-57.23 10.3-22.3 19.61-42.5 26.27-57.16 3.32-7.32 6-13.25 7.87-17.37.92-2.03 1.65-3.62 2.15-4.72.24-.52.43-.93.57-1.22.12-.28.2-.41.2-.41z"/>
          <path fill="rgb(224,224,224)" fill-rule="evenodd" d="M647.75 109.7c.03-.01.18.34.41.97.24.63.55 1.56.93 2.71.75 2.3 1.69 5.51 2.67 9.07.95 3.5 1.81 6.67 2.47 9.12.3 1.08.55 2 .76 2.76.18.65.27 1.02.23 1.03-.03.01-.18-.33-.42-.97-.23-.64-.55-1.56-.91-2.72-.72-2.31-1.63-5.53-2.61-9.09-.97-3.5-1.85-6.66-2.53-9.1-.3-1.08-.56-2-.77-2.76-.18-.64-.26-1.01-.23-1.02z"/>
          <path fill="rgb(224,224,224)" fill-rule="evenodd" d="M656.57 135.57c-.04-.13 6.48-2.38 14.57-5.02 8.09-2.65 14.69-4.68 14.73-4.55.04.13-6.48 2.38-14.57 5.02-8.09 2.64-14.69 4.68-14.73 4.55z"/>
          <path fill="rgb(224,224,224)" fill-rule="evenodd" d="M639.2 169.12c0-.03.38-.07 1.07-.1.8-.03 1.77-.06 2.92-.1 2.47-.09 5.87-.22 9.62-.5 3.75-.27 7.14-.64 9.59-.92 1.14-.13 2.11-.24 2.9-.33.69-.07 1.07-.1 1.07-.06.01.03-.37.12-1.05.25s-1.66.3-2.89.48c-2.44.37-5.84.79-9.6 1.06-3.76.28-7.18.36-9.65.36-1.24-.01-2.24-.02-2.93-.06-.66-.02-1.05-.05-1.05-.08z"/>
          <path fill="rgb(224,224,224)" fill-rule="evenodd" d="M626.08 147.47c.03-.02.24.26.61.79.36.53.87 1.29 1.5 2.25 1.25 1.91 2.94 4.57 4.78 7.52 1.84 2.95 3.49 5.64 4.66 7.6.59.98 1.05 1.78 1.36 2.33.31.56.47.87.44.89-.03.02-.24-.26-.61-.79-.36-.53-.87-1.29-1.5-2.25-1.25-1.91-2.94-4.57-4.78-7.53-1.84-2.95-3.49-5.64-4.66-7.6-.58-.98-1.05-1.78-1.36-2.33-.31-.55-.47-.86-.44-.88z"/>
          <path fill="rgb(224,224,224)" fill-rule="evenodd" d="M606.98 175.13c.03-.02.3.35.76 1.02.51.76 1.16 1.73 1.93 2.88 1.61 2.44 3.8 5.83 6.2 9.6 2.4 3.76 4.55 7.19 6.08 9.68.72 1.19 1.32 2.18 1.8 2.96.41.71.63 1.1.6 1.12-.03.02-.3-.35-.76-1.02-.51-.76-1.16-1.73-1.93-2.88-1.61-2.44-3.8-5.83-6.2-9.6-2.4-3.76-4.55-7.18-6.08-9.67-.72-1.19-1.32-2.18-1.8-2.96-.41-.71-.63-1.11-.6-1.13z"/>
          <path fill="rgb(224,224,224)" fill-rule="evenodd" d="M624.13 201.62c0-.03.48-.09 1.36-.15.97-.07 2.21-.16 3.7-.26 3.12-.22 7.44-.54 12.19-1.03 4.75-.48 9.04-1.02 12.15-1.44 1.48-.2 2.72-.36 3.68-.48.87-.11 1.35-.16 1.36-.12.01.03-.47.14-1.33.31-.86.17-2.11.39-3.66.64-3.09.5-7.39 1.1-12.15 1.58-4.76.49-9.09.75-12.22.88-1.57.06-2.83.1-3.71.1-.89.01-1.37 0-1.37-.03z"/>
        </g>
        <g>
          <path fill="rgb(209,218,240)" fill-rule="evenodd" d="M94.27 158.36c23.33-15.57 29.02-45.03 28.52-71.59-.08-4.44.48-9.1-1.59-13.02-2.08-3.92-7.02-6.65-11.07-4.84-3.36 1.5-4.87 5.31-6.79 8.45-2.55 4.18-6.3 7.61-10.69 9.77-2.88 1.42-6.43 2.26-9.23.68-3.84-2.17-4.22-7.45-4.12-11.86.18-8.21.36-16.43.54-24.64.1-4.41.18-8.91-1.14-13.11-1.32-4.2-4.33-8.14-8.56-9.37-4.23-1.24-9.52 1.1-10.49 5.4-.4 1.79-.06 3.66-.21 5.49s-1.05 3.84-2.82 4.32c-1.79.49-3.56-.79-4.87-2.1-4.54-4.52-7.58-10.3-10.41-16.05-2.84-5.75-5.58-11.62-9.69-16.54C27.54 4.43 21.82.5 15.43.05 9.03-.42 2.16 3.38.44 9.55-1.28 15.74 2.3 22.1 6.22 27.19c5.81 7.55 12.73 14.26 20.45 19.84 1.39 1.01 2.9 2.1 3.42 3.74.92 2.95-1.94 5.83-4.9 6.75-3.35 1.04-6.95.65-10.44 1-3.49.35-7.29 1.81-8.65 5.04-1.9 4.48 1.85 9.26 5.55 12.41 7.43 6.31 15.94 11.33 25.05 14.78 3.27 1.24 6.71 2.33 9.32 4.65 2.61 2.32 4.15 6.3 2.5 9.38-1.65 3.09-5.77 4.02-9.21 3.34-3.43-.68-6.48-2.57-9.74-3.84-6.1-2.38-14.04-2.08-18.05 3.1-2.64 3.4-2.94 8.19-1.7 12.31 1.24 4.12 3.84 7.69 6.6 10.99 9.66 11.54 22.11 20.9 36.27 25.98 14.18 5.08 27.35 6.6 41.58 1.7"/>
          <path fill="rgb(224,224,224)" fill-rule="evenodd" d="M92.44 158.88c-3.75-13.45-14.03-45.11-20.15-60-1.54-3.71-3.07-7.39-4.58-11.01-1.51-3.61-3-7.19-4.69-10.6-3.33-6.84-7.07-13.16-10.8-19.05-3.73-5.9-7.49-11.36-11.05-16.44-3.57-5.08-6.98-9.75-10.27-13.87-6.56-8.27-12.64-14.32-16.99-18.31-2.17-2-3.9-3.5-5.09-4.5-.58-.48-1.03-.86-1.35-1.13-.31-.25-.48-.37-.48-.37s.14.15.43.42c.32.29.75.68 1.31 1.18 1.16 1.04 2.86 2.56 5 4.59 4.29 4.04 10.3 10.12 16.8 18.41 3.26 4.13 6.65 8.81 10.19 13.9 3.54 5.1 7.28 10.56 10.99 16.46 3.71 5.89 7.42 12.2 10.74 19.01 1.67 3.4 3.15 6.95 4.66 10.57 1.5 3.62 3.03 7.29 4.57 11 6.12 14.88 16.4 46.5 20.18 59.91"/>
          <path fill="rgb(224,224,224)" fill-rule="evenodd" d="M62.86 77.21c.05.01.2-.66.44-1.88.24-1.22.54-2.99.88-5.18.69-4.38 1.43-10.46 2.24-17.17.81-6.71 1.66-12.76 2.44-17.12.38-2.18.71-3.94.96-5.15.24-1.21.35-1.89.31-1.9-.04-.01-.24.65-.56 1.85-.33 1.2-.73 2.95-1.17 5.12-.9 4.35-1.83 10.41-2.64 17.13-.79 6.65-1.51 12.67-2.05 17.18-.27 2.1-.5 3.85-.68 5.2-.15 1.23-.21 1.91-.17 1.92z"/>
          <path fill="rgb(224,224,224)" fill-rule="evenodd" d="M5.6 65.76c0 .02.2.06.59.1.47.05 1.03.1 1.7.17 1.47.14 3.6.34 6.23.67 5.25.62 12.48 1.75 20.39 3.34 7.91 1.61 15.01 3.37 20.11 4.81 2.55.7 4.6 1.32 6.02 1.74.65.19 1.19.35 1.64.48.38.1.58.15.59.12.01-.02-.18-.11-.54-.25-.44-.16-.97-.36-1.6-.6-1.39-.5-3.43-1.19-5.97-1.95-5.07-1.55-12.17-3.39-20.11-5.01-7.93-1.6-15.19-2.65-20.47-3.16-2.64-.27-4.78-.4-6.26-.47-.68-.02-1.24-.03-1.71-.05-.4.03-.6.04-.61.06z"/>
          <path fill="rgb(224,224,224)" fill-rule="evenodd" d="M86.9 140.56c.02.01.15-.23.39-.69.26-.53.59-1.21 1-2.04.86-1.77 2.05-4.37 3.48-7.6 2.86-6.46 6.53-15.49 10.46-25.52 3.93-10.03 7.53-19.08 10.27-25.58 1.36-3.18 2.47-5.79 3.28-7.68.36-.85.66-1.55.89-2.09.2-.48.29-.74.27-.75-.02-.01-.15.23-.39.69-.26.53-.59 1.21-1 2.04-.86 1.77-2.05 4.37-3.48 7.6-2.86 6.46-6.53 15.49-10.46 25.52-3.93 10.02-7.53 19.08-10.27 25.57-1.36 3.18-2.47 5.79-3.28 7.68-.36.86-.66 1.55-.89 2.09-.2.49-.29.75-.27.76z"/>
          <path fill="rgb(224,224,224)" fill-rule="evenodd" d="M10.97 115.15c-.01.02.25.13.76.31.57.19 1.3.44 2.21.75 2 .67 4.76 1.59 8.14 2.71 6.87 2.3 16.32 5.59 26.75 9.25s19.91 6.89 26.83 9.07c3.46 1.09 6.26 1.95 8.21 2.51.92.26 1.67.47 2.25.63.52.14.79.2.8.18.01-.02-.25-.13-.76-.31-.57-.19-1.3-.44-2.21-.75-2-.67-4.76-1.59-8.14-2.71-6.87-2.3-16.32-5.59-26.75-9.25s-19.91-6.88-26.82-9.07c-3.46-1.09-6.26-1.95-8.21-2.51-.92-.26-1.67-.47-2.25-.63-.53-.14-.8-.2-.81-.18z"/>
        </g>
        <path fill="rgb(209,218,240)" fill-rule="evenodd" d="M472.24 4.3h126.08l-24.67 17.54v14.64c0 14.95-12.3 27.07-27.47 27.07h-79.11c-15.17 0-27.47-12.12-27.47-27.07-.02-17.78 14.6-32.18 32.64-32.18z"/>
        <path fill="rgb(209,218,240)" fill-rule="evenodd" d="M286.97 304.35H137.79l24.3 17.54v34.5c0 3.98 3.23 7.2 7.2 7.2h117.68c3.98 0 7.2-3.23 7.2-7.2v-44.83c.01-3.98-3.22-7.21-7.2-7.21z"/>
        <g>
          <g>
            <path fill="rgb(232,80,91)" fill-rule="evenodd" d="M591.56 354.01h-174.6c-21.42 0-38.79-17.37-38.79-38.79v-142.1c0-21.42 17.37-38.79 38.79-38.79h174.6c21.42 0 38.79 17.37 38.79 38.79v142.11c0 21.41-17.37 38.78-38.79 38.78z"/>
            <path fill="rgb(251,188,27)" fill-rule="evenodd" d="M591.56 354.01h-174.6c-21.42 0-38.79-17.37-38.79-38.79v-142.1c0-21.42 17.37-38.79 38.79-38.79h174.6c21.42 0 38.79 17.37 38.79 38.79v142.11c0 21.41-17.37 38.78-38.79 38.78z"/>
            <g>
              <path fill="rgb(251,188,27)" fill-rule="evenodd" d="M630.28 210.92h37.77l-38.62 38.62.85-38.62z"/>
              <path fill="rgb(251,188,27)" fill-rule="evenodd" d="M627.90348265 210.92H668.05L627 249.54l.90348265-38.62z"/>
            </g>
          </g>
          <g>
            <g>
              <g>
                <path fill="rgb(183,136,118)" fill-rule="evenodd" d="M372.14 234.66l-15.83-17.96c-4.28-4.28-5.75-6.35-4.89-7.1 1.14-1 .65-.67 9.54 6.01 0 0-12.6-9.64-8.23-9.7.77-.01 2.91 1.24 5.2 2.74-3.12-2.65-3.98-4.44-3.39-5.29 1.02-1.47 8.73 3.87 12.27 6.45-2.9-2.16-8.43-6.36-9.41-7.67-1.33-1.8 1.37-1.65 3.57-.9 2.47.84 16.12 7.81 20.16 9.61 2.78 1.24 3.76-1.28 3.76-1.28 1.49-6.25 5.99-10.33 7.72-10.86 1.74-.53 3.05 1.68 1.82 3.27-.99 1.29-1.99 3.93-2.66 5.94-.55 1.66-.84 3.39-.81 5.13.03 2.02.14 3.73.27 5.18l14.46 19.85-24.2 14.03-9.35-17.45z"/>
                <path fill="rgb(170,101,80)" fill-rule="evenodd" d="M366.45 218.37c-.16.23-2.98-1.71-6.28-4.32-3.31-2.61-5.84-4.9-5.65-5.11.18-.21 3 1.72 6.28 4.32 3.28 2.59 5.82 4.88 5.65 5.11z"/>
                <path fill="rgb(170,101,80)" fill-rule="evenodd" d="M369.54 215.21c-.16.23-3.27-1.66-6.95-4.23-3.68-2.56-6.53-4.83-6.37-5.06.16-.23 3.27 1.66 6.95 4.23 3.67 2.57 6.53 4.83 6.37 5.06z"/>
                <path fill="rgb(170,101,80)" fill-rule="evenodd" d="M371.78 211.85c-.16.23-3.13-1.51-6.65-3.89-3.51-2.38-6.24-4.5-6.08-4.73.16-.23 3.13 1.51 6.65 3.89 3.51 2.38 6.23 4.5 6.08 4.73z"/>
              </g>
              <path fill="rgb(183,136,118)" fill-rule="evenodd" d="M392.59 220.96l57.68 73.14-13.21 30.75s-15.82-3.5-20.62-10.17c-4.8-6.67-44.3-80.03-44.3-80.03l20.45-13.69z"/>
            </g>
            <g>
              <g>
                <g>
                  <path fill="rgb(38,50,56)" fill-rule="evenodd" d="M539.01 118.61c4.15 3.6 4.14 9.94 3.66 15.41-.48 5.47-.84 11.7 2.94 15.68 3.12 3.28 8.79 4.71 9.52 9.18.34 2.08-.75 4.33-2.61 5.34-1.85 1.02-4.33.73-5.91-.67 1.22 3.53.38 7.94-2.68 10.08-3.06 2.14-8.18.82-9.13-2.79.58 2.39-1.17 5.08-3.59 5.52-2.42.44-5.01-1.46-5.31-3.9"/>
                  <path fill="rgb(38,50,56)" fill-rule="evenodd" d="M479.58 155.53c-1.03 2.73-4.51 4.22-7.2 3.1-2.69-1.12-4.07-4.65-2.85-7.3.95-2.08 3.2-3.58 3.42-5.86.26-2.76-2.55-4.72-5.05-5.92-2.5-1.2-5.41-2.76-5.68-5.52-.26-2.66 2.12-4.73 4.11-6.51 1.99-1.78 3.96-4.53 2.73-6.91-.63-1.21-1.94-1.91-2.78-2.99-1.87-2.38-.89-6.17 1.49-8.04 2.38-1.87 5.69-2.13 8.67-1.59 2.98.54 5.78 1.77 8.69 2.63 9.57 2.85 20.33 1.44 28.84-3.78"/>
                  <g>
                    <path fill="rgb(183,136,118)" fill-rule="evenodd" d="M497.29 220.02c10.75 2.17 21.26-4.68 23.59-15.4l14.19-65.06c3.73-15.83-6.34-31.61-22.26-34.9l-1.49-.22c-14.99-2.2-29.15 7.49-32.54 22.25-3.16 13.73-6.47 28.95-7.47 36.42-2.07 15.46 13.02 20.13 13.02 20.13l-2.71 13.03c-2.27 10.88 4.76 21.54 15.67 23.75z"/>
                    <path fill="rgb(38,50,56)" fill-rule="evenodd" d="M520.79 120.18c.03.03.05.05.07.08 2.17 2.3 3.39 5.35 3.36 8.51v.32c-.04 4.49-.81 8.95-.8 13.45 0 4.49.87 9.19 3.68 12.69 1.15 1.44 3.39 2.65 4.71 1.35.51-.5.69-1.24.85-1.94 2.38-10.51 6.66-19.52 8.27-30.64.44-3.03-.57-6.07-2.77-8.2-2.08-2.01-4.67-4.15-7.44-3.31-2.77.85-6.83 5.2-9.13 6.96"/>
                    <g>
                      <path fill="rgb(183,136,118)" fill-rule="evenodd" d="M528.84 145.78c.28-.08 11.07-1.58 9.18 8.92-1.88 10.5-12.04 6.45-12 6.14.03-.3 2.82-15.06 2.82-15.06z"/>
                      <path fill="rgb(170,101,80)" fill-rule="evenodd" d="M529.94 157.44c.05-.03.16.16.44.36.28.19.78.38 1.36.27 1.18-.21 2.43-1.8 2.82-3.69.2-.95.16-1.9-.04-2.71-.18-.83-.58-1.45-1.12-1.65-.53-.23-.99.04-1.17.31-.19.27-.16.49-.22.5-.03.02-.19-.22-.03-.63.08-.2.25-.43.53-.58.29-.16.68-.2 1.06-.09.8.2 1.4 1.08 1.62 1.97.27.91.33 1.97.11 3.04-.45 2.1-1.89 3.89-3.48 4.06-.77.06-1.35-.27-1.62-.58-.29-.32-.3-.57-.26-.58z"/>
                    </g>
                    <path fill="rgb(38,50,56)" fill-rule="evenodd" d="M530.83 114.18c3.22-3.84-3.01-10.95-7.98-13.35-4.97-2.4-12.2-.87-17.64.09-3.43.61-6.91 1.64-10.33 1-2.29-.43-4.37-1.6-6.44-2.68-2.07-1.09-4.23-2.14-6.56-2.32-2.33-.18-4.88.7-6.07 2.71-.96582 1.63134-.60104 3.98726.76823 5.16987-2.67917-1.01002-6.23108.48347-7.06823 3.30013-.75243 2.53162.92168 5.36425 3.2986 6.35527-.98504.37413-1.85695 1.34849-1.9086 2.44473-.09 1.9 1.41 3.51 3.02 4.52 4.12 2.58 9.34 2.71 14.12 1.85 4.78-.87 9.35-2.64 14.11-3.62s12.75-2.83 17.05-.57c3.17 1.67 4.9 6.03 6.91 5.41 1.95-.59 3.38-2.33 4.04-4.26.66-1.94.67-4.02.68-6.05"/>
                  </g>
                </g>
                <path fill="rgb(69,90,100)" fill-rule="evenodd" d="M551.4 162.95s.21-.03.55-.24c.34-.2.8-.61 1.14-1.3.32-.68.53-1.64.34-2.71-.17-1.09-.88-2.19-1.89-3.09-1.02-.9-2.34-1.6-3.78-2.21-1.43-.62-3.01-1.17-4.43-2.14-1.42-.95-2.54-2.43-3.21-4.17-.69-1.73-.97-3.69-.93-5.68.11-4.01 1.22-7.75 1.49-11.28.33-3.51-.19-6.84-1.68-9.13-1.48-2.29-3.54-3.42-4.99-3.75-.73-.19-1.32-.18-1.71-.17-.39.04-.6.07-.59.09 0 .07.84-.12 2.25.28 1.39.38 3.34 1.52 4.72 3.75 1.39 2.22 1.87 5.44 1.51 8.89-.29 3.46-1.42 7.2-1.53 11.31-.04 2.05.25 4.08.98 5.89.71 1.81 1.91 3.39 3.42 4.38 1.5 1 3.11 1.55 4.53 2.14 1.43.58 2.72 1.24 3.71 2.08.98.84 1.65 1.86 1.84 2.86.2 1 .04 1.91-.24 2.57-.61 1.35-1.56 1.57-1.5 1.63z"/>
                <path fill="rgb(69,90,100)" fill-rule="evenodd" d="M477.35 105.17c.01-.01-.15-.09-.46-.24-.15-.08-.35-.16-.59-.23-.24-.09-.52-.17-.85-.22-1.27-.26-3.41-.05-5.3 1.62l-.01.01c-1.28 1.45-2.11 3.74-1.89 6.26.17 2.53 1.55 5.21 3.86 7.13 2.29 1.95 5.41 3.17 8.74 3.52 3.34.37 6.85.03 10.38-.64 5.75-1.1 10.98-3.3 15.3-5.91 2.18-1.26 4.24-2.47 6.31-3.28 2.06-.83 4.12-1.19 6-1.23 3.79-.07 6.76 1.06 8.62 2.04 1.87 1 2.75 1.82 2.79 1.76 0 0-.82-.88-2.69-1.94-1.85-1.04-4.85-2.25-8.72-2.23-1.92.01-4.05.36-6.16 1.19-2.12.81-4.22 2.02-6.4 3.27-4.31 2.57-9.47 4.72-15.16 5.81-3.49.66-6.96.99-10.22.65-3.26-.33-6.27-1.5-8.49-3.36-2.24-1.84-3.58-4.38-3.76-6.8-.2398-2.41794.52869-4.61625 1.71696-6.02639 1.74853-1.60432 3.81469-1.87333 5.05304-1.66361 1.29.18 1.91.57 1.93.51z"/>
                <path fill="rgb(69,90,100)" fill-rule="evenodd" d="M483.2 96.42s-.11.88.37 2.36c.49 1.46 1.77 3.48 4.14 4.98 1.17.76 2.58 1.4 4.19 1.74 1.6.35 3.37.42 5.19.27 3.67-.28 7.52-1.53 11.55-2.58 4.02-1.05 8.06-1.59 11.54-.66 3.48.89 6.14 3.01 7.84 5.09 1.73 2.1 2.59 4.18 3 5.64.4 1.47.45 2.33.51 2.32.02 0 .01-.21-.03-.62-.02-.41-.13-1-.29-1.75-.35-1.5-1.18-3.64-2.91-5.83-1.71-2.16-4.41-4.38-8.01-5.33-3.6-.99-7.75-.44-11.79.62-4.06 1.05-7.86 2.31-11.46 2.6-1.79.16-3.51.1-5.06-.22-1.56-.31-2.94-.91-4.08-1.62-2.32-1.42-3.61-3.33-4.15-4.73-.51-1.41-.48-2.29-.55-2.28z"/>
              </g>
              <path fill="rgb(170,101,80)" fill-rule="evenodd" d="M484.32 183.23s10.08 3.82 19.89 1.04c0 0-7.4 6.2-20.9 3.82l1.01-4.86z"/>
            </g>
            <path fill="rgb(250,250,250)" fill-rule="evenodd" d="M499.7 326.6c-.02.03-.52-.35-1.38-1.05-.43-.36-.96-.79-1.61-1.24-.64-.46-1.35-1.02-2.19-1.55-.83-.55-1.74-1.15-2.76-1.72-1-.62-2.12-1.17-3.29-1.77-2.37-1.14-5.05-2.23-7.96-3.12-2.91-.86-5.76-1.41-8.37-1.76-1.31-.14-2.55-.29-3.72-.33-1.17-.09-2.26-.08-3.25-.08-1-.02-1.9.06-2.69.09s-1.47.09-2.03.16c-1.11.11-1.73.15-1.73.12-.01-.04.6-.15 1.71-.32.55-.09 1.23-.19 2.03-.24.79-.06 1.7-.17 2.7-.17 1-.03 2.1-.06 3.28.01 1.18.01 2.44.16 3.76.28 2.63.33 5.51.88 8.46 1.74 2.93.89 5.64 2.02 8.02 3.19 1.17.62 2.3 1.19 3.3 1.83 1.02.59 1.93 1.21 2.75 1.79.84.55 1.53 1.14 2.16 1.63.64.48 1.15.93 1.56 1.32.83.74 1.27 1.16 1.25 1.19z"/>
            <g>
              <g>
                <path fill="rgb(232,80,91)" fill-rule="evenodd" d="M440.93 275.24l8.21-35.53c3.14-13.36 6.86-26.2 13.11-27.72v4.13l-2.67 101.51s-16.72 19.04-38.04 8.45c-6.66-3.31-18.81-26.56-18.81-26.56s-28.23-50.45-27.06-52.74c1.17-2.29 18.45-24.55 20.21-25.66l45.05 54.12z"/>
                <path fill="rgb(232,80,91)" fill-rule="evenodd" d="M525.31 201.97c16.3 3.12 34.65 12.63 43.1 36.98 3.08 8.9 25.53 74.5 25.53 74.5l-38.28-.8-6.23-13.53 3.04 21.94 2.59 31.31-96.64 1.62.68-47.15.93-93.8s1.09-1.42 17.75-10.62c10.35-5.69 47.53-.45 47.53-.45z"/>
                <g opacity=".2">
                  <path fill="rgb(0,0,0)" fill-rule="evenodd" d="M534.95 264.67c1.59 19.8 3.41 25.92 5 45.72.15 1.87.31 3.78 1.04 5.5.74 1.73 2.16 3.27 4 3.64 2.81.57 6.47 2.61 7.27-.15l-2.67-19.07s-.63-3.59-2.64-8.05c-5.93-13.16-8.12-13.93-12-27.59"/>
                </g>
                <path fill="rgb(232,80,91)" fill-rule="evenodd" d="M477.78 212.59l.32-2.06 3.09-19.76c.19-1.19 1.26-2.04 2.46-1.94l38.05 3.18c2.39.2 4.17 2.29 4 4.68l-.85 11.48-11.88 15.5-17.11 2.67"/>
                <path fill="rgb(38,50,56)" fill-rule="evenodd" d="M458.67 249.74c.14 0 .26 15.48.26 34.57 0 19.1-.12 34.57-.26 34.57s-.26-15.48-.26-34.57.12-34.57.26-34.57z"/>
                <path fill="rgb(38,50,56)" fill-rule="evenodd" d="M556.47 315.83c-.01 0-.05-.07-.12-.22-.08-.18-.19-.4-.31-.68-.28-.64-.67-1.52-1.16-2.63-1-2.33-2.43-5.64-4.18-9.71-3.49-8.25-8.29-19.59-13.59-32.11-2.63-6.28-5.14-12.26-7.43-17.71-1.21-2.69-2.02-5.45-2.46-8.04-.46-2.6-.64-5.05-.66-7.29-.05-4.48.62-8.11 1.52-10.45.11-.29.21-.57.31-.83.12-.25.24-.48.35-.7.21-.44.4-.8.6-1.06.17-.25.31-.45.43-.62.1-.14.15-.2.16-.2.07.04-.84 1.12-1.65 3.48-.83 2.34-1.44 5.93-1.35 10.38.12 4.42.72 9.8 3.19 15.15 2.3 5.44 4.82 11.42 7.46 17.69 5.25 12.55 10 23.9 13.45 32.17 1.69 4.1 3.06 7.43 4.02 9.77.45 1.13.81 2.02 1.07 2.67.11.28.2.51.27.7.06.15.09.23.08.24z"/>
              </g>
              <path fill="rgb(38,50,56)" fill-rule="evenodd" d="M524.95 203.14c0 .02-.16.06-.46.12-.36.06-.8.14-1.33.24-1.16.19-2.84.45-4.91.73-4.16.56-9.92 1.21-16.3 1.68-3.19.23-6.24.44-9.03.32-2.79-.1-5.29-.56-7.29-1.25-2.01-.67-3.5-1.56-4.45-2.25-.48-.35-.83-.64-1.05-.86-.23-.21-.34-.33-.33-.34.03-.04.52.4 1.49 1.03s2.46 1.45 4.45 2.07c1.98.63 4.44 1.04 7.19 1.12 2.75.09 5.79-.13 8.98-.36 6.37-.47 12.13-1.06 16.3-1.53 2.02-.23 3.68-.42 4.93-.56 1.16-.14 1.8-.2 1.81-.16z"/>
            </g>
            <g>
              <g>
                <g>
                  <g>
                    <path fill="rgb(183,136,118)" fill-rule="evenodd" d="M593.44 320.53c3.17 16.46-9.35 31.77-26.12 31.94l-75.74-.84 1.99-24.53 64.94-9.69"/>
                    <path fill="rgb(183,136,118)" fill-rule="evenodd" d="M498.26 328.22c-.35.12-4.72-1.85-8.64-3.66-4.16-1.92-8.72-2.81-13.3-2.58l-18.06.92s1.11 2.98 3.03 4.04c1.91 1.06 13.14 1.29 13.14 1.29l-.57.59c-2.37 2.44-5.59 3.85-8.99 3.93l-1.72.04c-1.28-.1-2.54-.35-3.77-.74l-4.45-1.8c-1.35-.61-2.77-.51-3.36.85-.53 1.23-.14 2.92 3.54 4.77 2.06 1.04 9.68 3.67 9.68 3.67s.11 2.11.44 3.22c.33 1.11 3.33 2.22 3.33 2.22s1.89 3.88 2.66 4.77c.35.4 3.06 1.24 5.94 2.05 4.66 1.31 9.59 1.28 14.23-.11l6.88-2.05v-20.96"/>
                  </g>
                  <path fill="rgb(170,101,80)" fill-rule="evenodd" d="M473.56 341.91c-.01.12-2.15.01-4.69-.67-2.55-.67-4.47-1.62-4.42-1.73.05-.12 2.02.64 4.53 1.29 2.51.67 4.59.98 4.58 1.11z"/>
                  <path fill="rgb(170,101,80)" fill-rule="evenodd" d="M472.92 346.14c0 .12-1.17.19-2.54-.18-1.38-.37-2.34-1.02-2.28-1.13.06-.12 1.08.34 2.4.69 1.32.36 2.43.49 2.42.62z"/>
                </g>
                <path fill="rgb(170,101,80)" fill-rule="evenodd" d="M476.22 326.6c.04.04-.48.63-1.39 1.49-.92.86-2.26 2-3.93 2.98-1.68.98-3.37 1.53-4.61 1.78-1.24.25-2.03.27-2.03.22-.04-.16 3.13-.46 6.42-2.39 1.64-.95 2.98-2.04 3.95-2.83.95-.8 1.55-1.3 1.59-1.25z"/>
              </g>
              <path fill="rgb(232,80,91)" fill-rule="evenodd" d="M500.1 324.91l-1.84 27.74 71.35.03c4.84 0 9.6-1.31 13.75-3.81 9.64-5.79 14.61-16.99 12.44-28.02-.73-4.51-2.45-9.78-4.6-15.38l-35.87 5.9 1.15 4.47-56.38 9.07z"/>
              <path fill="rgb(38,50,56)" fill-rule="evenodd" d="M573 313.51c0 .02-.25.07-.72.17-.53.09-1.22.22-2.08.37-1.87.31-4.48.75-7.68 1.28-6.54 1.04-15.48 2.46-25.36 4.04-9.89 1.51-18.84 2.88-25.39 3.89-3.21.47-5.83.85-7.7 1.12-.87.12-1.57.21-2.1.28-.48.06-.73.08-.74.06 0-.02.25-.07.72-.17.53-.09 1.22-.22 2.08-.37 1.87-.31 4.48-.75 7.68-1.28 6.54-1.04 15.48-2.46 25.36-4.04 9.89-1.51 18.83-2.88 25.38-3.88 3.21-.47 5.83-.85 7.7-1.12.87-.12 1.57-.21 2.1-.28.49-.07.74-.09.75-.07z"/>
            </g>
          </g>
        </g>
        <g>
          <path fill="rgb(90,90,223)" fill-rule="evenodd" d="M296.89 48.4H118.2c-21.75 0-39.38 17.63-39.38 39.38v63.68H40.27l38.56 38.56v43.28c0 21.75 17.63 39.38 39.38 39.38H296.9c21.75 0 39.38-17.63 39.38-39.38V87.78c-.01-21.75-17.64-39.38-39.39-39.38z"/>
          <g>
            <g>
              <g>
                <path fill="rgb(38,50,56)" fill-rule="evenodd" d="M223.89 55.14c-1.13 2.92.81 6.12 2.99 8.37 2.18 2.26 4.81 4.4 5.5 7.46.57 2.57-.38 5.24-.15 7.86.24 2.68 1.68 5.09 2.5 7.65 1.49 4.64.89 9.71-.44 14.4-1.09 3.85-2.7 7.63-5.36 10.61-2.66 2.98-6.49 5.09-10.48 5.02-1.13-.02-2.36-.27-3.1-1.12-.64-.74-.78-1.78-.9-2.75-2.29-20.11-2.29-40.48-.01-60.59"/>
                <path fill="rgb(38,50,56)" fill-rule="evenodd" d="M221.78 120.03c8.7-.38 16.74 7.95 16.05 16.63 8.81 2.14 15.03 11.84 13.31 20.74-.57 2.94-1.87 5.74-2.05 8.72-.2 3.26.96 6.42 1.59 9.63 1.14 5.79.52 11.91-1.74 17.36-1.37 3.31-3.93 6.73-7.51 6.83-2.43.07-4.68-1.51-6.04-3.53-1.35-2.02-1.95-4.45-2.43-6.83-1.55-7.81-2.02-15.84-4.16-23.51-2.14-7.67-6.31-15.23-13.25-19.14-3.83-2.16-8.43-3.18-11.48-6.36-3.19-3.33-3.92-8.6-2.25-12.9 1.67-4.3 5.47-7.58 9.8-9.15"/>
                <g>
                  <path fill="rgb(38,50,56)" fill-rule="evenodd" d="M161.56 62.3c-.11-3.72 3.33-6.59 6.79-7.95 3.46-1.36 7.31-1.88 10.39-3.95 2.73-1.84 4.57-4.71 6.88-7.05 5.67-5.75 14.53-8.13 22.32-6.01 7.79 2.13 14.21 8.68 16.18 16.51 1.33 5.29.42 11.55-3.75 15.07-4.84 4.08-12.02 3.18-18.23 1.91-6.21-1.27-13.23-2.52-18.41 1.12-3.12 2.2-4.92 5.77-6.83 9.08-1.91 3.31-4.31 6.69-7.92 7.93-3.61 1.24-8.52-.9-8.66-4.72"/>
                  <g>
                    <path fill="rgb(255,190,157)" fill-rule="evenodd" d="M176.22 63.06c-3.21.35-5.62 3.09-5.55 6.32l3.71 84c.16 9.92 14.66 15.5 25.28 15.25 10.73-.25 11.07-5.51 11.21-14.95.21672-15.53465.21025-21.51111.21001-21.6.0103-.00174 13.55105-2.28673 16.31999-19.97 1.38-8.8.9-23.22.13-35-.69-10.61-7.75-23.61-18.32-22.47l-32.99 8.42z"/>
                    <path fill="rgb(235,153,110)" fill-rule="evenodd" d="M211.08 132.09s-11.9.79-23.7-6.27c0 0 5.77 12.14 23.47 10.44l.23-4.17z"/>
                  </g>
                  <path fill="rgb(38,50,56)" fill-rule="evenodd" d="M163.87 121.25c4.86.98 10.16-.51 13.79-3.89 3.63-3.38 5.51-8.55 4.89-13.47-.55-4.34-2.89-8.76-1.39-12.87 1.99-5.44 9.61-7.11 11.63-12.53 1.18-3.15.12-6.84 1.45-9.93 1.25-2.91 4.31-4.58 7.28-5.65 2.97-1.08 6.16-1.82 8.66-3.76 2.5-1.94 4.06-5.61 2.44-8.33-13.19 1.58-26.2 4.74-38.64 9.39-2.89 1.08-5.92 2.37-7.62 4.94-1.81 2.71-1.72 6.22-1.57 9.48.76 15.86-1.66 30.74-.92 46.62"/>
                </g>
                <path fill="rgb(69,90,100)" fill-rule="evenodd" d="M211.05 39.15c.01-.03.26.03.69.21.43.18 1.02.5 1.67 1.01 1.3 1 2.83 2.94 3.22 5.5.38 2.57-.52 4.87-1.47 6.2-.48.68-.95 1.16-1.3 1.46-.36.29-.58.42-.6.4-.07-.07.75-.69 1.59-2.06.84-1.33 1.62-3.52 1.26-5.93-.36-2.4-1.75-4.27-2.94-5.3-1.19-1.04-2.16-1.4-2.12-1.49z"/>
                <path fill="rgb(69,90,100)" fill-rule="evenodd" d="M250.23 160.52c-.06-.02.31-.64.51-1.87.21-1.22.11-3.09-.87-5.09-.95-2.01-2.94-3.92-5.58-5.2-1.32-.65-2.79-1.16-4.34-1.55-1.56-.4-3.21-.74-4.87-1.27-1.65-.53-3.26-1.25-4.47-2.44-1.25-1.15-1.85-2.78-2.11-4.25-.27-1.49-.36-2.9-.69-4.16-.32-1.26-.91-2.33-1.61-3.18-1.41-1.72-3.11-2.53-4.28-2.91-1.2-.36-1.9-.36-1.9-.41 0-.02.18-.02.51-.01s.82.08 1.44.23c1.21.33 3 1.11 4.5 2.87.74.87 1.39 2 1.74 3.31.36 1.31.47 2.73.75 4.18.27 1.43.82 2.9 1.99 3.97 1.12 1.1 2.66 1.8 4.27 2.31 1.62.52 3.26.86 4.84 1.27 1.58.41 3.08.94 4.43 1.61 2.71 1.33 4.76 3.36 5.7 5.47.97 2.1 1.01 4.05.73 5.29-.13.63-.31 1.09-.45 1.39-.14.29-.22.45-.24.44z"/>
              </g>
              <path fill="rgb(38,50,56)" fill-rule="evenodd" d="M173.31 129.2c-8.96-2.4-16.7-11.17-19.84-19.9-3.14-8.72-3.14-18.26-2.34-27.5.58-6.7 1.76-13.77 6.2-18.81 6.7-7.6 13.95-11.48 24.08-11.16"/>
            </g>
            <g>
              <path fill="rgb(245,245,245)" fill-rule="evenodd" d="M225.61 148.7l-8.35-2.1c1.96-1.56 2.51-3.55 1.66-5.82-1-2.66-3.56-4.41-6.38-4.73l-38.08-4.3c-1.36-.15-2.69.6-3.19 1.88-1.69 4.29-1.75 7.82-.17 10.6h-.18l-7.34 1.46-12.41 109.74 81.48-3.81-7.04-102.92z"/>
              <g>
                <path fill="rgb(38,50,56)" fill-rule="evenodd" d="M213.63 147.02c0 .04-.54.14-1.53.29-.99.16-2.43.34-4.21.51-3.57.35-8.53.57-13.99.3-5.47-.28-10.38-.99-13.9-1.69-1.76-.35-3.17-.67-4.14-.93-.97-.25-1.5-.41-1.49-.44.01-.03.56.05 1.54.25s2.4.46 4.16.76c3.52.6 8.41 1.26 13.86 1.53 5.44.27 10.38.1 13.94-.15 1.78-.12 3.22-.25 4.22-.35.98-.08 1.53-.11 1.54-.08z"/>
                <path fill="rgb(224,224,224)" fill-rule="evenodd" d="M176.8 164.46c-.12-.08 1.16-2.2 2.85-4.74 1.7-2.54 3.17-4.53 3.29-4.45.12.08-1.16 2.2-2.85 4.74-1.7 2.54-3.17 4.53-3.29 4.45z"/>
                <path fill="rgb(224,224,224)" fill-rule="evenodd" d="M203.06 166.32c-.11.09-1.73-1.74-3.62-4.09-1.89-2.35-3.32-4.32-3.21-4.41.11-.09 1.73 1.74 3.62 4.09 1.89 2.35 3.32 4.32 3.21 4.41z"/>
                <path fill="rgb(224,224,224)" fill-rule="evenodd" d="M190.86 180.27c-.14.03-.69-2.42-1.23-5.46s-.86-5.52-.72-5.55c.14-.03.69 2.42 1.23 5.46s.86 5.52.72 5.55z"/>
                <path fill="rgb(224,224,224)" fill-rule="evenodd" d="M210.91 181.13c.1.1-1.97 2.31-4.63 4.92-2.66 2.62-4.89 4.65-4.99 4.55-.1-.1 1.97-2.31 4.63-4.92s4.89-4.65 4.99-4.55z"/>
                <path fill="rgb(224,224,224)" fill-rule="evenodd" d="M184.02 199.83c-.06.11-2.55-1.4-4.98-3.99-2.45-2.58-3.81-5.14-3.69-5.2.13-.09 1.67 2.31 4.07 4.84 2.39 2.55 4.7 4.22 4.6 4.35z"/>
                <path fill="rgb(224,224,224)" fill-rule="evenodd" d="M192.66 214.27c.04.15-2.28.89-4.92 2.29-2.65 1.39-4.57 2.89-4.67 2.77-.09-.09 1.72-1.81 4.43-3.23 2.69-1.43 5.13-1.96 5.16-1.83z"/>
                <path fill="rgb(224,224,224)" fill-rule="evenodd" d="M206.71 215.21c-.05.04-.67-.6-1.59-1.71-.92-1.11-2.15-2.68-3.43-4.47-1.28-1.79-2.36-3.46-3.11-4.69-.75-1.23-1.16-2.02-1.1-2.06.06-.04.59.68 1.41 1.86.94 1.34 2.03 2.88 3.23 4.59 1.23 1.69 2.34 3.22 3.3 4.54.84 1.16 1.35 1.89 1.29 1.94z"/>
                <path fill="rgb(224,224,224)" fill-rule="evenodd" d="M208.12 227.52c.03.14-2.65.85-6.02 1.4-3.37.56-6.13.75-6.15.61-.02-.15 2.71-.56 6.06-1.12 3.36-.55 6.08-1.03 6.11-.89z"/>
                <path fill="rgb(224,224,224)" fill-rule="evenodd" d="M185.37 145.47c-.07-.06.41-.6.82-1.66.42-1.05.68-2.63.43-4.34-.25-1.72-.85-3.2-1.29-4.26-.45-1.06-.74-1.72-.67-1.76.06-.03.47.57 1.01 1.6.53 1.04 1.21 2.54 1.47 4.35.26 1.81-.08 3.49-.61 4.56-.52 1.08-1.12 1.56-1.16 1.51z"/>
                <path fill="rgb(224,224,224)" fill-rule="evenodd" d="M200.59 137.26c.11-.07 1.05 1.3 1.5 3.28.47 1.97.24 3.62.11 3.6-.15 0-.17-1.6-.62-3.48-.43-1.9-1.13-3.33-.99-3.4z"/>
              </g>
            </g>
            <g>
              <path fill="rgb(255,190,157)" fill-rule="evenodd" d="M269.24 215.44l37.91-66.57 4.57-11.55s11.81-25.41 12.64-27.99c.95-2.99 2.62-3.25 3.7-2.82 1.68.66 2.22 3.17 1.48 5.75-.26.89-4.85 14.85-4.85 14.85s1.01-.95 3.92-2.91c2.91-1.96 8.25-1.9 13.18-.14 4.93 1.76 6.16 2.69 5.57 4.63-.24.78-.88 1.27-1.58 1.57-1.15.49-2.47.48-3.65.08-7.94-2.71-11.46.87-11.46.87l-.6 1.51s5.97-1.91 9.36.79c.55.44.95.93 1.24 1.45 2.11.7 3.83 2.53 4.35 4.7.54 2.26-.22 4.78-1.92 6.36-.81.75-2.04 1.3-3.01.76-.51-.29-.83-.81-1.14-1.31-.16-.26-.34-.53-.54-.75l-2.27 4s-5.57 8.71-7.57 12.77l-26.09 69.52c-3.62 9.64-14.43 14.44-24.01 10.65-10.42-4.1-14.77-16.49-9.23-26.22z"/>
              <g>
                <path fill="rgb(255,190,157)" fill-rule="evenodd" d="M309.75 148.65c1.34.87 3.19.28 4.39-.77 1.21-1.04 2.02-2.47 3.15-3.6 3.38-3.37 9.03-3.69 12.24-7.22.45-.49.85-1.24.46-1.78-.36-.5-1.11-.44-1.71-.32-5.17 1.02-10.34 2.05-15.51 3.07"/>
                <path fill="rgb(235,153,110)" fill-rule="evenodd" d="M312.77 138.04c-.01-.06.57-.24 1.64-.5 1.07-.27 2.62-.62 4.55-1.05 2-.43 4.28-.91 6.76-1.44.64-.13 1.29-.27 1.96-.4.63-.08 1.42-.47 2.37.08.46.29.64.95.51 1.41-.11.47-.34.82-.61 1.14-.53.58-1.1 1.1-1.75 1.54-2.58 1.79-5.41 2.52-7.67 3.7-1.14.57-2.15 1.23-2.94 2.01-.8.77-1.43 1.65-2.09 2.4-1.26 1.58-2.95 2.36-4.11 2.31-1.19-.02-1.68-.58-1.64-.59.04-.08.56.33 1.62.24 1.06-.08 2.48-.81 3.64-2.37.61-.75 1.21-1.66 2.05-2.52.84-.87 1.91-1.6 3.09-2.21 2.33-1.26 5.15-2.04 7.53-3.7.59-.4 1.12-.9 1.58-1.39.43-.49.59-1.09.27-1.25-.31-.23-1.03-.09-1.69.05-.67.13-1.32.25-1.96.37-2.5.46-4.79.88-6.8 1.25-1.94.34-3.51.6-4.6.77-1.09.15-1.7.21-1.71.15z"/>
              </g>
              <path fill="rgb(235,153,110)" fill-rule="evenodd" d="M329.85 132.75c.1.06.31-1.24 1.78-2.4.72-.57 1.78-.96 3-.98 1.22-.04 2.56.25 3.95.67 1.39.41 2.76.82 4.06.92 1.3.1 2.5-.07 3.41-.53.93-.45 1.37-1.27 1.45-1.82.09-.55 0-.85-.02-.85-.06 0-.05.3-.2.8-.15.49-.57 1.14-1.41 1.5-.83.36-1.96.48-3.18.36-1.23-.12-2.54-.53-3.95-.95-1.4-.42-2.82-.71-4.14-.64-1.31.05-2.49.54-3.23 1.2-.76.65-1.16 1.38-1.35 1.89-.19.52-.21.83-.17.83z"/>
              <path fill="rgb(235,153,110)" fill-rule="evenodd" d="M329.8 111.27c-.08-.02-.41 1.05-.93 2.77-.59 1.91-1.29 4.2-2.07 6.72-.82 2.51-1.55 4.78-2.17 6.69-.56 1.71-.91 2.77-.83 2.8.07.03.55-.98 1.22-2.66.67-1.68 1.51-4.03 2.34-6.65.83-2.62 1.49-5.03 1.91-6.78.41-1.77.6-2.87.53-2.89z"/>
              <path fill="rgb(235,153,110)" fill-rule="evenodd" d="M331.99 136.92c.01.04.34 0 .91-.05.55-.04 1.48-.09 2.18.59.34.32.47.83.35 1.39-.1.56-.41 1.13-.71 1.77-.3.62-.61 1.43-.37 2.3.25.83.94 1.5 1.78 1.79.86.3 1.78.13 2.49-.25.72-.39 1.3-.94 1.66-1.61.64-1.3.91-2.54 1.09-3.6.16-1.06.15-1.94.03-2.53-.13-.6-.33-.88-.35-.86-.05.02.07.32.13.89.05.57 0 1.41-.21 2.43-.22 1-.55 2.23-1.16 3.41-.6 1.08-2.1 2.03-3.49 1.57-.68-.23-1.23-.78-1.42-1.4-.19-.63.03-1.3.31-1.91.27-.62.6-1.24.7-1.91.13-.65-.08-1.39-.54-1.77-.92-.78-1.95-.61-2.5-.51-.58.1-.88.22-.88.26z"/>
              <path fill="rgb(235,153,110)" fill-rule="evenodd" d="M338.53 143.95c-.03-.01-.2.26-.18.81.02.53.3 1.38 1.16 1.96.84.56 2.19.66 3.37.04 1.18-.62 2.09-1.83 2.55-3.24.46-1.42.41-2.9 0-4.12-.4-1.23-1.14-2.17-1.85-2.8-.72-.64-1.43-.98-1.93-1.16-.5-.18-.8-.21-.81-.17-.05.1 1.14.36 2.45 1.64.64.63 1.29 1.53 1.62 2.66.35 1.12.37 2.48-.04 3.78-.41 1.29-1.24 2.39-2.25 2.95-1 .56-2.16.52-2.9.08-.75-.43-1.07-1.16-1.15-1.63-.07-.5.01-.79-.04-.8z"/>
              <path fill="rgb(235,153,110)" fill-rule="evenodd" d="M325.91 150.21c.02-.05-.45-.31-1.34-.41-.7549-.08578-1.84095-.00231-2.9362.52817.07533-.43773.13514-.89593.1762-1.36817.34-3.86-.89-6.84-1.01-6.76-.17.04.77 3 .43 6.71-.06.67-.15 1.31-.25 1.9l-.12.65.55-.36c1.12-.75 2.33-.94 3.15-.95.83 0 1.33.14 1.35.06z"/>
              <path fill="rgb(235,153,110)" fill-rule="evenodd" d="M333.8 126.49c-.15.02.07 1.2 1.13 2.12 1.05.93 2.25.99 2.25.84.03-.17-.96-.46-1.87-1.27-.93-.8-1.35-1.75-1.51-1.69z"/>
            </g>
            <g>
              <g>
                <path fill="rgb(232,80,91)" fill-rule="evenodd" d="M215.45 270.68l39.64.39-6.67-28.77 2.23 5.43c4.21 10.25 14.19 16.95 25.28 16.95 12.54 0 21.2-9.33 26.51-20.69 12.4-26.56 24.35-69.33 24.35-69.33l-24.18-21.24c-17.49 33.09-33.94 61.84-33.94 61.84s-4.75-14.43-8.41-27.31c-3.67-12.87-3.64-19.64-9.28-26.07-8.66-9.87-21.01-12.33-32.48-15.28l-.43 53.44-2.62 70.64"/>
                <path fill="rgb(232,80,91)" fill-rule="evenodd" d="M170.11 230.88l72.2 14.06 3.52 27.74h-110.7c-12.84.17-23.05-10.72-22.04-23.52 1.59-20.22 3.32-45.12 4.64-55.65 1.02-8.21 4.3-16.7 8.18-24.01 5.59-10.52 24.21-24.04 40.54-24.7l3.09 68.77"/>
              </g>
              <g opacity=".4">
                <g>
                  <path fill="rgb(0,0,0)" fill-rule="evenodd" d="M215.45 270.68l39.64.39-6.67-28.77 2.23 5.43c4.21 10.25 14.19 16.95 25.28 16.95 12.54 0 21.2-9.33 26.51-20.69 12.4-26.56 24.35-69.33 24.35-69.33l-24.18-21.24c-17.49 33.09-33.94 61.84-33.94 61.84s-4.75-14.43-8.41-27.31c-3.67-12.87-3.64-19.64-9.28-26.07-8.66-9.87-21.01-12.33-32.48-15.28l-.43 53.44-2.62 70.64"/>
                  <path fill="rgb(0,0,0)" fill-rule="evenodd" d="M170.11 230.88l65.12 11.95c2.71.5 4.86 2.59 5.43 5.29l5.17 24.57h-110.7c-12.84.17-23.05-10.72-22.04-23.52 1.59-20.22 3.32-45.12 4.64-55.65 1.02-8.21 4.3-16.7 8.18-24.01 5.59-10.52 24.21-24.04 40.54-24.7l3.09 68.77"/>
                </g>
              </g>
              <path fill="rgb(38,50,56)" fill-rule="evenodd" d="M156.36 228.87c-.02 0-.03-.23-.03-.66 0-.49 0-1.11.01-1.89.01-1.71.02-4.07.04-6.96.01-5.87-.1-13.98-.56-22.93-.22-4.47-.52-8.73-.83-12.6-.29-3.87-.63-7.35-1.45-10.16-.79-2.81-2.06-4.87-3.18-6.03-1.12-1.18-1.95-1.61-1.9-1.67 0 0 .86.37 2.05 1.53 1.19 1.15 2.55 3.23 3.39 6.07.88 2.84 1.26 6.36 1.58 10.22.34 3.87.64 8.14.87 12.62.46 8.96.51 17.08.41 22.96-.05 2.94-.13 5.32-.21 6.96-.04.78-.08 1.4-.1 1.89-.04.43-.07.65-.09.65z"/>
              <path fill="rgb(38,50,56)" fill-rule="evenodd" d="M240.91 246.9c-.06.06-.72-1.03-2.63-2.13-.95-.54-2.19-1.05-3.69-1.47-1.5-.43-3.24-.76-5.17-1.15-7.71-1.57-18.37-3.76-30.17-5.97-11.81-2.21-22.54-3.99-30.31-5.23-3.85-.62-6.98-1.12-9.21-1.48-1.05-.18-1.88-.32-2.5-.42-.57-.1-.87-.16-.87-.18 0-.02.31.01.88.08.62.08 1.46.19 2.51.32 2.18.29 5.34.73 9.23 1.31 7.79 1.15 18.53 2.87 30.35 5.09 11.81 2.21 22.46 4.45 30.15 6.12 1.92.42 3.67.78 5.18 1.23 1.51.45 2.76 1 3.71 1.58.95.57 1.59 1.17 1.98 1.6.21.21.33.4.42.51.1.12.15.19.14.19z"/>
              <path fill="rgb(38,50,56)" fill-rule="evenodd" d="M156.58 228.87c.02.09-1.33.41-3.39 1.24-1.03.41-2.22.99-3.49 1.72-1.26.75-2.59 1.66-3.89 2.74-1.29 1.1-2.41 2.25-3.37 3.37-.94 1.13-1.72 2.2-2.3 3.14-1.18 1.88-1.72 3.16-1.81 3.12-.03-.01.08-.34.31-.93.22-.59.62-1.41 1.18-2.39.55-.98 1.31-2.1 2.24-3.26.95-1.15 2.09-2.34 3.4-3.46 1.33-1.1 2.7-2.02 3.99-2.76 1.31-.72 2.53-1.28 3.6-1.65 1.06-.38 1.94-.63 2.56-.75.62-.11.96-.16.97-.13z"/>
              <path fill="rgb(38,50,56)" fill-rule="evenodd" d="M249.81 246.15c-.02 0-.07-.23-.15-.69-.08-.51-.19-1.17-.33-1.99-.28-1.73-.64-4.23-1.06-7.33-.84-6.19-1.86-14.77-2.72-24.27-.85-9.5-1.38-18.13-1.65-24.37-.14-3.12-.23-5.65-.26-7.4-.01-.83-.02-1.5-.03-2.01 0-.46.01-.7.02-.7.02 0 .05.24.08.7.03.51.08 1.18.13 2.01.1 1.8.25 4.31.43 7.39.37 6.24.95 14.85 1.8 24.34.86 9.49 1.82 18.07 2.57 24.27.37 3.06.68 5.55.9 7.34.1.83.17 1.49.23 2 .05.47.06.71.04.71z"/>
              <path fill="rgb(38,50,56)" fill-rule="evenodd" d="M273.75 235.4c-.03.02-.23-.21-.58-.66-.35-.44-.81-1.12-1.33-1.98-1.04-1.73-2.21-4.3-2.92-7.31-.7-3.02-.79-5.84-.63-7.85.08-1.01.19-1.82.31-2.37.11-.55.19-.85.23-.85.09.01-.11 1.24-.17 3.23-.07 1.99.08 4.75.76 7.71.7 2.96 1.79 5.5 2.74 7.25.94 1.76 1.67 2.78 1.59 2.83z"/>
            </g>
            <g>
              <path fill="rgb(255,190,157)" fill-rule="evenodd" d="M267.75 291.33c.56 1.94-1.06 3.8-3.06 3.53-1.08-.15-1.97-.91-2.29-1.96l-.62841-2.35655c-.05609 1.56924-1.64522 2.84086-3.33159 2.67655-1.32-.03-2.45-1.91-2.82-2.92-2.18.26-4.24-1.02-5.08-2.44l-5.87-9.16-10.87-7.95 6.57-23.49 23.4 15.14c.92.71 1.06 1.02 2.52 2.37l15.1 13.88c-1.71 1.03-3.17.95-5.54 0s-12.81-7.99-12.81-7.99l4.71 20.67"/>
              <path fill="rgb(235,153,110)" fill-rule="evenodd" d="M247.74 272c.02-.03.27.12.7.41.24.17.5.35.77.54.3.2.66.48.97.84.31.36.6.82.79 1.36.18.52.37 1.07.57 1.64.4 1.17.83 2.44 1.28 3.76.89 2.67 1.67 5.1 2.21 6.87.54 1.77.84 2.87.77 2.89-.07.02-.49-1.04-1.12-2.78-.63-1.74-1.46-4.14-2.36-6.81-.44-1.33-.85-2.59-1.24-3.77-.18-.57-.36-1.12-.53-1.65-.16-.49-.4-.92-.67-1.27-.27-.36-.57-.61-.86-.84-.26-.22-.49-.42-.72-.61-.38-.35-.58-.55-.56-.58z"/>
              <path fill="rgb(235,153,110)" fill-rule="evenodd" d="M261.81 290.25c-.04.01-.15-.34-.33-.97-.21-.74-.46-1.64-.75-2.68-.63-2.26-1.49-5.39-2.58-8.8-1.1-3.4-2.23-6.46-3.6-8.33-.67-.94-1.37-1.57-1.92-1.91-.55-.34-.9-.44-.88-.49.01-.02.1 0 .27.04.17.03.41.13.72.28.6.3 1.38.92 2.11 1.87 1.49 1.9 2.69 4.98 3.8 8.39 1.09 3.42 1.9 6.57 2.44 8.86.27 1.15.47 2.08.59 2.72.12.65.17 1.01.13 1.02z"/>
              <path fill="rgb(235,153,110)" fill-rule="evenodd" d="M267.85 291.67c-.03.01-.18-.36-.41-1.05-.25-.8-.56-1.77-.93-2.92-.76-2.47-1.78-5.89-2.87-9.67-1.06-3.73-2.01-7.1-2.74-9.7-.39-1.21-1.02-2.04-1.6-2.44-.57-.42-.98-.47-.97-.52 0-.01.11-.02.3.02s.47.13.79.33c.65.37 1.39 1.24 1.83 2.49.82 2.47 1.79 5.89 2.9 9.68 1.09 3.79 2.05 7.22 2.72 9.72.3 1.16.56 2.15.77 2.96.16.7.24 1.09.21 1.1z"/>
            </g>
          </g>
        </g>
      </g>
    </g>
    <path fill="rgb(255,255,255)" fill-rule="evenodd" d="M467.50000187 27h86.00001625c.82787358 0 1.50000188.6721283 1.50000188 1.50000187 0 .82787358-.6721283 1.50000188-1.50000187 1.50000188h-86.00001625c-.82787358 0-1.50000188-.6721283-1.50000188-1.50000188C466 27.6721283 466.6721283 27 467.50000187 27z"/>
    <path fill="rgb(255,255,255)" fill-rule="evenodd" d="M190.50000187 327.99998375h86.00001625c.82787358 0 1.50000188.6721283 1.50000188 1.50000187 0 .82787358-.6721283 1.50000188-1.50000188 1.50000188h-86.00001625c-.82787357 0-1.50000187-.6721283-1.50000187-1.50000188 0-.82787357.6721283-1.50000187 1.50000187-1.50000187z"/>
    <path fill="rgb(255,255,255)" fill-rule="evenodd" d="M467.50000187 40.00001625h86.00001625c.82787358 0 1.50000188.6721283 1.50000188 1.50000187 0 .82787358-.6721283 1.50000188-1.50000187 1.50000188h-86.00001625C466.6721283 43.00002 466 42.3278917 466 41.50001812c0-.82787357.6721283-1.50000187 1.50000187-1.50000187z"/>
    <path fill="rgb(255,255,255)" fill-rule="evenodd" d="M190.50000187 341h86.00001625c.82787358 0 1.50000188.6721283 1.50000188 1.50000187 0 .82787358-.6721283 1.50000188-1.50000188 1.50000188h-86.00001625c-.82787357 0-1.50000187-.6721283-1.50000187-1.50000188C189 341.6721283 189.6721283 341 190.50000187 341z"/>
  </g>
</svg>
