<?xml version="1.0" encoding="UTF-8"?>
<svg width="396px" height="327px" viewBox="0 0 396 327" version="1.1" xmlns="http://www.w3.org/2000/svg" xmlns:xlink="http://www.w3.org/1999/xlink">
    <title>Untitled</title>
    <g id="Page-1" stroke="none" stroke-width="1" fill="none" fill-rule="evenodd">
        <g id="illustration-payment">
            <rect id="Rectangle" fill="#FAE6E2" fill-rule="nonzero" x="87" y="0" width="297" height="327" rx="16"></rect>
            <path d="M72.3825,310.356 C69.7596,307.952 62.6585,306.714 58.7023,305.761 C58.5622,305.715 58.4141,305.699 58.2672,305.712 C58.1204,305.726 57.9779,305.77 57.8486,305.841 C57.7194,305.912 57.6061,306.009 57.516,306.126 C57.4258,306.242 57.3606,306.376 57.3244,306.519 C57.2882,306.662 57.2818,306.811 57.3057,306.957 C57.3295,307.102 57.383,307.241 57.4629,307.365 C57.5428,307.489 57.6473,307.596 57.77,307.678 C57.8927,307.759 58.0309,307.815 58.1761,307.841 C61.3502,308.767 68.3348,310.753 70.2588,312.598 C70.8475,313.164 70.7144,313.399 70.1756,313.588 C65.7677,314.93 61.1232,315.31 56.5558,314.703 C54.5132,314.558 49.2446,314.021 48.4812,312.112 C48.1309,310.206 48.1869,308.247 48.6455,306.365 C51.6393,306.857 54.7096,306.56 57.5542,305.505 C57.8728,305.388 58.1424,305.166 58.3188,304.876 C58.4952,304.586 58.5681,304.245 58.5255,303.908 C57.3046,296.628 58.3176,287.226 58.3176,279.135 L57.8724,233.436 C51.2393,234.397 40.2403,234.684 22.1214,234.016 C21.5619,256.049 22.5519,279.429 22.3294,301.277 C22.3308,301.529 22.3937,301.776 22.5124,301.999 C21.9217,303.9 21.1063,306.504 20.9025,307.54 C20.5743,308.815 20.6932,310.164 21.2395,311.363 C21.9418,312.407 22.8962,313.256 24.0142,313.833 C25.1323,314.409 26.3779,314.695 27.6355,314.662 C30.9372,314.748 34.2362,314.408 37.451,313.651 C39.921,313.494 42.3387,312.868 44.575,311.808 C44.702,311.747 44.8156,311.661 44.9091,311.556 C45.0026,311.45 45.0743,311.327 45.1199,311.194 C45.1654,311.061 45.184,310.919 45.1746,310.779 C45.1651,310.638 45.1278,310.501 45.0648,310.375 C45.0017,310.249 44.9143,310.136 44.8074,310.045 C44.7006,309.953 44.5766,309.883 44.4426,309.839 C44.3085,309.796 44.1672,309.779 44.0267,309.791 C43.8863,309.802 43.7495,309.842 43.6244,309.907 C41.4762,310.457 39.2624,310.709 37.0454,310.656 C33.6238,311.111 25.7011,312.669 23.9102,309.886 C23.614,309.265 23.5077,308.57 23.6044,307.889 C23.6668,306.849 24.1307,304.626 24.4219,303.124 C26.6518,303.718 28.9863,303.806 31.2547,303.382 C31.6272,303.317 31.9652,303.123 32.2096,302.835 C32.4541,302.546 32.5894,302.181 32.5921,301.803 C32.6607,283.616 34.5972,265.081 35.7287,245.599 C36.5607,245.766 39.115,246.184 42.3473,246.49 C42.2953,265.665 45.1657,286.035 46.7819,304.463 C46.3991,306.369 45.8854,308.937 45.7689,309.765 C45.5297,310.752 45.5668,311.786 45.8761,312.753 C46.1854,313.72 46.7549,314.583 47.5223,315.248 C50.9897,318.177 61.3897,318.387 65.8992,317.798 C68.0701,317.536 70.1908,316.957 72.1932,316.078 C72.6725,315.778 73.0707,315.365 73.3528,314.875 C73.6349,314.385 73.7922,313.833 73.8108,313.267 C73.8295,312.702 73.7091,312.141 73.46,311.633 C73.2109,311.126 72.8409,310.687 72.3825,310.356 Z" id="Path" fill="#191919"></path>
            <path d="M376.485,150.465 C375.379,149.732 374.182,149.146 372.924,148.724 C372.69,148.627 372.431,148.612 372.188,148.682 C371.945,148.752 371.733,148.902 371.586,149.108 C369.427,152.213 366.669,154.855 363.474,156.879 C362.609,155.867 361.849,154.768 361.207,153.601 C361.083,153.388 360.882,153.229 360.645,153.158 C360.409,153.087 360.154,153.108 359.932,153.216 L358.94,153.824 C358.815,153.915 358.714,154.034 358.643,154.171 C358.573,154.308 358.536,154.46 358.534,154.614 C358.62,156.318 358.891,158.007 359.344,159.652 C359.61,160.627 360.186,160.852 361.008,161.353 C361.053,161.481 361.124,161.598 361.216,161.697 C361.339,161.812 361.498,161.883 361.666,161.897 C361.835,161.912 362.004,161.87 362.145,161.778 C362.28,161.727 362.403,161.652 362.509,161.555 C362.697,161.183 362.582,161.347 363.703,160.118 C364.568,161.536 365.536,162.889 366.599,164.165 C366.691,164.262 366.802,164.338 366.925,164.392 C367.047,164.445 367.179,164.473 367.313,164.475111 C367.446,164.477 367.579,164.452 367.703,164.403 C367.827,164.353 367.94,164.28 368.036,164.186 C371.729,160.613 374.722,156.38 376.859,151.706 C376.936,151.486 376.941,151.248 376.873,151.025 C376.806,150.802 376.67,150.606 376.485,150.465 Z" id="Path" fill="#38A1FF"></path>
            <path d="M191.968,93.359 C191.047,92.41 189.937,91.665 188.71,91.173 C187.482,90.682 186.165,90.454 184.844,90.505 L101.973,90.505 C99.364,90.535 96.875,91.598 95.049,93.461 C93.224,95.324 92.212,97.835 92.236,100.443 L92.236,169.291 C92.249,169.588 92.377,169.867 92.592,170.071 C92.808,170.275 93.094,170.387 93.391,170.383 L98.147,170.383 C98.442,170.37 98.722,170.254 98.939,170.054 C99.156,169.854 99.294,169.584 99.331,169.291 L99.331,104.35 C99.369,103.071 99.773,101.831 100.496,100.776 C101.218,99.72 102.229,98.895 103.408,98.399 C104.806,97.775 104.591,97.933 119.965,97.933 L119.923,100.2 C119.937,101.633 120.513,103.003 121.528,104.015 C122.543,105.027 123.915,105.599 125.348,105.608 L154.349,105.608 C155.065,105.618 155.775,105.486 156.439,105.218 C157.103,104.951 157.707,104.554 158.216,104.05 C158.724,103.547 159.128,102.947 159.402,102.286 C159.676,101.625 159.816,100.916 159.813,100.2 L159.813,98.056 C175.205,98.056 174.652,97.918 176.187,98.561 C179.906,100.121 179.916,103.1 179.958,105.442 C180.11,113.693 180.002,144.017 180.002,260.146 C179.969,261.766 179.303,263.309 178.148,264.446 C176.992,265.582 175.438,266.221 173.818,266.228 L105.898,266.228 C102.651,266.228 99.92,264.077 99.814,259.345 C99.707,254.613 99.787,241.211 99.787,200.26 C99.789,200.045 99.748,199.83 99.667,199.63 C99.585,199.43 99.465,199.249 99.312,199.096 C99.159,198.943 98.978,198.823 98.778,198.741 C98.578,198.66 98.363,198.619 98.147,198.621 L93.391,198.621 C92.958,198.628 92.545,198.803 92.239,199.109 C91.933,199.415 91.758,199.828 91.751,200.26 L91.751,263.95 C91.751,265.292 92.015,266.621 92.529,267.86 C93.043,269.1 93.796,270.226 94.745,271.174 C95.694,272.123 96.821,272.875 98.062,273.387 C99.302,273.9 100.631,274.161473 101.973,274.161473 L184.848,274.161473 C186.19,274.174 187.521,273.919 188.762,273.41 C190.004,272.901 191.131,272.148 192.077,271.196 C193.023,270.245 193.769,269.113 194.271,267.869 C194.773,266.624 195.02,265.292 194.999,263.95 L194.999,100.443 C194.919,97.784 193.836,95.253 191.968,93.359 Z M186.82,265.215 C185.814,267.215 184.089,268.76 181.99,269.539 C181.683,269.667 181.338,269.668 181.03,269.542 C180.722,269.416 180.477,269.172 180.349,268.865 C180.221,268.558 180.22,268.213 180.346,267.905 C180.473,267.597 180.716,267.352 181.023,267.224 C182.518,266.622 183.741,265.495 184.464,264.056 C185.187,262.616 185.36,260.961 184.95,259.403 L184.95,106.255 C185.256,103.834 184.936,101.374 184.02,99.112 C183.773,98.455 183.394,97.856 182.906,97.351 C182.419,96.846 181.834,96.445 181.187,96.173 C180.88,96.077 180.62,95.867 180.46,95.587 C180.3,95.307 180.253,94.977 180.326,94.663 C180.362,94.503 180.43,94.353 180.525,94.22 C180.621,94.087 180.742,93.975 180.882,93.89 C181.021,93.805 181.177,93.749 181.339,93.725 C181.501,93.701 181.666,93.712159 181.824,93.752 C182.846,94.083 183.782,94.635 184.566,95.37 C185.35,96.104 185.962,97.003 186.358,98.001 C187.511,100.633 187.952,103.52 187.639,106.376 C187.687,106.879 187.639,241.122 187.639,258.975 C187.983,261.09 187.698,263.26 186.82,265.215 Z" id="Shape" fill="#38A1FF"></path>
            <path d="M201.777,102.229 C209.509,102.773 217.264,102.921 225.011,102.674 C229.443,102.554 232.742,102.258 232.742,102.258 C232.888,102.265 233.034,102.242 233.171,102.19 C233.308,102.139 233.433,102.06 233.539,101.959 C233.645,101.858 233.729,101.736 233.786,101.601 C233.844,101.467 233.873,101.322 233.873,101.176 C233.873,101.029 233.844,100.885 233.786,100.75 C233.729,100.616 233.645,100.494 233.539,100.393 C233.433,100.292 233.308,100.213 233.171,100.162 C233.034,100.11 232.888,100.087 232.742,100.093 C225.708,99.446 214.694,99.494 209.527,99.627 C206.341,99.717 201.567,100.133 201.777,100.112 C201.495,100.112 201.225,100.224 201.026,100.423 C200.826,100.623 200.714,100.893 200.714,101.175 C200.714,101.457 200.826,101.727 201.026,101.926 C201.225,102.126 201.495,102.238 201.777,102.238 L201.777,102.229 Z" id="Path" fill="#191919"></path>
            <path d="M305.476705,286.913 C300.134,147.511 302.564,156.497 302.014,155.908 L264.533,112.852 C264.344,112.649 264.084,112.527 263.807,112.511 C263.53,112.494 263.257,112.586 263.046,112.766 C262.834,112.946 262.701,113.2 262.672,113.476 C262.644,113.752 262.723,114.029 262.894,114.248 L299.383,157.476 C299.485,161.809 302.276,279.314 302.42,285.69 L246.676,295.077 L246.676,164.503 C246.901,164.478 302.112,158.602 297.871,159.011 C298.013,159 298.15,158.96 298.276,158.895 C298.402,158.829 298.514,158.739 298.604,158.63 C298.695,158.52 298.763,158.394 298.803,158.258 C298.844,158.122 298.858,157.979 298.842,157.838 C298.829,157.697 298.789,157.56 298.723,157.435 C298.657,157.31 298.567,157.199 298.458,157.108 C298.349,157.018 298.223,156.95 298.088,156.908 C297.952,156.866 297.81,156.852 297.669,156.865 C294.917,157.073 289.973,157 266.449,159.413 L233.776,121.929 C233.657,121.779 233.506,121.658 233.335,121.574 C233.163,121.49 232.975,121.446 232.784,121.444 L211.763,120.758 L202.597,109.782 C202.511,109.67 202.403,109.577 202.281,109.508 C202.158,109.439 202.022,109.396 201.882,109.381 C201.742,109.366 201.601,109.38 201.466,109.421 C201.331,109.462 201.206,109.531 201.099,109.622 C200.658,109.986 200.521,110.493 201.099,111.219 C205.041,116.178 243.419,163.519 243.579,163.716 L243.579,294.744 L185.158,288.993 L185.058,279.217 C185.06,278.929 184.949,278.653 184.747,278.448 C184.546,278.243 184.272,278.126 183.985,278.123 C183.695,278.128 183.417,278.244 183.21,278.448 C183.003,278.651 182.882,278.926 182.872,279.217 L182.872,290.045 C182.855,290.33 182.949,290.611 183.133,290.829 C183.317,291.047 183.578,291.187 183.862,291.218 L244.983,297.978 C245.251,298.001 245.521,297.954 245.766,297.841 C246.011,297.727 246.222,297.553 246.379,297.333 L304.24,288.473 C304.597,288.401 304.917,288.204 305.143,287.919 C305.369,287.633 305.487,287.277 305.476705,286.913 Z" id="Path" fill="#191919" fill-rule="nonzero"></path>
            <path d="M232.441,115.295 C234.438,111.226 236.709,107.297 239.24,103.537 C240.636,101.513 242.094,99.529 243.591,97.586 C244.631,96.271 250.15,89.349 251.889,87.284 C252.084,87.073 252.188,86.794 252.181,86.507 C252.174,86.22 252.055,85.947 251.849,85.747 C251.634,85.552 251.352,85.448 251.062,85.455 C250.772,85.463 250.496,85.581 250.291,85.786 C246.974,88.81 243.901,92.092 241.102,95.602 C236.364,101.167 232.755,107.602 230.477,114.546 C230.422,114.674 230.394,114.81 230.392972,114.949 C230.392,115.087 230.418,115.225 230.471,115.353 C230.524,115.481 230.601,115.597 230.699,115.695 C230.798,115.792 230.914,115.869 231.043,115.921 C231.311,116.021 231.608,116.011 231.87,115.894 C232.131,115.776 232.336,115.562 232.441,115.295 Z" id="Path" fill="#38A1FF"></path>
            <path d="M242.354,115.552 C242.739,114.928 243.839,113.518 244.357,112.62 C244.981,111.667 245.605,110.656 246.258,109.685 C246.911,108.713 247.614,107.761 248.242,106.81 C248.91,105.818 249.517,104.807 250.185,103.898 C250.386,103.694 250.498,103.419 250.497007,103.132 C250.495,102.846 250.379,102.572 250.176,102.37 C249.972,102.169 249.696,102.057 249.41,102.058974 C249.123,102.06 248.849,102.176 248.648,102.38 C247.645,103.148 246.711,104.001 245.854,104.93 C244.208,106.81 242.805,108.89 241.68,111.122 C241.145,112.26 240.712,113.444 240.386,114.658 C240.267,114.919 240.257,115.216 240.358,115.485 C240.459,115.753 240.662,115.97 240.923,116.089 C241.184,116.208 241.481,116.218 241.749,116.117 C242.018,116.016 242.235,115.813 242.354,115.552 Z" id="Path" fill="#38A1FF"></path>
            <path d="M247.712,126.462 C251.657,119.727 256.216,113.372 261.332,107.477 C262.931,105.514 264.489,103.55 266.029,101.67 C266.129,101.571 266.209,101.453 266.264,101.322 C266.319,101.192 266.347,101.052 266.347,100.911 C266.347,100.769 266.319,100.63 266.264,100.499 C266.209,100.369 266.129,100.251 266.029,100.152 C265.817,99.957 265.538,99.852 265.251,99.86 C264.964,99.867 264.691,99.986 264.489,100.191 C262.567,101.953 260.664,103.727 258.803,105.697 C255.198,109.588 251.984,113.825 249.21,118.345 C247.868,120.66 246.711,123.076 245.749,125.571 C245.63,125.832 245.621,126.128 245.721,126.396 C245.822,126.663 246.025,126.88 246.285,126.998 C246.546,127.116 246.842,127.126 247.11,127.025 C247.377,126.925 247.594,126.722 247.712,126.462 Z" id="Path" fill="#38A1FF"></path>
            <path d="M337.006,71.1888 C329.477,70.4709 321.898,70.4333 314.361,71.0765 C300.24,52.8328 297.166,49.9437 295.519,47.8616 C295.432,47.7524 295.325,47.6612 295.203,47.5933 C295.082,47.5255 294.948,47.4822 294.809,47.4661 C294.671,47.45 294.531,47.4613 294.397,47.4993 C294.263,47.5374 294.138,47.6015 294.028,47.6879 C293.919,47.7744 293.828,47.8815 293.76,48.0032 C293.692,48.1249 293.649,48.2587 293.633,48.3971 C293.617,48.5355 293.628,48.6757 293.666,48.8097 C293.704,48.9438 293.768,49.069 293.855,49.1783 C304.24,62.925 303.45,62.2823 311.137,72.189 C304.669,79.209 294.277,91.338 292.821,93.197 C292.628,93.415 292.529,93.7 292.546,93.991 C292.564,94.281 292.696,94.553 292.913,94.746 C293.131,94.939 293.416,95.038 293.707,95.02 C293.997,95.003 294.269,94.871 294.462,94.653 C293.609,95.591 308.142,80.651 314.365,73.448 C321.9,74.072 329.474,74.033 337.002,73.333 C337.147,73.34 337.291,73.317 337.427,73.266 C337.563,73.216 337.687,73.138 337.792,73.038 C337.897,72.938 337.98,72.818 338.038,72.685 C338.095,72.552 338.124,72.408 338.125,72.263 C338.125,72.118 338.096,71.9748 338.039,71.8415 C337.983,71.7081 337.899,71.5876 337.795,71.4872 C337.69,71.3868 337.567,71.3086 337.431,71.2573 C337.296,71.206 337.151,71.1827 337.006,71.1888 Z" id="Path" fill="#191919"></path>
            <path d="M343.461,71.3235 L324.88,45.5191 C324.743,45.3419 324.572,45.1936 324.378,45.0826 C324.183,44.9716 323.969,44.9001 323.746,44.8722 L291.75,41.9165 C291.52,41.8956 291.289,41.9266 291.073,42.0072 C290.857,42.0879 290.661,42.2161 290.502,42.3824 L267.347,68.0288 C266.05,65.95 264.14,64.3248 261.881,63.3774 C259.621,62.43 257.124,62.2071 254.732,62.7394 C253.398,63.0152 252.11,63.4766 250.905,64.1101 C248.063,62.8621 244.821,61.741 241.84,60.7675 C241.626,60.7005 241.4,60.6784 241.177,60.7028 C240.954,60.7271 240.739,60.7973 240.544,60.909 C236.626,63.0826 225.629,69.7323 223.969,70.7453 C223.795,70.8519 223.646,70.9933 223.53,71.1605 C223.414,71.3278 223.334,71.5173 223.295,71.717 C223.256,71.9167 223.258,72.122 223.303,72.321 C223.347,72.52 223.432,72.707 223.553,72.871 C226.257,76.428 228.224,79.047 231.001,83.213 C230.987,83.372 231.015,83.532 231.082,83.677 C231.146,83.804 231.236,83.916 231.344,84.008 C231.453,84.1 231.579,84.168 231.715,84.21 C231.851,84.251 231.994,84.265 232.136,84.25 C232.277,84.235 232.414,84.191 232.538,84.122 C238.737,81.21 243.49,78.298 249.255,74.934 C249.433,74.844 249.587,74.712 249.704,74.55 C249.82,74.388 249.896,74.2 249.925,74.003 L251.928,66.2608 C252.997,66.0006 254.087,65.8377 255.185,65.7741 C257.976,65.3902 260.809,66.0534 263.139,67.6357 C264.112,68.2976 264.993,69.0859 265.758,69.9799 C265.72,70.1261 265.714,70.2791 265.743,70.4276 C265.771,70.5762 265.831,70.7167 265.92,70.8389 C265.981,70.8389 287.344,98.95 287.344,98.95 C287.477,99.134 287.655,99.281 287.86,99.377 C288.066,99.472 288.293,99.513 288.519,99.495 L315.376,98.586 C315.75,98.563 316.106,98.417 316.387,98.17 L343.244,73.418 C343.53,73.156 343.711,72.798 343.751,72.412 C343.79,72.026 343.687,71.6386 343.461,71.3235 Z M247.096,72.688 C243.144,75.294 236.721,79.319 232.586,81.632 C230.821,78.485 228.896,75.43 226.818,72.48 L241.572,64.0207 C244.134,64.8527 246.006,65.5141 248.594,66.5707 L247.096,72.688 Z M282.802,54.8 L287.504,62.7207 L282.512,67.8 C281.264,66.1547 280.961,65.5765 277.273,60.6906 L282.802,54.8 Z M314.702,95.489 L289.16,96.602 L268.254,70.2711 L275.713,62.34 C278.388,66.9368 281.121,71.2403 281.006,71.0386 C281.134,71.2263 281.301,71.3838 281.496,71.5001 C281.691,71.6164 281.909,71.6887 282.134,71.7119 C282.36,71.7351 282.588,71.7086 282.803,71.6343 C283.017,71.5601 283.213,71.4398 283.376,71.2819 L290.656,64.0976 C290.905,63.8463 291.066,63.5204 291.114,63.1695 C291.161,62.8185 291.093,62.4616 290.92,62.1528 L284.979,52.4808 L292.151,44.8514 L322.692,47.9485 L340.041,72.047 L314.702,95.489 Z" id="Shape" fill="#191919"></path>
            <path d="M119.201,182.748 C133.642,183.516 148.112,183.516 162.553,182.748 C162.697,182.755 162.842,182.732 162.978,182.68 C163.113,182.629 163.237,182.552 163.342,182.451 C163.447,182.351 163.53,182.231 163.587,182.098 C163.644,181.964 163.673,181.821 163.673,181.676 C163.673,181.531 163.644,181.388 163.587,181.254 C163.53,181.121 163.447,181.001 163.342,180.9 C163.237,180.8 163.113,180.722 162.978,180.671 C162.842,180.62 162.697,180.597 162.553,180.604 C162.553,180.604 157.958,180.3 151.703,180.138 C132.555,179.668 118.975,180.624 119.201,180.624 C118.918,180.624 118.646,180.733 118.441,180.929 C118.237,181.126 118.117,181.394 118.107,181.677 C118.117,181.962 118.236,182.232 118.44,182.431 C118.644,182.631 118.916,182.744 119.201,182.748 Z" id="Path" fill="#191919"></path>
            <path d="M132.877,197.592 C136.186,193.004 142.329,186.127 147.793,184.761 C147.929,184.719 148.071,184.704 148.213,184.718 C148.354,184.732 148.491,184.774 148.616,184.843 C148.741,184.911 148.851,185.003 148.939,185.115 C149.027,185.226 149.092,185.354 149.13,185.491 C149.216,185.765 149.189,186.061 149.056,186.316 C148.923,186.57 148.695,186.761 148.421,186.847 C146.12,187.807 144.055,189.257 142.37,191.096 C139.642,193.881 137.157,196.894 134.943,200.103 C134.791,200.331 134.582,200.515 134.337,200.636 C134.091,200.757 133.818,200.81 133.545,200.791 L114.966,199.751 C114.694,199.728 114.433,199.636 114.206,199.484 C113.98,199.332 113.796,199.124 113.672,198.88 C113.549,198.637 113.49,198.366 113.5,198.093 C113.511,197.821 113.591,197.555 113.733,197.322 C115.498,194.636 117.577,192.17 119.925,189.975 C122.272,187.689 125.072,185.917 128.143,184.775 C128.414,184.692 128.707,184.715 128.962,184.839 C129.217,184.962 129.416,185.178 129.518,185.443 C129.605,185.714 129.584,186.009 129.46,186.265 C129.335,186.522 129.117,186.72 128.85,186.82 C126.227,188.116 123.867,189.886 121.889,192.041 C120.426,193.489 119.098,195.067 117.922,196.756 L132.877,197.592 Z" id="Path" fill="#38A1FF"></path>
            <path d="M123.056,205.306 C122.432,205.249 121.803,205.321 121.208,205.518 C120.613,205.714 120.066,206.031 119.599,206.449 C119.132,206.866 118.756,207.376 118.494,207.945 C118.233,208.514 118.091,209.131 118.078,209.757 C118.056,210.42 118.17,211.08 118.411,211.697 C118.653,212.314 119.017,212.876 119.483,213.347 C119.949,213.819 120.506,214.191 121.12,214.44 C121.734,214.689 122.393,214.811 123.056,214.797 C123.719,214.803 124.377,214.677 124.992,214.426 C125.606,214.175 126.164,213.804 126.633,213.335 C127.103,212.866 127.474,212.308 127.725,211.693 C127.976,211.079 128.102,210.421 128.095,209.757 C128.073,209.128 127.923,208.511 127.655,207.942 C127.386,207.373 127.004,206.865 126.532,206.448 C126.061,206.032 125.509,205.715 124.912,205.519 C124.314,205.323 123.682,205.25 123.056,205.306 Z" id="Path" fill="#38A1FF"></path>
            <path d="M123.055,218.571 C122.432,218.516 121.804,218.589 121.21,218.787 C120.616,218.984 120.069,219.301 119.602,219.718 C119.136,220.135 118.76,220.644 118.498,221.212 C118.235,221.78 118.093,222.396 118.078,223.022 C118.058,223.685 118.172,224.345 118.414,224.963 C118.656,225.581 119.02,226.143 119.485,226.616 C119.951,227.089 120.507,227.463 121.12,227.715 C121.734,227.967 122.392,228.092 123.055,228.083 C123.72,228.086 124.378,227.956 124.992,227.703 C125.606,227.449 126.164,227.076 126.633,226.605 C127.101,226.135 127.472,225.576 127.723,224.96 C127.974,224.345 128.101,223.687 128.095,223.022 C128.073,222.393 127.923,221.776 127.654,221.207 C127.386,220.638 127.004,220.13 126.532,219.713 C126.061,219.296 125.509,218.98 124.911,218.784 C124.314,218.588 123.682,218.515 123.055,218.571 Z" id="Path" fill="#38A1FF"></path>
            <path d="M123.056,231.851 C122.432,231.794 121.803,231.866 121.208,232.063 C120.613,232.259 120.066,232.576 119.599,232.994 C119.132,233.411 118.756,233.921 118.494,234.49 C118.233,235.059 118.091,235.676 118.078,236.302 C118.056,236.965 118.17,237.625 118.411,238.242 C118.653,238.859 119.017,239.421 119.483,239.892 C119.949,240.364 120.506,240.736 121.12,240.985 C121.734,241.234 122.393,241.356 123.056,241.342 C123.719,241.348 124.377,241.222 124.992,240.971 C125.606,240.72 126.164,240.349 126.633,239.88 C127.103,239.411 127.474,238.853 127.725,238.238 C127.976,237.624 128.102,236.966 128.095,236.302 C128.073,235.673 127.923,235.056 127.655,234.487 C127.386,233.918 127.004,233.409 126.532,232.993 C126.061,232.576 125.509,232.26 124.912,232.064 C124.314,231.868 123.682,231.795 123.056,231.851 Z" id="Path" fill="#38A1FF"></path>
            <path d="M123.055,245.104 C122.432,245.049 121.804,245.122 121.21,245.32 C120.616,245.517 120.069,245.834 119.602,246.251 C119.136,246.669 118.76,247.177 118.498,247.745 C118.235,248.314 118.093,248.93 118.078,249.555 C118.058,250.218 118.172,250.879 118.414,251.496 C118.656,252.114 119.02,252.676 119.485,253.149 C119.951,253.622 120.507,253.996 121.12,254.248 C121.734,254.5 122.392,254.625 123.055,254.616 C123.72,254.619 124.378,254.49 124.992,254.236 C125.606,253.982 126.164,253.609 126.633,253.139 C127.101,252.668 127.472,252.109 127.723,251.494 C127.974,250.879 128.101,250.22 128.095,249.555 C128.073,248.927 127.923,248.309 127.654,247.74 C127.386,247.171 127.004,246.663 126.532,246.246 C126.061,245.83 125.509,245.514 124.911,245.317 C124.314,245.121 123.682,245.048 123.055,245.104 Z" id="Path" fill="#38A1FF"></path>
            <path d="M139.827,205.305 C139.203,205.25 138.575,205.323 137.98,205.52 C137.386,205.718 136.839,206.035 136.372,206.452 C135.905,206.869 135.529,207.378 135.267,207.946 C135.005,208.514 134.862,209.131 134.847,209.757 C134.825,210.419 134.939,211.079 135.181,211.696 C135.423,212.314 135.788,212.875 136.254,213.347 C136.72,213.818 137.277,214.19 137.891,214.439 C138.505,214.688 139.164,214.81 139.827,214.796 C140.491,214.804 141.149,214.679 141.764,214.429 C142.379,214.178 142.938,213.807 143.407,213.338 C143.876,212.868 144.247,212.309 144.497,211.694 C144.748,211.079 144.872,210.42 144.864,209.757 C144.843,209.128 144.693,208.51 144.424,207.941 C144.156,207.372 143.774,206.864 143.303,206.447 C142.831,206.031 142.28,205.715 141.682,205.518 C141.085,205.322 140.453,205.25 139.827,205.305 Z" id="Path" fill="#38A1FF"></path>
            <path d="M139.827,218.571 C139.203,218.516 138.575,218.589 137.98,218.786 C137.386,218.983 136.839,219.3 136.372,219.717 C135.905,220.135 135.529,220.643 135.267,221.212 C135.005,221.78 134.862,222.396 134.847,223.022 C134.827,223.685 134.941,224.346 135.183,224.964 C135.425,225.581 135.79,226.144 136.255,226.617 C136.721,227.09 137.277,227.463 137.891,227.715 C138.505,227.967 139.163,228.092 139.827,228.083 C140.491,228.086 141.149,227.956 141.763,227.703 C142.377,227.449 142.934,227.076 143.403,226.605 C143.872,226.135 144.242,225.575 144.493,224.96 C144.744,224.345 144.87,223.686 144.864,223.022 C144.842,222.393 144.693,221.776 144.424,221.207 C144.156,220.638 143.774,220.13 143.303,219.713 C142.831,219.297 142.28,218.98 141.682,218.784 C141.085,218.588 140.453,218.515 139.827,218.571 Z" id="Path" fill="#38A1FF"></path>
            <path d="M139.827,231.85 C139.203,231.795 138.575,231.868 137.98,232.065 C137.386,232.262 136.839,232.579 136.372,232.997 C135.905,233.414 135.529,233.922 135.267,234.491 C135.005,235.059 134.862,235.676 134.847,236.301 C134.825,236.964 134.939,237.624 135.181,238.241 C135.423,238.859 135.788,239.42 136.254,239.892 C136.72,240.363 137.277,240.735 137.891,240.984 C138.505,241.233 139.164,241.355 139.827,241.341 C140.491,241.349 141.149,241.224 141.764,240.974 C142.379,240.723 142.938,240.352 143.407,239.882 C143.876,239.413 144.247,238.854 144.497,238.239 C144.748,237.624 144.872,236.965 144.864,236.301 C144.843,235.673 144.693,235.055 144.424,234.486 C144.156,233.917 143.774,233.409 143.303,232.992 C142.831,232.576 142.28,232.26 141.682,232.063 C141.085,231.867 140.453,231.794 139.827,231.85 Z" id="Path" fill="#38A1FF"></path>
            <path d="M139.826,245.104 C139.203,245.049 138.575,245.122 137.98,245.319 C137.386,245.516 136.839,245.833 136.372,246.251 C135.905,246.668 135.529,247.176 135.267,247.745 C135.004,248.313 134.862,248.929 134.847,249.555 C134.828,250.218 134.942,250.878 135.185,251.496 C135.427,252.113 135.792,252.675 136.257,253.148 C136.722,253.621 137.278,253.995 137.892,254.247 C138.505,254.499 139.163,254.625 139.826,254.616 C140.491,254.619 141.149,254.49 141.763,254.236 C142.377,253.982 142.934,253.609 143.403,253.139 C143.872,252.668 144.242,252.109 144.493,251.494 C144.744,250.878 144.87,250.22 144.864,249.555 C144.842,248.927 144.693,248.309 144.424,247.74 C144.156,247.171 143.774,246.663 143.303,246.246 C142.831,245.83 142.28,245.514 141.682,245.317 C141.085,245.121 140.453,245.048 139.826,245.104 Z" id="Path" fill="#38A1FF"></path>
            <path d="M156.608,205.306 C155.984,205.249 155.355,205.32 154.76,205.517 C154.165,205.713 153.616,206.03 153.149,206.448 C152.682,206.865 152.306,207.375 152.044,207.944 C151.782,208.514 151.641,209.131 151.628,209.758 C151.607,210.42 151.72,211.08 151.962,211.697 C152.204,212.315 152.569,212.876 153.035,213.348 C153.501,213.819 154.058,214.191 154.672,214.44 C155.287,214.69 155.945,214.811 156.608,214.797 C157.272,214.804 157.93,214.678 158.544,214.427 C159.159,214.176 159.717,213.805 160.186,213.336 C160.655,212.866 161.026,212.308 161.277,211.694 C161.528,211.079 161.654,210.421 161.648,209.758 C161.626,209.129 161.476,208.511 161.208,207.942 C160.939,207.373 160.557,206.864 160.086,206.448 C159.614,206.031 159.062,205.715 158.464,205.519 C157.866,205.323 157.235,205.25 156.608,205.306 Z" id="Path" fill="#38A1FF"></path>
            <path d="M156.608,218.571 C155.984,218.515 155.356,218.589 154.762,218.786 C154.168,218.983 153.62,219.3 153.154,219.717 C152.687,220.134 152.311,220.643 152.048,221.211 C151.786,221.78 151.643,222.396 151.629,223.022 C151.608,223.685 151.723,224.346 151.965,224.963 C152.207,225.581 152.571,226.144 153.037,226.617 C153.502,227.09 154.058,227.463 154.672,227.715 C155.286,227.967 155.945,228.092 156.608,228.083 C157.272,228.085 157.931,227.956 158.545,227.703 C159.159,227.449 159.716,227.076 160.185,226.605 C160.654,226.135 161.025,225.575 161.276,224.96 C161.527,224.345 161.653,223.686 161.648,223.022 C161.625,222.393 161.475,221.776 161.206,221.207 C160.938,220.638 160.556,220.13 160.084,219.714 C159.613,219.297 159.061,218.981 158.464,218.785 C157.866,218.588 157.235,218.515 156.608,218.571 Z" id="Path" fill="#38A1FF"></path>
            <path d="M156.608,231.851 C155.984,231.794 155.355,231.866 154.76,232.062 C154.165,232.259 153.617,232.576 153.15,232.993 C152.683,233.411 152.306,233.92 152.045,234.489 C151.783,235.059 151.641,235.676 151.628,236.302 C151.607,236.965 151.72,237.625 151.962,238.242 C152.204,238.859 152.569,239.421 153.035,239.893 C153.501,240.364 154.058,240.736 154.672,240.985 C155.287,241.234 155.945,241.356 156.608,241.342 C157.272,241.349 157.93,241.223 158.544,240.972 C159.159,240.721 159.717,240.35 160.186,239.88 C160.655,239.411 161.026,238.853 161.277,238.239 C161.528,237.624 161.654,236.966 161.648,236.302 C161.626,235.674 161.476,235.056 161.207,234.487 C160.938,233.918 160.557,233.41 160.085,232.993 C159.613,232.577 159.062,232.261 158.464,232.064 C157.866,231.868 157.235,231.795 156.608,231.851 Z" id="Path" fill="#38A1FF"></path>
            <path d="M156.608,245.104 C155.984,245.049 155.356,245.122 154.762,245.319 C154.168,245.516 153.62,245.833 153.154,246.25 C152.687,246.668 152.311,247.176 152.048,247.745 C151.786,248.313 151.643,248.929 151.628,249.555 C151.608,250.218 151.723,250.879 151.965,251.496 C152.207,252.114 152.572,252.676 153.037,253.149 C153.503,253.622 154.059,253.996 154.673,254.248 C155.286,254.5 155.945,254.625 156.608,254.616 C157.272,254.619 157.931,254.489 158.545,254.236 C159.159,253.982 159.716,253.609 160.185,253.138 C160.654,252.668 161.025,252.109 161.276,251.494 C161.527,250.878 161.653,250.22 161.648,249.555 C161.625,248.926 161.475,248.309 161.206,247.74 C160.938,247.171 160.556,246.663 160.084,246.247 C159.613,245.83 159.061,245.514 158.464,245.318 C157.866,245.121 157.235,245.049 156.608,245.104 Z" id="Path" fill="#38A1FF"></path>
            <path d="M159.487,143.022 C159.479,142.789 159.425,142.56 159.328,142.348 C159.231,142.135 159.093,141.944 158.922,141.785 C158.752,141.627 158.551,141.503 158.332,141.422 C158.114,141.341 157.881,141.303 157.648,141.312 C157.177,141.332 156.733,141.537 156.411,141.881 C156.09,142.225 155.916,142.682 155.928,143.153 C155.941,146.689 154.917,150.151 152.983,153.111 C151.048,156.071 148.288,158.398 145.044,159.805 C141.8,161.211 138.214,161.636 134.732,161.025 C131.249,160.414 128.022,158.796 125.45,156.37 C122.135,153.132 120.229,148.718 120.146,144.085 C120.062,139.452 121.807,134.973 125.002,131.617 C127.805,128.665 131.519,126.739 135.547,126.151 C139.575,125.563 143.685,126.345 147.215,128.373 C146.011,128.581 144.822,128.866 143.654,129.225 C143.18,129.279 142.746,129.518 142.447,129.889 C142.147,130.261 142.006,130.735 142.054,131.21 C142.109,131.682 142.348,132.114 142.72,132.409 C143.092,132.705 143.566,132.842 144.039,132.789 C144.496,132.834 147.208,133.205 148.49,133.315 C150.048,133.415 151.587,133.334 153.166,133.334 C153.532,133.312 153.89,133.216 154.217,133.052 C154.545,132.888 154.836,132.659 155.073,132.379 C155.31,132.099 155.487,131.773 155.594,131.422 C155.701,131.072 155.735,130.703 155.695,130.338 C155.391,127.294 154.461,124.345 152.964,121.677 C152.918,121.443 152.825,121.22 152.691,121.022 C152.557,120.824 152.385,120.655 152.184,120.525 C151.983,120.395 151.759,120.307 151.523,120.267 C151.288,120.226 151.046,120.233 150.814,120.287 C150.581,120.341 150.362,120.442 150.169,120.583 C149.976,120.724 149.813,120.903 149.691,121.108 C149.569,121.313 149.489,121.541 149.456,121.778 C149.424,122.015 149.44,122.256 149.503,122.486 C149.551,123.963 149.561,124.681 149.6,125.309 C145.314,122.367 140.129,121.029 134.954,121.527 C129.78,122.026 124.946,124.33 121.3,128.036 C119.206,130.17 117.555,132.698 116.443,135.474 C115.332,138.25 114.78,141.218 114.822,144.208 C114.863,147.198 115.496,150.15 116.685,152.894 C117.873,155.638 119.593,158.119 121.745,160.195 C136.517,174.37 160.876,163.175 159.487,143.022 Z" id="Path" fill="#38A1FF"></path>
            <path d="M59.6009,117.624 C59.4301,117.831 59.2329,118.014 59.0144,118.169 C59.0101,117.841 58.9044,117.523 58.7119,117.257 C58.5194,116.991 58.2495,116.791 57.939,116.685 C57.6286,116.579 57.2929,116.571 56.9779,116.663 C56.6628,116.754 56.3839,116.941 56.1793,117.198 C55.3764,118.238 52.454,117.643 51.1208,117.462 C45.2572,116.738 34.4662,112.803 31.6103,122.34 C31.2774,123.301 31.1596,124.323 31.2651,125.335 C25.2788,128.47 27.8684,136.683 30.9822,142.639 L32.8646,145.967 C35.4875,150.089 36.2883,151.622 37.763,152.523 C38.4033,152.932 39.1503,153.143 39.9101,153.129 C40.6698,153.115 41.4085,152.876 42.0332,152.444 C44.3826,150.883 46.366,148.832 47.8471,146.432 C49.3282,144.031 50.2719,141.339 50.6132,138.539 C50.6642,138.148 50.5588,137.752 50.32,137.439 C50.1782,137.295 50.0073,137.184 49.819,137.112 C49.6306,137.041 49.4291,137.01 49.228,137.022 C48.6277,137.077 48.025,136.95 47.4979,136.658 C46.9708,136.365 46.5438,135.922 46.2723,135.383 C45.8334,134.267 46.3638,132.605 47.7907,132.65 C48.3461,132.759 48.8842,132.944 49.3902,133.197 C49.6092,133.294 49.8481,133.337 50.0869,133.322 C50.3258,133.308 50.5579,133.237 50.7637,133.115 C50.9696,132.993 51.1433,132.823 51.2706,132.621 C51.3978,132.418 51.4748,132.188 51.4952,131.949 L51.6574,130.654 C57.5896,130.599 61.4043,124.89 62.3424,118.956 C62.3864,118.621 62.3242,118.282 62.1643,117.985 C62.0044,117.688 61.7552,117.449 61.4518,117.301 C61.1484,117.154 60.8064,117.106 60.4741,117.164 C60.1419,117.222 59.8364,117.383 59.6009,117.624 Z" id="Path" fill="#191919"></path>
            <path d="M52.9304,138.931 C52.8271,136.912 52.5361,134.906 52.061,132.941 C52.0079,132.809 51.9815,132.669 51.9834,132.527 C51.9853,132.385 52.0154,132.245 52.0719,132.115 C52.1284,131.985 52.2103,131.867 52.3127,131.769 C52.4151,131.671 52.536,131.594 52.6683,131.543 C52.9317,131.442 53.2239,131.447 53.484,131.556 C53.7441,131.665 53.9519,131.871 54.064,132.13 C55.2298,134.57 55.9302,137.206 56.1294,139.903 C56.16,140.247 56.0741,140.592 55.8855,140.881 C55.697,141.171 55.4166,141.389 55.0894,141.5 L54.1181,141.916 C53.8269,145.752 52.1691,150.028 48.5312,151.185 L48.4917,152.763 C48.5075,152.905 48.4939,153.049 48.4518,153.185 C48.4097,153.322 48.3399,153.448 48.2468,153.557 C48.1537,153.665 48.0393,153.753 47.9108,153.815 C47.7822,153.877 47.6422,153.912 47.4995,153.918 C47.3589,153.932 47.2167,153.918 47.082,153.875 C46.9472,153.832 46.8227,153.762 46.7163,153.669 C46.6099,153.576 46.5238,153.462 46.4636,153.334 C46.4033,153.206 46.37,153.067 46.3659,152.926 L45.9499,150.276 C45.922,149.968 46.0043,149.661 46.1823,149.409 C46.3603,149.156 46.6222,148.976 46.9213,148.899 C49.6648,147.984 50.9502,143.873 50.9502,140.824 C50.969,140.05 51.3434,139.408 52.9304,138.931 Z" id="Path" fill="#191919"></path>
            <path d="M106.613,176.109 C108.109,176.026 109.609,176.019 111.106,176.089 C112.565,176.148 113.963,176.697 115.073,177.647 C115.599,178.046 116.099,178.479 116.57,178.942 C116.652,179.057 116.756,179.155 116.876,179.229 C116.995,179.304 117.129,179.354 117.268,179.377 C117.407,179.399 117.55,179.394 117.687,179.361 C117.824,179.329 117.954,179.269 118.068,179.186 C118.303,179.019 118.463,178.765 118.512,178.481 C118.561,178.196 118.496,177.904 118.33,177.667 C117.902,176.809 117.38,176.001 116.772,175.259 C115.339,173.953 113.529,173.134 111.602,172.92 C109.676,172.705 107.73,173.106 106.045,174.065 C105.909,174.101 105.782,174.164 105.671,174.25 C105.56,174.336 105.468,174.444 105.4,174.567 C105.332,174.69 105.289,174.826 105.275,174.966 C105.261,175.106 105.275,175.247 105.317,175.381 C105.351,175.516 105.413,175.643 105.497,175.753 C105.582,175.863 105.688,175.955 105.809,176.023 C105.93,176.092 106.064,176.134 106.202,176.149 C106.34,176.164 106.48,176.15 106.613,176.109 Z" id="Path" fill="#191919"></path>
            <path d="M112.803,181.071 C113.042,181.279 113.573,181.799 113.735,181.961 C114.644,182.873 115.282,183.482 116.062,183.176 C116.921,182.76 117.044,180.668 115.54,179.21 C113.804,177.529 111.721,177.972 111.407,178.885 C111.264,179.468 111.518,179.9 112.803,181.071 Z" id="Path" fill="#191919"></path>
            <path d="M109.184,184.612 C109.913,184.551 110.647,184.622 111.351,184.82 C111.716,184.947 112.065,185.117 112.391,185.325 C112.556,185.553 112.803,185.706 113.081,185.752 C113.358,185.797 113.642,185.731 113.87,185.568 C114.097,185.39 114.25,185.134 114.298,184.849 C114.346,184.565 114.287,184.273 114.132,184.029 C113.869,183.373 113.443,182.794 112.895,182.348 C112.346,181.901 111.692,181.602 110.996,181.479 C109.605,181.253 108.18,181.397 106.863,181.895 C105.746,182.301 105.251,182.228 105.078,182.979 C104.718,184.574 107.545,184.703 109.184,184.612 Z" id="Path" fill="#191919"></path>
            <path d="M104.801,174.747 C104.791,174.553 104.74,174.363 104.652,174.19 C104.564,174.016 104.441,173.863 104.29,173.739 C104.14,173.615 103.966,173.524 103.778,173.472 C103.591,173.419 103.395,173.406 103.202,173.433 C93.334,174.82 93.072,174.808 85.7569,175.598 C77.4868,167.189 67.4883,156.913 55.7633,156.108 L55.6614,154.954 C55.6572,154.73 55.6031,154.51 55.5031,154.31 C55.4031,154.11 55.2597,153.935 55.0833,153.797 C54.9069,153.659 54.7021,153.563 54.4836,153.514 C54.2652,153.466 54.0387,153.467 53.8206,153.517 C46.2681,154.927 38.3059,156.277 30.7887,154.557 C30.5838,154.507 30.3709,154.499 30.1628,154.534 C29.9548,154.568 29.7559,154.645 29.5781,154.758 C29.4003,154.872 29.2473,155.02 29.1283,155.194 C29.0093,155.368 28.9267,155.565 28.8855,155.772 L28.5215,157.868 C23.4934,161.121 18.9721,165.097 15.1035,169.668 C9.4875,176.174 3.0103,186.443 1.1196,194.805 C-0.2897,200.242 0.4111,206.012 3.0811,210.954 C5.4396,215.71 8.8409,219.873 13.0318,223.132 C12.2226,219.646 11.7889,216.082 11.738,212.504 C11.6976,204.676 12.6907,196.877 14.6916,189.309 C16.0888,185.104 17.7108,180.976 19.5505,176.944 C19.5835,176.852 19.6347,176.768 19.7009,176.697 C19.7672,176.626 19.8472,176.569 19.9361,176.529 C20.025,176.49 20.1209,176.468 20.2182,176.467 C20.3155,176.465 20.4121,176.484 20.5022,176.52 C20.5923,176.557 20.674,176.612 20.7425,176.681 C20.8109,176.75 20.8647,176.832 20.9005,176.923 C20.9364,177.013 20.9535,177.11 20.951,177.207 C20.9485,177.305 20.9263,177.4 20.8859,177.489 C17.8761,185.705 15.8419,191.358 14.9953,198.316 C13.5037,206.963 13.4918,215.8 14.9599,224.451 L14.9974,224.474 C14.9974,224.543 14.9974,224.611 14.9974,224.682 C15.3759,226.762 15.4134,226.577 15.3593,226.82 C15.7273,227.802 16.3056,228.692 17.0537,229.427 C17.8017,230.162 18.7015,230.725 19.6899,231.076 C19.6449,232.449 19.7144,233.823 19.8979,235.184 C19.9296,235.42 20.0156,235.645 20.1492,235.841 C20.2827,236.038 20.4602,236.201 20.6675,236.317 C26.766,239.828 33.7215,239.021 40.7041,238.321 C47.5307,237.642 54.3697,237.281 60.7199,234.577 C61.0082,234.454 61.2498,234.242 61.4099,233.973 C61.5699,233.704 61.6401,233.391 61.6102,233.079 L61.1838,229.699 C63.592,228.668 65.7062,227.055 67.3364,225.004 C69.2701,222.504 70.5041,219.534 70.9119,216.399 C71.5797,209.24 70.6461,202.022 68.1788,195.269 C67.9313,194.609 68.5324,195.662 63.2659,190.738 C56.2646,184.149 59.7756,187.564 54.9063,182.601 C54.8304,182.539 54.7674,182.462 54.7213,182.376 C54.6751,182.289 54.6465,182.194 54.6372,182.096 C54.628,181.998 54.6381,181.899 54.6672,181.806 C54.6962,181.712 54.7436,181.624 54.8065,181.549 C54.9415,181.401 55.1294,181.311 55.3298,181.3 C55.5301,181.288 55.7269,181.356 55.8777,181.489 C59.7975,184.425 63.473,187.675 66.8684,191.204 C67.1867,191.523 67.7462,192.12 68.3702,192.81 C74.9929,197.555 80.2969,199.217 88.6606,196.606 C93.943,194.757 98.958,192.218 103.576,189.056 C103.75,188.952 103.897,188.808 104.003,188.635 C104.108,188.462 104.171,188.266 104.184,188.064 C104.796,183.653 105.003,179.196 104.801,174.747 Z M55.6219,214.827 C56.1876,213.995 56.6931,213.163 57.2193,212.356 C60.3788,207.304 59.5822,207.888 61.45,204.726 C61.6705,203.894 63.0475,204.25 62.7854,205.192 C62.5836,206.207 62.2927,207.203 61.9159,208.167 C61.1352,210.083 60.1148,211.892 58.8791,213.552 C58.192,214.333 57.4622,215.076 56.6931,215.777 C56.6291,215.85 56.5513,215.91 56.4642,215.952 C56.3771,215.995 56.2824,216.019 56.1857,216.025 C56.0889,216.03 55.992,216.017 55.9006,215.985 C55.8092,215.953 55.725,215.903 55.6531,215.838 C55.5834,215.774 55.5273,215.697 55.4879,215.612 C55.4485,215.526 55.4268,215.433 55.4239,215.339 C55.4209,215.245 55.437,215.151 55.471,215.063 C55.505,214.975 55.5563,214.895 55.6219,214.827 Z M54.846,229.832 C55.0346,229.805 55.2262,229.852 55.3814,229.962 C55.5365,230.073 55.6433,230.239 55.6796,230.426 C55.7159,230.613 55.679,230.806 55.5765,230.967 C55.474,231.127 55.3138,231.242 55.1289,231.288 C47.6536,232.952 39.9909,233.619 32.3404,233.272 C29.8257,233.229 26.9844,232.767 24.5695,232.969 C24.4731,232.988 24.3736,232.988 24.2772,232.968 C24.1807,232.948 24.0894,232.909 24.0086,232.853 C23.9278,232.796 23.8592,232.724 23.8071,232.641 C23.7549,232.557 23.7203,232.464 23.7052,232.367 C23.6902,232.269 23.695,232.17 23.7194,232.075 C23.7438,231.979 23.7874,231.89 23.8474,231.812 C23.9074,231.734 23.9826,231.669 24.0684,231.62 C24.1543,231.572 24.2491,231.542 24.347,231.531 C28.1492,230.751 44.6353,231.656 54.846,229.832 Z" id="Shape" fill="#38A1FF"></path>
            <path d="M34.0085,305.704 C34.8455,306.182 35.7182,306.594 36.6189,306.937 C38.6614,307.783 40.7746,308.447 42.9337,308.922 C43.0571,308.988 43.1924,309.029 43.3318,309.042 C43.4711,309.056 43.6117,309.041 43.7455,309 C43.8792,308.958 44.0034,308.891 44.1108,308.801 C44.2181,308.711 44.3066,308.601 44.371,308.477 C44.4419,308.352 44.4861,308.213 44.5009,308.071 C44.5156,307.928 44.5007,307.783 44.4569,307.647 C44.4131,307.51 44.3415,307.384 44.2465,307.276 C44.1516,307.168 44.0353,307.081 43.9051,307.021 C43.2503,306.476 42.555,305.982 41.8251,305.544 C40.2976,304.793 38.6879,304.223 37.0286,303.844 C36.2049,303.698 35.3693,303.628 34.5326,303.636 C34.2643,303.582 33.9853,303.633 33.7535,303.779 C33.5217,303.924 33.3547,304.154 33.2871,304.419 C33.2195,304.684 33.2564,304.965 33.3903,305.204 C33.5242,305.443 33.7448,305.621 34.0064,305.702 L34.0085,305.704 Z" id="Path" fill="#191919"></path>
            <path d="M312.071,150.079 C306.622,147.791 304.825,140.484 302.944,135.284 C302.551,134.353 304.038,133.889 304.28,134.758 C306.243,139.494 308.404,146.801 313.326,148.278 C313.483,148.349 313.624,148.453 313.739,148.582 C313.854,148.711 313.941,148.862 313.993,149.027 C314.353,150.618 315.903,155.267 316.462,156.931 C320.499,169.226 326.492,183.699 339.373,184.555 C339.57,184.567 339.754,184.653 339.89,184.796 C340.025,184.939 340.101,185.128 340.101,185.325 C340.083,185.517 339.994,185.696 339.852,185.827 C339.71,185.958 339.525,186.032 339.332,186.034 C329.988,185.751 323.902,179.264 319.661,170.896 C316.566,164.176 314.028,157.214 312.071,150.079 Z" id="Path" fill="#191919"></path>
            <path d="M306.297,132.727 C306.726,134.351 307.538,135.849 308.664,137.095 C308.773,137.261 308.94,137.38 309.133,137.429 C309.325,137.478 309.529,137.453 309.704,137.359 C309.872,137.258 309.994,137.096 310.043,136.906 C310.092,136.716 310.065,136.515 309.966,136.346 C309.644,135.183 307.718,129.69 306.466,130.133 C305.717,130.426 306.093,132.161 306.297,132.727 Z" id="Path" fill="#191919"></path>
            <path d="M310.424,131.708 C310.811,132.871 311.88,135.231 312.852,134.743 C313.476,134.431 313.268,133.804 312.953,132.396 C312.745,131.874 312.39,130.691 311.88,129.38 C311.173,128.286 311.081,127.671 310.364,127.843 C309.368,128.195 309.983,130.703 310.424,131.708 Z" id="Path" fill="#191919"></path>
            <path d="M313.677,128.445 C314.051,129.845 315.707,134.783 317.038,134.192 C317.689,133.847 317.442,133.104 316.976,131.419 C316.749,130.645 316.312,129.593 316.107,128.828 C314.967,126.205 314.717,125.319 313.881,125.57 C313.242,125.782 313.323,126.436 313.677,128.445 Z" id="Path" fill="#191919"></path>
            <path d="M319.711,136.265 C319.873,135.374 320.035,134.484 320.177,133.594 C320.385,132.44 320.703,131.306 320.965,130.133 C320.992,129.944 321.092,129.773 321.243,129.656 C321.394,129.54 321.585,129.487 321.774,129.509 C321.961,129.549 322.127,129.655 322.242,129.808 C322.357,129.961 322.412,130.15 322.398,130.341 C322.347,132.722 322.124,135.097 321.731,137.446 C321.685,137.692 321.557,137.916 321.368,138.081 C321.18,138.246 320.941,138.342 320.691,138.355 C318.353,138.392 315.553,140.579 316.662,143.193 C316.707,143.279 316.735,143.373 316.744,143.47 C316.752,143.567 316.741,143.665 316.711,143.758 C316.681,143.85 316.632,143.936 316.568,144.009 C316.505,144.083 316.427,144.142 316.339,144.185 C316.255,144.233 316.162,144.262 316.066,144.272 C315.97,144.281 315.873,144.27 315.781,144.24 C315.69,144.209 315.606,144.159 315.534,144.094 C315.463,144.029 315.406,143.949 315.368,143.861 C313.265,140.608 315.786,136.988 319.711,136.265 Z" id="Path" fill="#191919"></path>
            <path d="M321.005,141.028 C322.48,151.176 327.892,161.276 338.026,162.337 C338.221,162.367 338.421,162.317 338.58,162.2 C338.74,162.082 338.846,161.906 338.875,161.71 C338.905,161.514 338.855,161.315 338.738,161.155 C338.62,160.996 338.444,160.89 338.248,160.86 C329.329,159.157 324.634,149.516 322.44,140.743 C322.393,140.555 322.278,140.391 322.117,140.282 C321.956,140.174 321.761,140.129 321.569,140.156 C321.473,140.173 321.382,140.21 321.301,140.264 C321.22,140.318 321.151,140.388 321.098,140.47 C321.045,140.551 321.01,140.643 320.994,140.739 C320.978,140.835 320.981,140.933 321.005,141.028 Z" id="Path" fill="#191919"></path>
            <path d="M343.556,153.655 C339.167,151.409 337.547,146.305 336.9,141.431 C336.881,141.339 336.88,141.244 336.899,141.152 C336.917,141.06 336.953,140.973 337.006,140.895 C337.059,140.817 337.127,140.751 337.206,140.7 C337.285,140.649 337.373,140.615 337.466,140.599 C337.562,140.584 337.66,140.588 337.754,140.611 C337.848,140.634 337.937,140.676 338.015,140.734 C338.092,140.792 338.157,140.866 338.206,140.95 C338.255,141.034 338.286,141.127 338.298,141.223 C339.09,145.456 340.89,150.469 344.896,151.989 C345.074,152.055 345.231,152.166 345.352,152.312 C345.473,152.458 345.553,152.634 345.584,152.821 C347.456,167.87 359.416,185.049 375.193,183.503 C375.292,183.485 375.394,183.488 375.492,183.511 C375.59,183.534 375.682,183.577 375.763,183.637 C375.843,183.697 375.911,183.773 375.961,183.86 C376.011,183.948 376.043,184.044 376.054,184.144 C376.065,184.244 376.055,184.346 376.026,184.442 C375.996,184.538 375.947,184.627 375.882,184.704 C375.816,184.78 375.735,184.842 375.645,184.886 C375.554,184.93 375.456,184.955 375.355,184.959 C358.526,187.38 345.888,170.141 343.556,153.655 Z" id="Path" fill="#191919"></path>
            <path d="M340.613,138.727 C340.822,139.604 341.1,140.464 341.445,141.297 C342.086,142.383 342.508,143.207 343.207,142.897 C344.305,142.379 342.961,138.945 342.477,137.836 C342.341,137.549 341.645,136.191 340.94,136.441 C340.272,136.682 340.544,138.477 340.613,138.727 Z" id="Path" fill="#191919"></path>
            <path d="M346.972,140.188 C347.596,140.013 347.596,139.187 347.479,138.185 C347.352,137.055 346.647,134.649 345.524,134.615 C344.074,134.574 345.393,140.564 346.972,140.188 Z" id="Path" fill="#191919"></path>
            <path d="M349.314,136.112 C349.667,137.851 350.318,140.359 351.317,140.209 C352.432,140.043 351.66,136.565 351.406,135.398 C351.165,134.427 350.556,132.156 349.586,132.341 C348.617,132.634 349.154,135.326 349.314,136.112 Z" id="Path" fill="#191919"></path>
            <path d="M354.553,149.643 C358.05,157.081 364.885,164.124 372.707,166.491 C372.802,166.513 372.891,166.554 372.969,166.611 C373.048,166.668 373.114,166.74 373.165,166.822 C373.216,166.905 373.25,166.997 373.265,167.093 C373.281,167.189 373.277,167.286 373.254,167.381 C373.232,167.475 373.191,167.564 373.134,167.643 C373.077,167.721 373.005,167.788 372.923,167.839 C372.84,167.889 372.748,167.923 372.652,167.939 C372.556,167.954 372.459,167.95 372.364,167.928 C363.048,165.719 356.263,158.58 352.328,149.996 C352.252,149.826 352.223,149.639 352.244,149.453 C352.265,149.268 352.336,149.092 352.448,148.944 C353.608,147.239 354.382,145.302 354.718,143.268 C355.053,141.234 354.942,139.151 354.391,137.165 C354.35,136.975 354.381,136.776 354.478,136.607 C354.575,136.439 354.732,136.313 354.917,136.254 C355.105,136.206 355.303,136.232 355.473,136.326 C355.642,136.42 355.769,136.575 355.828,136.759 C356.613,138.861 356.906,141.116 356.685,143.349 C356.464,145.582 355.735,147.735 354.553,149.643 Z" id="Path" fill="#191919"></path>
            <path d="M354.524,133.253 C354.432,133.831 354.466,135.913 355.41,135.932 C356.242,135.946 356.716,134.268 356.716,133.436 C356.716,132.173 356.456,131.564 356.076,131.449 C355.664,131.329 354.719,132.007 354.524,133.253 Z" id="Path" fill="#191919"></path>
            <path d="M357.904,134.283 C357.732,135.3 357.63,136.328 357.6,137.359 C357.6,138.206 357.629,139.664 358.47,139.705 C359.229,139.782 359.429,138.761 359.664,137.54 C359.745,137.151 360.028007,134.905 360.028007,134.505 C360.032,130.874 358.278,132.03 357.904,134.283 Z" id="Path" fill="#191919"></path>
            <path d="M357.39,142.645 C357.495,143.061 357.652,143.462 357.856,143.839 C357.958,144.001 358.121,144.163 358.22,144.304 C358.578,144.69 359.045,144.958 359.558,145.074 C360.01,145.162 360.477,145.128 360.911,144.975 C361.345,144.822 361.73,144.555 362.027,144.203 C362.536,143.639 362.86,142.932 362.957,142.179 C363.05,142.007 363.072,141.805 363.017,141.618 C362.962,141.43 362.835,141.272 362.663,141.178 C362.492,141.084 362.29,141.063 362.102,141.118 C361.915,141.173 361.757,141.3 361.663,141.471 C361.331,141.911 360.958,142.318 360.548,142.686 C360.286,142.927 360.084,143.009 359.88,142.909 C359.685,142.828 359.506,142.711 359.354,142.563 C359.122,142.387 358.899,142.198 358.686,141.998 C358.643,141.911 358.583,141.833 358.509,141.77 C358.436,141.706 358.351,141.658 358.258,141.628 C358.166,141.597 358.068,141.586 357.972,141.594 C357.875,141.602 357.78,141.629 357.694,141.673 C357.53,141.767 357.407,141.919 357.351,142.099 C357.295,142.279 357.309,142.474 357.39,142.645 Z" id="Path" fill="#191919"></path>
            <path d="M361.521,151.601 C358.73,152.476 356.151,151.482 355.591,148.689 C355.538,148.509 355.555,148.315 355.638,148.146 C355.72,147.978 355.863,147.846 356.038,147.778 C356.221,147.715 356.42,147.727 356.594,147.81 C356.768,147.894 356.902,148.042 356.968,148.223 C357.199,148.61 357.509,148.945 357.877,149.206 C358.245,149.467 358.664,149.648 359.106,149.738009 C359.548,149.827 360.004,149.823 360.445,149.726 C360.886,149.629 361.301,149.441 361.665,149.173 C361.812,149.101 361.973,149.062 362.137,149.059 C362.301,149.056 362.463,149.09 362.612,149.158 C362.761,149.226 362.894,149.326 362.999,149.452 C363.105,149.577 363.181,149.724 363.223,149.883 L364.092,153.747 C364.157,153.93 364.146,154.131 364.063,154.305 C363.979,154.48 363.83,154.615 363.647,154.679 C363.465,154.744 363.264,154.733 363.089,154.65 C362.914,154.566 362.78,154.417 362.715,154.234 C362.273,153.377 361.875,152.498 361.521,151.601 Z" id="Path" fill="#191919"></path>
            <path d="M369.513,149.451 C369.583,149.632 369.581,149.832 369.505,150.011 C369.429,150.189 369.286,150.33 369.107,150.404 C368.924,150.461 368.727,150.447 368.554,150.365 C368.382,150.282 368.247,150.137 368.177,149.959 C367.185,147.862 366.827,147.074 365.748,144.414 C365.525,143.744 366.099,143.245 366.415,142.429 C367.26,140.855 367.208,140.349 367.913,140.122 C368.062,140.08 368.218,140.069 368.371,140.09 C368.524,140.111 368.671,140.163 368.803,140.243 C369.062,140.412 369.365,140.502 369.674,140.502 C369.983,140.502 370.285,140.412 370.544,140.243 C370.996,139.93 371.311,139.457 371.427,138.92 C371.543,138.382 371.45,137.821 371.168,137.35 C370.859,136.954 370.473,136.624 370.035,136.378 C369.943,136.342 369.859,136.286 369.789,136.216 C369.719,136.146 369.664,136.062 369.627,135.97 C369.59,135.878 369.572,135.779 369.574,135.68 C369.576,135.581 369.599,135.483 369.64,135.393 C369.681,135.303 369.74,135.222 369.813,135.155 C369.886,135.088 369.973,135.037 370.066,135.004 C370.16,134.971 370.259,134.958 370.358,134.965 C370.457,134.971 370.554,134.998 370.642,135.043 C371.359,135.242 372.004,135.643 372.5,136.197 C372.996,136.751 373.324,137.436 373.443,138.171 C373.562,138.905 373.468,139.658 373.173,140.341 C372.878,141.024 372.393,141.608 371.776,142.024 C371.351,142.329 370.864,142.539 370.35,142.637 C369.836,142.735 369.307,142.719 368.799,142.591 C368.641,142.851 368.502,143.121 368.383,143.401 C367.684,144.692 367.871,143.107 369.513,149.451 Z" id="Path" fill="#191919"></path>
            <path d="M392.445,285.613 C384.016,262.337 387.222,234.877 389.206,208.542 C389.268,207.725 388.122,207.615 387.871,208.126 C384.717,211.496 380.593,213.802 376.071,214.724 C369.937,216.025 363.585,215.886 357.513,214.319 C353.463,213.225 353.145,212.228 352.353,212.619 C351.795,212.898 351.962,213.164 351.521,214.926 C351.396,215.452 349.905,229.164 349.578,238.445 C348.954,260.166 352.81,268.557 356.194,286.349 C356.234,286.53 356.326,286.696 356.459,286.826 C356.592,286.955 356.761,287.042 356.943,287.077 C359.583,287.514 362.29,287.284 364.818,286.409 C365.052,286.34 365.253,286.19 365.386,285.987 C365.52,285.783 365.576,285.538 365.546,285.296 C362.934,267.03 361.299,249.92 365.425,231.988 C368.119,232.159 370.27,232.153 372.851,232.109 C372.697,250.621 377.279,268.093 381.587,285.981 C381.628,286.183 381.736,286.365 381.894,286.497 C382.052,286.629 382.251,286.704 382.456,286.709 C385.519,287.085 388.614,287.125 391.685,286.829 C391.823,286.815 391.956,286.77 392.073,286.696 C392.19,286.623 392.289,286.524 392.362,286.407 C392.436,286.289 392.481,286.157 392.495,286.019 C392.51,285.882 392.492,285.742 392.445,285.613 Z" id="Path" fill="#191919"></path>
            <path d="M345.83,295.012 C348.461,296.036 357.157,294.411 359.916,293.9 C361.522,293.847 363.103,293.482 364.571,292.826 C365.494,292.102 365.267,290.592 364.874,289.498 C364.772,289.155 364.61,288.81 364.51,288.527 C364.461,288.443 364.43,288.349 364.419,288.252 C364.408,288.156 364.417,288.058 364.445,287.964 C364.474,287.871 364.521,287.785 364.585,287.711 C364.648,287.637 364.726,287.577 364.814,287.535 C364.989,287.448 365.19,287.433 365.375,287.494 C365.561,287.555 365.715,287.686 365.804,287.859 C365.998,288.205 366.168,288.563 366.312,288.932 C366.807,289.761 367.02,290.729 366.918,291.689 C366.815,292.649 366.403,293.55 365.744,294.255 C364.113,295.275 362.255,295.872 360.336,295.994 C356.945,296.719 353.511,297.219 350.054,297.492 C347.46,297.594 343.902,297.673 343.19,295.164 C342.34,292.446 351.155,292.269 355.475,287.616 C356.099,286.848 357.205,287.824 356.608,288.566 C353.426,292.448 348.638,293.658 345.83,295.012 Z" id="Path" fill="#191919"></path>
            <path d="M373.689,298.793 C376.77,299.478 385.252,296.792 388.262,295.838 C389.3,295.627 390.284,295.208 391.155,294.604 C391.746,293.02 391.761,291.279 391.197,289.685 C391.161,289.592 391.145,289.493 391.149,289.394 C391.153,289.295 391.178,289.197 391.222,289.108 C391.266,289.019 391.327,288.94 391.403,288.875 C391.479,288.811 391.567,288.763 391.662,288.734 C391.85,288.68 392.052,288.701 392.225,288.791 C392.398,288.882 392.53,289.036 392.592,289.221 C393.057,290.229 393.301,291.325 393.308155,292.434 C393.315,293.544 393.085,294.643 392.634,295.657 C391.95,296.794 389.612,297.529 388.929,297.78 C386.09,298.794 383.198,299.652 380.266,300.351 C377.369,300.992 372.859,302.015 370.917,299.482 C370.748,299.23 370.679,298.924 370.724,298.624 C370.769,298.325 370.924,298.052 371.16,297.861 C371.503,297.595 371.869,297.359 372.252,297.154 C377.294,294.172 378.55,293.649 380.044,291.913 C381.093,290.668 381.773,289.155 382.007,287.545 C382.039,287.354 382.146,287.184 382.304,287.072 C382.461,286.96 382.657,286.915 382.847,286.948 C383.038,286.98 383.208,287.087 383.32,287.244 C383.432,287.402 383.477,287.597 383.444,287.788 C382.739,293.964 378.454,295.917 373.689,298.793 Z" id="Path" fill="#191919"></path>
            <path d="M367.974,126.361 C364.396,124.72 364.537,124.891 361.721,123.449 C359.787,122.227 357.659,121.344 355.427,120.839 C352.646,120.435 350.102,121.975 350.589,124.806 C350.942,126.109 351.675,127.279 352.694,128.165 C353.907,129.498 354.643,129.964 355.749,131.1 C355.835,131.197 355.946,131.27 356.069,131.31 C356.193,131.35 356.325,131.356 356.452,131.327 C356.578,131.298 356.695,131.236 356.789,131.146 C356.883,131.056 356.95,130.942 356.985,130.817 C357.222,130.008 357.51,129.215 357.848,128.443 C356.914,127.678 356.141,126.734 355.575,125.667 C354.963,124.479 353.495,122.21 352.538,123.156 C352.282,123.514 351.687,123.054 352.032,122.74 C352.156,122.529 352.339,122.361 352.56,122.256 C352.78,122.151 353.027,122.116 353.268,122.154 C355.764,122.237 356.482,126.619 359.092,128.339 C360.379,128.824 361.596,129.476 362.711,130.28 C364.79,131.787 366.708,133.503 368.437,135.401 C368.563,135.568 368.734,135.695 368.931,135.765 C369.127,135.836 369.34,135.847 369.543,135.797 C369.746,135.747 369.93,135.639 370.071,135.486 C370.213,135.333 370.307,135.141 370.341,134.935 C370.938,132.011 370.746,127.584 367.974,126.361 Z" id="Path" fill="#38A1FF"></path>
            <path d="M363.112,133.34 C363.618,133.421 363.903,134.392 363.699,135.465 C363.495,136.539 362.95,137.369 362.451,137.267 C361.952,137.165 361.663,136.254 361.864,135.162 C362.066,134.07 362.607,133.258 363.112,133.34 Z" id="Path" fill="#191919"></path>
            <path d="M361.937,132.231 C362.121,132.099 362.34,132.023 362.566,132.012 C362.792,132.001 363.017,132.056 363.212,132.17 C363.399,132.255 363.611,132.266 363.806,132.203 C364.001,132.139 364.164,132.004 364.265,131.825 C364.681,130.771 362.443,129.697 361.207,130.993 C360.448,131.798 361.29,132.518 361.937,132.231 Z" id="Path" fill="#191919"></path>
            <path d="M361.729,122.07 C362.261,121.408 362.889,120.828 363.591,120.35 C368.343,117.211 373.783,122.846 374.615,128.385 C374.916,130.486 374.402,132.623 373.177,134.356 C373.054,134.51 372.995,134.707 373.014,134.903 C373.033,135.1 373.128,135.281 373.279,135.409 C373.446,135.527 373.651,135.577 373.853,135.551 C374.055,135.525 374.24,135.424 374.371,135.267 C375.215,134.296 375.855,133.164 376.251,131.94 C376.647,130.715 376.793,129.423 376.678,128.141 C376.218,123.609 372.117,117.548 367.085,117.375 C365.744,117.363 364.425,117.717 363.27,118.398 C362.115,119.079 361.167,120.063 360.529,121.242 C360.471,121.32 360.428,121.409 360.405,121.504 C360.382,121.599 360.378,121.697 360.394,121.794 C360.409,121.89 360.444,121.982 360.496,122.065 C360.548,122.148 360.616,122.219 360.696,122.275 C360.776,122.331 360.867,122.37 360.962,122.39 C361.058,122.41 361.156,122.411 361.252,122.392 C361.348,122.373 361.439,122.335 361.52,122.281 C361.601,122.226 361.67,122.156 361.723,122.074 L361.729,122.07 Z" id="Path" fill="#38A1FF"></path>
            <path d="M342.735,188.718 C342.943,188.612 348.461,187.065 348.867,186.956 C349.014,186.914 349.169,186.906 349.321,186.932 C349.472,186.959 349.615,187.019 349.74,187.109 C349.865,187.198 349.968,187.315 350.041,187.45 C350.114,187.585 350.155,187.735 350.162,187.888 C350.717,191.261 350.737,194.701 350.223,198.08 C349.295,202.323 346.603,206.115 349.453,209.757 C351.533,212.411 355.427,213.216 358.682,214.19 C370.503,217.597 384.187,213.583 390.883,203.18 C395.199,196.244 393.395,188.023 390.781,180.3 C390.727,180.164 390.703,180.017 390.71,179.871 C390.718,179.724 390.756,179.581 390.822,179.45 C395.323,171.797 394.849,158.082 386.814,153.119 C384.094,151.729 381.027,151.167 377.991,151.501 C377.795,151.517 377.601,151.455 377.451,151.328 C377.301,151.201 377.207,151.02 377.191,150.824 C377.175,150.628 377.237,150.434 377.364,150.284 C377.491,150.134 377.672,150.04 377.868,150.024 C379.856,149.835 381.861,149.937 383.819,150.328 C395.444,152.456 398.435,169.503 392.846,180.057 C395.689,188.169 397.31,197.094 392.684,204.343 C385.472,215.617 370.867,219.974 358.056,216.284 C355.83,215.749 353.655,215.017 351.558,214.098 C349.839,213.413 348.38,212.203 347.388,210.641 C346.396,209.078 345.922,207.243 346.034,205.396 C346.437,201.51 348.53,199.189 348.53,193.92 C348.469,192.383 348.307,190.844 348.205,189.286 C345.501,190.043 342.749,190.869 340.717,191.331 C340.516,191.382 340.304,191.369 340.11,191.293 C339.917,191.217 339.753,191.082 339.641,190.907 C339.528,190.732 339.474,190.527 339.486,190.319 C339.497,190.112 339.573,189.913 339.704,189.752 C345.645,182.308 344.752,169.647 340.11,161.316 C340.04,161.23 339.993,161.127 339.976,161.018 C339.958,160.908 339.969,160.796 340.008,160.692 C340.232,160.245 340.405,160.176 343.207,159.376 C343.395,159.326 343.594,159.349 343.766,159.439 C343.938,159.529 344.07,159.68 344.137,159.862 C344.185,160.053 344.157,160.254 344.059,160.424 C343.96,160.594 343.8,160.719 343.61,160.771 C343.402,160.84 341.601,161.395 341.809,161.339 C346.129,169.214 347.284,180.766 342.735,188.718 Z" id="Path" fill="#38A1FF"></path>
            <path d="M377.826,187.071 C381.334,185.767 384.532,183.747 387.218,181.141 C387.287,181.072 387.37,181.019 387.461,180.984 C387.552,180.949 387.649,180.933 387.746,180.936 C387.844,180.94 387.939,180.964 388.027,181.005 C388.115,181.047 388.193,181.107 388.258,181.18 C388.389,181.327 388.458,181.518 388.451,181.715 C388.443,181.911 388.36,182.097 388.218,182.233 C384.555,185.713 381.273,188.593 376.337,189.559 C376.146,189.587 375.95,189.568 375.768,189.501 C375.586,189.434 375.424,189.322 375.297,189.176 C375.191,189.024 375.127,188.847 375.109,188.663 C375.091,188.479 375.121,188.293 375.195,188.123 C378.544,179.872 377.922,170.36 371.43,164.262 C371.323,164.164 371.239,164.044 371.183,163.911 C371.127,163.777 371.101,163.633 371.107,163.488 C371.112,163.344 371.15,163.202 371.216,163.073 C371.283,162.944 371.376,162.832 371.491,162.743 C374.206,160.314 376.768,157.719 379.162,154.972 C379.224,154.896 379.301,154.833 379.389,154.787 C379.476,154.741 379.572,154.713 379.67,154.705 C379.769,154.698 379.868,154.71 379.961,154.741 C380.055,154.772 380.141,154.822 380.215,154.888 C380.289,154.953 380.349,155.033 380.391,155.122 C380.433,155.212 380.457,155.308 380.461,155.407 C380.464,155.506 380.448,155.604 380.413,155.696 C380.378,155.788 380.324,155.873 380.256,155.944 C378.245,158.648 376.019,161.185 373.6,163.531 C379.811,169.946 380.624,178.913 377.826,187.071 Z" id="Path" fill="#38A1FF"></path>
        </g>
    </g>
</svg>