<?xml version="1.0" encoding="UTF-8"?>
<svg width="184px" height="152px" viewBox="0 0 184 152" version="1.1" xmlns="http://www.w3.org/2000/svg" xmlns:xlink="http://www.w3.org/1999/xlink">
    <title>Slice 1</title>
    <g id="Page-1" stroke="none" stroke-width="1" fill="none" fill-rule="evenodd">
        <g id="illustration-share">
            <rect id="Rectangle" fill="#FAE6E2" fill-rule="nonzero" x="83" y="18" width="83" height="107" rx="16"></rect>
            <path d="M34.3232,33.332 C34.3127,33.2276 34.2698,33.1292 34.2004,33.0504 C34.1311,32.9717 34.0389,32.9167 33.9367,32.8931 C33.8345,32.8695 33.7275,32.8784 33.6306,32.9188 C33.5338,32.9591 33.452,33.0287 33.3968,33.1179 C31.448,36.0939 26.2486,36.3166 25.2953,32.4056 C25.0467,31.5679 25.0633,30.6738 25.3429,29.846 C25.6226,29.0181 26.1515,28.2971 26.8572,27.7818 C27.5628,27.2665 28.4107,26.9821 29.2843,26.9678 C30.158,26.9534 31.0147,27.2097 31.7369,27.7016 C31.8071,27.7482 31.8895,27.7729 31.9738,27.7727 C32.058,27.7725 32.1403,27.7474 32.2103,27.7004 C32.2802,27.6535 32.3347,27.5869 32.3668,27.509 C32.3989,27.4311 32.4072,27.3455 32.3907,27.2629 C32.191,26.2299 31.7715,24.4788 31.3088,22.9428 C31.832,21.8868 31.7062,20.9076 30.7203,20.7099 C30.3161,18.9317 29.5462,17.2572 28.4595,15.7928 C28.4167,15.7126 28.3438,15.6526 28.2569,15.6262 C28.1699,15.5997 28.076,15.6089 27.9958,15.6517 C27.9156,15.6944 27.8557,15.7673 27.8292,15.8543 C27.8028,15.9412 27.8119,16.0351 27.8547,16.1153 C27.895,16.2113 27.9334,16.315 27.9709,16.4148 C27.669,16.4379 27.3788,16.5416 27.1306,16.715 C26.8823,16.8884 26.6852,17.1252 26.5597,17.4008 C26.4214,17.6888 26.2774,18.523 26.7353,18.5912 C27.3219,18.6872 27.1904,17.468 28.3289,17.323 C28.4585,17.6206 29.7997,20.6148 29.8544,20.73 C29.7584,20.7492 29.6624,20.7723 29.5664,20.7992 C29.432,20.2875 28.9328,19.2363 28.4806,19.412 C28.0285,19.5877 28.3241,20.588 28.6592,21.1284 C28.4029,21.2398 28.1552,21.3608 27.9382,21.4817 C27.2932,19.9833 26.5261,18.5403 25.6448,17.1675 C25.623,17.1284 25.5937,17.094 25.5586,17.0662 C25.5235,17.0385 25.4832,17.0179 25.4402,17.0057 C25.3971,16.9935 25.3521,16.9899 25.3076,16.9951 C25.2632,17.0003 25.2202,17.0142 25.1811,17.036 C25.142,17.0578 25.1076,17.0871 25.0799,17.1222 C25.0521,17.1573 25.0315,17.1975 25.0193,17.2406 C25.0071,17.2836 25.0035,17.3287 25.0087,17.3731 C25.0139,17.4176 25.0278,17.4606 25.0496,17.4996 L27.2422,22.4321 C27.2739,22.499 27.3197,22.5582 27.3764,22.6057 C27.4332,22.6533 27.4995,22.688 27.5709,22.7075 C27.6423,22.727 27.717,22.7309 27.79,22.7188 C27.8631,22.7067 27.9326,22.679 27.9939,22.6376 C28.7294,22.1456 29.5614,21.8161 30.4342,21.6709 C30.6262,21.6862 30.7059,21.6709 30.6781,21.9589 C30.5744,22.6164 30.2944,23.2335 29.8678,23.7445 C29.8029,23.8081 29.7647,23.8941 29.7611,23.985 C29.7575,24.0758 29.7889,24.1646 29.8486,24.2331 C30.1558,24.5758 30.5206,24.1237 30.7981,23.7531 C31.1245,25.124 31.3241,26.2165 31.3856,26.5371 C30.5683,26.1514 29.6633,25.9897 28.7631,26.0687 C27.8628,26.1476 26.9997,26.4643 26.2621,26.9864 C22.6217,29.5784 23.7238,36.1813 28.9069,36.3761 C30.5421,36.4249 32.1326,35.8379 33.344,34.7384 C33.1837,37.9438 31.0112,40.4072 28.1321,41.804 C28.0411,41.8462 27.9683,41.9197 27.927,42.0112 C27.8857,42.1027 27.8788,42.206 27.9075,42.3022 C28.0342,42.7025 28.9712,45.308 29.3033,46.2161 C29.3173,46.2608 29.3402,46.3023 29.3706,46.3379 C29.401,46.3735 29.4382,46.4027 29.4802,46.4235 C29.5221,46.4444 29.5678,46.4566 29.6146,46.4593 C29.6613,46.4621 29.7082,46.4554 29.7522,46.4396 C29.7963,46.4238 29.8368,46.3992 29.8711,46.3674 C29.9055,46.3356 29.9331,46.2971 29.9522,46.2544 C29.9714,46.2116 29.9817,46.1655 29.9825,46.1186 C29.9833,46.0718 29.9747,46.0253 29.9571,45.9819 C29.6691,45.0641 28.8829,42.6824 28.8051,42.4097 C32.48,40.604 34.7293,37.4235 34.3232,33.332 Z" id="Path" fill="#191919"></path>
            <path d="M30.9132,12.2308 C31.8022,10.7841 31.5727,9.4055 29.9081,8.8055 C30.2105,8.5617 30.5273,8.2929 30.8249,8.0049 C30.8945,7.9384 30.9459,7.8551 30.9741,7.763 C31.0022,7.6709 31.0063,7.5731 30.9857,7.479 C30.9652,7.3849 30.9208,7.2977 30.8568,7.2257 C30.7929,7.1537 30.7114,7.0994 30.6204,7.0679 C27.2513,5.8855 23.6476,5.5287 20.112,6.0274 C16.5763,6.5261 13.212,7.8658 10.3013,9.934 C7.3907,12.0023 5.01877,14.7387 3.38469,17.9134 C1.75061,21.0882 0.90207,24.6087 0.91034,28.1793 C0.90259,29.2843 0.98737,30.388 1.16378,31.4788 C3.48026,39.946 11.6604,45.8788 20.3427,46.5510887 C20.4279,46.5536 20.5125,46.536 20.5895,46.4994 C20.6665,46.4628 20.7336,46.4083 20.7853,46.3404 C20.8369,46.2725 20.8715,46.1933 20.8862,46.1093 C20.9008,46.0253 20.8952,45.939 20.8697,45.8577 C19.8271,42.8913 18.3075,38.4839 16.3116,33.5697 C16.2565,33.4355 16.1514,33.328 16.0185,33.2698 C15.8856,33.2116 15.7353,33.2072 15.5993,33.2577 C15.0592,33.4789 14.4908,33.6234 13.9107,33.6868 C10.6534,33.9998 10.6678,28.8523 13.2569,28.6219 C13.2569,28.6315 13.2761,28.641 13.2857,28.6507 C13.4071,28.7322 13.5545,28.7654 13.6991,28.7438 C13.8438,28.7221 13.975,28.6471 14.0671,28.5335 C16.3519,25.6967 17.7199,21.3124 16.6726,17.8247 C21.1087,18.2289 28.5785,16.0161 30.9132,12.2308 Z" id="Path" fill="#191919"></path>
            <path d="M136.007,86.617 C133.735,79.5129 130.867,69.741 123.397,69.3023 C120.03,63.4242 105.536,68.6111 109.742,77.6082 C108.142,81.029 109.606,84.843 110.708,88.393 C112.395,93.799 114.685,98.672 112.944,103.849 C113.097,104.471 113.125,105.117 113.028,105.75 C112.682,107.442 111.94,109.027 110.861,110.376 C110.383,110.94 109.85,111.455 109.269,111.912 C109.171,112.007 109.039,112.059 108.902,112.057 C108.765,112.056 108.634,112 108.538,111.902 C108.491,111.854 108.454,111.798 108.429,111.735 C108.404,111.673 108.391,111.606 108.392,111.539 C108.393,111.472 108.407,111.406 108.434,111.344 C108.461,111.283 108.499,111.227 108.547,111.18 C109.893,109.404 110.965,107.437 111.728,105.344 C110.784,105.076 109.79,105.042 108.83,105.245 C107.87,105.447 106.974,105.88 106.219,106.506 C100.684,105.745 96.602,111.868 92.935,116.189 C88.999,111.561 83.6105,106.013 78.4611,109.405 C77.7734,108.95 76.9975,108.644 76.1839,108.509 C75.3703,108.373 74.5372,108.41 73.7388,108.617 C74.3031,109.657 74.9861,110.629 75.7741,111.512 C76.1707,112.006 76.6119,112.464 77.0921,112.878 C77.2061,112.952 77.286,113.068 77.3144,113.2 C77.3427,113.333 77.3172,113.472 77.2433,113.586 C77.1695,113.7 77.0534,113.78 76.9206,113.808 C76.7879,113.836 76.6493,113.811 76.5353,113.737 C75.8861,113.411 75.2825,113 74.7401,112.517 C73.7153,111.522 72.8874,110.343 72.2998,109.042 C72.0299,108.387 71.8273,107.707 71.695,107.012 C71.6559,106.896 71.66,106.771 71.7065,106.658 C68.4425,98.969 77.3446,88.934 71.1497,80.886 C74.479,73.8556 62.72,67.3679 59.168,74.2406 C52.2224,76.3996 49.7168,84.897 48.0022,91.976 C43.8166,109.137 45.5206,131.982 62.3888,137.604 C62.1165,141.858 62.0774,146.123 62.2717,150.381 L62.2717,150.391 C62.2918,150.654 62.5059,151.098 62.7699,151.108 L91.9731,151.108 C91.9981,148.472 92.3638,129.103 92.4013,127.802 C92.4039,127.671 92.4573,127.546 92.5501,127.453 C92.643,127.36 92.7682,127.307 92.8994,127.304 C93.0306,127.302 93.1577,127.35 93.254,127.439 C93.3503,127.529 93.4084,127.652 93.416,127.783 C93.8597,135.558 93.7291,143.355 93.0253,151.111 L122.269,151.111 C122.63,151.12 122.913,151.077 122.932,150.727 C123.007,146.102 122.802,141.477 122.317,136.878 C137.154,124.969 141.728,104.451 136.007,86.617 Z M95.5213,125.977 C95.1785,126.434 94.9174,126.221 93.1213,126.368 C90.3133,126.579 90.1078,126.828 89.7344,126.368 C89.6526,126.269 89.5979,126.15 89.5757,126.023 C89.5535,125.897 89.5645289,125.767 89.6077,125.646 C90.4008,123.113 91.3495,120.633 92.4483,118.217 C92.6528,117.775 93.3747,117.576 93.5801,118.13 C94.6745,120.922 95.0096,123.357 95.6297,125.314 C95.6647,125.425 95.6731,125.544 95.6543,125.659 C95.6354,125.775 95.5899,125.885 95.5213,125.98 L95.5213,125.977 Z" id="Shape" fill="#38A1FF"></path>
            <path d="M60.5907,62.2444 C61.0517,63.076 61.3777,63.9755 61.5564,64.9094 C61.8732,66.4617 61.6323,65.7945 62.1814,69.5174 C62.1874,69.6543 62.2471,69.7833 62.3475,69.8766 C62.4479,69.9698 62.5811,70.0198 62.7181,70.0156 C62.8559,70.0074 62.9851,69.9458 63.0782,69.8437 C63.1712,69.7417 63.2208,69.6074 63.2163,69.4694 C63.4233,67.8433 63.3604,66.1943 63.0301,64.5887 C62.8266,63.4259 62.2351,62.3663 61.352,61.583 C61.3101,61.5307 61.258,61.4875 61.1988,61.4561 C61.1397,61.4246 61.0747,61.4056 61.0079,61.4001 C60.9412,61.3946 60.874,61.4028 60.8105,61.4242 C60.747,61.4456 60.6885,61.4797 60.6387,61.5244 C60.5882,61.5685 60.5469,61.6221 60.5172,61.6822 C60.4874,61.7422 60.4698,61.8076 60.4654,61.8745 C60.4609,61.9413 60.4697,62.0084 60.4912,62.0719 C60.5127,62.1354 60.5465,62.194 60.5907,62.2444 Z" id="Path" fill="#191919"></path>
            <path d="M61.2146,53.1524 C60.7768,54.4326 60.7463,55.817 61.1273,57.1153 C61.4264,58.2395 61.8728,59.3193 62.455,60.3265 C62.8539,60.9761 63.2905,61.6018 63.7625,62.2004 C63.837,62.3123 63.9521,62.3909 64.0835,62.4194 C64.215,62.4479 64.3523,62.4242 64.4665,62.3532 C64.5807,62.2821 64.6628,62.1695 64.6953,62.039 C64.7279,61.9085 64.7084,61.7705 64.6409,61.6541 C63.85,60.0581 63.1653,58.4117 62.5913,56.7255 C62.2752,55.635 62.1432,54.4994 62.2006,53.3655 C62.2217,53.2376 62.1928,53.1065 62.1199,52.9993 C62.047,52.8922 61.9357,52.8171 61.809,52.7897 C61.6823,52.7623 61.55,52.7847 61.4393,52.8522 C61.3287,52.9197 61.2482,53.0272 61.2146,53.1524 Z" id="Path" fill="#191919"></path>
            <path d="M64.1744,52.0647 C63.7554,53.3023 63.6912,54.6325 63.9891,55.9047 C64.3847,57.7491 65.2034,59.4764 66.3805,60.9505 C66.4136,61.0097 66.4581,61.0616 66.5116,61.1034 C66.565,61.1452 66.6262,61.1759 66.6916,61.1938 C66.757,61.2117 66.8253,61.2163 66.8926,61.2075 C66.9598,61.1987 67.0246,61.1766 67.0832,61.1425 C67.2019,61.0723 67.2879,60.9579 67.3226,60.8245 C67.3574,60.6911 67.3379,60.5493 67.2685,60.4302 C66.9805,59.7956 66.7318,59.1418 66.4678,58.4785 C66.0528,57.5427 65.7197,56.5726 65.4723,55.5793 C65.2303,54.4937 65.1287,53.3816 65.1699,52.2701 C65.1972,52.1381 65.1708,52.0007 65.0968,51.8881 C65.0227,51.7755 64.9069,51.6969 64.7749,51.6697 C64.6429,51.6424 64.5054,51.6687 64.3928,51.7428 C64.2802,51.8169 64.2016,51.9327 64.1744,52.0647 Z" id="Path" fill="#191919"></path>
            <path d="M66.919,51.4169 C66.6038,52.6123 66.5794,53.8658 66.8479,55.0726 C67.1897,56.8309 67.8265,58.5187 68.7314,60.0646 C68.7567,60.1276 68.794,60.1851 68.8415,60.2337 C68.8889,60.2822 68.9454,60.321 69.0078,60.3478 C69.0702,60.3745 69.1373,60.3887 69.2051,60.3895361 C69.273,60.3903 69.3404,60.3778 69.4034,60.3526 C69.4665,60.3274 69.5239,60.29 69.5725,60.2426 C69.6211,60.1951 69.6599,60.1386 69.6866,60.0762 C69.7134,60.0138 69.7276,59.9468 69.7284,59.8789 C69.7292,59.811 69.7167,59.7436 69.6914,59.6806 C69.4994,59.0172 69.3401,58.3539 69.1452,57.6895 C68.8332,56.6499 68.6134,56.0662 68.335,54.7807 C68.1168,53.7126 67.9797,52.6295 67.925,51.5407 C67.9396,51.4082 67.9014,51.2754 67.8187,51.1708 C67.736,51.0663 67.6154,50.9986 67.4831,50.9823 C67.3508,50.966 67.2175,51.0025 67.1119,51.0838 C67.0063,51.1652 66.937,51.2848 66.919,51.4169 Z" id="Path" fill="#191919"></path>
            <path d="M69.4591,51.0917 C68.719,58.8917 75.8912,61.5951 70.5334,72.301 C70.4687,72.4213 70.4545,72.5624 70.4938,72.6932 C70.5332,72.8239 70.6228,72.9338 70.7431,72.9984 C70.8634,73.0631 71.0045,73.0773 71.1353,73.038 C71.2661,72.9987 71.3759,72.909 71.4406,72.7887 C72.3746,71.3104 73.1099,69.7156 73.6275,68.0453 C75.5705,61.2293 70.4748,56.6962 70.4748,51.1407 C70.4785,51.0068 70.4308,50.8767 70.3415,50.7769 C70.2523,50.6771 70.1282,50.6152 69.9948,50.604 C69.8592,50.598 69.7267,50.6459 69.6264,50.7373 C69.526,50.8287 69.4659,50.9561 69.4591,51.0917 Z" id="Path" fill="#191919"></path>
            <path d="M109.664,51.007 C109.719,52.2028 109.577,53.3995 109.244,54.5494 C107.9,58.998 102.922,65.4934 108.483,70.1273 C108.584,70.2192 108.717,70.2673 108.854,70.2609 C108.99,70.2545 109.118,70.1942 109.21,70.0932 C109.302,69.9923 109.35,69.8589 109.344,69.7226 C109.337,69.5862 109.277,69.4579 109.176,69.366 C104.974,65.1219 109.224,59.9792 110.582,54.9209 C110.863,53.6113 110.895,52.2605 110.678,50.9388 C110.664,50.8076 110.601,50.6866 110.5,50.6015 C110.399,50.5164 110.269,50.4737 110.137,50.4826 C110.006,50.4914 109.883,50.5511 109.794,50.6489 C109.706,50.7467 109.659,50.8751 109.663,51.007 L109.664,51.007 Z" id="Path" fill="#191919"></path>
            <path d="M112.294,50.6259 C112.387,51.2114 112.449,51.8013 112.48,52.3933 C112.587,53.5494 112.515,54.7153 112.265,55.8493 C112.166,56.4319 112.022,57.006 111.835,57.5667 C111.775,57.6884 111.765,57.8293 111.808,57.9584 C111.851,58.0875 111.943,58.1942 112.065,58.255 C112.187,58.3159 112.327,58.3259 112.457,58.2829 C112.586,58.2399 112.692,58.1473 112.753,58.0256 C113.13,57.4623 113.438,56.8561 113.671,56.2198 C114.066,54.9171 114.153,53.5404 113.924,52.1984 C113.786,51.5372 113.56,50.8973 113.252,50.2957 C113.209,50.1686 113.116,50.0642 112.995,50.0053 C112.875,49.9464 112.735,49.938 112.608,49.9818 C112.481,50.0256 112.377,50.118 112.318,50.2388 C112.259,50.3596 112.251,50.4989 112.294,50.6259 Z" id="Path" fill="#191919"></path>
            <path d="M115.65,51.0647 C115.65,51.6475 115.549,52.6065 115.542,52.7044 C115.461,53.786 115.251,54.8541 114.917,55.8859 C114.77,56.4331 114.643,56.9697 114.449,57.5063 C114.391,57.6289 114.384,57.7692 114.428,57.8972 C114.473,58.0251 114.566,58.1304 114.687,58.1905 C114.809,58.2506 114.949,58.2606 115.078,58.2185 C115.206,58.1764 115.313,58.0855 115.376,57.9652 C115.723,57.465 116.026,56.9361 116.283,56.3841 C116.759,55.2297 117.001,53.9924 116.996,52.7438 C116.963,52.1158 116.845,51.4951 116.645,50.8987 C116.636,50.8314 116.614,50.7666 116.58,50.7081 C116.545,50.6496 116.5,50.5987 116.445,50.5583 C116.391,50.5179 116.328,50.4889 116.263,50.473 C116.197,50.4571 116.128,50.4547 116.061,50.4659 C115.994,50.477 115.93,50.5016 115.873,50.538 C115.816,50.5744 115.767,50.622 115.728,50.6779 C115.69,50.7338 115.663,50.7968 115.649,50.8633 C115.636,50.9298 115.636,50.9983 115.65,51.0647 Z" id="Path" fill="#191919"></path>
            <path d="M118.409,51.5022 C118.327,53.219 117.968,54.9111 117.344,56.5125 C116.487,58.7646 115.424,60.4869 116.144,63.0808 C116.171,63.2139 116.251,63.3306 116.364,63.4056 C116.477,63.4806 116.616,63.5078 116.749,63.4811 C116.882,63.4505 116.998,63.3694 117.073,63.2548 C117.148,63.1402 117.175,63.001 117.149,62.8667 C116.72,59.5067 120.221,56.8898 119.423,51.4274 C119.411,51.2938 119.347,51.1703 119.245,51.0829 C119.143,50.9955 119.011,50.9511 118.877,50.9589 C118.743,50.9697 118.619,51.0328 118.531,51.1345 C118.444,51.2361 118.4,51.3683 118.409,51.5022 Z" id="Path" fill="#191919"></path>
            <path d="M119.724,58.7942 C119.396,59.3152 119.121,59.8677 118.904,60.4435 C118.508,61.6147 118.287,62.8383 118.25,64.0742 C118.26,64.6898 118.319,65.3035 118.426,65.9097 C118.429,66.0457 118.485,66.175 118.583,66.2693 C118.681,66.3635 118.813,66.415 118.949,66.4123 C119.085,66.4096 119.214,66.3531 119.308,66.255 C119.402,66.157 119.454,66.0256 119.451,65.8896 C119.51,65.2944 119.616,64.7376 119.695,64.1818 C119.819,63.0627 120.021,61.9538 120.3,60.863 C120.369,60.5866 120.508,59.8195 120.661,59.185 C120.689,59.123 120.704,59.056 120.706,58.988 C120.708,58.92 120.696,58.8523 120.671,58.7889 C120.646,58.7256 120.609,58.6679 120.561,58.6193 C120.514,58.5707 120.457,58.5321 120.394,58.5059 C120.331,58.4797 120.264,58.4664 120.196,58.4667912 C120.128,58.4672 120.06,58.4812 119.998,58.5081 C119.935,58.535 119.879,58.5742 119.832,58.6234 C119.785,58.6725 119.748,58.7306 119.724,58.7942 Z" id="Path" fill="#191919"></path>
            <path d="M88.5373,111.342 C88.9712,111.709 89.4563,112.011 89.9773,112.239 C91.745,112.832 93.6709,112.742 95.3753,111.986 C96.085,111.66 96.748,111.24 97.346,110.738 C97.459,110.661 97.537,110.543 97.562,110.41 C97.588,110.276 97.559,110.138 97.483,110.025 C97.407,109.912 97.289,109.835 97.155,109.809 C97.021,109.783 96.883,109.812 96.77,109.888 C96.156,110.192 95.5155,110.44 94.8569,110.63 C93.6128,111.073 92.281,111.214 90.9718,111.04 C90.3236,110.957 89.6918,110.776 89.0979,110.504 C89.0432,110.465 88.9813,110.438 88.916,110.424 C88.8507,110.41 88.7832,110.41 88.7176,110.422 C88.652,110.435 88.5896,110.461 88.5342,110.498 C88.4788,110.536 88.4316,110.584 88.3952,110.64 C88.3214,110.752 88.2949,110.889 88.3215,111.02 C88.3481,111.152 88.4257,111.267 88.5373,111.342 Z" id="Path" fill="#191919"></path>
            <path d="M89.2333,97.377 C89.5961,97.755 90.0353,98.051 90.5216,98.246 C91.5541,98.579 92.6763,98.492 93.6445,98.002 C94.0957,97.736 94.4878,97.381 94.7965,96.958 C94.8917,96.86 94.9457,96.73 94.9475464,96.594 C94.9493,96.457 94.8987,96.325 94.8061,96.225 C94.7589,96.176 94.7024,96.137 94.6398,96.11 C94.5773,96.083 94.51,96.068 94.4419,96.067 C94.3737,96.067 94.3061,96.079 94.2429,96.105 C94.1797,96.13 94.1221,96.168 94.0736,96.216 C93.4375,96.593 92.7295,96.832 91.9952,96.918 C91.2499,96.927 90.5091,96.802 89.8084,96.548 C89.7544,96.509 89.693,96.481 89.628,96.466 C89.563,96.451 89.4956,96.449 89.43,96.461 C89.3643,96.473 89.3017,96.498 89.246,96.535 C89.1902,96.571 89.1425,96.619 89.1056,96.675 C89.0318,96.786 89.0039,96.921 89.0277,97.052 C89.0515,97.183 89.1252,97.3 89.2333,97.377 Z" id="Path" fill="#191919"></path>
            <path d="M64.7638,30.7848 C64.7746,30.1747 64.5997,29.5757 64.2621,29.0674 C63.9245,28.5591 63.4403,28.1655 62.8738,27.9388 C62.3073,27.7122 61.6852,27.6632 61.0902,27.7984 C60.4951,27.9336 59.9553,28.2466 59.5424,28.6958 C59.13,28.247 58.5908,27.9344 57.9964,27.7995 C57.4021,27.6645 56.7808,27.7137 56.215,27.9405 C55.6493,28.1672 55.166,28.5608 54.8294,29.0688 C54.4928,29.5769 54.3188,30.1754 54.3305,30.7848 C54.3477,31.8687 54.6327,32.9316 55.16,33.8788 C56.1827,35.4207 57.5751,36.682 59.2102,37.548 C59.2962,37.6172 59.4015,37.6582 59.5116,37.6653 C59.6218,37.6723 59.7315,37.6451 59.8256,37.5873 C60.7632,37.0313 61.6485,36.3912 62.4704,35.675 C63.18,35.0712 63.752,34.3223 64.1476,33.4787 C64.5432,32.6351 64.7534,31.7165 64.7638,30.7848 Z" id="Path" fill="#38A1FF"></path>
            <path d="M134.375,25.6573 C134.4,24.7651 134.152,23.8867 133.663,23.14 C133.174,22.3932 132.469,21.8137 131.641,21.4794 C130.814,21.1451 129.904,21.0718 129.033,21.2695 C128.163,21.4672 127.374,21.9263 126.772,22.5853 C126.16,21.904 125.354,21.4254 124.463,21.2129 C123.572,21.0004 122.638,21.0642 121.784,21.3958 C120.93,21.7274 120.197,22.311 119.683,23.0691 C119.168,23.8273 118.897,24.724 118.905,25.64 C118.907,27.0391 119.206,28.4218 119.783,29.6962 C120.36,30.9707 121.202,32.1078 122.252,33.032 C123.473,34.1329 124.797,35.1135 126.206,35.96 C126.369,36.0639 126.559,36.1192 126.752,36.1192 C126.946,36.1192 127.136,36.0639 127.299,35.96 C128.666,35.0596 129.938,34.0233 131.096,32.8669 C133.06,30.9641 134.232,28.3884 134.375,25.6573 Z" id="Path" fill="#38A1FF"></path>
            <path d="M152.298,19.0281 C152.525,19.3928 152.849,19.6868 153.235,19.8767 C153.667,20.1158 153.971,19.7193 153.703,19.3497 C152.739,18.0163 151.876,18.3657 152.298,19.0281 Z" id="Path" fill="#191919"></path>
            <path d="M159.397,18.3168 C159.781,18.0096 160.877,17.3732 160.597,16.9402 C160.18,16.2308 157.141,18.3514 157.796,19.009 C158.103,19.3402 159.008,18.5568 159.397,18.3168 Z" id="Path" fill="#191919"></path>
            <path d="M153.574,24.3655 C153.612,24.7129 153.704,25.0522 153.848,25.3706 C154.95,27.8503 157.647,26.1905 158.786,23.682 C158.831,23.6019 158.842,23.5077 158.819,23.4192 C158.795,23.3307 158.738,23.2549 158.659,23.208 C158.58,23.161 158.486,23.1466 158.397,23.1677 C158.308,23.1888 158.231,23.2438 158.181,23.321 C157.852,23.7523 157.49,24.157 157.098,24.5316 C156.377,25.2353 155.503,25.961 154.863,25.2439 C154.599,24.9415 154.391,24.5947 154.248,24.2196 C154.229,24.1302 154.175,24.0522 154.098,24.0027 C154.021,23.9532 153.928,23.9362 153.838,23.9556 C153.749,23.9749 153.671,24.029 153.621,24.1059 C153.572,24.1827 153.555,24.2761 153.574,24.3655 Z" id="Path" fill="#191919"></path>
            <path d="M161.369,19.8739 C160.828,20.4457 160.329,21.0552 159.875,21.6979 C159.831,21.7781 159.757,21.8375 159.669,21.8632 C159.581,21.8888 159.487,21.8786 159.407,21.8347 C159.327,21.7907 159.267,21.7168 159.242,21.629 C159.216,21.5412 159.226,21.4469 159.27,21.3667 C159.611,20.4374 160.166,19.6014 160.89,18.9263 C160.96,18.8309 161.051,18.7526 161.156,18.6974 C161.26,18.6423 161.376,18.6116 161.495,18.6078 C161.613,18.604 161.731,18.6272 161.839,18.6755 C161.947,18.7239 162.043,18.7962 162.119,18.887 C162.367,19.3211 162.463,19.8254 162.393,20.3203 C162.593,20.2003 163.103,19.7203 163.257,19.6175 C163.292,19.5872 163.334,19.5644 163.378,19.5504 C163.423,19.5364 163.47,19.5316 163.516,19.5361 C163.562,19.5407 163.607,19.5546 163.648,19.577 C163.689,19.5994 163.725,19.6299 163.754,19.6665 C163.811,19.7401 163.837,19.8324 163.828,19.9248 C163.819,20.0172 163.775,20.1027 163.705,20.1638 C163.407,20.5608 163.071,20.9271 162.7,21.2572 C162.22,21.5971 161.534,21.5529 161.373,21.0719 C161.345,20.6731 161.344,20.2729 161.369,19.8739 Z" id="Shape" fill="#38A1FF"></path>
            <path d="M164.612,7.3907 C164.328,6.6815 163.867,6.0561 163.275,5.5731 C162.683,5.0901 161.978,4.7652 161.226,4.6288 C157.461,3.8992 153.332,7.7066 150.987,9.5479 C149.246,10.8919 148.504,10.6039 146.937,11.3527 C143.618,12.9539 143.882,17.944 147.464,18.5527 C147.922,18.6208 148.382,18.6208 148.86,18.6698 C148.956,18.6799 149.054,18.6635 149.141,18.6222 C149.229,18.5809 149.304,18.5163 149.357,18.4355 C149.645,17.9776 148.908,18.2243 150.631,18.2666 C149.404,23.7011 151.265,23.4976 149.316,27.353 C147.604,30.7773 145.697,30.6592 144.324,32.5063 C143.333,33.6583 144.274,35.0224 145.886,34.6346 C145.453,35.9363 146.133,36.4979 147.067,36.3626 C147.276,36.3203 147.137,36.2906 147.242,36.7139 C147.453,37.3283 148.074,37.6845 149.009,37.3975 C149.878,37.0553 150.638,36.4816 151.205,35.7386 C151.566,35.9141 151.962,36.0077 152.363,36.0127 C152.764,36.0177 153.162,35.9339 153.527,35.7674 C154.989,35.1067 156.221,34.0277 157.07,32.6666 C157.166,33.0707 157.277,33.4768 157.374,33.8867 C157.394,33.977 157.448,34.0559 157.525,34.1066 C157.603,34.1572 157.697,34.1756 157.787,34.1578 C157.878,34.14 157.958,34.0873 158.01,34.0112 C158.063,33.935 158.083,33.8414 158.067,33.7504 C157.658,31.4407 157.705,31.8419 157.55,30.4807 C157.534,30.3734 157.482,30.2749 157.402,30.2019 C157.322,30.1289 157.219,30.0859 157.111,30.0803 C156.505,29.9987 155.913,29.8309 155.354,29.5821 C151.148,28.0394 150.692,22.6125 151.381,18.2541 C151.998,18.2237 152.609,18.1147 153.198,17.9296 C153.279,17.9043 153.352,17.8599 153.411,17.8001 C153.471,17.7402 153.515,17.6669 153.54,17.5862 C153.565,17.5056 153.57,17.4201 153.554,17.3371 C153.539,17.2541 153.504,17.1761 153.452,17.1098 C154.115,17.2732 154.801,17.319 155.48,17.2451 C155.474,17.2567 155.288,17.6685 155.208,17.8768 C154.98,18.4434 154.826,19.0370925 154.749,19.6432 C154.605,20.4417 154.569,21.2562 154.643,22.0643 C154.639,22.155 154.67,22.2437 154.73,22.3115 C154.791,22.3794 154.875,22.4209 154.966,22.4273 C155.056,22.4337 155.145,22.4044 155.215,22.3458 C155.284,22.2871 155.327,22.2036 155.336,22.1133 C155.424,21.6986 155.544,21.2407 155.624,20.7367 C155.673,20.4045 156.008,18.4624 156.024,18.2867 C156.054,18.0237 156.073,17.7693 156.113,17.5063 C156.131,17.4483 156.133,17.3864 156.12,17.3272 C156.106,17.268 156.077,17.2135 156.035,17.1693 C156.281,17.1264 156.526,17.0706 156.766,17.0023 C156.843,16.9818 156.914,16.9436 156.974,16.8907 C157.034,16.8379 157.08,16.7718 157.109,16.6978 C157.139,16.6238 157.15,16.5439 157.143,16.4646 C157.136,16.3852 157.111,16.3087 157.069,16.241 L157.069,16.2218 C158.845,16.734 160.71,16.8648 162.541,16.6058 C163.274,19.7892 163.612,23.051 163.546,26.3171 C163.484,28.0425 163.145,29.7466 162.541,31.3639 C162.385,31.9869 162.335,32.7472 162.892,33.0717 C163.225,33.2637 163.314,33.0506 163.107,33.3347 C162.613,34.0163 162.112,34.6989 161.613,35.3767 C161.6,35.3206 161.572,35.2689 161.533,35.2262 C161.495,35.1835 161.446,35.1511 161.391,35.1321 C161.337,35.113 161.279,35.1078 161.222,35.117 C161.165,35.1262 161.111,35.1494 161.065,35.1847 C160.192,35.753 159.223,36.1598 158.205,36.3856 C157.982,36.4082 157.757,36.3792 157.547,36.3008 C157.337,36.2224 157.147,36.0967 156.993,35.9335 C156.84,35.7703 156.725,35.5739 156.66,35.3595 C156.594,35.1451 156.578,34.9184 156.614,34.697 C156.624,34.6106 156.602,34.5233 156.551,34.4529 C156.499,34.3826 156.423,34.3343 156.338,34.3181 C156.252,34.3018 156.164,34.3188 156.09,34.3654 C156.016,34.4121 155.963,34.485 155.942,34.5693 C155.228,36.9299 157.901,38.7933 161.087,36.089 C160.629,36.5861 160.253,37.1536 159.975,37.7699 C159.501,39.2099 161.015,40.3389 162.942,39.2445 C162.969,39.4835 163.076,39.7066 163.244,39.8781 C163.511,40.0807 163.827,40.209 164.159,40.2502 C164.492,40.2913 164.829,40.2438 165.138,40.1123 C166.13,39.8029 167.036,39.2649 167.782,38.5418 C167.847,38.6317 167.923,38.7136 168.007,38.7856 C168.218,38.9372 168.457,39.0447 168.71,39.1016 C168.963,39.1585 169.225,39.1637 169.481,39.1168 C170.57,38.8326 171.527,38.177 172.185,37.2631 C174.225,34.8227 175.135,31.5539 175.552,28.4003 C175.56,28.3379 175.554,28.2744 175.532,28.2151 C175.561,28.176 175.584,28.1334 175.601,28.0883 C178.567,18.7139 171.619,7.0307 164.612,7.3907 Z" id="Path" fill="#191919"></path>
            <path d="M153.152,36.2707 C151.343,37.77 149.999,39.7542 149.277,41.9904 C149.258,42.0321 149.247,42.0773 149.244,42.1234 C149.242,42.1695 149.249,42.2156 149.265,42.2589 C149.281,42.3023 149.305,42.3421 149.336,42.376 C149.368,42.41 149.405,42.4374 149.447,42.4568 C149.489,42.4761 149.534,42.4869 149.58,42.4887 C149.626,42.4904 149.672,42.483 149.716,42.4668 C149.759,42.4507 149.799,42.4262 149.832,42.3947 C149.866,42.3631 149.893,42.3252 149.912,42.2832 C151.052,40.3778 152.297,38.5367 153.64,36.768 C153.702,36.7025 153.736,36.6155 153.735021,36.5253 C153.735021,36.435 153.699,36.3486 153.636,36.2842 C153.572,36.2197 153.487,36.1823 153.397,36.1798 C153.306,36.1773 153.219,36.2099 153.152,36.2707 Z" id="Path" fill="#191919"></path>
            <path d="M136.995,20.3819 C137.81,14.9622 140.558,10.0203 144.733,6.4694 C148.907,2.9185 154.226,0.9984 159.706,1.064 C165.186,1.1295 170.458,3.1762 174.546,6.826 C178.635,10.4757 181.264,15.4819 181.949,20.9195 C182.633,26.3571 181.327,31.8588 178.27,36.408 C175.214,40.9573 170.615,44.2467 165.322,45.6685 C160.029,47.0903 154.4,46.5484 149.476,44.143 C144.551,41.7377 140.664,37.6313 138.531,32.5825 C138.495,32.5016 138.43,32.4375 138.348,32.4029 C138.266,32.3684 138.175,32.366 138.091,32.3963 C138.012,32.4334 137.949,32.4996 137.917,32.5813 C137.884,32.663 137.884,32.7541 137.916,32.836 C140.114,38.1046 144.146,42.3985 149.267,44.9227 C154.387,47.4469 160.249,48.0305 165.766,46.5654 C171.284,45.1002 176.084,41.6857 179.278,36.9538 C182.471,32.2219 183.842,26.4931 183.137,20.8281 C182.432,15.163 179.698,9.9453 175.442,6.1409 C171.185,2.3365 165.695,0.203 159.986,0.1354 C154.278,0.0679 148.738,2.0708 144.393,5.7734 C140.048,9.476 137.191,14.6276 136.352,20.2744 C136.342,20.3578 136.364,20.4418 136.415,20.5091 C136.465,20.5763 136.539,20.6216 136.622,20.6354 C136.705,20.6493 136.79,20.6306 136.86,20.5834 C136.929,20.5362 136.978,20.464 136.995,20.3819 Z" id="Path" fill="#38A1FF"></path>
            <path d="M43.7715,34.5363 C42.2479,39.4726 38.9893,43.6907 34.5977,46.4114 C30.2061,49.1322 24.9782,50.1717 19.8798,49.3379 C14.7815,48.5041 10.1571,45.8533 6.861,41.8754 C3.56492,37.8974 1.81983,32.8609 1.94811,27.6964 C2.07638,22.5319 4.06937,17.5883 7.5589,13.7789 C11.0484,9.9695 15.7987,7.5516 20.9321,6.9719 C26.0656,6.3923 31.2354,7.69 35.4865,10.6254 C39.7377,13.5608 42.7828,17.9355 44.0595,22.9414 C44.0828,23.0294 44.1401,23.1045 44.2187,23.1502 C44.2974,23.1959 44.391,23.2085 44.479,23.1852 C44.567,23.162 44.6421,23.1047 44.6878,23.026 C44.7335,22.9473 44.7461,22.8537 44.7228,22.7657 C43.4064,17.5233 40.2352,12.9354 35.7961,9.8514 C31.3571,6.7673 25.951,5.3961 20.5787,5.9916 C15.2065,6.587 10.2319,9.1088 6.5759,13.0901 C2.92001,17.0713 0.8304,22.2423 0.69396,27.6458 C0.55752,33.0493 2.38349,38.3192 5.83383,42.4798 C9.2842,46.6405 14.1252,49.4101 19.4605,50.276 C24.7959,51.1418 30.2643,50.0452 34.8533,47.1891 C39.4424,44.3331 42.8411,39.911 44.4204,34.7417 C44.4477,34.6557 44.4396,34.5623 44.398,34.4822 C44.3565,34.4021 44.2847,34.3418 44.1987,34.3145 C44.1126,34.2873 44.0193,34.2953 43.9392,34.3369 C43.859,34.3785 43.7987,34.4502 43.7715,34.5363 Z" id="Path" fill="#38A1FF"></path>
            <path d="M33.3776,72.8723 C34.0965,75.5366 33.8407,78.37 32.6563,80.862 C31.4718,83.355 29.4365,85.343 26.9168,86.468 C25.0236,87.291 22.9431,87.588 20.8952,87.327 C18.8473,87.066 16.9079,86.256 15.282,84.984 C13.6562,83.711 12.4041,82.024 11.6582,80.099 C10.9123,78.1736 10.7001,76.0828 11.0442,74.0471 C11.3884,72.0115 12.2759,70.1066 13.6131,68.5337 C14.9504,66.9608 16.6876,65.7783 18.6413,65.1111 C20.5951,64.4439 22.6928,64.3168 24.7128,64.7432 C26.7328,65.1696 28.6001,66.1338 30.1174,67.5337 C30.186,67.5974 30.2771,67.6312 30.3706,67.6277 C30.4642,67.6241 30.5525,67.5836 30.6161,67.515 C30.6798,67.4464 30.7136,67.3553 30.7101,67.2618 C30.7066,67.1682 30.666,67.0799 30.5974,67.0163 C28.4017,64.9585 25.5345,63.7665 22.5271,63.661 C19.5197,63.5555 16.5761,64.5437 14.2416,66.4425 C11.9071,68.3414 10.34,71.0221 9.8308,73.9879 C9.3215,76.9537 9.9046,80.004 11.472,82.572 C13.0394,85.141 15.4849,87.055 18.3552,87.958 C21.2255,88.862 24.3261,88.695 27.0825,87.487 C29.8388,86.28 32.0641,84.114 33.3458,81.392 C34.6276,78.669 34.879,75.5741 34.0534,72.6803 C34.0227,72.5933 33.9606,72.5209 33.8792,72.4774 C33.7978,72.4338 33.7032,72.4223 33.6137,72.4451 C33.5276,72.4732 33.4554,72.5329 33.4116,72.6122 C33.3678,72.6915 33.3556,72.7844 33.3776,72.8723 Z" id="Path" fill="#38A1FF"></path>
            <path d="M151.616,67.6013 C153.627,65.6997 156.258,64.5897 159.024,64.4762 C161.79,64.3626 164.503,65.2531 166.664,66.9834 C168.824,68.7137 170.286,71.167 170.779,73.8906 C171.272,76.6143 170.764,79.4244 169.348,81.803 C167.932,84.181 165.703,85.966 163.073,86.83 C160.443,87.694 157.59,87.577 155.039,86.502 C152.489,85.427 150.413,83.465 149.196,80.98 C147.978,78.4939 147.701,75.6516 148.414,72.9773 C148.439,72.8867 148.427,72.7901 148.382,72.708 C148.336,72.6259 148.26,72.5648 148.17,72.5376 C148.125,72.5253 148.079,72.5221 148.032,72.5283 C147.986,72.5344 147.942,72.5499 147.901,72.5736 C147.861,72.5973 147.826,72.6289 147.799,72.6664 C147.771,72.704 147.751,72.7467 147.74,72.792 C146.968,75.5564 147.181,78.5032 148.343,81.128 C149.505,83.752 151.543,85.892 154.108,87.179 C156.673,88.466 159.606,88.821 162.405,88.184 C165.203,87.546 167.693,85.956 169.448,83.684 C171.391,81.22 172.326,78.1105 172.064,74.9837 C171.802,71.8569 170.363,68.946 168.038,66.8393 C165.712,64.7326 162.674,63.587 159.537,63.6342 C156.399,63.6814 153.397,64.9177 151.136,67.0934 C150.814,67.4179 151.278,67.9286 151.616,67.6013 Z" id="Path" fill="#38A1FF"></path>
            <path d="M136.394,27.1878 C136.506,27.5958 136.715,27.9707 137.003,28.281 C137.29,28.5912 137.648,28.8277 138.047,28.9703 C138.445,29.113 138.872,29.1576 139.291,29.1005 C139.71,29.0434 140.109,28.8862 140.455,28.6422 C142.463,27.3529 143.499,25.2438 145.482,26.6809 C145.517,26.7112 145.558,26.7341 145.603,26.7481 C145.647,26.7621 145.694,26.7669 145.741,26.7623 C145.787,26.7578 145.832,26.7439 145.873,26.7215 C145.914,26.6991 145.95,26.6686 145.979,26.632 C146.036,26.5602 146.062,26.4692 146.053,26.3782 C146.044,26.2872 146,26.2033 145.93,26.1443 C143.392,23.823 141.459,26.7827 139.898,27.7763 C139.66,27.9371 139.389,28.0431 139.105,28.0867 C138.821,28.1302 138.531,28.1102 138.255,28.0281 C137.98,27.9461 137.726,27.8039 137.512,27.612 C137.298,27.42 137.129,27.183 137.018,26.9181 C137.002,26.8754 136.977,26.8365 136.946,26.8037 C136.914,26.771 136.876,26.7451 136.834,26.7277 C136.792,26.7103 136.746,26.7018 136.701,26.7027 C136.655,26.7036 136.61,26.7138 136.569,26.7328 C136.486,26.7709 136.422,26.8398 136.389,26.9248 C136.356,27.0098 136.358,27.1042 136.394,27.1878 Z" id="Path" fill="#38A1FF"></path>
            <path d="M73.0053,55.6205 C92.9541,55.2902 106.951,54.6316 106.854,54.6345 C106.922,54.6326 106.989,54.6174 107.051,54.5896 C107.113,54.5619 107.169,54.5222 107.216,54.4728 C107.262,54.4234 107.299,54.3653 107.323,54.3018 C107.347,54.2383 107.359,54.1706 107.357215,54.1027 C107.355,54.0347 107.34,53.9678 107.312,53.9058 C107.284,53.8437 107.245,53.7877 107.195,53.741 C107.146,53.6943 107.088,53.6578 107.024,53.6335 C106.961,53.6093 106.893,53.5978 106.825,53.5996 C106.825,53.5996 103.223,53.5612 98.353,53.6294 C95.7765,53.6678 78.4322,54.264 77.2025,54.3417 C74.6258,54.4876 72.9785,54.6048 72.9785,54.6048 C72.8438,54.6083 72.716,54.6653 72.6233,54.763 C72.5306,54.8608 72.4805,54.9914 72.4839186,55.126 C72.4876,55.2607 72.5446,55.3885 72.6423,55.4812 C72.7401,55.5739 72.8707,55.624 73.0053,55.6205 Z" id="Path" fill="#191919"></path>
            <path d="M27.6396,74.4357 C29.6201,69.2229 37.3212,72.4994 38.4348,66.0712 C38.4451,66.0257 38.4463,65.9786 38.4384,65.9326 C38.4305,65.8867 38.4136,65.8427 38.3887,65.8032 C38.3637,65.7638 38.3313,65.7296 38.2932,65.7027 C38.2551,65.6758 38.212,65.6567 38.1665,65.6464 C38.121,65.6361 38.0739,65.6349 38.0279,65.6429 C37.982,65.6508 37.938,65.6677 37.8986,65.6926 C37.8591,65.7175 37.825,65.75 37.798,65.7881 C37.7711,65.8262 37.752,65.8692 37.7417,65.9147 C36.3017,71.5231 28.6793,68.1083 26.9763,74.2207 C26.9478,74.3086 26.9554,74.4043 26.9974,74.4867 C27.0394,74.5691 27.1125,74.6313 27.2004,74.6599 C27.2884,74.6884 27.3841,74.6808 27.4665,74.6387 C27.5488,74.5967 27.6111,74.5237 27.6396,74.4357 Z" id="Path" fill="#38A1FF"></path>
            <path d="M43.062,30.7843 C43.9798,29.9107 45.2921,29.1523 46.4979,29.5546 C48.2259,30.144 49.6592,32.9799 52.1484,31.6435 C52.2296,31.6009 52.2912,31.5286 52.3204,31.4417 C52.3497,31.3547 52.3442,31.2599 52.3052,31.1769 C52.2663,31.0939 52.1968,31.0291 52.1112,30.996 C52.0257,30.9629 51.9307,30.9642 51.846,30.9994 C49.9462,31.7674 48.87,29.2291 46.8195,28.5591 C46.3312,28.4128 45.8163,28.3782 45.3129,28.4576 C44.8094,28.537 44.3302,28.7285 43.9107,29.0179 C43.3787,29.3621 42.9155,29.8022 42.5446,30.3159 C42.4878,30.3852 42.4599,30.4738 42.4665,30.5632 C42.4732,30.6526 42.514,30.736 42.5805,30.7962 C42.647,30.8564 42.734,30.8887 42.8236,30.8865 C42.9133,30.8843 42.9986,30.8477 43.062,30.7843 Z" id="Path" fill="#38A1FF"></path>
            <path d="M142.719,63.5889 C147.872,64.1649 147.788,73.2187 154.792,72.1003 C154.885,72.09 154.97,72.0431 155.029,71.9699 C155.087,71.8967 155.114,71.8032 155.104,71.7101 C155.094,71.6169 155.047,71.5316 154.974,71.473 C154.901,71.4144 154.807,71.3873 154.714,71.3976 C148.319,71.8891 148.772,63.0849 142.767,62.8958 C142.676,62.892 142.588,62.9237 142.52,62.9841 C142.453,63.0444 142.412,63.1287 142.405,63.219 C142.399,63.3093 142.428,63.3985 142.487,63.4676 C142.545,63.5367 142.629,63.5802 142.719,63.5889 Z" id="Path" fill="#38A1FF"></path>
            <path d="M42.4486,67.8328 C42.4324,67.9006 42.3966,67.9621 42.3456,68.0096 C42.2946,68.0571 42.2307,68.0886 42.1619,68.0999 C42.0932,68.1113 42.0226,68.1021 41.959,68.0736 C41.8954,68.045 41.8417,67.9983 41.8045,67.9394 C41.0528,66.8469 38.5347,63.2258 38.0374,62.5029 C37.9617,62.3944 37.9307,62.2609 37.9507,62.13 C37.9707,61.9992 38.0403,61.8811 38.145,61.8002 C38.5981,61.4459 39.4256,60.8344 40.0093,60.4639 C40.067,60.4245 40.1322,60.3973 40.2007,60.3838 C40.2693,60.3703 40.3399,60.3708 40.4083,60.3853 C40.4766,60.3999 40.5413,60.4281 40.5985,60.4683 C40.6556,60.5086 40.704,60.5599 40.7408,60.6194 C41.0826,61.1666 43.6208,65.5096 44.0106,66.1634 C44.0445,66.2127 44.0673,66.2688 44.0774,66.3278 C44.0875,66.3868 44.0847,66.4473 44.0691,66.5051 C43.9731,66.7807 43.9194,66.6703 43.2493,67.1397 C42.9709,67.3571 42.7036,67.5884 42.4486,67.8328 Z M40.136,61.6351 C39.9795,61.7416 39.3258,62.2111 39.1597,62.3272 C40.6736,64.6168 40.8579,64.9663 42.1462,67.1195 C42.4208,66.8143 42.7215,66.5336 43.0448,66.2805 C41.7306,64.3327 41.4733,63.7826 40.136,61.6351 Z" id="Shape" fill="#191919"></path>
            <path d="M41.528,60.8052 C42.2753,60.111 42.7167,59.1485 42.755,58.1292 C42.7934,57.1099 42.4256,56.1171 41.7324,55.3687 C41.6797,55.2923 41.5992,55.2395 41.5081,55.2216 C41.417,55.2036 41.3225,55.222 41.2448,55.2727 C41.2061,55.297 41.1725,55.3288 41.1462,55.3661 C41.1198,55.4035 41.1011,55.4457 41.0911,55.4903 C41.0811,55.5349 41.08,55.5811 41.0879,55.6261 C41.0959,55.6711 41.1126,55.7142 41.1372,55.7527 C41.3153,56.1331 41.4496,56.5324 41.5376,56.9431 C41.7563,57.7003 41.746,58.5053 41.5078,59.2567 C41.3847,59.6391 41.2178,60.006 41.0105,60.3501 C40.9763,60.3833 40.9494,60.4233 40.9313,60.4674 C40.9133,60.5115 40.9046,60.5589 40.9058,60.6066 C40.907,60.6543 40.918,60.7011 40.9382,60.7443 C40.9584,60.7875 40.9873,60.8261 41.0231,60.8576 C41.0589,60.889 41.1008,60.9128 41.1462,60.9273 C41.1916,60.9418 41.2396,60.9467 41.287,60.9418 C41.3344,60.9369 41.3803,60.9222 41.4218,60.8987 C41.4632,60.8752 41.4994,60.8433 41.528,60.8052 Z" id="Path" fill="#191919"></path>
            <path d="M43.5478,59.8042 C43.6713,60.0374 43.7602,60.2874 43.8118,60.5462 C43.9087,60.8929 43.9079,61.2595 43.8097,61.6057 C43.7114,61.952 43.5195,62.2644 43.255,62.5085 C43.1826,62.5467 43.1283,62.6121 43.1041,62.6903 C43.0799,62.7685 43.0877,62.8532 43.1259,62.9256 C43.1641,62.998 43.2295,63.0523 43.3077,63.0765 C43.386,63.1008 43.4706,63.0929 43.543,63.0547 C44.9561,62.6362 45.2643,60.3667 43.9923,59.3942 C43.938,59.3353 43.8624,59.3004 43.7823,59.2971 C43.7022,59.2939 43.6241,59.3226 43.5651,59.377 C43.5062,59.4313 43.4712,59.5069 43.468,59.587 C43.4648,59.6671 43.4935,59.7452 43.5478,59.8042 Z" id="Path" fill="#191919"></path>
            <path d="M44.48,58.1549 C44.576,58.1107 44.9446,57.9754 45.0848,57.8919 C45.2585,57.7911 45.9421,57.3495 46.1494,57.1786 C46.3241,57.0393 46.4902,56.8896 46.6467,56.7303 C46.7238,56.6827 46.7796,56.6072 46.8025,56.5195 C46.8254,56.4318 46.8137,56.3386 46.7697,56.2594 C46.7257,56.1802 46.6528,56.1209 46.5663,56.094 C46.4797,56.0671 46.3861,56.0746 46.3049,56.1149 C46.0803,56.1831 45.8662,56.2416 45.6416,56.3299 C45.2303,56.5359 44.8438,56.7881 44.4896,57.0816 C44.3181,57.2409 44.1675,57.4212 44.0413,57.6183 C43.6832,57.9063 44.1257,58.4602 44.48,58.1549 Z" id="Path" fill="#191919"></path>
            <path d="M45.5974,59.8042 C45.751,59.7207 46.0937,59.5949 46.2319,59.5114 C46.4633,59.3847 47.2524,58.8768 47.3743,58.7895 C47.5663,58.6426 47.7257,58.4775 47.911,58.3402 C47.9902,58.2959 48.0494,58.2229 48.0764,58.1362 C48.1033,58.0495 48.096,57.9557 48.0558,57.8743 C48.0157,57.7929 47.9458,57.73 47.8606,57.6986 C47.7754,57.6672 47.6814,57.6697 47.598,57.7056 C47.3555,57.7592 47.1173,57.8311 46.8857,57.9207 C46.4402,58.1255 46.0235,58.3879 45.6463,58.7012 C45.5167,58.8317 45.6127,58.6791 45.1587,59.258 C45.0883,59.3188 45.0441,59.4043 45.035,59.4968 C45.0258,59.5894 45.0526,59.6819 45.1097,59.7553 C45.1686,59.8253 45.2525,59.8697 45.3436,59.8788 C45.4347,59.8879 45.5257,59.8612 45.5974,59.8042 Z" id="Path" fill="#191919"></path>
            <path d="M46.3693,61.5392 C46.573,61.4822 46.7723,61.4103 46.9655,61.3242 C47.3247,61.1234 47.6701,60.8989 47.9994,60.6522 C48.1642,60.5151 48.3177,60.3648 48.4583,60.2029 C48.4998,60.1805 48.5364,60.1498 48.5657,60.1128 C48.595,60.0758 48.6165,60.0332 48.6289,59.9876 C48.6413,59.9421 48.6443,59.8945 48.6377,59.8477 C48.6311,59.8009 48.6151,59.756 48.5906,59.7156 C48.5661,59.6753 48.5336,59.6403 48.4952,59.6128 C48.4568,59.5854 48.4132,59.566 48.3671,59.5559 C48.321,59.5458 48.2733,59.5452 48.2269,59.5541 C48.1805,59.563 48.1364,59.5812 48.0973,59.6077 C47.8823,59.6759 47.6874,59.7152 47.482,59.7997 C47.1041,59.9981 46.7449,60.2301 46.4087,60.4928 C46.2478,60.6388 46.1009,60.7995 45.97,60.9728 C45.8945,61.0268 45.8431,61.108 45.8266,61.1992 C45.8101,61.2905 45.8299,61.3846 45.8816,61.4615 C45.9082,61.499 45.9421,61.5308 45.9811,61.5551 C46.0202,61.5794 46.0637,61.5956 46.1091,61.6029 C46.1546,61.6101 46.201,61.6082 46.2456,61.5973 C46.2903,61.5863 46.3324,61.5666 46.3693,61.5392 Z" id="Path" fill="#191919"></path>
            <path d="M44.48,65.8092 C44.9582,65.6308 45.419,65.4087 45.8566,65.1459 C46.6989,64.5812 47.4663,63.9122 48.1404,63.1548 C48.4611,62.7618 48.7546,62.3474 49.0188,61.9145 C49.077,61.8394 49.103,61.7442 49.091,61.65 C49.079,61.5557 49.0301,61.4701 48.955,61.4119 C48.8799,61.3538 48.7848,61.3278 48.6905,61.3398 C48.5963,61.3517 48.5106,61.4007 48.4524,61.4758 C48.1404,61.8175 47.7804,62.1295 47.4176,62.4617 C46.7438,63.126 46.0301,63.7486 45.2806,64.326 C45.0329,64.4988 44.4252,65.0095 44.1478,65.2044 C43.7494,65.3926 44.0758,66.0348 44.48,65.8092 Z" id="Path" fill="#191919"></path>
            <path d="M132.403,49.3991 C131.378,49.5609 130.396,49.9238 129.512,50.467 C128.629,51.0101 127.861,51.7228 127.255,52.5639 C126.648,53.405 126.213,54.3578 125.976,55.3676 C125.74,56.3773 125.705,57.4239 125.874,58.4471 C126.037,59.4916 126.405,60.4935 126.958,61.3942 C127.511,62.295 128.238,63.0767 129.096,63.6939 C129.954,64.311 130.927,64.7512 131.957,64.9889 C132.987,65.2266 134.053,65.257 135.095,65.0783 C136.137,64.8996 137.133,64.5154 138.025,63.9481 C138.917,63.3807 139.687,62.6416 140.29,61.7738 C140.894,60.9059 141.318,59.9267 141.54,58.8931 C141.761,57.8595 141.774,56.7922 141.579,55.7534 C141.396,54.7324 141.014,53.7575 140.453,52.8849 C139.892,52.0123 139.164,51.2591 138.312,50.6687 C137.459,50.0782 136.498,49.662 135.484,49.4442 C134.47,49.2263 133.423,49.211 132.403,49.3991 Z M132.52,50.0826 C134.364,49.7995 136.245,50.2544 137.756,51.3488 C139.267,52.4431 140.285,54.0887 140.591,55.9291 C140.881,57.7419 140.445,59.5959 139.376,61.0886 C138.307,62.5814 136.693,63.5924 134.883,63.9021 C133.074,64.2118 131.215,63.7952 129.711,62.7428 C128.207,61.6904 127.178,60.0871 126.849,58.2811 C126.525,56.4444 126.939,54.5541 128.001,53.0208 C129.063,51.4875 130.686,50.4351 132.52,50.0922 L132.52,50.0826 Z" id="Shape" fill="#191919"></path>
            <path d="M129.551,53.4151 C129.432,53.4324 129.319,53.4789 129.222,53.5504 C129.125,53.6219 129.047,53.7162 128.995,53.825 C128.826,54.1628 128.759,54.543 128.803,54.9184 C129.108,56.9152 131.163,56.5639 130.766,54.5767 C130.692,54.2084 130.504,53.8726 130.229,53.6167 C130.142,53.5287 130.035,53.4642 129.916,53.4289 C129.798,53.3937 129.672,53.3889 129.551,53.4151 Z M129.717,54.3511 C129.719,54.4812 129.739,54.6104 129.776,54.7351 C129.77,54.6057 129.75,54.4774 129.717,54.352 L129.717,54.3511 Z" id="Shape" fill="#191919"></path>
            <path d="M135.938,52.3191 C135.817,52.3382 135.702,52.3863 135.603,52.4594 C135.505,52.5324 135.425,52.6282 135.372,52.7386 C135.206,53.0744 135.14,53.4503 135.18,53.8225 C135.484,55.826 137.539,55.4689 137.151,53.4807 C137.067,53.1178 136.877,52.7883 136.604,52.5341 C136.522,52.4447 136.417,52.3787 136.3,52.3426 C136.184,52.3066 136.06,52.3018 135.941,52.3287 L135.938,52.3191 Z M136.091,53.2541 C136.098,53.3838 136.117,53.5124 136.149,53.6381 C136.147,53.5089 136.128,53.3806 136.094,53.2561 L136.091,53.2541 Z" id="Shape" fill="#191919"></path>
            <path d="M133.635,56.6088 C134.445,56.4619 135.267,57.2328 135.451,58.3166 C135.582,58.7618 135.537,59.2407 135.324,59.6535 C135.112,60.0662 134.748,60.381 134.309,60.5323 C133.499,60.6686 132.689,59.9073 132.503,58.8244 C132.371,58.3804 132.415,57.9025 132.625,57.4899 C132.836,57.0773 133.198,56.7618 133.635,56.6088 Z" id="Path" fill="#38A1FF"></path>
            <path d="M132.013,58.9065 C132.213,60.1545 133.187,61.2575 134.394,61.0444 C134.679,60.9616 134.945,60.8234 135.177,60.6377 C135.408,60.452 135.601,60.2225 135.743,59.9623 C135.886,59.7021 135.976,59.4163 136.008,59.1213 C136.04,58.8264 136.014,58.5279 135.93,58.2431 C135.273,55.2172 131.638,55.7807 132.013,58.9065 Z M133.692,56.9548 C134.339,56.878 134.855,57.6806 134.961,58.3948 C135.057,59.0361 134.824,59.9529 134.219,60.0153 C133.61,60.141 133.099,59.3596 132.989,58.7462 C132.817,58.0483 133.056,57.1084 133.692,56.9548 Z" id="Shape" fill="#191919"></path>
            <path d="M161.978,68.863 C165.186,69.512 164.191,76.255 161.295,76.735 C159.812,76.9894 158.869,75.5773 158.767,74.0902 C158.661,71.8899 159.599,69.5552 161.636,68.8189 C161.692,68.7947 161.753,68.786 161.813,68.7938 C161.874,68.8016 161.931,68.8255 161.978,68.863 Z M161.744,69.5168 C159.167,70.8608 159.273,76.0304 161.119,75.7145 C162.936,75.4045 163.999,70.1139 161.783,69.5369 C161.773,69.5273 161.754,69.5273 161.744,69.5168 Z" id="Shape" fill="#191919"></path>
            <path d="M153.366,84.148 C154.71,80.157 161.027,77.9209 164.736,79.5903 C166.128,80.247 167.223,81.404 167.802,82.83 C167.836,82.917 167.903,82.988 167.989,83.026 C168.074,83.064 168.171,83.068 168.259,83.036 C168.343,82.998 168.41,82.929 168.445,82.844 C168.481,82.759 168.483,82.664 168.451,82.577 C167.908,80.896 166.722,79.4987 165.152,78.6889 C160.844,76.7228 153.927,79.1689 152.698,83.95 C152.674,84.038 152.685,84.132 152.728,84.212 C152.772,84.292 152.845,84.352 152.932,84.38 C152.976,84.393 153.022,84.398 153.067,84.394 C153.113,84.39 153.157,84.376 153.197,84.355 C153.238,84.333 153.273,84.304 153.302,84.268 C153.331,84.233 153.353,84.192 153.366,84.148 Z" id="Path" fill="#191919"></path>
            <path d="M17.9657,71.114 C18.4445,71.1022 18.9184,71.2136 19.3418,71.4375 C19.7653,71.6614 20.1241,71.9903 20.3839,72.3927 C24.8066,77.9607 20.3484,82.313 17.4655,78.0241 C15.9689,75.8429 15.1212,72.1623 17.5433,71.0353 C17.6121,70.9981 17.6915,70.9856 17.7684,70.9999 C17.8453,71.0143 17.9149,71.0545 17.9657,71.114 Z M17.7602,71.7092 C16.6255,72.434 16.8002,73.993 17.2428,75.2717 C17.6042,76.5118 18.3079,77.6248 19.2732,78.4829 C20.5078,79.3316 21.9612,78.0144 20.7862,74.9396 C20.3941,73.7936 19.6991,72.7752 18.775,71.9924 C18.1663,71.6324 17.9974,71.9453 17.7602,71.7092 Z" id="Shape" fill="#191919"></path>
            <path d="M17.7171,85.357 C19.4345,80.813 26.0604,79.9017 28.7273,83.445 C28.7841,83.517 28.8657,83.565 28.956,83.579 C29.0463,83.593 29.1388,83.573 29.215,83.523 C29.2901,83.471 29.3415,83.391 29.3579,83.301 C29.3742,83.211 29.3543,83.118 29.3024,83.043 C26.287,78.3599 18.4467,79.847 17.0633,85.155 C16.9222,85.576 17.6067,85.779 17.7171,85.357 Z" id="Path" fill="#191919"></path>
            <path d="M92.9542,27.3784 C92.8921,27.8177 92.8661,28.2615 92.8765,28.7051 C92.9345,29.5858 93.0782,30.4587 93.3056,31.3115 C93.4323,31.731 93.5984,32.1313 93.7645,32.5412 C93.7757,32.5864 93.7957,32.6288 93.8235,32.6661 C93.8513,32.7034 93.8862,32.7347 93.9263,32.7583 C93.9663,32.7819 94.0107,32.7973 94.0568,32.8035 C94.1028,32.8098 94.1497,32.8068 94.1946,32.7947 C94.2829,32.7687 94.3577,32.7094 94.4032,32.6294 C94.4487,32.5493 94.4613,32.4547 94.4384,32.3656 C94.3798,32.0238 94.3597,31.682 94.3011,31.3403 C93.7482,27.7969 93.6858,27.6923 93.6378,27.3582 C93.6351,27.2676 93.5965,27.1817 93.5305,27.1195 C93.4646,27.0573 93.3766,27.0238 93.2859,27.0265 C93.1953,27.0292 93.1094,27.0678 93.0472,27.1337 C92.985,27.1997 92.9516,27.2877 92.9542,27.3784 Z" id="Path" fill="#191919"></path>
            <path d="M93.824,35.5664 C94.2476,36.0489 94.8063,36.393 95.4278,36.5542 C96.049,36.7155 96.705,36.6864 97.31,36.4707 C97.914,36.255 98.44,35.8627 98.819,35.3446 C99.199,34.8265 99.413,34.2065 99.436,33.5648 C99.444,33.4755 99.416,33.3868 99.36,33.3169 C99.304,33.247 99.224,33.2012 99.135,33.1889 C99.046,33.1766 98.956,33.1987 98.883,33.2508 C98.81,33.3029 98.76,33.3809 98.743,33.4688 C98.644,33.9253 98.432,34.3492 98.124,34.7009 C97.817,35.0525 97.425,35.3203 96.986,35.4791 C96.527,35.6008 96.047,35.6246 95.5783,35.549 C95.1093,35.4734 94.6614,35.3001 94.2637,35.0404 C94.1919,34.9833 94.1006,34.9565 94.0094,34.9657 C93.9182,34.9748 93.8341,35.0192 93.775,35.0893 C93.7187,35.1592 93.6922,35.2486 93.7014,35.3379 C93.7105,35.4273 93.7546,35.5094 93.824,35.5664 Z" id="Path" fill="#191919"></path>
            <path d="M74.3676,43.724 C74.506,44.0576 74.6727,44.3788 74.8659,44.684 C75.2675,45.2681 75.7147,45.8195 76.2032,46.3332 C76.4566,46.5867 76.7398,46.7921 77.0134,47.0264 C77.0449,47.0596 77.0827,47.0864 77.1245,47.1051 C77.1664,47.1238 77.2115,47.134 77.2573,47.1353 C77.3032,47.1365 77.3488,47.1287 77.3916,47.1123 C77.4344,47.096 77.4736,47.0713 77.5068,47.0398 C77.5401,47.0083 77.5669,46.9705 77.5856,46.9287 C77.6043,46.8868 77.6145,46.8417 77.6158,46.7959 C77.617,46.75 77.6092,46.7044 77.5928,46.6616 C77.5765,46.6188 77.5518,46.5796 77.5203,46.5464 C77.3283,46.2584 77.1497,45.9598 76.9443,45.6776 C76.3466,44.8375 75.6737,44.0534 74.934,43.3352 C74.9092,43.2964 74.8768,43.263 74.8388,43.2369 C74.8008,43.2109 74.758,43.1928 74.7128,43.1836 C74.6677,43.1745 74.6212,43.1745 74.576,43.1837 C74.5309,43.1929 74.4881,43.211 74.4501,43.2371 C74.4121,43.2632 74.3798,43.2966 74.355,43.3354 C74.3302,43.3742 74.3134,43.4176 74.3057,43.4631 C74.298,43.5085 74.2996,43.555 74.3102,43.5998 C74.3208,43.6446 74.3404,43.6868 74.3676,43.724 Z" id="Path" fill="#191919"></path>
            <path d="M76.2262,42.1714 C76.6962,43.281 77.4341,44.2566 78.3737,45.0111 C78.4327,45.0811 78.5167,45.1252 78.6078,45.1341 C78.6988,45.143 78.7898,45.1158 78.8611,45.0585 C78.9325,45.0012 78.9786,44.9183 78.9896,44.8274 C79.0006,44.7366 78.9756,44.645 78.9199,44.5723 C78.5174,43.789 78.0157,43.0608 77.4271,42.4056 C76.8646,41.8421 76.8511,41.8383 76.8022,41.7903 C76.75,41.7178 76.6718,41.6683 76.584,41.6522 C76.4961,41.636 76.4054,41.6546 76.3309,41.7039 C76.2564,41.7532 76.2039,41.8294 76.1844,41.9165 C76.1649,42.0037 76.1798,42.095 76.2262,42.1714 Z" id="Path" fill="#191919"></path>
            <path d="M74.7593,33.0773 C75.6145,35.4421 76.84,37.6559 78.3901,39.6361 C78.4375,39.7158 78.5136,39.7745 78.6028,39.8 C78.692,39.8255 78.7876,39.816 78.8701,39.7733 C78.95,39.7261 79.0082,39.6492 79.0321,39.5595 C79.056,39.4697 79.0437,39.3741 78.9977,39.2933 C77.8592,36.8636 76.1821,34.3609 75.3958,32.8229 C75.3621,32.7385 75.2962,32.671 75.2127,32.6352 C75.1291,32.5993 75.0348,32.5982 74.9504,32.6319 C74.866,32.6656 74.7984,32.7315 74.7626,32.8151 C74.7268,32.8986 74.7256,32.9929 74.7593,33.0773 Z" id="Path" fill="#191919"></path>
            <path d="M79.015,30.7901 C78.9782,31.7786 79.08,32.7674 79.3174,33.7277 C79.6202,35.1484 80.0448,36.5404 80.5866,37.8883 C80.6098,37.9763 80.6671,38.0514 80.7458,38.0971 C80.8245,38.1428 80.9181,38.1554 81.0061,38.1321 C81.094,38.1088 81.1691,38.0516 81.2149,37.9729 C81.2606,37.8942 81.2732,37.8006 81.2499,37.7126 C80.7642,34.7366 80.1353,33.2006 79.6985,30.744 C79.697,30.6981 79.6862,30.6529 79.6668,30.6112 C79.6474,30.5696 79.6198,30.5322 79.5857,30.5014 C79.5516,30.4707 79.5117,30.447 79.4683,30.432 C79.4248,30.4169 79.3788,30.4108 79.333,30.4139 C79.2871,30.417 79.2424,30.4292 79.2014,30.45 C79.1604,30.4707 79.1239,30.4995 79.0943,30.5346 C79.0646,30.5697 79.0423,30.6104 79.0287,30.6543 C79.0151,30.6982 79.0104,30.7443 79.015,30.7901 Z" id="Path" fill="#191919"></path>
            <path d="M79.6246,41.7283 C80.3172,40.9963 81.1722,40.4373 82.1206,40.0963 C84.3804,39.4742 84.9555,42.5443 85.088,44.8886 C85.1509,47.3559 85.3922,49.8155 85.8099,52.248 C85.815,52.2935 85.829,52.3376 85.8511,52.3777 C85.8733,52.4177 85.9031,52.4531 85.9389,52.4817 C85.9747,52.5102 86.0157,52.5315 86.0597,52.5442 C86.1037,52.5569 86.1498,52.5608 86.1953,52.5557 C86.2408,52.5506 86.2849,52.5365 86.325,52.5144 C86.3651,52.4923 86.4004,52.4625 86.429,52.4267 C86.4576,52.3909 86.4788,52.3498 86.4915,52.3058 C86.5042,52.2618 86.5081,52.2157 86.503,52.1702 C86.4147,50.9894 86.3273,49.8077 86.2591,48.6269 C86.1065,46.1817 86.3043,42.359 84.9708,40.3113 C84.6719,39.783 84.1921,39.3804 83.6199,39.1777 C83.0477,38.975 82.4215,38.9859 81.8566,39.2083 C80.7914,39.6287 79.858,40.3264 79.1532,41.2291 C79.119,41.2595 79.0912,41.2964 79.0714,41.3377 C79.0517,41.379 79.0405,41.4238 79.0384,41.4695 C79.0364,41.5152 79.0435,41.5609 79.0594,41.6038 C79.0753,41.6467 79.0997,41.686 79.1311,41.7193 C79.1625,41.7526 79.2002,41.7793 79.2421,41.7977 C79.284,41.8161 79.3291,41.826 79.3749,41.8267 C79.4207,41.8273 79.4661,41.8188 79.5085,41.8016 C79.5509,41.7843 79.5894,41.7588 79.6217,41.7264 L79.6246,41.7283 Z" id="Path" fill="#191919"></path>
            <path d="M82.5315,41.6469 C79.9107,42.9266 79.4317,46.8021 82.1994,48.1567 C82.2794,48.2014 82.3736,48.2135 82.4623,48.1903 C82.551,48.1672 82.6273,48.1106 82.6753,48.0325 C82.7233,47.9544 82.7392,47.8608 82.7198,47.7712 C82.7003,47.6816 82.647,47.603 82.5709,47.5519 C82.1624,47.2481 81.839,46.8442 81.632,46.3791 C81.425,45.914 81.3414,45.4034 81.3891,44.8965 C81.5391,43.8494 82.0796,42.8977 82.9021,42.2325 C82.9779,42.1825 83.031,42.1048 83.0501,42.0161 C83.0691,41.9273 83.0526,41.8346 83.0041,41.7579 C82.9556,41.6812 82.8789,41.6266 82.7905,41.6059 C82.7021,41.5851 82.6091,41.5998 82.5315,41.6469 Z" id="Path" fill="#191919"></path>
            <path d="M80.9158,50.5209 C79.374,50.4114 78.4908,49.3526 77.8515,47.973 C77.829,47.934 77.8145,47.8908 77.8087,47.8461 C77.803,47.8015 77.806,47.7561 77.8178,47.7126 C77.8296,47.669 77.8498,47.6283 77.8773,47.5926 C77.9048,47.5569 77.9391,47.527 77.9782,47.5046 C78.0173,47.4821 78.0604,47.4676 78.1051,47.4618 C78.1498,47.456 78.1952,47.4591 78.2387,47.4709 C78.2822,47.4827 78.3229,47.5029 78.3586,47.5304 C78.3943,47.5579 78.4242,47.5922 78.4467,47.6313 C78.7155,48.0139 79.0231,48.3677 79.3644,48.6873 C79.6104,48.9598 79.9142,49.1739 80.2535,49.3141 C80.5928,49.4543 80.9591,49.517 81.3257,49.4975 C81.4573,49.4841 81.589,49.5224 81.6929,49.6043 C81.7968,49.6861 81.8648,49.8052 81.8825,49.9362 C81.9315,50.5122 82.0092,51.0786 82.0582,51.6354 C82.1072,52.2114 82.1264,52.7673 82.1753,53.3433 C82.1909,53.4352 82.1692,53.5295 82.1152,53.6055 C82.0612,53.6815 81.9792,53.7329 81.8873,53.7484 C81.7954,53.7639 81.7011,53.7423 81.6251,53.6883 C81.5491,53.6343 81.4977,53.5523 81.4822,53.4604 C81.2227,52.4955 81.0334,51.5131 80.9158,50.5209 Z" id="Path" fill="#191919"></path>
            <path d="M100.609,39.5017 C100.033,38.6598 97.368,42.5987 93.6972,39.6467 C91.9419,37.9939 90.6814,35.8851 90.0569,33.5564 C90.0447,33.5097 90.0229,33.4661 89.9928,33.4284 C89.9627,33.3907 89.925,33.3598 89.8822,33.3375 C88.8531,29.9641 88.7811,29.1136 88.5036,28.2265 C88.4705,28.1173 88.4015,28.0225 88.3079,27.9573 C88.2143,27.8921 88.1015,27.8603 87.9876,27.8671 C87.8737,27.8739 87.7654,27.9188 87.6802,27.9946 C87.5949,28.0704 87.5377,28.1728 87.5177,28.2851 C87.1281,30.9093 86.926,33.5579 86.9129,36.2108 C86.6864,38.6538 86.6114,41.1084 86.6883,43.5606 C86.8803,45.9606 88.2838,48.3174 90.6895,48.0111 C90.7575,48.0053 90.8235,47.9853 90.8833,47.9525 C90.9431,47.9196 90.9954,47.8746 91.0368,47.8204 C91.0782,47.7662 91.1078,47.7039 91.1237,47.6375 C91.1396,47.5712 91.1415,47.5023 91.1292,47.4352 C91.0947,47.2432 91.0515,47.0636 91.0332,46.8687 C91.8268,47.335 92.7395,47.5589 93.6588,47.5129 C93.7219,47.5081 93.7833,47.4899 93.8389,47.4596 C93.8945,47.4293 93.9431,47.3876 93.9814,47.3372 C94.999,46.0748 97.282,45.1743 99.175,44.3516 C99.273,44.3115 99.352,44.2361 99.398,44.1403 C99.443,44.0445 99.45,43.9353 99.419,43.8342 C99.238,43.0959 98.859,41.87 98.651,41.1798 C99.359,40.9226 100.003,40.5167 100.541,39.9894 C100.61,39.9302 100.654,39.8481 100.667,39.7584 C100.679,39.6687 100.659,39.5774 100.609,39.5017 Z" id="Path" fill="#191919"></path>
            <path d="M98.871,28.6095 C98.735,27.326 97.697,27.0735 97.065,27.7014 C96.846,27.9606 96.719,28.2855 96.705,28.6248 C96.69,28.9641 96.789,29.2985 96.986,29.5753 C97.619,30.4489 98.903,29.9103 98.871,28.6095 Z" id="Path" fill="#191919"></path>
            <path d="M90.0924,28.8257 C89.878,29.0857 89.7516,29.407 89.7315,29.7435 C89.6979,31.0673 90.9939,31.5675 91.615,30.7102 C92.5116,29.4631 91.1513,27.7678 90.0924,28.8257 Z" id="Path" fill="#191919"></path>
            <path d="M97.148,46.2791 C98.175,48.6551 101.257,48.2414 103.239,46.2599 C103.31,46.1991 103.354,46.1124 103.362,46.0189 C103.369,45.9255 103.339,45.833 103.278,45.7617 C103.217,45.6904 103.131,45.6462 103.037,45.6388 C102.944,45.6314 102.851,45.6615 102.78,45.7223 C102.14,46.1322 101.452,46.4602 100.73,46.6986 C100.027,46.959 99.249,46.9345 98.564,46.6305 C98.239,46.4686 97.957,46.2308 97.744,45.9373 C97.698,45.8584 97.624,45.8007 97.536,45.777 C97.448,45.7532 97.354,45.7653 97.275,45.8106 C97.196,45.8559 97.139,45.9308 97.115,46.0186 C97.091,46.1065 97.103,46.2002 97.148,46.2791 Z" id="Path" fill="#191919"></path>
            <path d="M98.759,50.5493 C101.232,49.6134 103.519,48.2452 105.513,46.5086 C105.806,46.2206 106.252,46.6776 105.953,46.9771 C103.983,49.0905 101.504,50.6632 98.753,51.5448 C98.664,51.5706 98.571,51.5706 98.483,51.5447 C98.394,51.5188 98.316,51.4682 98.255,51.3989 C97.064,50.0651 96.16,48.5001 95.6,46.8014 C95.5704,46.7237 95.5721,46.6374 95.6049,46.5609 C95.6377,46.4844 95.6989,46.4237 95.7757,46.3915 C96.371,46.1803 95.9878,47.2133 98.759,50.5493 Z" id="Path" fill="#38A1FF"></path>
            <path d="M87.1635,49.8255 C87.6355,49.5093 88.0846,49.1603 88.5075,48.781 C88.5846,48.7334 88.6405,48.6579 88.6634,48.5702 C88.6863,48.4826 88.6745,48.3894 88.6305,48.3102 C88.5865,48.2309 88.5136,48.1717 88.4271,48.1448 C88.3405,48.1179 88.2469,48.1254 88.1658,48.1657 C87.5586,48.382 87.0381,48.7897 86.6826,49.3273 C86.4186,49.6969 86.7603,50.0953 87.1635,49.8255 Z" id="Path" fill="#38A1FF"></path>
            <path d="M112.256,12.0566 C112.049,11.5743 111.748,11.1379 111.371,10.7725 C110.995,10.4072 110.549,10.1203 110.061,9.9283 C108.94,9.5117 111.782,9.4368 72.6301,10.943 C71.7242,10.9796 70.8674,11.3644 70.2382,12.0172 C69.609,12.67 69.256,13.5404 69.2528,14.447 C69.272,17.3952 69.4966,47.6419 69.4966,47.6419 C69.4966,47.7779 69.5507,47.9083 69.6468,48.0044 C69.7429,48.1005 69.8733,48.1546 70.0093,48.1546 C70.1453,48.1546 70.2756,48.1005 70.3718,48.0044 C70.4679,47.9083 70.5219,47.7779 70.5219,47.6419 C70.5219,47.6419 70.7456,17.3952 70.7552,14.447 C70.7597,13.9335 70.9616,13.4415 71.3191,13.0728 C71.6765,12.7041 72.1621,12.487 72.6752,12.4666 C103.377,11.639 101.098,11.4019 101.167,11.5555 C101.372,12.3227 101.705,13.05 102.151,13.7069 C101.9,13.8704 101.661,14.0513 101.436,14.2483 C95.168,11.2339 86.528,18.0096 86.9024,24.2822 C86.9022,24.9541 87.108,25.6099 87.4919,26.1612 C87.8759,26.7126 88.4197,27.133 89.0499,27.3658 C89.1342,27.398 89.2254,27.4072 89.3144,27.3926 C89.4034,27.3779 89.4869,27.3399 89.5563,27.2824 C89.6258,27.2248 89.6787,27.1499 89.7097,27.0652 C89.7406,26.9805 89.7485,26.8891 89.7325,26.8003 C89.6759,26.233 89.3974,26.5718 91.0698,26.7802 C91.7931,26.8589 92.5228,26.8589 93.2461,26.7802 C93.3289,26.7711 93.408,26.7414 93.4763,26.6938 C93.5446,26.6461 93.5998,26.5821 93.6368,26.5075 C93.8096,26.2195 93.6243,26.0515 93.4803,25.6435 C95.471,26.2449 97.596,26.2349 99.581,25.6147 C100.074,26.2214 100.49,26.8866 100.82,27.5952 C100.868,27.6988 100.948,27.7838 101.049,27.8367 C101.149,27.8896 101.265,27.9074 101.377,27.8872 C101.489,27.8671 101.591,27.8101 101.667,27.7254 C101.743,27.6407 101.789,27.5331 101.797,27.4195 C101.829,27.0595 101.842,26.698 101.835,26.3366 C102.715,29.7186 103.166,33.1977 103.179,36.6922 C103.211,37.5494 103.159,38.4653 103.139,39.3802 C103.055,39.1699 102.965,38.952 102.865,38.7245 C102.853,38.6801 102.832,38.6385 102.804,38.6024 C102.775,38.5663 102.74,38.5363 102.699,38.5142 C102.659,38.4921 102.614,38.4784 102.568,38.4738 C102.523,38.4693 102.476,38.474 102.432,38.4878 C102.388,38.5015 102.348,38.524 102.313,38.5538 C102.278,38.5837 102.249,38.6203 102.228,38.6615 C102.208,38.7026 102.196,38.7475 102.193,38.7935 C102.19,38.8395 102.196,38.8855 102.212,38.929 C102.52,40.3632 103.773,44.3866 105.249,45.8611 C106.143,46.7859 107.352,47.3399 108.636,47.4125 C108.724,47.4164 108.812,47.3946 108.888,47.3496 C108.964,47.3046 109.026,47.2384 109.065,47.159 C109.187,46.8382 109.247,46.4971 109.241,46.1539 C109.642,46.4841 110.137,46.6787 110.656,46.7098 C111.418,46.6858 111.291,46.2298 111.293,46.9018 C111.293,46.9703 111.307,47.0382 111.333,47.1016 C111.359,47.165 111.398,47.2225 111.446,47.271 C111.495,47.3195 111.552,47.358 111.616,47.3842 C111.679,47.4105 111.747,47.424 111.815,47.424 C111.884,47.424 111.952,47.4105 112.015,47.3842 C112.079,47.358 112.136,47.3195 112.185,47.271 C112.233,47.2225 112.272,47.165 112.298,47.1016 C112.324,47.0382 112.338,46.9703 112.338,46.9018 C112.47,10.5283 112.72,13.1683 112.256,12.0566 Z M93.1808,18.0326 C91.8271,19.3721 90.7434,20.9593 89.9888,22.7078 C89.9567,22.7899 89.8944,22.8565 89.8147,22.894 C89.735,22.9315 89.6439,22.9371 89.5602,22.9095 C89.4765,22.882 89.4066,22.8235 89.3647,22.746 C89.3228,22.6685 89.3122,22.5779 89.3351,22.4928 C89.5155,21.4635 89.9149,20.4849 90.5063,19.6234 C91.0503,18.6983 91.846,17.9469 92.8007,17.4566 C92.8769,17.4131 92.9669,17.4003 93.0523,17.4209 C93.1377,17.4415 93.212,17.4939 93.26,17.5675 C93.308,17.641 93.3262,17.7301 93.3108,17.8165 C93.2953,17.903 93.2475,17.9803 93.177,18.0326 L93.1808,18.0326 Z M105.095,12.7046 C104.392,12.7531 103.702,12.9253 103.058,13.2134 C102.736,12.5824 102.354,11.9832 101.919,11.424 L105.389,11.3002 C105.21,11.7477 105.109,12.2228 105.092,12.7046 L105.095,12.7046 Z M108.505,21.2851 C111.586,18.7094 110.403,13.2826 106.13,12.7344 C106.22,12.252 106.227,11.7579 106.15,11.2733 C108.715,11.1821 109.373,10.9766 110.334,11.8608 C110.568,12.0858 110.754,12.3557 110.881,12.6542 C111.009,12.9527 111.075,13.2738 111.075,13.5984 C111.081,15.288 111.145,24.8362 111.205,33.2784 C110.519,30.9562 111.024,26.4643 108.501,21.2851 L108.505,21.2851 Z" id="Shape" fill="#191919"></path>
            <path d="M95.552,16.874 C95.6883,16.8251 95.8055,16.8059 95.9418,16.7569 C96.471,16.5588 96.96,16.2678 97.387,15.8977 C97.431,15.8837 97.473,15.8609 97.508,15.8306 C97.544,15.8003 97.573,15.7631 97.594,15.7212 C97.615,15.6794 97.627,15.6338 97.63,15.587 C97.633,15.5403 97.627,15.4935 97.611,15.4494 C97.596,15.4068 97.573,15.3677 97.542,15.3343 C97.512,15.3009 97.475,15.2738 97.434,15.2547 C97.393,15.2356 97.349,15.2248 97.304,15.2229 C97.259,15.2211 97.214,15.2282 97.172,15.2439 C96.78,15.264 96.397,15.3688 96.05,15.5511 C95.7033,15.7334 95.4,15.9889 95.1613,16.2999 C95.0936,16.355 95.049,16.4335 95.0364,16.5199 C95.0238,16.6062 95.044,16.6942 95.0931,16.7664 C95.1422,16.8385 95.2166,16.8896 95.3016,16.9095 C95.3866,16.9295 95.4759,16.9168 95.552,16.874 Z" id="Path" fill="#191919"></path>
            <path d="M105.042,89.849 C104.68,87.174 103.858,84.582 102.612,82.187 C102.196,81.248 101.724,80.335 101.196,79.454 C102.377,77.3843 101.676,74.5878 100.106,72.8185 C100.749,72.2091 101.328,71.5363 101.834,70.8102 C102.443,70.0629 102.973,69.2548 103.415,68.3987 C103.497,68.2923 103.533,68.1583 103.517,68.0253 C103.501,67.8924 103.434,67.771 103.329,67.687 C103.225,67.603 103.092,67.563 102.959,67.5757 C102.825,67.5883 102.702,67.6525 102.616,67.7545 C101.861,68.3729 101.191,69.0885 100.625,69.8828 C100.078,70.5384 99.623,71.2646 99.271,72.0419 C98.823,71.6808 98.306,71.4159 97.751,71.2634 C97.197,71.111 96.617,71.0743 96.047,71.1558 C96.031,70.8745 96.014,70.5932 95.984,70.312 C95.9168,69.7648 95.5664,67.912 95.3399,67.0422 C95.1603,66.35 94.8493,65.5657 94.8032,65.4323 C94.7898,65.3669 94.7636,65.3048 94.7262,65.2496 C94.6888,65.1943 94.6408,65.147 94.5851,65.1103 C94.5294,65.0735 94.467,65.0481 94.4015,65.0355 C94.3359,65.0229 94.2686,65.0233 94.2032,65.0368 C94.1378,65.0502 94.0758,65.0764 94.0205,65.1138 C93.9653,65.1512 93.9179,65.1991 93.8812,65.2548 C93.8445,65.3106 93.8191,65.373 93.8065,65.4385 C93.7938,65.504 93.7943,65.5714 93.8077,65.6368 C93.8145,66.1981 93.852,66.7586 93.92,67.3158 C94.1078,68.7364 94.4217,70.1374 94.8579,71.5024 C93.9117,71.9264 93.1432,72.6676 92.6855,73.598 C88.8627,71.2844 83.8967,74.606 84.1251,79.1027 C82.6804,80.729 81.6316,82.668 81.0608,84.767 C80.5681,86.33 80.1832,87.924 79.9088,89.54 C79.5367,91.905 79.3053,94.291 79.2157,96.684 C78.9768,99.696 79.3387,102.725 80.2803,105.596 C80.7241,107.079 81.6472,108.372 82.905,109.275 C84.7904,110.469 88.569,110.043 89.8544,107.899 C90.4419,106.746 90.6076,105.423 90.3229,104.161 C90.2961,103.982 90.207,103.818 90.0715,103.699 C89.9359,103.579 89.7625,103.511 89.5818,103.507 C88.0458,103.507 86.0941,101.194 85.3645,99.818 C84.985,99.085 84.7217,98.298 84.584,97.485 C84.1595,93.593 84.5586,89.656 85.7552,85.928 C86.6222,86.358 87.5361,86.686 88.4787,86.905 C90.4467,87.385 94.0679,88.175 95.0864,86.406 C95.9869,86.925 97.515,87.474 98.463,87.051 C99.972,92.678 98.81,98.246 96.579,101.174 C95.4503,102.662 94.832,102.375 94.832,103.094 C94.832,104.438 94.9991,106.188 95.12,107.457 C95.1085,107.584 95.1315,107.712 95.1866,107.827 C95.2416,107.942 95.3268,108.04 95.433,108.111 C96.327,108.551 97.28,108.857 98.263,109.018 C98.734,109.239 99.246,109.358 99.766,109.37 C99.898,109.357 100.023,109.307 100.127,109.226 C100.23,109.145 100.309,109.035 100.352,108.911 C100.608,108.138 100.81,107.349 100.957,106.549 C101.171,106.611 101.4,106.604 101.611,106.53 C102.382,106.092 102.996,105.422 103.367,104.617 C105.329,100.538 105.658,94.159 105.042,89.849 Z M89.696,74.5292 C87.2855,75.2569 86.6394,77.7116 86.72,80.249 C86.7261,80.293 86.7233,80.339 86.7118,80.382 C86.7003,80.426 86.6803,80.466 86.653,80.502 C86.6257,80.538 86.5916,80.568 86.5527,80.59 C86.5138,80.613 86.4708,80.627 86.4263,80.633 C86.382,80.64 86.3369,80.638 86.2934,80.627 C86.2499,80.617 86.2091,80.597 86.1732,80.57 C86.1374,80.543 86.1074,80.51 86.0849,80.471 C86.0624,80.432 86.0479,80.389 86.0423,80.345 C85.3376,77.3334 86.481,74.2758 89.5463,73.8534 C89.6354,73.8365 89.7276,73.8545 89.8039,73.9037 C89.8801,73.9528 89.9346,74.0293 89.9562,74.1174 C89.9747,74.2064 89.9579,74.2991 89.9094,74.3759 C89.8608,74.4528 89.7843,74.5077 89.696,74.5292 Z M93.0215,75.351 C92.7431,75.686 92.0989,75.1811 91.353,74.7462 C91.2698,74.7125 91.2029,74.648 91.1663,74.5661 C91.1297,74.4842 91.1261,74.3913 91.1563,74.3069 C91.1866,74.2225 91.2483,74.153 91.3286,74.113 C91.4089,74.073 91.5016,74.0657 91.5872,74.0924 C91.8599,74.1189 92.124,74.2021 92.3627,74.3364 C92.6014,74.4708 92.8094,74.6536 92.9735,74.8729 C93.0367,74.9342 93.0759,75.0161 93.084,75.1038 C93.0921,75.1915 93.0686,75.2792 93.0176,75.351 L93.0215,75.351 Z" id="Shape" fill="#191919"></path>
            <path d="M24.7107,22.9126 C24.27,21.4908 23.0355,21.2892 22.6611,22.327 C22.5526,22.6959 22.5413,23.0867 22.6285,23.4613 C22.7156,23.8359 22.8982,24.1817 23.1584,24.4649 C24.0176,25.3558 25.1417,24.463 24.7107,22.9126 Z" id="Path" fill="#191919"></path>
            <path d="M21.248,20.0682 C21.4139,19.8817 21.6004,19.7146 21.8038,19.57 C21.9573,19.4354 22.1378,19.3353 22.3332,19.2763 C22.5286,19.2174 22.7344,19.201 22.9366,19.2282 C23.1699,19.2351 23.399,19.2917 23.6086,19.3943 C23.685,19.4444 23.7773,19.4642 23.8675,19.4498 C23.9577,19.4354 24.0393,19.3879 24.0963,19.3166 C24.1236,19.2795 24.1432,19.2373 24.1541,19.1926 C24.165,19.1479 24.1668,19.1014 24.1596,19.056 C24.1524,19.0105 24.1362,18.9669 24.112,18.9278 C24.0877,18.8886 24.056,18.8547 24.0186,18.8279 C23.7697,18.5668 23.4547,18.3782 23.107,18.282 C22.7594,18.1859 22.3921,18.1859 22.0445,18.2821 C21.6969,18.3783 21.3819,18.567 21.133,18.8281 C20.8842,19.0892 20.7109,19.413 20.6317,19.7649 C20.6118,19.8053 20.6,19.8492 20.597,19.8942 C20.5941,19.9391 20.6,19.9842 20.6145,20.0269 C20.629,20.0695 20.6518,20.1089 20.6815,20.1428 C20.7112,20.1766 20.7473,20.2043 20.7877,20.2242 C20.8281,20.2442 20.872,20.2559 20.917,20.2589 C20.9619,20.2618 21.007,20.2559 21.0497,20.2414 C21.0923,20.2269 21.1317,20.2041 21.1656,20.1744 C21.1994,20.1447 21.2271,20.1086 21.247,20.0682 L21.248,20.0682 Z" id="Path" fill="#191919"></path>
            <path d="M18.7702,29.8756 C18.9636,29.3729 19.1108,28.8537 19.2099,28.3243 C19.4064,27.5459 19.5371,26.7524 19.6006,25.9521 C19.6192,25.8663 19.6045,25.7766 19.5595,25.7012 C19.5144,25.6257 19.4425,25.5702 19.3581,25.5459 C19.2737,25.5215 19.1832,25.53 19.1049,25.5698 C19.0266,25.6096 18.9663,25.6776 18.9363,25.7601 C18.474,26.6944 18.1926,27.7078 18.1068,28.7467 C18.076,29.0907 18.0696,29.4366 18.0876,29.7815 C18.0779,29.8707 18.1033,29.9603 18.1585,30.031 C18.2136,30.1018 18.2943,30.1482 18.3832,30.1605 C18.4721,30.1727 18.5622,30.1498 18.6345,30.0966 C18.7068,30.0434 18.7555,29.9641 18.7702,29.8756 Z" id="Path" fill="#38A1FF"></path>
            <path d="M21.1251,28.8835 C21.1625,28.7875 21.3353,28.4035 21.4131,28.1155 C21.4764,27.9072 21.7308,26.7638 21.7644,26.5344 C21.8028,26.2608 21.8124,25.9977 21.8422,25.7145 C21.8602,25.6279 21.8447,25.5377 21.7989,25.462 C21.7531,25.3863 21.6804,25.3308 21.5954,25.3065 C21.5103,25.2822 21.4192,25.2909 21.3404,25.331 C21.2615,25.3711 21.2007,25.4395 21.1702,25.5225 C20.6227,26.5192 20.3722,27.6519 20.4483,28.7865 C20.4419,28.831 20.4444,28.8762 20.4555,28.9197 C20.4666,28.9632 20.4862,29.0041 20.5131,29.04 C20.54,29.0759 20.5738,29.1062 20.6124,29.1291 C20.651,29.152 20.6938,29.167 20.7382,29.1734 C20.7826,29.1798 20.8279,29.1773 20.8714,29.1662 C20.9149,29.1551 20.9558,29.1355 20.9917,29.1086 C21.0276,29.0816 21.0579,29.0479 21.0808,29.0093 C21.1037,28.9707 21.1187,28.9279 21.1251,28.8835 Z" id="Path" fill="#38A1FF"></path>
            <path d="M101.348,27.5012 C100.964,25.0053 99.003,23.5259 97.142,23.8216 L97.142,23.812 C95.2218,23.9877 93.8845,25.8808 93.9469,28.0686 C93.637,28.0624 93.3288,28.1152 93.0387,28.2241 C92.8287,27.3393 92.3057,26.5603 91.5662,26.031 C90.8267,25.5016 89.9207,25.2577 89.0154,25.3441 L89.0154,25.3345 C85.8627,25.6225 84.7011,30.2305 87.1117,32.7131 C89.5779,35.2686 93.4102,33.2891 93.2682,29.524 C93.5759,29.5192 93.8817,29.4734 94.1773,29.3876 C94.4024,30.2689 94.9288,31.0436 95.6653,31.5773 C96.402,32.1111 97.302,32.3702 98.209,32.3099 C100.321,32.0488 101.677,29.8244 101.348,27.5012 Z M91.5565,31.3691 C91.4022,31.6835 91.172,31.9547 90.8869,32.158 C90.6017,32.3614 90.2704,32.4907 89.9229,32.5342 C89.5753,32.5777 89.2224,32.5341 88.8959,32.4073 C88.5694,32.2805 88.2796,32.0745 88.0525,31.8078 C87.5331,31.2432 87.1966,30.5348 87.0869,29.7755 C86.9773,29.0162 87.0997,28.2416 87.4381,27.5531 C87.5739,27.1997 87.803,26.8899 88.101,26.6565 C88.3991,26.4231 88.7548,26.275 89.1304,26.2279 C89.506,26.1808 89.8874,26.2365 90.2338,26.3891 C90.5802,26.5416 90.8788,26.7853 91.0976,27.0942 C91.5959,27.6777 91.906,28.3982 91.9872,29.1612 C92.0684,29.9241 91.9169,30.6938 91.5526,31.3691 L91.5565,31.3691 Z M99.68,29.8436 C99.527,30.1596 99.298,30.4323 99.012,30.6369 C98.727,30.8415 98.395,30.9715 98.047,31.0151 C97.699,31.0587 97.345,31.0145 97.018,30.8865 C96.692,30.7586 96.402,30.5509 96.176,30.2824 C94.4038,28.5102 95.0778,25.0715 97.25,24.7 L97.25,24.6904 C99.516,24.5137 100.878,27.7787 99.68,29.8436 Z" id="Shape" fill="#38A1FF"></path>
            <path d="M91.5622,93.432 C91.8943,93.451 92.2342,93.48 92.3926,93.49 C92.5085,93.493 92.6191,93.54 92.7012,93.622 C92.7833,93.704 92.8305,93.814 92.833,93.93 C92.8354,94.046 92.793,94.158 92.7145,94.244 C92.636,94.329 92.5275,94.381 92.4118,94.388 L91.0457,94.632 C90.9603,94.645 90.8731,94.639 90.7899,94.616 C90.7067,94.593 90.6294,94.552 90.563,94.497 C90.4967,94.441 90.4427,94.373 90.4048,94.295 C90.3669,94.217 90.3458,94.133 90.343,94.046 C90.1836,91.561 89.9974,91.04 90.4697,88.678 C90.4749,88.62 90.4913,88.564 90.5182,88.513 C90.545,88.462 90.5817,88.416 90.6262,88.379 C90.6706,88.342 90.7219,88.314 90.7772,88.296 C90.8325,88.279 90.8906,88.273 90.9483,88.278 C91.0059,88.283 91.062,88.3 91.1133,88.327 C91.1646,88.353 91.2102,88.39 91.2473,88.435 C91.2844,88.479 91.3124,88.53 91.3297,88.586 C91.347,88.641 91.3533,88.699 91.3481,88.757 C91.3721,89.486 91.4931,90.027 91.5622,93.432 Z" id="Path" fill="#191919"></path>
            <path d="M99.2,85.153 C98.791,84.767 98.31,84.466 97.784,84.268 C97.258,84.07 96.697,83.98 96.136,84.001 L96.136,83.992 C95.0578,83.964 94.0091,84.343 93.1971,85.052 C92.3851,85.761 91.8691,86.749 91.7513,87.821 C91.3343,87.744 90.9057,87.758 90.4946,87.862 C90.3103,87.107 89.9314,86.413 89.3957,85.849 C88.8601,85.285 88.1862,84.871 87.4411,84.649 C86.696,84.426 85.9056,84.402 85.1484,84.579 C84.3912,84.756 83.6935,85.129 83.1247,85.659 C82.705,86.055 82.369,86.531 82.1367,87.06 C81.9044,87.588 81.7805,88.157 81.7724,88.734 C81.7643,89.311 81.872,89.884 82.0893,90.419 C82.3066,90.953 82.629,91.439 83.0374,91.846 C83.623,92.435 84.3625,92.847 85.1712,93.036 C85.98,93.224 86.8255,93.182 87.6111,92.912 C88.3967,92.643 89.0908,92.159 89.6141,91.514 C90.1374,90.869 90.4688,90.09 90.5705,89.266 C90.9904,89.332 91.4185,89.324 91.8358,89.243 C91.9865,89.907 92.2898,90.527 92.7217,91.054 C93.1535,91.58 93.7021,91.999 94.3238,92.277 C94.9456,92.555 95.6236,92.684 96.304,92.655 C96.984,92.625 97.649,92.438 98.244,92.107 C98.84,91.777 99.35,91.312 99.735,90.75 C100.119,90.188 100.368,89.544 100.46,88.869 C100.553,88.194 100.488,87.507 100.269,86.862 C100.05,86.217 99.684,85.632 99.2,85.153 Z M89.2255,88.714 C89.2113,89.514 88.8837,90.276 88.3132,90.836 C87.7427,91.397 86.9749,91.711 86.1751,91.711 C85.3754,91.711 84.6076,91.397 84.037,90.836 C83.4665,90.276 83.1389,89.514 83.1247,88.714 C83.1062,87.88 83.4159,87.072 83.9873,86.464 C84.5586,85.856 85.3458,85.497 86.1794,85.463 L86.1794,85.454 C87.0126,85.492 87.7978,85.854 88.3674,86.463 C88.9371,87.072 89.2461,87.88 89.2284,88.714 L89.2255,88.714 Z M99.181,88.218 C99.167,89.017 98.839,89.779 98.268,90.34 C97.698,90.9 96.93,91.214 96.13,91.214 C95.3305,91.214 94.5628,90.9 93.9922,90.34 C93.4217,89.779 93.0941,89.017 93.0799,88.218 C93.0616,87.383 93.3716,86.576 93.9431,85.968 C94.5147,85.36 95.302,85.001 96.136,84.968 L96.136,84.958 C96.97,84.993 97.757,85.354 98.327,85.964 C98.897,86.573 99.205,87.383 99.184,88.218 L99.181,88.218 Z" id="Shape" fill="#38A1FF"></path>
        </g>
    </g>
</svg>