<?xml version="1.0" encoding="UTF-8"?>
<svg width="396px" height="244px" viewBox="0 0 396 244" version="1.1" xmlns="http://www.w3.org/2000/svg" xmlns:xlink="http://www.w3.org/1999/xlink">
    <title>Untitled</title>
    <g id="Page-1" stroke="none" stroke-width="1" fill="none" fill-rule="evenodd">
        <g id="team" fill-rule="nonzero">
            <rect id="Rectangle" fill="#FAE6E2" x="87" y="19" width="225" height="225" rx="112.5"></rect>
            <path d="M108.094,71.002 C101.507,53.671 97.694,57.39 105.211,71.1 C95.639,77.679 105.889,77.527 108.094,71.002 Z" id="Path" fill="#191919"></path>
            <path d="M94.094,71.358 C96.111,71.191 95.966,65.469 93.47,65.367 C91.45,65.534 91.595,71.254 94.094,71.358 Z" id="Path" fill="#191919"></path>
            <path d="M175.993,67.537 C180.923,63.558 171.153,68.09 171.209,61.79 C171.361,41.587 167.713,55.323 169.545,63.531 C170.382,67.256 173.31,69.702 175.993,67.537 Z" id="Path" fill="#191919"></path>
            <path d="M181.108,69.727 C178.438,73.205 176.268,73.471 174.384,73.471 C173.005,73.471 172.077,71.715 170.658,72.26 C170.714,75.986 173.683,76.289 176.803,75.32 C177.406,74.291 178.272,73.44 179.312,72.856 C180.353,72.271 181.529,71.973 182.722,71.992 C184.318,70.492 184.411,69.261 181.108,69.727 Z" id="Path" fill="#191919"></path>
            <path d="M163.622,52.553 C161.937,52.513 161.334,57.505 163.622,57.998 C165.307,58.044 165.903,53.052 163.622,52.553 Z" id="Path" fill="#191919"></path>
            <path d="M179.072,56.343 C179.658,58.669 181.857,58.609 182.117,55.281 C182.036,51.767 178.431,51.507 179.072,56.343 Z" id="Path" fill="#191919"></path>
            <path d="M185.636,51.501 C189.22,48.864 180.705,45.307 178.321,46.359 C174.517,48.477 183.993,50.064 185.636,51.501 Z" id="Path" fill="#191919"></path>
            <path d="M161.226,47.324 C159.108,47.586 153.638,52.185 157.69,53.2 C158.896,52.046 165.779,48.036 161.226,47.324 Z" id="Path" fill="#191919"></path>
            <path d="M219.407,98.666 C211.825,99.271 204.233,99.715 196.631,99.997 C196.727,90.267 196.773,79.857 197.617,69.79 C196.038,70.951 194.369,71.984 192.625,72.878 C184.886,88.196 167.522,86.606 161.169,80.229 C153.265,71.096 154.389,57.264 153.879,45.689 C165.319,49.318 179.777,46.573 187.816,36.917 C189.368,44.855 192.459,48.006 195.533,49.189 C196.446,47.58 197.486,46.046 198.643,44.601 C196.449,35.89 191.866,27.966 185.41,21.721 C182.959,19.41 179.898,19.907 178.566,19.693 L178.521,19.728 C178.506,19.52 177.327,19.813 178.265,18.21 C172.487,-10.7646 126.781,-1.883 133.499,26.9 C135.477,36.799 142.065,41.543 149.702,44.422 C154.902,59.279 147.498,84.747 171.284,87.436 L170.074,98.267 C154.509,93.023 137.143,92.17 120.499,92.876 C112.562,76.057 126.548,44.85 106.551,30.205 C104.392,28.537 101.913,27.334 99.267,26.67 C96.621,26.007 93.867,25.897 91.177,26.349 C90.874,27.455 86.3517,27.102 84.0034,31.004 C79.0097,39.583 76.461,49.367 76.634,59.292 C78.6413,60.749 80.4815,62.423 82.121,64.284 C90.379,63.543 103.961,57.48 104.889,47.717 C107.819,51.419 109.049,50.385 109.384,53.651 C104.966,52.17 102.807,55.993 109.194,56.451 C111.274,57.543 110.299,61.505 111.116,64.011 C108.067,60.683 108.62,71.657 111.561,67.529 C112.185,77.165 115.008,88.491 109.419,93.082 C101.426,98.146 92.708,91.507 90.404,93.913 C90.1,95.284 90.424,95.629 92.084,96.079 C97.351,96.079 94.416,100.701 95.412,104.594 C87.632,100.837 81.6322,94.183 78.6973,86.057 C64.6989,94.885 52.5476,63.177 73.9508,59.745 C73.5514,55.226 76.3719,32.926 84.4714,26.442 C46.8234,22.632 33.9274,65.675 54.4425,95.024 C67.4113,111.073 82.4684,103.19 63.6465,111.435 C61.9949,115.67 76.5882,110.47 75.1405,107.346 C81.8343,108.738 88.7246,108.908 95.479,107.847 C93.428,110.183 108.027,114.963 105.19,110.169 C94.641,107.4 98.838,105.077 97.673,97.231 C106.825,97.707 106.363,105.759 121.545,102.71 C120.774,100.38 120.145,98.005 119.663,95.598 C186.579,93.739 166.463,113.954 175.091,87.486 C179.185,87.317 183.159,86.049 186.593,83.813 C190.028,81.578 192.797,78.459 194.61,74.784 C193.43,108.627 191.716,102.196 203.321,102.371 C208.375,101.861 225.456,102.402 219.407,98.666 Z M150.41,9.744 C140.894,9.898 140.921,19.62 141.852,25.504 C138.162,27.189 138.333,20.363 138.847,17.677 C141.087,3.313 157.282,6.795 150.41,9.744 Z" id="Shape" fill="#191919"></path>
            <path d="M201.12,44.367 C202.559,44.194 204.014,44.219 205.446,44.442 C209.211,23.872 195.406,14.727 183.471,17.701 C192.357,20.94 200.394,40.252 201.12,44.367 Z" id="Path" fill="#191919"></path>
            <path d="M73.9508,59.761 C51.0584,63.443 66.5814,99.241 81.4388,83.831 C83.7267,85.516 86.3521,86.686 89.1348,87.261 C92.517,88.177 96.016,88.591 99.518,88.49 C100.24,89.309 101.182,89.903 102.232,90.2 C103.283,90.497 104.396,90.484 105.44,90.164 C108.493,89.54 110.625,87.375 110.205,85.324 C109.413,81.46 101.365,81.84 99.427,85.786 C92.278,85.994 85.5302,83.658 83.1902,81.801 C83.29,81.241 89.2326,72.769 82.1294,64.293 C80.4898,62.432 78.6497,60.758 76.6424,59.301 C76.4607,49.375 79.01,39.589 84.0118,31.013 C87.0819,25.913 93.883,28.087 90.069,24.75 C89.0689,24.633 88.0557,24.726 87.0935,25.021 C86.1313,25.317 85.2412,25.81 84.4798,26.469 C76.3678,32.952 73.5515,55.241 73.9508,59.761 Z" id="Path" fill="#38A1FF"></path>
            <path d="M185.403,21.716 C191.855,27.965 196.437,35.888 198.636,44.596 C188.318,57.463 197.424,65.24 198.185,65.791 C196.296,68.495 190.281,71.615 186.25,72.793 C182.889,70.831 177.955,72.599 176.815,75.289 C175.646,77.812 178.51,80.414 182.901,79.501 C185.836,78.895 187.91,76.859 187.685,74.894 C191.685,73.614 197.775,70.598 200.213,67.162 C217.217,76.938 222.074,41.892 201.124,44.363 C200.126,38.747 188.96,13.498 178.56,17.739 C175.989,21.523 181.487,18.022 185.403,21.716 Z" id="Path" fill="#38A1FF"></path>
            <path d="M274.943,73.719 C274.534,72.874 273.942,72.131 273.211,71.543 C273.1,72.013 273.003,72.408 272.89,72.71 C273.594,73.006 274.279,73.343 274.943,73.719 Z" id="Path" fill="#191919"></path>
            <path d="M270.677,70.352 C269.386,70.105 268.05,70.302 266.885,70.911 C265.885,71.403 265.007,72.111 264.314,72.984 C263.622,73.857 263.132,74.873 262.881,75.959 C265.161,74.159 267.688,72.697 270.384,71.618 C270.486,71.202 270.592,70.795 270.677,70.352 Z" id="Path" fill="#191919"></path>
            <path d="M256.716,99.228 C222.298,110.4 225.26,98.036 226.708,83.628 C227.798,78.166 227.199,69.692 229.757,69.11 C234.826,69.02 233.649,65.091 229.198,66.47 C229.99,65.199 228.821,62.09 227.039,63.974 C225.435,70.519 224.411,77.191 223.977,83.915 C221.778,100.229 224.058,107.18 239.766,106.017 C238.903,110.283 240.952,117.21 237.578,117.029 C225.065,120.546 237.776,121.827 241.774,118.314 C243.069,114.57 240.942,105.982 243.317,105.566 C247.005,104.975 263.78,101.31 256.716,99.228 Z" id="Path" fill="#191919"></path>
            <path d="M240.652,66.229 C238.262,67.926 238.629,76.03 237.794,78.281 C235.45,85.54 241.938,88.057 244.01,87.114 C246.09,83.085 238.175,85.987 240.38,79.121 C240.467,74.641 244.089,65.911 240.652,66.229 Z" id="Path" fill="#191919"></path>
            <path d="M248.665,77.538 C249.16,80.45 251.814,80.055 251.88,76.742 C251.664,72.885 248.167,73.262 248.665,77.538 Z" id="Path" fill="#191919"></path>
            <path d="M236.083,76.051 C235.585,73.187 232.929,73.573 232.863,76.837 C233.09,80.639 236.58,80.265 236.083,76.051 Z" id="Path" fill="#191919"></path>
            <path d="M255.824,64.54 C257.696,64.841 258.162,67.549 260.36,67.146 C264.104,62.102 249.051,60.159 246.308,61.892 C241.888,66.539 254.112,62.628 255.824,64.54 Z" id="Path" fill="#191919"></path>
            <path d="M266.03,37.799 C264.773,38.121 263.453,38.109 262.201,37.763 C229.786,19.981 225.04,58.734 231.072,51.458 C239.808,20.57 258.029,44.775 268.578,39.916 C267.847,39.079 266.987,38.364 266.03,37.799 Z" id="Path" fill="#191919"></path>
            <path d="M270.829,38.264 C271.129,37.944 271.407,37.603 271.661,37.245 C273.693,35.334 274.196,30.685 270.987,32.744 C270.588,34.061 269.859,35.255 268.87,36.211 C269.628,36.786 270.29,37.479 270.829,38.264 Z" id="Path" fill="#191919"></path>
            <path d="M280.453,32.514 C278.131,35.915 275.55,39.133 272.734,42.138 C273.056,43.07 273.324,44.019 273.537,44.981 C279.226,41.023 283.752,32.468 280.453,32.514 Z" id="Path" fill="#191919"></path>
            <path d="M259.025,42.325 C239.329,34.305 235.392,55.013 238.664,54.485 C239.704,54.466 239.893,54.162 240.159,52.908 C244.75,34.095 260.83,48.573 268.191,46.941 C269.149,46.939 270.096,46.749 270.981,46.383 C270.78,45.493 270.555,44.604 270.307,43.717 C267.68,44.844 264.385,44.507 259.025,42.325 Z" id="Path" fill="#191919"></path>
            <path d="M251.843,51.175 C250.476,52.23 248.398,54.2 250.545,55.408 C259.281,47.847 265.7,52.521 272.058,53.773 C271.994,52.829 271.902,51.889 271.786,50.945 C265.265,49.268 257.54,45.89 251.843,51.175 Z" id="Path" fill="#191919"></path>
            <path d="M282.298,50.687 C285.002,48.686 292.039,35.67 286.533,37.681 C284.068,43.025 281.585,51.494 274.436,51.457 C274.498,52.32 274.543,53.186 274.571,54.055 C276.021,54.055 277.456,53.756 278.785,53.177 C280.115,52.597 281.311,51.75 282.298,50.687 Z" id="Path" fill="#191919"></path>
            <path d="M272.16,56.76 C271.618,56.845 271.087,56.993 270.579,57.201 C263.507,59.678 266.344,64.156 268.732,61.436 C269.663,60.512 270.832,59.864 272.108,59.564 C272.158,58.628 272.169,57.694 272.16,56.76 Z" id="Path" fill="#191919"></path>
            <path d="M277.982,60.146 C291.448,65.82 296.868,41.842 285.566,57.423 C282.111,59.48 278.438,57.215 274.637,56.753 C274.637,57.66 274.617,58.567 274.585,59.432 C275.74,59.546 276.879,59.785 277.982,60.146 Z" id="Path" fill="#191919"></path>
            <path d="M285.951,62.861 C282.429,65.085 278.275,66.093 274.126,65.732 C274.025,66.68 273.912,67.561 273.787,68.373 C277.889,69.725 293.736,64.247 285.951,62.861 Z" id="Path" fill="#191919"></path>
            <path d="M279.858,78.321 C285.938,78.019 296.498,73.641 289.948,72.389 C284.998,76.133 281.643,75.226 277.308,75.363 C278.309,76.208 279.17,77.206 279.858,78.321 Z" id="Path" fill="#191919"></path>
            <path d="M281.524,85.373 C282.375,85.412 283.093,85.406 283.473,85.392 C286.4,84.067 284.216,82.973 281.375,82.396 C281.538,83.38 281.588,84.378 281.524,85.373 Z" id="Path" fill="#191919"></path>
            <path d="M334.24,130.64 C343.275,130.941 353.072,133.591 358.505,128.352 C365.993,114.894 365.931,99.383 368.183,84.54 C369.935,77.676 364.758,80.657 362.775,75.085 C360.356,70.661 362.686,64.568 359.412,65.375 C356.315,69.687 361.675,80.921 365.764,82.015 C363.965,96.344 363.042,111.528 357.311,125.221 C355.073,133.377 326.151,124.177 334.24,130.64 Z" id="Path" fill="#191919"></path>
            <path d="M394.849,108.365 C393.348,100.201 389.395,92.687 383.515,86.827 C393.154,81.987 391.952,64.55 388.112,68.284 C387.883,77.504 388.624,81.18 380.037,85.679 C413.032,125.571 376.435,166.649 331.205,163.263 C329.473,165.214 332.048,166.091 334.2,165.985 C367.626,168.354 401.054,142.09 394.849,108.365 Z" id="Path" fill="#191919"></path>
            <path d="M381.437,69.37 C385.953,72.771 385.335,56.78 384,55.155 C383.395,51.289 374.696,42.488 375.981,48.734 C385.109,56.47 381.764,62.677 381.437,69.37 Z" id="Path" fill="#191919"></path>
            <path d="M374.746,68.342 C380.173,77.286 377.602,46.776 372.341,50.995 C372.605,56.274 377.009,62.216 374.746,68.342 Z" id="Path" fill="#191919"></path>
            <path d="M372.002,68.024 C368.61,61.287 371.942,52.876 367.919,54.698 C365.513,57.092 370.224,76.542 372.002,68.024 Z" id="Path" fill="#191919"></path>
            <path d="M238.061,91.996 C236.955,91.25 235.993,90.31 235.221,89.222 C229.944,88.423 233.32,92.078 237.588,94.089 C237.515,93.727 237.52,93.353 237.601,92.992 C237.682,92.632 237.839,92.292 238.061,91.996 Z" id="Path" fill="#191919"></path>
            <path d="M272.89,72.708 C274.908,66.776 277.647,36.21 265.515,34.881 C261.061,37.198 268.171,36.767 269.92,42.402 C272.751,51.917 272.912,62.027 270.384,71.626 C267.687,72.705 265.161,74.167 262.881,75.967 C259.123,79.145 256.768,83.871 258.615,91.775 C258.642,91.835 258.669,91.89 258.694,91.95 C255.438,93.018 251.998,93.41 248.585,93.102 C247.25,89.683 240.295,88.894 238.061,91.996 C237.838,92.291 237.681,92.63 237.599,92.991 C237.518,93.352 237.514,93.726 237.588,94.088 C238.352,97.753 245.7,98.949 248.186,95.752 C251.533,95.993 256.943,95.873 259.919,94.315 C261.172,96.66 263.185,98.509 265.627,99.558 C277.009,103.768 290.886,80.266 272.89,72.708 Z" id="Path" fill="#38A1FF"></path>
            <path d="M330.423,122.686 L330.423,167.279 L307.425,165.051 L305.105,215.562 L193.468,215.562 C195.409,193.826 198.727,172.235 203.404,150.92 C199.208,150.219 185.2,149.522 180.965,149.324 C145.397,147.66 127.344,148.193 74.7266,147.644 C76.505,165.367 79.6333,197.897 80.7357,215.564 L11.5695,215.564 C2.1928,188.665 -5.12045,155.887 6.0346,138.042 C11.6298,128.575 20.0132,121.067 30.0382,116.545 C40.0633,112.024 51.2404,110.71 62.0407,112.783 C62.0407,112.783 74.1047,142.693 101.819,130.879 C118.667,123.693 106.528,111.052 106.528,111.052 C116.657,112.463 149.432,114.38 160.839,131.079 C172.657,101.472 211.765,101.064 226.916,118.072 C222.904,152.463 260.223,146.504 267.984,122.307 C267.979,122.318 303.312,109.18 330.423,122.686 Z" id="Path" fill="#38A1FF"></path>
            <path d="M53.9578,215.572 C44.4959,180.183 53.1778,158.137 46.865,165.276 C45.6551,182.164 47.0505,199.137 51.0021,215.601 L53.9578,215.572 Z" id="Path" fill="#191919"></path>
            <path d="M193.468,215.563 C195.404,193.827 198.723,172.236 203.404,150.921 C160.801,147.04 117.548,148.359 74.7266,147.645 C78.56,188.27 80.4403,207.133 80.821,215.572 L78.0983,215.572 C76.0744,192.378 74.2003,168.951 71.9727,145.775 C82.1959,143.337 207.414,144.65 206.291,150.218 C202.239,170.419 196.188,214.282 196.142,215.563 L193.468,215.563 Z" id="Path" fill="#191919"></path>
            <path d="M194.177,69.174 C195.712,68.306 197.071,67.159 198.185,65.792 C197.217,65.001 196.385,64.056 195.724,62.994 C195.379,65.093 194.861,67.16 194.177,69.174 Z" id="Path" fill="#191919"></path>
            <path d="M266.401,120.339 C266.051,115.196 264.749,109.752 265.361,104.115 C278.193,106.464 290.616,110.664 302.241,116.585 C304.44,116.6 306.671,116.695 308.926,116.897 C296.623,109.771 283.174,103.315 269.179,102.089 C267.324,101.927 264.88,102.651 265.591,99.764 C265.596,99.694 265.605,99.625 265.618,99.556 C264.664,99.199 263.777,98.683 262.996,98.029 C262.203,109.039 262.303,123.807 266.401,120.339 Z" id="Path" fill="#191919"></path>
        </g>
    </g>
</svg>