<svg width="336" height="240" viewBox="0 0 336 240" fill="none" xmlns="http://www.w3.org/2000/svg">
<path d="M173.336 47.3114C173.059 47.1487 172.746 47.0539 172.425 47.0348C172.104 47.0158 171.783 47.0729 171.488 47.2016C171.193 47.3303 170.932 47.5269 170.728 47.7754C170.523 48.0238 170.38 48.3172 170.311 48.6314C170.153 49.2938 170.086 49.9748 170.112 50.6554C170.045 51.2377 170.14 51.8273 170.387 52.359C170.624 53.276 171.23 54.0275 172.384 53.767C173.65 53.4925 174.068 52.2622 174.181 51.1095C174.303 49.8423 174.565 48.1579 173.336 47.3114Z" fill="#191919"/>
<path d="M171.448 43.649C170.841 43.81 170.282 44.1136 169.816 44.5346C169.35 44.9555 168.992 45.4816 168.771 46.069C168.625 46.4896 169.197 46.773 169.485 46.4896C172.206 43.8496 173.167 45.6096 174.436 44.8581C175.17 44.4287 174.241 42.769 171.448 43.649Z" fill="#191919"/>
<path d="M181.878 65.6476C180.543 65.6597 179.219 65.8825 177.955 66.3076C176.746 66.598 176.089 67.2228 176.177 65.1883C176.237 63.8348 178.56 57.8526 178.597 53.8415C178.595 53.7479 178.562 53.6575 178.504 53.5838C178.446 53.5102 178.366 53.4571 178.276 53.4324C178.185 53.4077 178.089 53.4128 178.002 53.4469C177.915 53.4809 177.841 53.5422 177.791 53.6215C176.92 55.6767 176.256 57.8141 175.811 60.0016C174.975 63.2452 172.743 68.4742 176.269 68.3598C178.338 68.2416 180.353 67.6458 182.154 66.6191C182.249 66.5578 182.322 66.4675 182.362 66.3617C182.402 66.2558 182.407 66.1399 182.376 66.0311C182.345 65.9223 182.28 65.8263 182.19 65.7572C182.1 65.6882 181.991 65.6498 181.878 65.6476Z" fill="#191919"/>
<path d="M183.326 70.577C183.273 70.526 183.208 70.4892 183.137 70.47C183.066 70.4509 182.991 70.4501 182.92 70.4677C182.849 70.4853 182.783 70.5207 182.729 70.5706C182.675 70.6205 182.635 70.6832 182.611 70.753C182.354 71.5609 182.52 72.4409 182.281 73.2469C182.105 73.8658 181.776 74.4304 181.325 74.8885C180.873 75.3465 180.313 75.6833 179.697 75.8676C177.002 76.5716 175.825 74.2009 174.839 72.2754C174.79 72.1985 174.721 72.1371 174.638 72.0983C174.556 72.0596 174.464 72.0451 174.373 72.0565C174.283 72.0679 174.198 72.1049 174.127 72.1629C174.057 72.221 174.005 72.2979 173.977 72.3845C173.134 75.4469 177.259 77.9215 179.88 77.39C182.245 76.9394 185.82 72.7594 183.326 70.577Z" fill="#191919"/>
<path d="M310.106 125.406C309.622 119.1 310.574 112.776 310.783 106.47C310.777 106.226 310.684 105.991 310.52 105.809C310.357 105.627 310.134 105.509 309.892 105.476C309.649 105.443 309.403 105.497 309.197 105.629C308.991 105.761 308.838 105.962 308.767 106.196C307.717 111.357 307.245 116.62 307.359 121.886C307.38 133.3 313.144 146.376 306.809 180.015C304.889 190.223 299.931 209.43 294.252 218.144C291.135 222.928 285.948 227.051 279.996 227.035C268.408 227 260.284 211.94 255.18 200.565C252.672 194.989 250.873 189.125 248.668 183.424C248.356 182.618 247.084 182.93 247.348 183.79C251.609 197.992 259.643 222.269 273.415 228.153C276.043 229.28 278.914 229.72 281.758 229.432C284.602 229.143 287.327 228.136 289.674 226.504C294.718 223.116 297.781 217.963 300.069 212.461C308.127 192.413 312.277 171.009 312.295 149.402C312.295 136.895 310.683 132.937 310.106 125.406Z" fill="#191919"/>
<path d="M290.528 109.68C290.361 108.928 289.368 109.183 289.282 109.843C288.653 114.678 288.472 119.467 287.559 124.275C284.039 142.803 281.11 144.271 276.266 156.209C272.289 166.012 268.422 181.672 269.754 192.248C269.85 193 271.025 193.35 271.221 192.451C272.426 186.938 272.343 181.176 273.403 175.641C278.248 150.327 286.35 148.313 289.771 125.558C290.531 120.528 291.645 114.687 290.528 109.68Z" fill="#191919"/>
<path d="M275.698 62.1078C278.921 63.9856 282.279 65.6216 285.744 67.0024C286.435 66.27 287.196 65.6068 288.016 65.0224C284.275 63.1421 280.308 61.7502 276.212 60.8811C276.056 60.8414 275.89 60.8591 275.746 60.931C275.602 61.0029 275.488 61.1242 275.426 61.2729C275.364 61.4215 275.357 61.5876 275.407 61.7409C275.457 61.8941 275.56 62.0244 275.698 62.1078Z" fill="#191919"/>
<path d="M334.065 93.9121C331.97 90.0715 328.838 86.8962 325.027 84.7478C322.718 83.2412 320.353 81.7963 317.97 80.4023C317.107 81.0688 316.279 81.7784 315.488 82.5284C322.759 86.7419 332.708 91.6241 332.187 99.8697C331.877 104.784 327.917 106.999 323.297 105.854C318.619 104.687 314.244 102.096 308.193 99.0707C307.825 100.005 307.476 100.959 307.11 101.876C308.21 102.425 309.33 102.974 310.428 103.508C314.81 105.63 319.503 108.485 324.415 109.117C333.15 110.231 337.395 101.156 334.065 93.9121Z" fill="#191919"/>
<path d="M277.183 82.4198C273.487 80.3482 269.765 78.282 266 76.3513C265.797 76.2457 265.561 76.2225 265.341 76.2863C265.121 76.3501 264.934 76.496 264.818 76.694C264.703 76.8919 264.668 77.1266 264.721 77.3495C264.774 77.5724 264.911 77.7663 265.103 77.8913C268.684 80.4855 272.398 82.9143 276.212 85.2234C276.523 84.2713 276.835 83.3367 277.183 82.4198Z" fill="#191919"/>
<path d="M236.598 43.8323C238.886 44.9464 240.669 47.1622 243.031 47.9753C243.453 48.1214 243.763 47.6462 243.673 47.2977C243.004 44.7158 239.493 42.9188 237.201 41.8716C234.337 40.5605 231.223 39.885 228.072 39.8916C224.512 40.0336 221.01 40.8482 217.752 42.2923C215.129 43.3483 212.151 44.6788 210.897 47.3347C210.721 47.7201 211.175 48.2534 211.574 47.9577C218.971 42.4683 228.157 39.7438 236.598 43.8323Z" fill="#191919"/>
<path d="M243.655 49.0384C241.594 50.8024 239.28 52.2481 236.791 53.3275C234.187 54.23 231.452 54.7008 228.695 54.7214C223.026 54.5781 217.498 52.9269 212.679 49.9377C212.548 49.8693 212.396 49.8501 212.252 49.8834C212.107 49.9168 211.979 50.0006 211.891 50.1198C211.803 50.239 211.76 50.3857 211.77 50.5337C211.781 50.6816 211.843 50.821 211.947 50.9268C221.821 60.4784 242.117 57.7715 244.887 49.8814C245.107 49.2478 244.187 48.6547 243.655 49.0384Z" fill="#191919"/>
<path d="M225.214 45.0059C224.816 45.2402 224.489 45.5788 224.27 45.9851C224.05 46.3915 223.946 46.8501 223.968 47.3115C223.875 47.7113 223.871 48.1266 223.956 48.5281C224.041 48.9296 224.213 49.3077 224.459 49.636C224.705 49.9643 225.02 50.2347 225.382 50.4285C225.744 50.6222 226.144 50.7345 226.553 50.7576C227.123 50.7699 227.685 50.6156 228.168 50.3137C228.652 50.0118 229.037 49.5754 229.276 49.0579C229.516 48.5404 229.599 47.9644 229.516 47.4003C229.432 46.8363 229.186 46.3088 228.808 45.8824C228.377 45.3767 227.798 45.0197 227.153 44.8623C226.508 44.7049 225.829 44.7552 225.214 45.0059Z" fill="#191919"/>
<path d="M214.93 40.2213C218.659 37.6313 223.043 36.1447 227.578 35.9322C232.124 35.9868 235.119 38.845 239.218 40.1122C239.584 40.2249 239.968 39.7285 239.713 39.4082C238.202 37.7946 236.381 36.5019 234.359 35.6075C232.337 34.713 230.156 34.2351 227.946 34.2021C222.974 34.3312 218.2 36.1769 214.434 39.4258C214.329 39.4916 214.254 39.5967 214.225 39.7178C214.197 39.8389 214.219 39.9662 214.284 40.0717C214.35 40.1772 214.455 40.2523 214.576 40.2803C214.698 40.3084 214.825 40.2872 214.93 40.2213Z" fill="#191919"/>
<path d="M246.019 55.0144C232.967 66.208 230.431 68.371 228.201 70.8544C228.106 70.9528 228.053 71.084 228.053 71.2205C228.053 71.357 228.106 71.4882 228.201 71.5865C228.34 71.729 228.524 71.8181 228.722 71.8384C228.92 71.8587 229.118 71.8088 229.283 71.6974C233.014 68.9888 235.373 66.3822 246.825 55.7677C247.332 55.296 246.556 54.5533 246.019 55.0144Z" fill="#191919"/>
<path d="M230.052 62.4758C229.972 62.3873 229.859 62.3338 229.74 62.3269C229.62 62.32 229.502 62.3602 229.412 62.4389C221.809 69.1374 220.46 70.1706 218.834 71.9886C218.412 72.4621 219.144 72.9954 219.64 72.6486C221.09 71.5666 222.451 70.3713 223.711 69.0741C224.112 68.6886 228.495 64.565 230.047 63.0443C230.12 62.9678 230.161 62.8666 230.162 62.7611C230.163 62.6556 230.124 62.5537 230.052 62.4758Z" fill="#191919"/>
<path d="M189.296 82.4579C187.566 82.4925 185.855 82.8211 184.236 83.4294C182.201 84.0208 180.102 84.3653 177.984 84.4555C174.824 84.6363 171.704 83.6659 169.204 81.724C164.209 77.4894 166.055 69.5518 166.784 60.8257C166.844 60.1112 166.089 59.7469 165.501 59.8542C161.453 60.6005 156.868 58.4621 156.537 53.9529C156.446 53.0214 156.617 52.0828 157.032 51.2438C157.447 50.4048 158.089 49.699 158.885 49.2063C159.681 48.7137 160.599 48.4541 161.535 48.4568C162.471 48.4596 163.388 48.7247 164.181 49.2221C164.309 49.2958 164.455 49.3345 164.603 49.3342C164.751 49.334 164.896 49.2948 165.024 49.2207C165.153 49.1465 165.259 49.04 165.333 48.9117C165.407 48.7834 165.446 48.638 165.446 48.4899C165.634 45.6105 166.124 42.7523 166.546 39.9099C170.984 41.8112 175.808 42.6403 180.626 42.3299C180.883 42.3299 181.14 42.3123 181.378 42.3123C182.871 33.8352 185.929 25.7103 190.398 18.3534C186.174 13.5504 182.516 8.08382 176.777 5.0267C174.939 4.03152 172.909 3.44007 170.824 3.29186C168.738 3.14365 166.646 3.44209 164.685 4.16723C162.724 4.89238 160.941 6.02756 159.454 7.49693C157.967 8.9663 156.81 10.7361 156.062 12.688C152.399 21.5654 156.13 33.4313 164.842 38.9753C164.361 41.6798 164.03 44.4092 163.853 47.1505C162.827 46.7319 161.713 46.5711 160.61 46.6823C159.507 46.7934 158.448 47.1731 157.526 47.7882C156.603 48.4033 155.845 49.2349 155.319 50.2105C154.792 51.1861 154.512 52.2758 154.504 53.3845C154.397 59.0481 159.508 62.2742 164.622 61.9821C163.853 69.1488 161.835 78.7021 168.308 83.6494C170.679 85.3827 173.513 86.3715 176.448 86.4901C176.467 88.0125 176.652 89.5155 176.596 91.0361C176.43 93.2029 175.818 95.3121 174.799 97.2314C174.705 97.4052 174.676 97.6066 174.717 97.7999C174.758 97.9931 174.866 98.1655 175.022 98.2866C175.178 98.4076 175.372 98.4693 175.569 98.4607C175.767 98.4522 175.954 98.3739 176.099 98.2398C178.915 95.6262 179.016 90.3022 177.896 86.527C181.654 86.4725 186.784 85.7773 189.629 83.3009C189.696 83.2328 189.743 83.1463 189.762 83.0521C189.782 82.9579 189.773 82.8601 189.738 82.7706C189.703 82.6812 189.642 82.6039 189.564 82.5484C189.485 82.4928 189.392 82.4614 189.296 82.4579ZM164.536 30.8177C159.816 29.2056 156.217 19.3549 160.339 12.9819C160.613 12.5595 161.34 12.8323 161.164 13.3339C160.056 16.2698 159.872 19.4741 160.636 22.5176C161.447 25.6856 163.514 27.4192 165.128 30.0697C165.172 30.1593 165.189 30.2595 165.179 30.3587C165.168 30.458 165.13 30.5522 165.068 30.6305C165.006 30.7088 164.923 30.7679 164.829 30.8011C164.735 30.8342 164.634 30.84 164.536 30.8177Z" fill="#191919"/>
<path d="M66.7772 16.7216C65.1361 16.1524 63.3854 15.9717 61.6627 16.1936C51.6553 16.433 36.1919 17.1282 21.6631 18.3056C19.5601 18.3346 17.4703 18.643 15.4486 19.2226C14.9206 19.425 14.7886 20.3965 15.4486 20.525C19.4631 21.2941 24.0638 20.305 28.1206 20.048C65.3551 17.7389 64.2006 19.0202 66.7825 17.7019C66.8624 17.6474 66.9277 17.574 66.9727 17.4883C67.0177 17.4026 67.0409 17.3072 67.0404 17.2104C67.0399 17.1136 67.0156 17.0184 66.9697 16.9332C66.9238 16.848 66.8577 16.7753 66.7772 16.7216Z" fill="#191919"/>
<path d="M66.7208 27.4236C64.8198 26.8955 62.8412 26.7031 60.874 26.8551C52.0001 26.7055 38.8741 26.9044 28.5376 27.6066C24.4257 27.729 20.3304 28.1828 16.2915 28.9636C15.723 29.1114 15.8885 29.9896 16.42 30.0196C22.7049 30.5053 35.7342 28.7136 60.874 29.1396C62.8275 29.3612 64.8045 29.2499 66.7208 28.8104C66.8603 28.7559 66.9802 28.6606 67.0646 28.5369C67.1491 28.4132 67.1943 28.2668 67.1943 28.117C67.1943 27.9672 67.1491 27.8209 67.0646 27.6971C66.9802 27.5734 66.8603 27.4781 66.7208 27.4236Z" fill="#191919"/>
<path d="M66.7209 37.0688C64.7794 36.7388 62.7962 36.7388 60.8548 37.0688C48.2796 37.9224 38.5362 37.8942 30.0037 37.8942C25.9892 37.8942 21.6085 37.3257 17.6485 37.9857C16.9885 38.0949 17.0431 39.2177 17.6485 39.3603C21.5346 40.3494 26.0261 40.0203 30.0037 40.1294C36.2764 40.3054 48.3324 40.1576 60.8548 39.4149C62.8416 39.5051 64.8284 39.238 66.7209 38.6264C67.3633 38.336 67.5041 37.2888 66.7209 37.0688Z" fill="#191919"/>
<path d="M99.9566 20.1847C99.5089 19.6719 98.8999 19.327 98.2298 19.207C97.5598 19.087 96.8689 19.1991 96.2711 19.5247L97.0772 19.9102C96.6868 20.024 96.3284 20.2274 96.0305 20.5042C95.7325 20.7809 95.5033 21.1233 95.3609 21.5042C95.2186 21.8851 95.1671 22.294 95.2105 22.6983C95.2539 23.1026 95.3911 23.4912 95.6111 23.8332C95.8754 24.1456 96.2031 24.3982 96.5725 24.5742C96.9418 24.7503 97.3444 24.8459 97.7535 24.8545C98.1626 24.8632 98.5689 24.7847 98.9453 24.6244C99.3218 24.4641 99.6599 24.2256 99.9372 23.9247C100.363 23.3953 100.596 22.7373 100.6 22.0581C100.603 21.3789 100.377 20.7185 99.9566 20.1847Z" fill="#38A1FF"/>
<path d="M100.944 20.1676C100.027 18.5554 97.1107 17.422 95.9033 19.3052C95.8624 19.368 95.8406 19.4414 95.8406 19.5164C95.8406 19.5914 95.8624 19.6647 95.9033 19.7276C95.2994 20.1251 94.8417 20.7089 94.6 21.3904C94.3582 22.0718 94.3456 22.8135 94.564 23.5028C94.743 23.9458 95.0103 24.3477 95.3497 24.684C95.6891 25.0204 96.0934 25.2841 96.538 25.4591C96.9826 25.6342 97.4582 25.7169 97.9358 25.7022C98.4134 25.6875 98.883 25.5757 99.3159 25.3737C99.7781 25.1533 100.19 24.8399 100.525 24.4531C100.861 24.0663 101.113 23.6144 101.266 23.1257C101.418 22.6371 101.469 22.1221 101.413 21.6131C101.358 21.1041 101.198 20.612 100.944 20.1676ZM98.6718 23.8512C98.2246 24.0786 97.7072 24.1256 97.2264 23.9824C96.7456 23.8393 96.3381 23.517 96.0881 23.0821C95.9133 22.5849 95.9334 22.0399 96.1444 21.5569C96.3553 21.0739 96.7415 20.6887 97.2251 20.4791C97.3368 20.4486 97.4367 20.385 97.5118 20.2968C97.5868 20.2085 97.6335 20.0997 97.6457 19.9845C98.1137 19.9624 98.5751 20.1014 98.953 20.3783C99.331 20.6552 99.6026 21.0532 99.7226 21.5061C99.8426 21.959 99.8038 22.4393 99.6125 22.867C99.4213 23.2947 99.0893 23.644 98.6718 23.8565V23.8512Z" fill="#191919"/>
<path d="M112.56 20.1676C111.643 18.5554 108.727 17.422 107.519 19.3052C107.479 19.3682 107.457 19.4415 107.457 19.5164C107.457 19.5913 107.479 19.6646 107.519 19.7276C106.916 20.1255 106.459 20.7095 106.217 21.3909C105.976 22.0722 105.963 22.8137 106.182 23.5028C106.361 23.9458 106.628 24.3477 106.968 24.684C107.307 25.0204 107.711 25.2841 108.156 25.4591C108.6 25.6342 109.076 25.7169 109.554 25.7022C110.031 25.6875 110.501 25.5757 110.934 25.3737C111.396 25.1531 111.807 24.8396 112.143 24.4527C112.478 24.0659 112.73 23.614 112.882 23.1253C113.035 22.6366 113.085 22.1217 113.03 21.6128C112.974 21.1039 112.814 20.6119 112.56 20.1676ZM110.272 23.8512C109.825 24.0782 109.307 24.1249 108.827 23.9818C108.346 23.8387 107.939 23.5167 107.688 23.0821C107.513 22.5849 107.534 22.0399 107.745 21.5569C107.956 21.0739 108.342 20.6887 108.825 20.4791C108.937 20.4486 109.037 20.385 109.112 20.2968C109.187 20.2085 109.234 20.0997 109.246 19.9845C109.616 19.9715 109.983 20.058 110.309 20.2351C110.635 20.4121 110.907 20.6733 111.097 20.9912C111.24 21.2311 111.332 21.4975 111.367 21.7742C111.403 22.0509 111.381 22.3319 111.304 22.5999C111.226 22.8679 111.095 23.1172 110.917 23.3324C110.74 23.5476 110.52 23.7242 110.272 23.8512Z" fill="#191919"/>
<path d="M124.176 20.1677C123.261 18.5538 120.364 17.4362 119.135 19.3053C119.095 19.3683 119.073 19.4416 119.073 19.5165C119.073 19.5914 119.095 19.6647 119.135 19.7277C118.531 20.1252 118.074 20.7092 117.833 21.3907C117.591 22.0721 117.579 22.8138 117.798 23.5029C117.977 23.9459 118.244 24.3478 118.584 24.6841C118.923 25.0205 119.327 25.2842 119.772 25.4592C120.216 25.6343 120.692 25.717 121.17 25.7023C121.647 25.6876 122.117 25.5758 122.55 25.3738C123.012 25.154 123.425 24.8409 123.761 24.4542C124.097 24.0674 124.349 23.6154 124.502 23.1264C124.654 22.6375 124.704 22.1222 124.648 21.613C124.592 21.1038 124.431 20.6117 124.176 20.1677Z" fill="#191919"/>
<path d="M134.968 73.6566C132.401 63.0765 127.895 53.0638 121.679 44.1256C120.654 42.5838 119.429 39.9192 117.455 39.6341C117.352 39.6111 117.245 39.6147 117.144 39.6447C117.044 39.6746 116.952 39.7299 116.879 39.8053C116.805 39.8806 116.752 39.9735 116.725 40.0751C116.698 40.1767 116.697 40.2836 116.723 40.3856C117.482 42.2456 118.561 43.9581 119.912 45.4456C127.768 57.0352 129.528 63.0174 133.861 73.9682C133.882 74.0409 133.916 74.1088 133.963 74.1681C134.01 74.2275 134.068 74.277 134.134 74.3139C134.2 74.3509 134.272 74.3745 134.347 74.3834C134.422 74.3923 134.498 74.3864 134.571 74.3659C134.643 74.3455 134.711 74.3109 134.771 74.2642C134.83 74.2175 134.88 74.1595 134.916 74.0937C134.953 74.0278 134.977 73.9553 134.986 73.8803C134.995 73.8053 134.989 73.7293 134.968 73.6566Z" fill="#191919"/>
<path d="M112.623 64.5593C112.672 63.9672 112.85 63.3932 113.146 62.8779C113.441 62.3625 113.847 61.9185 114.333 61.5774C114.819 61.2362 115.375 61.0063 115.96 60.9039C116.545 60.8014 117.145 60.829 117.719 60.9847C122.962 62.4103 123.806 70.4887 126.922 75.4484C126.98 75.5419 127.067 75.6141 127.17 75.6544C127.273 75.6947 127.386 75.7009 127.493 75.6721C127.599 75.6433 127.694 75.5811 127.762 75.4946C127.831 75.408 127.87 75.3018 127.874 75.1914C127.642 72.0521 126.749 68.9973 125.253 66.2277C124.345 63.7832 122.778 61.6381 120.725 60.0308C116.853 57.4013 111.173 59.3497 111.467 64.5417C111.473 64.6898 111.535 64.8302 111.641 64.9338C111.747 65.0375 111.889 65.0965 112.037 65.0988C112.185 65.101 112.329 65.0463 112.438 64.946C112.547 64.8456 112.613 64.7072 112.623 64.5593Z" fill="#191919"/>
<path d="M105.143 71.7754C105.25 70.7349 105.628 69.7406 106.24 68.8917C106.851 68.0427 107.674 67.3688 108.626 66.9372C111.103 66.1522 113.285 68.3276 114.713 70.0524C117.377 73.2749 118.706 77.0396 120.487 80.7584C120.545 80.8528 120.633 80.9257 120.736 80.9665C120.839 81.0073 120.953 81.0138 121.06 80.9849C121.167 80.9561 121.262 80.8934 121.33 80.8064C121.399 80.7193 121.438 80.6124 121.441 80.5015C121.169 77.6395 120.28 74.8707 118.833 72.3862C117.387 69.9018 115.418 67.761 113.063 66.1117C108.625 63.4577 104.577 67.0639 104.246 71.6293C104.207 72.1538 105.054 72.2647 105.143 71.7754Z" fill="#191919"/>
<path d="M103.566 88.3769C102.094 85.5685 101.015 82.5706 100.36 79.4678C100.032 77.4315 100.231 75.448 102.174 75.2438C105.124 74.9446 108.134 78.4875 109.8 80.5784C112.088 83.456 113.767 86.7683 115.813 89.8184C116.106 90.2566 116.932 89.9944 116.73 89.433C114.635 83.5792 110.665 76.3561 104.649 73.7601C103.917 73.425 103.112 73.2779 102.309 73.3323C101.506 73.3867 100.729 73.6409 100.048 74.0717C96.4983 76.5357 99.2404 82.8153 100.451 85.7123C101.829 88.9464 103.427 92.0819 105.235 95.0966C105.803 95.079 106.39 95.0421 106.958 95.0245C105.749 92.8315 104.612 90.6069 103.566 88.3769Z" fill="#191919"/>
<path d="M127.965 191.857C125.397 196.769 122.981 202.162 119.461 206.504C112.966 214.513 99.6204 222.947 90.0689 217.521C84.7009 214.471 82.8934 206.924 82.1859 201.225C81.6416 195.281 82.1444 189.287 83.6713 183.516C89.43 158.405 100.798 144.011 111.405 117.377C113.341 112.5 114.725 106.495 111.205 102.053C111.127 101.947 111.027 101.859 110.911 101.796C110.453 101.813 109.976 101.833 109.517 101.87C109.628 102.033 109.737 102.181 109.83 102.345C109.807 102.504 109.84 102.666 109.922 102.804C112.725 108.634 110.23 114.644 107.593 120.052C104.878 125.623 102.561 131.348 99.9126 136.948C90.9577 155.889 74.47 184.243 80.6828 207.102C82.1524 212.509 84.4791 217.915 89.8348 220.374C100.486 225.269 113.252 217.512 120.614 209.191C124.644 204.279 127.632 198.597 129.394 192.492C129.44 192.311 129.42 192.119 129.338 191.951C129.256 191.783 129.118 191.65 128.947 191.574C128.776 191.498 128.584 191.484 128.404 191.536C128.225 191.588 128.069 191.702 127.965 191.857Z" fill="#191919"/>
<path d="M138.157 15.2357C138.093 12.3226 137.189 9.49006 135.554 7.07809C132.224 3.00369 125.931 1.98818 121.073 1.37746C112.175 0.527261 103.215 0.55202 94.3211 1.45138C94.1126 1.48256 93.9222 1.58757 93.7846 1.7473C93.647 1.90703 93.5713 2.11086 93.5713 2.32169C93.5713 2.53253 93.647 2.73636 93.7846 2.89609C93.9222 3.05581 94.1126 3.16083 94.3211 3.19201C105.119 3.54401 116.647 2.0445 127.172 5.0805C129.792 5.60961 132.171 6.97293 133.953 8.96657C136.01 11.8054 135.868 16.2424 136.172 19.6163C137.946 39.3829 137.795 59.0192 137.49 79.5232C137.729 83.1473 137.514 86.7871 136.85 90.3578C135.75 94.316 132.304 95.4477 128.638 95.8138C102.908 98.4291 31.6334 98.8093 11.36 95.0077C8.06 94.3899 4.98528 93.0453 3.93632 89.527C2.88032 85.9701 3.4312 81.607 3.42416 77.9603C3.30976 29.3087 3.20944 25.9259 3.1672 17.7965C3.15136 14.6989 2.72544 10.5805 4.89024 8.04433C6.9776 5.60497 10.6982 5.75633 13.6163 5.55217C34.2576 4.11425 54.9904 3.45602 75.6669 2.92978C77.6469 2.8805 79.5723 2.63938 81.533 2.41762C81.6588 2.39968 81.774 2.33694 81.8573 2.24091C81.9406 2.14489 81.9865 2.02202 81.9865 1.89489C81.9865 1.76776 81.9406 1.6449 81.8573 1.54887C81.774 1.45285 81.6588 1.39011 81.533 1.37217C70.8744 0.303852 59.9026 1.0941 49.1965 1.31762C37.8498 1.55346 26.503 1.94593 15.1739 2.76433C10.0699 3.13393 3.72336 3.33634 1.66416 9.05282C0.833606 12.1887 0.554304 15.445 0.838721 18.6765C0.872161 25.3944 1.08336 77.5415 1.13264 84.3034C1.15376 87.4379 1.30864 90.7872 3.29568 93.3392C5.0574 95.3567 7.46953 96.6941 10.1139 97.1197C19.4666 99.1507 74.3786 102.292 124.025 98.6051C127.379 98.3552 131.103 98.4063 134.233 96.9912C140.542 94.14 139.831 86.2869 139.896 80.4191C140.12 60.3251 140.521 37.1037 138.157 15.2357Z" fill="#191919"/>
<path d="M275.276 142.07C270.877 133.192 265.484 124.843 259.2 117.184C252.861 109.498 244.527 103.707 235.112 100.446C230.008 98.8409 226.469 98.4608 201.822 94.8369L201.181 95.2399C195.607 100.814 193.39 101.902 184.285 101.363C182.162 101.365 180.056 100.98 178.071 100.226C176.471 99.4984 175.123 98.3118 174.199 96.8169L173.778 96.2889C162.164 95.5403 150.571 98.0479 140.305 103.53C135.94 110.042 132.14 115.508 130.681 122.796C126.339 144.469 129.449 154.124 129.563 172.638C130.488 166.019 132.053 159.506 134.238 153.19C134.282 153.032 134.386 152.898 134.529 152.817C134.671 152.736 134.84 152.715 134.998 152.759C135.156 152.802 135.291 152.907 135.371 153.049C135.452 153.192 135.473 153.361 135.43 153.519C131.758 166.985 130.363 181.327 129.343 184.078C129.433 184.13 129.518 184.189 129.599 184.254C126.703 207.699 127.784 212.264 127.784 239.247C189.014 237.561 184.456 238.97 251.758 239.229C250.31 207.461 249.338 211.805 245.422 181.596C253.32 175.97 261.574 170.863 270.133 166.307C271.562 161.907 273.361 157.583 274.899 153.255C275.707 150.983 276.622 148.746 277.574 146.528C276.835 145.039 276.064 143.555 275.276 142.07ZM246.093 174.15C246.064 174.243 246.009 174.326 245.934 174.389C245.859 174.451 245.767 174.491 245.67 174.502C245.573 174.514 245.475 174.497 245.387 174.454C245.299 174.41 245.226 174.343 245.176 174.259C244.461 172.357 244.017 170.364 243.856 168.338C241.568 155.214 240.848 153.045 240.612 148.834C240.575 148.193 241.462 148.17 241.656 148.688C243.014 153.023 243.983 157.47 244.553 161.977C244.954 164.214 245.303 166.465 245.634 168.704C246.046 170.488 246.201 172.322 246.093 174.15Z" fill="#38A1FF"/>
<path d="M291.499 66.9486C291.547 66.8613 291.569 66.7619 291.562 66.6624C291.555 66.563 291.519 66.4677 291.459 66.3882C291.399 66.3086 291.317 66.2483 291.223 66.2143C291.129 66.1804 291.028 66.1744 290.931 66.1971C288.417 66.8887 286.499 69.3527 285.028 71.3855C281.65 76.4478 279.55 82.2531 278.906 88.3044C278.173 91.9048 278.241 95.6226 279.107 99.1935C279.311 99.7972 280.385 99.9627 280.501 99.1935C280.957 96.147 280.647 93.0159 280.959 89.9359C281.497 83.9432 283.361 78.1451 286.415 72.9607C287.867 70.7203 289.987 69.1239 291.499 66.9486Z" fill="#191919"/>
<path d="M298.592 70.4686C299.085 70.0075 298.416 69.0818 297.858 69.5147C293.228 73.128 290.584 78.7371 288.491 84.0699C287.25 87.2526 286.209 90.5096 285.374 93.8221C284.417 96.8471 284.031 100.024 284.237 103.191C284.327 103.905 285.45 104.236 285.631 103.367C286.692 97.4336 288.15 91.5784 289.994 85.8405C291.923 80.3862 294.252 74.5202 298.592 70.4686Z" fill="#191919"/>
<path d="M307.795 74.4456C307.941 74.3594 308.047 74.2193 308.09 74.0556C308.133 73.8919 308.11 73.7177 308.026 73.5709C307.942 73.424 307.803 73.3162 307.64 73.2707C307.477 73.2253 307.302 73.2458 307.154 73.328C301.698 76.0472 299.363 82.7493 296.962 87.9553C295.554 91.0177 294.155 94.0784 292.738 97.139C291.693 99.4129 290.005 101.979 289.732 104.491C289.678 105.004 290.392 105.223 290.723 104.894C292.246 102.925 293.423 100.712 294.206 98.3499C295.523 95.4705 296.846 92.6088 298.164 89.7347C300.597 84.4846 302.742 77.7597 307.795 74.4456Z" fill="#191919"/>
<path d="M315.861 76.3709C312.165 76.5715 309.268 80.1144 307.446 83.0061C305.676 86.1289 304.192 89.4053 303.011 92.7952C301.363 96.1637 299.889 99.6143 298.594 103.133C298.52 103.39 298.833 103.686 299.088 103.501C300.848 101.94 302.185 99.9601 302.974 97.7443C305.861 91.484 307.057 86.116 310.637 81.8515C311.753 80.3156 313.286 79.1323 315.055 78.4424C317.382 77.7754 318.005 79.1939 319.289 80.697C319.35 80.7565 319.424 80.8015 319.505 80.8287C319.586 80.8558 319.672 80.8644 319.756 80.8537C319.841 80.8431 319.922 80.8135 319.993 80.7671C320.065 80.7208 320.125 80.6589 320.169 80.5861C321.354 78.1362 317.896 76.26 315.861 76.3709Z" fill="#191919"/>
<path d="M51.7521 79.4823C49.7999 81.6792 47.1462 83.1312 44.2434 83.5907C41.3406 84.0503 38.3682 83.4891 35.8329 82.0026C26.1529 76.3917 27.9551 62.3839 36.1004 58.3605C38.8579 57.015 42.0122 56.7246 44.969 57.5439C52.9207 59.8072 56.0095 69.3816 49.8407 75.378C48.658 76.5431 47.0863 77.3791 46.2415 75.9306C45.6609 74.6149 45.434 73.1704 45.5833 71.74C45.5463 69.3034 45.7176 66.8681 46.0954 64.4607C46.1271 64.2518 46.1084 64.0383 46.0407 63.8381C45.973 63.638 45.8584 63.4569 45.7064 63.3101C45.5545 63.1633 45.3695 63.055 45.1672 62.9943C44.9648 62.9336 44.7508 62.9222 44.5431 62.9612C41.8873 60.1117 35.5319 60.9671 33.3653 66.9651C32.4725 69.7296 32.5802 72.7201 33.6698 75.4131C34.155 76.2905 34.875 77.0153 35.749 77.5063C36.623 77.9973 37.6166 78.2352 38.6183 78.1932C39.6199 78.1511 40.59 77.8309 41.4199 77.2683C42.2497 76.7058 42.9064 75.9232 43.3164 75.0083C44.1964 79.5474 48.2268 81.0258 52.3135 76.4163C53.5604 75.0636 54.5006 73.4576 55.0698 71.7082C55.6391 69.9587 55.824 68.107 55.612 66.2795C55.4 64.452 54.796 62.6918 53.8412 61.1192C52.8865 59.5466 51.6036 58.1985 50.0801 57.1672C47.0186 54.998 43.2436 54.0813 39.5282 54.6048C35.8128 55.1283 32.4381 57.0525 30.0953 59.9832C27.5539 63.2337 26.3134 67.3137 26.6153 71.4287C26.9172 75.5437 28.74 79.399 31.7285 82.2437C37.9959 87.8968 48.5823 87.9267 53.5525 80.8709C54.3393 79.7709 52.6039 78.4421 51.7521 79.4823ZM43.3041 65.0907C42.9855 66.4987 41.4103 73.7499 40.4775 74.8587C40.0356 75.3375 39.4424 75.6495 38.7975 75.7425C38.1527 75.8354 37.4955 75.7036 36.9364 75.3691C36.4108 74.993 35.986 74.4933 35.6993 73.9141C35.4126 73.3349 35.2729 72.694 35.2925 72.048C34.6818 66.8455 37.8393 63.8218 40.5514 63.8218C41.0803 63.7851 41.6099 63.8817 42.0917 64.1028C42.5736 64.3239 42.9922 64.6624 43.3093 65.0872L43.3041 65.0907Z" fill="#38A1FF"/>
<path d="M247.904 4.74921C238.685 0.16265 227.592 -0.80887 218.244 3.90617C217.292 4.38665 217.95 6.03049 218.977 5.64857C227.326 2.54089 236.548 2.74428 244.752 6.21706C266.949 15.6735 279.169 49.4919 262.405 73.801C257.333 80.9992 250.187 86.4792 241.92 89.5092C233.652 92.5392 224.657 92.9751 216.136 90.7587C207.964 88.4742 200.66 83.8039 195.158 77.3452C189.656 70.8866 186.205 62.9332 185.248 54.5026C184.12 44.2755 186.212 33.9513 191.232 24.9699C195.893 16.6513 203.328 10.2349 212.239 6.84186C212.414 6.79331 212.563 6.67721 212.652 6.51911C212.742 6.36101 212.765 6.17386 212.716 5.99882C212.668 5.82377 212.552 5.67518 212.393 5.58573C212.235 5.49628 212.048 5.47331 211.873 5.52185C198.999 7.70074 183.84 23.9702 182.594 47.6263C182.107 56.8081 184.449 65.9181 189.304 73.7267C194.159 81.5352 201.292 87.6662 209.742 91.2919C218.305 94.8085 227.732 95.65 236.782 93.7057C245.833 91.7614 254.082 87.1224 260.446 80.3993C282.859 56.2732 272.349 16.9108 247.904 4.74921Z" fill="#191919"/>
<path d="M242.904 16.2432C239.57 14.4688 235.871 13.4892 232.097 13.3811C228.322 13.273 224.573 14.0394 221.143 15.6202C220.448 15.9722 220.925 17.1795 221.671 16.9032C227.795 14.6406 234.55 14.7847 240.572 17.3063C256.848 24.2037 265.791 49.0373 253.513 66.8731C249.796 72.1538 244.556 76.1747 238.493 78.399C232.43 80.6233 225.833 80.9452 219.582 79.3216C213.591 77.6476 208.235 74.2247 204.199 69.4907C200.163 64.7566 197.631 58.9264 196.926 52.7456C196.091 45.2431 197.623 37.6673 201.306 31.0783C204.72 24.9718 210.179 20.2656 216.722 17.7885C216.847 17.7484 216.951 17.6615 217.012 17.5462C217.074 17.431 217.089 17.2962 217.053 17.1704C217.018 17.0445 216.935 16.9374 216.822 16.8714C216.709 16.8055 216.575 16.786 216.448 16.817C206.986 18.4256 195.901 30.3936 194.976 47.705C194.618 54.4397 196.336 61.1219 199.896 66.8499C203.456 72.5778 208.688 77.0758 214.885 79.737C221.161 82.3181 228.073 82.9377 234.709 81.5142C241.344 80.0907 247.394 76.6909 252.059 71.7624C268.561 54.0111 260.819 25.1347 242.904 16.2432Z" fill="#191919"/>
<path d="M198.413 89.5868C198.151 88.5431 197.936 87.4748 197.753 86.4188C196.996 85.7212 196.281 84.9808 195.609 84.2012C195.823 86.3076 196.184 88.3965 196.69 90.4527C197.188 92.4503 197.733 95.0375 199.696 96.0847C200.007 96.2501 200.521 96.0477 200.484 95.6447C200.287 93.5098 198.934 91.6636 198.413 89.5868Z" fill="#191919"/>
<path d="M141.732 84.0508C141.568 84.8023 141.639 85.8829 141.44 86.6169C141.344 87.2677 141.203 87.9111 141.017 88.5423C141.054 88.7429 141.002 88.3399 141.017 88.5423C141.512 95.0033 134.398 100.574 130.442 109.53C125.927 119.749 125.367 130.216 123.915 140.878C122.397 152.02 120.621 180.421 116.472 190.665C114.127 196.173 111.024 201.327 107.252 205.977C107.152 206.088 107.099 206.234 107.103 206.384C107.106 206.533 107.167 206.676 107.271 206.783C107.376 206.89 107.518 206.953 107.667 206.96C107.817 206.967 107.963 206.917 108.077 206.82C115.117 200.705 120.197 190.152 121.879 178.7C122.092 177.259 125.243 147.638 125.968 142.331C127.65 130.011 128.206 118.325 134.016 107.336C136.573 102.499 140.829 98.5057 142.686 93.0022C143.14 91.5231 143.29 89.9673 143.126 88.4287C142.962 86.8901 142.488 85.4008 141.732 84.0508Z" fill="#191919"/>
<path d="M116.235 92.8502C119.165 92.7322 121.846 90.7628 124.227 88.9782C127.441 86.4581 131.087 84.5448 134.988 83.3321C135.042 82.5242 135.114 81.7358 135.164 80.9297C125.748 82.9361 122.333 88.4185 115.904 91.6639C115.787 91.7376 115.696 91.8471 115.646 91.9762C115.597 92.1053 115.59 92.2471 115.627 92.3805C115.664 92.5138 115.743 92.6315 115.853 92.7162C115.962 92.8008 116.096 92.8478 116.235 92.8502Z" fill="#191919"/>
</svg>
